<svg xmlns="http://www.w3.org/2000/svg" viewBox="0 0 77.89 86.68"><defs><style>.cls-1{fill:#b3d5d5;}.cls-2{fill:#fa483c;}.cls-3{fill:#f9ba2b;}.cls-4{fill:#007883;}.cls-5{fill:#292d37;}</style></defs><g id="Слой_2" data-name="Слой 2"><g id="OBJECTS"><rect class="cls-1" x="-4.4" y="4.4" width="86.68" height="77.89" transform="translate(82.29 4.4) rotate(90)"/><path class="cls-2" d="M23.22,60.48a.6.6,0,0,0-.33-.2l-.2,0h0a1.86,1.86,0,0,0,0-.33h0l.07.26s0,0,.11.07c.29-.1.34-.17.3-.24a.39.39,0,0,1,0-.18.42.42,0,0,0-.12-.42s0,0,0-.08a1.07,1.07,0,0,0,0-.43c0-.08-.11-.12-.15-.19a3.76,3.76,0,0,0-.39-.59,2.91,2.91,0,0,0-.44-.49,1.64,1.64,0,0,0-.3-.14l-.56-.22c-.19-.07-.41,0-.58-.15,0,0,0,0-.05,0a.68.68,0,0,1-.19,0c-.27,0-.53.06-.79.07s-.35.19-.53.23a1.37,1.37,0,0,0-.48.31s-.08,0-.11.08-.11.2-.18.27-.22.31-.36.43a1,1,0,0,0-.25.41.44.44,0,0,0-.1.22,1.45,1.45,0,0,1-.06.3c0,.14-.12.25-.14.39a.87.87,0,0,0,0,.23.45.45,0,0,1,0,.11c0,.06-.06.13,0,.19a1.18,1.18,0,0,1,.08.49.79.79,0,0,0,.1.37c0,.06.07.1,0,.19s0,0,0,0a.34.34,0,0,1,.08.09c.14.23.19.57.47.71s.22.23.34.34a.64.64,0,0,0,.13.1,4.05,4.05,0,0,0,.55.2,1.15,1.15,0,0,1,.23.1c.18.1.39,0,.56.16h0a.49.49,0,0,1,.37,0,.45.45,0,0,0,.39,0c.08-.05.2,0,.29,0s.12,0,.18,0l.28-.1.07,0,.32-.13s.1,0,.15,0,0-.17,0-.18a1.19,1.19,0,0,0,.47-.32,3,3,0,0,0,.51-.55s0-.1.07-.15.17-.12.09-.25,0,0,0-.06a1.58,1.58,0,0,0,.28-.3,0,0,0,0,0,0,0A3.86,3.86,0,0,0,23.22,60.48Zm-.63.33h0a2.32,2.32,0,0,0,.05-.38C22.78,60.57,22.67,60.7,22.59,60.81Z"/><path class="cls-2" d="M69.1,18.66a.64.64,0,0,0-.33-.2l-.2,0,0,0v0c0-.11,0-.22,0-.33h0l.06.26s.06,0,.12.07c.28-.09.33-.16.3-.24a.3.3,0,0,1,0-.18.44.44,0,0,0-.13-.42s0-.05,0-.08a1.57,1.57,0,0,0,0-.43c0-.08-.11-.12-.15-.18a3.85,3.85,0,0,0-.39-.6,2.54,2.54,0,0,0-.45-.48,1.4,1.4,0,0,0-.3-.15L67,15.45c-.19-.07-.4,0-.58-.15,0,0,0,0,0,0a1.06,1.06,0,0,1-.19,0c-.26,0-.52.05-.79.06s-.34.19-.53.23a1.46,1.46,0,0,0-.48.31s-.08,0-.11.08-.1.2-.18.27-.21.31-.36.43a1.08,1.08,0,0,0-.25.41.74.74,0,0,0-.1.22c0,.11,0,.2-.05.31s-.12.24-.15.38a.88.88,0,0,0,0,.23.41.41,0,0,1,0,.11c0,.06-.07.13,0,.19a1.17,1.17,0,0,1,.07.49.87.87,0,0,0,.11.38.16.16,0,0,1,0,.18s0,0,0,0l.08.09c.15.24.2.57.47.71s.22.23.35.34.07.08.12.1a3.73,3.73,0,0,0,.56.2.65.65,0,0,1,.22.11c.18.09.39,0,.57.15a0,0,0,0,0,0,0,.52.52,0,0,1,.36-.05.48.48,0,0,0,.39,0c.09-.06.21,0,.3,0s.12,0,.17,0l.29-.1.07,0,.32-.13s.1,0,.15,0,0-.17,0-.18a1.48,1.48,0,0,0,.47-.31,3.76,3.76,0,0,0,.5-.55s0-.11.07-.16.18-.12.09-.25,0,0,0-.06a2.68,2.68,0,0,0,.28-.3s0,0,0,0A2.82,2.82,0,0,0,69.1,18.66Zm-.63.33h0a2.35,2.35,0,0,0,.05-.37C68.65,18.75,68.54,18.88,68.47,19Z"/><path class="cls-3" d="M55.19,45.3a.57.57,0,0,0-.3-.18l-.19,0h0c0-.1,0-.2,0-.31h0l.06.24.1.06c.26-.09.31-.15.28-.22a.35.35,0,0,1,0-.17.41.41,0,0,0-.11-.39s0,0,0-.07a1.36,1.36,0,0,0,0-.4c0-.07-.1-.11-.14-.17a3.25,3.25,0,0,0-.36-.55,2.43,2.43,0,0,0-.41-.44,1.47,1.47,0,0,0-.28-.14l-.51-.2c-.18-.07-.38,0-.54-.14,0,0,0,0,0,0a1,1,0,0,1-.17,0c-.25,0-.48.05-.73.06s-.32.18-.49.22a1.14,1.14,0,0,0-.44.28,1.05,1.05,0,0,0-.11.07c-.06.08-.09.19-.16.25s-.2.29-.34.4a1,1,0,0,0-.23.38c0,.07-.08.12-.08.2a2.3,2.3,0,0,1-.06.28c0,.13-.11.23-.13.36a.74.74,0,0,0,0,.21.34.34,0,0,1,0,.1c0,.06-.05.12,0,.18a1.15,1.15,0,0,1,.07.45.73.73,0,0,0,.09.35s.07.09,0,.17,0,0,0,0l.07.09c.13.22.18.52.43.66s.2.21.32.3a.38.38,0,0,0,.12.1,3.09,3.09,0,0,0,.51.18,1,1,0,0,1,.21.1c.16.09.35,0,.52.14h0a.48.48,0,0,1,.33,0,.5.5,0,0,0,.36,0c.08,0,.19,0,.28,0s.11,0,.16,0l.26-.1.06,0,.3-.12s.09,0,.14,0,0-.16,0-.17a1.09,1.09,0,0,0,.44-.29,2.81,2.81,0,0,0,.47-.5s0-.1.06-.14.16-.12.08-.24,0,0,0-.05a2.33,2.33,0,0,0,.26-.28v0A3.27,3.27,0,0,0,55.19,45.3Zm-.58.3h0a2.11,2.11,0,0,0,0-.35C54.78,45.39,54.68,45.51,54.61,45.6Z"/><path class="cls-3" d="M10.38,30.13a.52.52,0,0,0-.3-.19l-.19,0,0,0v0c0-.1,0-.2,0-.3h0l.05.24s.06,0,.11.06c.26-.09.31-.15.28-.22a.32.32,0,0,1,0-.16.42.42,0,0,0-.11-.4s0,0,0-.07a1.33,1.33,0,0,0,0-.4c0-.07-.1-.1-.14-.16a3.33,3.33,0,0,0-.36-.56,2.82,2.82,0,0,0-.41-.44A1.47,1.47,0,0,0,9,27.36l-.51-.19c-.18-.07-.38,0-.54-.15h0a1,1,0,0,1-.17,0,6,6,0,0,0-.73.06c-.19,0-.32.17-.49.21a1.44,1.44,0,0,0-.44.28s-.08,0-.11.08-.09.19-.16.25-.2.28-.34.39a1.14,1.14,0,0,0-.23.38c0,.07-.08.13-.09.2a2.5,2.5,0,0,1,0,.29c0,.12-.11.23-.13.35a.74.74,0,0,0,0,.21.41.41,0,0,1,0,.11c0,.05-.05.12,0,.17a1.18,1.18,0,0,1,.07.45.73.73,0,0,0,.09.35c0,.05.07.09,0,.17s0,0,0,0l.07.08c.13.22.18.52.43.66s.2.21.32.31a.54.54,0,0,0,.12.09,3.09,3.09,0,0,0,.51.18.75.75,0,0,1,.2.1c.17.1.36,0,.53.15,0,0,0,0,0,0a.43.43,0,0,1,.33,0,.41.41,0,0,0,.36,0c.08,0,.19,0,.27,0s.11,0,.17,0l.26-.1h.06l.3-.13s.09,0,.14,0,0-.15,0-.16a1.21,1.21,0,0,0,.44-.29,2.79,2.79,0,0,0,.46-.51s0-.1.07-.14.16-.11.08-.23,0,0,0-.06a2.38,2.38,0,0,0,.26-.28v0A3.14,3.14,0,0,0,10.38,30.13Zm-.58.3h0a2,2,0,0,0,.05-.35C10,30.21,9.87,30.33,9.8,30.43Z"/><path class="cls-4" d="M29.15,18.2a.53.53,0,0,0-.29-.18l-.18,0h0a1.45,1.45,0,0,0,0-.3h0l.06.23s0,0,.1.07c.26-.09.31-.15.28-.22a.24.24,0,0,1,0-.16.41.41,0,0,0-.11-.38s0,0,0-.07a1.33,1.33,0,0,0,0-.39c0-.07-.1-.11-.14-.16a3.11,3.11,0,0,0-.35-.54,1.81,1.81,0,0,0-.4-.43,1.15,1.15,0,0,0-.27-.14l-.5-.19c-.17-.07-.36,0-.52-.14H26.7a.86.86,0,0,1-.17,0c-.24,0-.47,0-.71.06s-.31.17-.47.21a1.23,1.23,0,0,0-.43.28.26.26,0,0,0-.11.07c-.06.07-.09.18-.16.24s-.19.28-.32.39a1,1,0,0,0-.23.37c0,.06-.08.12-.08.19a2.33,2.33,0,0,1-.05.28c0,.12-.11.22-.13.34a.74.74,0,0,0,0,.21.34.34,0,0,1,0,.1c0,.06-.05.12,0,.17a1.12,1.12,0,0,1,.06.44.83.83,0,0,0,.1.34c0,.05.06.09,0,.16s0,0,0,0l.07.08c.13.21.17.51.42.64s.2.21.31.3a1.27,1.27,0,0,0,.12.1,4.75,4.75,0,0,0,.49.17.75.75,0,0,1,.2.1c.17.09.35,0,.51.14s0,0,0,0a.49.49,0,0,1,.33-.05.4.4,0,0,0,.35,0c.07-.05.18,0,.26,0s.11,0,.16,0a1.34,1.34,0,0,0,.26-.09l.06,0,.29-.12s.09,0,.13,0,0-.15,0-.16a1.11,1.11,0,0,0,.42-.28,2.68,2.68,0,0,0,.45-.5s0-.09.07-.13.15-.11.08-.23,0,0,0-.05a2.23,2.23,0,0,0,.26-.27v0A3.14,3.14,0,0,0,29.15,18.2Zm-.56.3h0a1.86,1.86,0,0,0,.05-.34C28.75,18.28,28.65,18.4,28.59,18.5Z"/><path class="cls-4" d="M51.14,78c0-.07-.14-.13-.3-.19l-.18,0h0c0-.1,0-.2,0-.3h0l.06.24s.05,0,.1.06c.26-.09.3-.15.27-.22a.42.42,0,0,1,0-.16.37.37,0,0,0-.11-.38.08.08,0,0,1,0-.07,1,1,0,0,0,0-.39c0-.07-.1-.1-.13-.16a3.84,3.84,0,0,0-.35-.54,2.72,2.72,0,0,0-.4-.43,1,1,0,0,0-.27-.13l-.5-.2c-.18-.06-.37,0-.52-.14s0,0-.05,0a1,1,0,0,1-.17,0c-.24,0-.47,0-.71,0s-.31.18-.48.21a1.23,1.23,0,0,0-.43.28l-.1.07c-.06.07-.09.18-.16.24s-.19.28-.32.39a.89.89,0,0,0-.23.37.82.82,0,0,0-.09.19,1.26,1.26,0,0,1,0,.28c0,.12-.11.22-.13.35a1.33,1.33,0,0,0,0,.2.31.31,0,0,1,0,.1c0,.06-.06.12,0,.17a1.13,1.13,0,0,1,.07.44,1,1,0,0,0,.09.34s.07.09,0,.17,0,0,0,0,0,.05.06.08c.13.22.18.51.43.64s.19.21.31.3a.35.35,0,0,0,.11.1,2.27,2.27,0,0,0,.5.17.75.75,0,0,1,.2.1c.16.09.35,0,.51.14s0,0,0,0a.46.46,0,0,1,.32,0,.39.39,0,0,0,.35,0c.08,0,.19,0,.27,0s.11,0,.16,0l.25-.1h.06l.29-.12s.09,0,.14,0,0-.16,0-.17a1.11,1.11,0,0,0,.43-.28,2.62,2.62,0,0,0,.45-.49s0-.1.06-.14.16-.11.08-.23,0,0,0-.05a2.16,2.16,0,0,0,.25-.27s0,0,0,0A2.2,2.2,0,0,0,51.14,78Zm-.57.29h0a1.86,1.86,0,0,0,0-.34C50.74,78,50.64,78.15,50.57,78.25Z"/><path class="cls-5" d="M28.51,37.94s-.06,0-.12-.07H28.3a.41.41,0,0,0,0-.11h0l0,.09.05,0c.1,0,.12,0,.11-.08a.14.14,0,0,1,0-.06.15.15,0,0,0,0-.14v0a.39.39,0,0,0,0-.15s0,0-.06-.06a.9.9,0,0,0-.14-.2s-.1-.11-.16-.16L28,36.94l-.21-.07c-.07,0-.15,0-.21,0h-.09l-.29,0c-.07,0-.12.07-.19.08a.64.64,0,0,0-.18.1l0,0a.7.7,0,0,1-.06.09c-.06,0-.08.1-.14.14a.42.42,0,0,0-.09.14.15.15,0,0,0,0,.07s0,.07,0,.1,0,.09-.06.13v.12s0,0,0,.06a.29.29,0,0,1,0,.16.22.22,0,0,0,0,.13.06.06,0,0,1,0,.06h0l0,0c0,.08.07.19.17.24s.08.08.13.11a.09.09,0,0,0,.05,0l.2.07.08,0c.07,0,.14,0,.21.05h0a.18.18,0,0,1,.14,0,.17.17,0,0,0,.14,0s.08,0,.11,0h.06l.11,0h0l.12,0H28s0-.06,0-.06a.48.48,0,0,0,.17-.1l.19-.19s0,0,0,0,.07,0,0-.08,0,0,0,0l.1-.1h0A.87.87,0,0,0,28.51,37.94Zm-.23.11h0s0-.08,0-.13S28.31,38,28.28,38.05Z"/><path class="cls-5" d="M10.73,76.08a.22.22,0,0,0-.12-.07h-.09s0-.07,0-.11h0l0,.09,0,0c.11,0,.13-.06.11-.08a.07.07,0,0,1,0-.06.13.13,0,0,0-.05-.14v0a.32.32,0,0,0,0-.14s-.05,0-.06-.06a1.43,1.43,0,0,0-.14-.2,1.21,1.21,0,0,0-.16-.16l-.11,0L10,75c-.07,0-.15,0-.21-.05H9.66l-.29,0a1.08,1.08,0,0,0-.19.08.52.52,0,0,0-.18.1s0,0,0,0,0,.07-.07.09-.08.1-.13.14a.26.26,0,0,0-.09.14s0,0,0,.07a.3.3,0,0,1,0,.1c0,.05,0,.08,0,.13s0,0,0,.08a0,0,0,0,1,0,0s0,0,0,.07a.41.41,0,0,1,0,.16.17.17,0,0,0,0,.12.08.08,0,0,1,0,.07h0l0,0c.05.08.07.19.17.24s.08.07.13.11l0,0,.21.07s0,0,.08,0,.14,0,.21,0,0,0,0,0a.2.2,0,0,1,.13,0,.26.26,0,0,0,.15,0s.07,0,.11,0H10l.1,0h0l.12,0s0,0,0,0,0-.06,0-.06a.39.39,0,0,0,.17-.11,1.07,1.07,0,0,0,.19-.18s0,0,0-.05.07,0,0-.08a0,0,0,0,1,0,0l.1-.1v0A1.11,1.11,0,0,0,10.73,76.08Zm-.23.1h0a.3.3,0,0,0,0-.13C10.56,76.11,10.52,76.15,10.5,76.18Z"/><path class="cls-5" d="M66.14,78.21a.22.22,0,0,0-.12-.07h-.09s0-.07,0-.11h0l0,.09,0,0c.11,0,.13-.06.11-.08a.07.07,0,0,1,0-.06.13.13,0,0,0,0-.14s0,0,0,0a.33.33,0,0,0,0-.14s0,0-.05-.06a1.43,1.43,0,0,0-.14-.2.87.87,0,0,0-.17-.16l-.11-.05-.2-.07c-.07,0-.15,0-.21,0a0,0,0,0,0,0,0h-.07l-.29,0a1.19,1.19,0,0,0-.2.08.42.42,0,0,0-.17.1s0,0,0,0,0,.06-.07.09-.08.1-.13.14a.26.26,0,0,0-.09.14s0,0,0,.07a.3.3,0,0,1,0,.1S64,78,64,78s0,0,0,.07,0,0,0,0,0,0,0,.07a.41.41,0,0,1,0,.16.27.27,0,0,0,0,.12s0,0,0,.06,0,0,0,0l0,0c.05.08.07.19.17.24s.08.07.12.11l0,0,.2.07a.32.32,0,0,1,.09,0c.06,0,.14,0,.21,0s0,0,0,0a.2.2,0,0,1,.13,0,.26.26,0,0,0,.15,0s.07,0,.1,0h.07l.1,0h0l.12,0s0,0,0,0,0-.06,0-.06a.39.39,0,0,0,.17-.11,1.07,1.07,0,0,0,.19-.18s0,0,0,0,.06,0,0-.09h0l.11-.1v0C66.19,78.31,66.16,78.26,66.14,78.21Zm-.24.1h0a.69.69,0,0,0,0-.13S65.93,78.28,65.9,78.31Z"/><path class="cls-5" d="M9.6,7.77l-.12-.06H9.39s0-.08,0-.11h0l0,.08,0,0c.11,0,.13-.06.11-.08a.07.07,0,0,1,0-.06.13.13,0,0,0,0-.14v0a.78.78,0,0,0,0-.14s0,0-.06-.07L9.31,7a.65.65,0,0,0-.17-.16.22.22,0,0,0-.11,0l-.2-.07c-.07,0-.15,0-.21-.06h0l-.07,0a1.42,1.42,0,0,0-.29,0c-.07,0-.13.06-.2.08a.42.42,0,0,0-.17.1l0,0s0,.07-.07.09-.08.11-.13.15a.28.28,0,0,0-.09.13s0,0,0,.08a.44.44,0,0,1,0,.1s0,.08-.05.13,0,0,0,.07a.06.06,0,0,1,0,0s0,0,0,.06a.5.5,0,0,1,0,.16.28.28,0,0,0,0,.13s0,0,0,.06,0,0,0,0l0,0c0,.07.07.18.17.23s.08.08.13.11l0,0a.83.83,0,0,0,.21.06l.08,0c.06,0,.14,0,.21.05h0a.32.32,0,0,1,.13,0,.2.2,0,0,0,.15,0s.07,0,.11,0h.06l.1,0H9l.12-.05h.05s0-.05,0-.06a.48.48,0,0,0,.17-.1,1.62,1.62,0,0,0,.19-.18s0,0,0-.05.06,0,0-.09v0L9.67,8h0A1.22,1.22,0,0,0,9.6,7.77Zm-.23.11h0a.5.5,0,0,0,0-.12S9.39,7.85,9.37,7.88Z"/><path class="cls-5" d="M69.64,35.33s-.06,0-.12-.07h-.09s0-.07,0-.11h0l0,.09,0,0c.11,0,.13,0,.11-.08s0,0,0-.06a.13.13,0,0,0,0-.14v0a.32.32,0,0,0,0-.14s0,0-.06-.06a1.43,1.43,0,0,0-.14-.2,1.21,1.21,0,0,0-.16-.16l-.11-.05-.21-.07c-.07,0-.15,0-.21,0h-.09l-.29,0c-.07,0-.13.07-.19.08a.64.64,0,0,0-.18.1s0,0,0,0,0,.07-.07.09-.07.1-.13.14-.06.09-.09.14a.43.43,0,0,0,0,.07.3.3,0,0,1,0,.1s0,.08,0,.13,0,.05,0,.08v0s0,.05,0,.07a.41.41,0,0,1,0,.16.17.17,0,0,0,0,.12.08.08,0,0,1,0,.07h0l0,0c.05.08.07.19.17.24s.08.07.13.11l0,0,.2.07s0,0,.08,0,.14,0,.21.06h0a.23.23,0,0,1,.14,0,.23.23,0,0,0,.14,0s.07,0,.11,0h.06l.11,0h0l.12,0s0,0,0,0,0-.06,0-.06a.39.39,0,0,0,.17-.11,1.07,1.07,0,0,0,.19-.18s0,0,0,0,.07,0,0-.08,0,0,0,0l.1-.1v0A1.11,1.11,0,0,0,69.64,35.33Zm-.23.11h0a.57.57,0,0,0,0-.13S69.44,35.4,69.41,35.44Z"/><path class="cls-5" d="M49.6,8.78s-.06,0-.12-.06h-.09a.37.37,0,0,0,0-.11h0l0,.08.05,0c.1,0,.12-.06.11-.08a.14.14,0,0,1,0-.06.14.14,0,0,0,0-.14,0,0,0,0,1,0,0,.36.36,0,0,0,0-.14s0,0-.06-.06a.9.9,0,0,0-.14-.2.81.81,0,0,0-.16-.16.27.27,0,0,0-.11,0l-.21-.07c-.07,0-.14,0-.21-.06h0l-.07,0a1.46,1.46,0,0,0-.29,0c-.07,0-.12.06-.19.08a.46.46,0,0,0-.18.1l0,0L47.77,8c-.06,0-.08.11-.14.15s-.06.09-.09.13,0,.05,0,.08,0,.06,0,.1-.05.08-.06.13v.11s0,0,0,.06a.32.32,0,0,1,0,.16.28.28,0,0,0,0,.13s0,0,0,.06v0s0,0,0,0,.07.18.17.23.08.08.13.11l.05,0a.66.66,0,0,0,.2.06l.08,0c.07,0,.14,0,.21,0h0a.34.34,0,0,1,.14,0,.17.17,0,0,0,.14,0h.17l.11,0h0l.12,0h.06s0-.05,0-.06a.46.46,0,0,0,.18-.1,1,1,0,0,0,.18-.18s0,0,0-.05.06,0,0-.09,0,0,0,0l.1-.1h0A1.22,1.22,0,0,0,49.6,8.78Zm-.23.11h0s0-.08,0-.12S49.4,8.86,49.37,8.89Z"/><path class="cls-5" d="M55.72,60.73a.22.22,0,0,0-.12-.06h-.09s0-.08,0-.11h0l0,.08,0,0c.11,0,.13-.06.11-.08a.07.07,0,0,1,0-.06.14.14,0,0,0,0-.15v0a.78.78,0,0,0,0-.14s-.05,0-.06-.07a2.43,2.43,0,0,0-.14-.2.83.83,0,0,0-.17-.15.22.22,0,0,0-.11,0l-.2-.08c-.07,0-.15,0-.21,0h0l-.07,0a1.42,1.42,0,0,0-.29,0c-.07,0-.13.06-.19.07a.54.54,0,0,0-.18.11l0,0s0,.07-.07.09-.08.11-.13.15a.28.28,0,0,0-.09.13s0,.05,0,.08a.44.44,0,0,1,0,.1s0,.08-.05.12a.21.21,0,0,0,0,.08.06.06,0,0,1,0,0s0,0,0,.06a.5.5,0,0,1,0,.16.28.28,0,0,0,0,.13s0,0,0,.06,0,0,0,0l0,0c.05.08.07.19.17.24s.08.08.13.11l0,0,.21.06.08,0c.06,0,.14,0,.21.05h0a.32.32,0,0,1,.13,0,.2.2,0,0,0,.15,0s.07,0,.11,0H55l.1,0h0l.12,0h0s0,0,0-.06a.48.48,0,0,0,.17-.1,1.62,1.62,0,0,0,.19-.18s0,0,0-.05.07,0,0-.09,0,0,0,0l.11-.1h0A.87.87,0,0,0,55.72,60.73Zm-.23.11h0a.5.5,0,0,0,0-.12S55.51,60.81,55.49,60.84Z"/><path class="cls-5" d="M46.89,17.94s-6.55,44.3-7.3,50.77c0,0-4.81,1.24-6.55-1.16v-.09c0-2.49,5.72-37.57,6.38-43-2.73,2.49-5.89,4.73-6.05,4.57a1.43,1.43,0,0,1-.58-1.5s1-1.08,8.46-11a2.12,2.12,0,0,0,.41-.17,6.57,6.57,0,0,1,1.25-.08c1.24,0,3.31.5,3.9,1.49Z"/></g></g></svg>