<svg xmlns="http://www.w3.org/2000/svg" viewBox="0 0 69.55 121.36"><defs><style>.cls-1{isolation:isolate;}.cls-2{fill:#b3d5d5;}.cls-3{fill:#fa483c;}.cls-4{fill:#137a83;}.cls-5{fill:#292d37;}.cls-6{fill:#fff;}.cls-7{opacity:0.57;mix-blend-mode:multiply;}.cls-8{fill:#c75952;}</style></defs><g class="cls-1"><g id="Слой_2" data-name="Слой 2"><g id="OBJECTS"><rect class="cls-2" x="-25.9" y="25.9" width="121.36" height="69.55" transform="translate(95.45 25.9) rotate(90)"/><path class="cls-3" d="M57.37,34.29a7.2,7.2,0,0,1,5.13-2c.85,0,1.84.45,2,1.3a1.5,1.5,0,0,1-.55,1.25,4.51,4.51,0,0,1-1.25.7l-3.72,1.56c-1,.44-2.5,1.42-3.6,1.52-1.47.14-.53-.92,0-1.88A10.25,10.25,0,0,1,57.37,34.29Z"/><path class="cls-4" d="M59.62,41.73a5.54,5.54,0,0,1,3.78,1.91c.41.51.69,1.29.26,1.78a1.13,1.13,0,0,1-1,.34,3.24,3.24,0,0,1-1-.36l-2.82-1.32A11.84,11.84,0,0,1,56.1,42.8c-.84-.77.25-.77,1.1-.94A7.87,7.87,0,0,1,59.62,41.73Z"/><path class="cls-4" d="M50.2,33.31a5.56,5.56,0,0,1,.28-4.22c.31-.58.92-1.14,1.54-.95a1.15,1.15,0,0,1,.7.8A3.31,3.31,0,0,1,52.8,30l-.12,3.1a12,12,0,0,1-.1,3c-.39,1.07-.82.07-1.3-.64A8.07,8.07,0,0,1,50.2,33.31Z"/><path class="cls-3" d="M14.27,78.44a7.2,7.2,0,0,1-4.72,2.82c-.85.1-1.9-.14-2.15-1A1.49,1.49,0,0,1,7.73,79a4.35,4.35,0,0,1,1.11-.89l3.41-2.18c.94-.6,2.22-1.81,3.29-2.1,1.43-.38.67.83.27,1.87A10,10,0,0,1,14.27,78.44Z"/><path class="cls-4" d="M10.79,71.49a5.51,5.51,0,0,1-4-1.24c-.5-.44-.9-1.16-.57-1.72a1.14,1.14,0,0,1,.93-.5,3.31,3.31,0,0,1,1.08.18l3,.83a11.43,11.43,0,0,1,2.89.8c.95.62-.12.81-.93,1.11A7.71,7.71,0,0,1,10.79,71.49Z"/><path class="cls-4" d="M21.5,78.21a5.5,5.5,0,0,1,.43,4.2c-.21.62-.71,1.28-1.36,1.19a1.14,1.14,0,0,1-.82-.66,3.51,3.51,0,0,1-.26-1.06c-.14-1-.27-2.06-.41-3.08a12.34,12.34,0,0,1-.4-3c.2-1.12.8-.2,1.39.42A7.7,7.7,0,0,1,21.5,78.21Z"/><path class="cls-5" d="M47.77,87.32s-3.33,22.53-3.71,25.82c0,0-2.45.63-3.33-.59v0c0-1.27,2.91-19.12,3.25-21.86A15.21,15.21,0,0,1,40.9,93a.73.73,0,0,1-.3-.76s.51-.55,4.3-5.61a.87.87,0,0,0,.21-.09,3.49,3.49,0,0,1,.64,0,2.65,2.65,0,0,1,2,.76Z"/><path class="cls-5" d="M54.91,112.89c-11.4,0-6.71-26.42,4.68-26.42C70,86.47,63,112.89,54.91,112.89ZM60,87c-6.75,0-11.65,25.4-5.1,25.4C62.46,112.38,68.62,87,60,87Z"/><path class="cls-6" d="M33.52,75.37a15.4,15.4,0,0,1-9.42-2.13c-4.18-2.72-6.09-7.8-7.31-12.63-.14-.56-.28-1.11-.41-1.68A18.41,18.41,0,0,1,33.52,75.37Z"/><path class="cls-3" d="M55.57,50.2c4,1.2,5.82,6.43,4.5,10.44s-4.84,6.92-8.49,9a43.75,43.75,0,0,1-14.26,5.24,28,28,0,0,1-3.8.45A18.41,18.41,0,0,0,16.38,58.93c-2-8.54-2.75-17.34-3.27-26.13v-.19a8.63,8.63,0,0,0,1.83,0l3.27-.41,21.24-2.61a7.78,7.78,0,0,0,1.07-.21l0,.07q1,6.54,2,13.07c.38,2.44.93,5.16,3,6.54C48.35,51,52.29,49.23,55.57,50.2Z"/><path class="cls-6" d="M46.94,20l-.1-.81a8.6,8.6,0,0,0-9.59-7.48l-17,2.1-7.45.91a8.61,8.61,0,0,0-7.49,9.59l.1.8A8.6,8.6,0,0,0,15,32.58l3.27-.41,21.24-2.61a7.78,7.78,0,0,0,1.07-.21A8.58,8.58,0,0,0,46.94,20Z"/><g class="cls-7"><path class="cls-8" d="M16.13,38.29a.29.29,0,0,1,.24-.15.36.36,0,0,1,.14,0,.33.33,0,0,1,.16.09c.06.06.08.09.08.12h0c.06.16,0,.25-.13.25a.1.1,0,0,0-.08,0,.86.86,0,0,0-.23.33,1,1,0,0,1-.11.2l-.21.4c-.09.21-.22.41-.41.25l-.32-.21-.06,0a1.29,1.29,0,0,0-.39-.23,1.13,1.13,0,0,1-.18-.12L14.32,39,14.2,39l0,0a.43.43,0,0,0,0,0l0,0s0,0,0,0l.17,0,.31.15a.38.38,0,0,1,.17.08,2,2,0,0,0,.46.22c.06,0,.14.1.18.11s.12,0,.11-.08v0s0,0,0-.06l.1-.21.06-.14a2.43,2.43,0,0,0,.18-.4C16,38.4,16.1,38.35,16.13,38.29Z"/></g><g class="cls-7"><path class="cls-8" d="M17,34.9a.3.3,0,0,1,.23-.17h.14a.39.39,0,0,1,.16.08c.07,0,.09.08.09.11h0c.08.16,0,.25-.11.26s-.05,0-.07,0a.75.75,0,0,0-.21.34,1.45,1.45,0,0,1-.09.22l-.18.41c-.08.22-.19.42-.39.28l-.34-.19-.06,0a1.56,1.56,0,0,0-.41-.2.81.81,0,0,1-.18-.1l-.33-.22-.12-.06s0,0,0,0a.23.23,0,0,0,0,0v0s0,0,0,0a.47.47,0,0,1,.17,0l.33.12a.51.51,0,0,1,.17.07,2.11,2.11,0,0,0,.47.19c.07,0,.16.08.2.09s.11,0,.1-.09v-.09l.08-.22.05-.15a1.82,1.82,0,0,0,.15-.41C16.87,35,17,35,17,34.9Z"/></g><g class="cls-7"><path class="cls-8" d="M19.88,37.24a.29.29,0,0,1,.25-.13l.14,0a.92.92,0,0,1,.14.11c.06.06.07.1.07.12h0q.07.27-.15.24a.1.1,0,0,0-.08,0A.94.94,0,0,0,20,38a1.37,1.37,0,0,1-.13.2l-.24.38c-.12.2-.26.38-.43.21l-.31-.24-.05,0a1.37,1.37,0,0,0-.37-.26,1,1,0,0,1-.17-.14L18,37.8l-.1-.07a.08.08,0,0,1,0,0s0,0,0,0l0,0,.05,0a1,1,0,0,1,.16.06l.3.17a.7.7,0,0,1,.16.1,1.9,1.9,0,0,0,.43.26,1.11,1.11,0,0,0,.18.12c.07,0,.11,0,.11-.07v0l0-.06.12-.2.07-.14a1.55,1.55,0,0,0,.21-.38C19.76,37.34,19.84,37.3,19.88,37.24Z"/></g><g class="cls-7"><path class="cls-8" d="M23.87,36.56a.28.28,0,0,1,.26-.11.43.43,0,0,1,.14,0,.44.44,0,0,1,.13.12c.06.06.07.1.07.12s0,0,0,0c0,.18,0,.25-.17.23s-.06,0-.09,0a.86.86,0,0,0-.28.29,1.24,1.24,0,0,1-.14.18l-.27.36c-.12.2-.28.37-.44.19l-.29-.26-.05,0a1.21,1.21,0,0,0-.35-.29,1.14,1.14,0,0,1-.16-.15L22,37l-.1-.08s0,0,0,0a.07.07,0,0,0,0,0l0,0,.05,0,.16.08.28.19a.42.42,0,0,1,.16.11c.11.14.28.18.41.29s.13.11.17.13.11,0,.12-.06v0l0,0,.12-.19.08-.13a1.81,1.81,0,0,0,.24-.37C23.75,36.65,23.83,36.62,23.87,36.56Z"/></g><g class="cls-7"><path class="cls-8" d="M27.47,35.81a.34.34,0,0,1,.26-.12l.14,0a.38.38,0,0,1,.14.11c.06.06.07.09.07.12h0c0,.18,0,.25-.16.24s-.06,0-.08,0a.86.86,0,0,0-.27.3,1.33,1.33,0,0,1-.14.19l-.25.37c-.12.2-.26.38-.43.21l-.3-.25a.1.1,0,0,1-.05,0,1.31,1.31,0,0,0-.36-.27.79.79,0,0,1-.17-.14l-.28-.28-.11-.08s0,0,0,0l0-.05h0s0,0,0,0a.44.44,0,0,1,.16.06l.3.18a.7.7,0,0,1,.16.1,2.39,2.39,0,0,0,.43.27,1.55,1.55,0,0,0,.17.13c.07,0,.11,0,.12-.07v0s0,0,0-.06l.12-.2.07-.13a1.79,1.79,0,0,0,.22-.38C27.35,35.91,27.44,35.87,27.47,35.81Z"/></g><g class="cls-7"><path class="cls-8" d="M21.26,33.84a.27.27,0,0,1,.25-.13l.14,0a.37.37,0,0,1,.14.1c.06.06.08.1.08.12h0q.07.27-.15.24a.1.1,0,0,0-.08,0,.77.77,0,0,0-.26.31,2.26,2.26,0,0,1-.13.2l-.24.37c-.11.21-.25.39-.43.22l-.3-.23-.06,0a1.18,1.18,0,0,0-.37-.26,1.92,1.92,0,0,1-.17-.13l-.29-.27a.41.41,0,0,0-.11-.07s0,0,0-.05l0,0v0s0,0,.05,0a.44.44,0,0,1,.16.06l.3.16a1,1,0,0,1,.17.1c.12.13.29.16.43.26s.14.1.18.12.11,0,.12-.08v0s0,0,0-.05l.12-.21.07-.14a2,2,0,0,0,.21-.38C21.14,33.94,21.22,33.9,21.26,33.84Z"/></g><g class="cls-7"><path class="cls-8" d="M25.37,32.93a.29.29,0,0,1,.25-.13l.14,0a.38.38,0,0,1,.14.11.26.26,0,0,1,.08.12s0,0,0,0c0,.17,0,.25-.16.24s-.05,0-.07,0a.71.71,0,0,0-.26.31c0,.07-.09.13-.13.19l-.24.38c-.11.21-.25.39-.43.22l-.3-.23-.06,0a1.41,1.41,0,0,0-.37-.27,1,1,0,0,1-.17-.13l-.29-.26-.11-.08a.05.05,0,0,1,0,0l0,0a0,0,0,0,0,0,0l.05,0,.16.06.3.17a.91.91,0,0,1,.17.09,1.9,1.9,0,0,0,.43.26,1.11,1.11,0,0,0,.18.12c.07,0,.11,0,.11-.07v0s0,0,0-.06l.11-.2.07-.14a1.33,1.33,0,0,0,.21-.39C25.25,33,25.33,33,25.37,32.93Z"/></g><g class="cls-7"><path class="cls-8" d="M29.47,32.48a.3.3,0,0,1,.26-.1l.14,0a.44.44,0,0,1,.13.12c.05.07.06.11.05.13h0c0,.18,0,.25-.18.22s-.06,0-.08,0a1,1,0,0,0-.3.27c0,.07-.1.12-.14.18l-.29.35c-.14.19-.3.35-.45.16l-.28-.27,0-.05a1.63,1.63,0,0,0-.34-.3,1.06,1.06,0,0,1-.15-.15c-.09-.1-.17-.21-.26-.3a.81.81,0,0,0-.1-.09.07.07,0,0,1,0-.05l0,0,0,0s0,0,.05,0a.55.55,0,0,1,.15.08l.28.2c.05,0,.11.06.15.12s.27.2.4.31a1.77,1.77,0,0,0,.16.14c.06,0,.11,0,.12-.06v0s0,0,0-.06l.14-.18.09-.13a1.91,1.91,0,0,0,.25-.36C29.34,32.56,29.43,32.54,29.47,32.48Z"/></g><g class="cls-7"><path class="cls-8" d="M31.38,35.35a.25.25,0,0,1,.26-.1l.14,0,.13.13a.2.2,0,0,1,.06.13,0,0,0,0,0,0,0c0,.17,0,.25-.18.22a.08.08,0,0,0-.08,0,.75.75,0,0,0-.29.27,1.3,1.3,0,0,1-.15.18L31,36.6c-.13.19-.29.36-.45.17l-.28-.27,0,0a1.43,1.43,0,0,0-.34-.31.53.53,0,0,1-.15-.15l-.26-.3-.1-.09s0,0,0,0a.17.17,0,0,1,0-.05h0l.05,0,.15.08.28.21a.53.53,0,0,1,.15.11c.1.15.27.2.4.31a.94.94,0,0,0,.16.14c.07,0,.11,0,.12,0v0s0,0,0-.05l.14-.19.09-.12a2.31,2.31,0,0,0,.25-.36C31.25,35.43,31.34,35.4,31.38,35.35Z"/></g><g class="cls-7"><path class="cls-8" d="M33.79,32.25a.26.26,0,0,1,.27-.09.38.38,0,0,1,.13,0,.78.78,0,0,1,.13.13c0,.07.06.11,0,.13h0c0,.18,0,.25-.19.22s0,0-.08,0a.86.86,0,0,0-.3.27.83.83,0,0,1-.15.17l-.3.34c-.14.19-.3.35-.45.16l-.27-.28-.05,0a1.38,1.38,0,0,0-.33-.31.73.73,0,0,1-.14-.16c-.09-.1-.17-.21-.25-.31a.81.81,0,0,1-.1-.09s0,0,0,0l0,0h0l.05,0,.15.09.27.21c.05,0,.11.06.15.12s.27.2.39.32a1.77,1.77,0,0,0,.16.14c.06,0,.11,0,.12-.05v0l0,0,.14-.18.09-.13a1.62,1.62,0,0,0,.27-.35C33.66,32.33,33.75,32.3,33.79,32.25Z"/></g><g class="cls-7"><path class="cls-8" d="M35.51,35.21a.26.26,0,0,1,.27-.08l.13,0a.6.6,0,0,1,.12.14.3.3,0,0,1,0,.13h0c0,.18,0,.25-.19.21s-.06,0-.09,0a.75.75,0,0,0-.31.25c0,.07-.11.11-.16.17l-.31.32c-.15.18-.33.33-.47.13l-.25-.29,0-.05a1.22,1.22,0,0,0-.31-.33,1.14,1.14,0,0,1-.14-.16,3.71,3.71,0,0,0-.23-.32l-.09-.1s0,0,0,0a.08.08,0,0,1,0,0l0,0s0,0,0,0l.15.09.26.22c0,.05.1.07.14.13s.26.22.38.34.11.13.14.15.11,0,.13-.05l0,0,0,0,.15-.18L35,35.7a1.85,1.85,0,0,0,.29-.33C35.37,35.28,35.46,35.26,35.51,35.21Z"/></g><g class="cls-7"><path class="cls-8" d="M39.59,35.27a.28.28,0,0,1,.28,0,.37.37,0,0,1,.12.07.73.73,0,0,1,.11.15c0,.08,0,.11,0,.14h0c0,.18-.09.24-.22.18s-.06,0-.09,0a.73.73,0,0,0-.35.2.79.79,0,0,1-.18.14l-.35.28c-.17.16-.37.28-.48.07l-.21-.33,0,0a1.23,1.23,0,0,0-.26-.37,1.13,1.13,0,0,1-.12-.18l-.18-.35s-.06-.07-.08-.11a.07.07,0,0,1,0-.05l0,0,0,0s0,0,0,0l.13.11.23.26a.81.81,0,0,1,.12.14c.07.17.23.26.33.39a1.56,1.56,0,0,0,.12.17c.06,0,.11.06.14,0v0l0,0L39,35.8l.11-.1a1.81,1.81,0,0,0,.32-.3C39.45,35.32,39.54,35.32,39.59,35.27Z"/></g><g class="cls-7"><path class="cls-8" d="M37.94,32.32a.27.27,0,0,1,.27-.08l.13,0a.45.45,0,0,1,.13.14.26.26,0,0,1,.05.13h0c0,.18,0,.25-.19.21s-.06,0-.09,0a.93.93,0,0,0-.31.25,1.29,1.29,0,0,1-.16.17l-.31.33c-.15.18-.32.33-.46.13l-.26-.29,0,0a1.62,1.62,0,0,0-.31-.33.77.77,0,0,1-.15-.16L36,32.53l-.09-.09a.08.08,0,0,1,0,0l0,0h0l.05,0,.15.09.26.23c.05,0,.11.06.14.12s.26.22.38.34.11.13.15.15.11,0,.13,0v0s0,0,0-.05l.15-.18.1-.12a2.42,2.42,0,0,0,.28-.34C37.81,32.39,37.9,32.37,37.94,32.32Z"/></g><g class="cls-7"><path class="cls-8" d="M18.49,40.57a.29.29,0,0,1,.23-.16h.14a.44.44,0,0,1,.16.09c.07,0,.09.08.09.11h0c.08.16,0,.25-.11.26s-.05,0-.07,0a.75.75,0,0,0-.21.34,1.33,1.33,0,0,1-.09.21l-.18.41c-.08.22-.19.43-.39.29L17.72,42l-.06,0a1.36,1.36,0,0,0-.4-.2,1.14,1.14,0,0,1-.19-.1l-.33-.22a.67.67,0,0,0-.12-.06l0,0a.2.2,0,0,0,0-.05v0l0,0,.17,0,.33.12a.51.51,0,0,1,.17.07,2,2,0,0,0,.48.18,1.82,1.82,0,0,0,.19.1c.07,0,.11,0,.1-.09v0l0-.06.07-.22.05-.14a1.9,1.9,0,0,0,.15-.42C18.39,40.69,18.47,40.64,18.49,40.57Z"/></g><g class="cls-7"><path class="cls-8" d="M22.78,39.51a.29.29,0,0,1,.25-.13l.14,0a.55.55,0,0,1,.15.11c.05.06.07.09.07.12h0q.08.26-.15.24a.1.1,0,0,0-.08,0,.77.77,0,0,0-.26.31,1.27,1.27,0,0,1-.13.19l-.24.38c-.11.21-.25.39-.42.22l-.31-.23-.05,0a1.47,1.47,0,0,0-.37-.26.58.58,0,0,1-.17-.14l-.3-.26L20.8,40l0,0,0,0,0,0,0,0L21,40l.3.17a.59.59,0,0,1,.17.1,1.73,1.73,0,0,0,.44.25.77.77,0,0,0,.17.12c.07,0,.11,0,.12-.07v0s0,0,0-.06l.11-.2.07-.14a2.06,2.06,0,0,0,.21-.39C22.66,39.61,22.75,39.58,22.78,39.51Z"/></g><g class="cls-7"><path class="cls-8" d="M26.89,38.61a.29.29,0,0,1,.25-.13l.14,0a.38.38,0,0,1,.14.11c.06.05.08.09.08.12s0,0,0,0c0,.17,0,.25-.16.24s-.05,0-.07,0a.69.69,0,0,0-.26.3,1.37,1.37,0,0,1-.13.2l-.24.38c-.11.2-.25.39-.43.22l-.3-.24-.06,0a1.37,1.37,0,0,0-.37-.26,1,1,0,0,1-.17-.13L25,39.19a1.05,1.05,0,0,0-.11-.07s0,0,0,0l0,0v0l0,0a.76.76,0,0,1,.16.06l.3.17a.56.56,0,0,1,.17.09,1.9,1.9,0,0,0,.43.26,1.11,1.11,0,0,0,.18.12c.07,0,.11,0,.11-.07v0l0,0,.11-.21.08-.13a1.79,1.79,0,0,0,.2-.39C26.77,38.71,26.85,38.67,26.89,38.61Z"/></g><g class="cls-7"><path class="cls-8" d="M31,38.16a.27.27,0,0,1,.26-.1.48.48,0,0,1,.14,0,.44.44,0,0,1,.13.12c.05.07.06.1.06.13h0c0,.18,0,.25-.18.22a.08.08,0,0,0-.08,0,.83.83,0,0,0-.29.27l-.15.18-.29.34c-.13.19-.29.36-.45.17l-.28-.27,0-.05a1.38,1.38,0,0,0-.34-.3.77.77,0,0,1-.15-.16l-.26-.3-.1-.08a.07.07,0,0,1,0-.05l0,0,0,0,.05,0,.15.08.28.21a.83.83,0,0,1,.15.11c.1.15.27.2.4.31s.12.13.16.14.11,0,.12,0v0l0,0,.14-.19.09-.12a2.31,2.31,0,0,0,.25-.36C30.86,38.24,31,38.22,31,38.16Z"/></g><g class="cls-7"><path class="cls-8" d="M35.31,37.92a.29.29,0,0,1,.27-.09l.13.05a.52.52,0,0,1,.13.13c0,.07.06.1,0,.13h0c0,.18,0,.25-.18.22s-.06,0-.09,0a.77.77,0,0,0-.3.27,1.22,1.22,0,0,1-.15.17l-.3.34c-.14.19-.3.35-.45.15L34.15,39l0,0a1.62,1.62,0,0,0-.32-.32.71.71,0,0,1-.15-.15l-.25-.31-.1-.09a.07.07,0,0,1,0-.05l0,0h0l0,0,.15.08.27.22a.83.83,0,0,1,.15.11c.1.15.27.21.39.32a1.06,1.06,0,0,0,.16.15c.06,0,.11,0,.12,0v0l0,0,.14-.18.09-.13a1.87,1.87,0,0,0,.26-.35C35.18,38,35.27,38,35.31,37.92Z"/></g><g class="cls-7"><path class="cls-8" d="M39.36,38a.29.29,0,0,1,.27-.08l.13.06s.08.07.13.13,0,.1,0,.13h0c0,.18,0,.25-.19.21s-.06,0-.09,0a.84.84,0,0,0-.31.25,1.33,1.33,0,0,1-.16.17l-.31.33c-.15.18-.32.33-.46.13s-.17-.19-.26-.29l0-.05a1.62,1.62,0,0,0-.31-.33.77.77,0,0,1-.15-.16l-.23-.32-.1-.09a.43.43,0,0,1,0,0l0,0h0l0,0,.14.09.27.23a1.49,1.49,0,0,1,.14.12c.09.15.26.22.38.34a1.05,1.05,0,0,0,.15.15c.06,0,.11,0,.12-.05l0,0,0,0,.15-.18.09-.12a1.54,1.54,0,0,0,.28-.34C39.23,38,39.32,38,39.36,38Z"/></g><path class="cls-3" d="M56.78,18.52a.31.31,0,0,0-.12-.07h-.08a.45.45,0,0,0,0-.11h0l0,.09,0,0c.1,0,.12-.05.11-.08a.14.14,0,0,1,0-.06.15.15,0,0,0,0-.14s0,0,0,0a.33.33,0,0,0,0-.14s0,0,0-.07a1.37,1.37,0,0,0-.13-.2.77.77,0,0,0-.15-.16.24.24,0,0,0-.1,0l-.19-.08c-.07,0-.14,0-.2-.05h-.08a2.48,2.48,0,0,0-.27,0c-.07,0-.12.06-.18.08a.39.39,0,0,0-.16.1s0,0,0,0,0,.07-.06.09-.07.1-.12.14a.42.42,0,0,0-.09.14s0,.05,0,.08,0,.07,0,.1,0,.08,0,.13a.22.22,0,0,0,0,.08v0s0,0,0,.06a.51.51,0,0,1,0,.17.24.24,0,0,0,0,.12s0,0,0,.07h0s0,0,0,0,.07.19.16.24a.68.68,0,0,1,.12.12l0,0,.19.07s.05,0,.08,0,.13,0,.19.06h0a.13.13,0,0,1,.12,0,.17.17,0,0,0,.14,0s.07,0,.1,0h.06l.09,0h0l.11,0s0,0,.05,0,0-.06,0-.06a.38.38,0,0,0,.16-.11.77.77,0,0,0,.17-.19s0,0,0-.05.06,0,0-.08,0,0,0,0l.09-.11h0Zm-.22.11h0a.5.5,0,0,0,0-.12S56.59,18.6,56.56,18.63Z"/><path class="cls-5" d="M34,90a.2.2,0,0,0-.11-.07h-.08s0-.07,0-.11h0l0,.09s0,0,0,0,.11,0,.1-.08a.07.07,0,0,1,0-.06.13.13,0,0,0-.05-.14v0a.77.77,0,0,0,0-.15l-.06-.06a.86.86,0,0,0-.13-.2.57.57,0,0,0-.15-.16.24.24,0,0,0-.1,0l-.19-.08c-.07,0-.14,0-.2-.05h-.08a2.48,2.48,0,0,0-.27,0c-.06,0-.11.06-.18.08a.39.39,0,0,0-.16.1s0,0,0,0,0,.07-.06.09-.07.1-.12.14a.29.29,0,0,0-.08.14s0,0,0,.08a.36.36,0,0,1,0,.1s0,.08,0,.13v.12A.07.07,0,0,0,32,90a.5.5,0,0,1,0,.17.19.19,0,0,0,0,.12.08.08,0,0,1,0,.07s0,0,0,0l0,0c0,.08.06.19.16.24s.07.08.11.12l.05,0,.18.07s0,0,.08,0,.13,0,.19.06h0a.16.16,0,0,1,.13,0,.15.15,0,0,0,.13,0s.07,0,.1,0h.06l.1,0h0l.11,0s0,0,0,0,0-.06,0-.06a.57.57,0,0,0,.16-.11,1,1,0,0,0,.17-.19s0,0,0-.05.06,0,0-.08,0,0,0,0l.1-.11h0A1.22,1.22,0,0,0,34,90Zm-.21.11h0s0-.08,0-.12S33.85,90.07,33.83,90.1Z"/><path class="cls-6" d="M7.05,40A.26.26,0,0,0,6.94,40H6.86s0-.07,0-.11h0l0,.09,0,0c.09,0,.11,0,.1-.08a.14.14,0,0,1,0-.06.15.15,0,0,0,0-.14v0a.38.38,0,0,0,0-.15s0,0,0-.06a1.37,1.37,0,0,0-.13-.2.57.57,0,0,0-.15-.16.24.24,0,0,0-.1-.05l-.19-.08c-.07,0-.14,0-.2,0H6.06l-.27,0c-.07,0-.11.06-.18.07a.57.57,0,0,0-.16.11l0,0a.53.53,0,0,1-.06.1s-.07.1-.12.14a.42.42,0,0,0-.09.14s0,0,0,.08a.36.36,0,0,1,0,.1s0,.08,0,.13v.12A.14.14,0,0,0,5,40a.34.34,0,0,1,0,.17.27.27,0,0,0,0,.12s0,0,0,.07h0l0,0c0,.08.07.19.16.24a.68.68,0,0,1,.12.12l0,0,.19.07s.05,0,.08,0,.13,0,.19.06h0a.16.16,0,0,1,.13,0,.15.15,0,0,0,.13,0s.07,0,.1,0h.06l.1,0h0l.11,0s0,0,0,0,0-.06,0-.06a.38.38,0,0,0,.16-.11A.77.77,0,0,0,7,40.46s0,0,0-.05.06,0,0-.08,0,0,0,0l.09-.11s0,0,0,0A.49.49,0,0,0,7.05,40Zm-.22.11h0a.5.5,0,0,0,0-.12C6.9,40.05,6.86,40.1,6.83,40.13Z"/><path class="cls-6" d="M62.81,72.69s-.05,0-.11-.07h-.08a.41.41,0,0,0,0-.11h0l0,.09,0,0c.1,0,.11-.06.1-.08a.13.13,0,0,1,0-.06.17.17,0,0,0,0-.15s0,0,0,0a.39.39,0,0,0,0-.15s0,0,0-.06a1.37,1.37,0,0,0-.13-.2l-.15-.17-.11,0-.19-.07c-.06,0-.13,0-.19,0h-.08l-.27,0c-.07,0-.12.07-.18.08a.5.5,0,0,0-.17.11l0,0s0,.07-.06.09S61,72,61,72a.32.32,0,0,0-.08.14.15.15,0,0,0,0,.07s0,.07,0,.11,0,.08,0,.13,0,0,0,.08a0,0,0,0,1,0,0s0,0,0,.07a.3.3,0,0,1,0,.16.5.5,0,0,0,0,.13.07.07,0,0,1,0,.06s0,0,0,0l0,0c.05.08.07.19.16.24s.07.08.11.11l0,0a.6.6,0,0,0,.19.06l.07,0c.06,0,.13,0,.19,0s0,0,0,0a.17.17,0,0,1,.12,0,.19.19,0,0,0,.13,0s.07,0,.1,0h.06l.1,0h0l.11,0h.05s0,0,0-.06a.54.54,0,0,0,.16-.1,1.54,1.54,0,0,0,.17-.19s0,0,0,0,.06,0,0-.09,0,0,0,0l.1-.1h0A.87.87,0,0,0,62.81,72.69Zm-.21.11h0s0-.08,0-.13S62.63,72.76,62.6,72.8Z"/></g></g></g></svg>