<svg xmlns="http://www.w3.org/2000/svg" viewBox="0 0 77.89 52.01"><defs><style>.cls-1{isolation:isolate;}.cls-2{fill:#f9e3d4;}.cls-3{fill:#292d37;}.cls-4{fill:#137a83;}.cls-5{fill:#fa483c;}.cls-6{opacity:0.57;mix-blend-mode:multiply;}</style></defs><g class="cls-1"><g id="Слой_2" data-name="Слой 2"><g id="OBJECTS"><rect class="cls-2" x="12.94" y="-12.94" width="52.01" height="77.89" transform="translate(64.95 -12.94) rotate(90)"/><path class="cls-3" d="M37,5.16S31.48,42.52,30.85,48c0,0-4.06,1.05-5.52-1v-.07c0-2.1,4.82-31.7,5.38-36.24-2.31,2.09-5,4-5.1,3.84a1.24,1.24,0,0,1-.5-1.26S26,12.36,32.25,4a1.8,1.8,0,0,0,.35-.14,5.3,5.3,0,0,1,1-.07c1.05,0,2.8.42,3.29,1.26Z"/><path class="cls-3" d="M52.06,5.16S46.53,42.52,45.9,48c0,0-4.06,1.05-5.53-1v-.07c0-2.1,4.83-31.7,5.39-36.24-2.31,2.09-5,4-5.11,3.84a1.21,1.21,0,0,1-.49-1.26S41,12.36,47.3,4a1.8,1.8,0,0,0,.35-.14,5.3,5.3,0,0,1,1.05-.07c1,0,2.8.42,3.29,1.26Z"/><path class="cls-4" d="M29.61,25.82a37.73,37.73,0,0,0-6.53,1.09A5.78,5.78,0,0,0,16.13,23a9.51,9.51,0,0,0-2.22-7.17,6.55,6.55,0,0,0,6.69-1.27A7.32,7.32,0,0,0,28.19,19,55.27,55.27,0,0,0,29.61,25.82Z"/><path class="cls-4" d="M47.66,26.69a36.67,36.67,0,0,0,2.16-6.25,5.81,5.81,0,0,0,4.25-.74,5.88,5.88,0,0,0,2.55-3.48A9.46,9.46,0,0,0,64,17.71a6.52,6.52,0,0,0-2.08,6.48,7.34,7.34,0,0,0-7.58,4.52A55.2,55.2,0,0,0,47.66,26.69Z"/><path class="cls-5" d="M31.48,25.24a2.74,2.74,0,0,1,.81.12A3.13,3.13,0,0,1,34.48,28a2.89,2.89,0,0,1-.07,1,4.59,4.59,0,0,1-1.77,2.6,3,3,0,0,1-2.14.54A3.26,3.26,0,0,1,27.87,29,3.87,3.87,0,0,1,30,25.6a3.34,3.34,0,0,1,1.39-.37Z"/><path class="cls-5" d="M44,26.14a2.74,2.74,0,0,1,.81.12A3.13,3.13,0,0,1,47,28.87a2.89,2.89,0,0,1-.07,1,4.63,4.63,0,0,1-1.77,2.6A2.94,2.94,0,0,1,43,33a3.27,3.27,0,0,1-2.63-3.12,3.87,3.87,0,0,1,2.09-3.36,3.34,3.34,0,0,1,1.39-.37Z"/><path class="cls-5" d="M37.38,30.61a3.3,3.3,0,0,1,1,.15A3.82,3.82,0,0,1,41.05,34,3.44,3.44,0,0,1,41,35.15a5.65,5.65,0,0,1-2.17,3.18,3.65,3.65,0,0,1-2.63.66A4,4,0,0,1,33,35.17a4.72,4.72,0,0,1,2.56-4.12,3.83,3.83,0,0,1,1.69-.44Z"/><g class="cls-6"><path class="cls-4" d="M53.07,24.15a.21.21,0,0,1,.18.14.2.2,0,0,1,0,.11.33.33,0,0,1,0,.15c0,.06,0,.08-.06.09h0c-.11.09-.19.08-.23,0s0,0-.06-.05a.69.69,0,0,0-.32-.08l-.19,0-.36,0c-.19,0-.38-.05-.32-.24l.07-.32a.07.07,0,0,0,0-.05,1.16,1.16,0,0,0,.07-.37.59.59,0,0,1,0-.17L52,23s0-.07,0-.11,0,0,0,0h0s0,0,0,0,0,.1,0,.14l0,.29s0,.1,0,.15a1.5,1.5,0,0,0,0,.42A1.55,1.55,0,0,0,52,24c0,.06,0,.09.09.06h.4a2.11,2.11,0,0,0,.36,0C53,24.09,53,24.14,53.07,24.15Z"/></g><g class="cls-6"><path class="cls-4" d="M55,22.81a.22.22,0,0,1,.2.12.35.35,0,0,1,0,.11.41.41,0,0,1,0,.15c0,.07,0,.09-.06.1h0c-.1.1-.18.1-.23,0s0,0-.06,0a.87.87,0,0,0-.32-.06.67.67,0,0,1-.2,0H54c-.2,0-.38,0-.33-.22l0-.32a.09.09,0,0,1,0-.05,1.18,1.18,0,0,0,0-.37,1.13,1.13,0,0,1,0-.18c0-.1.05-.21.07-.31s0-.08,0-.11,0,0,0,0h.06l0,0a.59.59,0,0,1,0,.14V22a.75.75,0,0,1,0,.15,2,2,0,0,0,0,.42,1.21,1.21,0,0,0,0,.18c0,.06,0,.09.09,0h.4a1.46,1.46,0,0,0,.36,0C54.89,22.76,55,22.81,55,22.81Z"/></g><g class="cls-6"><path class="cls-4" d="M56.9,21.9a.23.23,0,0,1,.19.13.23.23,0,0,1,0,.11.42.42,0,0,1,0,.14.21.21,0,0,1-.06.11h0c-.1.1-.18.1-.23,0s0,0-.06,0a.59.59,0,0,0-.32-.06h-.19l-.37,0c-.19,0-.38,0-.33-.22l0-.31a.13.13,0,0,1,0-.06,1.14,1.14,0,0,0,0-.37.5.5,0,0,1,0-.17c0-.11.05-.22.07-.32a.41.41,0,0,0,0-.11s0,0,0,0h0s0,0,0,0l0,0a.68.68,0,0,1,0,.14v.28c0,.06,0,.11,0,.16a2,2,0,0,0,0,.42,1.09,1.09,0,0,0,0,.17c0,.06,0,.09.1,0h.39a1.45,1.45,0,0,0,.36,0C56.78,21.86,56.84,21.9,56.9,21.9Z"/></g><g class="cls-6"><path class="cls-4" d="M58.91,21a.23.23,0,0,1,.19.13.36.36,0,0,1,0,.11.47.47,0,0,1,0,.15c0,.06,0,.09-.06.1h0c-.1.11-.18.1-.23,0s0,0-.06,0a.7.7,0,0,0-.32-.06,1.15,1.15,0,0,1-.19,0l-.37,0c-.19,0-.38,0-.33-.21l0-.32a.07.07,0,0,1,0-.05,1.2,1.2,0,0,0,0-.37.55.55,0,0,1,0-.18c0-.1.05-.21.07-.32a.34.34,0,0,0,0-.1.05.05,0,0,1,0,0h.06l0,0a.78.78,0,0,1,0,.14v.29a.38.38,0,0,1,0,.15,2,2,0,0,0,0,.42,1.16,1.16,0,0,0,0,.17c0,.06,0,.09.1.06h.39a1.45,1.45,0,0,0,.36,0C58.79,20.92,58.85,21,58.91,21Z"/></g><g class="cls-6"><path class="cls-4" d="M60.79,19.55a.23.23,0,0,1,.2.13.81.81,0,0,1,0,.11.41.41,0,0,1,0,.15C61,20,61,20,61,20h0c-.1.11-.18.1-.23,0s0,0-.06,0a.72.72,0,0,0-.33-.06,1.28,1.28,0,0,1-.19,0l-.36,0c-.2,0-.38,0-.34-.22l0-.31a.07.07,0,0,1,0-.05,1.63,1.63,0,0,0,0-.38,1.22,1.22,0,0,1,0-.17c0-.11.05-.21.07-.32s0-.07,0-.11,0,0,0,0h.06l0,0a.78.78,0,0,1,0,.14v.29a.75.75,0,0,1,0,.15,1.48,1.48,0,0,0,0,.42,1.16,1.16,0,0,0,0,.17c0,.06,0,.09.09.06h.4a1.45,1.45,0,0,0,.36,0C60.68,19.51,60.74,19.55,60.79,19.55Z"/></g><g class="cls-6"><path class="cls-4" d="M51.29,25.36a.22.22,0,0,1,.2.12l0,.11a.41.41,0,0,1,0,.15c0,.07,0,.09-.06.1h0c-.1.1-.18.1-.23,0a.13.13,0,0,0-.06-.05.88.88,0,0,0-.33-.06.62.62,0,0,1-.19,0h-.36c-.2,0-.38,0-.34-.22l0-.32v-.05a1.17,1.17,0,0,0,0-.37,1.13,1.13,0,0,1,0-.18c0-.1.05-.21.07-.31s0-.08,0-.11l0,0s0,0,0,0h0s0,0,0,0a.32.32,0,0,1,0,.14v.28a.85.85,0,0,1,0,.16,1.41,1.41,0,0,0,0,.41,1.21,1.21,0,0,0,0,.18c0,.06,0,.09.09.05h.4a1.46,1.46,0,0,0,.36,0C51.18,25.31,51.24,25.36,51.29,25.36Z"/></g><g class="cls-6"><path class="cls-4" d="M24.57,22.69a.2.2,0,0,0-.18.14.18.18,0,0,0,0,.11.33.33,0,0,0,0,.15c0,.06,0,.08.06.09h0c.11.09.19.08.23,0s0,0,.06-.05a.69.69,0,0,1,.32-.08l.19,0,.36,0c.19,0,.38-.05.31-.25l-.06-.31a.07.07,0,0,1,0,0,1.16,1.16,0,0,1-.07-.37.59.59,0,0,0,0-.17l-.09-.31s0-.07,0-.11,0,0,0,0h-.06s0,0,0,0,0,.1,0,.14l0,.29a.38.38,0,0,0,0,.15,1.5,1.5,0,0,1,0,.42,1.22,1.22,0,0,1,0,.17c0,.06,0,.09-.09.06h-.4a2.11,2.11,0,0,1-.36,0C24.68,22.63,24.63,22.68,24.57,22.69Z"/></g><g class="cls-6"><path class="cls-4" d="M22.63,21.34a.25.25,0,0,0-.19.13.35.35,0,0,0,0,.11.41.41,0,0,0,0,.15c0,.07,0,.09.06.1h0c.1.1.18.1.23,0s0,0,.06,0a.7.7,0,0,1,.32-.06,1.34,1.34,0,0,0,.2,0l.36,0c.2,0,.38,0,.33-.21l0-.32a.09.09,0,0,0,0-.05,1.18,1.18,0,0,1,0-.37,1.13,1.13,0,0,0,0-.18c0-.1-.05-.21-.07-.32a.34.34,0,0,1,0-.1.08.08,0,0,0,0,0h-.06l0,0a.59.59,0,0,0,0,.14v.28a.38.38,0,0,0,0,.15,2,2,0,0,1,0,.42,1.21,1.21,0,0,1,0,.18c0,.05,0,.08-.1.05h-.39a1.46,1.46,0,0,1-.36,0C22.75,21.3,22.69,21.34,22.63,21.34Z"/></g><g class="cls-6"><path class="cls-4" d="M20.74,20.44a.23.23,0,0,0-.19.13.23.23,0,0,0,0,.1.44.44,0,0,0,0,.15c0,.07,0,.09.06.1h0c.1.1.18.1.23,0s0,0,.06,0a.59.59,0,0,1,.32-.06h.19l.37,0c.19,0,.38,0,.33-.22l0-.31a.13.13,0,0,0,0-.06,1.17,1.17,0,0,1,0-.37.47.47,0,0,0,0-.17l-.07-.32a.41.41,0,0,1,0-.11s0,0,0,0h-.05s0,0,0,0a.68.68,0,0,0,0,.14v.28a.43.43,0,0,0,0,.16,2,2,0,0,1,0,.42,1.09,1.09,0,0,1,0,.17c0,.06,0,.09-.1.05H21.3a1.45,1.45,0,0,1-.36,0C20.86,20.39,20.8,20.44,20.74,20.44Z"/></g><g class="cls-6"><path class="cls-4" d="M18.73,19.5a.23.23,0,0,0-.19.13.36.36,0,0,0,0,.11.47.47,0,0,0,0,.15c0,.06,0,.09.06.1h0c.1.11.18.1.23,0s0,0,.06,0a.7.7,0,0,1,.32-.06,1.15,1.15,0,0,0,.19,0l.37,0c.19,0,.38,0,.33-.22l0-.31a.07.07,0,0,0,0-.05,1.2,1.2,0,0,1,0-.37.55.55,0,0,0,0-.18c0-.11-.05-.21-.07-.32a.37.37,0,0,1,0-.11s0,0,0,0h-.05s0,0,0,0a.78.78,0,0,0,0,.14v.29a.38.38,0,0,0,0,.15,2,2,0,0,1,0,.42,1.16,1.16,0,0,1,0,.17c0,.06,0,.09-.1.06h0s0,0,0,0h-.32a1.45,1.45,0,0,1-.36,0C18.85,19.46,18.79,19.5,18.73,19.5Z"/></g><g class="cls-6"><path class="cls-4" d="M16.85,18.09a.23.23,0,0,0-.2.13.29.29,0,0,0,0,.11.41.41,0,0,0,0,.15c0,.06,0,.09.06.1h0c.1.11.18.1.23,0s0,0,.06,0a.72.72,0,0,1,.33-.06,1.28,1.28,0,0,0,.19,0l.36,0c.2,0,.38,0,.34-.22l-.05-.31a.13.13,0,0,0,0-.06,1.14,1.14,0,0,1,0-.37,1.22,1.22,0,0,0,0-.17c0-.11-.05-.21-.07-.32s0-.07,0-.11l0,0h0a0,0,0,0,0,0,0l0,0a.78.78,0,0,0,0,.14v.29a.75.75,0,0,0,0,.15,1.48,1.48,0,0,1,0,.42,1.09,1.09,0,0,1,0,.17c0,.06,0,.09-.09.06h-.4a1.45,1.45,0,0,1-.36,0C17,18.05,16.9,18.09,16.85,18.09Z"/></g><g class="cls-6"><path class="cls-4" d="M26.35,23.9a.22.22,0,0,0-.2.12l0,.11a.41.41,0,0,0,0,.15c0,.07,0,.09.06.1h0c.1.1.18.1.23,0s0,0,.06,0a.88.88,0,0,1,.33-.06.62.62,0,0,0,.19,0h.36c.2,0,.38,0,.34-.22l-.05-.32a.09.09,0,0,0,0-.05,1.58,1.58,0,0,1,0-.37,1.13,1.13,0,0,0,0-.18c0-.1-.05-.21-.07-.31s0-.08,0-.11,0,0,0,0h-.06l0,0a.59.59,0,0,0,0,.14v.28a.75.75,0,0,0,0,.15,1.48,1.48,0,0,1,0,.42,1.21,1.21,0,0,1,0,.18c0,.06,0,.09-.09,0h-.4a1.46,1.46,0,0,1-.36,0C26.46,23.85,26.4,23.9,26.35,23.9Z"/></g></g></g></g></svg>