<svg xmlns="http://www.w3.org/2000/svg" viewBox="0 0 77.89 128.93"><defs><style>.cls-1{fill:#292d37;}.cls-2{fill:#fff;}.cls-3{fill:#f9ba2b;}.cls-4{fill:#fa483c;}.cls-5{fill:#137a83;}</style></defs><g id="Слой_2" data-name="Слой 2"><g id="OBJECTS"><rect class="cls-1" x="-25.52" y="25.52" width="128.93" height="77.89" transform="translate(103.41 25.52) rotate(90)"/><path class="cls-2" d="M50.84,95.72a22,22,0,0,0-2.23-.56l-1.41-.24-.17,0c-.36-.89-.76-1.76-1.19-2.61l.24,0c1,.1,2,.18,3.07.25.11,0,.25-.19.5-.39-.08-.39-.08-.91-.23-1.08a3.42,3.42,0,0,0-1.31-1,19.66,19.66,0,0,0-2.23-.56l-1.41-.24-.31,0q-.84-1.38-1.74-2.73a6.8,6.8,0,0,0,1.86-2.07,1.14,1.14,0,0,0,.22-.58c0-.48,0-1.14-.29-1.26s-.72.21-1,.45-.61.74-.94,1.09a5.1,5.1,0,0,1-8.57-2.11,5.22,5.22,0,0,1,.24-3.46,5.23,5.23,0,0,1,9-.84,5.58,5.58,0,0,1,1,3.63c0,.28.15.57.21,1.23.46-.31,1.07-.55,1.28-1.18a6.12,6.12,0,0,0,.18-3.11,1.7,1.7,0,0,0,.72-.07,16.57,16.57,0,0,0,2.36-1l.71.1,1.47.11,3,.12c.07,0,.15,0,.2-.06a1.94,1.94,0,0,0,.49-.69,1.25,1.25,0,0,0-.13-.8c-.12-.19-.34-.21-.52-.27-.65-.2-1.32-.37-2-.54l1.2-.89c.68.11,1.35.22,1.92.29l1.47.11,2.95.12c.07,0,.15,0,.2-.06a1.94,1.94,0,0,0,.49-.69,1.25,1.25,0,0,0-.13-.8c-.12-.19-.33-.21-.52-.27-.88-.27-1.76-.51-2.65-.72L55.53,72l0,0s0,0,0,0a0,0,0,0,1,0,0s0,.06,0-.12l.16-1.53c.11-1,.19-2,.26-3.07,0-.1-.19-.24-.4-.5-.38.08-.9.08-1.07.24a3.31,3.31,0,0,0-1,1.31,19.1,19.1,0,0,0-.55,2.23L52.61,72l0,.23c-.89.36-1.76.76-2.61,1.19l0-.3c.1-1,.19-2,.26-3.07,0-.1-.19-.24-.4-.5-.38.08-.9.08-1.07.24a3.38,3.38,0,0,0-1,1.31,19.1,19.1,0,0,0-.55,2.23L47,74.71l-.06.38q-1.05.64-2.07,1.32l-.11-.18a7.37,7.37,0,0,0-2.62-2.4l0,0c.22-.55.43-1.11.64-1.66l.88-.45,1.25-.77,2.47-1.62c.05,0,.12-.08.13-.17a2,2,0,0,0,0-.84,1.28,1.28,0,0,0-.57-.58.83.83,0,0,0-.58.08c-.79.27-1.56.56-2.33.88.48-1.43.93-2.86,1.35-4.3l.52-.26,1.26-.77,2.47-1.62c.05,0,.12-.08.13-.17a2,2,0,0,0,0-.84,1.28,1.28,0,0,0-.57-.58.83.83,0,0,0-.58.08c-.77.26-1.52.55-2.27.85q.52-1.95,1-3.9l1.06-.54,1.26-.78,2.47-1.61c.05,0,.12-.08.12-.17a2,2,0,0,0,0-.84,1.28,1.28,0,0,0-.57-.58.83.83,0,0,0-.58.08q-1.31.44-2.58,1l-1.22.53a.1.1,0,0,1,0,0l0,0h0s0,.06-.07-.1l-.75-1.34c-.51-.89-1-1.77-1.58-2.64-.06-.09-.3-.1-.61-.18-.27.28-.69.59-.74.82a3.35,3.35,0,0,0,0,1.63,19.85,19.85,0,0,0,.85,2.14l.62,1.28.51,1a4.85,4.85,0,0,0-.78,1.22c-.29.69-.56,1.39-.82,2.1-.48-.85-1-1.68-1.5-2.51-.05-.09-.3-.09-.61-.18-.27.28-.69.59-.74.82a3.35,3.35,0,0,0,0,1.63,19.85,19.85,0,0,0,.85,2.14l.63,1.28.22.45c-.38,1.31-.72,2.63-1,4-.49-.85-1-1.69-1.51-2.52,0-.09-.3-.09-.61-.18-.27.28-.69.59-.74.82a3.48,3.48,0,0,0,0,1.63,21.18,21.18,0,0,0,.85,2.14l.63,1.28.49,1-.27,1.23a7.59,7.59,0,0,0-4.2.07c-.32-.8-.67-1.57-1-2.34l.33-.71.57-1.42c.38-.95.73-1.91,1.07-2.87,0-.1-.11-.28-.25-.57-.39,0-.91-.14-1.11,0a3.54,3.54,0,0,0-1.32,1,18.45,18.45,0,0,0-.93,1.6c-.44-.73-.9-1.46-1.37-2.18l.51-1.1.57-1.42c.38-.95.73-1.91,1.08-2.87,0-.1-.12-.28-.25-.57a3.32,3.32,0,0,0-1.12,0,3.62,3.62,0,0,0-1.32,1,19.94,19.94,0,0,0-1.14,2l-.25.51-.12.26s0,0,0,0,0,0,0,.1,0,.09-.2.08l-1.4-.43-2.85-.78a.22.22,0,0,0-.21,0,2,2,0,0,0-.63.56,1.27,1.27,0,0,0-.05.81c.07.21.28.28.44.38.8.46,1.6.89,2.43,1.3l1.28.6,1.08.49a1.55,1.55,0,0,0,0,.21,15.41,15.41,0,0,0,.77,1.83l-2.32-.64a.22.22,0,0,0-.21,0,1.89,1.89,0,0,0-.63.56,1.35,1.35,0,0,0-.06.81c.08.21.28.29.45.38.79.47,1.6.9,2.42,1.3l1.28.6,1.28.58c.43.59.87,1.17,1.31,1.75a7.76,7.76,0,0,0-2.32,2.21c-.17.26-.32.54-.46.81l-.07,0q-.93-.37-1.86-.72l-.48-.95-.78-1.25-1.61-2.47c0-.05-.08-.12-.17-.13a2,2,0,0,0-.84,0,1.23,1.23,0,0,0-.58.57.83.83,0,0,0,.08.58c.27.81.58,1.61.9,2.41-1.42-.48-2.84-.92-4.27-1.35l-.32-.6-.77-1.26-1.62-2.47a.24.24,0,0,0-.16-.13,2,2,0,0,0-.84,0,1.23,1.23,0,0,0-.58.57.83.83,0,0,0,.08.58c.27.8.57,1.58.88,2.36-1.29-.35-2.58-.69-3.88-1-.21-.41-.41-.8-.6-1.15l-.77-1.26L11.73,66.9a.2.2,0,0,0-.16-.12,2,2,0,0,0-.84,0,1.28,1.28,0,0,0-.58.57.83.83,0,0,0,.08.58q.43,1.3,1,2.58l.53,1.22h0s0,0,0,0h0s.07,0-.09.08l-1.34.75c-.89.51-1.77,1-2.65,1.58-.09.06-.09.3-.17.61.28.27.59.69.81.74a3.39,3.39,0,0,0,1.64,0,20.71,20.71,0,0,0,2.14-.85l1.28-.63,1-.52a5.39,5.39,0,0,0,1.42.94c.6.25,1.2.49,1.8.71-.82.48-1.63,1-2.44,1.47-.1.05-.1.3-.18.61.28.27.59.69.81.74a3.39,3.39,0,0,0,1.64,0,20.71,20.71,0,0,0,2.14-.85l1.28-.63.36-.18c1.3.39,2.62.74,3.95,1.06-.82.47-1.62,1-2.42,1.45-.1,0-.1.3-.18.61.28.26.59.69.81.74a3.52,3.52,0,0,0,1.64,0c.73-.25,1.44-.53,2.14-.85l1.28-.63.84-.42L31,78.8a7.24,7.24,0,0,0-.2,2.13,7.4,7.4,0,0,0,.39,2c-.88.34-1.74.73-2.59,1.15l-.36-.17-1.41-.57c-.95-.38-1.91-.73-2.88-1.07-.1,0-.28.11-.57.25,0,.39-.14.91,0,1.11a3.54,3.54,0,0,0,1,1.32c.42.27.84.52,1.28.76-.75.44-1.48.9-2.21,1.38l-.75-.35-1.42-.58c-.95-.37-1.91-.72-2.87-1.07-.1,0-.28.12-.57.25a3.32,3.32,0,0,0,0,1.12,3.54,3.54,0,0,0,1,1.32,18.76,18.76,0,0,0,2,1.14l.51.25.27.12h0s0,0,.1,0,.09,0,.08.19l-.43,1.41-.78,2.85a.22.22,0,0,0,0,.21c.16.21.31.5.56.62a1.21,1.21,0,0,0,.81.06c.21-.07.29-.28.38-.44.47-.8.9-1.61,1.3-2.43l.6-1.28.64-1.4a17.83,17.83,0,0,0,2-.88l-.75,2.71a.22.22,0,0,0,0,.21,2.13,2.13,0,0,0,.56.63,1.27,1.27,0,0,0,.81,0c.21-.07.29-.27.39-.44.46-.79.89-1.6,1.29-2.42l.61-1.28.85-1.89,1.38-1a7.08,7.08,0,0,0,.51.71,7.4,7.4,0,0,0,3,2.12,6.33,6.33,0,0,0-1.24,1.76c-.06.13-.1.26-.16.39l-.74.38-1.25.77L29.62,92.4c-.05,0-.12.08-.13.16a2,2,0,0,0,0,.85,1.33,1.33,0,0,0,.57.58.78.78,0,0,0,.58-.09c.73-.24,1.45-.52,2.16-.8-.43,1.31-.81,2.64-1.16,4l-.81.42-1.26.77-2.47,1.62c-.05,0-.12.08-.12.17a2,2,0,0,0,0,.84,1.33,1.33,0,0,0,.57.58.83.83,0,0,0,.58-.08c.87-.29,1.73-.62,2.58-1l.13-.05c-.28,1.24-.56,2.5-.82,3.75l-1.7.86-1.25.77-2.48,1.62c-.05,0-.12.08-.12.17a2,2,0,0,0,0,.84,1.28,1.28,0,0,0,.57.58.83.83,0,0,0,.58-.08c.88-.29,1.73-.62,2.58-1l1.22-.52a.1.1,0,0,1,0-.05h.05s0-.06.07.1l.75,1.34c.51.89,1,1.77,1.58,2.64.06.09.3.09.61.18.27-.28.69-.59.74-.82a3.35,3.35,0,0,0,0-1.63,19.06,19.06,0,0,0-.85-2.14l-.62-1.28-.22-.43c0-.12.09-.24.13-.35.45-1.12.87-2.24,1.27-3.37.46.79.93,1.57,1.41,2.35.06.09.3.09.61.18.27-.28.69-.59.74-.82a3.36,3.36,0,0,0,0-1.63A19.06,19.06,0,0,0,35,99.51l-.63-1.28L34.21,98c.43-1.35.83-2.7,1.22-4.06.48.84,1,1.67,1.49,2.49,0,.09.3.09.61.18.27-.28.69-.59.74-.82a3.48,3.48,0,0,0,0-1.63A19.06,19.06,0,0,0,37.46,92l-.63-1.28-.34-.68c.19-.72.37-1.45.56-2.17a7.17,7.17,0,0,0,3.87-.46,2.38,2.38,0,0,0,0,1.16,15.93,15.93,0,0,0,1,2.35c0,.28-.08.55-.11.8l-.1,1.46-.13,3a.23.23,0,0,0,.06.19,1.94,1.94,0,0,0,.69.49,1.25,1.25,0,0,0,.8-.13c.19-.12.22-.33.28-.52.21-.67.38-1.36.55-2,.29.4.58.8.88,1.19-.11.71-.22,1.41-.3,2l-.1,1.47-.13,3a.26.26,0,0,0,.06.2,2,2,0,0,0,.69.48,1.24,1.24,0,0,0,.8-.13c.19-.12.22-.33.28-.51.27-.88.51-1.77.71-2.66l.29-1.29a.07.07,0,0,1,0,0,0,0,0,0,1,0,0v0s-.06,0,.12,0l1.53.17c1,.1,2,.18,3.07.25.11,0,.25-.19.5-.39-.08-.38-.08-.91-.23-1.08A3.42,3.42,0,0,0,50.84,95.72Z"/><path class="cls-2" d="M66.39,88.92c.89-.51,1.77-1,2.64-1.58.09-.06.09-.3.18-.61-.28-.27-.59-.69-.82-.74a3.35,3.35,0,0,0-1.63,0,19.85,19.85,0,0,0-2.14.85l-1.28.62-.33.17-.31-.12c-1.13-.46-2.27-.88-3.42-1.29.76-.44,1.51-.89,2.26-1.35.09-.06.09-.3.18-.61-.28-.27-.59-.69-.82-.74a3.35,3.35,0,0,0-1.63,0,19.06,19.06,0,0,0-2.14.85l-1.28.63-.13.06c-1.27-.4-2.54-.79-3.82-1.15.69-.41,1.38-.82,2.06-1.24.09,0,.09-.3.18-.61-.28-.27-.59-.69-.82-.74a3.48,3.48,0,0,0-1.63,0,19.06,19.06,0,0,0-2.14.85l-1.28.63-.2.1-2.61-.67c-.16,0-.38.12-.76.25.11.42.11,1,.35,1.18a7.16,7.16,0,0,0,1.85,1.37c.22.45.44.88.64,1.26l.77,1.25,1.62,2.47s.08.12.17.13a2,2,0,0,0,.84,0,1.28,1.28,0,0,0,.58-.57.83.83,0,0,0-.08-.58c-.29-.87-.62-1.73-1-2.57v0c1.39.46,2.79.87,4.2,1.25l.46.89.77,1.26,1.62,2.47c0,.05.08.12.17.13a2,2,0,0,0,.84,0,1.28,1.28,0,0,0,.58-.57A.83.83,0,0,0,59,91.1c-.29-.87-.62-1.73-1-2.58l-.1-.21c1.25.29,2.5.56,3.75.83.31.63.63,1.25.9,1.77l.77,1.25L65,94.64s.08.12.17.12a2,2,0,0,0,.84,0,1.28,1.28,0,0,0,.58-.57.83.83,0,0,0-.08-.58c-.29-.88-.62-1.73-1-2.58L65,89.81l0,0s0,0,0,0v0s-.06,0,.1-.07Z"/><path class="cls-3" d="M25.46,50.32a6.16,6.16,0,0,1,2-4.26c.56-.47,1.41-.81,2-.35a1.25,1.25,0,0,1,.4,1.1A3.64,3.64,0,0,1,29.47,48l-1.38,3.17a12.92,12.92,0,0,1-1.32,3.06c-.83.95-.88-.26-1.09-1.2A8.64,8.64,0,0,1,25.46,50.32Z"/><path class="cls-4" d="M63.18,65.91a6.17,6.17,0,0,1,4.28,1.93c.48.55.84,1.4.39,2a1.27,1.27,0,0,1-1.1.41,3.44,3.44,0,0,1-1.16-.34L62.4,68.57a13.15,13.15,0,0,1-3.08-1.28c-1-.81.25-.88,1.18-1.1A9,9,0,0,1,63.18,65.91Z"/><path class="cls-2" d="M54,107.34a6.15,6.15,0,0,1-.93,4.6c-.42.59-1.17,1.13-1.83.82a1.32,1.32,0,0,1-.66-1,3.8,3.8,0,0,1,.08-1.21c.19-1.14.39-2.27.58-3.4a13.56,13.56,0,0,1,.57-3.29c.58-1.12.91.05,1.33.9A8.6,8.6,0,0,1,54,107.34Z"/><path class="cls-5" d="M8.56,87.67A6.1,6.1,0,0,1,4.8,84.86c-.35-.64-.51-1.54,0-2A1.25,1.25,0,0,1,6,82.68a3.46,3.46,0,0,1,1.06.59l2.83,2a13.45,13.45,0,0,1,2.73,1.91c.77,1-.43.81-1.39.82A8.67,8.67,0,0,1,8.56,87.67Z"/><path class="cls-2" d="M16.11,8.81S12.32,34.45,11.89,38.2c0,0-2.79.72-3.79-.67v-.05c0-1.44,3.31-21.75,3.69-24.87a17.26,17.26,0,0,1-3.5,2.64A.85.85,0,0,1,8,14.38s.58-.62,4.9-6.38a1.15,1.15,0,0,0,.24-.1,3.49,3.49,0,0,1,.72-.05,3,3,0,0,1,2.26.87Z"/><path class="cls-2" d="M17.31,36.42c1.59-1.58,2.79-2.06,4.23-2.06,2.16,0,3.75,1.58,6.15,1.58s4-2.54,4.75-3.7c.1-.14.53,0,.48.24-.38,1.73-1.83,5.62-5.57,5.43-2.83-.14-3.75-1.06-6.67-1.06a6.21,6.21,0,0,0-4.61,2.21c-.29.15-.34.15-.53-.19-.67-6.29,2-9.84,7.92-13.88,3.7-2.44,9.94-5.8,9.94-11.42,0-1.78-1.39-5.19-5.09-5.19-5,0-7.73,4.85-7.73,7.3v.48c-.14.19-.38.29-.53-.05v-.43c0-4.18,4.23-7.87,8.26-7.87,4.56,0,9.55,2.54,9.55,7,0,6.43-7.92,9.84-12.86,12.77C20.63,30.28,18,31.67,17.31,36.42Z"/><path class="cls-4" d="M43.62,114.44a.23.23,0,0,0-.12-.08h-.09s0-.08,0-.12h0l0,.09s0,0,0,0,.13-.06.11-.09a.08.08,0,0,1,0-.07.15.15,0,0,0-.05-.15s0,0,0,0a.43.43,0,0,0,0-.16s0,0-.05-.07a1.64,1.64,0,0,0-.14-.22,1.45,1.45,0,0,0-.17-.18s-.07,0-.11,0l-.21-.08c-.07,0-.15,0-.21-.06h-.09c-.1,0-.2,0-.3,0s-.12.07-.19.08a.44.44,0,0,0-.18.12s0,0,0,0,0,.07-.07.1-.08.11-.13.16a.29.29,0,0,0-.09.15s0,0,0,.08,0,.07,0,.11,0,.09-.06.15v.12a.19.19,0,0,0,0,.07.38.38,0,0,1,0,.18.33.33,0,0,0,0,.14s0,0,0,.07l0,0s0,0,0,0,.08.21.18.26.08.09.13.13l0,0,.21.07.08,0c.07,0,.15,0,.21.06h0a.15.15,0,0,1,.13,0,.16.16,0,0,0,.15,0s.07,0,.11,0h.06l.11,0h0l.12,0,.06,0s0-.07,0-.07a.44.44,0,0,0,.18-.12,1.8,1.8,0,0,0,.19-.2s0,0,0-.06.07,0,0-.09v0a1.14,1.14,0,0,0,.11-.11v0A1,1,0,0,0,43.62,114.44Zm-.24.12h0a.68.68,0,0,0,0-.14C43.45,114.47,43.41,114.52,43.38,114.56Z"/><path class="cls-2" d="M15.09,58.24s-.06-.05-.12-.07h-.09s0-.09,0-.13h0l0,.1,0,0c.11,0,.13-.07.12-.09A.25.25,0,0,1,15,58a.17.17,0,0,0,0-.16v0a.41.41,0,0,0,0-.16s0,0-.06-.06a1.76,1.76,0,0,0-.14-.23.91.91,0,0,0-.17-.17.39.39,0,0,0-.11-.06l-.21-.08c-.07,0-.15,0-.21,0H14l-.29,0c-.08,0-.13.07-.2.09a.67.67,0,0,0-.18.11l0,0s0,.08-.07.1-.08.12-.13.16a.34.34,0,0,0-.09.15s0,0,0,.08a.43.43,0,0,1,0,.12c0,.05,0,.09,0,.14a.28.28,0,0,0,0,.09v0a.08.08,0,0,0,0,.07.37.37,0,0,1,0,.18.57.57,0,0,0,0,.14s0,0,0,.07h0l0,0c.05.09.07.22.17.27s.08.08.13.12a.1.1,0,0,0,0,0l.2.07.08,0c.07,0,.15,0,.21.06h0a.21.21,0,0,1,.13,0,.2.2,0,0,0,.15,0s.07,0,.11,0h.06l.11,0h0l.12,0s0,0,.06,0,0-.06,0-.07a.39.39,0,0,0,.17-.11,1.29,1.29,0,0,0,.19-.21s0,0,0,0,.07-.05,0-.1,0,0,0,0l.1-.11h0A1.07,1.07,0,0,0,15.09,58.24Zm-.23.12h0a.59.59,0,0,0,0-.14C14.92,58.27,14.88,58.32,14.86,58.36Z"/><path class="cls-3" d="M17.74,96.91s-.06,0-.12-.07l-.08,0h0s0-.08,0-.12h0l0,.1s0,0,0,0,.13-.06.12-.08a.25.25,0,0,1,0-.07.18.18,0,0,0,0-.16,0,0,0,0,1,0,0,.44.44,0,0,0,0-.16s0,0-.06-.06a1.76,1.76,0,0,0-.14-.23.91.91,0,0,0-.17-.17.39.39,0,0,0-.11-.06L17,95.72c-.07,0-.15,0-.21-.06h0l-.07,0a2.83,2.83,0,0,0-.29,0c-.08,0-.13.07-.2.09a.67.67,0,0,0-.18.11l0,0s0,.08-.07.1-.07.11-.13.16a.34.34,0,0,0-.09.15s0,0,0,.08a.5.5,0,0,1,0,.12s0,.09,0,.14a.21.21,0,0,0,0,.08.09.09,0,0,1,0,0s0,0,0,.07a.36.36,0,0,1,0,.18.74.74,0,0,0,0,.14s0,0,0,.07,0,0,0,0l0,0c0,.09.07.21.17.27s.08.08.13.12l.05,0,.2.07.09,0c.06,0,.14,0,.21.06h0a.18.18,0,0,1,.14,0,.17.17,0,0,0,.14,0s.08,0,.11,0H17l.11,0h0l.12,0s0,0,.06,0,0-.06,0-.07a.5.5,0,0,0,.17-.11,1.29,1.29,0,0,0,.19-.21s0,0,0,0,.07,0,0-.1,0,0,0,0a.52.52,0,0,0,.1-.11h0A1.07,1.07,0,0,0,17.74,96.91Zm-.23.12h0a.61.61,0,0,0,0-.14C17.57,96.94,17.53,97,17.51,97Z"/><path class="cls-5" d="M56.36,59.14a.25.25,0,0,0-.12-.07h-.09s0-.08,0-.12h0l0,.09,0,0c.11,0,.13-.06.12-.09a.14.14,0,0,1,0-.07.15.15,0,0,0,0-.15v0a.44.44,0,0,0,0-.16s0-.05-.06-.07a1.64,1.64,0,0,0-.14-.22.73.73,0,0,0-.17-.18.39.39,0,0,0-.11-.06L55.58,58c-.07,0-.15,0-.21-.05h-.09l-.29,0c-.08,0-.13.08-.2.09a.67.67,0,0,0-.18.11l0,0s0,.08-.07.1-.08.12-.13.16a.32.32,0,0,0-.09.16s0,0,0,.08a.43.43,0,0,1,0,.11s0,.09,0,.14a.28.28,0,0,0,0,.09v0a.09.09,0,0,0,0,.07.37.37,0,0,1,0,.18.57.57,0,0,0,0,.14s0,0,0,.07,0,0,0,0l0,0c0,.08.07.21.17.26s.08.09.13.12a.1.1,0,0,0,0,0,.7.7,0,0,0,.2.08.12.12,0,0,1,.08,0c.07,0,.15,0,.21,0h0a.32.32,0,0,1,.13,0,.16.16,0,0,0,.15,0s.07,0,.11,0,0,0,.06,0l.11,0h0l.12,0h.06s0-.06,0-.06a.52.52,0,0,0,.17-.12,1.8,1.8,0,0,0,.19-.2s0,0,0-.06.07,0,0-.09,0,0,0,0l.1-.12h0A1.07,1.07,0,0,0,56.36,59.14Zm-.23.12h0a.78.78,0,0,0,0-.14S56.15,59.22,56.13,59.26Z"/></g></g></svg>