<svg xmlns="http://www.w3.org/2000/svg" viewBox="0 0 77.53 68.86"><defs><style>.cls-1{fill:#f9e3d4;}.cls-2{fill:#292d37;}.cls-3{fill:#137a83;}.cls-4{fill:#fa483c;}</style></defs><g id="Слой_2" data-name="Слой 2"><g id="OBJECTS"><rect class="cls-1" x="4.33" y="-4.33" width="68.86" height="77.53" transform="translate(73.19 -4.33) rotate(90)"/><path class="cls-2" d="M69.87,11.88h-.08a.75.75,0,0,0-.21,0h0l-.18,0-.1,0h-.08v0a0,0,0,0,1,0,0h0l0-.05,0,0s0,0,0,0h0l0,0h0l0,0,0,0,0,0s0,0,0,0l0-.06v0a.17.17,0,0,1,0-.07s0,0,0,0h0l0,0v0s0,0,0,0h0a.05.05,0,0,0,0,0h0v0l0,0,0,0v0s0,0,0,0,0,0,0,0h0v0a.1.1,0,0,0,0,0s0,0,0,0,0,0,0,0h0v0s0,0,0,0l0,0s0,0,0,0h-.29l-.14,0-.26,0h-.2l0,0h0v0l0,0h0l0-.06,0,0h0l0,0h0l0,0h0v0l0,0h0v0l0-.05a.06.06,0,0,1,0,0s0,0,0-.06a.08.08,0,0,0,0-.05h0s0,0,0,0,0,0,0,0v0s-.05,0-.05,0h0a.05.05,0,0,0,0,0h0s0,0,0,0l0,0,0,0s0,0,0,0l0,0s0,0,0,0h0v0l0,.05,0,0,0,0h0v0s0,0,0,0,0,0,0,0h0s0,0,0,0l0,0-.27,0-.25,0a2.3,2.3,0,0,0-.26,0H67v0l0,0h0l0-.05v0s0,0,0,0l0,0h0v0h0v0l0,0,0,0s0,0,0,0,0,0,0-.06v0s0-.05,0-.06,0,0,0,0h0l0,0a0,0,0,0,0,0,0h0s0,0,0,0h0s0,0,0,0h0s0,0,0,0l0,0,0,0a0,0,0,0,0,0,0l0,0s0,0,0,0h0s0,0,0,.05,0,0,0,0a.08.08,0,0,0,0,0h0v0s0,0,0,0a.05.05,0,0,0,0,0h0s0,0,0,0h-.14l-.22,0h-.67l.09-.12.08-.12a.21.21,0,0,1,0-.06h0l0,0,.16-.21h0v0s0,0,0,0v0s0,0,0,0h0l0,0s0,0,0,0h0l0,0h.13l0,0h0s0,0,0,0h0a0,0,0,0,0,0,0h0v0h0s0,0,0,0H66.2l0,0,0-.05.12-.18.06-.08.08-.12h0v0s0,0,0,0v0s0,0,0,0h0s0,0,0,0l0,0h0a0,0,0,0,0,0,0h.12v0l0,0h0a0,0,0,0,1,0,0h0s0,0,0,0v0h0s0,0,0,0h0l0,0h0a0,0,0,0,1,0,0,.47.47,0,0,0,.09-.12s.06-.06.08-.09l0-.05.06-.08H67l0,0h0s0,0,0,0h0l0,0,0,0h.17s0,0,0,0h0s0,0,0,0h0a0,0,0,0,0,0,0s0,0,0,0,0,0,0,0,0,0,0,0h0s0,0,0,0h0v0s0,0,0,0h0s0,0,0,0l.14-.16.16-.18h.06l0,0h0v0l0,0h0l0,0,0,0h0s0,0,0,0h0s0,0,0,0h.08s0,0,0,0h0s0,0,0,0h0v0h0v0s0,0,0,0h0s0,0,0,0h0l0,0h0l.1-.07h0l.07-.15a.28.28,0,0,0,0-.09l0,0a0,0,0,0,0-.05,0c0,.08-.06.11-.11.16l-.1.08h0s0,0,0,0h0s0,0,0,0h0s0,0,0,0h0v0h0v0h0l0,0,0,0,0,0v0s0,0,0,0a0,0,0,0,1,0,0h0v0s0,0,0,0,0,0,0,0,0,0,0,0l0,0h0l-.06.06,0,0-.15.18-.11.13h0s0,0,0,0h0s0,0,0,0,0,0,0,0h0v0h0s0,0,0,0h0v0h0l0,0s0,0,0,0l0,0s0,0,0,0,0,0,0,0v0s0,0,0,0,0,0,0,0h0s0,0,0,0l0,0s0,0,0,0,0,0,0,0,0,0,0,0h0l-.06.07a2.15,2.15,0,0,0-.18.24.39.39,0,0,1-.08.1h0s0,0,0,0h0s0,0,0,0h0v0h0v0h0l0,0,0,0,0,0s0,0,0,0,0,0,0,0v0s0,0,0,0,0,0,0,0h0v.06s0,0,0,0,0,0,0,0,0,0,0,0h0a1.13,1.13,0,0,0-.12.18l-.1.12-.06.08a.61.61,0,0,1-.07.1h0s0,0,0,0h0s0,0,0,0h0s0,0,0,0h0v0h0s0,0,0,0h0v0h0l0,0,0,0,0,0s0,0,0,0,0,0,0,0v0s0,0,0,0,0,0,0,0h0a.06.06,0,0,0,0,0s0,0,0,0h0s0,0,0,0h0s0,0,0,0h0l-.08.1,0,0a.5.5,0,0,1-.08.14,1.77,1.77,0,0,1-.12.17l0,0a.43.43,0,0,0,0,0,.22.22,0,0,1,0-.08h0a.09.09,0,0,1,0-.05c0-.11,0-.23,0-.34a.61.61,0,0,1,0-.19.13.13,0,0,0,0-.06l0-.22v0l0,0h0v0l0,0h0s0,0,0,0l0,0a0,0,0,0,1,0,0l0,0h0s0,0,0,0h0s0,0,0,0,0,0,0,0h0s0,0,0,0v0h0l0,0h0v0l0,0,0,0h0s0,0,0,0h0v-.05l0-.05,0,0h0s0,0,0,0H65.9l0,0h0l0,0-.08,0s0,0,0,.05l0,0s-.05,0-.05.05,0,0,0,0h0s0,0,0,0v-.12h0a.78.78,0,0,1,0-.14.43.43,0,0,0,0-.16.48.48,0,0,1,0-.12s0-.05,0-.07V10a.66.66,0,0,1,0-.14v0h0l0,0h0s0,0,0,0l0,0h0s0,0,0-.05h0s0,0,0,0h0a0,0,0,0,1,0,0l0,0h0l0,0h0l0,0h0v0l0,0,0,0h0s0,0,0,0h0V9.29a.09.09,0,0,0,0,0l0,0h0s0,0,0,0h-.06l0,0h0l0,0-.07.05s-.05,0-.05,0l0,0,0,.05,0,0h0v-.3s0,0,0-.06,0-.06,0-.1,0,0,0,0l0-.13h0l-.05-.17a.08.08,0,0,0,0-.05h0l0,0h0l0,0s0,0,0,0h0l0-.05h0s0,0,0,0h0s0,0,0,0,0,0,0,0h0a0,0,0,0,1,0,0l0,0h0l0,0h0v0l0,0a.1.1,0,0,1,0,0h0s0,0,0,0h0V8.16a.09.09,0,0,0,0-.05l0,0h0s0,0,0,0h-.06s0,0,0,0h0l0,0s0,0-.07.06,0,0,0,.05l0,0s0,0,0,.05,0,0,0,0h0l0,.05,0,0h0s0,0,0,0h0v0h0l0,0,0,0h-.06a0,0,0,0,1,0,0h0l0,0s0,0,0,0h0v0s0,0,0,0v0l0,0s0,0,0,0h0l0,0,0,0,0,0h0l-.06,0h-.1l-.05,0h0l0,0h0s0,.05,0,.05h0a.05.05,0,0,0,0,0h0v.05h0l0,.05a.08.08,0,0,1,0,0h0s0,0,0,0,0,0,0,0h0a.1.1,0,0,0,0,0s0,0,0,0l0,0h0s0,0,0,0,0,0,0,0h0l0,0,0,.05h0l0,0h0v0a.29.29,0,0,1,0,.16c0,.05,0,.09,0,.14a.17.17,0,0,0,0,.1.86.86,0,0,1,0,.16.43.43,0,0,1,0,0v.22h0l0,0,0,0h0s0,0,0,0h0l-.06,0s0,0,0,0h0l0,0v0s0,0,0,0h0s0,0,0,0h0l0,0s0,0,0,0h0l0,0h-.1l0,0h0l0,0h0s0,.05,0,.05h0s0,0,0,0h0v0a0,0,0,0,0,0,0l0,0,0,0h0l0,0s0,0,0,0h0s0,0,0,0l0,0a.05.05,0,0,0,0,0h0s0,0,0,0l0,0h0s0,0,0,0v.24a1.61,1.61,0,0,0,0,.31c0,.06,0,.12,0,.18v.13h0a0,0,0,0,1,0,0h0l0,0,0,0h0l0,0s0,0,0,0h0l0,0,0,0s0,0,0,0,0,0-.06,0H65l0,0h0l0,0h0s0,0,0,0h0s0,0,0,0h0v0h0l0,0,0,0,0,0,0,0s0,0,0,0h0l0,0,0,0,0,0h0s0,0,0,0l0,0h0s0,.1,0,.15a.34.34,0,0,0,0,.1,1.94,1.94,0,0,1,0,.24,1.27,1.27,0,0,1,0,.2v0a.44.44,0,0,1,0,.16c0,.05,0,.09,0,.13v0a0,0,0,0,1,0,0l0,0a2.53,2.53,0,0,0-.22-.26l-.12-.14,0,0h0a0,0,0,0,1,0,0h0s0,0,0,0h.06v0h.05s0,0,0,0h0l0,0h0l0,0,0,0v0h0s0,0,0,0l0,0H65s0,0,0,0h-.07v0h0l0,0-.06-.08a1.22,1.22,0,0,1-.15-.17h0l-.11-.11,0,0h0v0h0s0,0,0,0h0s0,0,0,0,0,0,0,0h.1s0,0,0,0h0l0,0h0v0s0,0,0,0l0,0,0,0s0,0,0,0h0s0,0,0,0h-.18l0,0a.21.21,0,0,1,0-.06l-.08-.09v0l-.09-.1a.06.06,0,0,1,0,0l-.05,0v0h0s0,0,0,0h0v0h.07v0h.08v0l0,0,0,0h0s0,0,0,0,0,0,0,0h0s0,0,0,0H64s0,0,0,0h0l-.17-.22,0,0s0-.06-.07-.07,0,0,0,0l0,0h0v0h0s0,0,0,0h.07v0s0,0,0,0h0s0,0,0,0h0l0,0,0,0v0h0s0,0,0,0h-.12s0,0,0,0h0s0,0,0,0h0l-.09-.06a.12.12,0,0,0-.09,0h0s0,0,0,.06a.2.2,0,0,1,.09.06h-.06v0h0l0,0h0v0h0l0,0,0,0v0h0v0s0,0,0,0v0h0v0l0,0h0s0,0,0,0h0l0,0h.06s0,0,0,0h0l0,0s0,0,0,0h0v0s0,0,0,0h0l0,.05a.24.24,0,0,0,.06.09.48.48,0,0,1,.09.11s0,0,0,.05l.09.11h0v0h0s0,0,0,0h0v0l0,0h0s0,0,0,0h0l0,0,0,0h0l0,0s0,0,0,0a.06.06,0,0,1,0,0s0,0,0,0h0v0s0,0,0,0h0s0,0,0,0h0l0,0h.05v0s0,0,0,0h0l0,0s0,0,0,0h0s0,0,0,0h0l.22.27.09.11h0a0,0,0,0,1,0,0h0v0s0,0,0,0h0l0,0h0l0,0s0,0,0,0h0v0a.1.1,0,0,0,0,0s0,0,0,0h0v0h0s0,0,0,0h0s0,0,0,0h0s0,0,0,0h.06s0,0,0,0h0l0,0s0,0,0,0v0h0v0h0l.11.13a2.75,2.75,0,0,0,.22.26l0,.06h0a0,0,0,0,0,0,0h0s0,0,0,0l0,0h0v0h0v0h0v0l0,0,0,0h0l0,0v0s0,0,0,0v0h0v0h0s0,0,0,0,0,0,0,0h0l0,0h0s0,0,0,0,0,0,0,0h0s0,0,0,0h0a1.29,1.29,0,0,1,.16.17l.12.15s0,0,0,0a.68.68,0,0,1,.12.12c0,.06.1.11.14.16l0,0,0,0h0l-.18,0a.27.27,0,0,1-.09,0h-.07c-.14,0-.27,0-.4,0a1.64,1.64,0,0,1-.22,0h0s0,0,0,0h0s0,0,0,0v0l0,0s0,0,0,0h0l0,0s0,0,0,0,0,0,0,0h0s0,0,0,0l0,0s0,0,0,0h0l0,0h0l0,0v0h0a.05.05,0,0,0,0,0l0-.05h0s0,0,0,0h0v0h-.05l0,0,0,0s0,0,0,0,0,0,0,0,0,0,0,0,0,0,0,0l0,0v0l0,0,.06.07a.08.08,0,0,0,0,.05s0,0,0,0,0,0,.05.05,0,0,0,0v0l0,0H64a2.45,2.45,0,0,1-.27,0h0a.51.51,0,0,1-.17,0h-.23l0,0s0,0,0,0h0l0,0v0l0,0s0,0,0,0h0l0,0,0,0s0,0,0,0h0l0,0s0,0,0,0v0h0v0h0a.05.05,0,0,0,0,0l0-.05h0s0,0,0,0h0v0H62.8l0,0,0,0s0,0,0,0,0,0,0,0,0,0,0,0v0s0,0,0,0h0l0,0,.06.08s0,0,0,0,0,0,0,0,0,.05.05.05l0,0s0,0,0,0l0,0h-.27l0,0a.09.09,0,0,1-.05,0h-.25l-.32,0h0v0h0a0,0,0,0,0,0,0l0,0h0l0,0,0,0s0,0,0,0h0s0,0,0,0,0,0,0,0a0,0,0,0,0,0,0v0h0v0h0s0,0,0,0l0,0h0s0,0,0,0h0v0h-.06l0,0,0,0s0,0,0,0,0,0,0,0v0s0,0,0,0,0,0,0,0h0l0,0,.06.07s0,0,0,0,0,0,0,0a.08.08,0,0,0,0,0l0,0v0h-.15l-.2.06a.16.16,0,0,0-.08.06s0,0,0,0a.06.06,0,0,0,.07,0,.37.37,0,0,1,.23,0H62l0,0v0h0v0l0,0h0l0,.06s0,0,0,0,0,0,0,0l0,0h0v0l0,0s0,0,0,0v0s0,0,0,.06,0,0,0,0a.13.13,0,0,1,0,.06s0,0,0,.05h0s0,0,0,0v0s0,0,0,0h0s0,0,0,0h0s0,0,0,0a2653771530222.93,2653771530222.93,0,0,1,.08-.08,0,0,0,0,1,0,0s0,0,0,0,0,0,0,0h0l0,0s0,0,0-.05,0,0,0,0h0s0,0,0,0,0,0,0,0,0,0,0,0h0l0,0s0,0,0,0h.11l.28,0,.47,0s0,0,0,0h0a0,0,0,0,0,0,0l0,0h0l0,.06,0,0h0l0,0h0v0s0,0,0,0l0,0v0s0,0,0,.06v0s0,.05,0,.06l0,.05h0l0,0s0,0,0,0v0s0,0,0,0h0l0,0h0v0s0,0,0,0,0,0,0,0v0l0,0s0,0,0,0h0a.1.1,0,0,1,0-.05s0,0,0,0l0,0h0s0,0,0,0,0,0,0,0,0,0,0,0h0v0l0,0h0l.18,0a1.49,1.49,0,0,1,.21,0l.4,0h.1v0l0,0h0l0,.05,0,0s0,0,0,0h0l0,0h0v0l0,0,0,0a0,0,0,0,0,0,0l0,.05v0s0,.05,0,.06a.14.14,0,0,0,0,.06h0l0,0a0,0,0,0,1,0,0h0l0,0v0s0,0,0,0h0v0l0,0,0,0a0,0,0,0,0,0,0l0,0s0,0,0,0h0v0a.1.1,0,0,1,0-.05s0,0,0,0,0,0,0,0h0s0,0,0,0,0,0,0,0l0,0h0a2.13,2.13,0,0,1,.25,0h.27l.19,0,.23,0a.61.61,0,0,0-.07.1.67.67,0,0,0-.09.14s-.06.08-.09.13l-.1.14a.67.67,0,0,1-.06.12l0,0,0,.05h0s0,0,0,0h0s0,0,0,0h0s0,0,0,0h0v0l0,0V13h0s0,0,0,0h0v0h0l0,0,0,0,0,0h0s0,0,0,0v0s0,0,0,0h0l0,0s0,0,0,0,0,0,0,0,0,0,0,0,0,0,0,0,0,0,0,0h0s0,0,0,0h0v0l-.13.24-.07.1s0,0,0,0h0s0,0,0,0h0s0,0,0,0,0,0,0,0h0v0h0s0,0,0,0h0s0,0,0,0h0v0h0s0,0,0,0h0v0h0l0,0,0,0,0,0v0s0,0,0,0a0,0,0,0,1,0,0h0v0l0,0,0,0h0s0,0,0,0h0a.25.25,0,0,1,0,.09,2.49,2.49,0,0,0-.15.28l0,.07h-.06v0h0s0,0,0,0h0v0h0l0,0,0,0,0,0s0,0,0,0,0,0,0,0v0s0,0,0,0,0,0,0,0h0l0,0v0s0,0,0,0h0s0,0,0,0h0a.5.5,0,0,1,0,.13c0,.07-.07.15-.11.22v0s0,0,0,0l-.05.11h0s0,0,0,0h0s0,0,0,0h0s0,0,0,0h0v0h0s0,0,0,0h0v0h0l0,0,0,0,0,0v0s0,0,0,0a0,0,0,0,1,0,0,0,0,0,0,0,0,0h0v0l0,0s0,0,0,0h0s0,0,0,0h0s0,0,0,0h0s0,0,0,0h0v0H64v0s0,0,0,0v0s0,0,0,0h0l0,0,0,0h0s0,0,0,0h0l0,0h.08s0-.05,0-.05h0a0,0,0,0,0,0,0h0a0,0,0,0,1,0,0v0h0s0,0,0,0H64a.5.5,0,0,0,0-.13l0,0a.87.87,0,0,0,.09-.11.2.2,0,0,0,0-.08l.07-.11h.07v0s0,0,0,0v0s0,0,0,0h0l0,0,0,0h0s0,0,0,0h0l0,0s0,0,0,0h.06l0,0h0v0h0v0h0s0,0,0,0h0s0,0,0,0,0,0,0,0h0l.08-.13,0-.1.11-.19v0h0v0s0,0,0,0v0s0,0,0,0h0l0,0,0,0h0s0,0,0,0h0l0,0h.07v0l0,0h0a0,0,0,0,0,0,0h0v0h0s0,0,0,0h0l0-.06a2.07,2.07,0,0,1,.15-.25s0-.12.09-.17h0v0s0,0,0,0h0v0s0,0,0,0v0h0l0,0,0,0h0l0,0h0s0,0,0,0h.08l0,0h0v0h0v0h0s0,0,0,0h0l0,0h0v0l0,0a.22.22,0,0,1,.05-.11.67.67,0,0,1,.11-.18c0-.05.06-.11.1-.16l0-.08,0-.1.05-.06c0,.1,0,.2,0,.29a1,1,0,0,0,0,.17,1,1,0,0,0,0,.17,1.09,1.09,0,0,0,0,.18.68.68,0,0,1,0,.14v0s0,.08,0,.12a.17.17,0,0,0,0,.07h0s0,0,0,0l0,0h0l0,.05h0s0,0,0,0h0s0,0,0,0,0,0,0,0h0v0h0l0,0h0v0l0,0,0,0a0,0,0,0,1,0,0s0,0,0,0h0v0s0,0,0,.05l0,0h0s0,0,0,0h.06a0,0,0,0,1,0,0h0l0,0L65.5,14s0,0,0,0l0,0s.05,0,.05-.05,0,0,0,0h0l0,.17a.49.49,0,0,1,0,.12s0,0,0,0h0s0,0,0,0l0,0h0s0,0,0,0h0v0l0,.14s0,0,0,0,0,0,0,0a.43.43,0,0,1,0,.11l0,.1h0v0l0,0h0s0,0,0,0l0,0h0s0,0,0,0h0s0,0,0,0h0a0,0,0,0,1,0,0s0,0,0,0,0,0,0,0h0l0,0h0l0,0h0v0l0,0,0,0h0s0,0,0,0h0v.05a.09.09,0,0,0,0,.05l0,0h0s0,0,0,0h.06l0,0h0l0,0,.07-.05s0,0,0-.05l0,0s0,0,0,0,0,0,0,0l0,0a.08.08,0,0,1,0,0h0l0,.15a.88.88,0,0,1,.07.23,2,2,0,0,0,0,.26v0l0,0,0,.2h0v0h0a.07.07,0,0,1,0,.05l0,0s0,0,0,0h0v0l0,0h0s0,0,0,0l0,0h0a.08.08,0,0,0,0,0l0,0s0,0,0,0h0s0,0,0,0l0,0s0,0,0,0h0v0H65.6v0l0,0,0,0s0,0,0,0,0,0,0,0h0v.06l0,0,0,0h0s0,0,0,0h0s0,0,0,0a0,0,0,0,1,0,0h0l0,0,.08-.06s0,0,0-.05,0,0,0,0,0,0,.06-.05l0,0s0,0,0,0,0,0,0,0l0,0h0s0,0,0,0,0,0,0,0h0a0,0,0,0,1,0,0h0s0,0,0,0,0,0,0,0l0,0h0l0,0h0l.06,0s0,0,0,0h0l0,0v0s0,0,0,0h0s0,0,0,0h0l0,0s0,0,0,0h0s0,0,.06,0h.09l0,0h0l0,0h0s0-.05,0-.05h0s0,0,0,0h0s0,0,0,0h0l0,0,0,0,0,0,0,0s0,0,0,0h0a.1.1,0,0,1-.05,0l0,0s0,0,0,0h0s0,0,0,0l0,0a0,0,0,0,0,0,0h0a0,0,0,0,0,0,0s0,0,0-.07a.47.47,0,0,0,0-.17s0,0,0,0a.75.75,0,0,0,0-.15.29.29,0,0,0,0-.09L66,15v-.1l0,0h0l.06,0h0l0,0v0s0,0,0,0h0s0,0,0,0h0l0,0s0,0,0,0h0l0,0h.1l.05,0h0l0,0h0s0-.05,0-.05h0s0,0,0,0h0a.06.06,0,0,0,0,0h0l0,0,0,0h0l0,0s0,0,0,0h0s0,0,0,0l0,0,0,0h0s0,0,0,0l0,0h0v0a1.46,1.46,0,0,1,0-.22.78.78,0,0,1,0-.22v0s0,0,0-.06,0-.2,0-.3,0,0,0-.07h0a0,0,0,0,1,0,0h0l0,0,0,0s0,0,0,0l0,0s0,0,0,0h0l0,0,0,0h0s0,0,.06,0h.09l0,0h0l0,0h0s0-.05,0-.05h0s0,0,0,0h0v0s0,0,0,0l0,0,0,0,0,0,0,0s0,0,0,0h0l0,0s0,0,0,0l0,0h0s0,0,0,0l0,0h-.07a.5.5,0,0,0,0-.12v-.06a.42.42,0,0,1,0-.12,1.46,1.46,0,0,1,0-.22,1.23,1.23,0,0,0,0-.19.31.31,0,0,0,0-.1s0-.08,0-.12v-.17s0,0,0-.06l.23.28.11.12.1.13a1.42,1.42,0,0,0,.12.13h0v0h0l0,0,0,0h0s0,0,0,0,0,0,0,0v0a0,0,0,0,0,0,0h0v0h0l0,0h.09s0,0,0,0h0l.06.06.09.11h0l.19.21.08.1h0l0,0h0v0l0,0,0,0h0l0,0v0s0,0,0,0,0,0,0,0h0v0h0v0l0,0h0s0,0,0,0h.08v0s0,0,0,0l.07.06s0,0,0,0,0,0,0,.06l.07.07.15.17a0,0,0,0,0,0,0h0a0,0,0,0,1,0,0h0l0,0h0v0h0l0,0,0,0v0s0,0,0,0h0s0,0,0,0,0,0,0,0h0v0h0l0,0h0s0,0,0,0h0v0s0,0,0,0h0s0,0,0,0,0,0,0,0h0v0h0a.08.08,0,0,0,0,0,1.37,1.37,0,0,1,.18.16l.17.18h0s0,0,0,0h0v0h0a0,0,0,0,1,0,0h0v0h0l0,0,0,0v0s0,0,0,0h0s0,0,0,0v0h0v0h0l0,0h0s0,0,0,0h0s0,0,0,0h.05s0,0,0,0,0,0,0,0h0s0,0,0,0,0,0,0,0h0v0s0,0,0,0h0l0,.07.09.08,0,0c0-.06,0-.09,0-.11a.12.12,0,0,1-.05-.05l0-.06h0s0,0,0,0h0v0h0s0,0,0,0h0s0,0,0,0h.06v0h.08l0,0,0,0,0,0h0s0,0,0,0h0s0,0,0,0H68l0,0s0,0,0,0h0v0h0a.31.31,0,0,0,0-.1s0,0-.07-.06l-.17-.21-.06-.08h0s0,0,0,0h.06l0,0h.05s0,0,0,0h0l0,0,0,0,0,0h0s0,0,0,0H67.5l0,0h0L67.39,14l-.15-.16a.75.75,0,0,1-.14-.17h0s0,0,0,0,0,0,0,0h0v0h0s0,0,0,0h0s0,0,0,0h.06v0a0,0,0,0,0,0,0h0s0,0,0,0h0l0,0,0,0,0,0h0s0,0,0,0h-.12s0,0,0,0h0l0,0s0,0,0,0h0s0,0,0,0h0l-.12-.14c0-.06-.11-.1-.15-.16l-.15-.16,0,0h0s0,0,0,0h0v0h0s0,0,0,0h0s0,0,0,0h.06v0h.05s0,0,0,0h0l0,0,0,0,0,0s0,0,0,0,0,0,0,0h-.08l0,0h0s0,0,0,0h0s0,0,0,0h0a.57.57,0,0,1-.11-.11.93.93,0,0,0-.13-.15l-.06-.07L66,12.49l-.1-.13,0,0,.36,0,.19,0h.36v0s0,0,0,0,0,0,0,0h0l0,0v0s0,0,0,0h0s0,0,0,0,0,0,0,0,0,0,0,0,0,0,0,0h0l0,0v0h0l0,0,0,.05h0s0,0,0,0h0v0h.06l0,0,0,0s0,0,0,0,0,0,0,0v0s0,0,0,0,0,0,0,0v0l0,0,0-.08s0,0,0,0l0,0s0-.05-.05-.05l0,0H67l.14,0h.18l.34,0h.15s0,0,0,0v0h0l0,0h0s0,0,0,0l0,0h0l.05,0h0s0,0,0,0h0s0,0,0,0,0,0,0,0h0l0,0h0l0,0h0l0,0,0,0h0s0,0,0,0h0v0h0l0,0,0,0s0,0,0,0,0,0,0,0v0s0,0,0,0,0,0,0,0h0l0,0-.05-.07s0-.05,0-.05,0,0,0,0l0-.05,0,0h.06s0,0,0,0,0,0,0,0l.12,0a2.36,2.36,0,0,0,.38,0l.16,0h0v0h0l0,0,0,0a0,0,0,0,0,0,0s0,0,0,0h0l.05,0s0,0,0,0,0,0,0,0h0s0,0,0,0,0,0,0,0,0,0,0,0h0l0,0h0l0,0v0h0a.05.05,0,0,0,0,0,.1.1,0,0,1,0,0h0s0,0,0,0h0v0h0l.05,0,0,0s0,0,0,0,0,0,0,0v0s0,0,0,0,0,0,0,0h0l0,0-.07-.07a.08.08,0,0,0,0,0s0,0,0,0l0,0s0,0,0,0h0l0,0s0,0,0,0h.08l.31,0h.06l.23,0,.14,0,0,0A.17.17,0,0,0,69.87,11.88Zm-.59-.21h0Zm0,0Zm0,0Zm0,0Zm0,0h0Zm-1-.09h0Zm0,0h0Zm0,0h0Zm0,0Zm0,.05Zm-1,0h0Zm0,0Zm0,0Zm0,0h0ZM67,12Zm.44-2.08Zm0,0Zm0,0h0Zm0,0Zm0,0h0Zm0,0h0Zm-.53.5h0Zm0,0h0Zm0,0Zm0,0h0Zm0,0h0Zm0,0Zm0,0Zm-.48.49h0Zm0,0Zm0,0Zm0,0h0Zm-.47.61h0Zm0,0h0Zm0,0Zm0,0Zm0,0h0ZM65.05,8.34Zm0,0h0Zm0,0h0Zm0,0h0Zm0,0Zm0,0h0Zm0,0Zm0,0h0Zm-.23,1Zm0,0h0Zm0,0h0Zm0,0Zm0,0h0Zm0,0Zm.06,0Zm0,0Zm-.18,1h0Zm0,0h0Zm0,0h0Zm0,0h0Zm0,0Zm0,0h0Zm-2-.85h0Zm0,0Zm0,0h0Zm0,0Zm0,0Zm0,0h0Zm0,0h0Zm0,0Zm.37.64Zm0,0Zm0,0h0Zm0,0Zm0,0Zm0,0Zm0,0h0Zm0,0Zm.39.61h0Zm0,0Zm0,0h0Zm0,0Zm0,0Zm0,0h0Zm.45.62Zm0,0h0Zm0,0Zm0,0Zm0,0Zm0,0Zm-3,1.51Zm0,0h0Zm0,0h0Zm0,0Zm0-.05Zm0,0Zm0-.06Zm0,0Zm1,.16h0Zm0,0h0Zm0,0Zm0,0Zm0,0Zm0,0Zm0-.06Zm1,.12h0Zm0,0h0Zm0,0h0Zm0,0h0Zm0-.05h0Zm0,0ZM64,15.22Zm0,0Zm0,0h0Zm0,0h0Zm-.09,0h0Zm0,0Zm0,0Zm0,0h0Zm.4-.6h0Zm0,0Zm-.09,0Zm0,0Zm0,0Zm0,0h0Zm0,0Zm.33-1.05h0Zm0,0h0Zm-.08.15h0l0,0h0Zm-.11.21h0Zm.17,0h0Zm0,0h0Zm0,0Zm0,0ZM65,12.87h0Zm-.24.45h0v0h0Zm.2,0h0Zm0,0h0Zm0,0Zm0,0h0Zm.08-.56h0Zm1.24,3.43h0Zm0,0h0Zm0,0h0Zm0,0Zm0,0h0Zm0,0h0Zm-.09,0Zm0,0Zm.08-1Zm0,0h0Zm0,0h0Zm0,0Zm-.05,0h0Zm0-1h0Zm0,0h0Zm0,0h0Zm0,0h0Zm0,0h0Zm0,0h0Zm.34-.66h0Zm0,0h0Zm1,1.23Zm0,0h0Zm.5.52Zm0,0h0Zm0,0h0Zm0,0h0Zm0-.08h0Zm0,.06Zm0,0Zm0,0h0Zm-.55-.44h0Zm0,0h0Zm0,0Zm0,0Zm0,0Zm-.2-.3h0Zm-.28-.19h0Zm0,0h0Zm0,0Zm0,0Zm0,0Zm0,0Zm0,0h0Zm0,0h0Zm-.19-.21h0Zm-.36-.31Zm.21.16v0h0Zm-.31-.31Zm-.77-2.22h0Zm.19,2.37h0Zm0,.14Zm0,.27h0v0h0Zm.06.53h0Zm0,.05h0Zm0,.19v0h0v0Zm0,.2h0Zm.23.44Zm-.17-1.15ZM66.93,12h0Zm0,.06h0Zm-.28.21Zm.49-.06h0Zm.28,0Zm.66-.29h0Zm0,.06h0Zm-.31.21Zm0,0Zm.48,0h0Zm.9-.27h0Z"/><path class="cls-2" d="M14,13.19h-.09a.44.44,0,0,0-.2,0h0l-.17,0h-.19v0l0,0h0s0,0,0-.06h0v0h0s0,0,0,0h0l0,0h0v0s0,0,0,0,0,0,0,0v0l0-.05a.06.06,0,0,1,0,0s0-.05,0-.06,0,0,0-.05h0l0,0a0,0,0,0,0,0,0v0l-.05,0v0s0,0,0,0h-.05s0,0,0,0l0,0,0,0a0,0,0,0,0,0,0l0,0s0,0,0,0h0a.1.1,0,0,1,0,.05s0,0,0,0,0,0,0,0h0s0,0,0,0,0,0,0,0,0,0,0,0l0,0H12.6l-.25,0-.2,0h0v0h0v0a0,0,0,0,1,0,0h0l0,0,0,0h0l0,0h0l0,0h0l0,0,0,0,0,0v0s0,0,0-.06a0,0,0,0,0,0,0s0,0,0-.06,0,0,0,0h0s0,0,0,0v0h0s0,0,0,0h0s0,0,0,0h-.05s0,0,0,0a.08.08,0,0,1,0,0l0,0a0,0,0,0,1,0,0l0,0s0,0,0,0h0l0,0s0,0,0,0,0,0,0,0h0s0,0,0,0l0,0s0,0,0,0h0v0l0,0v0h-.27c-.09,0-.17,0-.26,0l-.25,0H11v0l0,0h0l0-.06h0s0,0,0,0h0l0,0h0v0s0,0,0,0l0,0v0a.07.07,0,0,0,0-.05s0,0,0,0,0,0,0-.06,0,0,0-.05h0l0,0s0,0,0,0v0s-.05,0-.05,0v0s0,0,0,0h0s0,0,0,0l0,0,0,0s0,0,0,0l0,0s0,0,0,0h0v0l0,.05s0,0,0,0,0,0,0,0h0s0,0,0,0,0,0,0,0,0,0,0,0h0l0,0v0h-.12l-.23,0h-.11l-.15,0a1.2,1.2,0,0,1-.19,0l-.11,0h-.1a.83.83,0,0,1,.08-.12l.09-.12s0-.05,0-.06v0l0,0c.05-.08.11-.14.16-.22h0l0,0h0v0l0,0h0l0,0,0,0h0s0,0,0,0h.08s0,0,0,0h0s0,0,0,0h0v0h0v0h0s0,0,0,0h0l0,0h0l0,0,0,0,.11-.19.06-.07a.94.94,0,0,0,.09-.12h0l0,0h0l0,0,0,0h0s0,0,0,0h.08s0,0,0,0h0s0,0,0,0h0v0h0v0h0s0,0,0,0h0s0,0,0,0h0l0,0a.38.38,0,0,0,.09-.12l.07-.08,0-.05.07-.08h.07v0l0,0h0v0l0,0h0l0,0,0,0h0s0,0,0,0h.14l0,0h0s0,0,0,0h0a0,0,0,0,1,0,0h0s0,0,0,0h-.07a.07.07,0,0,1,0,0,.93.93,0,0,0,.13-.15l.17-.19h.06v0s0,0,0,0h0s0,0,0,0v0h0l0,0,0,0h0l0,0h0l0,0h.08l0,0h0s0,0,0,0h0v0h0l0,0v0h0s0,0,0,0h-.07l.09-.08h0l.07-.15a.14.14,0,0,0,0-.09v0s-.05,0-.05,0-.07.11-.11.16l-.11.08h0s0,0,0,0,0,0,0,0h0s0,0,0,0h0s0,0,0,0h0v0s0,0,0,0v0h0s0,0,0,0h0v0h0l0,0,0,0,0,0s0,0,0,0,0,0,0,0v0s0,0,0,0h0v0s0,0,0,0h0s0,0,0,0h0v0h0s0,0,0,.05l0,0-.14.17L11,11.5h0s0,0,0,0h0a0,0,0,0,0,0,0s0,0,0,0h0v0h0v0h0s0,0,0,0h0v0h0l0,0,0,0,0,0h0s0,0,0,0v.05s0,0,0,0h0l0,0s0,0,0,0h0s0,0,0,0h0s0,0,0,0,0,0,0,0l-.05.07a1.43,1.43,0,0,0-.19.24l-.07.09h0s0,0,0,0H10.5s0,0,0,0,0,0,0,0h0v0l0,0a0,0,0,0,0,0,0v0h0s0,0,0,0h0v0h0l0,0,0,0,0,0v0s0,0,0,0a0,0,0,0,1,0,0h0v0l0,0s0,0,0,0v0l0,0h0a0,0,0,0,1,0,0v0h0a1.09,1.09,0,0,0-.13.17l-.09.13s0,0-.06.07l-.07.11h-.06s0,0,0,0h0v0l0,0V12.5h0v0h0l0,0,0,0,0,0v0s0,0,0,0a0,0,0,0,1,0,0h0v0l0,0s0,0,0,0,0,0,0,0l0,0h0a.86.86,0,0,1-.07.1l0,0a.6.6,0,0,1-.09.13l-.11.18,0,0v-.05a.08.08,0,0,1,0-.07v0a.06.06,0,0,0,0,0,1.88,1.88,0,0,0,0-.34c0-.07,0-.13,0-.19v-.07l0-.22,0,0h0l0,0h0l0,0s0,0,0,0h0l0,0a0,0,0,0,1,0,0s0,0,0,0h0a0,0,0,0,1,0,0s0,0,0,0l0,0h0l0,0h0l0,0h0v0l0,0,0,0h0s0,0,0,0h.05v0a.09.09,0,0,0,0-.05l0,0h0s0,0,0,0h0s0,0,0,0l0,0h0l0,0-.07.06a.08.08,0,0,0-.05,0s0,0,0,0,0,0-.05,0l0,0h0l0,0a.4.4,0,0,1,0-.11h0a.39.39,0,0,1,0-.15.45.45,0,0,0,0-.16s0-.07,0-.11,0-.05,0-.07v-.28a.05.05,0,0,1,0,0v0h0s0,0,0,0h0l0,0s0,0,0,0h0s0,0,0,0l0,0s0,0,0,0h0s0,0,0,0l0,0,0,0h0v0h.05v0l0,0,.05,0h0s0,0,0,0h0v-.06l0,0,0,0s0,0,0,0,0,0,0,0H9.9l0,0h0l0,0-.08.06a.1.1,0,0,0-.05,0s0,0,0,0,0,0-.06.05l0,0h0v-.34a.17.17,0,0,0,0-.1v0l0-.14h0l0-.17a.05.05,0,0,0,0,0h0s0,0,0,0h0v0l0,0h0s0,0,0,0l0,0h0l0,0,0,0s0,0,0,0h0s0,0,0,0,0,0,0,0l0,0h0l0,0h0v0l0,0a.1.1,0,0,0,.05,0h0s0,0,0,0h0V9.46s0,0,0,0l0,0h0s0,0,0,0H9.86a0,0,0,0,1,0,0h0l0,0-.08.06s0,0,0,0,0,0,0,0-.05,0-.05,0l0,0h0s0,0,0,0l0,0h0s0,0,0,0v0h0a0,0,0,0,1,0,0h0l0,0s0,0,0,0l0,0h0l0,0h0l-.06,0,0,0h0l0,0v0h0s0,0,0,0h0l0,0s0,0,0,0h0s0,0-.06,0H9l-.05,0h0l0,0h0l0,.05h0s0,0,0,0h0a.08.08,0,0,1,0,0h0l0,0,0,0H9l0,0s0,0,0,0h0a.1.1,0,0,1,.05,0l0,0s0,0,.05,0h0s0,0,0,0l0,0a0,0,0,0,0,0,0l0,0,0,0,0,0h0l0,0h0v0a.85.85,0,0,1,0,.16l0,.14a.33.33,0,0,0,0,.1v.15s0,0,0,.06v.22h0s0,0,0,0H9.36l0,0h0l-.05,0,0,0h0v0s0,0,0,0v0l0,0h0v0h0l0,0,0,0h0a.13.13,0,0,0-.06,0H9l-.06,0H9l0,0h0l0,0h0s0,0,0,0h0a.09.09,0,0,1,0,0h0l0,0,0,0H9l0,0s0,0,0,0h0a.1.1,0,0,1,.05,0s0,0,0,0l0,0h0l0,0,0,0h0l0,0,0,0v.23c0,.11,0,.22,0,.32a1.08,1.08,0,0,1,0,.18V12h0l0,0h0l-.06,0v0h0v0s0,0,0,0v0l0,0s0,0,0,0h0l0,0s0,0,0,0h0l-.05,0h-.1l-.05,0H9l0,0h0s0,.05,0,.05H9s0,0,0,0H9a.07.07,0,0,0,0,.05H9l0,0,0,0h0l0,0s0,0,0,0h0l.05,0,0,0,0,0a0,0,0,0,0,0,0s0,0,0,0,0,0,0,0l0,0h0l0,0v.14a.41.41,0,0,1,0,.11,1.81,1.81,0,0,1,0,.23v.2a0,0,0,0,0,0,0c0,.06,0,.11,0,.17a.49.49,0,0,0,0,.12s0,0,0,0h0l0,0c-.08-.09-.14-.18-.22-.26a.81.81,0,0,1-.12-.14l0-.05h0v0h0s0,0,0,0h0s0,0,0,0,0,0,0,0h.08s0,0,0,0h0l0,0h0v0l0,0,0,0v0s0,0,0,0H9s0,0,0,0,0,0,0,0H9l0,0-.06-.08c0-.06-.11-.11-.15-.18h0a.47.47,0,0,1-.1-.1l0-.05h0v0h0s0,0,0,0h0s0,0,0,0h.06v0h.05s0,0,0,0h0l0,0,0,0v0h0s0,0,0,0l0,0H8.59s0,0,0,0h0s0,0,0,0h0s0,0,0,0h0l0,0-.05-.05-.07-.09,0,0a.76.76,0,0,1-.08-.11l0,0a0,0,0,0,1,0,0l0,0v0h0s0,0,0,0h.07v0h.05s0,0,0,0h0l0,0h0l0,0,0,0,0,0h0s0,0,0,0l0,0H8.14s0,0,0,0H8.06v0l-.17-.21,0,0a.16.16,0,0,0-.06-.08h0l0,0h0v0h0s0,0,0,0h0v0h.07v0h.08v0l0,0,0,0h0s0,0,0,0l0,0H7.71s0,0,0,0h0s0,0,0,0h0l-.08-.06-.09,0h0a0,0,0,0,0,0,.06.15.15,0,0,1,.09.06H7.46v0h0v0l0,0h0l0,0,0,0s0,0,0,0h0l0,0,0,0h0s0,0,0,0v0a0,0,0,0,1,0,0,0,0,0,0,0,0,0h0v0h0v0l0,0h0s0,0,0,0h0l0,0s0,0,0,0h0v0s0,0,0,0h0s0,0,0,0a0,0,0,0,1,0,0h0s0,0,0,0h0s0,0,0,0l.06.08a.58.58,0,0,1,.1.12l0,0,.09.1h0v0h0v0h0s0,0,0,0v0h0v0s0,0,0,0h0v0l0,0,0,0h0s0,0,0,0h0s0,0,0,0v0h0v0h0l0,0h0l0,0v0H8s0,0,0,0H8v0s0,0,0,0H8v0a0,0,0,0,1,0,0h0a3,3,0,0,0,.22.28l.08.1h0s0,0,0,0h0s0,0,0,0l0,0h0s0,0,0,0h0l0,0,0,0h0l0,0v0s0,0,0,0v0h0v0l0,0s0,0,0,0,0,0,0,0h0l0,0h.05v0s0,0,0,0h0s0,0,0,0,0,0,0,0h0l.11.13a1.78,1.78,0,0,0,.22.26l0,.05h0s0,0,0,0h0l0,0h0l0,0h0l0,0,0,0h0v0a.1.1,0,0,1,0,0s0,0,0,0h0v0h0l0,0h0s0,0,0,0h0s0,0,0,0h.05a0,0,0,0,0,0,0s0,0,0,0h0l0,0H9v0l.15.17.13.15s0,0,0,0a.63.63,0,0,1,.11.12l.15.16,0,0,0,0H9.16a2.69,2.69,0,0,0-.4,0l-.22,0h0v0s0,0,0,0h0l0,0v0l0,0s0,0,0,0h0l-.05,0v0s0,0,0,0h0s0,0,0,0,0,0,0,0,0,0,0,0h0l0,0v0h0l0,0,0,0h0s0,0,0,0h0v0H8l0,0,0,0s0,0,0,0,0,0,0,0v0s0,0,0,0l0,0H8l0,0a.35.35,0,0,1,0,.08s0,0,.05,0,0,0,0,0,0,0,0,0l0,0s0,0,0,0,0,0,0,0h0l-.11,0H8.08l-.27,0h0l-.16,0a.62.62,0,0,0-.19,0H7.37v0h0s0,0,0,0h0l0,0,0,0h0l0,0h0s0,0,0,0h0s0,0,0,0,0,0,0,0h0l0,0h0l0,0v0H7l0,0,0,0H7s0,0,0,0h0v0H6.88l0,0,0,0s0,0,0,0,0,0,0,0v0s0,0,0,0,0,0,0,0h0l0,0,0,.07,0,.05s0,0,0,0l0,.05s0,0,0,0h0l0,0H6.85s0,0,0,0H6.55l-.32,0h0l0,0v0s0,0,0,0,0,0,0,0h0l0,0a0,0,0,0,1,0,0s0,0,0,0H6l0,0a0,0,0,0,0,0,0s0,0,0,0H6l0,0h0l0,0v0h0l0,0,0-.05h0s0,0,0,0h0v0h0l0,0,0,0s0,0,0,0,0,0,0,0v0s0,0,0,0l0,0v0l0,0,0,.07s0,0,0,.05,0,0,0,0l0,.05,0,0,0,0H5.84l-.19.06a.24.24,0,0,0-.09.06,0,0,0,0,1,0,0s0,0,.07,0a.41.41,0,0,1,.24,0l.16,0H6s0,0,0,0l0,0H6s0,0,0,0l0,0H6l0,.05,0,0v0h0l0,0h0v0l0,0,0,0a0,0,0,0,1,0,0l0,.05v0s0,.05,0,.06,0,0,0,.06h0l0,0a0,0,0,0,0,0,0h0l0,0v0s0,0,0,0h0s0,0,0,0l0,0,0,0a0,0,0,0,0,0,0l0,0s0,0,0,0h0v0a.1.1,0,0,1,0-.05s0,0,0,0,0,0,0,0h0v0s0,0,0,0l0,0h0s0,0,0,0l0,0h.12l.27,0,.47,0h0s0,0,0,0l0,0h0s0,0,0,.06h0s0,0,0,0h0v0H7v0l0,0H7v0l0,.05v0a.13.13,0,0,1,0,.06s0,0,0,0h0a.05.05,0,0,0,0,0s0,0,0,0v0s0,0,0,0v0s0,0,0,0H7s0,0,0,0l0,0,0,0,0,0a.05.05,0,0,1,0,0s0,0,0,0h0v0s0,0,0-.05,0,0,0,0l0,0h0v0s0,0,0,0,0,0,0,0h0v0h0l.18,0h.2c.14,0,.27,0,.4,0h.1v0s0,0,0,0h0l0,0s0,0,0,0h0l0,0h0l0,0,0,0,0,0v0s0,0,0,.06a0,0,0,0,0,0,0s0,0,0,.06,0,0,0,.05h0s0,0,0,0v0s0,0,0,0h0s0,0,0,0h.05s0,0,0,0a.08.08,0,0,1,0,0l0,0a0,0,0,0,1,0,0l0,0s0,0,0,0h0l0,0s0,0,0-.05,0,0,0,0h0s0,0,0,0,0,0,0,0l0,0h0v0h0l.26,0,.23,0H9a.68.68,0,0,1,.2,0l.22,0-.07.1-.08.13L9.18,14l-.1.15L9,14.29l0,0,0,.06h0s0,0,0,0h0s0,0,0,0h0s0,0,0,0v0h0s0,0,0,0h0v0h0l0,0,0,0v0s0,0,0,0,0,0,0,0v0h0a0,0,0,0,1,0,0h0v0l0,0s0,0,0,0h0s0,0,0,0h0l-.14.25-.06.1s0,0,0,0h0s0,0,0,0h0a0,0,0,0,0,0,0s0,0,0,0h0l0,0v0h0s0,0,0,0H8.5v0a0,0,0,0,0,0,0v0h0v0h0l0,0,0,0,0,0s0,0,0,0,0,0,0,0v0s0,0,0,0h0l0,0s0,0,0,0h0l0,0h0v0h0l-.05.09c0,.09-.11.18-.15.27l0,.08s0,0,0,0h0s0,0,0,0,0,0,0,0h0v-.05h0v0h0l0,0,0,0v0s0,0,0,0,0,0,0,0v.05s0,0,0,0h0s0,0,0,0,0,0,0,0,0,0,0,0,0,0,0,0h0a.61.61,0,0,1-.05.12,1.63,1.63,0,0,0-.11.23v0a0,0,0,0,0,0,0l0,.11H8s0,0,0,0,0,0,0,0h0s0,0,0,0h0s0,0,0,0h0v-.05h0v0h0l0,0,0,0,0,0s0,0,0,0,0,0,0,0a.1.1,0,0,1,0,0v0s0,0,0,0h0s0,0,0,0,0,0,0,0h0l0,0h0a0,0,0,0,0,0,0h0v0h0s0,0,0,0v0h0v0H8v0H8l0,0h0v0l0,0s0,0,0,0h0l0,0,0,0h.06l0,0h.08s0,0,0,0h0s0,0,0,0h0a.1.1,0,0,1,0,0h0l0,0v0h0a0,0,0,0,1,0,0s0,0,0,0h0s0,0,0,0H8.06a0,0,0,0,0,0,0H8a.27.27,0,0,0,.06-.12,0,0,0,0,1,0,0l.09-.11a.41.41,0,0,0,0-.08l.07-.11H8.4v0h0v0s0,0,0,0h0l0,0s0,0,0,0h.05l0,0h.08s0,0,0,0h0s0,0,0,0h0v0h0v0s0,0,0,0h0s0,0,0,0H8.41l.09-.13.05-.11a1.62,1.62,0,0,1,.1-.18v0h0l0,0h0l0,0,0,0h.06l0,0h.08s0,0,0,0h0s0,0,0,0h0v0s0,0,0,0l0,0v0h0s0,0,0,0H8.76v0l0-.06c0-.08.09-.16.14-.24s.06-.12.1-.18h0v0h0v0s0,0,0,0h0l0,0s0,0,0,0h0s0,0,0,0h0l0,0h.07v0s0,0,0,0h0v0h0s0,0,0,0,0,0,0,0h0s0,0,0,0h0v0s0,0,0-.05,0-.07.05-.1l.11-.19a.78.78,0,0,0,.1-.15.35.35,0,0,0,.05-.08l.06-.1a.18.18,0,0,1,.05-.07c0,.1,0,.2,0,.3s0,.11,0,.16a1,1,0,0,1,0,.17c0,.07,0,.13,0,.19a.59.59,0,0,1,0,.14v0l0,.12v.06h0l0,0s0,0,0,0h0l0,0v0s0,0,0,0h0s0,0,0,0l0,0s0,0,0,0H9.41v0a.05.05,0,0,0,0,0l-.05,0h0s0,0,0,0H9.26v.06l0,0,0,0h0s0,0,0,0,0,0,0,0h0s0,0,0,0h0l0,0,.07-.06s0,0,0,0,0,0,0,0a.08.08,0,0,0,0,0s0,0,0,0h0l0,.16a.53.53,0,0,0,0,.13s0,0,0,0h0s0,0,0,0,0,0,0,0h0s0,0,0,0h0v0l0,.15s0,0,0,0,0,0,0,0,0,.07,0,.1V16h0s0,0,0,0h0v0h0l0,0a0,0,0,0,0,0,0s0,0,0,0h0a.08.08,0,0,1,0,0s0,0,0,0,0,0,0,0h0s0,0,0,0,0,0,0,0h0a0,0,0,0,0,0,0H9.52v0s0,0,0,0a.1.1,0,0,1-.05,0h0s0,0,0,0h0v.06l0,0,0,0h0s0,0,0,0h0s0,0,0,0,0,0,0,0h0l0,0,.08-.06a.1.1,0,0,0,.05,0s0,0,0,0,0,0,.05,0,0,0,0,0h0l0,0h0v0l0,.14c0,.08.05.16.07.24a2.38,2.38,0,0,0,.05.26s0,0,0,0,0,0,0,0l0,.19h0s0,0,0,0h0a.07.07,0,0,1,0,.05l0,0h0s0,0,0,0h0l0,0s0,0,0,0,0,0,0,0,0,0,0,0a0,0,0,0,1,0,0s0,0,0,0h0s0,0,0,0,0,0,0,0h0a0,0,0,0,1,0,0l0,0h0l0,0h0v0l0,0s0,0,0,0a0,0,0,0,0,0,0s0,0,0,0H9.53v.05a.09.09,0,0,0,0,0l0,0s0,0,0,0,0,0,0,0h.06s0,0,0,0h0l0,0,.08-.06s0,0,0,0,0,0,0,0,0,0,.05,0l0,0s0,0,0,0,0,0,0,0l0,0h0s0,0,0,0h0v0h0l0,0s0,0,0,0h.06a0,0,0,0,1,0,0h0l.05,0a0,0,0,0,1,0,0h0v0s0,0,0,0a0,0,0,0,0,0,0l0,0s0,0,0,0v0h0l0,0s0,0,0,0l0,0h0l.05,0h.1l.05,0h0l0,0h0s0-.05,0-.05h0s0,0,0,0h0V17.5s0,0,0,0l0-.05,0,0h0s0,0,0,0,0,0,0,0h0l-.05,0s0,0,0,0l0,0a0,0,0,0,0,0,0h0l0,0s0,0,0,0h0v0a.17.17,0,0,1,0-.07.58.58,0,0,0,0-.18v0c0-.05,0-.1,0-.15s0-.05,0-.08l0-.27v-.1h0l.05,0,0,0s0,0,0,0v0s0,0,0,0v0l0,0s0,0,0,0v0h0s0,0,0,0,0,0,0,0h0a.07.07,0,0,0,.05,0h0s.05,0,.06,0l.06,0h0l0,0h0l0-.05s0,0,0,0,0,0,0,0h0s0,0,0,0,0,0,0,0l0,0,0,0h0l0,0s0,0,0,0h0l-.05,0s0,0,0,0,0,0,0,0h0l0,0,0,0h0v0a1.7,1.7,0,0,1,0-.22,1.5,1.5,0,0,1,0-.22v0a.14.14,0,0,1,0-.07c0-.1,0-.19,0-.29a.15.15,0,0,0,0-.07h0l0,0h0l.06,0,0,0h0l0,0h0s0,0,0,0v0s0,0,0,0v0h0s0,0,0,0,0,0,0,0h0s0,0,.05,0h.1l0,0h0l0,0h0s0-.05,0-.05h0l0,0h0a.09.09,0,0,0,0-.05h0l0,0,0,0h0l0,0s0,0,0,0h0l0,0s0,0,0,0l0,0h0l0,0s0,0,0,0h0l0,0h0a.5.5,0,0,1,0-.12.11.11,0,0,0,0-.05l0-.12c0-.07,0-.15,0-.22s0-.13,0-.2a.28.28,0,0,1,0-.09.59.59,0,0,1,0-.13c0-.05,0-.11,0-.16V13.7c.07.09.15.18.22.28l.11.11.11.13a1.71,1.71,0,0,0,.11.14h0l0,0h0l0,0h0v0l0,0,0,0h0l0,0v0s0,0,0,0v0h0v0l0,0h0s0,0,0,0h0l0,0h0v0s0,0,0,0h0l.07.07.09.11h0l.2.21.08.09h0l0,0,0,0h0s0,0,0,0v0s0,0,0,0v0h0v0h0l0,0h0s0,0,0,0h0s0,0,0,0H11s0,0,0,0l.06.07s0,0,.06,0,0,0,0,0l.08.07.15.18h0v0h0v0h0l0,0h0l0,0h0v0l0,0,0,0h0l0,0v0s0,0,0,0v0h0v0h0v0l.05,0h0s0,0,0,0h0s0,0,0,0h0s0,0,0,0,0,0,0,0h0s0,0,0,0,0,0,0,0,0,0,0,0h0v0h0l0,0,.19.16c0,.06.11.11.17.17h0a0,0,0,0,0,0,0h0a0,0,0,0,1,0,0h0s0,0,0,0l0,0h0l0,0h0v0l0,0,0,0h0l0,0s0,0,0,0,0,0,0,0,0,0,0,0h0v0s0,0,0,0h0s0,0,0,0h0l0,0h0s0,0,0,0h0v0s0,0,0,0h0s0,0,0,0,0,0,0,0h0s0,0,0,0a0,0,0,0,0,0,0l.06.06.09.09h0c0-.06,0-.08,0-.1l0-.05,0-.06h0s0,0,0,0,0,0,0,0h0v0h0s0,0,0,0h0s0,0,0,0h.1s0,0,0,0h0l0,0,0,0,0,0h0s0,0,0,0h-.12s0,0,0,0h0l0,0s0,0,0,0h0s0,0,0,0h0l-.06-.11-.06-.06a1.63,1.63,0,0,1-.17-.2l-.07-.08h0s0,0,0,0h0s0,0,0,0h0s0,0,0,0h0v0h0s0,0,0,0h0l0,0,0,0,0,0h0s0,0,0,0h0s0,0,0,0h-.06s0,0,0,0h0a.23.23,0,0,0-.07-.07,2.09,2.09,0,0,1-.14-.17c-.05-.05-.12-.09-.15-.16v0h0s0,0,0,0h0v0h0s0,0,0,0h0s0,0,0,0a0,0,0,0,0,0,0s0,0,0,0h0v0h.05s0,0,0,0h0l0,0,0,0,0,0h0s0,0,0,0h-.08l0,0s0,0,0,0h0s0,0,0,0H11l-.12-.14-.15-.15a1.14,1.14,0,0,0-.15-.16l0,0h0s0,0,0,0h0v0h0s0,0,0,0h.1s0,0,0,0h0l0,0,0,0,0,0h0s0,0,0,0,0,0,0,0h-.08s0,0,0,0h-.06s0,0,0,0h0a1.27,1.27,0,0,1-.1-.12L10.21,14l-.06-.07-.09-.09a1.13,1.13,0,0,1-.1-.13l0,0h.36l.19,0h.35v0h0l0,0s0,0,0,0h0l0,0h0s0,0,0,0h0s0,0,0,0,0,0,0,0,0,0,0,0h0v0h0v.05h0l0,0s0,0,0,0h0s0,0,0,0h0v0h.06l0,0,0,0s0,0,0,0,0,0,0,0,0,0,0,0a0,0,0,0,1,0,0s0,0,0,0h0l0,0-.06-.07a.1.1,0,0,0,0-.05s0,0,0,0,0,0,0-.05,0,0,0,0h.05l.13,0h.19l.34,0h.14s0,0,0,0v0h0l0,0v0l0,0s0,0,0,0h0l.05,0v0s0,0,0,0h0s0,0,0,0,0,0,0,0,0,0,0,0v0h0v0h0l0,0,0,0h0s0,0,0,0h0v0h.06l0,0,0,0s0,0,0,0,0,0,0,0v-.05s0,0,0,0,0,0,0,0h0l0,0-.06-.08s0,0,0,0,0,0,0,0,0,0-.05,0v0h.05s0,0,0,0,0,0,.05,0l.12,0,.38,0,.16,0,0,0,0,0h0l0,0h0l0,0s0,0,0,0h0l0,0h0s0,0,0,0h0s0,0,0,0l0,0h0l0,0h0l0,0h0l0,0,0,.05h0s0,0,0,0h0v0h.06l.05,0,0,0s0,0,0,0,0,0,0,0,0,0,0,0,0,0,0,0,0,0,0,0h0l0,0-.06-.08s0,0,0,0l0,0s0-.05,0-.05l0,0,0,0,0,0,0,0h.09l.3,0h.06l.23,0H14l0,0C14,13.19,14,13.18,14,13.19ZM13.36,13Zm0,0h0Zm0,0h0Zm0,0Zm0,0Zm-1-.1h0Zm0,0h0Zm0,0Zm0,0Zm0,.05Zm-1.05,0Zm0,0h0Zm0,0h0Zm0,0h0Zm0,0Zm.44-2.08Zm0,0Zm0,0Zm0,0Zm0,0Zm0,0Zm-.52.5h0Zm0,0Zm0,0Zm0,0Zm0,0h0Zm0,0Zm0,0h0Zm-.49.49h0Zm0,0Zm0,0Zm0,0h0Zm-.48.61h0Zm0,0Zm0,0h0Zm0,0h0Zm0,0h0ZM9.13,9.64h0Zm0,0h0Zm0,0h0Zm0,0Zm0,0h0Zm0,0h0Zm.06,0Zm0,0Zm-.22.95h0Zm0,0Zm0,0h0Zm0,0h0Zm0,0Zm.05,0h0Zm.05,0h0Zm0,0Zm-.18,1h0Zm0,0Zm0,0h0Zm0,0h0Zm0,0Zm0,0h0Zm-2-.86Zm0,0h0Zm0,0h0Zm0,0Zm0,0h0Zm0,0Zm0,0h0Zm0,0Zm.37.64h0Zm0,0h0Zm0,0Zm0,0h0Zm0,0Zm0,0h0Zm0,0Zm0,0h0Zm.39.61Zm0,0h0Zm0,0Zm0,0Zm0,0Zm0,0Zm.46.63h0Zm0,0Zm0,0h0Zm0,0Zm0,0Zm0,0Zm-3,1.52h0Zm0,0Zm0,0Zm0,0H6Zm0,0Zm0,0H6ZM6,14H6Zm0,0H6Zm1,.15Zm0,0Zm0,0h0Zm0,0h0Zm0,0Zm0,0h0Zm0-.06Zm1,.12h0Zm0,0h0Zm0,0Zm0,0Zm0-.05Zm0,0h0Zm-.19,2.72h0Zm0,0Zm0,0Zm0,0h0ZM8,16.5Zm0,0H8Zm0,0Zm0,0H8Zm.41-.6h0Zm0,0Zm-.08,0Zm0,0h0Zm0,0h0Zm0,0h0Zm0,0h0Zm.34-1.06h0Zm0,0h0ZM8.64,15h0l0,0h0Zm-.11.2h0Zm.16,0h0Zm0,0Zm0,0Zm0,0h0Zm.38-1.11h0Zm-.23.45h0Zm.2,0h0Zm0,0Zm0,0h0Zm0,0Zm.07-.57Zm1.25,3.43Zm0,0h0Zm0,0h0Zm0,0h0Zm0,0Zm0,0Zm-.1,0h0Zm0,0Zm.07-1h0Zm0,0Zm0,0h0Zm0,0h0Zm0,0Zm0-1h0Zm0,0h0Zm0,0h0Zm0,0h0Zm-.05,0h0Zm0,0Zm.33-.66h0Zm0,0Zm1,1.24h0Zm0,0Zm.51.53h0Zm0,0h0Zm0,0h0Zm0,0Zm0-.07h0Zm0,.05Zm0,0h0Zm0,0Zm-.54-.45Zm0,0Zm0,0Zm0,0h0Zm0,0Zm-.21-.3Zm-.28-.2Zm0,0h0Zm0,0h0Zm0,0h0Zm0,0Zm0,0Zm0-.05h0Zm0,0h0Zm-.2-.21h0Zm-.35-.31h0Zm.21.15h0v0Zm-.31-.31ZM9.47,12h0Zm.19,2.36Zm0,.15h0Zm0,.27h0v0h0Zm.07.52Zm0,0h0Zm0,.2v0h0v0Zm0,.2h0Zm.24.44Zm-.18-1.16h0ZM11,13.3Zm0,.06Zm-.28.21h0Zm.49-.07Zm.27,0h0Zm.67-.3h0Zm0,.06h0Zm-.31.22h0Zm0,0Zm.47,0Zm.91-.26Z"/><path class="cls-2" d="M45.23,61.82h-.08a.75.75,0,0,0-.21,0h0l-.18,0-.1,0h-.08v0l0,0h0l0-.05,0,0s0,0,0,0h0v0s0,0,0,0h0v0l0,0,0,0s0,0,0,0,0,0,0-.06a0,0,0,0,0,0,0,.17.17,0,0,1,0-.07.08.08,0,0,0,0-.05h0s0,0,0,0a0,0,0,0,0,0,0v0s-.05,0-.05,0h0s0,0,0,0h-.05v0s0,0,0,0l0,0,0,0a.08.08,0,0,1,0,0s0,0,0,0h0v0l0,0,0,0s0,0,0,0h0s0,0,0,0,0,0,0,0l0,0s0,0,0,0H44l-.14,0-.26,0h-.19a0,0,0,0,1,0,0h0a0,0,0,0,0,0,0l0,0h0l0-.06,0,0s0,0,0,0l0,0h0v0l0,0h0s0,0,0,0l0,0s0,0,0,0,0,0,0-.06a.08.08,0,0,0,0,0h0l0,0v0s0,0,0,0h0a.05.05,0,0,0,0,0h0s0,0,0,0l0,0s0,0,0,0,0,0,0,0,0,0,0,0h0v0l0,0s0,0,0,0l0,0h0s0,0,0,0,0,0,0,0,0,0,0,0h0l0,0,0,0-.27,0-.25,0a2.3,2.3,0,0,0-.26,0h-.09v0l0,0h0l0,0s0,0,0,0h0l0,0h0l0,0s0,0,0,0h0v0l0,0,0,0s0,0,0,0,0,0,0-.06v0s0,0,0-.06l0,0h0s0,0,0,0a0,0,0,0,0,0,0h-.06s0,0,0,0H42.4v0l0,0,0,0a0,0,0,0,0,0,0l0,0s0,0,0,0h0a.1.1,0,0,1,0,.05s0,0,0,0,0,0,0,0h0v0s0,0,0,0l0,0h0s0,0,0,0H42l-.23,0h-.11l-.15,0h-.4a.83.83,0,0,1,.08-.12.83.83,0,0,0,.08-.12.13.13,0,0,1,.05-.06h0l0,0c0-.07.1-.14.15-.21h0v0s0,0,0,0v0s0,0,0,0h0s0,0,0,0l0,0h0l0,0h.13l0,0h0s0,0,0,0h0v0h0s0,0,0,0v0h0s0,0,0,0h0s0,0,0,0h0l0,0,0,0,.11-.18L41.8,61l.09-.12h0s0,0,0,0l0,0h0v0s0,0,0,0h0l0,0,0,0h0s0,0,0,0h0s0,0,0,0h.06a0,0,0,0,0,0,0v0l0,0h0v0h0s0,0,0,0,0,0,0,0h0s0,0,0,0h0l0,0h0a0,0,0,0,1,0,0l.09-.12s0-.06.07-.09l0,0,.06-.08h.09v0s0,0,0,0h0s0,0,0,0h0l0,0,0,0h0s0,0,0,0h.08l0,0h0s0,0,0,0h0v0h0l0,0v0h0s0,0,0,0h0l0,0s0,0,0,0,0,0,0,0h0s0,0,0,0a1,1,0,0,0,.13-.16l.16-.18h.05s0,0,0,0l0,0h0v0l0,0h0l0,0,0,0h0s0,0,0,0h0s0,0,0,0H43s0,0,0,0h0s0,0,0,0h0a0,0,0,0,0,0,0h0a0,0,0,0,1,0,0v0h0a0,0,0,0,1,0,0s0,0,0,0h0l0,0h0s0,0,0,0h0l.09-.07h0l.07-.15a.14.14,0,0,0,0-.09l0,0s0,0,0,0-.07.11-.12.16l-.1.08h0s0,0,0,0h0s0,0,0,0h0s0,0,0,0,0,0,0,0h0v0h0v0h0l0,0,0,0,0,0v0s0,0,0,0a0,0,0,0,0,0,0s0,0,0,0h0v0s0,0,0,0,0,0,0,0v0s0,0,0,0h0l0,.06,0,0L42.4,60l-.1.13h0s0,0,0,0h0s0,0,0,0h0v0s0,0,0,0v0h0s0,0,0,0h0v0h0l0,0,0,0,0,0s0,0,0,0,0,0,0,0v0s0,0,0,0h0v0s0,0,0,0,0,0,0,0a0,0,0,0,0,0,0h0l-.06.07a2.15,2.15,0,0,0-.18.24.86.86,0,0,1-.07.1h0s0,0,0,0h0s0,0,0,0h0s0,0,0,0h0s0,0,0,0h0v0h0v0h0l0,0,0,0,0,0s0,0,0,0,0,0,0,0v0h0s0,0,0,0h0v.06l0,0s0,0,0,0,0,0,0,0h0s0,0,0,0h.05a.75.75,0,0,0-.13.18l-.1.12-.06.08-.06.1h0s0,0,0,0h0s0,0,0,0h0s0,0,0,0h0v0h0s0,0,0,0h0v0h0l0,0,0,0,0,0s0,0,0,0,0,0,0,0v0h0s0,0,0,0h0v0s0,0,0,0,0,0,0,0,0,0,0,0h0l-.08.1v0a1.1,1.1,0,0,1-.09.14s-.07.12-.11.17l0,0a.07.07,0,0,0,0-.05.22.22,0,0,1,0-.08s0,0,0,0,0,0,0-.05,0-.23,0-.34a1.21,1.21,0,0,1,0-.19V61.1l0-.22s0,0,0,0,0,0,0,0h0v0s0,0,0,0h0s0,0,0,0l0,0a0,0,0,0,1,0,0s0,0,0,0h0s0,0,0,0h0s0,0,0,0,0,0,0,0h0l0,0h0l0,0h0v0l0,0,0,0a0,0,0,0,1,0,0s0,0,0,0h0v0l0,0,0,0h0s0,0,0,0h0s0,0,0,0l0,0h0l0,0-.08.05s0,0,0,0l0,0s0,0,0,0l0,0h0a.05.05,0,0,1,0,0,.24.24,0,0,1,0-.12h0a.76.76,0,0,1,0-.15.76.76,0,0,0,0-.15s0-.08,0-.12v-.39h0l0,0a0,0,0,0,0,0,0l0,0s0,0,0,0h0s0,0,0-.05h0s0,0,0,0h0s0,0,0,0l0,0s0,0,0,0h0l0,0h0l0,0h0v0l0,0,0,0h0s0,0,0,0h.05v-.05a.09.09,0,0,0,0,0l0,0h0s0,0,0,0h-.06l0,0h0l0,0-.07,0s0,0,0,0,0,0,0,0l-.05,0s0,0,0,0h0v-.28s0,0,0-.06a.12.12,0,0,0,0-.1s0,0,0,0l0-.13h0l0-.17,0,0h0l0,0h0l0,0s0,0,0,0h0l0-.05h0s0,0,0,0h0s0,0,0,0,0,0,0,0h0v0h0l0,0h0v0a.05.05,0,0,0,0,0l0,0h0s0,0,0,0h0v0a.09.09,0,0,0,0-.05l0,0s0,0,0,0,0,0,0,0h-.06s0,0,0,0h0l0,0-.07.07a.08.08,0,0,0,0,0s0,0,0,0l-.05,0s0,0,0,0h0l0,0s0,0,0,0h0v0h0v0h0l0,0,0,0h-.06l0,0h0l-.06,0,0,0h0l0,0s0,0,0,0v0s0,0,0,0h0l0,0,0,0,0,0h0l-.06,0h-.09l-.06,0h0l0,0h0s0,0,0,0,0,0,0,0l0,0h0a.07.07,0,0,0,0,.05h0l0,0,0,0h0s0,0,0,0,0,0,0,0h0l.05,0s0,0,0,0l0,0h0s0,0,0,0l0,0h0l0,0,0,0,0,0h0l0,0h0v0a.29.29,0,0,1,0,.16s0,.09,0,.14a.34.34,0,0,0,0,.1.86.86,0,0,1,0,.16v.27h0s0,0,0,0l0,0h0l0,0h0l-.06,0v0h0v0s0,0,0,0v0l0,0s0,0,0,0h0l0,0,0,0h0l-.05,0h-.1l0,0h0l0,0s0,0,0,0h0s0,0,0,0h0s0,0,0,0h0a.06.06,0,0,0,0,0h0l0,0,0,0h0l0,0s0,0,0,0h0s0,0,.05,0l0,0,0,0a0,0,0,0,0,0,0h0s0,0,0,0,0,0,0,0h.05l0,0V60c0,.1,0,.21,0,.31s0,.12,0,.18v.13h0s0,0,0,0h0l-.06,0s0,0,0,0h0l0,0v0h0s0,0,0,0h0l0,0s0,0,0,0,0,0,0,0,0,0-.06,0h-.09l-.05,0h0l0,0h0s0,.05,0,.05h0s0,0,0,0h0v0h0a.08.08,0,0,1,0,0l0,0,0,0,0,0s0,0,0,0h0l.05,0,0,0,0,0h0s0,0,0,0l0,0h0a.76.76,0,0,1,0,.15.34.34,0,0,0,0,.1,1.94,1.94,0,0,1,0,.24,1.27,1.27,0,0,1,0,.2v0a.44.44,0,0,1,0,.16c0,.05,0,.09,0,.13l0,0h0l0,0c-.08-.08-.14-.18-.23-.26l-.12-.14,0-.05h0a0,0,0,0,0,0,0h0s0,0,0,0,0,0,0,0,0,0,0,0h0v0h0s0,0,0,0h0l0,0h0l0,0,0-.05,0,0s0,0,0,0,0,0,0,0l0,0s0,0,0,0h-.08s0,0,0,0,0,0,0,0,0,0,0,0h0s0,0,0,0h0l0,0-.06-.08a1.22,1.22,0,0,1-.15-.17,0,0,0,0,0,0,0,.52.52,0,0,1-.1-.11l0,0h0v0h0s0,0,0,0h0s0,0,0,0h0s0,0,0,0h0s0,0,0,0h0l0,0h0v0l0,0,0,0v0s0,0,0,0h-.12s0,0,0,0h-.06s0,0,0,0h0l0,0,0-.06-.08-.09v0l-.09-.1v0l0,0v0h0s0,0,0,0h0s0,0,0,0h0s0,0,0,0h0v0h.08v0l0,0,0,0h0s0,0,0,0l0,0h-.09s0,0,0,0h0s0,0,0,0h0l-.17-.22,0,0s0-.06-.07-.07v0l0,0h0s0,0,0,0h0s0,0,0,0h0s0,0,0,0,0,0,0,0h.06v0h.05s0,0,0,0h0l0,0,0,0,0,0s0,0,0,0,0,0,0,0H39s0,0,0,0h-.05l-.09-.06a.12.12,0,0,0-.09,0h0s0,.05,0,.06.06,0,.09.06h0a0,0,0,0,1,0,0h0a0,0,0,0,1,0,0h0v0h0v0s0,0,0,0h0l0,0,0,0v0s0,0,0,0v0s0,0,0,0v0h0v0s0,0,0,0h0s0,0,0,0h0l0,0h.06s0,0,0,0h0a0,0,0,0,1,0,0v0a0,0,0,0,0,0,0h0v0s0,0,0,0h0l0,0a.47.47,0,0,0,.06.09,1.09,1.09,0,0,1,.1.11l0,0,.09.11h0s0,0,0,0h0l0,0h0v0l0,0h0s0,0,0,0h0s0,0,0,0l0,0h0s0,0,0,0v0s0,0,0,0a0,0,0,0,1,0,0h0v0l0,0h0s0,0,0,0h0l0,0h0s0,0,0,0,0,0,0,0h0l0,0s0,0,0,0a0,0,0,0,0,0,0h0a0,0,0,0,0,0,0h0l.22.27.09.11h0s0,0,0,0h0l0,0h0l0,0h0l0,0,0,0h0s0,0,0,0v0a.1.1,0,0,1,0,0s0,0,0,0h0v0h0s0,0,0,0h0s0,0,0,0h.08a0,0,0,0,0,0,0s0,0,0,0h0s0,0,0,0h0s0,0,0,0h0v0h0a.63.63,0,0,1,.11.13c.08.09.14.18.22.26l0,.06h0v0h0v0h0v0h0v0h0v0l0,0,0,0h0s0,0,0,0v0a0,0,0,0,0,0,0h0v0h0l0,0h0l0,0h.05s0,0,0,0,0,0,0,0h0v0a0,0,0,0,0,0,0,1.29,1.29,0,0,1,.16.17l.12.15,0,0a.68.68,0,0,1,.12.12l.15.16,0,0,0,0h0l-.18,0h-.16c-.13,0-.27,0-.4,0a1.64,1.64,0,0,1-.22,0h0v0h0l0,0v0s0,0,0,0,0,0,0,0h0l-.05,0s0,0,0,0,0,0,0,0h0l0,0,0,0s0,0,0,0h0l0,0h0s0,0,0,0v0h0l0,0,0,0h0s0,0,0,0h0v0H39.3l0,0,0,0s0,0,0,0,0,0,0,0v0s0,0,0,0l0,0v0l0,0a.22.22,0,0,0,0,.08s0,0,0,0,0,0,0,0l0,0s0,0,0,0l0,0,0,0h-.22a2.45,2.45,0,0,1-.27,0h0a.47.47,0,0,1-.17,0h-.23l0,0s0,0,0,0h0l0,0v0l0,0,0,0h0l0,0v0s0,0,0,0h0a0,0,0,0,0,0,0s0,0,0,0v0l0,0h0l0,0v0h0a.05.05,0,0,0,0,0l0,0h0s0,0,0,0h0v0h0l-.05,0,0,0s0,0,0,0,0,0,0,0a.06.06,0,0,1,0,0s0,0,0,0l0,0h0l0,0,.06.08s0,0,.05,0l0,0s0,0,.05,0l0,0s0,0,0,0l0,0h-.27l0,0s0,0-.06,0h-.25l-.31,0h0l0,0h0l0,0,0,0h0l0,0,0,0s0,0,0,0h0s0,0,0,0,0,0,0,0h0l0,0h0v0h0a.05.05,0,0,0,0,0,.1.1,0,0,0,0,0h0s0,0,0,0h0v0H37l0,0,0,0s0,0,0,0,0,0,0,0,0,0,0,0,0,0,0,0,0,0,0,0h0l0,0,.06.07s0,0,0,0,0,0,0,0,0,0,0,0,0,0,0,0,0,0,0,0h-.15l-.2.06a.21.21,0,0,0-.08.06s0,0,0,0a.09.09,0,0,0,.07,0,.37.37,0,0,1,.23,0h.18l0,0a0,0,0,0,1,0,0h0a0,0,0,0,0,0,0l0,0h0l0,.06,0,0s0,0,0,0l0,0h0v0l0,0s0,0,0,0,0,0,0,0l0,.05s0,0,0,0,0,0,0,.06a.08.08,0,0,0,0,.05h0s0,0,0,0v0s0,0,0,0h0a.05.05,0,0,0,0,0h.05v0s0,0,0,0,0,0,0,0v0s0,0,0,0,0,0,0,0h0v0l0,0s0,0,0,0,0,0,0,0h0s0,0,0,0,0,0,0,0,0,0,0,0h0l0,0,0,0h.11l.28,0,.47,0s0,0,0,0h0v0l0,0h0l0,.06,0,0h0l0,0h0s0,0,0,0h0v0l0,0s0,0,0,0,0,0,0,0,0,0,0,.06,0,0,0,0,0,0,0,.06a.08.08,0,0,0,0,.05h0s0,0,0,0v0s0,0,0,0h0l0,0h0v0l0,0,0,0s0,0,0,0l0,0s0,0,0,0h0a.1.1,0,0,1,0-.05s0,0,0,0l0,0h0s0,0,0,0,0,0,0,0,0,0,0,0h0v0l0,0h0l.19,0a1.23,1.23,0,0,1,.2,0c.13,0,.27,0,.4,0h.1v0s0,0,0,0h0l0,.05,0,0v0h0l0,0s0,0,0,0h0v0l0,0,0,0a0,0,0,0,1,0,0l0,0a0,0,0,0,1,0,0s0,.05,0,.06a.14.14,0,0,0,0,.06h0v0l0,0a0,0,0,0,0,0,0h0l0,0v0s0,0,0,0h.05s0,0,0,0l0,0,0,0a0,0,0,0,0,0,0l0,0s0,0,0,0h0v0a.1.1,0,0,1,0,0s0,0,0,0,0,0,0,0a0,0,0,0,1,0,0v0s0,0,0,0l0,0h0a2.13,2.13,0,0,1,.25,0h.27l.2,0,.22,0-.07.1s0,.09-.08.14l-.1.13a1.1,1.1,0,0,0-.09.14.75.75,0,0,1-.07.12v0l0,0h0s0,0,0,0h0s0,0,0,0h0s0,0,0,0h0v0h0s0,0,0,0v0h0s0,0,0,0h0v0h0l0,0,0,0,0,0v0s0,0,0,0,0,0,0,0,0,0,0,0h0v0l0,0s0,0,0,0,0,0,0,0,0,0,0,0,0,0,0,0h0v0l-.13.24-.07.1s0,0,0,0h0s0,0,0,0h0s0,0,0,0,0,0,0,0h0v0h0s0,0,0,0h0s0,0,0,0h0v0h0s0,0,0,0h0v0h0l0,0,0,0,0,0s0,0,0,0,0,0,0,0v0s0,0,0,0,0,0,0,0h0l0,0v0s0,0,0,0h0s0,0,0,0h0s0,0,0,0h0a.25.25,0,0,1,0,.09c-.05.09-.11.18-.15.27a.3.3,0,0,1,0,.08s0,0,0,0h0s0,0,0,0,0,0,0,0h0s0,0,0,0v0h0s0,0,0,0h0v0h0l0,0s0,0,0,0l0,0s0,0,0,0,0,0,0,0,0,0,0,0,0,0,0,0a0,0,0,0,1,0,0h0v0s0,0,0,0,0,0,0,0h0s0,0,0,0h0s0,.09,0,.13a1.13,1.13,0,0,0-.11.22,0,0,0,0,0,0,0v0l-.06.11h0s0,0,0,0a0,0,0,0,1,0,0h0s0,0,0,0h0s0,0,0,0h0s0,0,0,0h0v0h0s0,0,0,0h0v0h0l0,0,0,0,0,0s0,0,0,0,0,0,0,0v0s0,0,0,0h0l0,0s0,0,0,0,0,0,0,0a0,0,0,0,1,0,0s0,0,0,0,0,0,0,0h0a0,0,0,0,1,0,0h0a0,0,0,0,1,0,0h0s0,0,0,0h0s0,0,0,0h.06s0,0,0,0h0v0l0,0h0v0l0,0h0l0,0,0,0h0s0,0,0,0h0l0,0h.08l0,0h0s0,0,0,0h0v0h0v0a0,0,0,0,0,0,0h0s0,0,0,0h0s0,0,0,0,0,0,0,0h0s0,0,0,0a0,0,0,0,0,0,0h0a.52.52,0,0,0,.06-.13s0,0,0,0l.1-.11,0-.08.07-.11h.08l0,0h0v0l0,0s0,0,0,0h0l0,0,0,0h0s0,0,0,0h0l0,0h.08a.16.16,0,0,0,0,0h0s0,0,0,0h0s0,0,0,0h0s0,0,0,0v0h0s0,0,0,0h0s0,0,0,0a0,0,0,0,0,0,0h0s0,0,0,0h0l.08-.13.06-.1a1.14,1.14,0,0,1,.1-.19v0h0s0,0,0,0l0,0h0v0l0,0s0,0,0,0h0s0,0,0,0l0,0,0,0h0s0,0,0,0h0l0,0s0,0,0,0h0l0,0,0,0h0s0,0,0,0h0v0h0a0,0,0,0,0,0,0v0h0s0,0,0,0h0s0,0,0-.06l.15-.25a1.4,1.4,0,0,0,.09-.17h0l0,0v0h0l0,0h0v0h0l0,0,0,0h0s0,0,0,0,0,0,0,0,0,0,0,0h.08l0-.05h0v0h0l0,0s0,0,0,0h0s0,0,0,0h0s0,0,0,0h0v0l0,0a1.17,1.17,0,0,1,0-.11c0-.06.07-.13.11-.18a1.4,1.4,0,0,0,.1-.16l.05-.08a.53.53,0,0,1,.06-.1l0-.06c0,.1,0,.19,0,.29a1,1,0,0,0,0,.17.91.91,0,0,1,0,.17.55.55,0,0,0,0,.18s0,.09,0,.14v0a.5.5,0,0,1,0,.12s0,0,0,.07h0s0,0,0,0,0,0,0,0h0s0,0,0,0h0s0,0,0,0h0l0,0s0,0,0,0,0,0,0,0h0l0,0h0s0,0,0,0h0v0l0,0,0,0h0s0,0,0,0h-.05v0s0,0,0,.05l0,0s0,0,0,0,0,0,0,0h0s0,0,0,0l0,0h0l0,0,.07,0,0,0s0,0,0,0l.05,0s0,0,0,0h0l0,.17a.49.49,0,0,1,0,.12s0,0,0,0h0s0,0,0,0l0,0h0s0,0,0,0h0v0l0,.14s0,0,0,0,0,0,0,0a.3.3,0,0,0,0,.1v.11h0v0s0,0,0,0h0s0,0,0,0l0,0h0l0,.05h0s0,0,0,0h0a0,0,0,0,1,0,0s0,0,0,0,0,0,0,0h0v0h0l0,0h0v0l0,0-.05,0s0,0,0,0,0,0,0,0h0v0s0,0,0,0l0,0h0s0,0,0,0h0s0,0,0,0l0,0h0s0,0,0,0L41,65s0,0,0,0l0,0s.05,0,.05,0l0,0s0,0,0,0,0,0,0,0h0a.83.83,0,0,0,0,.15,1.55,1.55,0,0,1,.06.23c0,.09,0,.18,0,.26l0,0s0,0,0,0l0,.2h0l0,0h0l0,0,0,0s0,0,0,0h0v0a0,0,0,0,0,0,0h0s0,0,0,0,0,0,0,0a0,0,0,0,0,0,0s0,0,0,0,0,0,0,0,0,0,0,0h0s0,0,0,0l0,0s0,0,0,0,0,0,0,0v0h0v0l0,0,0,0s0,0,0,0,0,0,0,0h0v.06l0,0,0,0s0,0,0,0,0,0,0,0h0s0,0,0,0l0,0h0l0,0,.07-.06s0,0,0,0,0,0,0,0,0,0,0-.05l0,0s0,0,0,0l0,0,0,0h0v0a0,0,0,0,0,0,0s0,0,0,0a0,0,0,0,1,0,0h0s0,0,0,0,0,0,0,0l0,0h0l0,0h0l.06,0s0,0,0,0,0,0,0,0l0,0s0,0,0,0h0l0,0,0,0h0s0,0,.06,0h.09l.06,0h0l0,0H42s0-.05,0-.05h0s0,0,0,0h0s0,0,0,0,0,0,0,0,0,0,0,0l0,0s0,0,0,0l0,0s0,0,0,0h0l0,0,0,0s0,0,0,0h0s0,0,0,0l0,0,0,0h0v0a.14.14,0,0,1,0-.07.47.47,0,0,0,0-.17v0s0-.1,0-.15,0-.06,0-.09l0-.27V64.9h0l.06,0h0s0,0,0,0l0,0v0h0s0,0,0,0h0l0,0,0,0h0l.06,0h.09l0,0h0l0,0h0s0,0,0,0h0s0,0,0,0h0v0s0,0,0,0l0,0a.08.08,0,0,0,0,0s0,0,0,0l0,0s0,0,0,0h0s0,0,0,0l-.05,0s0,0,0,0h0s0,0,0,0l0,0h0v0l0-.22a.53.53,0,0,1,0-.22,0,0,0,0,1,0,0s0,0,0-.06,0-.2,0-.3a.2.2,0,0,0,0-.07h0l0,0h0l0,0,0,0h0v0s0,0,0,0h0s0,0,0,0h0l0,0s0,0,0,0l0,0h0a.07.07,0,0,0,0,0h.09l.06,0h0l0,0h0s0,0,0,0h0s0,0,0,0h0a.06.06,0,0,0,0,0h0l0,0,0,0,0,0,0,0s0,0,0,0h0l-.05,0s0,0,0,0l0,0a0,0,0,0,0,0,0h0l0,0,0,0h-.07a.5.5,0,0,0,0-.12v-.06a.42.42,0,0,1,0-.12l0-.22a1.11,1.11,0,0,0,0-.19.31.31,0,0,0,0-.1s0-.08,0-.12v-.17a.13.13,0,0,0,0-.06l.23.28.11.12.11.13.11.13h0v0h0s0,0,0,0h0l0,0,0,0h0s0,0,0,0h0a.1.1,0,0,0,0,0s0,0,0,0h0v0h0l0,0h0s0,0,0,0h0a0,0,0,0,0,0,0s0,0,0,0h0l.06.06.1.11h0l.2.21.08.1h0v0s0,0,0,0h0v0l0,0,0,0h0s0,0,0,0v0s0,0,0,0h0v0h0v0l0,0h0s0,0,0,0h0s0,0,0,0h0v0s0,0,0,0l.06.06s0,0,0,0,0,0,0,.06l.08.07.14.17h0a0,0,0,0,1,0,0h0l0,0s0,0,0,0v0l0,0s0,0,0,0h0l0,0s0,0,0,0h0s0,0,0,0h0s0,0,0,0v0h0v0h0l0,0h0s0,0,0,0h0s0,0,0,0h0s0,0,0,0,0,0,0,0h0l0,0s0,0,0,0a0,0,0,0,0,0,0h0v0h0a.08.08,0,0,0,0,0,1.37,1.37,0,0,1,.18.16l.17.18h0v0h0v0h0s0,0,0,0h0s0,0,0,0h0s0,0,0,0h0l0,0,0,0v0s0,0,0,0h0s0,0,0,0v0h0v0h0l0,0h0s0,0,0,0h0s0,0,0,0,0,0,0,0h0s0,0,0,0,0,0,0,0h0s0,0,0,0,0,0,0,0h0v0s0,0,0,0h0l.06.07.08.08h0a.13.13,0,0,0,0-.1.12.12,0,0,1,0,0l0-.06h0s0,0,0,0h0v0h0s0,0,0,0h0s0,0,0,0a0,0,0,0,0,0,0s0,0,0,0h0v0h.08l0,0s0,0,0,0l0,0s0,0,0,0,0,0,0,0h0s0,0,0,0h-.07s0,0,0,0,0,0,0,0,0,0,0,0h0s0,0,0,0h0a0,0,0,0,1,0,0l-.06-.1s0,0-.07-.06L43,64.22l-.06-.08h0s0,0,0,0,0,0,0,0H43s0,0,0,0h0l0,0,0,0,0,0h0s0,0,0,0h-.12s0,0,0,0,0,0,0,0h0L42.75,64l-.15-.16a.75.75,0,0,1-.14-.17h0s0,0,0,0h0a0,0,0,0,0,0,0h0s0,0,0,0h0v0s0,0,0,0h.06l0,0s0,0,0,0h0s0,0,0,0h0l0,0,0,0,0,0h0s0,0,0,0h0a0,0,0,0,1,0,0h-.07s0,0,0,0h0l0,0s0,0,0,0,0,0,0,0v0h0l-.12-.14c-.05-.06-.11-.1-.15-.16L41.9,63l0,0h0s0,0,0,0h0s0,0,0,0h0v0s0,0,0,0H42l0,0H42l0,0s0,0,0,0l0,0s0,0,0,0,0,0,0,0h-.08l0,0h0s0,0,0,0h0s0,0,0,0h0a.52.52,0,0,1-.1-.11c0-.06-.09-.1-.13-.15a.46.46,0,0,0-.07-.07l-.08-.09-.11-.13,0,0,.36,0,.19,0h.36v0l0,0s0,0,0,0a0,0,0,0,0,0,0l0,0s0,0,0,0,0,0,0,0h0s0,0,0,0a0,0,0,0,0,0,0s0,0,0,0,0,0,0,0h0l0,0v0h0a.05.05,0,0,0,0,0l0,.05h0s0,0,0,0h0v0h.05l0,0,0,0s0,0,0,0,0,0,0,0v0s0,0,0,0,0,0,0,0v0l0,0-.06-.08a.08.08,0,0,0,0-.05s0,0,0,0,0-.05,0-.05l0,0h0l.14,0h.18l.34,0h.15s0,0,0,0v0h0l0,0h0l0,0s0,0,0,0h0l0,0v0s0,0,0,0h0l0,0,0,0h0l0,0h0l0,0h0a.05.05,0,0,0,0,0,.1.1,0,0,0,0,0s0,0,0,0,0,0,0,0h0v0h0l.05,0,0,0v0s0,0,0,0,0,0,0,0,0,0,0,0,0,0,0,0h0l0,0-.06-.07s0-.05-.05-.05,0,0,0,0,0,0-.05,0l0,0h.06s0,0,0,0,0,0,0,0l.12,0a2.36,2.36,0,0,0,.38,0l.17,0h0s0,0,0,0h0l0,0v0s0,0,0,0l0,0h0l0,0s0,0,0,0,0,0,0,0h0s0,0,0,0l0,0s0,0,0,0h0l0,0h0v0h0l0,0,0,.05h0s0,0,0,0h0v0h.06l0,0,0,0s0,0,0,0,0,0,0,0a.06.06,0,0,1,0,0s0,0,0,0,0,0,0,0h0l0,0-.06-.07s0-.05,0-.05,0,0,0,0l0,0s0,0,0,0h0l0,0,0,0h.08l.31,0h.06l.23,0,.14,0,0,0A.16.16,0,0,0,45.23,61.82Zm-.59-.21h0Zm0,0Zm0,0Zm0,0Zm0,0h0Zm-1-.09h0Zm0,0h0Zm0,0h0Zm0,0Zm0,.05h0Zm-1.06,0h0Zm0,0Zm0,0h0Zm0,0Zm0,0h0Zm.44-2.08Zm0,0Zm0,0h0Zm0,0h0Zm0,0h0Zm0,0Zm-.53.5h0Zm0,0h0Zm0,0Zm0,0Zm0,0Zm0,0Zm0,0Zm-.48.49h0Zm0,0Zm0,0h0Zm0,0h0Zm-.47.61Zm0,0h0Zm0,0Zm0,0Zm0,0h0Zm-1.12-3.24h0Zm0,0h0Zm0,0h0Zm0,0h0Zm0,0h0Zm0,0h0Zm.06,0Zm0,0Zm-.23,1Zm0,0h0Zm0,0h0Zm0,0Zm0,0Zm0,0Zm.06,0Zm0,0Zm-.18,1h0Zm0,0h0Zm0,0h0Zm0,0Zm0,0h0Zm0,0Zm-2-.85h0Zm0,0h0Zm0,0h0Zm0,0h0Zm0,0Zm0,0h0Zm0,0h0Zm0,0h0Zm.37.64Zm0,0Zm0,0Zm0,0Zm0,0Zm0,0Zm0,0Zm0,0Zm.39.61h0Zm0,0Zm0,0h0Zm0,0Zm0,0Zm0,0h0Zm.46.62h0Zm0,0h0Zm0,0Zm0,0Zm0,0Zm0,0Zm-3,1.51h0Zm0,0h0Zm0,0h0Zm0,0Zm0,0Zm0,0Zm0-.06Zm0,0Zm1,.16h0Zm0,0h0Zm0,0h0Zm0,0Zm0,0h0Zm0,0Zm0-.06h0Zm1,.12h0Zm0,0Zm0,0Zm0,0h0Zm0-.05h0Zm0,0h0Zm-.2,2.72h0Zm0,0Zm0,0h0Zm0,0h0Zm-.08,0Zm0,0Zm0,0Zm0,0Zm.4-.6h0Zm0,0Zm-.08,0h0Zm0,0Zm0,0Zm0,0h0Zm0,0ZM40,63.48h0Zm0,0h0Zm-.08.15h0l0,0h0Zm-.11.21h0Zm.17,0h0Zm0,0Zm0,0h0Zm0,0h0Zm.38-1.11h0Zm-.24.45h0v0h0Zm.2,0h0Zm0,0Zm0,0Zm0,0h0Zm.07-.56Zm1.24,3.43h0Zm0,0h0Zm0,0h0Zm0,0h0Zm0,0Zm-.05,0h0Zm-.09,0Zm0,0Zm.08-1h0Zm0,0h0Zm0,0Zm0,0h0Zm0,0h0Zm0-1.05h0Zm0,0h0Zm0,0h0Zm0,0h0Zm0,0Zm0,0Zm.33-.66Zm0,0h0Zm1,1.23Zm0,0h0Zm.51.52h0Zm0,0h0Zm0,0h0Zm0,0h0Zm0-.08Zm0,.06Zm0,0h0Zm0,0h0Zm-.54-.44h0Zm0,0Zm0,0Zm0,0Zm0,0h0Zm-.21-.3h0Zm-.28-.19h0Zm0,0h0Zm0,0Zm0,0Zm0,0h0Zm0,0Zm0,0h0Zm0,0h0ZM42,63.33h0ZM41.62,63Zm.21.16v0h0Zm-.31-.31h0Zm-.76-2.22ZM40.94,63h0Zm0,.14Zm.05.27h0v0h0Zm.06.53h0Zm0,.05h0Zm0,.19v0h0v0Zm0,.2h0Zm.23.44h0Zm-.17-1.15Zm1.08-1.76h0Zm0,.06h0ZM42,62.2Zm.49-.06h0Zm.28,0Zm.67-.29Zm0,.06h0Zm-.3.21h0Zm0,0h0Zm.47,0h0Zm.91-.27h0Z"/><path class="cls-2" d="M42.84,6.14h-.08a.75.75,0,0,0-.21,0h0l-.17,0s-.07,0-.1,0h-.08a0,0,0,0,1,0,0l0,0h0l0-.06,0,0h0l0,0h0s0,0,0,0h0l0,0,0,0,0,0s0,0,0,0,0,0,0-.06v0s0,0,0-.06l0-.06h0v0l0,0a0,0,0,0,1,0,0h0s0,0,0,0v0s0,0,0,0h-.05s0,0,0,0l0,0,0,0v0s0,0,0,0,0,0,0,0h0v0l0,0s0,0,0,0,0,0,0,0h0v0s0,0,0,0l0,0,0,0H41.5l-.26,0-.2,0h0a0,0,0,0,1,0,0h0s0,0,0,0l0,0h0l0,0v0s0,0,0,0h0s0,0,0,0h0V6h0V6l0,0,0,0a0,0,0,0,1,0,0l0,0v0a.15.15,0,0,1,0-.07s0,0,0,0h0l0,0a0,0,0,0,0,0,0h0s0,0,0,0v0s0,0,0,0h0s0,0,0,0l0,0,0,0a0,0,0,0,0,0,0l0,0s0,0,0,0h0v0s0,0,0,0,0,0,0,0l0,0h0v0s0,0,0,0l0,0h0s0,0,0,0h0l-.27,0a2.3,2.3,0,0,0-.26,0L40,6.3h-.09a0,0,0,0,1,0,0v0h0s0,0,0-.06l0,0h0l0,0h0l0,0,0,0s0,0,0,0v0s0,0,0-.06a0,0,0,0,0,0,0s0,0,0-.06,0,0,0,0h0s0,0,0,0,0,0,0,0v0s-.05,0-.05,0a0,0,0,0,1,0,0s0,0,0,0H40s0,0,0,0a.08.08,0,0,1,0,0l0,0v0l0,0s0,0,0,0h0a0,0,0,0,1,0,0l0,0s0,0,0,0,0,0,0,0h0s0,0,0,0,0,0,0,0a.08.08,0,0,0,0,0h0v0l0,0h-.13l-.23,0h-.11l-.14,0h-.41l.08-.12a.54.54,0,0,0,.09-.12.1.1,0,0,1,0,0v0l0,0,.16-.21h0l0,0h0l0,0s0,0,0,0v0h0l0,0,0,0h0s0,0,0,0h0l0,0h.08l0,0h0a.06.06,0,0,0,0,0h0v0s0,0,0,0h0s0,0,0,0h0a0,0,0,0,0,0,0h0l0,0a.1.1,0,0,0,0,0l.12-.18a.21.21,0,0,1,.06-.08,1.25,1.25,0,0,0,.08-.12h0l0,0v0s0,0,0,0v0s0,0,0,0h0l0,0s0,0,0,0h0l0,0h.13s0,0,0,0h0a0,0,0,0,0,0,0h0a0,0,0,0,0,0,0h0s0,0,0,0h0a0,0,0,0,1,0,0h0l0,0a.47.47,0,0,0,.09-.12s.06,0,.08-.09l0-.05.06-.08H40s0,0,0,0l0,0h0v0l0,0h0s0,0,0,0l0,0h0s0,0,0,0h0s0,0,0,0h.05s0,0,0,0h0s0,0,0,0h0a0,0,0,0,0,0,0h0v0a0,0,0,0,0,0,0h0s0,0,0,0h0s0,0,0,0h0a.06.06,0,0,1,0,0l.14-.15.16-.19h0s0,0,0,0l0,0h0v0l0,0h0l0,0,0,0h0s0,0,0,0h.14l0,0h0v0h0s0,0,0,0,0,0,0,0h0s0,0,0,0h0s0,0,0,0h0l.1-.07h0l.07-.15a.28.28,0,0,0,0-.09s0,0,0,0,0,0,0,0a.24.24,0,0,1-.11.16l-.11.09h0s0,0,0,0,0,0,0,0h0s0,0,0,0h0s0,0,0,0h0v0h0v0h0s0,0,0,0h0v0h0l0,0,0,0,0,0h0s0,0,0,0,0,0,0,0v0s0,0,0,0h0a.08.08,0,0,0,0,0s0,0,0,0a0,0,0,0,1,0,0s0,0,0,0h0s0,0,0,0h0v0h0l-.05.06,0,0L40,4.32l-.11.13h0s0,0,0,0h0s0,0,0,0h0a0,0,0,0,0,0,0v0h0v0h0l0,0,0,0,0,0v0s0,0,0,0v0s0,0,0,0h0v0s0,0,0,0a0,0,0,0,0,0,0h0s0,0,0,0h0l-.06.07a2.35,2.35,0,0,0-.19.25L39.48,5h0l0,0s0,0,0,0h0s0,0,0,0h0s0,0,0,0h0v0h0s0,0,0,0v0h0s0,0,0,0h0v0h0l0,0,0,0,0,0s0,0,0,0,0,0,0,0v0s0,0,0,0,0,0,0,0h0l0,0s0,0,0,0,0,0,0,0,0,0,0,0h0v0h0l-.13.18a.94.94,0,0,1-.09.12s0,0-.06.08a.36.36,0,0,1-.07.1h0s0,0,0,0h0s0,0,0,0h0v0h0s0,0,0,0v0h0s0,0,0,0h0v0h0l0,0,0,0,0,0v0s0,0,0,0,0,0,0,0,0,0,0,0,0,0,0,0h0s0,0,0,0,0,0,0,0h0s0,0,0,0,0,0,0,0h0l-.08.1,0,0a1,1,0,0,1-.08.14l-.12.17,0,0a.09.09,0,0,1,0-.05s0,0,0-.07v0a.09.09,0,0,1,0,0c0-.11,0-.23,0-.34a.59.59,0,0,1,0-.19s0,0,0-.06l0-.22,0,0s0,0,0,0h0v0h0l0,0a0,0,0,0,0,0,0s0,0,0,0h0s0,0,0,0l0,0s0,0,0,0h0s0,0,0,0,0,0,0,0h.1v0l0,0a.1.1,0,0,1,0,0h0s0,0,0,0h0V4.67l0,0,0,0h0s0,0,0,0h0s0,0,0,0,0,0,0,0h0l0,0-.08.06a.1.1,0,0,0,0,0s0,0,0,0,0,0-.06,0,0,0,0,0h0s0,0,0,0V4.83a.68.68,0,0,1,0-.14.43.43,0,0,0,0-.16.48.48,0,0,1,0-.12s0,0,0-.07V4.06l0,0h0a0,0,0,0,0,0,0h0s0,0,0,0l0,0h0l0-.05h0s0,0,0,0h0s0,0,0,0,0,0,0,0h0l0,0h0s0,0,0,0h0v0l0,0,0,0h0s0,0,0,0h0v0s0,0,0,0l0,0s0,0,0,0,0,0,0,0h0s0,0,0,0l0,0h0l0,0-.08,0s0,0,0,.05l0,0a.1.1,0,0,0,0,0l0,0h0V3.43s0-.07,0-.1v0l0-.13h0l0-.17s0,0,0-.05h0l0,0h0v0l0,0h0s0,0,0,0,0,0,0,0a0,0,0,0,1,0,0s0,0,0,0h0s0,0,0,0h0a0,0,0,0,1,0,0s0,0,0,0,0,0,0,0h0l0,0h0l0,0h0v0l0,0,0,0h0s0,0,0,0h.05v0a.09.09,0,0,0,0-.05l0,0h0s0,0,0,0h0l0,0,0,0h0l0,0-.08.06s0,0,0,0l0,0s0,0-.05.06l0,0s0,0,0,0a.08.08,0,0,1,0,0l0,0h0s0,0,0,0h0s0,0,0,0h0l0,0,0,0h-.06l0,0h0l0,0,0,0h0v0s0,0,0,0v0l0,0s0,0,0,0v0h0s0,0,0,0l0,0h0A.12.12,0,0,0,38,2.51h-.1s0,0,0,0h0l0,0,0,0h0s0,0,0,0h0s0,0,0,0h0v0h0a.08.08,0,0,1,0,0l0,0s0,0,0,0l0,0s0,0,0,0h0a.1.1,0,0,1,.05,0s0,0,0,0l0,0h0l0,0s0,0,0,0l0,0h0s0,0,0,0h0l0,0h0V3a.43.43,0,0,1,0,.16l0,.14a.41.41,0,0,0,0,.11.75.75,0,0,1,0,.15s0,0,0,.06v.21h0l0,0h-.08l-.06,0,0,0h0l0,0h0v0h0s0,0,0,0h0l0,0,0,0s0,0,0,0h0s0,0-.06,0h-.09l0,0h0l0,0h0s0,0,0,0a0,0,0,0,1,0,0s0,0,0,0h0v0h0a.08.08,0,0,1,0,0l0,0h0l0,0s0,0,0,0h0l.05,0s0,0,0,0,0,0,0,0h0s0,0,0,0,0,0,0,0l0,0h0l0,0,0,0V4.3a1.74,1.74,0,0,0,0,.32,1,1,0,0,1,0,.17.62.62,0,0,1,0,.13h0l0,0h0l0,0,0,0h0v0s0,0,0,0v0l0,0s0,0,0,0v0h0s0,0,0,0l0,0h0s0,0-.06,0h0s0,0-.06,0l-.06,0h0l0,0h0l0,0h0s0,0,0,0h0a.08.08,0,0,1,0,0h0s0,0,0,0l0,0h0l0,0s0,0,0,0h0l0,0s0,0,0,0,0,0,0,0h0l0,0,0,0h.05s0,.1,0,.15a.33.33,0,0,0,0,.1c0,.08,0,.16,0,.24a1.41,1.41,0,0,0,0,.2v0a.88.88,0,0,1,0,.17s0,.08,0,.12,0,0,0,0l0,0,0,0a2.62,2.62,0,0,0-.22-.25.88.88,0,0,1-.12-.15l0,0v0h0s0,0,0,0h0s0,0,0,0h0s0,0,0,0h.06v0a0,0,0,0,0,0,0h.06v0l0,0,0,0h0s0,0,0,0l0,0H38s0,0,0,0,0,0,0,0,0,0,0,0h0s0,0,0,0h0l0,0a.46.46,0,0,1-.07-.07,1.24,1.24,0,0,1-.14-.18,0,0,0,0,1,0,0,.36.36,0,0,1-.11-.1l0,0h0a0,0,0,0,0,0,0h0s0,0,0,0h.07V5h0s0,0,0,0h0l0,0h0l0,0,0,0,0,0h0s0,0,0,0l0,0h-.09s0,0,0,0H37.4s0,0,0,0h0l0,0a.21.21,0,0,1,0-.06l-.08-.09,0,0-.08-.1a.06.06,0,0,1,0,0l0,0v0h0s0,0,0,0h0s0,0,0,0h.06v0h.05s0,0,0,0h0v0s0,0,0,0l0,0h0s0,0,0,0H37s0,0,0,0h-.07l-.17-.21,0,0s0-.06-.07-.07,0,0,0,0l0,0h0a0,0,0,0,1,0,0h0s0,0,0,0h0s0,0,0,0h0a0,0,0,0,1,0,0V4h.05s0,0,0,0h0l0,0h0v0a.09.09,0,0,0,0,0l0,0s0,0,0,0,0,0,0,0l0,0h0s0,0,0,0h-.09a0,0,0,0,1,0,0h0s0,0,0,0,0,0,0,0h0l-.09-.06s0,0-.09,0h0s0,0,0,0a.16.16,0,0,1,.09.07h0s0,0,0,0,0,0,0,0h0l0,0h0s0,0,0,0l0,0s0,0,0,0h0v0s0,0,0,0h0l0,0,0,0h0s0,0,0,0,0,0,0,0,0,0,0,0a0,0,0,0,1,0,0h0v0h0l0,0h0s0,0,0,0h0s0,0,0,0h.06s0,0,0,0h0s0,0,0,0,0,0,0,0h0v0h0l0,.05a.16.16,0,0,0,.06.08,1.25,1.25,0,0,1,.09.12l0,0,.09.11h0s0,0,0,0h0s0,0,0,0v0s0,0,0,0h0l0,0s0,0,0,0h0l0,0,0,0v0h0v0s0,0,0,0,0,0,0,0h0v0l0,0h0s0,0,0,0h0l0,0s0,0,0,0,0,0,0,0h0s0,0,0,0h0s0,0,0,0,0,0,0,0a0,0,0,0,1,0,0h0v0s0,0,0,0a0,0,0,0,0,0,0l.22.27.09.11h0V5h0s0,0,0,0h0v0s0,0,0,0v0s0,0,0,0h0v0l0,0s0,0,0,0h0s0,0,0,0h0a.1.1,0,0,0,0,0,0,0,0,0,0,0,0h0v0h0l0,0h0l0,0v0h0s0,0,0,0h0s0,0,0,0h0v0s0,0,0,0h0v0h0l.11.13a2.62,2.62,0,0,0,.22.25l0,.06h0s0,0,0,0h0v0l0,0h0s0,0,0,0h0s0,0,0,0l0,0h0s0,0,0,0v0s0,0,0,0v0h0v0l0,0a0,0,0,0,1,0,0s0,0,0,0h0l0,0h.05v0s0,0,0,0h0l0,0s0,0,0,0h0l.15.17.13.15s0,0,0,0a.45.45,0,0,1,.11.13l.15.15,0,0,0,0h-.39a2.56,2.56,0,0,0-.39,0H37.4s0,0,0,0h0l0,0h0l0,0s0,0,0,0h0l0,0h0s0,0,0,0h0s0,0,0,0,0,0,0,0h0v0h0s0,0,0,0h0l0,0s0,0,0,0h0s0,0,0,0h0V6H36.9l0,0,0,0s0,0,0,0,0,0,0,0,0,0,0,0v0s0,0,0,0h0l0,0,.06.07a.1.1,0,0,0,0,0s0,0,0,0a.08.08,0,0,0,0,0s0,0,0,0h0l0,0H37a2.46,2.46,0,0,1-.28,0h0a.51.51,0,0,1-.17,0,.55.55,0,0,0-.18,0h-.07s0,0,0,0h0v0l0,0,0,0s0,0,0,0h0l0,0,0,0s0,0,0,0h0s0,0,0,0,0,0,0,0,0,0,0,0a0,0,0,0,0,0,0h0s0,0,0,0v0h0s0,0,0,0a.1.1,0,0,1,0,0h0s0,0,0,0h0v0h-.06l0,0,0,0s0,0,0,0,0,0,0,0v0s0,0,0,0,0,0,0,0v0l0,0,.06.08a.1.1,0,0,0,0,0s0,0,0,0,0,.05.05.06l0,0s0,0,0,0,0,0,0,0h-.31l-.05,0-.25,0-.32,0h0a0,0,0,0,0,0,0v0s0,0,0,0,0,0,0,0a0,0,0,0,1,0,0l0,0s0,0,0,0,0,0,0,0h0s0,0,0,0,0,0,0,0,0,0,0,0v0h0l0,0v0h0l0,0,0-.05h0s0,0,0,0h0v0h-.06l0,0,0,0s0,0,0,0,0,0,0,0v0a0,0,0,0,0,0,0,0,0,0,0,1,0,0h0l0,0,0,.08s0,0,.05,0l0,0s0,0,.05,0l0,0s0,0,0,0h-.16l-.19.06a.18.18,0,0,0-.08.07s0,0,0,0a.06.06,0,0,0,.07,0,.41.41,0,0,1,.24,0h.17l0,0s0,0,0,0h0a0,0,0,0,1,0,0V7h0s0,0,0,0l0,0s0,0,0,0l0,0h0s0,0,0,0h0l0,0,0,0,0,0v0s0,0,0,.06a0,0,0,0,0,0,0s0,0,0,.06,0,0,0,0h0l0,0v0s0,0,0,0h0s0,0,0,0h0s0,0,0,0a.08.08,0,0,1,0,0l0,0,0,0a.08.08,0,0,1,0,0s0,0,0,0h0l0-.05s0,0,0,0a.08.08,0,0,0,0,0h0s0,0,0,0,0,0,0,0a.05.05,0,0,0,0,0h0s0,0,0,0l0,0,0,0h.11l.28,0,.47,0v0h0v0l0,0h0l0,0s0,0,0,0,0,0,0,0h0s0,0,0,0h0l0,0h0V7s0,0,0,0l0,0V7s0,0,0,.06v0s0,0,0,.06,0,0,0,.06h0s0,0,0,0,0,0,0,0h0l0,0s0,0,0,0,0,0,0,0h0s0,0,0,0l0,0,0,0a0,0,0,0,1,0,0s0,0,0,0,0,0,0,0h0l0,0s0,0,0,0,0,0,0,0h0s0,0,0,0,0,0,0,0,0,0,0,0h0a.05.05,0,0,1,0,0h0l.18,0a1.49,1.49,0,0,1,.21,0l.39,0h.1v0l0,0h0l0,.06s0,0,0,0h0s0,0,0,0h0l0,0h0v0s0,0,0,0,0,0,0,0v0a.07.07,0,0,0,0,0s0,0,0,0,0,0,0,.06,0,0,0,0h0s0,0,0,0a0,0,0,0,1,0,0v0s.05,0,.05,0,0,0,0,0a.05.05,0,0,0,0,0h0v0s0,0,0,0l0,0v0l0,0s0,0,0,0h0V7l0,0s0,0,0,0,0,0,0,0h0s0,0,0,0,0,0,0,0,0,0,0,0h0l.25,0h.27a1.25,1.25,0,0,1,.19,0l.23,0-.08.1-.08.14L38.07,7s-.07.09-.1.15l-.06.11,0,0,0,.06h0s0,0,0,0h0s0,0,0,0h0v0l0,0s0,0,0,0v0h0v0h0l0,0,0,0,0,0s0,0,0,0,0,0,0,0,0,0,0,0,0,0,0,0h0s0,0,0,0l0,0s0,0,0,0,0,0,0,0h0s0,0,0,0h0v0l-.14.24-.06.1s0,0,0,0h0s0,0,0,0h0l0,0s0,0,0,0h0s0,0,0,0l0,0h0s0,0,0,0h0s0,0,0,0h0v0h0s0,0,0,0v0h0s0,0,0,0h0v0h0l0,0s0,0,0,0l0,0s0,0,0,0,0,0,0,0,0,0,0,0h0a0,0,0,0,1,0,0h0V8l0,0s0,0,0,0h0s0,0,0,0v0h0v0a.36.36,0,0,0,0,.09,2.4,2.4,0,0,0-.16.27l0,.07h0s0,0,0,0h0v0h0v0h0s0,0,0,0h0v0h0l0,0,0,0,0,0v0s0,0,0,0a0,0,0,0,1,0,0s0,0,0,0h0v0l0,0s0,0,0,0,0,0,0,0a0,0,0,0,0,0,0h0s0,0,0,0h0a.61.61,0,0,1-.05.12l-.11.22v0a0,0,0,0,1,0,0l0,.11h0s0,0,0,0h0s0,0,0,0h0s0,0,0,0h0v0h0v0h0s0,0,0,0h0v0h0l0,0,0,0,0,0s0,0,0,0,0,0,0,0v0h0v0s0,0,0,0,0,0,0,0,0,0,0,0a0,0,0,0,0,0,0h0v0h0s0,0,0,0h0v0h.05s0,0,0,0h.08v0s0,0,0,0h0v0s0,0,0,0v0h0l0,0,0,0h0a0,0,0,0,0,0,0h.13s0-.05,0-.05h0a.08.08,0,0,0,0,0h0v0h0s0,0,0,0h0l0,0h-.09A.61.61,0,0,0,37,9.18l0,0L37.1,9s0,0,0-.07l.06-.12h.09v0s0,0,0,0v0s0,0,0,0v0h0l0,0,0,0h0s0,0,0,0h0s0,0,0,0h.08s0,0,0,0h0a.08.08,0,0,0,0,0h0v0h0s0,0,0,0h0s0,0,0,0,0,0,0,0H37.3l.09-.14,0-.1a1.74,1.74,0,0,0,.1-.19h0v0s0,0,0,0v0s0,0,0,0h0l0,0,0,0h0s0,0,0,0h.13s0-.05,0-.05h0a.08.08,0,0,0,0,0h0v0a0,0,0,0,1,0,0h0s0,0,0,0h0l0,0h0l0-.06a1.94,1.94,0,0,1,.15-.24,1.51,1.51,0,0,1,.09-.18h0s0,0,0,0v0s0,0,0,0h0s0,0,0,0h0l0,0s0,0,0,0H38l0,0h.08s0,0,0,0h0s0,0,0,0h0a0,0,0,0,0,0,0h0v0s0,0,0,0h0s0,0,0,0h0s0,0,0,0h0v0l0,0a.49.49,0,0,1,0-.11,1.88,1.88,0,0,1,.12-.18l.1-.16,0-.07.06-.11,0-.06c0,.1,0,.2,0,.3l0,.16a1,1,0,0,0,0,.17,1.09,1.09,0,0,0,0,.18.78.78,0,0,1,0,.14v0a.43.43,0,0,0,0,.11.15.15,0,0,0,0,.07h0s0,0,0,0,0,0,0,0h0s0,0,0,0h0s0,0,0,0h0a0,0,0,0,1,0,0,0,0,0,0,0,0,0h0v0h0l0,0h0v0l0,0-.05,0s0,0,0,0,0,0,0,0h0v0s0,0,0,.05l0,0s0,0,0,0,0,0,0,0h.07l0,0h0a.08.08,0,0,0,0,0l.08-.05s0,0,0,0l0,0s.05,0,.05-.05l0,0h0l0,.17a.53.53,0,0,1,0,.13s0,0,0,0h0s0,0,0,0l0,0h0s0,0,0,0v0s0,0,0,0l0,.14s0,0,0,0,0,0,0,.05a.3.3,0,0,1,0,.1v.1h0l0,0h0l0,0,0,0h0l0,0h0s0,0,0,0h0a0,0,0,0,1,0,0s0,0,0,0,0,0,0,0h0l0,0h0l0,0h0v0l0,0s0,0,0,0h0s0,0,0,0h0v.05a.09.09,0,0,0,0,.05l0,0h0s0,0,0,0h.06l0,0h0l0,0,.07-.06a.08.08,0,0,0,.05-.05l0,0s0,0,.05,0,0,0,0,0h0l0,0h0l0,.15a1.68,1.68,0,0,1,.07.24c0,.08,0,.17,0,.26v0l0,0L39,10h0s0,0,0,0h0a.13.13,0,0,1,0,.06l0,0,0,0h0v0l0,0h0l0,0s0,0,0,0h0a.08.08,0,0,0,0,0h0s0,0,0,0h0a0,0,0,0,1,0,0,0,0,0,0,0,0,0l0,0h0l0,0h0v0l0,0a.1.1,0,0,0,0,0h0s0,0,0,0h0v0s0,0,0,.05l0,0h0s0,0,0,0h.07s0,0,0,0h0l0,0,.08-.06s0,0,0,0l0,0s0,0,0,0l0,0,0,0a.05.05,0,0,1,0,0l0,0h0s0,0,0,0h0s0,0,0,0h0l0,0s0,0,0,0h0l0,0h0l.06,0v0h0l0,0h0v0l0,0s0,0,0,0h0s0,0,0,0,0,0,0,0h0l0,0h.1s0,0,.05,0h0l0,0h0l0,0h0s0,0,0,0h0a.06.06,0,0,1,0,0h0l0,0,0,0h0l0,0s0,0,0,0h0a.1.1,0,0,1,0,0l0,0-.05,0h0l0,0s0,0,0,0a0,0,0,0,0,0,0h0a0,0,0,0,0,0,0,.22.22,0,0,1,0-.08.55.55,0,0,0,0-.17,0,0,0,0,1,0,0,.76.76,0,0,0,0-.15.29.29,0,0,0,0-.09l0-.26V9.2h0l.06,0v0h0v0s0,0,0,0v0l0,0s0,0,0,0h0l0,0s0,0,0,0,0,0,0,0l0,0h.1l0,0h.06l0,0h0s0-.05,0-.05h0s0,0,0,0h0a.07.07,0,0,0,0-.05h0s0,0,0,0l0,0h0l0,0s0,0,0,0h0l-.05,0,0,0,0,0h0s0,0,0,0l0,0h0v0a1.92,1.92,0,0,1,0-.22.89.89,0,0,1,0-.22v0a.64.64,0,0,0,0-.07c0-.1,0-.2,0-.3a.13.13,0,0,1,0-.06h0l0,0h0l0,0s0,0,0,0h0l0,0h0s0,0,0,0v0s0,0,0,0h0l0,0,0,0h0l.06,0h.09l0,0h.1s0-.05,0-.05h0s0,0,0,0h0v0a0,0,0,0,0,0,0l0,0a.08.08,0,0,0,0,0s0,0,0,0l0,0s0,0,0,0h0a.1.1,0,0,1-.05,0l0,0,0,0h0s0,0,0,0l0,0h-.06s0-.08,0-.12v0a.53.53,0,0,1,0-.12,1.81,1.81,0,0,1,0-.23,1.23,1.23,0,0,0,0-.19.34.34,0,0,0,0-.1s0-.08,0-.12a1,1,0,0,1,0-.17.13.13,0,0,1,0-.06c.07.1.15.19.22.28L39,7l.1.13.11.14h0l0,0h0l0,0h0v0l0,0,0,0h0l0,0v0l0,0a0,0,0,0,0,0,0h0v0h0l0,0h0s0,0,0,0h.08a0,0,0,0,1,0,0s0,0,0,0h0a.23.23,0,0,1,.07.07l.09.1h0l.2.21.08.1h0l0,0h0V8l0,0,0,0h0l0,0V8s0,0,0,0v0h0v0h0s0,0,0,0h0s0,0,0,0h0l0,0h0s0,0,0,0h0v0h0l.07.07h0s0,0,0,.06a.46.46,0,0,1,.07.07l.15.17a0,0,0,0,0,0,0h0v0h0v0h0v0h0l0,0,0,0h0s0,0,0,0,0,0,0,0v0a0,0,0,0,0,0,0h0v0h0l0,0h.09s0,0,0,0h0s0,0,0,0,0,0,0,0v0h0v0h0l0,0,.19.16L40.8,9h0s0,0,0,0h0V9h0l0,0h0l0,0,0,0h0v0a.1.1,0,0,0,0,0s0,0,0,0h0v0h0l0,0h0s0,0,0,0h0a0,0,0,0,0,0,0s0,0,0,0h0s0,0,0,0,0,0,0,0,0,0,0,0h0v0h0l.06.06.09.09h0c0-.06,0-.08,0-.1L41,9.08,41,9h0s0,0,0,0h0s0,0,0,0h0v0s0,0,0,0h.06l0,0h0s0,0,0,0h0l0,0,0,0,0,0h0s0,0,0,0h0s0,0,0,0h0l0,0h0s0,0,0,0h0s0,0,0,0a0,0,0,0,1,0,0h0a.53.53,0,0,0-.06-.1s0,0-.06-.06-.11-.14-.17-.2l-.07-.09h0s0,0,0,0h0a0,0,0,0,1,0,0h.06v0h0s0,0,0,0h0l0,0,0,0,0,0h0s0,0,0,0h-.08l0,0h0a.23.23,0,0,1-.07-.07,1.14,1.14,0,0,1-.15-.16.75.75,0,0,1-.14-.17h0s0,0,0,0h0v0h0s0,0,0,0h0s0,0,0,0h.08s0,0,0,0h0l0,0,0,0,0,0h0s0,0,0,0h0s0,0,0,0H40s0,0,0,0H40s0,0,0,0h0a.75.75,0,0,1-.12-.14c-.05-.06-.11-.1-.15-.16l-.15-.15a.08.08,0,0,0,0,0v0s0,0,0,0h0v0h0s0,0,0,0h0s0,0,0,0h.06v0h0s0,0,0,0h0l0,0,0,0,0,0h0s0,0,0,0h-.05s0,0,0,0h-.08a0,0,0,0,1,0,0s0,0,0,0h0s0,0,0,0h0l-.11-.12a.86.86,0,0,0-.13-.14L39,6.83,39,6.75s-.06-.09-.1-.13l0,0,.36,0,.19,0h.36v0s0,0,0,0l0,0h0l.05,0s0,0,0,0,0,0,0,0h0s0,0,0,0,0,0,0,0h0l0,0h0l0,0v0h0l0,0,0,0h0s0,0,0,0h0V7h.06l0,0,0,0s0,0,0,0,0,0,0,0v0s0,0,0,0l0,0h0l0,0a.56.56,0,0,1-.05-.08s0,0,0,0l0,0a.1.1,0,0,0,0,0s0,0,0,0h.37l.34,0h.15s0,0,0,0v0h0l0,0s0,0,0,0l0,0s0,0,0,0h0l0,0h0s0,0,0,0h0l0,0s0,0,0,0,0,0,0,0a0,0,0,0,1,0,0l0,0h0l0,0v0h0l0,0,0,0h0s0,0,0,0h0v0h.06l.05,0,0,0s0,0,0,0,0,0,0,0v0s0,0,0,0,0,0,0,0v0l0,0,0-.07s0,0-.05,0,0,0,0,0,0,0,0,0a0,0,0,0,1,0,0h.06l0,0s0,0,0,0h.12l.38,0,.16,0,0,0s0,0,0,0h0v0l0,0s0,0,0,0h0l.05,0v0s0,0,0,0h0s0,0,0,0,0,0,0,0,0,0,0,0,0,0,0,0h0l0,0v0h0a.05.05,0,0,0,0,0l0,0h0s0,0,0,0h0v0h0l0,0,0,0s0,0,0,0,0,0,0,0V6.66s0,0,0,0v0l0,0-.06-.07a.08.08,0,0,0,0,0s0,0,0,0,0,0-.06,0l0,0s0,0,0,0l0,0v0h.08l.31,0h.06l.22,0h.15l0,0C42.9,6.14,42.88,6.13,42.84,6.14Zm-.59-.22h0Zm0,0h0Zm0,0h0Zm0,0Zm0,0h0Zm-1-.09Zm0,0Zm0,0Zm0,0h0Zm0,0ZM40,6.08Zm0,0h0Zm0,0h0Zm0,0Zm0,0Zm.44-2.08Zm0,0Zm0,0h0Zm0,0h0Zm0,0h0Zm0,0h0Zm-.53.5h0Zm0,0h0Zm0,0Zm0,0h0Zm0,0h0Zm0,0h0Zm0,0h0Zm-.49.49h0Zm0,0h0Zm0,0Zm0,0h0Zm-.48.61Zm0,0h0Zm0,0Zm0,0Zm0,0h0ZM38,2.59h0Zm0,0Zm0,0h0Zm0,0h0Zm0,0Zm0,0Zm.06,0h0Zm0,0Zm-.22,1h0Zm0,0h0Zm0,0h0Zm0,0h0Zm0,0h0Zm0,0Zm.06,0Zm0,0Zm-.18,1h0Zm0,0Zm0,0h0Zm0,0h0Zm0,0Zm0,0Zm-2-.85h0Zm0,0h0Zm0,0h0Zm0,0h0Zm0,0Zm0,0h0Zm0,0Zm0,0Zm.37.65h0Zm0,0Zm0,0h0Zm0,0Zm0,0h0Zm0,0h0Zm0,0h0Zm0,0Zm.39.61h0Zm0,0h0Zm0,0Zm0,0h0Zm0,0Zm0,0h0Zm.45.62Zm0,0Zm0,0Zm0,0Zm0,0Zm0,0Zm-3,1.52h0Zm0,0h0Zm0,0Zm0,0Zm0,0Zm0,0h0Zm0-.06h0Zm0,0Zm1,.16h0Zm0,0h0Zm0,0Zm0,0Zm0,0h0Zm0,0h0Zm0-.06h0Zm1,.11Zm0,0h0Zm0,0h0Zm0,0Zm0,0Zm0,0ZM37,9.48h0Zm0,0h0Zm0,0h0Zm0,0h0Zm-.08,0h0Zm0,0h0Zm0,0h0Zm0,0Zm.41-.59h0Zm0,0h0Zm-.09,0h0Zm0,0Zm0,0h0Zm0,0h0Zm0,0h0Zm.34-1h0Zm0,0ZM37.53,8h0V8h0Zm-.11.21h0Zm.16,0h0Zm0,0h0Zm0,0Zm0,0h0ZM38,7.13Zm-.24.44h0Zm.2,0Zm0,0h0Zm0,0Zm0,0ZM38.08,7h0Zm1.24,3.43h0Zm0,0h0Zm0,0Zm0,0Zm-.05,0h0Zm0,0Zm-.09,0h0Zm0,0Zm.08-1h0Zm0,0Zm0,0h0Zm0,0h0Zm-.05,0Zm0-1h0Zm0,0h0Zm0,0Zm0,0h0Zm0,0h0Zm0,0h0Zm.34-.65h0Zm0,0h0Zm1,1.23Zm0,0h0Zm.5.52Zm0,0Zm0,0Zm0,0h0Zm0-.08Zm0,.06Zm0,0h0Zm0,0h0Zm-.54-.45Zm0,0Zm0,0Zm0,0h0Zm0,0h0Zm-.21-.31h0ZM39.81,8h0Zm0,0h0Zm0,0Zm0,0h0Zm0,0Zm0,0Zm0,0h0Zm0,0Zm-.19-.22h0Zm-.36-.31Zm.21.16,0,0h0v0Zm-.31-.31ZM38.36,5h0Zm.19,2.37Zm0,.14h0Zm0,.28h0v0h0Zm.07.52h0Zm0,.05h0Zm0,.2v0h0v0Zm0,.2h0Zm.23.43h0ZM38.82,8ZM39.9,6.25h0Zm0,.06Zm-.28.2Zm.49-.06h0Zm.27,0h0Zm.67-.3h0Zm0,.06Zm-.31.21h0Zm0,0Zm.48,0h0Zm.9-.26h0Z"/><path class="cls-2" d="M18.72,39.45h-.08a.75.75,0,0,0-.21,0h0l-.18,0H18v0l0,0h0l0-.06s0,0,0,0,0,0,0,0l0,0h.05v0l0,0s0,0,0,0,0,0,0,0,0,0,0-.06a0,0,0,0,0,0,0s0,0,0-.06l0-.05h0l0,0v0h0s-.05,0-.05,0v0s0,0,0,0h-.05s0,0,0,0l0,0,0,0a0,0,0,0,0,0,0l0,0s0,0,0,0h0v0a.1.1,0,0,1,0,.05s0,0,0,0l0,0h0s0,0,0,0,0,0,0,0,0,0,0,0l0,0h-.43l-.26,0-.19,0h0s0,0,0,0h0v0l0,0h0l0,0,0,0s0,0,0,0h0s0,0,0,0h0l0,0h0v0s0,0,0,0l0,0v0l0-.06s0,0,0,0,0,0,0-.06l0-.06h0v0l0,0a0,0,0,0,1,0,0h0l0,0s0,0,0,0,0,0,0,0H17v0l0,0,0,0v0l0,0s0,0,0,0h0v0a.1.1,0,0,1,0,.05s0,0,0,0,0,0,0,0h0s0,0,0,0,0,0,0,0l0,0h0s0,0,0,0h0l-.28,0-.25,0-.26,0h-.09a0,0,0,0,0,0,0l0,0h0l0-.06,0,0h0l0,0h0l0,0s0,0,0,0h0v0l0,0s0,0,0,0,0,0,0,0l0,0s0,0,0,0,0,0,0-.06a.08.08,0,0,0,0-.05h0s0,0,0,0a0,0,0,0,1,0,0v0s0,0,0,0a0,0,0,0,1,0,0,.05.05,0,0,0,0,0h0l0,.05,0,0s0,0,0,0l0,0s0,0,0,0h0v0l0,0s0,0,0,0l0,0a0,0,0,0,0,0,0s0,0,0,0,0,0,0,0,0,0,0,0h0l0,0h-.13l-.23,0H15.1l-.15,0h-.4a.36.36,0,0,1,.08-.12.57.57,0,0,0,.08-.13s0,0,0,0a0,0,0,0,1,0,0l0,0c0-.07.11-.13.15-.21H15l0,0h0v0h0l0,0,0,0h.05l0,0h.08l0,0h0s0,0,0,0h0v0h0v0h0s0,0,0,0h0l0,0h0l0,0,0-.05.11-.19.06-.07.09-.13h0l0,0h0l0,0h0v0h0l0,0,0,0h0s0,0,0,0h0l0,0h.08s0-.05,0,0h0s0,0,0,0h0s0,0,0,0h0v0a0,0,0,0,1,0,0h0s0,0,0,0h0s0,0,0,0h0l0,0a1.25,1.25,0,0,0,.09-.12s.05,0,.07-.08l0,0,.06-.09h.09v0s0,0,0,0v0s0,0,0,0h0l0,0,0,0h0s0,0,0,0H16v0s0,0,0,0h0s0,0,0,0h0l0,0v0h0s0,0,0,0h0s0,0,0,0h0a.06.06,0,0,1,0,0l.13-.15.16-.19h.06l0,0h0l0,0,0,0s0,0,0,0h0l0,0,0,0h0s0,0,0,0h0l0,0h.08s0-.05,0,0h0a.08.08,0,0,0,0,0h0v0s0,0,0,0h0s0,0,0,0h0a0,0,0,0,1,0,0h0l.09-.08h0l.07-.15a.14.14,0,0,0,0-.09s0,0,0,0-.05,0-.05,0a.25.25,0,0,1-.12.16l-.1.09h0s0,0,0,0,0,0,0,0h0s0,0,0,0h0s0,0,0,0h0v0h0s0,0,0,0v0h0s0,0,0,0h0v0h0l0,0,0,0,0,0s0,0,0,0,0,0,0,0v0s0,0,0,0,0,0,0,0h0l0,0s0,0,0,0h0s0,0,0,0,0,0,0,0h0s0,0,0,0h0l-.05.05s0,0,0,0l-.15.17-.1.13h0s0,0,0,0h0s0,0,0,0h0s0,0,0,0v0h0v0h0l0,0,0,0,0,0h0s0,0,0,0,0,0,0,0h0s0,0,0,0h0s0,0,0,0,0,0,0,0l0,0s0,0,0,0,0,0,0,0h0s0,0,0,0h0l-.06.07a2.15,2.15,0,0,0-.18.24l-.07.09h0s0,0,0,0,0,0,0,0h0s0,0,0,0h0s0,0,0,0h0v0l0,0v0h0s0,0,0,0h0v0h0l0,0,0,0,0,0s0,0,0,0,0,0,0,0v0h0s0,0,0,0h0v0l0,0s0,0,0,0a0,0,0,0,1,0,0s0,0,0,0,0,0,0,0,0,0,0,0h0v0h0l-.13.18s-.07.08-.1.13l-.06.07-.06.11s0,0,0,0h0s0,0,0,0h0s0,0,0,0,0,0,0,0h0v0l0,0v-.05h0s0,0,0,0h0v0h0l0,0,0,0,0,0v0s0,0,0,0v0h0a0,0,0,0,1,0,0h0v0s0,0,0,0,0,0,0,0h0s0,0,0,0h0s0,0,0,0,0,0,0,0h0l-.08.1v0a.48.48,0,0,1-.09.14l-.11.18,0,0a.11.11,0,0,0,0,0s0-.05,0-.07,0,0,0,0,0,0,0,0,0-.22,0-.34a1.09,1.09,0,0,1,0-.18v-.07l0-.22s0,0,0,0,0,0,0,0h0a0,0,0,0,1,0,0h0l0,0s0,0,0,0h0a.08.08,0,0,0,0,0l0,0s0,0,0,0h0s0,0,0,0l0,0,0,0h0l0,0h0v0l0,0,0,0h0s0,0,0,0h0V38l0,0,0,0h0s0,0,0,0h-.06s0,0,0,0h0l0,0-.07.06s0,0,0,0,0,0,0,0a.08.08,0,0,0,0,.05l0,0h0a.05.05,0,0,1,0,0,.21.21,0,0,1,0-.11v0a.32.32,0,0,1,0-.14.86.86,0,0,0,0-.16s0-.08,0-.12v-.34s0,0,0-.05h0l0,0s0,0,0,0,0,0,0,0h0a.08.08,0,0,1,0,0s0,0,0,0,0,0,0,0h0s0,0,0,0,0,0,0,0h0a0,0,0,0,0,0,0h.07v0l0,0a.1.1,0,0,1,0,0h0s0,0,0,0h.05v-.06l0,0,0,0h0s0,0,0,0h-.06a0,0,0,0,1,0,0h0l0,0-.07.06a.1.1,0,0,0,0,0s0,0,0,0,0,0,0,0,0,0,0,0h0V36.8s0,0,0-.06,0-.07,0-.1v0l0-.14h0l0-.17,0,0h0s0,0,0,0h0v0s0,0,0,0h0l0,0,0,0h0s0,0,0,0,0,0,0,0,0,0,0,0h0s0,0,0,0l0,0s0,0,0,0h0l0,0h0v0l0,0,.05,0a0,0,0,0,1,0,0s0,0,0,0h0v-.05l0,0,0,0h0s0,0,0,0h-.06l0,0h0a.08.08,0,0,1,0,0l-.07.06s0,0-.05.05l0,0s0,0-.05.05l0,0,0,0,0,0,0,0h0v0h0a0,0,0,0,1,0,0h0l0,0s0,0,0,0l0,0h0s0,0,0,0h0l-.06,0,0,0h0l0,0h0s0,0,0,0v0s0,0,0,0h0l0,0s0,0,0,0h0s0,0-.06,0h-.09l-.06,0h0l0,0h0s0,0,0,0h0s0,0,0,0h0a.06.06,0,0,0,0,0h0s0,0,0,0l0,0h0l0,0s0,0,0,0h0a.1.1,0,0,1,.05,0l0,0,0,0h0s0,0,0,0l0,0,0,0,0,0s0,0,0,0h0l0,0h0l0,0a.49.49,0,0,1,0,.17.78.78,0,0,1,0,.14.31.31,0,0,0,0,.1.75.75,0,0,1,0,.15v.28h0s0,0,0,0h0l0,0h0l0,0,0,0s0,0,0,0v0s0,0,0,0v0l0,0s0,0,0,0v0h0s0,0,0,0,0,0,0,0h0a.07.07,0,0,0,0,0h0s0,0-.07,0l0,0h0l0,0h0s0,0,0,0h0s0,0,0,0h0s0,0,0,0,0,0,0,0l0,0,0,0h0l0,0s0,0,0,0h0a.1.1,0,0,1,0,0h0s0,0,0,0h0l0,0,0,0h0l0,0,0,0v.24c0,.11,0,.21,0,.32a1.09,1.09,0,0,1,0,.18v.12h0l0,0h0l-.06,0s0,0,0,0h0l0,0h0v0s0,0,0,0v0h0s0,0,0,0,0,0,0,0h0a.13.13,0,0,0-.06,0h-.09l0,0h0l0,0h0s0,0,0,0h0l0,0h0v0h0s0,0,0,0l0,0h0l0,0s0,0,0,0h0a.1.1,0,0,1,0,0s0,0,.05,0l0,0h0l0,0s0,0,0,0h0a.76.76,0,0,1,0,.15v.11a.86.86,0,0,1,0,.23,1.34,1.34,0,0,1,0,.2v0a.5.5,0,0,1,0,.17s0,.08,0,.12l0,0a0,0,0,0,0,0,0l0,0c-.08-.08-.14-.18-.22-.25a1.66,1.66,0,0,1-.13-.14.1.1,0,0,0,0,0h0v0h0s0,0,0,0h0s0,0,0,0H14v0s0,0,0,0h0s0,0,0,0h0v0s0,0,0,0l0,0h0s0,0,0,0h-.15s0,0,0,0,0,0,0,0,0,0,0,0,0,0,0,0h0l0,0-.06-.08a1.3,1.3,0,0,1-.15-.18h0l-.1-.1,0,0h0s0,0,0,0h0s0,0,0,0h.06v0h0s0,0,0,0h0v0s0,0,0-.05l0,0h0s0,0,0,0,0,0,0,0h0s0,0,0,0h-.06s0,0,0,0h0s0,0,0,0h0v0h0s0,0,0,0a.1.1,0,0,0,0,0l-.08-.09v0A.76.76,0,0,1,13,38l0,0,0,0,0,0v0h0s0,0,0,0h0s0,0,0,0h0v0h.05s0,0,0,0h0l0,0h0l0,0a.09.09,0,0,0,0-.05v0l0,0s0,0,0,0h0s0,0,0,0h-.06s0,0,0,0h0s0,0,0,0h0v0l-.17-.21,0,0s0-.06-.06-.07h0l0,0h0v0h0s0,0,0,0h0s0,0,0,0h.07v0h.05s0,0,0,0h0l0,0h0l0,0,0,0,0,0h0s0,0,0,0l0,0h-.09s0,0,0,0h0a0,0,0,0,1,0,0s0,0,0,0h0l-.09-.06a.11.11,0,0,0-.08,0h0s0,0,0,0a.22.22,0,0,1,.09.07h0a0,0,0,0,0,0,0h0s0,0,0,0h0v0s0,0,0,0v0h0v0h0v0l0,0,0,0h0s0,0,0,0v.05a0,0,0,0,0,0,0h0v0h0l0,0h0s0,0,0,0h0l0,0h.06s0,0,0,0h0v0s0,0,0,0h0v0h0a0,0,0,0,0,0,0h0l0,.05a.24.24,0,0,0,.06.08.58.58,0,0,1,.1.12l0,0,.09.11h0v0h0s0,0,0,0l0,0s0,0,0,0h0v0h0l0,0,0,0h0s0,0,0,0h0s0,0,0,0,0,0,0,0h0v0h0l0,0h.11s0,0,0,0h0s0,0,0,0,0,0,0,0h0v0h0l.23.28.08.1h0v0h0l0,0h0v0s0,0,0,0v0h0v0l0,0,0,0h0l0,0s0,0,0,0,0,0,0,0a0,0,0,0,0,0,0h0v0h0v0l0,0h0s0,0,0,0h0l0,0s0,0,0,0h0l0,0s0,0,0,0h0s0,0,0,0,0,0,0,0h0v0h0a1.13,1.13,0,0,1,.1.13c.08.08.14.18.22.26l.05,0h0v0h0s0,0,0,0v0h0l0,0s0,0,0,0h0l0,0,0,0v0h0v0s0,0,0,0,0,0,0,0h0v0l0,0h0s0,0,0,0h0l0,0s0,0,0,0h.06s0,0,0,0h0l0,0s0,0,0,0h0a1.29,1.29,0,0,1,.16.17l.12.15,0,0a.68.68,0,0,1,.12.12l.15.16,0,0,0,0H14.1a.14.14,0,0,1-.09,0h-.07a2.69,2.69,0,0,0-.4,0h-.26v0h0s0,0,0,0h0s0,0,0,0l0,0h0l-.05,0s0,0,0,0,0,0,0,0h0s0,0,0,0,0,0,0,0h0l0,0h0l0,0h0l0,0,0-.05h0s0,0,0,0h0v0h-.06l0,0,0,0s0,0,0,0,0,0,0,0v0s0,0,0,0,0,0,0,0h0l0,0,.05.07s0,0,0,0,0,0,0,0l.05.05,0,0s0,0,0,0a.05.05,0,0,1,0,0h0l-.1,0h-.12a1.23,1.23,0,0,1-.27,0h0l-.17,0a.55.55,0,0,0-.18,0h-.07s0,0,0,0h0l0,0v0l0,0,0,0h0l0,0h0s0,0,0,0h0l0,0a0,0,0,0,0,0,0s0,0,0,0a0,0,0,0,1,0,0l0,0h0l0,0v0h0a.05.05,0,0,0,0,0l0-.05h0s0,0,0,0h0v0h-.05l-.05,0,0,0s0,0,0,0,0,0,0,0v0s0,0,0,0,0,0,0,0v0l0,0,.06.07a.08.08,0,0,0,.05.05s0,0,0,0l0,0,0,0,0,0,0,0h-.31l-.05,0-.26,0L11,40h0l0,0v0l0,0s0,0,0,0a0,0,0,0,0,0,0l0,0s0,0,0,0,0,0,0,0h0s0,0,0,0a0,0,0,0,0,0,0l0,0h0l0,0h0l0,0v0h0a.05.05,0,0,0,0,0l0-.05h0s0,0,0,0h0v0h-.05l0,0,0,0s0,0,0,0,0,0,0,0,0,0,0,0,0,0,0,0,0,0,0,0v0l0,0,.06.08a.08.08,0,0,0,.05.05l0,0s0,.05.05.06,0,0,0,0v0h-.15l-.2.07a.21.21,0,0,0-.08.06v0s.05,0,.07,0a.4.4,0,0,1,.24,0h.17l0,0a0,0,0,0,1,0,0h0s0,0,0,0,0,0,0,0h0l0,.05,0,0v0h0l0,0h0v0l0,0,0,0s0,0,0,0l0,.06s0,0,0,0,0,.05,0,.06a.14.14,0,0,0,0,.06h0a.05.05,0,0,1,0,0,0,0,0,0,1,0,0h0l0,0s0,0,0,0,0,0,0,0h0v0l0,0,0,0a0,0,0,0,0,0,0s0,0,0,0,0,0,0,0h0v0a.1.1,0,0,1,0,0s0,0,0,0l0,0h0s0,0,0,0,0,0,0,0l0,0h0l0,0,0,0h.11l.28,0,.47,0s0,0,0,0h0v0l0,0h0l0,0a0,0,0,0,1,0,0v0h0l0,0h0v0l0,0,0,0s0,0,0,0l0,0v0s0,0,0,.06a.14.14,0,0,0,0,.06h0v0a0,0,0,0,0,0,0h0s0,0,.05,0v0s0,0,0,0h.05s0,0,0,0l0,0,0,0a0,0,0,0,0,0,0l0,0s0,0,0,0h0v0a.1.1,0,0,1,0,0l0,0,0,0h0v0s0,0,0,0l0,0h0s0,0,0,0h0l.19,0h.2a2.71,2.71,0,0,0,.4,0H13a0,0,0,0,1,0,0l0,0h0l0,.06s0,0,0,0,0,0,0,0l0,0h-.05v0l0,0h0v0s0,0,0,.06v0s0,0,0,.06,0,0,0,0h0a.08.08,0,0,0,0,0v0s.05,0,.05,0h0s0,0,0,0h0s0,0,0,0l0,0,0,0s0,0,0,0l0,0s0,0,0,0h0s0,0,0-.05,0,0,0,0a.05.05,0,0,0,0,0h0v0s0,0,0,0,0,0,0,0h0a0,0,0,0,0,0,0h0l.25,0h.27a.68.68,0,0,1,.2,0l.22,0a.86.86,0,0,1-.07.1c0,.05-.05.1-.08.14l-.09.13a.65.65,0,0,0-.1.15.41.41,0,0,1-.07.11v0l0,.06h0s0,0,0,0h0s0,0,0,0h0v0a0,0,0,0,0,0,0v0h0v0h0l0,0,0,0,0,0s0,0,0,0,0,0,0,0v0s0,0,0,0,0,0,0,0h0a.05.05,0,0,0,0,0s0,0,0,0,0,0,0,0,0,0,0,0h0v0h0l-.13.24-.07.11s0,0,0,0h0s0,0,0,0h0s0,0,0,0,0,0,0,0h0s0,0,0,0v0h0s0,0,0,0h0s0,0,0,0h0s0,0,0,0h0v0l0,0v0h0s0,0,0,0h0v0h0l0,0s0,0,0,0l0,0h0s0,0,0,0a0,0,0,0,0,0,0s0,0,0,0,0,0,0,0h0s0,0,0,0a.08.08,0,0,0,0,0s0,0,0,0,0,0,0,0l0,0a0,0,0,0,1,0,0h0l0,0a.36.36,0,0,1,0,.09,2.34,2.34,0,0,0-.15.27.25.25,0,0,1,0,.07s0,0,0,0h0s0,0,0,0v0h0v0a0,0,0,0,0,0,0v0h0v0h0l0,0,0,0,0,0s0,0,0,0,0,0,0,0v0h0s0,0,0,0h0v0s0,0,0,0,0,0,0,0v0s0,0,0,0h0l-.05.12a1.63,1.63,0,0,0-.11.23s0,0,0,0v0l-.05.11h0s0,0,0,0h0s0,0,0,0h0s0,0,0,0h0v0l0,0v-.05h0s0,0,0,0h0v0h0l0,0,0,0,0,0s0,0,0,0,0,0,0,0a0,0,0,0,0,0,0s0,0,0,0,0,0,0,0h0v0s0,0,0,0,0,0,0,0l0,0h0a0,0,0,0,1,0,0v0h0s0,0,0,0h0s0,0,0,0h0s0,0,0,0h.08l0,0h0l0,0h0v0h0l0,0,0,0h0s0,0,0,0H13l0,0h0s0,0,0,0h0s0,0,0,0h0l0,0s0,0,0,0h0a0,0,0,0,1,0,0s0,0,0,0h-.08s0,0,0,0h0a.34.34,0,0,0,.06-.12s0,0,0,0a.52.52,0,0,0,.1-.11l0-.07.07-.12h0s0,0,0,0h.05s0,0,0,0l0,0h0l0,0h0v0h0l0,0s0,0,0,0h0s0,0,0,0h.13s0-.05,0,0h0s0,0,0,0h0v0s0,0,0,0l0,0s0,0,0,0h0s0,0,0,0h0a0,0,0,0,1,0,0s0,0,0,0h-.06l.08-.14.06-.1a1.62,1.62,0,0,1,.1-.18v0h0l0,0h0l0,0h0v0h0l0,0,0,0h0s0,0,0,0a0,0,0,0,0,0,0s0,0,0,0h.08l0,0h0s0,0,0,0h0a.06.06,0,0,1,0,0h0l0,0s0,0,0,0h0s0,0,0,0h0l0,0h0l0-.06.15-.24a1.51,1.51,0,0,0,.09-.18h0s0,0,0,0l0,0h0v0l0,0h0l0,0,0,0h.05l0,0s0,0,0,0h0v0l0,0h0s0,0,0,0,0,0,0,0,0,0,0,0v0h0a0,0,0,0,1,0,0s0,0,0,0h0s0,0,0,0h0v0l0,0s0-.07.05-.1l.11-.19.1-.15a.35.35,0,0,0,0-.08l.06-.11,0-.06c0,.1,0,.2,0,.3s0,.11,0,.16a1,1,0,0,1,0,.17,1.23,1.23,0,0,0,0,.19s0,.09,0,.13v0a.5.5,0,0,1,0,.12.13.13,0,0,1,0,.06h0l0,0s0,0,0,0h0a.08.08,0,0,1,0,0h0s0,0,0,0h0s0,0,0,0a0,0,0,0,0,0,0l0,0h0l0,0h0l0,0h0v0l0,0s0,0,0,0h0s0,0,0,0H14v.05a.09.09,0,0,0,0,0l0,0h0s0,0,0,0h0s0,0,0,0l0,0h0l0,0,.07-.06a.08.08,0,0,0,.05,0l0,0s0,0,.05,0,0,0,0,0h0l0,.17s0,.09,0,.13,0,0,0,0h0s0,0,0,0,0,0,0,0,0,0,0,0,0,0,0,0,0,0,0,0v0l0,.15s0,0,0,0,0,0,0,.05a.44.44,0,0,0,0,.1v.1h0s0,0,0,0h0l0,0h0l0,0s0,0,0,0h0l0,0,0,0s0,0,0,0h0s0,0,0,0l0,0s0,0,0,0H14.3v0l0,0,0,0h0s0,0,0,0h0v.06s0,0,0,0l0,0s0,0,0,0,0,0,0,0h.07s0,0,0,0h0l0,0,.08-.06s0,0,0,0,0,0,0,0,.05,0,.05,0l0,0h0s0,0,0,0h0a.83.83,0,0,0,0,.15,2.1,2.1,0,0,1,.06.24l.06.26v0s0,0,0,0l0,.19h0l0,0h0l0,0,0,0s0,0,0,0h0l0,0h0l0,0s0,0,0,0h0l0,.05h0s0,0,0,0h0l0,0,0,0s0,0,0,0h0l0,0h0l0,0h0v0l0,0-.05,0h0s0,0,0,0h0v0a.09.09,0,0,0,0,0l0,0h0s0,0,0,0h0s0,0,0,0l0,0h0s0,0,0,0l.07-.06a.08.08,0,0,0,.05,0s0,0,0,0,0,0,.05-.06l0,0h0l0,0,0,0h0v0a0,0,0,0,0,0,0h0a0,0,0,0,1,0,0h0l0,0,0,0H15l0,0h0l.05,0s0,0,0,0h0l0,0s0,0,0,0a0,0,0,0,0,0,0l0,0h0v0h0s0,0,0,0l0,0h0s0,0,.06,0h0s.05,0,.06,0l.06,0h0a.05.05,0,0,0,0,0l0,0h0s0,0,0,0,0,0,0,0l0,0h0v0h0l0,0,0,0h0l0,0s0,0,0,0h0l-.05,0s0,0,0,0l0,0h0l0,0,0,0,0,0h0v0a.25.25,0,0,1,0-.07.57.57,0,0,0,0-.18v0s0-.1,0-.15,0-.06,0-.08l0-.27v-.1h0l0,0,0,0h0l0,0s0,0,0,0v0s0,0,0,0v0h0l0,0,0,0h0a.13.13,0,0,0,.06,0h.09l.05,0h0l0,0h0s0-.05,0-.05h0s0,0,0,0h0v0h0s0,0,0,0l0,0h0l0,0s0,0,0,0h0a.1.1,0,0,1,0,0s0,0,0,0l0,0s0,0,0,0,0,0,0,0l0,0s0,0,0,0h0v0l0-.22a.57.57,0,0,1,0-.22,0,0,0,0,0,0,0s0,0,0-.07,0-.2,0-.3a.13.13,0,0,0,0-.06h0l0,0h0l.05,0,0,0h0v0s0,0,0,0v0l0,0s0,0,0,0h0l0,0,0,0h0l.05,0h.1l.05,0h0l0,0h0s0,0,0,0h0s0,0,0,0h0a.07.07,0,0,0,0-.05h0s0,0,0,0l0,0h0s0,0,0,0,0,0,0,0h0a.1.1,0,0,1-.05,0l0,0,0,0h0s0,0,0,0l0,0h0l0,0h0s0-.08,0-.12a.09.09,0,0,1,0-.05l0-.12c0-.08,0-.15,0-.23a1.48,1.48,0,0,0,0-.19.28.28,0,0,0,0-.09c0-.05,0-.09,0-.13a.86.86,0,0,1,0-.16.2.2,0,0,0,0-.07l.23.28a.63.63,0,0,0,.11.12l.11.13a.76.76,0,0,0,.11.14h0l0,0h0l0,0h0v0l0,0,0,0h0s0,0,0,0v0s0,0,0,0v0h0v0h0v0l0,0h0s0,0,0,0h0s0,0,0,0h.05v0s0,0,0,0h0a.46.46,0,0,0,.07.07l.09.11h0l.2.21.08.09h0v0h0l0,0,0,0v0s0,0,0,0h0s0,0,0,0,0,0,0,0h0v0h0l0,0h0s0,0,0,0h0s0,0,0,0h.05v0h0l.06.07h0s0,0,0,.05l.08.07c0,.06.09.12.14.17h0v0h0s0,0,0,0l0,0h0s0,0,0,0h0l0,0,0,0h0l0,0v0s0,0,0,0v0h0v0h0l0,0h0s0,0,0,0h0s0,0,0,0h.06s0,0,0,0h0l0,0s0,0,0,0,0,0,0,0h0v0h0l0,0c.06.06.13.1.18.16l.17.18h0v0h0a0,0,0,0,0,0,0h0l0,0h0l0,0h0v0l0,0,0,0h0l0,0v0s0,0,0,0v0h0v0h0v0l0,0h0a0,0,0,0,0,0,0h0s0,0,0,0h0v0a0,0,0,0,1,0,0s0,0,0,0h0l0,0s0,0,0,0,0,0,0,0h0v0h0l.06.06.08.09h0c0-.06,0-.08,0-.1l0-.05a.1.1,0,0,0-.05-.06h0s0,0,0,0,0,0,0,0h0v0h0s0,0,0,0h0s0,0,0,0h0s0,0,0,0h0v0h.05s0,0,0,0h0l0,0,0,0,0,0h0s0,0,0,0h0s0,0,0,0h-.06s0,0,0,0h0s0,0,0,0h0v0h0l-.06-.1-.06-.06c-.06-.07-.12-.13-.17-.2l-.07-.08h0s0,0,0,0h0s0,0,0,0,0,0,0,0h.06v0h.05s0,0,0,0h0l0,0,0,0,0,0h0s0,0,0,0h-.08l0,0s0,0,0,0h0l-.07-.08-.15-.16a.79.79,0,0,1-.14-.17h0s0,0,0,0,0,0,0,0h0v0h0s0,0,0,0h0s0,0,0,0,0,0,0,0h0l0,0h.06l0,0h0l0,0s0,0,0,0l0,0s0,0,0,0,0,0,0,0h-.12l0,0s0,0,0,0,0,0,0,0h0v0h0L15.69,41c0-.06-.11-.1-.15-.15a1.14,1.14,0,0,0-.15-.16l0,0,0,0s0,0,0,0h0v0h0s0,0,0,0h0s0,0,0,0,0,0,0,0h.08s0,0,0,0h0l0,0,0,0,0,0h0s0,0,0,0h0a0,0,0,0,1,0,0h-.07a0,0,0,0,0,0,0h0l0,0s0,0,0,0,0,0,0,0v0h0l-.1-.12L15,40.22a.23.23,0,0,0-.07-.07l-.08-.09a1.13,1.13,0,0,1-.1-.13l0,0,.36,0h.54v0h0l0,0s0,0,0,0h0l0,0h0s0,0,0,0h0s0,0,0,0,0,0,0,0h0l0,0h0s0,0,0,0h0a.05.05,0,0,0,0,0,.1.1,0,0,0,0,0h0s0,0,0,0h0v0h.05l.05,0,0,0s0,0,0,0,0,0,0,0,0,0,0,0,0,0,0,0,0,0,0,0h0l0,0L16,40s0,0-.05,0,0,0,0,0,0,0-.05,0,0,0,0,0h.37l.33,0h.15s0,0,0,0v0h0s0,0,0,0v0l0,0s0,0,0,0h0l0,0,0,0s0,0,0,0h0s0,0,0,0a0,0,0,0,0,0,0s0,0,0,0h0l0,0h0v0h0a.05.05,0,0,0,0,0l0,0h0s0,0,0,0h0v0h.06l0,0,0,0s0,0,0,0,0,0,0,0,0,0,0,0v0s0,0,0,0v0l0,0-.06-.08a.1.1,0,0,0,0,0s0,0,0,0,0,0-.05-.06l0,0H17s0,0,0,0,0,0,.05,0h.12l.38,0,.16,0,0,0s0,0,0,0h0l0,0h0s0,0,0,0l0,0h0l0,0,0,0s0,0,0,0h0a0,0,0,0,0,0,0s0,0,0,0h0l0,0h0v0h0l0,0,0,0h0s0,0,0,0h0v0h.06l0,0,0,0s0,0,0,0,0,0,0,0,0,0,0,0,0,0,0,0l0,0v0l0,0-.06-.08-.05,0s0,0,0,0,0,0-.05-.06l0,0s0,0,0,0,0,0,0,0l0,0h.08a3,3,0,0,0,.31,0h.06l.23,0h.14l0,0C18.79,39.45,18.76,39.44,18.72,39.45Zm-.59-.22h0Zm0,0h0Zm0,0h0Zm0,0h0Zm0,0h0Zm-1-.09h0Zm0,0h0Zm0,0h0Zm0,0Zm0,0h0Zm-1.06,0h0Zm0,0h0Zm0,0h0Zm0,0Zm0,.05h0Zm.44-2.08Zm0,0Zm0,0h0Zm0,0h0Zm0,0Zm0,0h0ZM15.8,38Zm0,0Zm0,0Zm0,0h0Zm0,0h0Zm0,0Zm0,0h0Zm-.48.49Zm0,0Zm0,0h0Zm0,0h0Zm-.48.6Zm0,0Zm0,0h0Zm0,0h0Zm0,0ZM13.91,35.9h0Zm0,0h0Zm0,0Zm0,0h0Zm0,0h0Zm0,0Zm.06,0Zm0,0Zm-.23.95h0Zm0,0Zm0,0h0Zm0,0h0Zm.05,0Zm0,0Zm.06,0Zm0,0Zm-.18,1h0Zm0,0h0Zm0,0h0Zm0,0h0Zm.05,0h0Zm0,0h0Zm-2-.86h0Zm0,0h0Zm0,0Zm0,0Zm0,0Zm0,0h0Zm0,0Zm0,0h0Zm.37.65h0Zm0,0Zm0,0h0Zm0,0h0Zm0,0Zm0,0h0Zm0,0Zm0,0Zm.39.61Zm0,0h0Zm0,0Zm0,0Zm0,0Zm0,0Zm.46.63h0Zm0,0h0Zm0,0h0Zm0,0Zm0,0Zm0,0h0Zm-3,1.52h0Zm0,0h0Zm0,0h0Zm0,0Zm0,0h0Zm0,0h0Zm0-.06h0Zm0,0h0Zm1,.16h0Zm0,0Zm0,0h0Zm0,0h0Zm0-.05h0Zm0,0Zm0-.06h0Zm1,.11Zm0,0h0Zm0,0h0Zm0,0Zm0,0Zm0,0h0Zm-.2,2.73h0Zm0,0Zm0,0Zm0,0Zm-.08,0Zm0,0h0Zm0,0Zm0,0Zm.4-.59h0Zm0,0h0Zm-.08,0h0Zm0,0Zm0,0Zm0,0Zm0,0h0Zm.34-1.06h0Zm0,0h0Zm-.08.14h0l0,0h0Zm-.11.21h0Zm.17,0Zm0,0Zm0,0Zm0,0h0Zm.38-1.1h0Zm-.24.44Zm.2,0Zm0,0Zm0,0h0Zm0,0h0Zm.07-.57Zm1.24,3.43h0Zm0,0Zm0,0Zm0,0h0Zm0,0Zm-.05,0h0Zm-.09,0h0Zm0,0h0Zm.07-1h0Zm0,0h0Zm0,0h0Zm0,0h0Zm0,0Zm0-1h0Zm0,0Zm0,0h0Zm0,0h0Zm0,0Zm0,0h0Zm.33-.65h0Zm0,0Zm1,1.24h0Zm0,0Zm.51.53h0Zm0,0Zm0,0h0Zm0,0Zm0-.08Zm0,.06Zm0,0h0Zm0,0h0Zm-.54-.45h0Zm0,0Zm0,0Zm0,0h0Zm0,0h0ZM16,41.5Zm-.28-.2Zm0,0h0Zm0,0h0Zm0,0h0Zm0,0h0Zm0,0Zm0,0h0Zm0,0h0Zm-.2-.21h0Zm-.36-.32Zm.21.16h0l0,0ZM15,40.49h0Zm-.76-2.22Zm.19,2.37Zm0,.15Zm0,.27h0v0h0Zm.06.52h0Zm0,.05Zm0,.2v0h0v0Zm0,.2h0Zm.23.43h0Zm-.17-1.15Zm1.08-1.75Zm0,.06h0Zm-.27.2h0Zm.48-.06Zm.28,0h0Zm.67-.3h0Zm0,.06h0Zm-.31.21h0Zm.05,0h0Zm.47,0Zm.91-.26Z"/><path class="cls-2" d="M65.62,50.44h-.09a.44.44,0,0,0-.2,0h0l-.17,0h-.19v0l0,0h0s0,0,0-.06h0v0l0,0h0l0,0h0v0s0,0,0,0,0,0,0,0v0l0,0s0,0,0,0,0,0,0-.06,0,0,0,0h0l0,0a0,0,0,0,0,0,0h0l0,0a0,0,0,0,1,0,0s0,0,0,0h0s0,0,0,0,0,0,0,0l0,0a0,0,0,0,0,0,0l0,0s0,0,0,0h0a.1.1,0,0,1,0,0s0,0,0,0a.08.08,0,0,0,0,0h0s0,0,0,0,0,0,0,0,0,0,0,0,0,0,0,0h-.43l-.25,0-.2,0h0s0,0,0,0h0v0l0,0h0l0,0,0,0s0,0,0,0h0l0,0h0l0,0,0,0,0,0v0s0,0,0-.06a0,0,0,0,0,0,0s0,0,0-.06,0,0,0,0h0l0,0s0,0,0,0h0L64,50s0,0,0,0,0,0,0,0h0s0,0,0,0,0,0,0,0l0,0a0,0,0,0,1,0,0,.08.08,0,0,1,0,0s0,0,0,0h0l0,.05s0,0,0,0,0,0,0,0h0s0,0,0,0,0,0,0,0l0,0h0a.05.05,0,0,1,0,0h0l-.27,0c-.09,0-.17,0-.26,0l-.25,0h-.1a0,0,0,0,0,0,0,0,0,0,0,0,0,0h0l0-.06h0s0,0,0,0h0s0,0,0,0h0l0,0h0v0s0,0,0,0,0,0,0,0v0a.07.07,0,0,0,0-.05s0,0,0,0,0,0,0-.06,0,0,0,0h0l0,0v0s0,0,0,0h0a.05.05,0,0,0,0,0h0s0,0,0,0l0,0,0,0s0,0,0,0l0,0s0,0,0,0h0v0l0,0s0,0,0,0,0,0,0,0h0s0,0,0,0l0,0s0,0,0,0h0l0,0v0h-.12l-.23,0H62l-.15,0h-.19l-.11,0h-.1a.5.5,0,0,1,.08-.12l.09-.13a.1.1,0,0,1,0-.05v0l0,0c0-.08.11-.14.16-.22h0s0,0,0,0l0,0h0s0,0,0,0h0l0,0,0,0H62s0,0,0,0h.08s0,0,0,0h0s0,0,0,0h0v0h0s0,0,0,0v0h0s0,0,0,0h0l0,0s0,0,0,0a0,0,0,0,0,0,0h0l0,0,0-.05.11-.19.06-.07a.94.94,0,0,0,.09-.12h0l0,0h0s0,0,0,0v0h0l0,0,0,0h0l0,0h.08s0,0,0,0h0s0,0,0,0h0v0h0v0a0,0,0,0,0,0,0h0s0,0,0,0h0s0,0,0,0h0l0,0a.54.54,0,0,0,.09-.12l.07-.08,0-.05.07-.08h0s0,0,0,0h0v0l0,0h0v0l0,0h0l0,0,0,0h0l0,0h.14L63,49h0v0h0s0,0,0,0,0,0,0,0h0s0,0,0,0h-.07a.06.06,0,0,1,0,0,.93.93,0,0,0,.13-.15l.17-.19h.05s0,0,0,0v0s0,0,0,0h0v0s0,0,0,0v0h0s0,0,0,0l0,0h0l0,0h0l0,0h.08l0,0h0s0,0,0,0h0v0h0l0,0v0h0s0,0,0,0h-.07l.09-.08h0l.07-.15a.14.14,0,0,0,0-.09v0s0,0,0,0-.07.12-.11.17l-.11.08h0s0,0,0,0,0,0,0,0h0s0,0,0,0h0s0,0,0,0v0h0v0s0,0,0,0v0h0s0,0,0,0h0v0h0l0,0,0,0,0,0s0,0,0,0,0,0,0,0v0s0,0,0,0,0,0,0,0h0v0s0,0,0,0,0,0,0,0h0s0,0,0,0v0s0,0,0,0,0,0,0,0v0h0l-.05,0,0,0-.14.17-.11.13h0s0,0,0,0h0s0,0,0,0h0v0h0v0h0s0,0,0,0h0v0h0l0,0,0,0,0,0h0s0,0,0,0v0s0,0,0,0h0l0,0s0,0,0,0h0l0,0h0s0,0,0,0,0,0,0,0l0,.07a1.43,1.43,0,0,0-.19.24l-.07.09h0s0,0,0,0v0h0s0,0,0,0,0,0,0,0h0v0l0,0a0,0,0,0,0,0,0v0h0s0,0,0,0h0v0h0l0,0,0,0,0,0v0s0,0,0,0a0,0,0,0,1,0,0h0v0l0,0s0,0,0,0h0s0,0,0,0,0,0,0,0h0a0,0,0,0,1,0,0v0h0a1.09,1.09,0,0,0-.13.17l-.09.13s0,0-.06.07l-.07.11h-.06s0,0,0,0,0,0,0,0h0v0l0,0v0h0v0h0l0,0,0,0,0,0s0,0,0,0,0,0,0,0a0,0,0,0,1,0,0h0v0l0,0s0,0,0,0,0,0,0,0,0,0,0,0h0l-.07.1,0,0a.6.6,0,0,1-.09.13l-.11.18,0,0v-.05a.09.09,0,0,1,0-.07v0a.06.06,0,0,0,0,0,2.06,2.06,0,0,0,0-.35c0-.06,0-.12,0-.18v-.07l0-.22,0,0s0,0,0,0h0a0,0,0,0,1,0,0h0l0,0s0,0,0,0h0l0,0h0s0,0,0,0h0s0,0,0,0,0,0,0,0,0,0,0,0h0l0,0h0l0,0h0v0l0,0,0,0s0,0,0,0,0,0,0,0h.05V49a.09.09,0,0,0,0,0l0,0h0s0,0,0,0h-.06l0,0h0l0,0-.07.06a.08.08,0,0,0,0,0s0,0,0,0,0,0-.05,0,0,0,0,0h0l0,0a.4.4,0,0,1,0-.11v0a.32.32,0,0,1,0-.14.45.45,0,0,0,0-.16s0-.08,0-.11,0,0,0-.07v-.28a.05.05,0,0,1,0,0v0h0l0,0h0l0,0s0,0,0,0h0s0,0,0,0,0,0,0,0,0,0,0,0h0s0,0,0,0l0,0s0,0,0,0h.08v0a.05.05,0,0,0,0,0,.1.1,0,0,1,.05,0h0s0,0,0,0h0v-.06l0,0,0,0s0,0,0,0,0,0,0,0h-.06s0,0,0,0h0l0,0-.08.06a.1.1,0,0,0-.05,0s0,0,0,0-.05,0-.06.05l0,0h0v-.34s0-.07,0-.1v0l0-.14h0l0-.17a.05.05,0,0,0,0,0h0a0,0,0,0,1,0,0h0v0l0,0h0s0,0,0,0l0,0h0a.08.08,0,0,0,0,0l0,0s0,0,0,0h0a0,0,0,0,1,0,0l0,0s0,0,0,0h0l0,0h0v0l0,0a.1.1,0,0,0,.05,0h0s0,0,0,0h0v-.06l0,0,0,0h0s0,0,0,0h-.05s0,0,0,0l0,0h0l0,0-.08.06s0,0,0,0l0,0s-.05,0-.05.05l0,0s0,0,0,0,0,0,0,0l0,0h0s0,0,0,0a0,0,0,0,1,0,0h0a0,0,0,0,1,0,0h0l0,0s0,0,0,0l0,0h0l0,0h0l-.06,0a0,0,0,0,0,0,0h0l0,0v0a0,0,0,0,1,0,0h0s0,0,0,0h0l0,0s0,0,0,0h0s0,0-.06,0h-.09l0,0h0l0,0h0a.16.16,0,0,0,0,.05h0s0,0,0,0h0a.06.06,0,0,1,0,0h0l0,0,0,0h0l0,0s0,0,0,0h0a.1.1,0,0,1,0,0l0,0,0,0h0s0,0,0,0l0,0a0,0,0,0,0,0,0l0,0s0,0,0,0l0,0h0l0,0h0v0a.85.85,0,0,1,0,.16l0,.14a.33.33,0,0,0,0,.1v.15s0,0,0,.06v.22h0s0,0,0,0h0s0,0,0,0l0,0h0l0,0,0,0h0v0s0,0,0,0a0,0,0,0,0,0,0l0,0h0v0h0s0,0,0,0l0,0h0s0,0-.06,0h-.09s0,0-.06,0h0l0,0h0l0,0h0s0,0,0,0h0a.09.09,0,0,1,0,0h0l0,0,0,0h0l0,0s0,0,0,0h0a.1.1,0,0,1,.05,0s0,0,0,0l0,0h0l0,0,0,0h0a0,0,0,0,0,0,0l0,0,0,0v.23c0,.11,0,.21,0,.32a1.08,1.08,0,0,1,0,.18v.12h0l0,0h0l-.06,0v0h0v0s0,0,0,0v0l0,0s0,0,0,0v0h0l0,0s0,0,0,0h0a.1.1,0,0,0,0,0h0s0,0-.06,0l0,0h0l0,0h0s0,.05,0,.05h0s0,0,0,0h0a.07.07,0,0,0,0,0h0l0,0,0,0h0s0,0,0,0,0,0,0,0h0l.05,0s0,0,0,0l0,0a0,0,0,0,0,0,0s0,0,0,0,0,0,0,0,0,0,0,0h0l0,0v.14a.41.41,0,0,1,0,.11,1.6,1.6,0,0,1,0,.23v.2a0,0,0,0,0,0,0c0,.06,0,.11,0,.17a.49.49,0,0,0,0,.12s0,0,0,0h0l0,0a3,3,0,0,0-.22-.26.81.81,0,0,1-.12-.14l0,0h0v0h0s0,0,0,0h0s0,0,0,0,0,0,0,0h.08s0,0,0,0h0l0,0h0v0l0,0,0,0h0s0,0,0,0h-.12s0,0,0,0h-.06a0,0,0,0,1,0,0h0l0,0-.06-.08c0-.06-.11-.11-.15-.18h0l-.1-.1,0-.05h0s0,0,0,0h0s0,0,0,0h0s0,0,0,0h.06v0s0,0,0,0h.06l0,0,0,0v0h0s0,0,0,0l0,0h-.09s0,0,0,0h0s0,0,0,0h0s0,0,0,0h0l0,0s0,0-.05-.05L60,49.07l0,0a.76.76,0,0,1-.08-.11l0,0,0,0,0,0v0h0s0,0,0,0h0s0,0,0,0h0s0,0,0,0h0s0,0,0,0h0v0h0s0,0,0,0h0l0,0h0l0,0,0,0,0,0h0s0,0,0,0l0,0h-.09s0,0,0,0h-.06v0l-.17-.21,0,0a.16.16,0,0,0-.06-.08h0l0,0h0v0h0s0,0,0,0h0v0s0,0,0,0h.06v0h.08v0a.11.11,0,0,1,0,0l0,0h0s0,0,0,0l0,0h-.09s0,0,0,0h0s0,0,0,0h0s0,0,0,0l-.08-.06a.15.15,0,0,0-.09,0h0s0,0,0,0a.22.22,0,0,1,.09.07h0s0,0,0,0h0v0h0l0,0h0l0,0,0,0s0,0,0,0v0h0v0l0,0,0,0h0s0,0,0,0v0a0,0,0,0,1,0,0,0,0,0,0,0,0,0h0v0h0v0l0,0h0s0,0,0,0h0s0,0,0,0,0,0,0,0h.05a0,0,0,0,0,0,0s0,0,0,0h0s0,0,0,0v0h0s0,0,0,0h0s0,0,0,.05l.06.08a.58.58,0,0,1,.1.12l0,.05.09.1h0s0,0,0,0h0v0h0v0h0s0,0,0,0v0h0v0s0,0,0,0h0v0l0,0,0,0h0s0,0,0,0h0s0,0,0,0v0h0v0h0l0,0h0s0,0,0,0h.08a0,0,0,0,1,0,0s0,0,0,0h0v0s0,0,0,0h0v0h0c.07.09.14.19.22.28l.08.1h0s0,0,0,0h0s0,0,0,0l0,0h0v0s0,0,0,0h0l0,0,0,0h0l0,0v0s0,0,0,0a0,0,0,0,1,0,0h0v0h0v0s0,0,0,0h0s0,0,0,0h0l0,0h0s0,0,0,0h0v0s0,0,0,0h0s0,0,0,0h0l.11.13a1.78,1.78,0,0,0,.22.26l0,0h0s0,0,0,0h0l0,0h0l0,0h0l0,0,0,0v0a0,0,0,0,0,0,0v0a.06.06,0,0,1,0,0s0,0,0,0h0v0h0s0,0,0,0h0s0,0,0,0h0l0,0s0,0,0,0h0a0,0,0,0,0,0,0s0,0,0,0h0s0,0,0,0h0v0l.15.17.13.15s0,0,0,0a.63.63,0,0,1,.11.12l.15.16,0,0,0,0h-.38a2.69,2.69,0,0,0-.4,0h-.24v0s0,0,0,0h0v0s0,0,0,0l0,0h0l0,0v0s0,0,0,0h0s0,0,0,0,0,0,0,0h0l0,0h0l0,0v0h0l0,0,0,0h0s0,0,0,0h0v0h-.06l0,0,0,0s0,0,0,0,0,0,0,0v0s0,0,0,0l0,0h0l0,0,.05.08s0,0,0,0l0,0a.1.1,0,0,0,0,0l0,0s0,0,0,0l0,0h0l-.11,0h-.12a1.23,1.23,0,0,1-.27,0h0l-.16,0a.62.62,0,0,0-.19,0H59s0,0,0,0h0s0,0,0,0h0l0,0s0,0,0,0h0l-.05,0h0s0,0,0,0h0l0,0s0,0,0,0,0,0,0,0h0l0,0h0l0,0v0h0l0,0,0,0h0s0,0,0,0h0v0h-.06l0,0,0,0s0,0,0,0,0,0,0,0v0s0,0,0,0,0,0,0,0h0l0,0,0,.07,0,0s0,0,0,0l0,.05,0,0s0,0,0,0l0,0h-.31s0,0-.05,0a1,1,0,0,0-.25,0l-.32,0h0l0,0v0s0,0,0,0l0,0h0l0,0s0,0,0,0,0,0,0,0h0l0,0a0,0,0,0,0,0,0s0,0,0,0a0,0,0,0,1,0,0l0,0h0l0,0v0h0l0,0,0,0h0s0,0,0,0h0v0h0l-.05,0,0,0s0,0,0,0,0,0,0,0v0s0,0,0,0l0,0v0l0,0a.22.22,0,0,0,0,.08s0,0,.05,0,0,0,0,0l.05.05,0,0s0,0,0,0h-.16l-.19.06a.24.24,0,0,0-.09.06,0,0,0,0,1,0,0s.05,0,.07,0a.41.41,0,0,1,.24,0h.17s0,0,0,0l0,0h0s0,0,0,0l0,0h0l0,0a0,0,0,0,1,0,0v0h0l0,0h0v0s0,0,0,0l0,0a0,0,0,0,1,0,0l0,0v0s0,0,0,.06,0,0,0,.06h0v0s0,0,0,0a0,0,0,0,0,0,0h0l0,0v0s0,0,0,0h0s0,0,0,0,0,0,0,0l0,0a0,0,0,0,0,0,0l0,0s0,0,0,0h0v0a.1.1,0,0,1,0-.05s0,0,0,0,0,0,0,0h0v0s0,0,0,0l0,0h0a0,0,0,0,1,0,0s0,0,0,0l0,0h.12l.27,0,.47,0h0s0,0,0,0l0,0h0s0,0,0,.06h0s0,0,0,0h0v0h0v0s0,0,0,0l0,0a0,0,0,0,1,0,0l0,0v0a.13.13,0,0,1,0,.06s0,0,0,0h0s0,0,0,0a0,0,0,0,0,0,0h0l0,0v0s0,0,0,0h.05s0,0,0,0l0,0,0,0a0,0,0,0,0,0,0l0,0s0,0,0,0h0v0l0-.05s0,0,0,0a.08.08,0,0,0,0,0h0v0s0,0,0,0l0,0h0s0,0,0,0h0l.18,0h.2a2.58,2.58,0,0,0,.4,0h.1a0,0,0,0,1,0,0v0h0a.14.14,0,0,1,0,.06s0,0,0,0h0l0,0h0s0,0,0,0h0l0,0,0,0s0,0,0,0v0s0,0,0,.06a0,0,0,0,0,0,0s0,0,0,.06,0,0,0,.05h0s0,0,0,0,0,0,0,0v0s.05,0,.05,0h0s0,0,0,0h.05s0,0,0,0a.08.08,0,0,1,0,0l0,0a0,0,0,0,1,0,0l0,0s0,0,0,0h0l0-.05s0,0,0,0,0,0,0,0h0s0,0,0,0,0,0,0,0l0,0h0s0,0,0,0h0l.26,0,.23,0h0a.68.68,0,0,1,.2,0l.22,0L61,51l-.08.13-.09.13-.1.15-.06.11,0,0,0,.06h-.06s0,0,0,0,0,0,0,0h0v0h0v0h0l0,0s0,0,0,0v0s0,0,0,0,0,0,0,0v0h0a0,0,0,0,1,0,0h0v0l0,0s0,0,0,0h0s0,0,0,0h0v0h0L60.4,52l-.06.11s0,0,0,0h0s0,0,0,0h0l0,0s0,0,0,0h0l0,0v0h0s0,0,0,0h0v-.05h0v0h0l0,0,0,0,0,0s0,0,0,0,0,0,0,0,0,0,0,0v0s0,0,0,0h0s0,0,0,0,0,0,0,0h0l0,0h0a0,0,0,0,0,0,0s0,0,0,0v0s0,0,0,0l-.05.09c0,.09-.11.18-.15.27l0,.08s0,0,0,0h0s0,0,0,0h0s0,0,0,0h0v0h0v0h0l0,0,0,0v0s0,0,0,0,0,0,0,0v0s0,0,0,0h0s0,0,0,0,0,0,0,0,0,0,0,0,0,0,0,0h0l-.05.12a1.63,1.63,0,0,0-.11.23v0a0,0,0,0,0,0,0l-.05.11h0s0,0,0,0,0,0,0,0h0s0,0,0,0h0s0,0,0,0h0v0a0,0,0,0,0,0,0v0h0v0h0l0,0,0,0,0,0s0,0,0,0,0,0,0,0v.05s0,0,0,0h0s0,0,0,0,0,0,0,0h0l0,0h0v0h0v0h0v0h0v0h.07s0,0,0,0l0,0h0l0,0s0,0,0,0h.06l0,0h.08s0,0,0,0h0s0,0,0,0h0v0s0,0,0,0l0,0v0h0s0,0,0,0h0s0,0,0,0h-.08a.34.34,0,0,0,.06-.12l0,0,.09-.1a.41.41,0,0,0,0-.08l.07-.11h.09v0h0s0,0,0,0h0l0,0s0,0,0,0h0a0,0,0,0,0,0,0h0l0,0h.08l0,0h0s0,0,0,0h0v0h0v0h0s0,0,0,0h0s0,0,0,0h-.08l.09-.13,0-.11a1.62,1.62,0,0,1,.1-.18v0h0l0,0h0s0,0,0,0v0h0l0,0,0,0h0l0,0h.13l0,0h0s0,0,0,0h0a.1.1,0,0,1,0,0h0l0,0v0h0a0,0,0,0,1,0,0s0,0,0,0h0v0l0-.06c0-.08.09-.16.14-.24s.06-.12.1-.18h0v0h0v0s0,0,0,0h0l0,0s0,0,0,0h0s0,0,0,0h0l0,0h.07v0s0,0,0,0h0s0,0,0,0h0s0,0,0,0h0s0,0,0,0,0,0,0,0h0s0,0,0,0h0s0,0,0,0h0s0,0,0-.05,0-.07,0-.1l.11-.19.1-.15a.35.35,0,0,0,0-.08l.06-.1a.18.18,0,0,1,0-.07c0,.1,0,.2,0,.3s0,.11,0,.16a1,1,0,0,1,0,.17c0,.06,0,.13,0,.19a.59.59,0,0,1,0,.13v0a.5.5,0,0,1,0,.12.13.13,0,0,1,0,.06h0l0,0s0,0,0,0h0l0,0v0s0,0,0,0h0s0,0,0,0l0,0s0,0,0,0h0l0,0h0l0,0h0v0l0,0a.1.1,0,0,0,0,0s0,0,0,0,0,0,0,0h0v.05a.09.09,0,0,0,0,0l0,0h0s0,0,0,0h.06l0,0h0l0,0,.07-.06s0,0,0,0,0,0,0,0,0,0,0,0,0,0,0,0h0l0,.16a.57.57,0,0,0,0,.13s0,0,0,0h0s0,0,0,0,0,0,0,0h0s0,0,0,0h0v0l0,.15s0,0,0,0,0,0,0,0,0,.07,0,.1v.11h0s0,0,0,0h0s0,0,0,0l0,0,0,0s0,0,0,0h0a.08.08,0,0,1,0,0l0,0s0,0,0,0h0s0,0,0,0l0,0s0,0,0,0h-.08v0a.05.05,0,0,0,0,0,.1.1,0,0,1,0,0h0s0,0,0,0h0v.06l0,0,0,0s0,0,0,0,0,0,0,0h.06s0,0,0,0h0l0,0,.08-.06a.1.1,0,0,0,0,0s0,0,0,0,0,0,.06-.05l0,0s0,0,0,0l0,0h0l0,.15c0,.08,0,.16.07.24a2.38,2.38,0,0,0,0,.26v0l0,.19h0l0,0h0a.07.07,0,0,1,0,0l0,0h0s0,0,0,0h0s0,0,0,0,0,0,0,0h0s0,0,0,0h0s0,0,0,0h0s0,0,0,0,0,0,0,0,0,0,0,0h0l0,0h0l0,0h0v0l0,0,0,0a0,0,0,0,0,0,0s0,0,0,0h0v.05a.09.09,0,0,0,0,0l0,0h0s0,0,0,0h.06s0,0,0,0h0s0,0,0,0l.08-.06s0,0,0-.05l0,0s0,0,0-.06l0,0h0s0,0,0,0l0,0h0s0,0,0,0h0v0h0l0,0,0,0h.06l0,0h0l0,0,0,0s0,0,0,0v0s0,0,0,0v0l0,0s0,0,0,0v0h0l0,0,0,0s0,0,0,0h0l0,0h0s0,0,.06,0l0,0h0l0,0h0s0-.05,0-.05h0s0,0,0,0h0v0h0l0,0,0,0h0l0,0s0,0,0,0h0a0,0,0,0,1,0,0,.1.1,0,0,1,0,0s0,0-.05,0l0,0h0s0,0,0,0,0,0,0,0l0,0h0v0a.17.17,0,0,1,0-.07.58.58,0,0,0,0-.18v0c0-.05,0-.1,0-.15s0-.05,0-.08l0-.27v-.1h0l0,0s0,0,0,0h0v0s0,0,0,0a0,0,0,0,0,0,0l0,0s0,0,0,0v0h0s0,0,0,0l0,0h0s0,0,.06,0h.09s0,0,.06,0h0l0,0h0l0,0h0s0,0,0,0h0s0,0,0,0h0l0,0,0,0h0l0,0s0,0,0,0h0a.1.1,0,0,1-.05,0h0s0,0,0,0h0l0,0,0,0h0v0a1.7,1.7,0,0,1,0-.22,1.64,1.64,0,0,1,0-.22v0a.19.19,0,0,1,0-.07c0-.1,0-.2,0-.29a.15.15,0,0,0,0-.07h0l0,0h0l.06,0,0,0h0l0,0h0a0,0,0,0,1,0,0l0,0s0,0,0,0v0h0l0,0s0,0,0,0h0l.05,0h0s0,0,.06,0l.05,0h0l0,0h0s0-.05,0-.05h0l0,0h0a.09.09,0,0,0,0,0h0s0,0,0,0,0,0,0,0h0l0,0s0,0,0,0h0l0,0s0,0,0,0l0,0a0,0,0,0,0,0,0s0,0,0,0,0,0,0,0l0,0h0l0,0h0a.5.5,0,0,1,0-.12.11.11,0,0,0,0,0l0-.12c0-.07,0-.15,0-.22s0-.13,0-.2a.28.28,0,0,1,0-.09.59.59,0,0,1,0-.13c0-.05,0-.11,0-.16V51l.22.27.11.12.11.13a1.71,1.71,0,0,0,.11.14h0l0,0h0l0,0h0v0l0,0,0,0h0s0,0,0,0v0s0,0,0,0v0h0v0s0,0,0,0h0s0,0,0,0h0l0,0h0s0,0,0,0h0s0,0,0,0,0,0,0,0h0l.07.07.09.11h0l.2.21.08.09h0s0,0,0,0h0l0,0,0,0v0s0,0,0,0h0s0,0,0,0v0h0v0h0l0,0h0s0,0,0,0h0s0,0,0,0h.06s0,0,0,0l.06.07s0,0,.06,0,0,0,0,0l.08.07.15.18h0v0h0v0h0l0,0h0l0,0h0v0l0,0,0,0h0l0,0v0s0,0,0,0v0h0v0h0v0s0,0,0,0h0a0,0,0,0,0,0,0h0s0,0,0,0h0v0h0s0,0,0,0h0s0,0,0,0,0,0,0,0,0,0,0,0h0v0h0s0,0,0,0a1.35,1.35,0,0,1,.19.16l.17.17h0v0h0v0h0s0,0,0,0l0,0h0l0,0h0v0l0,0,0,0h0l0,0v.06s0,0,0,0h0v0h0v0l0,0h0s0,0,0,0h.08a0,0,0,0,1,0,0s0,0,0,0h0s0,0,0,0,0,0,0,0h0s0,0,0,0h0l.06.06.09.09h0c0-.06,0-.08,0-.1l0,0,0-.06h0s0,0,0,0,0,0,0,0h0v0h0s0,0,0,0h0s0,0,0,0,0,0,0,0h.09s0,0,0,0h0l0,0,0,0,0,0h0s0,0,0,0h-.12s0,0,0,0h0l0,0s0,0,0,0,0,0,0,0,0,0,0,0h0l-.06-.1s0,0-.06-.06a1.63,1.63,0,0,1-.17-.2l-.07-.08h0s0,0,0,0h0s0,0,0,0h0s0,0,0,0h0v0s0,0,0,0h0s0,0,0,0h0l0,0,0,0,0,0h0s0,0,0,0h0s0,0,0,0h-.06s0,0,0,0h0l-.07-.07A2.09,2.09,0,0,1,63,52.4c-.05,0-.12-.09-.15-.17h0s0,0,0,0h0v0h0s0,0,0,0h0s0,0,0,0a0,0,0,0,0,0,0H63v0H63l0,0,0,0,0,0h0s0,0,0,0h0s0,0,0,0h0l0,0s0,0,0,0h0s0,0,0,0h0s0,0,0,0h0L62.58,52c0-.05-.1-.1-.15-.15a1.14,1.14,0,0,0-.15-.16l0,0h0l0,0h0v0h0s0,0,0,0h.1s0,0,0,0h0l0,0,0,0,0,0h0s0,0,0,0,0,0,0,0h-.08s0,0,0,0,0,0,0,0,0,0,0,0h0s0,0,0,0h0a1.27,1.27,0,0,1-.1-.12l-.13-.14-.06-.07-.09-.09a1.13,1.13,0,0,1-.1-.13l0,0H62l.19,0h.35v0h0l0,0s0,0,0,0,0,0,0,0l0,0h0s0,0,0,0h0s0,0,0,0,0,0,0,0h0v0h0v0h0l0,0s0,0,0,0h0s0,0,0,0h0v0H63l0,0,0,0s0,0,0,0,0,0,0,0,0,0,0,0a0,0,0,0,1,0,0s0,0,0,0h0l0,0L62.85,51a.1.1,0,0,0,0,0s0,0,0,0a.08.08,0,0,0-.05,0s0,0,0,0h0l.13,0h.19l.34,0h.14s0,0,0,0v0h0a0,0,0,0,1,0,0h0l0,0v0a0,0,0,0,0,0,0s0,0,0,0h0l0,0a0,0,0,0,0,0,0s0,0,0,0h0s0,0,0,0,0,0,0,0,0,0,0,0a0,0,0,0,0,0,0h0s0,0,0,0v0h0l0,0,0,.05h0s0,0,0,0h0v0h.06l0,0,0,0s0,0,0,0,0,0,0,0v0s0,0,0,0,0,0,0,0v0l0,0L64,50.85a.1.1,0,0,0,0-.05s0,0,0,0,0-.05,0-.06h0s0,0,.05,0,0,0,0,0l.12,0,.38,0,.16,0,0,0a0,0,0,0,1,0,0h0s0,0,0,0h0l0,0s0,0,0,0,0,0,0,0l.05,0s0,0,0,0,0,0,0,0h0a0,0,0,0,0,0,0s0,0,0,0a0,0,0,0,0,0,0l0,0h0a0,0,0,0,0,0,0v0h0l0,0,0,.05h0s0,0,0,0h0v0h.06l.05,0,0,0s0,0,0,0,0,0,0,0,0,0,0-.05,0,0,0,0,0,0,0,0v0l0,0-.06-.08s0,0,0,0l0,0s0-.05,0-.05l0,0s0,0,0,0a.05.05,0,0,1,0,0s0,0,0,0H65l.3,0h.06l.23,0h.14l0,0S65.65,50.43,65.62,50.44ZM65,50.23Zm0,0h0Zm0,0h0Zm0,0Zm0,0h0Zm-1-.09h0Zm0,0h0Zm0,0Zm0,0Zm0,0Zm-1.05,0Zm0,0h0Zm0,0h0Zm0,0Zm0,0Zm.44-2.08Zm0,0Zm0,0Zm0,0h0Zm0,0Zm0,0Zm-.52.5h0Zm0,0Zm0,0Zm0,0h0Zm0,0h0Zm0,0Zm0,0h0Zm-.49.49h0Zm0,0Zm0,0Zm0,0h0Zm-.48.6Zm0,0Zm0,0h0Zm0,0h0Zm0,0h0ZM60.8,46.89h0Zm0,0h0Zm0,0Zm0,0Zm0,0h0Zm0,0h0ZM61,47Zm0,0Zm-.22,1h0Zm0,0Zm0,0h0Zm0,0h0Zm0,0Zm0,0h0Zm.05,0h0Zm0,0Zm-.18,1h0Zm0,0Zm0,0h0Zm0,0h0Zm0,0Zm0,0h0Zm-2-.86Zm0,0h0Zm0,0h0Zm0,0Zm0,0h0Zm0,0Zm0,0h0Zm0,0h0Zm.37.65h0Zm0,0h0Zm0,0h0Zm0,0h0Zm0,0Zm0,0h0Zm0,0Zm0,0h0Zm.39.61Zm0,0h0Zm0,0Zm0,0Zm0,0Zm0,0Zm.46.63h0Zm0,0Zm0,0h0Zm0,0Zm0,0Zm0,0Zm-3,1.52h0Zm0,0Zm0,0Zm0,0h0Zm0,0h0Zm0,0h0Zm0-.06h0Zm0,0h0Zm1,.15Zm0,0Zm0,0h0Zm0,0h0Zm0,0Zm0,0h0Zm0-.06Zm1,.12h0Zm0,0h0Zm0,0h0Zm0,0Zm0,0Zm0,0h0Zm-.19,2.73h0Zm0,0Zm0,0Zm0,0h0Zm-.08,0Zm0,0h0Zm0,0Zm0,0h0Zm.41-.6h0Zm0,0Zm-.08,0h0Zm0,0h0Zm0,0h0Zm0,0h0Zm0,0h0Zm.34-1.06h0Zm0,0h0Zm-.07.14h0l0,0h0Zm-.11.21h0Zm.16,0h0Zm0,0Zm0,0Zm0,0h0Zm.38-1.1h0Zm-.23.45h0Zm.2,0h0Zm0,0Zm0,0h0Zm0,0Zm.07-.57Zm1.25,3.43Zm0,0Zm0,0h0Zm0,0h0Zm-.05,0Zm0,0Zm-.1,0h0Zm0,0Zm.07-1h0Zm0,0Zm0,0h0Zm0,0h0Zm0,0Zm0-1h0Zm0,0h0Zm0,0h0Zm0,0h0Zm0,0h0Zm0,0h0Zm.33-.65h0Zm0,0Zm1,1.24h0Zm0,0Zm.51.53h0Zm0,0h0Zm0,0Zm0,0Zm0-.07h0Zm0,.05Zm0,0h0Zm0,0ZM63,52.85Zm0,0Zm0,0Zm0,0h0Zm0,0h0Zm-.21-.3Zm-.28-.2Zm0,0h0Zm0,0h0S62.6,52.27,62.59,52.26Zm0,0h0Zm0,0h0Zm0,0Zm0-.05h0Zm0,0h0Zm-.2-.21h0ZM62,51.64h0Zm.2.15h0v0Zm-.3-.31Zm-.77-2.21h0Zm.19,2.36Zm0,.15h0Zm0,.27h0v0h0Zm.07.52Zm0,0h0Zm0,.2v0h0v0Zm0,.2h0Zm.24.44ZM61.6,52.3h0Zm1.08-1.75Zm0,.06Zm-.28.2Zm.49-.06h0Zm.27,0h0Zm.67-.3h0Zm0,.06h0Zm-.31.22h0Zm.05,0Zm.47,0Zm.91-.26Z"/><path class="cls-3" d="M32.89,13.35S27.52,49.69,26.9,55c0,0-3.94,1-5.37-1V54c0-2,4.69-30.83,5.24-35.25-2.25,2-4.83,3.88-5,3.74a1.18,1.18,0,0,1-.48-1.22s.82-.89,6.94-9.06a1.74,1.74,0,0,0,.34-.13,5.15,5.15,0,0,1,1-.07c1,0,2.72.41,3.19,1.23Z"/><path class="cls-3" d="M45.48,32.82C51,34,56.85,37.1,56.85,43.77,56.85,52,47.53,56,40,56c-4.15,0-10-2-10-8.57,0-3.81,2.79-8,6.8-8a.6.6,0,0,1,0,.75c-2.92,0-6,3.13-6,7.22,0,5.37,5.1,7.76,9.18,7.76,8,0,10.62-5.93,10.62-11.44S48.28,34.25,42,33.09v-.82c8.09,0,14-4.69,14-11.77,0-3.88-2-7.69-7.07-7.69a11.82,11.82,0,0,0-9.8,5.37,8.74,8.74,0,0,0-1.16,5.45c-.2.34-.48.27-.75.07a9.71,9.71,0,0,1,1.23-5.79A12.38,12.38,0,0,1,48.89,12c5,0,12.59,2.25,12.59,7.62C61.48,27.85,52.83,31.52,45.48,32.82Z"/><path class="cls-4" d="M57.72,62.35s-.06-.05-.12-.08h-.09s0-.08,0-.12h0l0,.1,0,0c.11,0,.13-.06.12-.09a.14.14,0,0,1,0-.06.16.16,0,0,0,0-.16v0a.44.44,0,0,0,0-.16s0,0-.06-.07l-.14-.22a1.41,1.41,0,0,0-.17-.18l-.11,0-.21-.08c-.07,0-.15,0-.21-.06h0l-.07,0a2.83,2.83,0,0,0-.29,0c-.08,0-.13.07-.2.09a.67.67,0,0,0-.18.11l0,0s0,.08-.07.1-.08.11-.13.16a.34.34,0,0,0-.09.15s0,0,0,.08a.5.5,0,0,1,0,.12c0,.05,0,.09,0,.14a.11.11,0,0,0,0,.08s0,0,0,0a.08.08,0,0,0,0,.07.36.36,0,0,1,0,.18,1,1,0,0,0,0,.14s0,0,0,.06,0,0,0,0l0,0c0,.09.07.21.17.27s.08.08.13.12l0,0,.2.07.08,0c.07,0,.15,0,.22.06h0a.16.16,0,0,1,.13,0,.2.2,0,0,0,.15,0s.07,0,.11,0h.06l.11,0h0l.12,0s0,0,.06,0,0-.06,0-.07a.5.5,0,0,0,.17-.11,1.29,1.29,0,0,0,.19-.21s0,0,0,0,.07-.05,0-.1,0,0,0,0l.1-.11h0A1.07,1.07,0,0,0,57.72,62.35Zm-.23.12h0a.32.32,0,0,0,0-.14C57.55,62.38,57.51,62.43,57.49,62.47Z"/><path class="cls-4" d="M54.62,6.09S54.56,6,54.5,6h-.09a.49.49,0,0,0,0-.12h0l0,.09,0,0c.1,0,.12-.06.11-.09a.14.14,0,0,1,0-.07.17.17,0,0,0,0-.15,0,0,0,0,1,0,0,.44.44,0,0,0,0-.16s0,0-.06-.07a1,1,0,0,0-.14-.22A.93.93,0,0,0,54.17,5,.67.67,0,0,0,54.05,5l-.2-.07c-.07,0-.15,0-.22-.06h-.09a2.85,2.85,0,0,0-.29,0c-.08,0-.13.07-.2.08a.5.5,0,0,0-.17.11l-.05,0s0,.08-.06.1-.08.12-.14.16-.06.1-.09.16a.59.59,0,0,0,0,.08.43.43,0,0,1,0,.11s0,.09,0,.14a.27.27,0,0,0,0,.09.06.06,0,0,1,0,0s0,0,0,.07a.57.57,0,0,1,0,.18.23.23,0,0,0,0,.14.08.08,0,0,1,0,.07h0l0,0c0,.09.07.21.17.26s.08.09.13.13,0,0,.05,0a1,1,0,0,0,.2.08.18.18,0,0,1,.09,0c.06,0,.14,0,.21.06h0a.23.23,0,0,1,.14,0,.17.17,0,0,0,.14,0s.08,0,.11,0h.07L54,7h0l.12,0h0s0-.06,0-.06a.41.41,0,0,0,.17-.12,1.19,1.19,0,0,0,.19-.2s0,0,0-.06.06,0,0-.09,0,0,0,0l.1-.12s0,0,0,0A.56.56,0,0,0,54.62,6.09Zm-.23.12h0s0-.1,0-.14S54.42,6.17,54.39,6.21Z"/><path class="cls-4" d="M10.5,26.82a.22.22,0,0,0-.13-.07l-.07,0h0a.49.49,0,0,0,0-.12h0l0,.1,0,0c.1,0,.12-.06.11-.08a.25.25,0,0,1,0-.07.14.14,0,0,0,0-.16,0,0,0,0,1,0,0,.43.43,0,0,0,0-.16s0,0-.05-.07-.09-.15-.15-.22a1.29,1.29,0,0,0-.16-.17.6.6,0,0,0-.11-.06l-.21-.08c-.07,0-.15,0-.22-.06h0l-.07,0c-.09,0-.19,0-.29,0s-.13.07-.2.09a.62.62,0,0,0-.17.11l-.05,0s0,.08-.06.1-.08.12-.14.16a.75.75,0,0,0-.09.15s0,.05,0,.08,0,.08,0,.12,0,.09-.06.14a.21.21,0,0,0,0,.08v0s0,0,0,.07a.36.36,0,0,1,0,.18.25.25,0,0,0,0,.14.08.08,0,0,1,0,.07,0,0,0,0,1,0,0l0,0c0,.09.07.21.18.27a.68.68,0,0,1,.12.12l.05,0,.21.07.08,0c.07,0,.14,0,.21.06h0a.18.18,0,0,1,.14,0,.17.17,0,0,0,.14,0s.08,0,.11,0h.07l.1,0h0l.12-.05s0,0,0,0,0-.06,0-.07a.67.67,0,0,0,.18-.11,1.24,1.24,0,0,0,.18-.21s0,0,0-.05.06-.05,0-.1,0,0,0,0a1.14,1.14,0,0,0,.11-.11h0C10.55,26.94,10.52,26.88,10.5,26.82Zm-.24.12h0s0-.09,0-.14S10.29,26.9,10.26,26.94Z"/><path class="cls-2" d="M17.75,7.49a.22.22,0,0,0-.12-.07h-.09s0-.09,0-.13h0l0,.1,0,0c.11,0,.13-.07.11-.09s0-.05,0-.07a.17.17,0,0,0-.05-.16s0,0,0,0a.43.43,0,0,0,0-.16s0,0,0-.06a1.76,1.76,0,0,0-.14-.23,1.37,1.37,0,0,0-.17-.17.39.39,0,0,0-.11-.06L17,6.3c-.07,0-.15,0-.21-.06h0l-.07,0-.3,0c-.07,0-.12.07-.19.09a.54.54,0,0,0-.18.11l0,0s0,.08-.07.1-.08.12-.13.16a.34.34,0,0,0-.09.15s0,0,0,.08,0,.08,0,.12,0,.09-.06.14v.13a.14.14,0,0,0,0,.07.36.36,0,0,1,0,.18.37.37,0,0,0,0,.14s0,0,0,.07h0l0,0c.06.09.08.21.18.27a1.42,1.42,0,0,1,.13.12s0,0,0,0l.21.07.08,0c.07,0,.15,0,.21.06h0a.2.2,0,0,1,.13,0,.2.2,0,0,0,.15,0s.07,0,.11,0H17l.11,0h0l.12-.05s0,0,.06,0,0-.06,0-.07a.42.42,0,0,0,.18-.11A1.29,1.29,0,0,0,17.65,8s0,0,0,0,.07,0,0-.1,0,0,0,0l.11-.11h0A1.07,1.07,0,0,0,17.75,7.49Zm-.24.12h0a.59.59,0,0,0,0-.14S17.54,7.57,17.51,7.61Z"/><path class="cls-2" d="M62.54,34.74a.23.23,0,0,0-.12-.08h-.09s0-.08,0-.12h0l0,.09s0,0,0,0,.13-.06.11-.09a.08.08,0,0,1,0-.07.15.15,0,0,0,0-.15s0,0,0,0a.88.88,0,0,0,0-.16s-.05,0-.06-.07a1.64,1.64,0,0,0-.14-.22,1.45,1.45,0,0,0-.17-.18.22.22,0,0,0-.11,0l-.21-.08c-.07,0-.15,0-.21-.06a0,0,0,0,0,0,0h-.07l-.3,0c-.07,0-.12.07-.19.08a.44.44,0,0,0-.18.12s0,0,0,0,0,.07-.07.1-.08.11-.13.15a.37.37,0,0,0-.09.16s0,0,0,.08,0,.07,0,.11,0,.09-.06.14v.13a.19.19,0,0,0,0,.07.38.38,0,0,1,0,.18.33.33,0,0,0,0,.14s0,0,0,.07h0l0,0c.06.09.08.21.18.26s.08.09.13.13l0,0,.21.07a.2.2,0,0,1,.08,0c.07,0,.15,0,.21.06h0a.15.15,0,0,1,.13,0,.16.16,0,0,0,.15,0s.07,0,.11,0h.06l.11,0h0l.12,0,.06,0s0-.07,0-.07a.44.44,0,0,0,.18-.12,1.8,1.8,0,0,0,.19-.2s0,0,0-.06.07,0,0-.09v0l.11-.11v0A1,1,0,0,0,62.54,34.74Zm-.24.12h0a.68.68,0,0,0,0-.14C62.37,34.77,62.33,34.82,62.3,34.86Z"/><path class="cls-2" d="M16.5,61.2a.22.22,0,0,0-.13-.08h-.08a.5.5,0,0,0,0-.12h0l0,.09s0,0,0,0,.13-.06.11-.09a.08.08,0,0,1,0-.07.15.15,0,0,0-.05-.15s0,0,0,0a.43.43,0,0,0,0-.16s0,0,0-.07a1.07,1.07,0,0,0-.15-.22.9.9,0,0,0-.16-.18s-.08,0-.11,0L15.72,60c-.07,0-.15,0-.21-.06a0,0,0,0,0,0,0h-.07l-.3,0c-.07,0-.13.07-.19.08a.44.44,0,0,0-.18.12s0,0,0,0,0,.07-.07.1-.08.11-.13.16-.07.1-.1.15,0,0,0,.08,0,.07,0,.11,0,.09-.06.15v.12s0,0,0,.07a.38.38,0,0,1,0,.18.33.33,0,0,0,0,.14s0,0,0,.07,0,0,0,0l0,0c.06.09.08.21.18.26s.08.09.12.13l.05,0,.21.07.08,0c.07,0,.15,0,.21.06h0a.15.15,0,0,1,.13,0,.14.14,0,0,0,.14,0s.08,0,.12,0h.06l.11,0h0l.12-.05.06,0S16,62,16,62a.44.44,0,0,0,.18-.12.86.86,0,0,0,.18-.2s0,0,0-.06.06,0,0-.09v0l.11-.11v0A1,1,0,0,0,16.5,61.2Zm-.24.12h0a.68.68,0,0,0,0-.14S16.29,61.28,16.26,61.32Z"/></g></g></svg>