<svg xmlns="http://www.w3.org/2000/svg" viewBox="0 0 77.41 104.51"><defs><style>.cls-1{fill:#f9ba2b;}.cls-2{fill:#172037;}.cls-3{fill:#fff;}.cls-4{fill:#f24830;}.cls-5{fill:#b55508;}.cls-6{fill:#31b595;}.cls-7{fill:#29997e;}.cls-8{fill:#137a83;}.cls-9{fill:#fa483c;}.cls-10{fill:#292d37;}</style></defs><g id="Слой_2" data-name="Слой 2"><g id="OBJECTS"><rect class="cls-1" x="-13.55" y="13.55" width="104.51" height="77.41" transform="translate(90.96 13.55) rotate(90)"/><path class="cls-2" d="M56.72,8.34s-2.71,18.33-3,21c0,0-2,.51-2.71-.48v0c0-1,2.37-15.55,2.64-17.78a11.94,11.94,0,0,1-2.51,1.89.62.62,0,0,1-.24-.62s.42-.44,3.5-4.56a.84.84,0,0,0,.18-.07,2.19,2.19,0,0,1,.51,0,2.14,2.14,0,0,1,1.61.62Z"/><path class="cls-2" d="M72.72,21.69a9,9,0,0,1-.76,1,4.85,4.85,0,0,1-2.88,2c-.52,3.26-1,6.28-1.2,6.9-.11.24-.28.31-.66.31s-1.64-.18-1.68-.18l-.17-.06.07-.18c.1-.54.51-3.57,1-6.86-.58-.1-1.06-.21-1.58-.34A12,12,0,0,0,62.14,24a13.06,13.06,0,0,0-5.66,1.75c-.31-.17-.31-.41-.21-.72C59.43,21.93,69,8.2,69.08,8.07h0V8a1.2,1.2,0,0,1,.76-.34c.92,0,1.68,1.34,1.71,1.37l.11.14-.11.1c-.07.14-8.41,9.34-12.7,14.32a6.17,6.17,0,0,1,3-1A9.85,9.85,0,0,1,65,23.2l1.58.48c.72-4.66,1.4-9.74,1.4-9.81v-.24l.24,0c.18.07,2.44.24,2.37,1.13v0c-.07.31-.68,4.8-1.34,9.06a3.53,3.53,0,0,0,2.48-1.41,9.6,9.6,0,0,0,.68-1Z"/><path class="cls-3" d="M50.87,76.66a1.61,1.61,0,1,1-1.44,1.75A1.61,1.61,0,0,1,50.87,76.66Z"/><path class="cls-3" d="M32.42,79.16a1.61,1.61,0,0,1,1.76,1.45,1.61,1.61,0,1,1-1.76-1.45Z"/><path class="cls-3" d="M40.66,51a1.61,1.61,0,1,1-1.45,1.76A1.62,1.62,0,0,1,40.66,51Z"/><path class="cls-3" d="M29.36,53.78a2.18,2.18,0,1,1-1.94,2.38A2.17,2.17,0,0,1,29.36,53.78Z"/><path class="cls-3" d="M37.49,35.14A1.61,1.61,0,1,1,36,36.9,1.61,1.61,0,0,1,37.49,35.14Z"/><path class="cls-4" d="M24.53,73.91a1.61,1.61,0,1,1-1.44,1.76A1.61,1.61,0,0,1,24.53,73.91Z"/><path class="cls-4" d="M39.48,71.88a2.17,2.17,0,1,1-1.95,2.37A2.17,2.17,0,0,1,39.48,71.88Z"/><path class="cls-4" d="M37.8,61.91a1.61,1.61,0,0,1,.31,3.21,1.61,1.61,0,0,1-.31-3.21Z"/><path class="cls-4" d="M26.94,38.58A2.17,2.17,0,1,1,25,41,2.16,2.16,0,0,1,26.94,38.58Z"/><path class="cls-5" d="M46.53,84.64l.66,6.74a2.2,2.2,0,0,1-1.78,2.53L34.26,95A2.2,2.2,0,0,1,32,92.87l-.67-6.74Z"/><path class="cls-6" d="M31.36,86.13,16,87.64A1.22,1.22,0,0,1,14.76,86L21.14,70l32.05-3.15,9.57,14.34a1.22,1.22,0,0,1-.86,1.9L46.53,84.64Zm21.27-8a1.61,1.61,0,1,0-1.45,1.76A1.61,1.61,0,0,0,52.63,78.1ZM41.86,73.83a2.18,2.18,0,1,0-2,2.36A2.17,2.17,0,0,0,41.86,73.83Zm-7.68,6.78a1.61,1.61,0,1,0-1.44,1.75A1.6,1.6,0,0,0,34.18,80.61ZM26.3,75.35a1.61,1.61,0,1,0-1.45,1.76A1.61,1.61,0,0,0,26.3,75.35Z"/><path class="cls-7" d="M57.47,64.48a1.39,1.39,0,0,1-1,2.09l-3.25.32L21.14,70l-3,.29a1.38,1.38,0,0,1-1.4-1.87l7-19.2L47.14,47Zm-15-12.09A1.62,1.62,0,1,0,41,54.16,1.62,1.62,0,0,0,42.43,52.39Zm-2.88,11a1.61,1.61,0,1,0-3.2.31,1.63,1.63,0,0,0,1.76,1.45A1.61,1.61,0,0,0,39.55,63.36Zm-7.81-7.63a2.17,2.17,0,1,0-1.95,2.38A2.17,2.17,0,0,0,31.74,55.73Z"/><path class="cls-6" d="M18.19,47.93,31,21.38a1.45,1.45,0,0,1,2.39-.26L52,44.58a1.26,1.26,0,0,1-1,2L47.14,47l-23.43,2.3-4.13.41A1.27,1.27,0,0,1,18.19,47.93ZM25,41a2.17,2.17,0,1,0,2-2.37A2.17,2.17,0,0,0,25,41Zm14.26-4.37a1.61,1.61,0,1,0-1.45,1.76A1.61,1.61,0,0,0,39.25,36.58Z"/><path class="cls-8" d="M11.28,57a7.54,7.54,0,0,1-5.73.52c-.84-.29-1.72-1-1.59-1.87a1.53,1.53,0,0,1,.91-1.1,4.51,4.51,0,0,1,1.45-.34l4.2-.5c1.16-.14,2.91-.71,4.05-.49,1.51.28.26,1.08-.6,1.88A10.75,10.75,0,0,1,11.28,57Z"/><path class="cls-8" d="M57,40.15a7.59,7.59,0,0,1,5.52-1.61c.88.13,1.89.64,1.93,1.53a1.58,1.58,0,0,1-.69,1.26,5,5,0,0,1-1.35.61l-4,1.3c-1.11.36-2.73,1.26-3.88,1.26-1.55,0-.47-1,.22-2A11,11,0,0,1,57,40.15Z"/><path class="cls-4" d="M16.68,28.44a4.82,4.82,0,0,1-.7-3.61c.14-.56.52-1.17,1.09-1.14a1,1,0,0,1,.76.51,2.91,2.91,0,0,1,.31.9c.2.88.39,1.76.59,2.64a10.15,10.15,0,0,1,.56,2.55c-.08,1-.67.24-1.23-.26A6.75,6.75,0,0,1,16.68,28.44Z"/><path class="cls-3" d="M65.41,89a4.8,4.8,0,0,1,1.91,3.14c.07.57-.08,1.27-.62,1.44a1,1,0,0,1-.9-.21,3.09,3.09,0,0,1-.6-.74L63.73,90.4a9.55,9.55,0,0,1-1.42-2.19c-.27-.95.54-.45,1.24-.18A6.58,6.58,0,0,1,65.41,89Z"/><path class="cls-9" d="M10.68,73.23s-.06-.06-.12-.08h-.09a.49.49,0,0,0,0-.12h0l0,.09,0,0c.1,0,.12-.06.11-.09a.14.14,0,0,1,0-.07.17.17,0,0,0,0-.15,0,0,0,0,1,0,0,.44.44,0,0,0,0-.16s0,0-.06-.07a1,1,0,0,0-.14-.22,1.37,1.37,0,0,0-.16-.18l-.12,0L9.91,72c-.08,0-.15,0-.22-.06s0,0,0,0H9.6a2.85,2.85,0,0,0-.29,0c-.08,0-.13.07-.2.08a.52.52,0,0,0-.18.12s0,0,0,0a.53.53,0,0,1-.06.1c-.06,0-.08.11-.14.16s-.06.1-.09.15,0,0,0,.08a.43.43,0,0,1,0,.11c0,.05,0,.09,0,.15s0,0,0,.08a.06.06,0,0,1,0,0s0,0,0,.07a.57.57,0,0,1,0,.18.23.23,0,0,0,0,.14.08.08,0,0,1,0,.07s0,0,0,0l0,0c.05.09.07.21.17.26s.08.09.13.13l0,0,.2.07.09,0c.06,0,.14,0,.21.06h0a.18.18,0,0,1,.14,0,.17.17,0,0,0,.14,0s.08,0,.11,0h.07l.1,0h0l.12,0,.05,0s0-.07,0-.07a.41.41,0,0,0,.17-.12,1.21,1.21,0,0,0,.19-.2s0,0,0-.06.06,0,0-.09,0,0,0,0l.1-.11s0,0,0,0A1,1,0,0,0,10.68,73.23Zm-.23.12h0s0-.09,0-.14S10.48,73.31,10.45,73.35Z"/><path class="cls-8" d="M39,19.15s-.05,0-.12-.07h-.09a.53.53,0,0,0,0-.13h0l0,.1s0,0,0,0S39,19,39,19a.25.25,0,0,1,0-.07.16.16,0,0,0,0-.16s0,0,0,0a.43.43,0,0,0,0-.16s0,0,0-.06a1.82,1.82,0,0,0-.15-.23,1.29,1.29,0,0,0-.16-.17L38.46,18,38.25,18c-.07,0-.15,0-.22-.06h-.09l-.29,0c-.07,0-.13.07-.2.09a.5.5,0,0,0-.17.11l-.05,0s0,.08-.06.1-.08.12-.14.16-.06.1-.09.15,0,.05,0,.08,0,.08,0,.12,0,.09-.06.14a.27.27,0,0,0,0,.09v0s0,0,0,.07a.57.57,0,0,1,0,.18.25.25,0,0,0,0,.14.08.08,0,0,1,0,.07h0l0,0c0,.09.07.21.18.27a.68.68,0,0,1,.12.12l.05,0,.21.07.08,0c.07,0,.14,0,.21.06s0,0,0,0a.23.23,0,0,1,.14,0,.17.17,0,0,0,.14,0s.08,0,.11,0h.07l.1,0h0l.12,0s0,0,0,0,0-.06,0-.07a.49.49,0,0,0,.18-.11,1.24,1.24,0,0,0,.18-.21s0,0,0-.05.06,0,0-.1,0,0,0,0l.11-.11h0A1.08,1.08,0,0,0,39,19.15Zm-.23.12h0s0-.09,0-.14S38.82,19.23,38.79,19.27Z"/><path class="cls-10" d="M51.93,90.78s-.06,0-.12-.07h-.09a.53.53,0,0,0,0-.13h0l0,.1s0,0,0,0,.12-.07.11-.09a.25.25,0,0,1,0-.07.16.16,0,0,0,0-.16s0,0,0,0a.86.86,0,0,0,0-.16s0,0-.06-.06a1.09,1.09,0,0,0-.14-.23,1.29,1.29,0,0,0-.16-.17l-.11-.06-.21-.08c-.07,0-.15,0-.22-.06h0l-.07,0a2.83,2.83,0,0,0-.29,0c-.07,0-.13.07-.2.09a.5.5,0,0,0-.17.11l0,0s0,.08-.06.1-.08.12-.14.16-.06.1-.09.15,0,.05,0,.08a.42.42,0,0,1,0,.12s0,.09,0,.14a.21.21,0,0,0,0,.08v.05s0,0,0,.07a.52.52,0,0,1,0,.18.25.25,0,0,0,0,.14.08.08,0,0,1,0,.07h0l0,0c0,.09.07.21.18.27a.68.68,0,0,1,.12.12l0,0,.2.07.09,0c.06,0,.14,0,.21.06h0a.23.23,0,0,1,.14,0,.17.17,0,0,0,.14,0s.08,0,.11,0h.07l.1,0h0l.12,0s0,0,.05,0,0-.06,0-.07a.49.49,0,0,0,.18-.11,1.24,1.24,0,0,0,.18-.21s0,0,0-.05.06,0,0-.1,0,0,0,0A.52.52,0,0,0,52,91a0,0,0,0,0,0,0A1.08,1.08,0,0,0,51.93,90.78Zm-.23.12h0s0-.09,0-.14S51.73,90.86,51.7,90.9Z"/></g></g></svg>