<svg xmlns="http://www.w3.org/2000/svg" viewBox="0 0 69.59 69.59"><defs><style>.cls-1{fill:#f9e3d4;}.cls-2{fill:#fa483c;}.cls-3{fill:#137a83;}.cls-4{fill:#f9ba2b;}.cls-5{fill:#292d37;}.cls-6{fill:#212d4d;}</style></defs><g id="Слой_2" data-name="Слой 2"><g id="OBJECTS"><rect class="cls-1" width="69.59" height="69.59" transform="translate(69.59 0) rotate(90)"/><path class="cls-2" d="M23.82,12.13S17.73,53.33,17,59.34c0,0-4.47,1.16-6.09-1.08v-.07c0-2.32,5.32-34.95,5.94-40-2.55,2.32-5.48,4.4-5.63,4.25a1.32,1.32,0,0,1-.54-1.39s.92-1,7.87-10.27a2.14,2.14,0,0,0,.38-.15,5.71,5.71,0,0,1,1.16-.08c1.16,0,3.09.47,3.63,1.39Z"/><path class="cls-2" d="M31.77,34.35c-.07.31.54-.7.85-.93A15.69,15.69,0,0,1,43,29.64c7.48,0,12.73,5.71,12.73,10.8,0,12.5-9.72,20.14-21.14,20.14-5.32,0-11.42-2.78-11.42-9,0-5.17,3.55-7.79,7-7.79.7.31.16.69,0,.69-3,0-6.09,2.55-6.09,7.1,0,6,5.63,8.1,10.49,8.1,8.18,0,14.12-11.72,14.12-19.13,0-9.64-8.8-12-15.43-6.4a11.8,11.8,0,0,0-2.86,3.62c-.46.23-.69.08-.77-.38,2.09-5.71,7.87-26.47,7.87-26.62l.39-.23.62.38s5.78,2.39,10.41,2.39c6.33,0,10.19-2.31,10.26-2.39a.74.74,0,0,1,.62.62c-2,3.63-6.48,5.09-10.88,5.09A19.71,19.71,0,0,1,38,13.21C37.17,16.53,32.31,32.11,31.77,34.35Z"/><path class="cls-3" d="M23.71,63.86a4.67,4.67,0,0,1-2.13,2.87c-.48.27-1.17.39-1.52,0a1,1,0,0,1-.14-.88,2.8,2.8,0,0,1,.45-.81l1.5-2.15a9.77,9.77,0,0,1,1.45-2.08c.76-.59.61.32.63,1A6.67,6.67,0,0,1,23.71,63.86Z"/><path class="cls-4" d="M5.44,23.88a4,4,0,0,1-1.52-2.66c0-.47.09-1,.55-1.18a.82.82,0,0,1,.74.19,2.69,2.69,0,0,1,.48.63l1.17,1.92A8.55,8.55,0,0,1,8,24.63c.2.8-.47.37-1,.13A5.49,5.49,0,0,1,5.44,23.88Z"/><path class="cls-5" d="M62.75,42.5a4,4,0,0,1,2.62,1.58c.27.39.43,1,.1,1.3a.83.83,0,0,1-.74.19,2.47,2.47,0,0,1-.73-.31l-2-1.1a8.76,8.76,0,0,1-1.9-1.06c-.56-.6.23-.55.85-.62A5.77,5.77,0,0,1,62.75,42.5Z"/><path class="cls-2" d="M13.7,7.16a.22.22,0,0,0-.13-.08h-.08a.5.5,0,0,0,0-.12h0l0,.1,0,0c.11,0,.13-.06.11-.09a.07.07,0,0,1,0-.06.16.16,0,0,0-.05-.16s0,0,0,0a.43.43,0,0,0,0-.16s0,0,0-.07a1.43,1.43,0,0,0-.15-.22.9.9,0,0,0-.16-.18l-.11,0L12.92,6c-.07,0-.15,0-.21-.06h0s0,0-.07,0l-.3,0c-.07,0-.12.07-.19.09a.42.42,0,0,0-.18.11s0,0,0,0,0,.07-.07.1-.08.11-.13.16a.49.49,0,0,0-.1.15s0,0,0,.08,0,.08,0,.11-.05.1-.06.15v.12a.25.25,0,0,0,0,.07.38.38,0,0,1,0,.18.33.33,0,0,0,0,.14s0,0,0,.07l0,0,0,0c.06.09.08.21.18.27s.08.08.13.12l0,0,.21.07.08,0c.07,0,.15,0,.21.06h0a.15.15,0,0,1,.13,0,.2.2,0,0,0,.15,0s.07,0,.11,0h.06l.11,0h0L13.17,8s0,0,.06,0,0-.06,0-.07a.54.54,0,0,0,.18-.11.91.91,0,0,0,.18-.21s0,0,0-.06.07,0,0-.09,0,0,0,0a.57.57,0,0,0,.11-.11h0A1.07,1.07,0,0,0,13.7,7.16Zm-.24.12h0a.68.68,0,0,0,0-.14C13.53,7.19,13.49,7.24,13.46,7.28Z"/><path class="cls-5" d="M42.53,63.9a.31.31,0,0,0-.12-.08h-.09s0-.08,0-.12h0l0,.1,0,0c.11,0,.13-.06.11-.09a.07.07,0,0,1,0-.06.16.16,0,0,0,0-.16s0,0,0,0a.43.43,0,0,0,0-.16s0,0,0-.07a1.43,1.43,0,0,0-.15-.22,1.29,1.29,0,0,0-.16-.18L42,62.79l-.21-.08c-.07,0-.15,0-.21-.06h0l-.07,0c-.1,0-.2,0-.3,0s-.12.07-.19.09a.54.54,0,0,0-.18.11l0,0s0,.08-.07.1-.08.11-.13.16a.34.34,0,0,0-.09.15s0,.05,0,.08,0,.08,0,.12,0,.09-.06.14v.13a.14.14,0,0,0,0,.07.36.36,0,0,1,0,.18.43.43,0,0,0,0,.14s0,0,0,.06,0,0,0,0l0,0c.06.09.08.21.18.27a1.42,1.42,0,0,1,.13.12l0,0,.21.07.08,0c.07,0,.15,0,.21.06h0a.15.15,0,0,1,.13,0,.2.2,0,0,0,.15,0s.07,0,.11,0h.06l.11,0h0l.12,0s0,0,.06,0,0-.06,0-.07a.54.54,0,0,0,.18-.11,1.29,1.29,0,0,0,.19-.21s0,0,0,0,.07,0,0-.1,0,0,0,0a.57.57,0,0,0,.11-.11h0A1.07,1.07,0,0,0,42.53,63.9Zm-.24.12h0a.59.59,0,0,0,0-.14S42.32,64,42.29,64Z"/><path class="cls-3" d="M53,26a.23.23,0,0,0-.12-.08h-.09s0-.08,0-.12h0l0,.1,0,0c.11,0,.13-.06.11-.09a.07.07,0,0,1,0-.06.16.16,0,0,0-.05-.16s0,0,0,0a.43.43,0,0,0,0-.16s0,0-.05-.07a1.43,1.43,0,0,0-.15-.22.9.9,0,0,0-.16-.18l-.11-.05-.21-.08c-.07,0-.15,0-.21-.06h0s0,0-.07,0-.2,0-.3,0-.12.07-.19.09a.42.42,0,0,0-.18.11s0,0,0,0,0,.07-.07.1-.08.11-.13.16a.49.49,0,0,0-.1.15s0,.05,0,.08,0,.08,0,.11-.05.1-.06.15v.12a.25.25,0,0,0,0,.07.38.38,0,0,1,0,.18.42.42,0,0,0,0,.15s0,0,0,.06l0,0s0,0,0,0,.08.21.18.27.08.08.13.12l0,0,.21.07.08,0c.07,0,.15,0,.21.06h0a.15.15,0,0,1,.13,0,.2.2,0,0,0,.15,0s.07,0,.11,0h.06l.11,0h0l.12-.05s0,0,.06,0,0-.06,0-.07a.54.54,0,0,0,.18-.11.91.91,0,0,0,.18-.21s0,0,0-.05.07,0,0-.1,0,0,0,0a.57.57,0,0,0,.11-.11h0A1.07,1.07,0,0,0,53,26Zm-.24.12h0a.68.68,0,0,0,0-.14C52.81,26,52.77,26.05,52.74,26.09Z"/><path class="cls-6" d="M13.91,15.58c-.41-.2-.83-.41-1.25-.58-.26-.11-.55-.17-.82-.26-.1,0-.2-.1-.3-.13l-.95-.26a.12.12,0,0,1-.08,0s0-.06,0-.09a.11.11,0,0,1,0-.05.35.35,0,0,1,.1-.08,1.36,1.36,0,0,1,.8,0c.26.1.54.14.8.22s.45.16.68.24l1,.34.14,0,.63.3a.34.34,0,0,1,.15.33.49.49,0,0,1-.05.18.52.52,0,0,1-.11.15.37.37,0,0,1-.22,0c-.1,0-.19-.13-.29-.19l-.24-.16Z"/><path class="cls-6" d="M8.84,13c.14,0,.3.06.44.11a2.17,2.17,0,0,1,.35.15,2.76,2.76,0,0,1,.44.25.72.72,0,0,1,.16.21.37.37,0,0,1,0,.17c-.05.12-.09.13-.12.14L10,14c-.15,0-.3,0-.45-.05a1.74,1.74,0,0,1-.39-.11c-.17-.08-.33-.19-.51-.28a1.18,1.18,0,0,0-.27-.06s-.06,0-.09,0,0-.23,0-.42.14-.25.2-.26a.44.44,0,0,1,.16.06l.18.09Z"/><path class="cls-6" d="M13.16,36c.77,1.86,3,2.46,4.87,2.09a7.89,7.89,0,0,0,3.23-1.49,8.9,8.9,0,0,0,1-.88,8.13,8.13,0,0,0,2-3.51,2.06,2.06,0,0,1,.12-.35s.07-.05.1-.06a.07.07,0,0,1,.05,0,1.33,1.33,0,0,1,0,.28,5.92,5.92,0,0,1-1.14,3,9.32,9.32,0,0,1-2.63,2.45,7.9,7.9,0,0,1-3,1.1,6.05,6.05,0,0,1-2.32-.07,5.72,5.72,0,0,1-1.12-.39,3.34,3.34,0,0,1-1-.74A4.32,4.32,0,0,1,13,37a4.86,4.86,0,0,1-.7-1.49,2.18,2.18,0,0,1-.06-.93,1.11,1.11,0,0,1,.8-.87,1.5,1.5,0,0,1,1.36.43c.06.06.11.17.08.23a.27.27,0,0,1-.22.11c-.25,0-.49,0-.71-.07-.44-.07-.65.08-.66.54A3.08,3.08,0,0,0,13.17,36Z"/><path class="cls-6" d="M23.72,23.32a14.85,14.85,0,0,1,.86,1.8,11,11,0,0,1,.47,1.61,11.14,11.14,0,0,1,.24,2.14,8,8,0,0,1-.13,1c0,.08-.12.18-.18.18s-.14-.14-.16-.26,0-.31,0-.46a10.76,10.76,0,0,0-.28-1.79c-.11-.55-.28-1.08-.44-1.61a14.13,14.13,0,0,0-.86-2.27,9.74,9.74,0,0,0-.6-1,2.17,2.17,0,0,1-.23-.3.54.54,0,0,1,.07-.63c.09-.09.32,0,.48.17a3.13,3.13,0,0,1,.4.6l.42.77Z"/><path class="cls-6" d="M11.06,52.8A3.4,3.4,0,0,0,14.67,55,5.62,5.62,0,0,0,17.3,54a6.2,6.2,0,0,0,.86-.67,7.55,7.55,0,0,0,1.73-2.75,2.33,2.33,0,0,1,.11-.28s.07,0,.11,0,0,0,0,0a.66.66,0,0,1,0,.24,5.15,5.15,0,0,1-1,2.38A8,8,0,0,1,17,54.8a5.75,5.75,0,0,1-2.48.76A4,4,0,0,1,11,54.05a3.14,3.14,0,0,1-.33-.48,3.26,3.26,0,0,1-.2-2.7,1.43,1.43,0,0,1,.75-.81.23.23,0,0,1,.23,0,.28.28,0,0,1,0,.22c-.09.18-.13.37-.22.53a2.65,2.65,0,0,0-.33,1,2.46,2.46,0,0,0,.09.93Z"/><path class="cls-6" d="M20.65,43.31a11.94,11.94,0,0,1,.45,1.55,8.84,8.84,0,0,1,.15,1.36A9.2,9.2,0,0,1,21.14,48a3.63,3.63,0,0,1-.25.79.26.26,0,0,1-.19.12c-.13,0-.13-.14-.13-.24l0-.36a10.25,10.25,0,0,0,0-1.47c0-.45-.09-.89-.13-1.33a11.56,11.56,0,0,0-.35-1.92,6.12,6.12,0,0,0-.36-.83c-.05-.09-.11-.17-.15-.26a.5.5,0,0,1,.2-.54c.11-.07.31,0,.42.17a2.84,2.84,0,0,1,.25.53c.07.23.16.45.22.68Z"/><path class="cls-6" d="M41.94,52c-1.6-.65-3.21-1.26-4.85-1.78-1-.32-2.05-.56-3.08-.81l-1.19-.29c-1.19-.25-2.4-.44-3.6-.59a1.91,1.91,0,0,1-.33-.06s0-.07-.05-.1,0,0,0,0a.73.73,0,0,1,.24-.07,11.8,11.8,0,0,1,2.78.19c1,.21,2,.39,3,.63s1.72.47,2.57.72c1.22.38,2.44.78,3.64,1.22l.52.18c.81.32,1.6.67,2.4,1a2.41,2.41,0,0,1,.87.63.28.28,0,0,1,0,.23.24.24,0,0,1-.2.11,2.37,2.37,0,0,1-.65-.15c-.4-.17-.78-.38-1.17-.55l-1-.46Z"/><path class="cls-6" d="M21.3,47.41c.56,0,1.13-.08,1.7-.09s1,0,1.44,0,1.23.1,1.84.19a6.28,6.28,0,0,1,.85.23.25.25,0,0,1,.15.18c0,.13-.14.14-.25.14s-.27,0-.4,0c-.54,0-1.08,0-1.62,0s-1,0-1.48,0c-.71,0-1.43,0-2.15,0-.33,0-.67.07-1,.1a1.88,1.88,0,0,1-.33.05.51.51,0,0,1-.46-.38c0-.13.12-.29.34-.33a4.18,4.18,0,0,1,.61-.05l.75,0Z"/><path class="cls-6" d="M45.83,37.72a38.6,38.6,0,0,0-1.66,5.53c-.13.58-.21,1.17-.3,1.75l-.17,1.77c0,.46-.05.9-.08,1.36a17.84,17.84,0,0,0,.45,4,2.2,2.2,0,0,1,.06.37s-.05.06-.07.09-.05,0-.06,0-.12-.15-.16-.23a8.46,8.46,0,0,1-.46-1.48,6.81,6.81,0,0,1-.2-1.56c0-.58,0-1.15,0-1.73a14.32,14.32,0,0,1,.09-1.73,27,27,0,0,1,.46-3,39.83,39.83,0,0,1,1.11-4.16,5.76,5.76,0,0,1,.18-.59c.33-.92.69-1.82,1-2.73a2.76,2.76,0,0,1,.67-1c.06-.06.17-.1.22-.07a.25.25,0,0,1,.11.22,3.42,3.42,0,0,1-.16.72L46.3,36.6c-.16.38-.32.75-.46,1.13Z"/><path class="cls-6" d="M48.29,58.48a.93.93,0,0,1-.23.61.78.78,0,0,1-.65.14,1.87,1.87,0,0,1-.52-.15L46.6,59l-.19-.24c-.33-.43-.67-.85-1-1.31a11.73,11.73,0,0,1-.93-1.88,7.9,7.9,0,0,1-.27-1,.25.25,0,0,1,.1-.23c.11-.06.18.08.24.18s.14.27.21.4l.41.79c.15.26.33.49.49.74l.44.68c.17.21.33.43.49.64l.35.48.08.12.22.11a1.62,1.62,0,0,0,.33.11s0,0,.07-.12a5.27,5.27,0,0,0-.1-1,2.7,2.7,0,0,1,0-.41.48.48,0,0,1,.45-.48c.13,0,.24.19.27.41s0,.43,0,.65a6.2,6.2,0,0,1,0,.88Z"/><path class="cls-6" d="M31.79,23.59a10.76,10.76,0,0,0,.14,2.83,22,22,0,0,0,.65,2.78A20.07,20.07,0,0,0,35,34.36a14.8,14.8,0,0,0,5,4.84,7.87,7.87,0,0,0,1.18.63,7.88,7.88,0,0,0,1.24.51,10.8,10.8,0,0,0,7.74-.22l.66-.29a.27.27,0,0,1,.18,0s0,0,0,.07a2.73,2.73,0,0,1-.42.32A9.11,9.11,0,0,1,47.7,41.3a6.29,6.29,0,0,1-1.56.13,8.3,8.3,0,0,1-1.57-.11,13.42,13.42,0,0,1-6.32-2.64,16.81,16.81,0,0,1-4-4.47,20.82,20.82,0,0,1-1.9-3.88,20.47,20.47,0,0,1-1.09-4.17,8.68,8.68,0,0,1-.16-1.26,12.36,12.36,0,0,1,.27-3,6.32,6.32,0,0,1,1.26-2.8A2.41,2.41,0,0,1,35,18.26c.17,0,.32.12.31.19s-.19.15-.32.17a2.84,2.84,0,0,0-1.24.47,4.18,4.18,0,0,0-1.5,2.18,10.06,10.06,0,0,0-.47,2.32Z"/><path class="cls-6" d="M52.83,29.16a6.19,6.19,0,0,1,3.77.94,2.61,2.61,0,0,1,.64.56,2.65,2.65,0,0,1,.5.72,2.89,2.89,0,0,1,.27.83,4.22,4.22,0,0,1,0,.87,6.55,6.55,0,0,1-2.14,3.59,11.66,11.66,0,0,1-1.48,1.25A.59.59,0,0,1,54,38c-.12-.08.11-.29.27-.46l.63-.63A10.32,10.32,0,0,0,57,34.15a2.76,2.76,0,0,0-.06-2.73,4,4,0,0,0-1.71-1.27A6.41,6.41,0,0,0,53,29.77a7.6,7.6,0,0,0-1.06.1,9.32,9.32,0,0,0-1,.3l-.64.28a1.1,1.1,0,0,1-1,.08c-.1-.09.13-.4.56-.66a5.53,5.53,0,0,1,1.32-.5,7.58,7.58,0,0,1,1.71-.24Z"/><path class="cls-6" d="M45,9.31A11.87,11.87,0,0,0,40.6,8a9.69,9.69,0,0,0-4.49.73,7.61,7.61,0,0,0-3.93,3.83,9.53,9.53,0,0,0-.72,2,10.81,10.81,0,0,0,1,6.26c.08.18.17.36.24.54s0,.1,0,.15,0,0-.06,0a2.21,2.21,0,0,1-.28-.32,10,10,0,0,1-1.5-4.76,8,8,0,0,1,.37-2.79l.18-.68.3-.65.3-.64a4.89,4.89,0,0,1,.41-.6,8.13,8.13,0,0,1,3.88-3,11.16,11.16,0,0,1,7-.16,5.58,5.58,0,0,1,1,.34,10.6,10.6,0,0,1,4,2.75,4.5,4.5,0,0,1,1,1.68c0,.11,0,.27,0,.3S49,13,49,12.9a9.15,9.15,0,0,1-.78-.87,12.25,12.25,0,0,0-1.6-1.62A10.91,10.91,0,0,0,45,9.32Z"/><path class="cls-6" d="M38.81,20.75a7.7,7.7,0,0,1,1.3,2.88,2.72,2.72,0,0,1-.1,1.43,1.59,1.59,0,0,1-1.14,1A3.64,3.64,0,0,1,37.1,26a5.63,5.63,0,0,1-1.61-.61,4.5,4.5,0,0,1-1.2-1.05.4.4,0,0,1-.11-.32c.07-.12.27,0,.41.15s.38.28.57.42a5.56,5.56,0,0,0,2.6.85,2.27,2.27,0,0,0,1.1-.15.89.89,0,0,0,.52-.71,5.44,5.44,0,0,0-1-3.39,7.29,7.29,0,0,0-1.13-1.34l-.44-.36a.91.91,0,0,1-.37-.76c0-.12.38-.11.73.12a5.22,5.22,0,0,1,.84.79,8.29,8.29,0,0,1,.84,1.11Z"/><path class="cls-6" d="M49.77,8.09a18.9,18.9,0,0,0-3,3.9,11.58,11.58,0,0,0-1.08,2.81,7.25,7.25,0,0,0-.21,1.13,6.74,6.74,0,0,0,.49,3.3c0,.1.08.19.11.28a.18.18,0,0,1-.06.1,0,0,0,0,1,0,0,.78.78,0,0,1-.2-.16,4.83,4.83,0,0,1-.8-2.54,9.7,9.7,0,0,1,.4-3,12.52,12.52,0,0,1,1.06-2.4,18,18,0,0,1,2.15-3,3.44,3.44,0,0,1,.35-.41A25.34,25.34,0,0,1,50.74,6.3a2.13,2.13,0,0,1,.93-.48.22.22,0,0,1,.21.06.23.23,0,0,1,0,.23,2.44,2.44,0,0,1-.4.5l-.94.79c-.26.23-.52.46-.77.7Z"/><path class="cls-6" d="M50.75,18.47a5.16,5.16,0,0,1-.57,1.61,3.76,3.76,0,0,1-.94,1.13,2.13,2.13,0,0,1-1.85.48.93.93,0,0,1-.42-.21,1.34,1.34,0,0,1-.32-.31.24.24,0,0,1,0-.23c.07-.1.18,0,.25,0s.21.1.3.15A1.35,1.35,0,0,0,48.39,21a3.45,3.45,0,0,0,.89-.86,4.73,4.73,0,0,0,.87-1.7,3.39,3.39,0,0,0,.08-.9,2.85,2.85,0,0,0,0-.29.52.52,0,0,1,.4-.42c.12,0,.29.11.32.33a1.84,1.84,0,0,1,0,.62,4,4,0,0,1-.14.75Z"/></g></g></svg>