<svg xmlns="http://www.w3.org/2000/svg" viewBox="0 0 61.04 77.89"><defs><style>.cls-1{isolation:isolate;}.cls-2{fill:#b3d5d5;}.cls-3{fill:#292d37;}.cls-4{fill:#fa483c;}.cls-5{fill:#137a83;}.cls-6{opacity:0.57;mix-blend-mode:multiply;}</style></defs><g class="cls-1"><g id="Слой_2" data-name="Слой 2"><g id="OBJECTS"><rect class="cls-2" x="-8.42" y="8.42" width="77.89" height="61.04" transform="translate(69.47 8.42) rotate(90)"/><path class="cls-3" d="M14,7.22s-3.09,20.89-3.44,24c0,0-2.27.58-3.09-.55v0c0-1.18,2.7-17.73,3-20.27a14.08,14.08,0,0,1-2.85,2.15.67.67,0,0,1-.28-.7s.47-.51,4-5.21a1,1,0,0,0,.2-.08,2.88,2.88,0,0,1,.59,0A2.47,2.47,0,0,1,14,7.14Z"/><path class="cls-3" d="M31.4,11.6v0c-.2.23-.31.19-.43-.08.12-1.92-.94-4.5-3.29-4.5-4.77,0-9.39,10-10.33,15.54,1.61-2.86,4.38-6,7.75-6A4.67,4.67,0,0,1,30,21.7C29.8,26.43,26,31.91,20.52,31.91c-6,0-7.63-3.64-6.57-10.33S20.44,6.43,27.68,6.43C30.23,6.43,31.71,9.21,31.4,11.6ZM17.15,23.85c-.31,3-.11,7.59,3.37,7.59,4.85,0,8.73-4.74,9-9.74A4.12,4.12,0,0,0,25.06,17C21.54,17,18.29,21.7,17.15,23.85Z"/><path class="cls-4" d="M28.14,41.88l1.13.1C28,51.23,26.92,63.15,26.59,68.32l0,.27c-4.91-.42-10.24-.87-15.16-1.26.5-5.27,1.06-17.3,1.95-26.73v-.13Z"/><path class="cls-4" d="M53,43.45c-.41,9.16-1.24,21.84-1.76,27.21-5.27-.42-11-.9-16.23-1.35v0c.24-5.19,1.16-17.15,2.45-26.44v-.08l.57,0Z"/><path class="cls-5" d="M35,69.29v0l-8.45-.72,0-.27C26.92,63.15,28,51.23,29.27,42l8.21.79v.08C36.18,52.14,35.26,64.1,35,69.29Z"/><path class="cls-5" d="M52.1,59.43c-8-.62-31.91-2.22-39.85-2.89,0,0,.1-1.65.35-6.23,4.66.37,35.16,2.88,39.82,3.23Z"/><polygon class="cls-5" points="40.44 31.71 38.33 31.51 27.83 30.53 27.83 30.5 27.31 30.45 23.55 30.1 10.06 28.81 10.02 40.15 13.37 40.47 25.94 41.67 25.94 41.67 52.98 44.25 56.28 44.56 57.34 33.32 40.44 31.71"/><g class="cls-6"><path class="cls-5" d="M13.26,31.18a.23.23,0,0,1,.24,0l.11.06a.36.36,0,0,1,.09.13.27.27,0,0,1,0,.12h0c0,.16-.07.21-.19.16s0,0-.08,0a.73.73,0,0,0-.3.18.88.88,0,0,1-.15.12l-.31.25c-.15.14-.31.25-.41.06L12.09,32l0-.05a1.54,1.54,0,0,0-.23-.32.53.53,0,0,1-.11-.15l-.16-.31a.71.71,0,0,1-.07-.09s0,0,0,0l0,0h.06l.12.1.2.22a1.31,1.31,0,0,1,.11.12c.06.15.19.22.28.34a1.11,1.11,0,0,0,.12.15s.09,0,.11,0l0,0,0,0,.15-.14.1-.09a1.77,1.77,0,0,0,.28-.27C13.14,31.23,13.21,31.22,13.26,31.18Z"/></g><g class="cls-6"><path class="cls-5" d="M17.53,31.56a.23.23,0,0,1,.24,0l.11.06a.36.36,0,0,1,.09.13.25.25,0,0,1,0,.12h0c0,.15-.07.2-.19.15a.11.11,0,0,0-.08,0,.86.86,0,0,0-.3.18.61.61,0,0,1-.15.13l-.31.25c-.15.13-.31.25-.41.06l-.19-.28,0-.05A1.54,1.54,0,0,0,16.1,32a.46.46,0,0,1-.11-.16l-.16-.3-.07-.09a.06.06,0,0,1,0,0s0,0,0,0h0s0,0,0,0l.12.09.2.23a1.31,1.31,0,0,1,.11.12c.06.14.19.22.28.34s.09.12.12.14.09.05.11,0l0,0,0,0L17,32l.1-.09a1.69,1.69,0,0,0,.28-.26C17.41,31.61,17.48,31.6,17.53,31.56Z"/></g><g class="cls-6"><path class="cls-5" d="M21.8,32A.23.23,0,0,1,22,32a.27.27,0,0,1,.1.06.36.36,0,0,1,.1.13c0,.07,0,.1,0,.12h0c0,.16-.07.21-.19.16a.07.07,0,0,0-.08,0,.62.62,0,0,0-.3.18,1.67,1.67,0,0,1-.16.12l-.3.25c-.15.14-.32.25-.42.06l-.18-.28,0,0a1,1,0,0,0-.23-.32.78.78,0,0,1-.1-.15L20.09,32,20,31.9v0l0,0h.07a.52.52,0,0,1,.11.1l.2.22s.09.07.11.12.2.22.29.34a1.18,1.18,0,0,0,.11.15c.05,0,.09,0,.12,0v0l0,0,.15-.13.09-.1a1.14,1.14,0,0,0,.28-.26C21.67,32.09,21.75,32.08,21.8,32Z"/></g><g class="cls-6"><path class="cls-5" d="M26.07,32.38a.23.23,0,0,1,.24,0l.11.06a.56.56,0,0,1,.09.13c0,.07,0,.1,0,.12h0c0,.16-.07.21-.19.16s-.05,0-.08,0A.67.67,0,0,0,26,33a.67.67,0,0,1-.16.12l-.3.25c-.15.14-.31.25-.41.06s-.13-.19-.19-.28,0,0,0,0a1.28,1.28,0,0,0-.24-.32.78.78,0,0,1-.1-.15l-.17-.31-.07-.09v0l0,0a0,0,0,0,1,0,0h.05l.12.1.2.22s.08.07.1.12a2.37,2.37,0,0,0,.29.34l.11.15c.05,0,.09,0,.12,0v0l0,0,.15-.13.09-.1a1.18,1.18,0,0,0,.29-.26C25.94,32.42,26,32.42,26.07,32.38Z"/></g><g class="cls-6"><path class="cls-5" d="M30.32,32.67a.24.24,0,0,1,.23-.08.31.31,0,0,1,.12,0,.28.28,0,0,1,.11.11c0,.06,0,.09,0,.11h0c0,.16,0,.22-.16.19s-.05,0-.07,0a.61.61,0,0,0-.27.23,1,1,0,0,1-.14.15l-.26.29c-.12.16-.27.3-.4.13l-.23-.25,0,0a1.07,1.07,0,0,0-.28-.28.58.58,0,0,1-.13-.14l-.21-.27-.08-.08s0,0,0,0l0,0v0h.05l.13.07L29,33s.1.06.13.11.23.18.34.28l.13.13c.06,0,.1,0,.11,0v0l0,0,.12-.16.08-.11a1.44,1.44,0,0,0,.24-.3C30.21,32.74,30.28,32.72,30.32,32.67Z"/></g><g class="cls-6"><path class="cls-5" d="M34.61,33.18a.25.25,0,0,1,.24,0l.11.06a.92.92,0,0,1,.09.13c0,.07,0,.1,0,.13h0c0,.16-.07.21-.19.16a.1.1,0,0,0-.08,0,.71.71,0,0,0-.3.18l-.16.13-.3.24c-.15.14-.32.25-.42.06L33.44,34l0,0a1,1,0,0,0-.23-.32,1.4,1.4,0,0,1-.1-.16l-.17-.3a.71.71,0,0,0-.07-.09v0l0,0h.06a.52.52,0,0,1,.11.1l.2.22s.09.07.11.13.2.21.29.33l.11.15s.09,0,.12,0v0l0,0,.15-.14.09-.09a1.39,1.39,0,0,0,.28-.26C34.48,33.23,34.56,33.22,34.61,33.18Z"/></g><g class="cls-6"><path class="cls-5" d="M56,35.24a.23.23,0,0,1,.24,0,.3.3,0,0,1,.11.06.36.36,0,0,1,.09.13.27.27,0,0,1,0,.12h0c0,.16-.07.21-.19.16s0,0-.07,0a.62.62,0,0,0-.3.18,1.67,1.67,0,0,1-.16.12l-.31.25c-.15.14-.31.25-.41.06L54.78,36l0-.05a1.24,1.24,0,0,0-.23-.32.53.53,0,0,1-.11-.15l-.16-.31-.07-.09s0,0,0,0l0,0h.06l.12.1.2.22a.63.63,0,0,1,.11.12c.06.15.2.22.29.34a.65.65,0,0,0,.11.15s.09,0,.11,0l0,0,0,0,.15-.14.1-.1a1.35,1.35,0,0,0,.28-.26C55.83,35.29,55.91,35.28,56,35.24Z"/></g><g class="cls-6"><path class="cls-5" d="M38.88,33.56a.25.25,0,0,1,.24,0l.11.06a.56.56,0,0,1,.09.13c0,.07,0,.1,0,.12h0c0,.15-.07.21-.19.15s-.06,0-.08,0a.73.73,0,0,0-.3.19,1,1,0,0,1-.16.12l-.3.25c-.15.14-.32.25-.42.06l-.18-.28,0-.05a1,1,0,0,0-.23-.32.62.62,0,0,1-.1-.16l-.17-.3-.07-.09v0s0,0,0,0h0s0,0,0,0a.52.52,0,0,1,.11.1l.2.22s.09.07.11.12a2.37,2.37,0,0,0,.29.34,1.12,1.12,0,0,1,.11.15c.05,0,.09,0,.12,0v0l0,0,.15-.14.09-.09a1,1,0,0,0,.28-.26C38.75,33.61,38.83,33.61,38.88,33.56Z"/></g><g class="cls-6"><path class="cls-5" d="M43.14,34a.28.28,0,0,1,.25,0l.1.06a.36.36,0,0,1,.09.13c0,.07,0,.1,0,.12h0c0,.16-.08.21-.2.16s0,0-.07,0a.71.71,0,0,0-.3.18l-.16.13-.3.24c-.15.14-.32.25-.42.06L42,34.82l0,0a1.72,1.72,0,0,0-.23-.32.83.83,0,0,1-.11-.15l-.16-.3s0-.06-.07-.1,0,0,0,0l0,0h.06a.58.58,0,0,1,.12.1l.2.22s.09.07.11.13.2.21.29.33a1.18,1.18,0,0,0,.11.15s.09,0,.11,0l0,0,0,0,.15-.14.1-.09a2.27,2.27,0,0,0,.28-.26C43,34.09,43.1,34.08,43.14,34Z"/></g><g class="cls-6"><path class="cls-5" d="M47.42,34.38a.23.23,0,0,1,.24,0,.27.27,0,0,1,.1.06.36.36,0,0,1,.1.13c0,.07,0,.1,0,.12h0c0,.16-.07.21-.19.16a.07.07,0,0,0-.08,0,.62.62,0,0,0-.3.18,1.67,1.67,0,0,1-.16.12l-.3.25c-.15.14-.32.25-.42.06l-.18-.28a.1.1,0,0,1,0,0,1,1,0,0,0-.23-.32.78.78,0,0,1-.1-.15l-.17-.3s-.05-.06-.07-.1,0,0,0,0l0,0h.07a.52.52,0,0,1,.11.1l.2.22s.09.07.11.12.2.22.29.34a1.18,1.18,0,0,0,.11.15c.05,0,.09,0,.12,0v0l0,0,.15-.14.09-.09a1.73,1.73,0,0,0,.28-.26C47.29,34.43,47.37,34.42,47.42,34.38Z"/></g><g class="cls-6"><path class="cls-5" d="M51.67,34.67a.24.24,0,0,1,.23-.08l.11,0s.08.06.12.11a.18.18,0,0,1,0,.12h0c0,.15,0,.21-.16.18a.1.1,0,0,0-.08,0,.64.64,0,0,0-.26.23c0,.06-.1.1-.14.15l-.26.29c-.13.16-.27.3-.4.13l-.23-.25,0,0a1.24,1.24,0,0,0-.28-.28.8.8,0,0,1-.13-.13L50,34.9l-.09-.07a.43.43,0,0,1,0,0l0,0s0,0,0,0h0a.57.57,0,0,1,.13.08l.24.18a1.27,1.27,0,0,1,.13.11c.08.13.23.18.33.28l.14.13s.09,0,.11,0v0l0,0,.12-.16.08-.1a1.5,1.5,0,0,0,.24-.31C51.55,34.74,51.63,34.72,51.67,34.67Z"/></g><g class="cls-6"><path class="cls-5" d="M13,37.08a.25.25,0,0,1,.24,0l.11.06a.36.36,0,0,1,.09.13.27.27,0,0,1,0,.12h0c0,.16-.07.21-.19.16a.11.11,0,0,0-.08,0,.86.86,0,0,0-.3.18s-.1.08-.15.13l-.31.24c-.15.14-.31.25-.41.06s-.13-.18-.19-.28l0,0a1.54,1.54,0,0,0-.23-.32.76.76,0,0,1-.11-.16l-.16-.3a.71.71,0,0,0-.07-.09.07.07,0,0,1,0-.05l0,0h.06l.12.1.2.22a.75.75,0,0,1,.11.13c.06.14.19.21.29.33a.65.65,0,0,0,.11.15c.05,0,.09,0,.11,0l0,0,0,0,.15-.14.1-.09a2.27,2.27,0,0,0,.28-.26C12.9,37.13,13,37.12,13,37.08Z"/></g><g class="cls-6"><path class="cls-5" d="M17.29,37.46a.25.25,0,0,1,.24,0l.11.06a.36.36,0,0,1,.09.13.27.27,0,0,1,0,.12h0c0,.15-.07.21-.19.15s0,0-.08,0a.89.89,0,0,0-.3.19.88.88,0,0,1-.15.12l-.31.25c-.15.14-.31.25-.41.06l-.19-.28,0,0a1.54,1.54,0,0,0-.23-.32.46.46,0,0,1-.11-.16l-.16-.3-.07-.09a.06.06,0,0,1,0,0l0,0,0,0s0,0,0,0l.12.1.2.22a1.31,1.31,0,0,1,.11.12c.06.14.19.22.29.34s.08.12.11.15.09,0,.11,0l0,0,0,0,.15-.14.1-.09a1.69,1.69,0,0,0,.28-.26C17.17,37.51,17.24,37.51,17.29,37.46Z"/></g><g class="cls-6"><path class="cls-5" d="M21.56,37.94a.25.25,0,0,1,.24,0l.1.06a.36.36,0,0,1,.1.13c0,.07,0,.1,0,.12h0c0,.16-.07.21-.19.16a.07.07,0,0,0-.08,0,.71.71,0,0,0-.3.18l-.16.13-.3.24c-.15.14-.32.25-.42.06l-.18-.28,0,0a1.18,1.18,0,0,0-.23-.32.78.78,0,0,1-.1-.15l-.17-.3s-.05-.06-.07-.1v0l0,0h.07a.52.52,0,0,1,.11.1l.2.22s.09.07.11.13.2.21.29.33a1.18,1.18,0,0,0,.11.15s.09,0,.12,0v0l0,0,.15-.14.09-.09a1.39,1.39,0,0,0,.28-.26C21.43,38,21.51,38,21.56,37.94Z"/></g><g class="cls-6"><path class="cls-5" d="M25.83,38.28a.23.23,0,0,1,.24,0l.11.06a.56.56,0,0,1,.09.13c0,.07,0,.1,0,.12h0c0,.16-.07.21-.19.16s-.05,0-.08,0a.67.67,0,0,0-.3.18.67.67,0,0,1-.16.12l-.3.25c-.15.14-.31.25-.41.06s-.13-.19-.19-.28,0,0,0-.05a1.28,1.28,0,0,0-.24-.32.78.78,0,0,1-.1-.15l-.17-.31-.07-.09v0l0,0h.06l.12.1.2.22s.08.07.1.12.2.22.29.34L25,39c.05,0,.09,0,.12,0v0l0,0,.15-.14.09-.09a1.48,1.48,0,0,0,.29-.27C25.7,38.33,25.78,38.32,25.83,38.28Z"/></g><g class="cls-6"><path class="cls-5" d="M30.08,38.57a.24.24,0,0,1,.23-.08l.12,0s.07.06.11.11.05.09,0,.12h0c0,.15,0,.21-.16.18s-.05,0-.07,0a.67.67,0,0,0-.27.23,1,1,0,0,1-.14.15l-.26.29c-.12.16-.27.3-.4.13l-.23-.25,0,0a1.24,1.24,0,0,0-.28-.28.8.8,0,0,1-.13-.13l-.21-.28a.5.5,0,0,0-.08-.07.07.07,0,0,1,0,0l0,0v0h.05l.13.08.23.18s.1.06.13.11.23.18.34.28a1.58,1.58,0,0,0,.13.13c.06,0,.1,0,.11,0v0l0,0,.12-.16.08-.1a1.5,1.5,0,0,0,.24-.31C30,38.64,30,38.62,30.08,38.57Z"/></g><g class="cls-6"><path class="cls-5" d="M34.37,39.08a.23.23,0,0,1,.24,0l.11.06a.56.56,0,0,1,.09.13.14.14,0,0,1,0,.12h0c0,.15-.07.2-.19.15a.11.11,0,0,0-.08,0,.71.71,0,0,0-.3.18l-.16.13-.3.24c-.15.14-.32.25-.42.07l-.18-.29,0,0a1,1,0,0,0-.23-.32.62.62,0,0,1-.1-.16l-.17-.3a.71.71,0,0,0-.07-.09V38.9l0,0h.06l.11.09.2.22s.09.08.11.13a1.85,1.85,0,0,0,.29.33l.11.15s.09,0,.12,0v0l0,0,.15-.14.09-.09a1.39,1.39,0,0,0,.28-.26C34.24,39.13,34.32,39.12,34.37,39.08Z"/></g><g class="cls-6"><path class="cls-5" d="M55.71,41.14a.25.25,0,0,1,.24,0,.6.6,0,0,1,.11.06.36.36,0,0,1,.09.13.27.27,0,0,1,0,.12h0c0,.16-.07.21-.19.16a.08.08,0,0,0-.07,0,.71.71,0,0,0-.3.18l-.16.13-.3.24c-.16.14-.32.25-.42.06s-.13-.18-.19-.28l0-.05a1.39,1.39,0,0,0-.23-.31.76.76,0,0,1-.11-.16L54,41.1s0-.06-.07-.1,0,0,0,0l0,0H54l.12.1.2.22a.47.47,0,0,1,.11.13c.06.14.2.21.29.33a.65.65,0,0,0,.11.15s.09,0,.11,0l0,0,0,0,.15-.14.1-.09a2.27,2.27,0,0,0,.28-.26C55.59,41.19,55.67,41.18,55.71,41.14Z"/></g><g class="cls-6"><path class="cls-5" d="M38.64,39.47a.23.23,0,0,1,.24,0l.11.06a.56.56,0,0,1,.09.13c0,.07,0,.1,0,.12h0c0,.16-.07.21-.19.16s-.06,0-.08,0a.62.62,0,0,0-.3.18,1,1,0,0,1-.16.12l-.3.25c-.15.14-.32.25-.42.06l-.18-.28,0,0a1,1,0,0,0-.23-.32.78.78,0,0,1-.1-.15l-.17-.31-.07-.09v0l0,0H37a.52.52,0,0,1,.11.1l.2.22s.09.07.11.12.2.22.29.34l.11.15s.09,0,.12,0v0l0,0,.15-.14.09-.1a1,1,0,0,0,.28-.26C38.51,39.52,38.59,39.51,38.64,39.47Z"/></g><g class="cls-6"><path class="cls-5" d="M42.9,39.94a.28.28,0,0,1,.25,0l.1.07a.36.36,0,0,1,.09.13c0,.06,0,.09,0,.12h0c0,.15-.08.2-.2.15a.08.08,0,0,0-.07,0,.71.71,0,0,0-.3.18l-.16.13-.3.24c-.15.14-.32.25-.42.06l-.19-.28,0,0a1.24,1.24,0,0,0-.23-.32.54.54,0,0,1-.1-.16c-.06-.1-.12-.2-.17-.3a.71.71,0,0,0-.07-.09.07.07,0,0,1,0-.05l0,0h.06a.54.54,0,0,1,.12.09l.2.22s.09.08.11.13.2.22.29.33a1.18,1.18,0,0,0,.11.15c.05,0,.09,0,.12,0v0s0,0,0,0l.15-.14.1-.09a2.27,2.27,0,0,0,.28-.26C42.78,40,42.86,40,42.9,39.94Z"/></g><g class="cls-6"><path class="cls-5" d="M47.18,40.28a.25.25,0,0,1,.24,0l.1.06a.49.49,0,0,1,.1.13c0,.07,0,.1,0,.13h0c0,.16-.07.21-.19.16a.1.1,0,0,0-.08,0,.71.71,0,0,0-.3.18l-.16.13-.3.24c-.15.14-.32.25-.42.06L46,41.06l0,0a1,1,0,0,0-.23-.32,1.4,1.4,0,0,1-.1-.16l-.17-.3a.71.71,0,0,0-.07-.09s0,0,0,0l0,0h.07a.52.52,0,0,1,.11.1l.2.22s.09.07.11.13a1.85,1.85,0,0,0,.29.33,1.18,1.18,0,0,0,.11.15s.09.05.12,0v0l0,0,.15-.14.09-.09A1.73,1.73,0,0,0,47,40.4C47.05,40.33,47.13,40.32,47.18,40.28Z"/></g><g class="cls-6"><path class="cls-5" d="M51.43,40.57a.23.23,0,0,1,.23-.07l.12,0,.11.11a.18.18,0,0,1,0,.12h0c0,.15,0,.21-.16.18a.1.1,0,0,0-.08,0,.64.64,0,0,0-.26.23c0,.06-.1.1-.14.15l-.26.29c-.13.16-.27.3-.4.13l-.23-.25,0,0a1.2,1.2,0,0,0-.28-.27.86.86,0,0,1-.13-.14l-.21-.27-.09-.08s0,0,0,0l0,0h0l0,0,.13.08.24.19a.57.57,0,0,1,.13.1c.08.13.23.18.34.29a.68.68,0,0,0,.13.12c.05,0,.09,0,.11,0v0l0,0,.12-.16L51,41a1.76,1.76,0,0,0,.24-.3C51.31,40.64,51.39,40.62,51.43,40.57Z"/></g><g class="cls-6"><path class="cls-5" d="M15,34.15a.25.25,0,0,1,.24,0l.11.06a.36.36,0,0,1,.09.13.27.27,0,0,1,0,.12h0c0,.15-.07.21-.19.15s-.05,0-.08,0a.89.89,0,0,0-.3.19.88.88,0,0,1-.15.12l-.31.25c-.15.14-.31.25-.41.06l-.19-.28,0,0a1.54,1.54,0,0,0-.23-.32.46.46,0,0,1-.11-.16c-.05-.1-.11-.2-.17-.3a.47.47,0,0,0-.06-.09.06.06,0,0,1,0,0l0,0s0,0,0,0h0l.12.1.2.22a1.31,1.31,0,0,1,.11.12c.06.14.19.22.28.34l.12.15c.05,0,.09,0,.11,0l0,0,0,0,.15-.14.1-.09a1.69,1.69,0,0,0,.28-.26C14.83,34.2,14.9,34.2,15,34.15Z"/></g><g class="cls-6"><path class="cls-5" d="M19.22,34.54a.25.25,0,0,1,.24,0l.11.07a.36.36,0,0,1,.09.13.23.23,0,0,1,0,.12h0c0,.15-.07.2-.19.15a.11.11,0,0,0-.08,0,.86.86,0,0,0-.3.18s-.1.08-.15.13l-.31.24c-.15.14-.31.25-.41.06l-.19-.28,0,0a1.54,1.54,0,0,0-.23-.32.57.57,0,0,1-.11-.16l-.16-.3a.71.71,0,0,0-.07-.09.07.07,0,0,1,0,0l0,0h.06l.12.09.2.22a1.5,1.5,0,0,1,.11.13c.06.14.19.22.28.33a1.11,1.11,0,0,0,.12.15c.05,0,.09,0,.11,0l0,0,0,0,.15-.14.1-.09a2.27,2.27,0,0,0,.28-.26C19.1,34.59,19.17,34.58,19.22,34.54Z"/></g><g class="cls-6"><path class="cls-5" d="M23.49,35a.25.25,0,0,1,.24,0,.27.27,0,0,1,.1.06.36.36,0,0,1,.1.13.15.15,0,0,1,0,.12h0c0,.15-.07.21-.19.15a.1.1,0,0,0-.08,0,.83.83,0,0,0-.3.18.91.91,0,0,1-.16.13l-.3.25c-.15.13-.32.25-.42.06l-.18-.28,0,0a1,1,0,0,0-.23-.32.62.62,0,0,1-.1-.16l-.17-.3-.07-.09v0s0,0,0,0l0,0h.05l.11.09.2.23s.09.07.11.12a2.37,2.37,0,0,0,.29.34s.08.12.11.14.09,0,.12,0v0l0,0,.15-.14.09-.09a1.37,1.37,0,0,0,.28-.26C23.36,35.06,23.44,35.06,23.49,35Z"/></g><g class="cls-6"><path class="cls-5" d="M27.76,35.35a.23.23,0,0,1,.24,0l.11.06a.56.56,0,0,1,.09.13.15.15,0,0,1,0,.12h0c0,.15-.07.2-.19.15a.11.11,0,0,0-.08,0,.92.92,0,0,0-.3.18.51.51,0,0,1-.16.13l-.3.25c-.15.13-.31.25-.41.06l-.19-.28s0,0,0,0a1.28,1.28,0,0,0-.24-.32.62.62,0,0,1-.1-.16l-.17-.3L26,35.22v0l0,0h0s0,0,.05,0l.12.09.2.23s.08.07.1.12a2.37,2.37,0,0,0,.29.34s.09.12.11.14.09.05.12,0v0l0,0,.15-.14.09-.09a1.42,1.42,0,0,0,.29-.26C27.63,35.4,27.71,35.4,27.76,35.35Z"/></g><g class="cls-6"><path class="cls-5" d="M32,35.65a.24.24,0,0,1,.23-.08l.12,0a.44.44,0,0,1,.11.12c0,.06.05.09,0,.11h0c0,.15,0,.22-.16.19a.06.06,0,0,0-.07,0,.66.66,0,0,0-.27.22,1,1,0,0,1-.14.15l-.26.3c-.12.16-.27.29-.4.12L31,36.61l0,0a1.07,1.07,0,0,0-.28-.28.86.86,0,0,1-.13-.14l-.21-.27-.08-.08s0,0,0,0l0,0h0s0,0,0,0l.13.07.23.19a.64.64,0,0,1,.13.1c.08.13.23.19.34.29a1.58,1.58,0,0,0,.13.13c.06,0,.1,0,.11,0v0l0,0,.12-.16.08-.11a1.76,1.76,0,0,0,.24-.3C31.9,35.71,32,35.69,32,35.65Z"/></g><g class="cls-6"><path class="cls-5" d="M36.3,36.16a.23.23,0,0,1,.24,0l.11.06a.56.56,0,0,1,.09.13c0,.07,0,.1,0,.12h0c0,.16-.07.21-.19.16a.07.07,0,0,0-.08,0,.62.62,0,0,0-.3.18,1,1,0,0,1-.16.12l-.3.25c-.15.14-.32.25-.42.06l-.18-.28,0,0a1,1,0,0,0-.23-.32.78.78,0,0,1-.1-.15l-.17-.31L34.52,36v0l0,0a0,0,0,0,1,0,0h0a.52.52,0,0,1,.11.1l.2.22s.09.07.11.12.2.22.29.34l.11.15s.09,0,.12,0v0l0,0,.15-.14.09-.1a1,1,0,0,0,.28-.26C36.17,36.21,36.25,36.2,36.3,36.16Z"/></g><g class="cls-6"><path class="cls-5" d="M40.57,36.54a.23.23,0,0,1,.24,0l.11.06a.56.56,0,0,1,.09.13.14.14,0,0,1,0,.12h0c0,.15-.07.2-.19.15a.1.1,0,0,0-.08,0,.71.71,0,0,0-.3.18.65.65,0,0,1-.16.13l-.3.24c-.15.14-.32.25-.42.07l-.18-.28,0,0a1,1,0,0,0-.23-.32.62.62,0,0,1-.1-.16l-.17-.3-.07-.09v0a.05.05,0,0,1,0,0h.06l.11.09.2.23s.09.07.11.12a2.37,2.37,0,0,0,.29.34s.09.12.11.14.09,0,.12,0v0l0,0L40,37l.09-.09a1.16,1.16,0,0,0,.28-.26C40.44,36.59,40.52,36.58,40.57,36.54Z"/></g><g class="cls-6"><path class="cls-5" d="M44.83,37a.25.25,0,0,1,.25,0l.1.06a.36.36,0,0,1,.09.13c0,.07,0,.1,0,.12h0c0,.16-.08.21-.2.16s-.05,0-.07,0a.62.62,0,0,0-.3.18,1.67,1.67,0,0,1-.16.12l-.3.25c-.15.14-.32.25-.42.06l-.19-.28,0,0a1.24,1.24,0,0,0-.23-.32.83.83,0,0,1-.11-.15L43.13,37l-.07-.09s0,0,0,0l0,0h.06a.58.58,0,0,1,.12.1l.2.22s.09.07.11.12.2.22.29.34a1.18,1.18,0,0,0,.11.15c.05,0,.09,0,.11,0l0,0,0,0,.15-.13.1-.1a1.35,1.35,0,0,0,.28-.26C44.71,37.07,44.79,37.06,44.83,37Z"/></g><g class="cls-6"><path class="cls-5" d="M49.11,37.36a.23.23,0,0,1,.24,0,.27.27,0,0,1,.1.06.36.36,0,0,1,.1.13c0,.07,0,.1,0,.12h0c0,.15-.07.21-.19.16s-.06,0-.08,0A.73.73,0,0,0,49,38a1.67,1.67,0,0,1-.16.12l-.3.25c-.15.14-.32.25-.42.06l-.18-.28,0,0a1,1,0,0,0-.23-.32.62.62,0,0,1-.1-.16l-.17-.3-.07-.09s0,0,0,0l0,0h0s0,0,.05,0a.52.52,0,0,1,.11.1,2.09,2.09,0,0,1,.2.22s.09.07.11.12a2.37,2.37,0,0,0,.29.34s.08.12.11.15.09,0,.12,0v0l0,0,.15-.13.09-.1a1.14,1.14,0,0,0,.28-.26C49,37.4,49.06,37.4,49.11,37.36Z"/></g><g class="cls-6"><path class="cls-5" d="M53.36,37.65a.24.24,0,0,1,.23-.08.34.34,0,0,1,.11,0,.24.24,0,0,1,.12.11.18.18,0,0,1,0,.11h0c0,.16,0,.22-.16.19a.1.1,0,0,0-.08,0,.64.64,0,0,0-.26.23c0,.06-.1.1-.14.15l-.26.29c-.13.16-.27.3-.4.13l-.23-.25,0,0a1.07,1.07,0,0,0-.28-.28.58.58,0,0,1-.13-.14l-.21-.27-.09-.08s0,0,0,0l0,0v0h0l.13.07L52,38a1.27,1.27,0,0,1,.13.11c.08.13.23.18.33.28l.14.13c.05,0,.09,0,.11,0v0l0,0,.12-.16.08-.11a1.76,1.76,0,0,0,.24-.3C53.24,37.72,53.32,37.7,53.36,37.65Z"/></g><path class="cls-3" d="M8.28,35.62a1,1,0,1,1-1-1A1,1,0,0,1,8.28,35.62Z"/><path class="cls-3" d="M37.13,18a1,1,0,1,1-1-1A1,1,0,0,1,37.13,18Z"/><path class="cls-3" d="M58.35,53.68a1,1,0,1,1-1-1A1,1,0,0,1,58.35,53.68Z"/><path class="cls-3" d="M9.38,57a1,1,0,1,1-1-1A1,1,0,0,1,9.38,57Z"/><path class="cls-3" d="M29.66,72.36a1,1,0,1,1-1-1A1,1,0,0,1,29.66,72.36Z"/><path class="cls-3" d="M17.5,8.13a1,1,0,1,1-1-1A1,1,0,0,1,17.5,8.13Z"/><path class="cls-3" d="M46.64,17a1,1,0,1,1-1-1A1,1,0,0,1,46.64,17Z"/><path class="cls-3" d="M54,11.1a1,1,0,0,1-1.08-1.69A1,1,0,1,1,54,11.1Z"/><path class="cls-3" d="M4.3,45.87a.73.73,0,0,1-.19-.33.61.61,0,0,1,0-.14.17.17,0,0,1,.07-.11.08.08,0,0,1,.1,0h0a.32.32,0,0,1,.28.28.2.2,0,0,0,.06.11,3,3,0,0,0,.37.43c.08.07.15.15.23.23l.43.42.46.47.32.3a.23.23,0,0,1,.07.07A4.79,4.79,0,0,0,7,48a1.45,1.45,0,0,1,.22.21l.37.39.14.12,0,.05,0,0H7.65l-.2-.14-.38-.31-.2-.17a6.19,6.19,0,0,0-.55-.47l-.24-.22-.49-.4c-.16-.13-.31-.28-.47-.43L5,46.53a5.62,5.62,0,0,0-.44-.41A1.74,1.74,0,0,1,4.3,45.87Z"/><path class="cls-3" d="M4.63,48.69a.73.73,0,0,1-.34.19.32.32,0,0,1-.14,0A.2.2,0,0,1,4,48.82a.1.1,0,0,1,0-.1H4a.32.32,0,0,1,.28-.28.15.15,0,0,0,.1-.06A2.16,2.16,0,0,0,4.84,48l.23-.23.43-.42L6,46.88l.31-.32.06-.07A3.87,3.87,0,0,0,6.76,46,2.08,2.08,0,0,1,7,45.81l.39-.38a1.79,1.79,0,0,0,.13-.14l0,0,0,0h0s0,0,0,.06-.09.13-.14.2l-.32.37a.82.82,0,0,1-.17.2,6.19,6.19,0,0,0-.47.55l-.22.24-.39.49-.43.47L5.28,48c-.13.15-.29.28-.41.44A2.49,2.49,0,0,1,4.63,48.69Z"/><path class="cls-3" d="M6.1,49.11a.64.64,0,0,1-.1.38.41.41,0,0,1-.09.1.21.21,0,0,1-.12,0c-.06,0-.08,0-.09-.06h0a.32.32,0,0,1,0-.39.28.28,0,0,0,0-.12,2.73,2.73,0,0,0,0-.57c0-.1,0-.21,0-.32v-.6c0-.22,0-.44,0-.66s0-.3,0-.44v-.1a4.42,4.42,0,0,0,0-.63,1.51,1.51,0,0,1,0-.3c0-.19,0-.37,0-.55s0-.12,0-.18a.14.14,0,0,1,0-.06h0l0,0c0,.08,0,.16,0,.24s0,.32,0,.49a1.1,1.1,0,0,1,0,.26c0,.24,0,.48.06.72s0,.22,0,.32,0,.42.06.63,0,.42,0,.64a1.41,1.41,0,0,0,0,.2,4.15,4.15,0,0,0,0,.61A3.25,3.25,0,0,1,6.1,49.11Z"/><path class="cls-3" d="M3.88,47.35a.76.76,0,0,1-.37-.1.87.87,0,0,1-.11-.09.25.25,0,0,1,0-.13.12.12,0,0,1,.06-.09h0a.33.33,0,0,1,.4,0A.14.14,0,0,0,4,47a2.19,2.19,0,0,0,.57,0H6.64a4.64,4.64,0,0,0,.64,0H8.36s0,0,0,0h0l0,0a1.09,1.09,0,0,1-.25,0l-.48,0a1.23,1.23,0,0,1-.27,0c-.24,0-.48,0-.72.06H6.29l-.63.07-.63,0H4.82c-.2,0-.4,0-.6,0A1.87,1.87,0,0,1,3.88,47.35Z"/><path class="cls-3" d="M40.36,8.39a.83.83,0,0,1-.19-.34.32.32,0,0,1,0-.14.2.2,0,0,1,.07-.11.1.1,0,0,1,.1,0h0a.32.32,0,0,1,.28.28.15.15,0,0,0,.06.1,2.48,2.48,0,0,0,.37.43c.08.07.15.15.23.23l.42.42c.16.16.31.32.47.47l.32.3a.46.46,0,0,0,.07.07,3.87,3.87,0,0,0,.47.43,2.08,2.08,0,0,1,.21.21l.38.39a1.79,1.79,0,0,0,.14.13l0,.05,0,0H43.7l-.2-.15-.37-.31a.82.82,0,0,1-.2-.17,6.19,6.19,0,0,0-.55-.47L42.14,10l-.49-.39-.47-.43L41,9c-.15-.13-.28-.29-.44-.41A2.49,2.49,0,0,1,40.36,8.39Z"/><path class="cls-3" d="M40.68,11.2a.67.67,0,0,1-.33.2h-.14a.28.28,0,0,1-.11-.07.12.12,0,0,1,0-.11h0a.3.3,0,0,1,.27-.27.29.29,0,0,0,.11-.06,3.08,3.08,0,0,0,.43-.38,2.39,2.39,0,0,1,.23-.22l.42-.43L42,9.39l.3-.32L42.39,9a3.77,3.77,0,0,0,.43-.46A2.18,2.18,0,0,1,43,8.32l.39-.38.13-.13a.05.05,0,0,1,.05,0s0,0,0,0v.07l-.15.2c-.1.13-.21.25-.31.37s-.11.15-.17.21a6.19,6.19,0,0,0-.47.55l-.22.23-.39.49c-.14.16-.29.32-.44.47l-.14.15a5.62,5.62,0,0,0-.41.44A1.74,1.74,0,0,1,40.68,11.2Z"/><path class="cls-3" d="M42.16,11.62a.83.83,0,0,1-.1.38.41.41,0,0,1-.09.1.25.25,0,0,1-.13,0,.08.08,0,0,1-.08-.06h0a.32.32,0,0,1,0-.39.18.18,0,0,0,0-.12,2.09,2.09,0,0,0,0-.56c0-.11,0-.22,0-.33V9.4c0-.15,0-.29,0-.44V8.87a3.39,3.39,0,0,0,0-.64c0-.1,0-.2,0-.3s0-.36,0-.55,0-.12,0-.18,0,0,0-.06h.05l0,0c0,.08,0,.16,0,.24s0,.33,0,.49a1.18,1.18,0,0,1,0,.26c0,.24.05.48.06.72s0,.22,0,.33.05.41.07.62,0,.43,0,.64a1.48,1.48,0,0,1,0,.21c0,.2,0,.4,0,.6A1.73,1.73,0,0,1,42.16,11.62Z"/><path class="cls-3" d="M39.94,9.86a.83.83,0,0,1-.38-.1.41.41,0,0,1-.1-.09.23.23,0,0,1,0-.13s0-.07.06-.08h0a.32.32,0,0,1,.39,0,.28.28,0,0,0,.12,0,2.73,2.73,0,0,0,.57,0c.1,0,.21,0,.32,0h1.8a4.42,4.42,0,0,0,.63,0,1.51,1.51,0,0,1,.3,0h.73l.06,0s0,0,0,0h0l0,0-.24,0-.48,0a1.23,1.23,0,0,1-.27,0c-.24,0-.48.05-.72.06l-.32,0-.63.06-.63,0h-.21c-.2,0-.41,0-.61,0A1.76,1.76,0,0,1,39.94,9.86Z"/><path class="cls-3" d="M49.38,23.37a.77.77,0,0,1-.19-.34.57.57,0,0,1,0-.13.15.15,0,0,1,.07-.11.09.09,0,0,1,.1,0h0a.32.32,0,0,1,.28.28.21.21,0,0,0,.06.1,2.21,2.21,0,0,0,.37.43l.23.23c.14.14.28.29.43.43l.46.46.32.31.07.06a3.8,3.8,0,0,0,.47.43,2.18,2.18,0,0,1,.22.21l.37.4.14.12,0,.05,0,0h-.06l-.2-.14-.38-.32a1.06,1.06,0,0,1-.2-.17,6.09,6.09,0,0,0-.55-.46L51.16,25l-.49-.4-.47-.43L50.05,24a5.62,5.62,0,0,0-.44-.41A2.51,2.51,0,0,1,49.38,23.37Z"/><path class="cls-3" d="M49.71,26.19a.83.83,0,0,1-.34.19h-.14a.2.2,0,0,1-.11-.07.1.1,0,0,1,0-.1h0a.32.32,0,0,1,.28-.28.33.33,0,0,0,.1-.06,2.54,2.54,0,0,0,.43-.37,1.67,1.67,0,0,1,.23-.23l.42-.43c.16-.15.32-.31.47-.47l.3-.32.07-.06a4.79,4.79,0,0,0,.43-.47,2.18,2.18,0,0,1,.21-.22l.39-.37a1.79,1.79,0,0,1,.13-.14s0,0,0,0h0v0s0,0,0,.05-.09.14-.14.2l-.32.38a1.51,1.51,0,0,1-.17.2,6.19,6.19,0,0,0-.47.55c-.07.08-.15.15-.22.24s-.26.33-.39.48-.29.32-.43.47l-.15.16A5.76,5.76,0,0,0,50,26C49.88,26.06,49.77,26.11,49.71,26.19Z"/><path class="cls-3" d="M51.18,26.61a.66.66,0,0,1-.1.37.28.28,0,0,1-.09.1.14.14,0,0,1-.13,0,.08.08,0,0,1-.08-.05h0a.33.33,0,0,1,0-.4.21.21,0,0,0,0-.11,2.73,2.73,0,0,0,0-.57c0-.11,0-.22,0-.32V25c0-.22,0-.44,0-.66s0-.29,0-.44v-.09a4.56,4.56,0,0,0,0-.64,1.51,1.51,0,0,1,0-.3c0-.18,0-.36,0-.54s0-.13,0-.19a.14.14,0,0,1,0-.06h0s0,0,0,0,0,.16,0,.24,0,.33,0,.49a1.23,1.23,0,0,1,0,.27c0,.24,0,.47.06.71s0,.22,0,.33,0,.41.06.62,0,.43,0,.64v.21a4,4,0,0,0,0,.6C51.21,26.39,51.18,26.51,51.18,26.61Z"/><path class="cls-3" d="M49,24.84a.59.59,0,0,1-.37-.1.44.44,0,0,1-.11-.09.19.19,0,0,1,0-.12c0-.06,0-.08.06-.09h0a.3.3,0,0,1,.4,0,.35.35,0,0,0,.11,0,2.73,2.73,0,0,0,.57,0c.11,0,.21,0,.32,0h1.8a3.32,3.32,0,0,0,.63,0h.85a.62.62,0,0,0,.19,0l0,0s0,0,0,0v0l0,0-.25,0-.48,0a2.48,2.48,0,0,1-.27,0,5.81,5.81,0,0,0-.72,0l-.32,0-.63.06c-.21,0-.42,0-.63,0H49.9a4,4,0,0,0-.6,0A1.83,1.83,0,0,1,49,24.84Z"/></g></g></g></svg>