<svg xmlns="http://www.w3.org/2000/svg" viewBox="0 0 95.23 77.89"><defs><style>.cls-1{fill:#f9ba2b;}.cls-2{fill:#fff;}.cls-3{fill:#292d37;}.cls-4{fill:#fa483c;}</style></defs><g id="Слой_2" data-name="Слой 2"><g id="OBJECTS"><rect class="cls-1" x="8.67" y="-8.67" width="77.89" height="95.23" transform="translate(86.56 -8.67) rotate(90)"/><path class="cls-2" d="M40.72,15.1S34.4,57.78,33.68,64c0,0-4.63,1.2-6.31-1.12v-.08c0-2.39,5.52-36.2,6.15-41.39-2.63,2.4-5.67,4.55-5.83,4.39a1.37,1.37,0,0,1-.56-1.43s1-1,8.15-10.63a2.05,2.05,0,0,0,.4-.16,6.05,6.05,0,0,1,1.2-.08c1.2,0,3.2.48,3.76,1.43Z"/><path class="cls-2" d="M73.53,15.42c-3.36,5.44-20.06,35.41-20.06,47.95v.72c-1.36,1-7.11-.4-8.07-1.68v-.32c0-12.14,14-33,23.09-44.75a6.47,6.47,0,0,1-3.35.72c-4.48,0-8.63-1-13.27-1-5.91,0-8,5.44-8.07,5.36-.56.24-1,.24-1-.4,0,0,1.92-8.47,9.11-8.47,4.48,0,8.63,2.23,13.27,2.23a12.6,12.6,0,0,0,6.71-2.31c.56-.08,1.92,0,2.08.32S74,14.62,73.53,15.42Z"/><path class="cls-2" d="M67.6,51.76c-.89-.51-1.36-1.35-1.06-1.88s1.27-.53,2.16,0,1.37,1.36,1.06,1.88S68.49,52.28,67.6,51.76Z"/><path class="cls-2" d="M67.4,47.73a1,1,0,0,1-.26-1.42,1,1,0,0,1,1.36-.49,1.12,1.12,0,0,1-1.1,1.91Z"/><path class="cls-2" d="M64,49a.93.93,0,1,1,1.27-.34A.92.92,0,0,1,64,49Z"/><path class="cls-3" d="M82.8,39.6c-1.63.15-3-.5-3.11-1.46s1.15-1.86,2.78-2,3,.5,3.1,1.46S84.42,39.45,82.8,39.6Z"/><path class="cls-3" d="M78.82,34.57a1.77,1.77,0,1,1,1.31-1.87A1.61,1.61,0,0,1,78.82,34.57Z"/><path class="cls-3" d="M75.62,39.41A1.48,1.48,0,1,1,77,37.8,1.48,1.48,0,0,1,75.62,39.41Z"/><path class="cls-3" d="M15.5,24.13c-1.63.15-3-.5-3.11-1.46s1.15-1.86,2.78-2,3,.5,3.1,1.46S17.12,24,15.5,24.13Z"/><path class="cls-3" d="M11.52,19.1a1.61,1.61,0,0,1-1.63-1.59,1.63,1.63,0,0,1,1.3-1.88,1.63,1.63,0,0,1,1.64,1.6A1.61,1.61,0,0,1,11.52,19.1Z"/><path class="cls-3" d="M8.32,23.94a1.48,1.48,0,1,1,1.33-1.61A1.48,1.48,0,0,1,8.32,23.94Z"/><path class="cls-4" d="M70.21,68.89c-.91-1.06-1.14-2.36-.51-2.9s1.88-.11,2.79,1,1.14,2.36.51,2.9S71.12,70,70.21,68.89Z"/><path class="cls-4" d="M71.78,63.62a1.52,1.52,0,1,1,2,0A1.41,1.41,0,0,1,71.78,63.62Z"/><path class="cls-4" d="M66.8,63.75a1.27,1.27,0,1,1,1.79.14A1.27,1.27,0,0,1,66.8,63.75Z"/><path class="cls-4" d="M9.78,55.7c-.91-1.07-1.14-2.36-.51-2.9s1.87-.11,2.78,1,1.14,2.37.51,2.91S10.69,56.76,9.78,55.7Z"/><path class="cls-4" d="M11.35,50.42a1.4,1.4,0,0,1,.31-1.93,1.41,1.41,0,0,1,2,0,1.41,1.41,0,0,1-.32,1.94A1.39,1.39,0,0,1,11.35,50.42Z"/><path class="cls-4" d="M6.36,50.56a1.27,1.27,0,0,1,.15-1.79A1.27,1.27,0,0,1,8.15,50.7,1.28,1.28,0,0,1,6.36,50.56Z"/><path class="cls-2" d="M23.51,27.75c.83.61,1.21,1.5.85,2s-1.33.39-2.15-.22-1.21-1.51-.85-2S22.69,27.14,23.51,27.75Z"/><path class="cls-2" d="M23.26,31.78a1.12,1.12,0,1,1-1.4.33A1,1,0,0,1,23.26,31.78Z"/><path class="cls-2" d="M26.8,30.86a1,1,0,0,1,.2,1.31.94.94,0,0,1-1.31.19.93.93,0,0,1,1.11-1.5Z"/><path class="cls-3" d="M82.93,54.93a.22.22,0,0,0-.12-.07l-.08,0h0s0-.08,0-.12h0l0,.1,0,0c.11,0,.13-.06.11-.08s0,0,0-.07a.16.16,0,0,0-.05-.16s0,0,0,0a.88.88,0,0,0,0-.16s0,0-.06-.07l-.14-.22-.17-.18-.11,0-.21-.08c-.07,0-.15,0-.21-.06h0l-.07,0c-.1,0-.2,0-.3,0s-.12.07-.19.09a.54.54,0,0,0-.18.11l0,0s0,.08-.07.1-.08.11-.13.16a.34.34,0,0,0-.09.15s0,0,0,.08,0,.08,0,.12-.05.09-.06.14v.13a.14.14,0,0,0,0,.07.36.36,0,0,1,0,.18.37.37,0,0,0,0,.14s0,0,0,.06l0,0,0,0c.06.09.08.21.18.27a1.42,1.42,0,0,1,.13.12l0,0,.21.07.08,0c.07,0,.15,0,.21.06h0a.15.15,0,0,1,.13,0,.2.2,0,0,0,.15,0s.07,0,.11,0h.06l.11,0h0l.12-.05s0,0,.06,0,0-.06,0-.07a.54.54,0,0,0,.18-.11,1.29,1.29,0,0,0,.19-.21s0,0,0,0,.07,0,0-.1v0a.57.57,0,0,0,.11-.11h0A1.07,1.07,0,0,0,82.93,54.93Zm-.24.12h0a.59.59,0,0,0,0-.14C82.76,55,82.72,55,82.69,55.05Z"/><path class="cls-2" d="M21.11,43.93s-.06,0-.12-.07l-.07,0h0a.49.49,0,0,0,0-.12h0l0,.1.05,0c.1,0,.12-.06.11-.08a.25.25,0,0,1,0-.07.18.18,0,0,0,0-.16,0,0,0,0,1,0,0,.86.86,0,0,0,0-.16s0,0-.06-.07a1.35,1.35,0,0,0-.14-.22l-.16-.18-.12,0-.2-.08c-.07,0-.15,0-.22-.06h0l-.07,0a2.83,2.83,0,0,0-.29,0c-.07,0-.13.07-.2.09a.5.5,0,0,0-.17.11l-.05,0s0,.08-.06.1-.08.11-.14.16-.06.1-.09.15,0,0,0,.08l0,.12s0,.09,0,.14a.21.21,0,0,0,0,.08.09.09,0,0,1,0,0s0,0,0,.07a.52.52,0,0,1,0,.18.25.25,0,0,0,0,.14.06.06,0,0,1,0,.06v0l0,0c.05.09.07.21.18.27a.68.68,0,0,1,.12.12l.05,0,.2.07.09,0c.06,0,.14,0,.21.06h0a.18.18,0,0,1,.14,0,.17.17,0,0,0,.14,0s.08,0,.11,0h.07l.1,0h0l.12-.05s0,0,.05,0,0-.06,0-.07a.5.5,0,0,0,.17-.11,1,1,0,0,0,.19-.21s0,0,0,0,.06,0,0-.1,0,0,0,0a.52.52,0,0,0,.1-.11s0,0,0,0A.62.62,0,0,0,21.11,43.93Zm-.23.12h0s0-.09,0-.14S20.91,44,20.88,44.05Z"/><path class="cls-4" d="M35.57,6.79a.22.22,0,0,0-.13-.08h-.08a.5.5,0,0,0,0-.12h0l0,.09,0,0c.1,0,.12-.06.11-.09a.08.08,0,0,1,0-.07.15.15,0,0,0,0-.15s0,0,0,0a.43.43,0,0,0,0-.16s0,0,0-.07a1.07,1.07,0,0,0-.15-.22.93.93,0,0,0-.16-.18A.6.6,0,0,0,35,5.67l-.21-.07c-.07,0-.15,0-.22-.06h-.08l-.3,0c-.07,0-.13.07-.19.08a.54.54,0,0,0-.18.11l0,0s0,.08-.07.1-.08.12-.13.16a.44.44,0,0,0-.1.16.19.19,0,0,0,0,.08s0,.07,0,.11,0,.09-.06.14v.13s0,.05,0,.07a.38.38,0,0,1,0,.18.23.23,0,0,0,0,.14s0,0,0,.07a0,0,0,0,0,0,0l0,0c.06.09.07.21.18.26s.08.09.12.13,0,0,0,0a.9.9,0,0,0,.21.08s0,0,.08,0,.14,0,.21,0h0a.19.19,0,0,1,.13,0,.17.17,0,0,0,.14,0s.08,0,.11,0h.07l.1,0h0L35,7.64h.05s0-.06,0-.06a.44.44,0,0,0,.18-.12,1.12,1.12,0,0,0,.18-.2s0,0,0-.06.06,0,0-.09v0L35.64,7h0Zm-.24.12h0a.78.78,0,0,0,0-.14C35.4,6.82,35.36,6.87,35.33,6.91Z"/><path class="cls-4" d="M40.36,71.35a.25.25,0,0,0-.12-.07h-.09a.49.49,0,0,0,0-.12h0l0,.09.05,0c.1,0,.12-.06.11-.09a.14.14,0,0,1,0-.07.17.17,0,0,0,0-.15,0,0,0,0,1,0,0,.44.44,0,0,0,0-.16s0,0-.06-.07a1.64,1.64,0,0,0-.14-.22.73.73,0,0,0-.17-.18.39.39,0,0,0-.11-.06l-.2-.07c-.08,0-.15,0-.22-.06s0,0,0,0h-.07a2.85,2.85,0,0,0-.29,0c-.08,0-.13.07-.2.08a.67.67,0,0,0-.18.11s0,0,0,0a.44.44,0,0,1-.06.1c-.06,0-.08.12-.14.16s-.06.1-.09.16,0,0,0,.08a.43.43,0,0,1,0,.11s0,.09,0,.14a.27.27,0,0,0,0,.09.06.06,0,0,1,0,0s0,0,0,.07a.57.57,0,0,1,0,.18.32.32,0,0,0,0,.14.06.06,0,0,1,0,.07s0,0,0,0l0,0c0,.09.07.21.17.26s.08.09.13.13,0,0,0,0a.7.7,0,0,0,.2.08.18.18,0,0,1,.09,0c.06,0,.14,0,.21,0s0,0,0,0a.23.23,0,0,1,.14,0,.18.18,0,0,0,.14,0s.08,0,.11,0h.07l.1,0h0l.12-.05h0s0-.06,0-.06a.41.41,0,0,0,.17-.12,1.8,1.8,0,0,0,.19-.2s0,0,0-.06.06,0,0-.09,0,0,0,0l.1-.12s0,0,0,0A1.46,1.46,0,0,0,40.36,71.35Zm-.23.13h0s0-.1,0-.14S40.16,71.44,40.13,71.48Z"/><path class="cls-2" d="M77.52,8.76c-.91-1.07-1.14-2.36-.51-2.9s1.88-.11,2.79.95,1.14,2.37.51,2.91S78.43,9.82,77.52,8.76Z"/><path class="cls-2" d="M88,66.92c.93-1,2.19-1.44,2.81-.89s.35,1.84-.58,2.89-2.19,1.44-2.81.89S87.08,68,88,66.92Z"/><path class="cls-2" d="M12.73,5.77c.94-1,2.2-1.44,2.81-.89S15.9,6.72,15,7.77s-2.19,1.44-2.8.89S11.8,6.81,12.73,5.77Z"/></g></g></svg>