<svg xmlns="http://www.w3.org/2000/svg" viewBox="0 0 77.53 112.57"><defs><style>.cls-1{isolation:isolate;}.cls-2{fill:#b3d5d5;}.cls-3{fill:#292d37;}.cls-4{fill:#333956;}.cls-5{fill:#fa483c;}.cls-6{fill:#232b47;}.cls-7{fill:#fff;}.cls-8{fill:#f98321;}.cls-9{fill:#137a83;}.cls-10{opacity:0.57;mix-blend-mode:multiply;}.cls-11{fill:#f9ba2b;}</style></defs><g class="cls-1"><g id="Слой_2" data-name="Слой 2"><g id="OBJECTS"><rect class="cls-2" x="-17.52" y="17.52" width="112.57" height="77.53" transform="translate(95.05 17.52) rotate(90)"/><path class="cls-3" d="M54.36,80.22s-3.51,23.72-3.91,27.19c0,0-2.58.67-3.51-.62v-.05c0-1.33,3.07-20.13,3.42-23a15.74,15.74,0,0,1-3.24,2.44.76.76,0,0,1-.31-.8s.53-.58,4.53-5.91a1.23,1.23,0,0,0,.22-.09,3.71,3.71,0,0,1,.67,0,2.78,2.78,0,0,1,2.09.8Z"/><path class="cls-3" d="M68.4,94.08l-.18.09c1.83,1.6,4,3.46,4,6.35,0,5.47-5.82,8-10.8,7.56-3.46-.36-6.62-2.54-6.62-6.45,0-2.53,1.64-4.66,3.73-6.44a19.42,19.42,0,0,1,3.38-2.27c-1.73-1.68-3.51-3.68-3.51-6.66,0-5,5.47-6.89,8.71-6.89s7,1.6,7,5.51a9.61,9.61,0,0,1-2.36,5.65A31.28,31.28,0,0,1,68.4,94.08Zm-13.11,7.55c0,3.34,2.23,5.47,6.18,5.91s6.31-2.17,6.31-6.31c0-3.6-3.15-5.64-5.51-7.91a14.67,14.67,0,0,0-3.47,2.27C57.16,96.92,55.29,99.1,55.29,101.63ZM73.6,84.88c0-3.06-2.58-5-6.49-5-2.8,0-4.71,1.68-4.71,5.51,0,3.51,1.34,5.33,5.42,8.44l.23-.22a25.86,25.86,0,0,0,3.24-3.43A8.83,8.83,0,0,0,73.6,84.88Z"/><path class="cls-4" d="M46.78,53.76a1.35,1.35,0,1,1-1.21,1.48A1.35,1.35,0,0,1,46.78,53.76Z"/><circle class="cls-4" cx="43.37" cy="58.18" r="1.35" transform="translate(-6.7 5.66) rotate(-6.93)"/><path class="cls-4" d="M38.55,58.77a1.35,1.35,0,1,1-1.22,1.48A1.35,1.35,0,0,1,38.55,58.77Z"/><path class="cls-4" d="M34.46,59.67A1.36,1.36,0,1,1,33,58.46,1.35,1.35,0,0,1,34.46,59.67Z"/><path class="cls-4" d="M29.08,58.29a1.35,1.35,0,0,1-2.69.28,1.34,1.34,0,0,1,1.21-1.48A1.35,1.35,0,0,1,29.08,58.29Z"/><path class="cls-5" d="M33.37,16.29c.41,1.2.85,2.4,1.35,3.58.1.25.22.5.33.75a62.77,62.77,0,0,1-19.31,9c-.19-.44-.4-.89-.61-1.34-.41-.84-.84-1.69-1.3-2.51l-.49-.89A63.2,63.2,0,0,0,33.17,15.7h0C33.24,15.9,33.3,16.09,33.37,16.29Z"/><path class="cls-6" d="M37.23,24.29c3.69-.94,6.28-1,6.73,0,.17.39,0,.91-.44,1.52-1.61,2.21-6.9,5.63-13.59,8.62-6.85,3-13.08,4.72-15.69,4.34-.65-.1-1.07-.32-1.23-.68-.42-.94,1.12-2.65,3.93-4.62a3.87,3.87,0,0,1,.06.46c0,.15,0,.31,0,.46s-.06.4,0,.48A1.5,1.5,0,0,0,18,35a11.39,11.39,0,0,0,2.51-.44c1.21-.33,2.4-.72,3.56-1.16q2.16-.82,4.24-1.78c1.33-.62,2.65-1.28,3.93-2a32.67,32.67,0,0,0,4.06-2.56,7.93,7.93,0,0,0,1.2-1c.2-.22.56-.59.54-.91s-.35-.4-.5-.54Z"/><path class="cls-6" d="M30.65,6.42s0,.06,0,.08c0,1.11-4.52,4.1-10.49,6.86S9,17.64,8.18,16.88a.27.27,0,0,1-.1-.11c-.45-1,4.23-4.11,10.46-7S30.17,5.38,30.63,6.37C30.63,6.39,30.65,6.4,30.65,6.42Z"/><path class="cls-4" d="M37.52,24.62c.15.14.48.33.5.54s-.34.69-.54.91a7.93,7.93,0,0,1-1.2,1,32.67,32.67,0,0,1-4.06,2.56c-1.28.7-2.6,1.36-3.93,2s-2.8,1.23-4.24,1.78c-1.16.44-2.35.83-3.56,1.16A11.39,11.39,0,0,1,18,35a1.5,1.5,0,0,1-.91-.16c-.1-.08,0-.36,0-.48s0-.31,0-.46a3.87,3.87,0,0,0-.06-.46,5,5,0,0,0-.09-.51,16.55,16.55,0,0,0-.66-2.21c-.15-.38-.28-.74-.45-1.1a62.77,62.77,0,0,0,19.31-9,22,22,0,0,0,1.21,2.31,14.05,14.05,0,0,0,.83,1.19c0,.06.09.12.14.17Z"/><path class="cls-4" d="M31.39,9.52c.27,1.06.55,2.12.85,3.17s.6,2,.94,3h0a63.2,63.2,0,0,1-19.83,9.21c-.3-.53-.61-1.05-.92-1.57q-.69-1.12-1.41-2.25c-.41-.64-.82-1.28-1.25-1.92l-1-1.44-.59-.82s0,0,0,0c.84.76,6-.76,12-3.52S30.71,7.61,30.67,6.5c.06.27.11.52.17.78C31,8,31.2,8.77,31.39,9.52Z"/><path class="cls-4" d="M48.62,41a2.78,2.78,0,1,1-2.49,3A2.78,2.78,0,0,1,48.62,41Z"/><path class="cls-4" d="M23.4,43.54a2.78,2.78,0,1,1-2.49,3A2.78,2.78,0,0,1,23.4,43.54Z"/><path class="cls-7" d="M27.87,59.77a1.35,1.35,0,1,0-.27-2.68,1.35,1.35,0,1,0,.27,2.68Zm5.38,1.38a1.35,1.35,0,1,0-1.49-1.21A1.35,1.35,0,0,0,33.25,61.15ZM40,60a1.36,1.36,0,1,0-1.21,1.48A1.35,1.35,0,0,0,40,60Zm2-1.65A1.35,1.35,0,0,0,44.71,58a1.35,1.35,0,0,0-2.68.28Zm3.54-3.08a1.35,1.35,0,1,0,1.21-1.48A1.36,1.36,0,0,0,45.57,55.24Zm-2-29.43a25.15,25.15,0,1,1-29.28,13c2.61.38,8.84-1.29,15.69-4.34C36.62,31.44,41.91,28,43.52,25.81Zm8.16,17.62a2.79,2.79,0,1,0-2.49,3.06A2.78,2.78,0,0,0,51.68,43.43ZM39.6,47.09a2.81,2.81,0,1,0-2.51,3.09A2.82,2.82,0,0,0,39.6,47.09ZM26.46,46A2.79,2.79,0,1,0,24,49.07,2.78,2.78,0,0,0,26.46,46Z"/><path class="cls-8" d="M36.51,44.59A2.81,2.81,0,1,1,34,47.67,2.82,2.82,0,0,1,36.51,44.59Z"/><path class="cls-9" d="M55.68,16.18a8.27,8.27,0,0,1,5.21-3.5c1-.16,2.17,0,2.51,1a1.69,1.69,0,0,1-.3,1.54,5,5,0,0,1-1.21,1.08l-3.75,2.69c-1,.74-2.42,2.21-3.62,2.6-1.6.52-.82-.9-.42-2.11A11.52,11.52,0,0,1,55.68,16.18Z"/><path class="cls-5" d="M60.07,23.89a6.35,6.35,0,0,1,4.68,1.17c.58.47,1.1,1.27.75,1.93a1.33,1.33,0,0,1-1,.62,3.78,3.78,0,0,1-1.25-.13l-3.46-.77A13.59,13.59,0,0,1,56.41,26c-1.12-.65.09-.93,1-1.33A8.88,8.88,0,0,1,60.07,23.89Z"/><path class="cls-5" d="M47.45,16.9a6.36,6.36,0,0,1-.75-4.77c.2-.72.73-1.5,1.48-1.44a1.31,1.31,0,0,1,1,.7,4.16,4.16,0,0,1,.36,1.2c.22,1.16.44,2.32.65,3.49a13.29,13.29,0,0,1,.64,3.36c-.16,1.29-.89.28-1.61-.39A9.07,9.07,0,0,1,47.45,16.9Z"/><g class="cls-10"><path class="cls-4" d="M18.5,29.63a.28.28,0,0,1,.23-.18h.15a.32.32,0,0,1,.17.08c.08,0,.1.08.1.11h0c.09.17.05.26-.1.28S19,30,19,30a.89.89,0,0,0-.2.37,1.23,1.23,0,0,1-.09.23l-.17.44c-.08.24-.18.45-.4.32l-.37-.18-.06,0a1.52,1.52,0,0,0-.43-.2.81.81,0,0,1-.21-.1l-.35-.22-.13-.05,0,0s0,0,0-.05v0l0,0,.18,0,.35.11c.06,0,.13,0,.18.07a2.38,2.38,0,0,0,.51.18,2.05,2.05,0,0,0,.2.08c.08,0,.13,0,.11-.09v0a.28.28,0,0,1,0-.06l.07-.24.05-.15a2.25,2.25,0,0,0,.14-.44C18.4,29.76,18.47,29.7,18.5,29.63Z"/></g><g class="cls-10"><path class="cls-4" d="M22.39,28.54a.3.3,0,0,1,.23-.19h.15a.47.47,0,0,1,.17.09c.08,0,.1.08.1.11h0c.08.16,0,.26-.11.28s-.06,0-.08.05a1,1,0,0,0-.2.37,1.57,1.57,0,0,1-.09.23l-.17.44c-.08.23-.18.45-.4.31l-.37-.18s0,0-.06,0a1.49,1.49,0,0,0-.43-.19,1.36,1.36,0,0,1-.21-.1c-.11-.08-.23-.15-.35-.22l-.13-.05,0,0a.13.13,0,0,1,0-.05v0l0,0a1,1,0,0,1,.18,0l.35.11a.73.73,0,0,1,.19.07,1.85,1.85,0,0,0,.5.17.88.88,0,0,0,.21.09c.07,0,.12,0,.1-.1v0a.28.28,0,0,1,0-.06l.08-.24,0-.15a2.15,2.15,0,0,0,.14-.45C22.29,28.66,22.37,28.61,22.39,28.54Z"/></g><g class="cls-10"><path class="cls-4" d="M26.75,27a.28.28,0,0,1,.23-.18h.15a.36.36,0,0,1,.17.08c.07,0,.09.08.1.11h0c.09.17.05.26-.11.28s-.05,0-.07.05a.89.89,0,0,0-.2.37,1.22,1.22,0,0,1-.1.23l-.16.44c-.08.24-.18.45-.4.32L26,28.47s0,0-.06,0a1.72,1.72,0,0,0-.44-.19.93.93,0,0,1-.2-.1l-.36-.22-.12-.05a.05.05,0,0,1,0,0s0,0,0-.05a0,0,0,0,1,0,0l0,0a1.13,1.13,0,0,1,.18,0l.35.11a.56.56,0,0,1,.18.07,2.38,2.38,0,0,0,.51.18,1.38,1.38,0,0,0,.2.08c.08,0,.12,0,.11-.09v0s0,0,0-.06l.07-.24.05-.15a2.25,2.25,0,0,0,.14-.44C26.65,27.08,26.72,27,26.75,27Z"/></g><g class="cls-10"><path class="cls-4" d="M30.79,24.43a.31.31,0,0,1,.24-.18.33.33,0,0,1,.14,0,.34.34,0,0,1,.18.08c.07.05.09.08.1.11h0c.08.17.05.26-.11.28s-.05,0-.07.05a.91.91,0,0,0-.21.37.79.79,0,0,1-.09.23l-.17.44c-.07.24-.18.45-.39.32L30,26s0,0-.06,0a1.72,1.72,0,0,0-.44-.19.93.93,0,0,1-.2-.1L29,25.41l-.12-.05s0,0,0,0,0,0,0-.05l0,0,0,0a1.13,1.13,0,0,1,.18,0l.34.11a.54.54,0,0,1,.19.07,2.21,2.21,0,0,0,.51.18,1.38,1.38,0,0,0,.2.08c.08,0,.12,0,.11-.09v0s0,0,0-.06l.07-.24.05-.15a1.71,1.71,0,0,0,.13-.44C30.69,24.56,30.77,24.5,30.79,24.43Z"/></g><g class="cls-10"><path class="cls-4" d="M34.44,22.27a.31.31,0,0,1,.21-.22l.14,0a.67.67,0,0,1,.19,0c.08,0,.1.06.11.09h0c.11.15.09.25-.07.3s0,0-.06.06a.8.8,0,0,0-.14.4c0,.09,0,.16,0,.24l-.1.46c0,.24-.1.48-.34.38L34,23.9l-.07,0a1.25,1.25,0,0,0-.46-.12.94.94,0,0,1-.22-.07l-.38-.16-.14,0,0,0a.13.13,0,0,1,0-.05v0l0,0a1.08,1.08,0,0,1,.18,0l.36.06a.64.64,0,0,1,.2,0,2.36,2.36,0,0,0,.52.09,1.94,1.94,0,0,0,.22.06c.08,0,.12,0,.09-.12v-.1l0-.24,0-.16a1.7,1.7,0,0,0,.06-.46C34.37,22.41,34.43,22.34,34.44,22.27Z"/></g><g class="cls-10"><path class="cls-4" d="M21.17,31.69a.28.28,0,0,1,.23-.19h.15a.63.63,0,0,1,.17.08c.08.05.1.09.1.12h0c.09.16.05.26-.1.28s-.06,0-.08.05a.83.83,0,0,0-.2.37,2.18,2.18,0,0,1-.09.23l-.17.44c-.08.23-.18.45-.4.31l-.37-.18-.06,0a1.49,1.49,0,0,0-.43-.19.84.84,0,0,1-.21-.11l-.35-.21a.75.75,0,0,0-.13-.06s0,0,0,0a.13.13,0,0,1,0,0v0l0,0a.52.52,0,0,1,.18,0l.35.11a.49.49,0,0,1,.19.07,3,3,0,0,0,.5.17.88.88,0,0,0,.21.09c.07,0,.12,0,.1-.1v0a.21.21,0,0,1,0-.06l.08-.24,0-.15a2.15,2.15,0,0,0,.14-.45C21.07,31.81,21.15,31.76,21.17,31.69Z"/></g><g class="cls-10"><path class="cls-4" d="M25.53,30.09a.31.31,0,0,1,.23-.18.38.38,0,0,1,.15,0,.52.52,0,0,1,.18.08c.07.05.09.08.1.11s0,0,0,0c.08.17,0,.26-.11.28a.09.09,0,0,0-.07.06.85.85,0,0,0-.21.37,1.45,1.45,0,0,1-.09.22l-.17.44c-.07.24-.18.46-.4.32l-.36-.18-.07,0a1.4,1.4,0,0,0-.43-.2.75.75,0,0,1-.2-.1l-.36-.22L23.59,31l0,0a.43.43,0,0,0,0-.05v0s0,0,.05,0l.18,0,.34.12a.7.7,0,0,1,.19.06,2.3,2.3,0,0,0,.5.18l.21.09c.07,0,.12,0,.1-.1v0s0,0,0-.06l.07-.23,0-.16a1.51,1.51,0,0,0,.14-.44C25.43,30.22,25.51,30.16,25.53,30.09Z"/></g><g class="cls-10"><path class="cls-4" d="M30,27.93a.3.3,0,0,1,.21-.21l.15,0a.42.42,0,0,1,.18.06c.08,0,.1.07.11.1h0c.1.15.08.25-.08.29a.09.09,0,0,0-.06.06.79.79,0,0,0-.16.39,1.68,1.68,0,0,1-.07.24l-.11.46c-.05.24-.13.47-.36.36l-.38-.14-.07,0a1.56,1.56,0,0,0-.45-.14.83.83,0,0,1-.22-.08l-.38-.17-.13,0,0,0a.15.15,0,0,1,0-.06s0,0,0,0,0,0,0,0h.19l.35.07a.65.65,0,0,1,.2,0,2.31,2.31,0,0,0,.52.12,1.43,1.43,0,0,0,.21.06c.08,0,.12,0,.1-.11V29l0-.24,0-.16a1.7,1.7,0,0,0,.08-.45C29.94,28.07,30,28,30,27.93Z"/></g><g class="cls-10"><path class="cls-4" d="M33.58,25.16a.33.33,0,0,1,.2-.23l.14,0a.44.44,0,0,1,.19.05.2.2,0,0,1,.12.09h0c.11.15.1.24,0,.29s0,0-.07.07a.9.9,0,0,0-.13.4.93.93,0,0,1,0,.24l-.08.46c0,.25-.09.48-.33.39l-.4-.11-.06,0a1.34,1.34,0,0,0-.47-.11,1.11,1.11,0,0,1-.22-.07L32,26.46a.61.61,0,0,0-.13,0,.08.08,0,0,1,0,0v-.05a0,0,0,0,1,0,0s0,0,0,0H32l.36.05a.63.63,0,0,1,.19,0,2.43,2.43,0,0,0,.53.08l.22.05c.08,0,.12,0,.08-.12v0s0,0,0-.06l0-.25v-.16a2.22,2.22,0,0,0,.06-.46C33.51,25.3,33.57,25.23,33.58,25.16Z"/></g><g class="cls-10"><path class="cls-4" d="M13.79,18.68A.31.31,0,0,1,14,18.5a.38.38,0,0,1,.15,0,.63.63,0,0,1,.17.08c.08.05.1.08.1.11h0c.08.17.05.26-.11.28a.17.17,0,0,0-.08.06,1,1,0,0,0-.2.37,2.18,2.18,0,0,1-.09.23l-.17.44c-.07.23-.18.45-.4.31L13,20.21l-.07,0a1.52,1.52,0,0,0-.43-.2.54.54,0,0,1-.2-.1L12,19.67a.75.75,0,0,0-.13-.06s0,0,0,0a.2.2,0,0,0,0-.05v0s0,0,0,0a.58.58,0,0,1,.19,0l.34.11a.7.7,0,0,1,.19.06,2.3,2.3,0,0,0,.5.18,1.65,1.65,0,0,0,.21.09c.07,0,.12,0,.1-.1v0a.28.28,0,0,1,0-.06l.08-.23,0-.16a1.51,1.51,0,0,0,.14-.44C13.69,18.81,13.77,18.76,13.79,18.68Z"/></g><g class="cls-10"><path class="cls-4" d="M17.68,17.59a.31.31,0,0,1,.23-.18.38.38,0,0,1,.15,0,.38.38,0,0,1,.18.08c.07.05.09.08.1.11h0c.08.17.05.26-.11.28a.09.09,0,0,0-.07.06.85.85,0,0,0-.21.37,1.45,1.45,0,0,1-.09.22l-.17.44c-.07.24-.18.45-.4.32l-.36-.18-.07,0a1.4,1.4,0,0,0-.43-.2.75.75,0,0,1-.2-.1l-.36-.22-.13-.05,0,0a.43.43,0,0,0,0-.05s0,0,0,0,0,0,0,0l.18,0,.34.12a.7.7,0,0,1,.19.06,2.3,2.3,0,0,0,.5.18c.07,0,.17.08.21.09s.12,0,.1-.1v0s0,0,0-.06l.07-.23,0-.16a1.73,1.73,0,0,0,.14-.44C17.58,17.72,17.66,17.66,17.68,17.59Z"/></g><g class="cls-10"><path class="cls-4" d="M22,16a.28.28,0,0,1,.23-.18h.15a.63.63,0,0,1,.17.08c.08,0,.1.08.1.11h0c.09.17,0,.26-.1.28a.1.1,0,0,0-.08.06.83.83,0,0,0-.2.37,2.18,2.18,0,0,1-.09.23l-.17.43c-.08.24-.18.46-.4.32l-.37-.18-.06,0a1.52,1.52,0,0,0-.43-.2.58.58,0,0,1-.21-.1L20.23,17l-.13-.05,0,0a.13.13,0,0,1,0-.05,0,0,0,0,1,0,0l0,0,.18,0,.35.12a.55.55,0,0,1,.18.06,2.38,2.38,0,0,0,.51.18l.2.09c.08,0,.13,0,.11-.1v0s0,0,0-.06l.07-.23.05-.16a1.89,1.89,0,0,0,.14-.44C21.94,16.13,22,16.08,22,16Z"/></g><g class="cls-10"><path class="cls-4" d="M26.09,13.48a.28.28,0,0,1,.23-.18.38.38,0,0,1,.15,0l.17.08c.07,0,.09.08.1.11h0c.09.17.05.26-.11.28s-.05,0-.07.06a.83.83,0,0,0-.2.37,2.18,2.18,0,0,1-.09.23l-.17.43c-.08.24-.18.46-.4.32L25.33,15l-.06,0a1.46,1.46,0,0,0-.44-.2.62.62,0,0,1-.2-.1c-.12-.07-.24-.14-.35-.22l-.13-.05s0,0,0,0,0,0,0,0,0,0,0,0,0,0,0,0l.18,0,.35.12a.55.55,0,0,1,.18.06,2.38,2.38,0,0,0,.51.18l.2.09c.08,0,.12,0,.11-.1v0s0,0,0-.06l.07-.23.05-.16a1.89,1.89,0,0,0,.14-.44C26,13.61,26.06,13.56,26.09,13.48Z"/></g><g class="cls-10"><path class="cls-4" d="M29.74,11.32a.29.29,0,0,1,.2-.22l.14,0a.67.67,0,0,1,.19.05c.08,0,.1.07.11.1h0c.11.15.09.24-.06.29s0,0-.07.07a.87.87,0,0,0-.14.39,1.69,1.69,0,0,1-.05.24l-.1.46c0,.25-.1.48-.34.38L29.24,13l-.07,0a1.49,1.49,0,0,0-.46-.12.86.86,0,0,1-.21-.07l-.39-.15-.14,0,0,0s0,0,0,0,0,0,0,0,0,0,0,0h.19l.35.06a.64.64,0,0,1,.2,0,2.36,2.36,0,0,0,.53.1l.21.05c.08,0,.12,0,.09-.11v-.1l0-.25,0-.16a1.7,1.7,0,0,0,.07-.46C29.66,11.46,29.73,11.4,29.74,11.32Z"/></g><g class="cls-10"><path class="cls-4" d="M16.46,20.74a.31.31,0,0,1,.23-.18h.15a.32.32,0,0,1,.17.08c.08.05.1.08.1.11s0,0,0,0c.08.17.05.26-.11.28a.08.08,0,0,0-.07.05.91.91,0,0,0-.21.37,1.23,1.23,0,0,1-.09.23l-.17.44c-.07.24-.18.45-.4.32l-.36-.18-.07,0a1.4,1.4,0,0,0-.43-.2.75.75,0,0,1-.2-.1l-.36-.22-.13,0,0,0s0,0,0-.05v0s0,0,.05,0l.18,0,.34.11a1.46,1.46,0,0,1,.19.07,2.3,2.3,0,0,0,.5.18c.07,0,.17.08.21.09s.12,0,.1-.1v-.1l.08-.24,0-.15a1.73,1.73,0,0,0,.14-.44C16.36,20.87,16.44,20.81,16.46,20.74Z"/></g><g class="cls-10"><path class="cls-4" d="M20.82,19.15a.3.3,0,0,1,.24-.19h.14l.18.08a.24.24,0,0,1,.1.12h0c.08.16.05.26-.11.27s-.05,0-.07.06a.85.85,0,0,0-.21.37,2.18,2.18,0,0,1-.09.23l-.17.44c-.07.23-.18.45-.4.31l-.36-.18-.06,0a1.43,1.43,0,0,0-.44-.19.78.78,0,0,1-.2-.11L19,20.13a.52.52,0,0,0-.13-.06s0,0,0,0a.2.2,0,0,0,0-.05v0l.05,0a.57.57,0,0,1,.18,0l.34.11a.7.7,0,0,1,.19.06,2.3,2.3,0,0,0,.5.18l.21.09c.08,0,.12,0,.1-.1v0s0,0,0-.06l.07-.23,0-.15a2.13,2.13,0,0,0,.13-.45C20.72,19.27,20.8,19.22,20.82,19.15Z"/></g><g class="cls-10"><path class="cls-4" d="M25.31,17a.32.32,0,0,1,.21-.21l.15,0a.62.62,0,0,1,.18.06c.08,0,.1.07.11.1h0c.1.16.08.25-.08.29s-.05,0-.06.07a.79.79,0,0,0-.16.39,2.1,2.1,0,0,1-.06.24l-.12.45c0,.24-.12.47-.36.36l-.38-.13-.07,0a1.69,1.69,0,0,0-.45-.14.81.81,0,0,1-.22-.07l-.38-.18-.13,0,0,0s0,0,0-.05a0,0,0,0,1,0,0l0,0h.18l.35.08a.45.45,0,0,1,.2,0,2.29,2.29,0,0,0,.52.11,1.23,1.23,0,0,0,.22.06c.07,0,.12,0,.09-.1v0a.28.28,0,0,1,0-.06l0-.25,0-.15a1.77,1.77,0,0,0,.08-.46C25.23,17.12,25.3,17.06,25.31,17Z"/></g><g class="cls-10"><path class="cls-4" d="M28.87,14.21a.3.3,0,0,1,.2-.22.58.58,0,0,1,.14,0,.54.54,0,0,1,.19,0c.08,0,.11.06.12.09h0c.12.15.1.25-.05.29a.13.13,0,0,0-.06.07,1,1,0,0,0-.14.4,1.72,1.72,0,0,1,0,.24l-.09.47c0,.24-.09.47-.33.38l-.39-.11-.07,0a1.53,1.53,0,0,0-.47-.11.83.83,0,0,1-.21-.06l-.39-.15-.14,0,0,0v-.08l0,0h.18l.36.05a.41.41,0,0,1,.19,0,2.45,2.45,0,0,0,.53.09,1.15,1.15,0,0,0,.22,0c.08,0,.12,0,.09-.11v0a.09.09,0,0,1,0-.06l0-.24v-.16a1.82,1.82,0,0,0,.06-.46C28.8,14.36,28.86,14.29,28.87,14.21Z"/></g><path class="cls-5" d="M6.36,58.31a.22.22,0,0,0-.13-.08H6.15a.5.5,0,0,0,0-.12h0l0,.09s0,0,0,0,.13-.06.11-.09a.08.08,0,0,1,0-.07.15.15,0,0,0,0-.15s0,0,0,0a.43.43,0,0,0,0-.16s0,0,0-.07a1.07,1.07,0,0,0-.15-.22.9.9,0,0,0-.16-.18s-.08,0-.11,0l-.21-.08c-.07,0-.15,0-.21-.06a0,0,0,0,0,0,0H5.28l-.3,0c-.07,0-.13.07-.19.08a.44.44,0,0,0-.18.12s0,0,0,0,0,.07-.07.1-.08.11-.13.16-.07.1-.1.15,0,0,0,.08,0,.07,0,.11,0,.09-.06.14v.13s0,0,0,.07a.38.38,0,0,1,0,.18.33.33,0,0,0,0,.14s0,0,0,.07,0,0,0,0l0,0c.06.09.08.21.18.26s.08.09.12.13l.05,0,.21.07.08,0c.07,0,.15,0,.21.06h0a.15.15,0,0,1,.13,0,.14.14,0,0,0,.14,0s.08,0,.12,0h.06l.11,0h0l.12-.05.06,0s0-.07,0-.07A.44.44,0,0,0,6.07,59a1.12,1.12,0,0,0,.18-.2s0,0,0-.06.06,0,0-.09v0l.11-.11v0A1,1,0,0,0,6.36,58.31Zm-.24.12h0a.68.68,0,0,0,0-.14C6.19,58.34,6.15,58.39,6.12,58.43Z"/><path class="cls-11" d="M67.71,55.61a.22.22,0,0,0-.13-.07l-.07,0h0a.5.5,0,0,0,0-.12h0l0,.1,0,0c.11,0,.13-.06.11-.08s0,0,0-.07a.16.16,0,0,0-.05-.16s0,0,0,0a.43.43,0,0,0,0-.16s0,0,0-.07a1.43,1.43,0,0,0-.15-.22,1.29,1.29,0,0,0-.16-.18l-.11,0-.21-.08c-.07,0-.15,0-.21-.06h0l-.07,0c-.1,0-.2,0-.3,0s-.12.07-.19.09a.54.54,0,0,0-.18.11l0,0s0,.08-.07.1-.08.11-.13.16a.49.49,0,0,0-.1.15s0,.05,0,.08,0,.08,0,.12,0,.09-.06.14v.13s0,0,0,.07a.36.36,0,0,1,0,.18.37.37,0,0,0,0,.14s0,0,0,.06v0l0,0c.06.09.08.21.18.27a1.42,1.42,0,0,1,.13.12l0,0,.21.07.08,0c.07,0,.15,0,.21.06h0a.15.15,0,0,1,.13,0,.2.2,0,0,0,.15,0s.07,0,.11,0h.06l.11,0h0l.12-.05s0,0,.06,0,0-.06,0-.07a.54.54,0,0,0,.18-.11.91.91,0,0,0,.18-.21s0,0,0-.05.06,0,0-.1v0l.11-.11h0A1.07,1.07,0,0,0,67.71,55.61Zm-.24.12h0a.59.59,0,0,0,0-.14C67.54,55.64,67.5,55.69,67.47,55.73Z"/><path class="cls-3" d="M37.78,8.3a.25.25,0,0,0-.12-.07h-.09a.62.62,0,0,0,0-.13h0l0,.09.05,0c.1,0,.12-.06.11-.09a.14.14,0,0,1,0-.07.2.2,0,0,0,0-.16s0,0,0,0a.44.44,0,0,0,0-.16s0,0-.06-.07a1,1,0,0,0-.14-.22.73.73,0,0,0-.17-.18.39.39,0,0,0-.11-.06L37,7.11c-.08,0-.15,0-.22-.05H36.7l-.29,0c-.08,0-.13.07-.2.09a.67.67,0,0,0-.18.11l0,0a.88.88,0,0,1-.06.1c-.06,0-.08.12-.14.16s-.06.1-.09.16,0,0,0,.08a.43.43,0,0,1,0,.11c0,.05,0,.09,0,.14a.27.27,0,0,0,0,.09.08.08,0,0,1,0,0s0,.05,0,.07a.57.57,0,0,1,0,.18.23.23,0,0,0,0,.14.08.08,0,0,1,0,.07s0,0,0,0l0,0c.05.08.07.21.17.26s.08.09.13.12l0,0a1,1,0,0,0,.2.08.18.18,0,0,1,.09,0c.06,0,.14,0,.21.05h0a.34.34,0,0,1,.14,0,.17.17,0,0,0,.14,0s.08,0,.11,0H37l.1,0h0l.12-.05h.05s0-.06,0-.06A.52.52,0,0,0,37.49,9a1.8,1.8,0,0,0,.19-.2s0,0,0-.06.06-.05,0-.09,0,0,0,0l.1-.12s0,0,0,0A1.07,1.07,0,0,0,37.78,8.3Zm-.23.12h0s0-.09,0-.13S37.58,8.38,37.55,8.42Z"/><path class="cls-9" d="M23.79,82.37a6.17,6.17,0,0,1-3.45,3.19c-.69.23-1.61.22-2-.42A1.25,1.25,0,0,1,18.42,84a3.83,3.83,0,0,1,.77-.94l2.47-2.42A12.78,12.78,0,0,1,24,78.28c1.13-.57.71.57.55,1.51A8.33,8.33,0,0,1,23.79,82.37Z"/><path class="cls-5" d="M19.67,77.17a4.73,4.73,0,0,1-3.6-.34c-.49-.27-1-.8-.78-1.33a1,1,0,0,1,.7-.58,2.9,2.9,0,0,1,.93,0l2.65.16a10.29,10.29,0,0,1,2.56.16c.91.36,0,.7-.58,1.1A6.84,6.84,0,0,1,19.67,77.17Z"/><path class="cls-5" d="M29.8,80.91a4.72,4.72,0,0,1,1.1,3.44c-.06.56-.37,1.2-.93,1.24a1,1,0,0,1-.8-.42,3,3,0,0,1-.41-.84l-.88-2.51A10,10,0,0,1,27,79.4c0-1,.63-.3,1.23.11A6.63,6.63,0,0,1,29.8,80.91Z"/></g></g></g></svg>