<svg xmlns="http://www.w3.org/2000/svg" viewBox="0 0 51.77 61.04"><defs><style>.cls-1{fill:#f9e3d4;}.cls-2{fill:#6bb5a3;}.cls-3{fill:#292d37;}.cls-4{fill:#fff;}</style></defs><g id="Слой_2" data-name="Слой 2"><g id="OBJECTS"><rect class="cls-1" width="51.77" height="61.04"/><path class="cls-2" d="M4.48,43H0V24.78l2.18,3.39a.47.47,0,0,1-.45.71H.27l3.24,7a.52.52,0,0,1-.47.74H1.8l3.08,5.75A.46.46,0,0,1,4.48,43Z"/><path class="cls-2" d="M36.18,22.45H30.34V25a.83.83,0,0,1-.76.88H25.35a.84.84,0,0,1-.76-.88V22.45H18.76a.4.4,0,0,1-.22-.06.46.46,0,0,1-.17-.62l1-2v0l1.91-3.68a0,0,0,0,0,0,0l0-.06H20.2a.53.53,0,0,1-.46-.76l3.34-6.95H21.51a.47.47,0,0,1-.45-.7L25.7,0H29l4.9,7.6a.48.48,0,0,1-.46.72H32l.12.25.36.78,2.76,5.93a.53.53,0,0,1-.46.75H33.5l3.07,5.74A.46.46,0,0,1,36.18,22.45Z"/><path class="cls-2" d="M51.77,20.4V47.19H48.71a.84.84,0,0,1-.75-.9V43.74H42.12a.46.46,0,0,1-.39-.68l3-5.74H43.56a.52.52,0,0,1-.45-.76l3.33-7H44.88a.48.48,0,0,1-.46-.7l1.49-2.45,4.3-7.06a.55.55,0,0,1,.91,0Z"/><path class="cls-2" d="M51.77,0V11.08H47.94a.82.82,0,0,1-.75-.88V7.64H41.35A.46.46,0,0,1,41,7l3-5.75H42.79a.52.52,0,0,1-.46-.75L42.55,0Z"/><path class="cls-2" d="M2.37,61l1.74-3.35H3a.52.52,0,0,1-.46-.75l3.1-6.47L5.83,50H4.27a.48.48,0,0,1-.46-.71L6.2,45.37h0l3.41-5.58a.55.55,0,0,1,.9,0l1.68,2.6h0l4.18,6.49s0,0,0,0l.25.38a.35.35,0,0,1,.06.19.48.48,0,0,1-.51.52H14.72L18,57a.52.52,0,0,1-.47.74H16.26L18.05,61Z"/><path class="cls-2" d="M15.2,15.45H9.37V18a.83.83,0,0,1-.76.89H4.38A.84.84,0,0,1,3.62,18V15.45H0V9.76L.38,9H0V5.71L2.11,1.32H1C1.51.86,2,.42,2.57,0h9.94l.39.6a.48.48,0,0,1-.45.72H11l3.23,7a.14.14,0,0,1,0,.06.52.52,0,0,1-.48.69H12.53l3.07,5.73A.47.47,0,0,1,15.2,15.45Z"/><path class="cls-2" d="M41.76,59.16H40.52l1,1.88H27.39l1-1.88H27.23a.53.53,0,0,1-.47-.75l3.34-7H28.42a.46.46,0,0,1-.34-.69l5.8-9.5a.55.55,0,0,1,.91,0l2.36,3.67,3.75,5.83a.48.48,0,0,1-.46.71H39l3.23,7A.53.53,0,0,1,41.76,59.16Z"/><path class="cls-3" d="M16.89,9.52a3.78,3.78,0,0,0-2.64-1.18,3.91,3.91,0,0,0-.57,0,5.82,5.82,0,0,0-1,.06,1.67,1.67,0,0,1-.34.14c-6.14,8.18-7,9.07-7,9.07a1.18,1.18,0,0,0,.48,1.22,15.77,15.77,0,0,0,3.53-2.5c.33-.26.66-.55,1-.84l.46-.41c0,.12,0,.26-.05.41C10.2,19.7,7.46,36.71,6.2,45.36h0c-.32,2.2-.54,3.85-.61,4.62,0,.16,0,.29,0,.37v.07l0,0c1.46,1.92,5.35.92,5.35.92.16-1.36.63-4.73,1.24-9h0C14,29.86,17,9.66,17,9.66Z"/><path class="cls-3" d="M34.48,8.36a13.48,13.48,0,0,0-2.4.21,16.41,16.41,0,0,0-10.76,7.52,0,0,0,0,1,0,0,21.07,21.07,0,0,0-1.91,3.68v0a20.48,20.48,0,0,0-.85,2.58A18.38,18.38,0,0,0,18,26.16,8.05,8.05,0,0,0,25.12,35h0a9.54,9.54,0,0,0,1.32.09h.05c5.87,0,10.71-5.52,13.5-10.5-1.64,9.61-9.68,27.07-18,27.07-4.09,0-5.93-4.5-5.73-7.84-.2-.48-.41-.55-.75-.14v.07a9.23,9.23,0,0,0,.85,5.12s0,0,0,0c.1.2.2.39.31.57A6.13,6.13,0,0,0,22,52.75a16.63,16.63,0,0,0,6.42-1.31,24.25,24.25,0,0,0,8.73-6.53,38.91,38.91,0,0,0,8.08-15.3,29.19,29.19,0,0,0,.68-3.15s0-.07,0-.1C47.77,14.7,44.91,8.36,34.48,8.36Zm5.86,14.05c-2,3.75-7.63,11.86-13.77,11.86-5,0-7.91-3.2-7.71-8.11a18.58,18.58,0,0,1,.56-3.71c1.65-6.53,6.71-12.1,13-13.1a12.48,12.48,0,0,1,2-.17C40.55,9.18,40.89,17.09,40.34,22.41Z"/><path class="cls-4" d="M17.62,3.12a.84.84,0,0,1-.84.85.85.85,0,0,1,0-1.7A.84.84,0,0,1,17.62,3.12Z"/><path class="cls-4" d="M48.14,32.33a.85.85,0,1,1-.85-.85A.85.85,0,0,1,48.14,32.33Z"/><circle class="cls-4" cx="42.52" cy="47.72" r="0.85"/><path class="cls-4" d="M13,54a.85.85,0,1,1-.84-.84A.84.84,0,0,1,13,54Z"/><path class="cls-4" d="M31.8,13.61a.85.85,0,1,1-.84-.85A.85.85,0,0,1,31.8,13.61Z"/><path class="cls-4" d="M32.65,52.48a.85.85,0,1,1-.85-.84A.85.85,0,0,1,32.65,52.48Z"/><path class="cls-4" d="M49,13.61a.85.85,0,1,1-.84-.85A.85.85,0,0,1,49,13.61Z"/><path class="cls-4" d="M26.6,35.56a.85.85,0,1,1-.85-.85A.85.85,0,0,1,26.6,35.56Z"/><path class="cls-4" d="M13.21,30.29a.85.85,0,1,1-.85-.84A.85.85,0,0,1,13.21,30.29Z"/></g></g></svg>