<svg xmlns="http://www.w3.org/2000/svg" viewBox="0 0 94.74 60.32"><defs><style>.cls-1{fill:#292d37;}.cls-2{fill:#137a83;}.cls-3{fill:#f9ba2b;}.cls-4{fill:#fa483c;}.cls-5{fill:#fff;}.cls-6{fill:#007883;}.cls-7{fill:#b3d5d5;}.cls-8{fill:#31b595;}</style></defs><g id="Слой_2" data-name="Слой 2"><g id="OBJECTS"><rect class="cls-1" width="94.74" height="60.32"/><path class="cls-2" d="M80,24.06A4.34,4.34,0,0,1,83,22.82c.51,0,1.12.26,1.19.77a.92.92,0,0,1-.32.77,2.77,2.77,0,0,1-.75.42l-2.24,1a9.38,9.38,0,0,1-2.17.94c-.89.1-.32-.55,0-1.14A5.93,5.93,0,0,1,80,24.06Z"/><path class="cls-3" d="M33.91,48.1a4.32,4.32,0,0,1-2.4,2.31,1.16,1.16,0,0,1-1.4-.26.9.9,0,0,1,0-.83,2.66,2.66,0,0,1,.53-.68l1.71-1.75A9.45,9.45,0,0,1,34,45.2c.79-.42.51.4.42,1.07A6.2,6.2,0,0,1,33.91,48.1Z"/><path class="cls-4" d="M46.29,14.89A4.34,4.34,0,0,1,44.73,12c0-.52.13-1.15.63-1.27a.89.89,0,0,1,.8.23,2.7,2.7,0,0,1,.5.7l1.22,2.12a9.62,9.62,0,0,1,1.18,2c.19.88-.52.39-1.14.11A6.25,6.25,0,0,1,46.29,14.89Z"/><path class="cls-5" d="M8.61,48.39a4.36,4.36,0,0,1-1.56-2.94c0-.51.13-1.14.63-1.27a.92.92,0,0,1,.8.24,2.7,2.7,0,0,1,.5.7c.41.7.81,1.41,1.22,2.12a9.57,9.57,0,0,1,1.17,2c.19.87-.51.38-1.13.11A6.25,6.25,0,0,1,8.61,48.39Z"/><path class="cls-4" d="M22.56,39.84a.44.44,0,0,0-.22-.13l-.13,0h0a1.5,1.5,0,0,0,0-.22h0l0,.17.08,0c.19-.06.22-.11.2-.16a.18.18,0,0,1,0-.12.3.3,0,0,0-.08-.28,0,0,0,0,1,0-.05.88.88,0,0,0,0-.28c0-.06-.07-.08-.1-.12a2.42,2.42,0,0,0-.25-.4,1.76,1.76,0,0,0-.3-.31.69.69,0,0,0-.19-.1l-.37-.14c-.13,0-.27,0-.38-.1s0,0,0,0l-.12,0c-.18,0-.35,0-.52,0s-.23.13-.35.16a.91.91,0,0,0-.32.2l-.07.05c-.05.06-.07.14-.12.18s-.14.2-.24.28a.63.63,0,0,0-.16.27.69.69,0,0,0-.07.15,1.38,1.38,0,0,1,0,.2c0,.08-.08.16-.1.25a.75.75,0,0,0,0,.15.22.22,0,0,1,0,.08s0,.08,0,.12a.89.89,0,0,1,.05.32.54.54,0,0,0,.06.25s.05.07,0,.12,0,0,0,0,0,0,.05.06.13.37.31.47.14.15.22.22l.09.07.36.12a.71.71,0,0,1,.15.08c.12.06.26,0,.38.1h0a.35.35,0,0,1,.24,0,.3.3,0,0,0,.26,0c.05,0,.13,0,.19,0s.08,0,.12,0l.19-.06,0,0,.21-.09.1,0s0-.11,0-.12a.74.74,0,0,0,.31-.21,1.94,1.94,0,0,0,.34-.36s0-.07,0-.1.12-.08.06-.17,0,0,0,0a1.71,1.71,0,0,0,.18-.2,0,0,0,0,0,0,0A1.85,1.85,0,0,0,22.56,39.84Zm-.42.22h0a1.07,1.07,0,0,0,0-.25C22.26,39.9,22.19,40,22.14,40.06Z"/><path class="cls-3" d="M39.11,13a.33.33,0,0,0-.18-.11l-.11,0h0a1.1,1.1,0,0,0,0-.18h0l0,.14.07,0c.16-.05.19-.09.17-.13a.22.22,0,0,1,0-.1.22.22,0,0,0-.07-.24s0,0,0,0a.63.63,0,0,0,0-.24s-.06-.07-.08-.1a2.46,2.46,0,0,0-.22-.34,1.57,1.57,0,0,0-.25-.27.89.89,0,0,0-.17-.08l-.31-.12c-.11,0-.23,0-.33-.09h0l-.1,0c-.15,0-.3,0-.45,0s-.19.11-.3.13a1.11,1.11,0,0,0-.27.17s0,0-.06.05-.06.11-.1.15-.12.17-.2.24a.55.55,0,0,0-.14.23s-.06.08-.06.12a1,1,0,0,1,0,.18c0,.07-.07.13-.08.21a.57.57,0,0,0,0,.13.13.13,0,0,1,0,.06s0,.08,0,.11a.84.84,0,0,1,0,.27.43.43,0,0,0,.06.22s0,0,0,.1,0,0,0,0l0,.05c.08.14.11.32.27.4s.12.13.19.19,0,0,.07.06a1.92,1.92,0,0,0,.31.11.52.52,0,0,1,.13.06c.1.06.22,0,.32.09h0a.28.28,0,0,1,.2,0,.24.24,0,0,0,.22,0s.12,0,.17,0,.07,0,.1,0l.16-.06h0l.18-.08.08,0s0-.09,0-.1a.61.61,0,0,0,.27-.18,1.67,1.67,0,0,0,.28-.31s0-.06,0-.08.1-.07,0-.14,0,0,0,0a.87.87,0,0,0,.16-.17s0,0,0,0A1.45,1.45,0,0,0,39.11,13Zm-.35.18h0l0-.21C38.86,13,38.8,13.07,38.76,13.13Z"/><path class="cls-5" d="M84.53,15.37a.39.39,0,0,0-.18-.12h-.13c0-.07,0-.13,0-.19h0l0,.15s0,0,.07,0,.19-.1.17-.14a.17.17,0,0,1,0-.1.24.24,0,0,0-.07-.24s0,0,0,0a.67.67,0,0,0,0-.24c0-.05-.06-.07-.08-.11a3.78,3.78,0,0,0-.22-.33,1.27,1.27,0,0,0-.25-.27.91.91,0,0,0-.17-.09l-.31-.12c-.11,0-.23,0-.33-.08h0l-.1,0c-.15,0-.3,0-.45,0s-.19.11-.3.13a.91.91,0,0,0-.27.18l-.06,0s-.06.12-.1.15-.12.18-.2.24a.58.58,0,0,0-.14.24s-.06.07-.06.12a1,1,0,0,1,0,.17c0,.07-.07.14-.08.22a.24.24,0,0,0,0,.12s0,0,0,.07,0,.07,0,.11a.8.8,0,0,1,0,.27.39.39,0,0,0,.06.21s0,.06,0,.1,0,0,0,0l0,.05c.08.13.11.32.26.4s.13.13.2.19l.07.06.31.1.13.07c.1.05.22,0,.32.08s0,0,0,0a.28.28,0,0,1,.2,0,.28.28,0,0,0,.22,0s.12,0,.17,0h.1a1,1,0,0,0,.16-.06h0l.19-.07s.05,0,.08,0,0-.1,0-.11a.69.69,0,0,0,.27-.17,2.8,2.8,0,0,0,.28-.31s0-.06,0-.09.1-.07,0-.14,0,0,0,0a1.29,1.29,0,0,0,.16-.17s0,0,0,0A1.17,1.17,0,0,0,84.53,15.37Zm-.35.18h0a1.49,1.49,0,0,0,0-.21C84.28,15.42,84.22,15.49,84.18,15.55Z"/><path class="cls-6" d="M47.87,55.37a.33.33,0,0,0-.18-.11l-.11,0h0a1.1,1.1,0,0,0,0-.18h0l0,.14.07,0c.15-.05.18-.09.16-.13a.16.16,0,0,1,0-.1.25.25,0,0,0-.07-.23,0,0,0,0,1,0,0,1,1,0,0,0,0-.24s-.06-.06-.08-.1a1.66,1.66,0,0,0-.22-.32,1.22,1.22,0,0,0-.24-.27,1.19,1.19,0,0,0-.16-.08l-.31-.12c-.1,0-.22,0-.32-.08h0l-.1,0-.43,0c-.11,0-.19.11-.29.13a.9.9,0,0,0-.26.17l-.07,0s0,.12-.09.15-.12.17-.2.24a.55.55,0,0,0-.14.22s0,.07,0,.12a1,1,0,0,1,0,.17c0,.07-.07.13-.08.21a.48.48,0,0,0,0,.12.17.17,0,0,1,0,.07s0,.07,0,.1a.8.8,0,0,1,0,.27.36.36,0,0,0,.06.2s0,.06,0,.1,0,0,0,0l.05.05c.08.13.1.32.26.4s.11.12.18.18l.07.06.3.1a.52.52,0,0,1,.13.06c.1.05.21,0,.31.09h0a.28.28,0,0,1,.2,0,.26.26,0,0,0,.21,0s.11,0,.16,0,.07,0,.1,0l.16-.06h0l.18-.07s0,0,.08,0,0-.09,0-.1a.73.73,0,0,0,.26-.17,2,2,0,0,0,.28-.3s0-.06,0-.08.1-.07,0-.14,0,0,0,0l.15-.17s0,0,0,0A2.31,2.31,0,0,0,47.87,55.37Zm-.35.18h0l0-.21C47.62,55.42,47.56,55.49,47.52,55.55Z"/><path class="cls-5" d="M9.9,27.46A4.06,4.06,0,0,1,13,26c1.57,0,2.71,1.18,4.46,1.2s2.95-1.82,3.48-2.65c.07-.11.38,0,.35.18-.29,1.25-1.37,4.07-4.09,3.9-2.06-.13-2.72-.8-4.85-.82A4.59,4.59,0,0,0,9,29.37c-.21.11-.24.11-.38-.14-.44-4.58,1.51-7.14,5.86-10,2.71-1.75,7.28-4.15,7.32-8.24a3.79,3.79,0,0,0-3.66-3.81,5.87,5.87,0,0,0-5.68,5.25v.35c-.11.14-.29.21-.39,0s0-.21,0-.31c0-3,3.13-5.7,6.06-5.67C21.43,6.77,25,8.66,25,11.9c0,4.68-5.83,7.1-9.45,9.2C12.36,23,10.46,24,9.9,27.46Z"/><polygon class="cls-5" points="78.36 31.88 63.08 34.55 66.75 54.45 82.91 51.73 78.36 31.88"/><path class="cls-3" d="M80.07,31.23,79.83,30l-1.16.22a.64.64,0,0,1-1.25.23l-.92.18a.64.64,0,0,1-1.26.23l-.92.17a.64.64,0,1,1-1.25.24l-.92.17a.65.65,0,0,1-.51.75.64.64,0,0,1-.74-.51l-.93.17a.64.64,0,1,1-1.25.23l-.92.18a.64.64,0,0,1-.51.74.63.63,0,0,1-.74-.51l-.93.17a.64.64,0,0,1-.5.75.65.65,0,0,1-.75-.51l-.92.17a.64.64,0,0,1-1.25.24L61,33.48l.24,1.27A.64.64,0,0,1,61.51,36l.17.93a.64.64,0,0,1,.75.5.65.65,0,0,1-.51.75l.17.92a.64.64,0,1,1,.23,1.25l.18.92a.64.64,0,0,1,.23,1.26l.17.92a.64.64,0,1,1,.24,1.25l.17.92a.65.65,0,0,1,.75.51.64.64,0,0,1-.51.74l.17.93a.62.62,0,0,1,.74.51.63.63,0,0,1-.51.74l.18.92a.64.64,0,1,1,.23,1.25l.17.93a.64.64,0,0,1,.75.5.65.65,0,0,1-.51.75l.17.92a.64.64,0,0,1,.24,1.25l.21,1.16,1.16-.22a.64.64,0,0,1,.51-.74.62.62,0,0,1,.74.51l.93-.18a.63.63,0,0,1,.5-.74.65.65,0,0,1,.75.51l.92-.17a.64.64,0,1,1,1.25-.24l.92-.17a.64.64,0,0,1,1.26-.24l.92-.17a.64.64,0,0,1,1.25-.23l.92-.18a.64.64,0,0,1,1.26-.23l.92-.17a.64.64,0,0,1,.51-.75.65.65,0,0,1,.74.51l.92-.17a.64.64,0,0,1,.51-.74.62.62,0,0,1,.74.51l1.16-.22L84,52.05a.64.64,0,1,1-.24-1.25l-.17-.92a.64.64,0,0,1-.74-.51.62.62,0,0,1,.51-.74l-.18-.93a.64.64,0,1,1-.23-1.25l-.18-.92A.64.64,0,0,1,82,45a.63.63,0,0,1,.51-.74l-.17-.93a.64.64,0,0,1-.75-.5.65.65,0,0,1,.51-.75l-.17-.92a.64.64,0,0,1-.23-1.25L81.52,39a.64.64,0,0,1-.23-1.26l-.17-.92a.64.64,0,1,1-.24-1.25l-.17-.92a.64.64,0,0,1-.74-.51.62.62,0,0,1,.5-.74l-.17-.93a.64.64,0,0,1-.23-1.25Zm1.56,20L67.07,54,63.59,35.43,78.15,32.7Z"/><polygon class="cls-5" points="51.54 25.36 38.94 22.59 35.48 39.07 48.77 42.08 51.54 25.36"/><path class="cls-7" d="M53.07,25.4l.21-1-1-.2a.52.52,0,0,1-.62.41.54.54,0,0,1-.42-.63l-.76-.15a.53.53,0,1,1-1-.22l-.76-.16a.53.53,0,0,1-1-.21L46.91,23a.53.53,0,1,1-1-.22l-.77-.16a.53.53,0,1,1-1-.21l-.76-.16a.53.53,0,0,1-.63.41.54.54,0,0,1-.41-.63l-.76-.15a.54.54,0,0,1-.63.41.53.53,0,0,1-.41-.63l-.77-.16a.53.53,0,0,1-1-.21l-1-.2-.21,1.05a.53.53,0,1,1-.22,1l-.16.76a.53.53,0,0,1-.21,1l-.16.76a.53.53,0,1,1-.22,1l-.16.77a.53.53,0,1,1-.21,1l-.16.77a.53.53,0,0,1-.21,1l-.16.76a.54.54,0,0,1,.41.63.53.53,0,0,1-.63.41l-.16.77A.53.53,0,1,1,35,34l-.16.77a.52.52,0,0,1,.41.62.54.54,0,0,1-.63.42l-.15.76a.53.53,0,0,1-.22,1l-.16.76a.53.53,0,0,1-.21,1l-.2,1,1,.2a.53.53,0,0,1,1,.21l.76.16a.53.53,0,1,1,1,.22l.76.16a.53.53,0,0,1,1,.21l.77.16a.53.53,0,1,1,1,.22l.77.15a.53.53,0,0,1,1,.22l.76.16a.53.53,0,0,1,1,.21l.77.16a.52.52,0,0,1,.62-.41.53.53,0,0,1,.41.63l.77.16a.53.53,0,0,1,1,.21l1,.2.2-1a.53.53,0,1,1,.21-1l.16-.76a.53.53,0,0,1,.21-1l.16-.76a.54.54,0,0,1-.41-.63.53.53,0,0,1,.63-.41l.16-.77a.53.53,0,0,1,.21-1l.16-.77a.53.53,0,0,1-.41-.63.54.54,0,0,1,.63-.41l.16-.76a.53.53,0,1,1,.21-1l.16-.76a.53.53,0,0,1,.21-1L52.1,30a.53.53,0,1,1,.22-1l.16-.77a.53.53,0,0,1,.21-1l.16-.76a.53.53,0,0,1,.22-1ZM47.94,41.32,35.86,38.81l3.19-15.39,12.08,2.51Z"/><polygon class="cls-5" points="69.72 7.17 58.94 9.66 62.31 23.69 73.71 21.14 69.72 7.17"/><path class="cls-8" d="M70.91,6.65l-.21-.9-.82.2a.46.46,0,0,1-.34.55A.45.45,0,0,1,69,6.17l-.65.15a.46.46,0,0,1-.89.22l-.65.16a.45.45,0,0,1-.33.54.45.45,0,0,1-.55-.33l-.65.16a.46.46,0,0,1-.33.55.45.45,0,0,1-.55-.34l-.65.16a.46.46,0,0,1-.89.21l-.65.16a.45.45,0,0,1-.33.55A.46.46,0,0,1,61.33,8l-.65.16a.45.45,0,0,1-.33.54.45.45,0,0,1-.55-.33l-.65.16a.46.46,0,1,1-.89.21l-.81.2.21.89a.47.47,0,0,1,.55.34.46.46,0,0,1-.33.55l.16.65a.45.45,0,1,1,.21.88l.16.65a.46.46,0,0,1,.55.34.45.45,0,0,1-.34.54l.16.65a.45.45,0,0,1,.55.34.46.46,0,0,1-.33.55l.15.65a.45.45,0,0,1,.55.33.46.46,0,0,1-.33.55l.16.65a.46.46,0,0,1,.55.33.47.47,0,0,1-.34.55l.16.65a.46.46,0,1,1,.21.89l.16.65a.45.45,0,0,1,.55.33.46.46,0,0,1-.33.55l.15.65a.45.45,0,1,1,.22.88l.16.65a.45.45,0,1,1,.21.88l.2.82.82-.2a.45.45,0,1,1,.88-.21l.65-.16a.46.46,0,0,1,.33-.55.45.45,0,0,1,.55.33l.65-.15a.45.45,0,0,1,.34-.55.46.46,0,0,1,.55.33l.65-.16a.45.45,0,0,1,.33-.54.46.46,0,0,1,.55.33l.65-.16a.46.46,0,0,1,.33-.55.45.45,0,0,1,.55.34l.65-.16a.46.46,0,0,1,.34-.55.44.44,0,0,1,.54.34l.65-.16a.47.47,0,0,1,.34-.55.46.46,0,0,1,.55.33l.65-.16a.45.45,0,0,1,.33-.54.45.45,0,0,1,.55.33l.82-.2-.2-.81a.46.46,0,0,1-.21-.89l-.16-.65a.45.45,0,0,1-.55-.33.46.46,0,0,1,.33-.55l-.15-.65a.45.45,0,1,1-.22-.88l-.16-.65a.46.46,0,0,1-.55-.34.46.46,0,0,1,.34-.55L73,15.19a.45.45,0,1,1-.21-.88l-.16-.65a.45.45,0,1,1-.22-.88l-.15-.65a.45.45,0,0,1-.55-.34.44.44,0,0,1,.33-.54l-.16-.66a.46.46,0,0,1-.55-.33.46.46,0,0,1,.34-.55l-.16-.65A.46.46,0,0,1,71,8.73a.45.45,0,0,1,.34-.55l-.16-.65a.45.45,0,0,1-.22-.88Zm1.88,14.2-10.27,2.5L59.34,10.26l10.27-2.5Z"/></g></g></svg>