<svg xmlns="http://www.w3.org/2000/svg" viewBox="0 0 95.43 61.04"><defs><style>.cls-1{fill:#292d37;}.cls-2{fill:#fff;}.cls-3{fill:#c49739;}.cls-4{fill:#9e5a16;}.cls-5{fill:#137a83;}.cls-6{fill:#fa4b3f;}.cls-7{fill:#f9ba2b;}.cls-8{fill:#fa483c;}</style></defs><g id="Слой_2" data-name="Слой 2"><g id="OBJECTS"><rect class="cls-1" x="17.19" y="-17.19" width="61.04" height="95.43" transform="translate(78.24 -17.19) rotate(90)"/><path class="cls-2" d="M6.86,26.67a4.25,4.25,0,0,1,3.22-1.57c1.65,0,2.86,1.21,4.69,1.21s3.07-1.94,3.62-2.82c.08-.11.4,0,.37.18C18.47,25,17.37,28,14.51,27.81,12.35,27.7,11.66,27,9.42,27a4.75,4.75,0,0,0-3.51,1.69c-.22.11-.26.11-.4-.15C5,23.74,7,21,11.55,18c2.81-1.87,7.57-4.43,7.57-8.71a4,4,0,0,0-3.88-4,6.15,6.15,0,0,0-5.89,5.57v.36c-.11.15-.29.22-.4,0v-.33c0-3.19,3.22-6,6.29-6,3.48,0,7.29,1.94,7.29,5.35,0,4.9-6,7.5-9.81,9.74C9.39,22,7.41,23.05,6.86,26.67Z"/><path class="cls-2" d="M27.51,27.81c-9.88,0-5.82-22.92,4.06-22.92C40.61,4.89,34.54,27.81,27.51,27.81ZM31.94,5.33c-5.86,0-10.11,22-4.43,22C34.06,27.37,39.41,5.33,31.94,5.33Z"/><path class="cls-3" d="M87.2,27.53a3.68,3.68,0,0,1-5.2.39,18.92,18.92,0,0,0-2.3-1.58A18.65,18.65,0,0,0,76.94,25l-.15-.06c-.41-.16-.81-.3-1.21-.42a12,12,0,0,0-3.18-.56c4.48,6.68,7.9,16.57,8.58,23,.06.56.1,1.09.11,1.58,0,.14,0,.27,0,.4v0c0,.38,0,.76,0,1.14a13.28,13.28,0,0,1-.16,1.68,7.82,7.82,0,0,1-.76,2.43,4.52,4.52,0,0,1-8.47-.94c-.23-.81-.39-1.48-.53-2.07s-.27-1.23-.41-1.81-.24-1-.4-1.53-.3-1-.5-1.54a1.46,1.46,0,0,0-1.43-1,1.42,1.42,0,0,0-1.16,1.21,18.46,18.46,0,0,0-.16,2.6c0,.52,0,1,.06,1.55s0,.92,0,1.51v.27c0,3.18-1.37,6.61-5.07,6.64-3.88,0-4.84-3.37-5-6.88,0-.84,0-1.68,0-2.48,0-.59.05-1.15.08-1.68h0c0-.52,0-1,.07-1.42.11-3.42,0-6.86,0-10.29,0-2.25-.21-4.91-.09-7.46A19.8,19.8,0,0,1,48,27.43c-.55-.21-1.07-.43-1.57-.67s-.85-.4-1.24-.6l-.62-.34c-.59-.33-1.12-.65-1.59-.95a21.83,21.83,0,0,1-2.13-1.54,3.7,3.7,0,0,1,4.74-5.67,15.84,15.84,0,0,0,1.32.94l.66.42c.36.21.75.43,1.18.65s.8.4,1.23.59.56.24.86.35c.58.21,1.15.39,1.7.53A10.89,10.89,0,1,1,70.19,15.7c-.09.32-.19.63-.3.94a19.73,19.73,0,0,1,9.85,1.47l.73.31c.43.19.85.39,1.25.59a30.21,30.21,0,0,1,3.12,1.83,20.63,20.63,0,0,1,2,1.48A3.69,3.69,0,0,1,87.2,27.53Z"/><path class="cls-4" d="M56.7,10.87a1.78,1.78,0,1,1-2-1.55A1.78,1.78,0,0,1,56.7,10.87Z"/><path class="cls-4" d="M64.26,8.84a1.78,1.78,0,1,1-2-1.55A1.78,1.78,0,0,1,64.26,8.84Z"/><path class="cls-4" d="M56.44,17.34A.57.57,0,0,1,56,18a.58.58,0,0,1-.69-.44.58.58,0,0,1,1.13-.24Z"/><path class="cls-4" d="M59,17.73a.59.59,0,0,1-.45.69.58.58,0,0,1-.68-.45.57.57,0,0,1,.44-.68A.58.58,0,0,1,59,17.73Z"/><path class="cls-4" d="M61.77,17.34a.58.58,0,0,1-.45.68.57.57,0,0,1-.68-.44.58.58,0,0,1,.44-.69A.59.59,0,0,1,61.77,17.34Z"/><path class="cls-4" d="M63.93,16.28a.58.58,0,1,1-1.13.24.58.58,0,0,1,1.13-.24Z"/><path class="cls-4" d="M65.77,14.54a.57.57,0,0,1-.44.68.58.58,0,0,1-.69-.44.57.57,0,0,1,.44-.68A.58.58,0,0,1,65.77,14.54Z"/><path class="cls-5" d="M63.57,23a2.08,2.08,0,1,1-1.82,2.31A2.09,2.09,0,0,1,63.57,23Z"/><path class="cls-6" d="M64.9,29.24a2.08,2.08,0,1,1-1.81,2.31A2.08,2.08,0,0,1,64.9,29.24Z"/><path class="cls-5" d="M66.23,35.61a2.08,2.08,0,1,1,.5,4.13,2.08,2.08,0,0,1-.5-4.13Z"/><path class="cls-6" d="M58.7,46a.73.73,0,1,1,.17,1.46.72.72,0,0,1-.81-.64A.73.73,0,0,1,58.7,46Z"/><path class="cls-5" d="M61.78,46.4A.74.74,0,1,1,62,47.87a.73.73,0,0,1-.81-.65A.74.74,0,0,1,61.78,46.4Z"/><path class="cls-6" d="M65.15,46.3A.74.74,0,0,1,66,47a.74.74,0,1,1-1.47.17A.74.74,0,0,1,65.15,46.3Z"/><path class="cls-6" d="M48.39,25.64a.74.74,0,1,1,.44.94A.73.73,0,0,1,48.39,25.64Z"/><path class="cls-6" d="M49.82,22.59a.74.74,0,1,1,.44.94A.73.73,0,0,1,49.82,22.59Z"/><path class="cls-6" d="M74.85,21.64a.74.74,0,0,1,1-.31.73.73,0,0,1,.31,1,.74.74,0,1,1-1.31-.68Z"/><path class="cls-6" d="M76.66,18.8a.74.74,0,1,1,1.31.69.73.73,0,0,1-1,.31A.75.75,0,0,1,76.66,18.8Z"/><path class="cls-6" d="M72,45.33a.74.74,0,0,1,.38,1.43A.74.74,0,0,1,72,45.33Z"/><path class="cls-5" d="M75.12,45.28a.75.75,0,0,1,.91.53.74.74,0,1,1-.91-.53Z"/><path class="cls-6" d="M78.44,44.72a.73.73,0,1,1-.52.9A.74.74,0,0,1,78.44,44.72Z"/><path class="cls-2" d="M46.87,18.6a2.49,2.49,0,0,1-.41,1c-.42.54-1.24.69-1.55,1.29s-.09,1.12-.26,1.65-.83,1-1.25,1.48a2.42,2.42,0,0,0-.46.83,21.83,21.83,0,0,1-2.13-1.54,3.7,3.7,0,0,1,4.74-5.67A15.84,15.84,0,0,0,46.87,18.6Z"/><path class="cls-2" d="M87.2,27.53a3.68,3.68,0,0,1-5.2.39,18.92,18.92,0,0,0-2.3-1.58,4.25,4.25,0,0,1,.78-1.26c.52-.44,1.35-.43,1.78-.95s.3-1.08.59-1.57,1-.79,1.51-1.2a2.15,2.15,0,0,0,.48-.52,20.63,20.63,0,0,1,2,1.48A3.69,3.69,0,0,1,87.2,27.53Z"/><path class="cls-2" d="M67.21,52.13v.27c0,3.18-1.37,6.61-5.07,6.64-3.88,0-4.84-3.37-5-6.88a2.74,2.74,0,0,1,1-.11c.87.12,1.57.92,2.44.88s1.29-.64,2-.8a6.78,6.78,0,0,1,2.44.42A3.27,3.27,0,0,0,67.21,52.13Z"/><path class="cls-2" d="M81.09,50a13.28,13.28,0,0,1-.16,1.68,7.82,7.82,0,0,1-.76,2.43,4.52,4.52,0,0,1-8.47-.94c-.23-.81-.39-1.48-.53-2.07a3.13,3.13,0,0,1,1.28-.34c.87,0,1.66.73,2.52.58s1.21-.79,1.89-1a6.74,6.74,0,0,1,2.48.12A3.17,3.17,0,0,0,81.09,50Z"/><path class="cls-2" d="M49.94,20.26a2.43,2.43,0,0,1-.26.44,6.23,6.23,0,0,1-.44.55,2.6,2.6,0,0,0-.59.86,2.75,2.75,0,0,0-.07.84,4.59,4.59,0,0,1-.1,1.14,3.9,3.9,0,0,1-1.23,1.79L47.1,26a5.38,5.38,0,0,0-.71.73c-.43-.19-.85-.4-1.24-.6a5.89,5.89,0,0,1,1-1.13l.15-.14a2.73,2.73,0,0,0,.84-1.15,3.13,3.13,0,0,0,.06-.78,3.79,3.79,0,0,1,.13-1.27,3.82,3.82,0,0,1,.86-1.33c.14-.16.26-.31.37-.45a1.12,1.12,0,0,0,.13-.24C49.1,19.88,49.51,20.07,49.94,20.26Z"/><path class="cls-2" d="M81.72,19a2.74,2.74,0,0,1-.4.5c-.18.17-.36.31-.54.46a2.68,2.68,0,0,0-.73.74,3.15,3.15,0,0,0-.22.81,4.09,4.09,0,0,1-.3,1.11A4,4,0,0,1,78,24.18l-.18.11a5,5,0,0,0-.9.67l-.15-.06c-.41-.16-.81-.3-1.21-.42a.91.91,0,0,1,.11-.16,5.11,5.11,0,0,1,1.41-1.17l.17-.11a2.79,2.79,0,0,0,1-1,3.21,3.21,0,0,0,.19-.77,4.06,4.06,0,0,1,.36-1.23,3.74,3.74,0,0,1,1.08-1.15l.44-.38.1-.11C80.9,18.61,81.32,18.81,81.72,19Z"/><path class="cls-2" d="M67.11,49.07c0,.52,0,1,.06,1.55a3.24,3.24,0,0,1-1-.08c-.27-.07-.52-.16-.77-.25A2.91,2.91,0,0,0,64.22,50a3,3,0,0,0-.92.27,5,5,0,0,1-1.25.37,4.37,4.37,0,0,1-2.4-.55l-.22-.1A4.41,4.41,0,0,0,58,49.5a1.16,1.16,0,0,0-.8.18c0-.59.05-1.15.08-1.68h0a2.93,2.93,0,0,1,.88,0,6,6,0,0,1,2,.67l.21.1a3.07,3.07,0,0,0,1.57.41,3.82,3.82,0,0,0,.86-.27,4.42,4.42,0,0,1,1.4-.38,4.49,4.49,0,0,1,1.76.35,6.46,6.46,0,0,0,.63.2A1.71,1.71,0,0,0,67.11,49.07Z"/><path class="cls-2" d="M81,46.89c.06.56.1,1.09.11,1.58a3,3,0,0,1-1.49.27l-.8-.11a3.24,3.24,0,0,0-1.18-.06,3,3,0,0,0-.86.43,5.11,5.11,0,0,1-1.17.58,4.46,4.46,0,0,1-2.46-.12l-.24-.07a4.82,4.82,0,0,0-1.53-.26,1.3,1.3,0,0,0-.6.2c-.11-.49-.24-1-.4-1.53a2.88,2.88,0,0,1,.89-.21,5.94,5.94,0,0,1,2.06.31l.22.06a3.16,3.16,0,0,0,1.62.13,3.52,3.52,0,0,0,.79-.41,3.55,3.55,0,0,1,3.11-.58l.66.09c.45,0,.93-.14,1-.35Z"/><path class="cls-5" d="M48.82,41.13A4.71,4.71,0,0,1,46.69,44c-.48.27-1.17.39-1.53,0a1,1,0,0,1-.13-.88,3.19,3.19,0,0,1,.44-.81L47,40.12A9.42,9.42,0,0,1,48.43,38c.76-.59.61.32.62,1.05A6.37,6.37,0,0,1,48.82,41.13Z"/><path class="cls-6" d="M43,9.46a4,4,0,0,1-.25-3.05c.16-.44.53-.91,1-.84a.85.85,0,0,1,.58.5,2.22,2.22,0,0,1,.18.77l.25,2.23A8.94,8.94,0,0,1,45,11.23c-.16.81-.58.14-1-.32A5.6,5.6,0,0,1,43,9.46Z"/><path class="cls-2" d="M87,32a4,4,0,0,1,2.62,1.58c.27.38.43,1,.1,1.3a.83.83,0,0,1-.74.19,2.47,2.47,0,0,1-.73-.31l-2-1.1a9.13,9.13,0,0,1-1.89-1.06c-.57-.6.22-.55.84-.63A5.77,5.77,0,0,1,87,32Z"/><path class="cls-2" d="M46.45,33.51s-.06,0-.12-.08h-.09a.49.49,0,0,0,0-.12h0l0,.1,0,0c.1,0,.12-.06.11-.09a.14.14,0,0,1,0-.06.18.18,0,0,0,0-.16,0,0,0,0,1,0,0,.44.44,0,0,0,0-.16s0,0-.06-.07l-.14-.22a1.41,1.41,0,0,0-.17-.18l-.11-.05-.2-.08c-.08,0-.15,0-.22-.06h0l-.07,0a2.83,2.83,0,0,0-.29,0c-.08,0-.13.07-.2.09a.67.67,0,0,0-.18.11l0,0a.88.88,0,0,1-.06.1c-.06,0-.08.11-.14.16s-.06.1-.09.15,0,.05,0,.08a.5.5,0,0,1,0,.12s0,.09-.05.14a.22.22,0,0,0,0,.08.09.09,0,0,1,0,0s0,0,0,.07a.52.52,0,0,1,0,.18.39.39,0,0,0,0,.14s0,0,0,.06,0,0,0,0l0,0c0,.09.07.21.17.27s.08.08.13.12l.05,0,.2.07.09,0c.06,0,.14,0,.21.06h0a.18.18,0,0,1,.14,0,.17.17,0,0,0,.14,0s.08,0,.11,0h.07l.1,0h0l.12-.05s0,0,0,0,0-.06,0-.07a.5.5,0,0,0,.17-.11,1.29,1.29,0,0,0,.19-.21s0,0,0-.05.06,0,0-.1,0,0,0,0a.52.52,0,0,0,.1-.11s0,0,0,0A1.07,1.07,0,0,0,46.45,33.51Zm-.23.12h0s0-.09,0-.14S46.25,33.59,46.22,33.63Z"/><path class="cls-7" d="M48.32,4.33s-.06-.06-.12-.08h-.09s0-.08,0-.12h0l0,.1,0,0c.11,0,.13-.06.11-.09s0,0,0-.06a.16.16,0,0,0,0-.16v0a.44.44,0,0,0,0-.16s0,0-.06-.07A1.64,1.64,0,0,0,48,3.45a1.45,1.45,0,0,0-.17-.18l-.11,0-.21-.08c-.07,0-.15,0-.21-.06h-.09c-.1,0-.2,0-.3,0s-.12.07-.19.08a.52.52,0,0,0-.18.12s0,0,0,0,0,.07-.07.1-.08.11-.13.16a.29.29,0,0,0-.09.15s0,.05,0,.08,0,.08,0,.11,0,.1,0,.15a.19.19,0,0,0,0,.08v0s0,0,0,.07a.55.55,0,0,1,0,.18.33.33,0,0,0,0,.14s0,0,0,.07,0,0,0,0l0,0c.05.09.07.21.17.26s.08.09.13.13l0,0,.2.07a.2.2,0,0,1,.08,0c.07,0,.15,0,.21.06h0a.16.16,0,0,1,.13,0,.2.2,0,0,0,.15,0s.07,0,.11,0h.06l.11,0h0l.12-.05.06,0s0-.07,0-.07A.44.44,0,0,0,48,5a1.21,1.21,0,0,0,.19-.2s0,0,0-.06.07,0,0-.09,0,0,0,0l.1-.11v0A1.34,1.34,0,0,0,48.32,4.33Zm-.24.12h0a.68.68,0,0,0,0-.14C48.15,4.36,48.11,4.41,48.08,4.45Z"/><path class="cls-8" d="M85.24,36.85s-.06-.05-.12-.08H85s0-.08,0-.12h0l0,.1,0,0c.11,0,.13-.06.11-.09s0,0,0-.06a.16.16,0,0,0-.05-.16v0a.44.44,0,0,0,0-.16s-.05,0-.06-.07L85,36a1.41,1.41,0,0,0-.17-.18l-.11,0-.21-.08c-.07,0-.15,0-.21-.06h0l-.07,0a1.37,1.37,0,0,0-.29,0c-.08,0-.13.07-.2.09a.67.67,0,0,0-.18.11s0,0,0,0,0,.07-.07.1-.08.11-.13.16a.34.34,0,0,0-.09.15s0,0,0,.08,0,.08,0,.12,0,.09,0,.14a.22.22,0,0,0,0,.08v0a.11.11,0,0,0,0,.08.47.47,0,0,1,0,.17.83.83,0,0,0,0,.15s0,0,0,.06l0,0,0,0c0,.09.07.21.17.27s.08.08.13.12l0,0,.2.07.08,0c.07,0,.15,0,.21.06h0a.16.16,0,0,1,.13,0,.2.2,0,0,0,.15,0s.07,0,.11,0h.06l.11,0h0l.12,0s0,0,.06,0,0-.06,0-.07a.54.54,0,0,0,.18-.11,1.29,1.29,0,0,0,.19-.21s0,0,0,0,.07-.05,0-.1,0,0,0,0l.1-.11h0A1.07,1.07,0,0,0,85.24,36.85ZM85,37h0a.59.59,0,0,0,0-.14C85.07,36.88,85,36.93,85,37Z"/></g></g></svg>