<svg xmlns="http://www.w3.org/2000/svg" viewBox="0 0 78.38 51.52"><defs><style>.cls-1{isolation:isolate;}.cls-2{fill:#292d37;}.cls-3{fill:#5a998a;}.cls-4{opacity:0.57;mix-blend-mode:multiply;}.cls-5{fill:#fff;}</style></defs><g class="cls-1"><g id="Слой_2" data-name="Слой 2"><g id="OBJECTS"><rect class="cls-2" width="78.38" height="51.52"/><polygon class="cls-3" points="35.85 51.52 33.62 51.52 33.58 49.58 35.85 51.52"/><path class="cls-3" d="M4.23,8.46,2.91,16.92l-1.8-1.18L.14,22,0,21.79V11.17Z"/><polygon class="cls-3" points="78.38 45.02 73.18 41.37 75.03 40.27 68.94 35.99 71.74 34.33 70.5 32.25 72.47 31.08 73.71 33.16 76.51 31.49 77.36 38.88 78.38 38.27 78.38 45.02"/><path class="cls-3" d="M36.92,7.13l0,.27-2.39-.78h0l-.7-.23-.05.15-.24.75-.45,1.4L30.91,8l.23-.72.24-.74.28-.85-3.11-1L32.79,0h3.34Z"/><polygon class="cls-3" points="38.17 0.66 36.13 0 38.1 0 38.17 0.66"/><polygon class="cls-3" points="0 43.29 2.83 44.21 2.01 36.81 4.06 37.47 3.12 28.96 0 32.41 0 43.29"/><polygon class="cls-3" points="34.73 28.42 33.3 35.73 31.55 34.49 29.91 42.88 37.28 38.53 35.53 37.29 41.93 33.51 39.27 31.63 40.66 29.65 38.79 28.33 37.4 30.3 34.73 28.42"/><polygon class="cls-3" points="13.35 6.92 15.1 8.16 7.74 12.51 9.37 4.11 11.13 5.35 12.17 0 17.97 0 17.09 1.25 19.76 3.13 13.35 6.92"/><polygon class="cls-3" points="62.2 8.24 62.54 10.63 60.27 10.95 59.93 8.56 56.7 9.01 58.78 1.86 56.65 2.16 57.28 0 61.28 0 62.68 1.31 61.48 1.48 65.44 7.78 62.2 8.24"/><polygon class="cls-3" points="29.91 23.2 19.96 12.16 20.92 26.99 24.37 25.53 25.3 27.73 27.38 26.85 26.46 24.65 29.91 23.2"/><polygon class="cls-3" points="25.83 50.88 22.08 50.88 22.08 51.52 19.82 51.52 19.82 50.88 16.07 50.88 18.21 44.72 19.17 41.97 20.95 36.85 22.12 40.2 23.13 43.13 25.83 50.88"/><polygon class="cls-3" points="58.06 51.52 53.97 51.52 46.64 46.91 49 45.01 49.01 45.01 49.57 44.56 48.08 42.71 49.85 41.29 50.51 42.12 51.33 43.15 54.27 40.81 58.06 51.52"/><polygon class="cls-3" points="50.95 24.16 50.82 9.29 41.71 21.03 45.26 22.23 44.5 24.49 46.64 25.21 47.4 22.96 50.95 24.16"/><g class="cls-4"><path class="cls-3" d="M23,22.22a.21.21,0,0,1,.17-.14h.11l.13.06c.05,0,.07.06.07.09h0c.07.13,0,.2-.08.21s0,0-.05,0a.59.59,0,0,0-.15.28c0,.06-.05.11-.07.17l-.13.32c-.05.18-.13.34-.29.24l-.27-.14,0,0a1,1,0,0,0-.32-.14.8.8,0,0,1-.16-.08L21.61,23l-.1,0,0,0s0,0,0,0a0,0,0,0,1,0,0l0,0,.13,0,.26.09a.33.33,0,0,1,.14,0,1.28,1.28,0,0,0,.37.14.82.82,0,0,0,.16.06s.09,0,.08-.07v0s0,0,0,0l.06-.18,0-.11a1.26,1.26,0,0,0,.1-.33C22.88,22.31,22.94,22.27,23,22.22Z"/></g><g class="cls-4"><path class="cls-3" d="M26,21.21a.21.21,0,0,1,.18-.13h.11a.24.24,0,0,1,.13.06c.05,0,.07.06.07.08h0c.06.12,0,.19-.08.21s0,0-.05,0a.67.67,0,0,0-.16.27,1.15,1.15,0,0,1-.06.17l-.13.33c-.05.17-.13.33-.3.23l-.27-.13,0,0a1.09,1.09,0,0,0-.33-.15A.55.55,0,0,1,25,22.1l-.26-.16-.1,0s0,0,0,0a.1.1,0,0,1,0,0h0l0,0a.61.61,0,0,1,.13,0l.26.08a1.21,1.21,0,0,1,.14.05,1.63,1.63,0,0,0,.37.13l.15.07c.06,0,.09,0,.08-.08v0a.18.18,0,0,1,0-.05l.06-.17,0-.12a1.15,1.15,0,0,0,.1-.33C26,21.31,26,21.27,26,21.21Z"/></g><g class="cls-4"><path class="cls-3" d="M22.18,19.31a.21.21,0,0,1,.17-.14.2.2,0,0,1,.11,0,.36.36,0,0,1,.13.06c.06,0,.07.06.08.08h0c.06.12,0,.19-.08.21s0,0-.06,0a.65.65,0,0,0-.15.27.44.44,0,0,1-.07.17l-.12.33c-.06.17-.14.34-.3.23l-.27-.13-.05,0a1,1,0,0,0-.32-.15.41.41,0,0,1-.15-.07L20.83,20l-.09,0a.05.05,0,0,1,0,0s0,0,0,0v0l0,0,.14,0,.25.08a.58.58,0,0,1,.14.05,1.9,1.9,0,0,0,.38.13l.15.07c.06,0,.09,0,.08-.07v0a.18.18,0,0,1,0-.05l.05-.17,0-.12a1.59,1.59,0,0,0,.1-.33C22.11,19.4,22.16,19.36,22.18,19.31Z"/></g><g class="cls-4"><path class="cls-3" d="M22.87,17.13a.24.24,0,0,1,.18-.14h.11a.36.36,0,0,1,.13.06.21.21,0,0,1,.07.08h0c.06.13,0,.19-.08.21s0,0-.05,0a.71.71,0,0,0-.16.28,1.15,1.15,0,0,1-.06.17l-.13.32c-.05.18-.13.34-.3.24l-.27-.14,0,0a1.09,1.09,0,0,0-.33-.15.51.51,0,0,1-.15-.07l-.26-.16-.1,0s0,0,0,0a.06.06,0,0,1,0,0v0l0,0,.13,0,.26.08a1.21,1.21,0,0,1,.14.05,1.63,1.63,0,0,0,.37.13.93.93,0,0,0,.15.07c.06,0,.09,0,.08-.07v0a.18.18,0,0,1,0-.05l.06-.17,0-.12a1.09,1.09,0,0,0,.1-.32C22.8,17.22,22.86,17.18,22.87,17.13Z"/></g><g class="cls-4"><path class="cls-3" d="M21.88,15.3a.22.22,0,0,1,.17-.14h.11l.13.06a.19.19,0,0,1,.08.09h0c.06.12,0,.19-.08.2l-.06,0a.76.76,0,0,0-.15.28A.61.61,0,0,1,22,16l-.12.32c-.06.18-.14.34-.3.24l-.27-.14-.05,0a1,1,0,0,0-.32-.14.71.71,0,0,1-.15-.08L20.53,16l-.09,0s0,0,0,0,0,0,0,0h0s0,0,0,0l.14,0,.25.09A.33.33,0,0,1,21,16a1.46,1.46,0,0,0,.38.14.77.77,0,0,0,.15.06c.06,0,.09,0,.08-.07v-.07l.05-.18,0-.11a1.8,1.8,0,0,0,.1-.33C21.81,15.39,21.86,15.35,21.88,15.3Z"/></g><g class="cls-4"><path class="cls-3" d="M23.87,20.17A.21.21,0,0,1,24,20a.2.2,0,0,1,.11,0,.36.36,0,0,1,.13.06s.07.06.07.08h0c.07.13,0,.19-.08.21s0,0-.05,0a.56.56,0,0,0-.15.27,1.47,1.47,0,0,1-.07.17l-.13.33c-.05.18-.13.34-.29.23l-.27-.13,0,0a1,1,0,0,0-.32-.15.46.46,0,0,1-.16-.07l-.26-.16-.1,0s0,0,0,0a.1.1,0,0,0,0,0s0,0,0,0l0,0,.13,0,.26.08a.58.58,0,0,1,.14,0,1.63,1.63,0,0,0,.37.13l.16.07s.09,0,.08-.07v0a.18.18,0,0,1,0-.05l.06-.17,0-.12a1.06,1.06,0,0,0,.1-.33C23.79,20.26,23.85,20.22,23.87,20.17Z"/></g><g class="cls-4"><path class="cls-3" d="M24.7,18.41a.24.24,0,0,1,.18-.14H25l.12.06a.19.19,0,0,1,.08.09h0c.06.12,0,.19-.08.2a.11.11,0,0,0-.05,0,.78.78,0,0,0-.16.28,1.15,1.15,0,0,1-.06.17l-.13.33c-.06.17-.13.33-.3.23l-.27-.14,0,0a1.06,1.06,0,0,0-.33-.14l-.15-.08-.26-.16-.1,0s0,0,0,0a.1.1,0,0,1,0,0h0l0,0,.13,0,.26.09a.48.48,0,0,1,.14,0,1.63,1.63,0,0,0,.37.13.77.77,0,0,0,.15.06c.06,0,.09,0,.08-.07V19.2l.05-.18,0-.11a1.8,1.8,0,0,0,.1-.33C24.63,18.5,24.69,18.46,24.7,18.41Z"/></g><g class="cls-4"><path class="cls-3" d="M25.24,23.32a.24.24,0,0,1,.17-.14h.11a.36.36,0,0,1,.13.06c.06,0,.07.06.08.08h0c.06.13,0,.19-.08.21s0,0-.06,0a.65.65,0,0,0-.15.27.44.44,0,0,1-.07.17l-.12.33c-.06.18-.14.34-.3.24l-.27-.14-.05,0a1,1,0,0,0-.32-.15.41.41,0,0,1-.15-.07l-.27-.16-.09,0,0,0s0,0,0,0a0,0,0,0,1,0,0l0,0,.14,0,.25.08a.58.58,0,0,1,.14.05,1.9,1.9,0,0,0,.38.13l.15.07c.06,0,.09,0,.08-.07V24.1l.05-.17,0-.12a1.5,1.5,0,0,0,.1-.32C25.17,23.41,25.22,23.37,25.24,23.32Z"/></g><g class="cls-4"><path class="cls-3" d="M22.66,24.39a.22.22,0,0,1,.17-.14h.11l.13.06c.05,0,.07.06.07.08h0c.06.13,0,.2-.08.21a.06.06,0,0,0-.06,0,.59.59,0,0,0-.15.28,1.22,1.22,0,0,1-.07.17l-.13.32c-.05.18-.13.34-.29.24l-.27-.14-.05,0a1.33,1.33,0,0,0-.32-.15.35.35,0,0,1-.15-.07l-.27-.16-.09,0,0,0s0,0,0,0a0,0,0,0,1,0,0l0,0,.13,0,.26.09a.33.33,0,0,1,.14,0,2.13,2.13,0,0,0,.38.14c.05,0,.12.06.15.06s.09,0,.08-.07v0s0,0,0,0l.05-.17,0-.11a1.28,1.28,0,0,0,.11-.33C22.58,24.48,22.64,24.44,22.66,24.39Z"/></g><g class="cls-4"><path class="cls-3" d="M27.81,22.22a.24.24,0,0,1,.18-.14h.11l.13.06c.05,0,.07.06.07.09h0c.07.13,0,.2-.08.21s0,0,0,0a.59.59,0,0,0-.15.28c0,.06-.05.11-.07.17l-.13.32c-.05.18-.13.34-.29.24l-.28-.14,0,0a1.06,1.06,0,0,0-.33-.14l-.15-.08L26.47,23l-.1,0,0,0a.06.06,0,0,1,0,0,0,0,0,0,1,0,0l0,0,.13,0,.26.09a.37.37,0,0,1,.14,0,1.28,1.28,0,0,0,.37.14.64.64,0,0,0,.16.06c.05,0,.09,0,.07-.07v0s0,0,0,0l.06-.18,0-.11a1.26,1.26,0,0,0,.1-.33C27.74,22.31,27.8,22.27,27.81,22.22Z"/></g><g class="cls-4"><path class="cls-3" d="M53.77,46.27a.2.2,0,0,1-.13.18l-.1,0-.14,0c-.07,0-.09,0-.1-.06h0c-.09-.1-.09-.18,0-.22s0,0,0-.06a.74.74,0,0,0,.08-.3,1,1,0,0,1,0-.18l0-.35c0-.19,0-.36.22-.31L54,45h.05a1.41,1.41,0,0,0,.35.05,1,1,0,0,1,.17,0l.29.09H55l0,0v.06s0,0,0,0l-.13,0-.27,0a.75.75,0,0,1-.15,0,1.8,1.8,0,0,0-.4,0,.5.5,0,0,0-.16,0c-.06,0-.09,0-.06.09v0a.07.07,0,0,1,0,0v.3a1,1,0,0,0,0,.35A.48.48,0,0,1,53.77,46.27Z"/></g><g class="cls-4"><path class="cls-3" d="M51.07,48.07a.2.2,0,0,1-.13.18l-.1,0a.44.44,0,0,1-.15,0c-.06,0-.08,0-.09-.06h0c-.1-.1-.09-.18,0-.22s0,0,0-.06a.6.6,0,0,0,.07-.3c0-.07,0-.12,0-.18l0-.35c0-.19,0-.36.22-.31l.3.06h0a1,1,0,0,0,.35,0l.16,0,.3.09h.1l0,0a.06.06,0,0,1,0,0s0,0,0,0,0,0,0,0l-.14,0-.26,0h-.15a1.8,1.8,0,0,0-.4,0,.5.5,0,0,0-.16,0c-.06,0-.09,0-.06.09v.37a2,2,0,0,0,0,.35C51.12,48,51.07,48,51.07,48.07Z"/></g><g class="cls-4"><path class="cls-3" d="M55.31,48.87a.24.24,0,0,1-.13.18l-.11,0-.14,0c-.06,0-.08,0-.09-.06h0c-.09-.11-.08-.18,0-.23a.08.08,0,0,0,0,0A.64.64,0,0,0,55,48.4a.55.55,0,0,1,0-.18l0-.35c0-.18,0-.36.22-.3l.3.06h.05a1.07,1.07,0,0,0,.35.06.51.51,0,0,1,.17,0l.3.08.1,0,0,0v.06s0,0,0,0h-.4a.38.38,0,0,1-.15,0,1.28,1.28,0,0,0-.39,0l-.17,0c-.06,0-.09,0,0,.09v0s0,0,0,0v.3a1.28,1.28,0,0,0,0,.34C55.35,48.76,55.31,48.81,55.31,48.87Z"/></g><g class="cls-4"><path class="cls-3" d="M55.23,51.15a.24.24,0,0,1-.13.18l-.11,0a.26.26,0,0,1-.14,0c-.06,0-.08,0-.09-.06h0c-.09-.1-.09-.18,0-.22a.05.05,0,0,0,0,0,.58.58,0,0,0,.08-.31.55.55,0,0,1,0-.18l0-.35c0-.18,0-.36.22-.31l.3.06h0a1.06,1.06,0,0,0,.35,0A1,1,0,0,1,56,50l.3.09h.1l0,0v.06l0,0-.13,0-.27,0h-.15a1.75,1.75,0,0,0-.4,0,.5.5,0,0,0-.16,0c-.06,0-.09,0-.06.09v0s0,0,0,0v.3a1.37,1.37,0,0,0,0,.35C55.27,51,55.23,51.1,55.23,51.15Z"/></g><g class="cls-4"><path class="cls-3" d="M57.56,51.52H56.4c0-.12.07-.22.21-.17l.3,0H57a1.06,1.06,0,0,0,.35.05.53.53,0,0,1,.17,0Z"/></g><g class="cls-4"><path class="cls-3" d="M53.45,48.49a.2.2,0,0,1-.13.18.18.18,0,0,1-.11,0,.26.26,0,0,1-.14,0c-.06,0-.08,0-.09-.06h0c-.1-.1-.09-.17,0-.22s0,0,0,0a.67.67,0,0,0,.07-.31c0-.06,0-.12,0-.18l0-.35c0-.18,0-.36.23-.31l.29.06h.06a1,1,0,0,0,.35.05l.16,0,.3.09h.1l0,0s0,0,0,0v0s0,0,0,0l-.14,0h-.27s-.1,0-.14,0a1.8,1.8,0,0,0-.4,0l-.16,0c-.06,0-.09,0-.06.09V48a1.9,1.9,0,0,0,0,.34C53.5,48.38,53.45,48.44,53.45,48.49Z"/></g><g class="cls-4"><path class="cls-3" d="M53.12,50.41a.24.24,0,0,1-.13.18l-.11,0-.14,0c-.06,0-.08,0-.09-.06h0c-.09-.11-.08-.18,0-.22l0-.06a.6.6,0,0,0,.07-.3,1.11,1.11,0,0,1,0-.19l0-.34c0-.19,0-.36.22-.31l.3.06h0a1.48,1.48,0,0,0,.35,0,1,1,0,0,1,.17,0l.3.08.1,0,0,0v.06l0,0h-.41a.38.38,0,0,1-.15,0,1.7,1.7,0,0,0-.39,0,.59.59,0,0,0-.17,0c-.05,0-.08,0-.05.09v0s0,0,0,0v.3a2,2,0,0,0,0,.35C53.16,50.3,53.12,50.35,53.12,50.41Z"/></g><g class="cls-4"><path class="cls-3" d="M51.28,45.83a.22.22,0,0,1-.13.18L51,46l-.14,0L50.81,46h0c-.09-.1-.08-.18,0-.22a.21.21,0,0,0,0-.06.6.6,0,0,0,.07-.3,1.23,1.23,0,0,1,0-.19l0-.34c0-.19,0-.36.23-.31l.29.06h.05a1.48,1.48,0,0,0,.35,0,.86.86,0,0,1,.17,0l.3.09h.1l0,0v.06l0,0a.33.33,0,0,1-.14,0h-.27a.38.38,0,0,1-.15,0,1.7,1.7,0,0,0-.39,0,.59.59,0,0,0-.17,0s-.08,0,0,.09v.37a2,2,0,0,0,0,.35C51.33,45.72,51.28,45.77,51.28,45.83Z"/></g><g class="cls-4"><path class="cls-3" d="M53.48,44.1a.24.24,0,0,1-.13.18l-.11,0a.26.26,0,0,1-.14,0c-.06,0-.08,0-.09-.06h0c-.09-.1-.08-.18,0-.22s0,0,0-.06a.6.6,0,0,0,.07-.3.55.55,0,0,1,0-.18l0-.35c0-.18,0-.36.22-.31l.3.06h0a1.06,1.06,0,0,0,.35.05,1,1,0,0,1,.17,0l.3.09h.1l0,0v.06l0,0-.13,0-.27,0a.75.75,0,0,1-.15,0,1.71,1.71,0,0,0-.39,0,.59.59,0,0,0-.17,0c-.06,0-.08,0,0,.09v0s0,0,0,0v.3a1.37,1.37,0,0,0,0,.35C53.52,44,53.48,44.05,53.48,44.1Z"/></g><g class="cls-4"><path class="cls-3" d="M49.09,47.58a.2.2,0,0,1-.13.18l-.1,0-.14,0-.1-.06h0c-.09-.1-.09-.18,0-.22a.06.06,0,0,0,0-.06.61.61,0,0,0,.08-.3.62.62,0,0,1,0-.19l0-.34c0-.19,0-.36.22-.31l.3.06h.05a1.41,1.41,0,0,0,.35,0,1,1,0,0,1,.17,0l.3.09h.1l0,0v.06s0,0,0,0a.29.29,0,0,1-.13,0H49.9a.38.38,0,0,1-.15,0,1.76,1.76,0,0,0-.4,0,.5.5,0,0,0-.16,0c-.06,0-.09,0-.06.09v0a.07.07,0,0,1,0,0v.3a1.36,1.36,0,0,0,0,.35C49.14,47.47,49.1,47.52,49.09,47.58Z"/></g><g class="cls-4"><path class="cls-3" d="M20,47.2a.24.24,0,0,1,.21-.07l.1,0s.06,0,.1.1a.14.14,0,0,1,0,.1h0c0,.14,0,.2-.15.17s0,0-.06,0a.69.69,0,0,0-.24.21.74.74,0,0,1-.12.13l-.23.27c-.11.14-.24.27-.36.12l-.21-.22,0,0a1.18,1.18,0,0,0-.26-.24.74.74,0,0,1-.12-.13l-.19-.24s-.05,0-.08-.07a.08.08,0,0,0,0,0l0,0h0s0,0,0,0l.12.06.22.17s.08,0,.11.09.21.16.31.25l.12.12c.05,0,.09,0,.1,0v0l0,0,.11-.15.07-.09a1.21,1.21,0,0,0,.21-.28C19.91,47.27,20,47.25,20,47.2Z"/></g><g class="cls-4"><path class="cls-3" d="M23.26,47.31a.21.21,0,0,1,.21-.07.21.21,0,0,1,.1,0,.24.24,0,0,1,.1.1.17.17,0,0,1,0,.1h0c0,.14,0,.19-.14.16l-.07,0a.67.67,0,0,0-.23.21,1.74,1.74,0,0,1-.12.14l-.23.26c-.12.15-.24.27-.36.12l-.21-.22,0,0a1,1,0,0,0-.25-.25.68.68,0,0,1-.12-.12l-.19-.24-.08-.07a.06.06,0,0,1,0,0l0,0v0h0l.12.07.21.16a.38.38,0,0,1,.12.1c.08.11.21.16.3.25a1.09,1.09,0,0,0,.13.11c.05,0,.08,0,.09,0v0s0,0,0,0l.11-.14.07-.1a1.94,1.94,0,0,0,.21-.27C23.16,47.37,23.23,47.35,23.26,47.31Z"/></g><g class="cls-4"><path class="cls-3" d="M20.28,44.2a.19.19,0,0,1,.21-.07.26.26,0,0,1,.1,0s.06,0,.1.1a.14.14,0,0,1,0,.1h0c0,.14,0,.19-.15.17s0,0-.06,0a.66.66,0,0,0-.24.2.81.81,0,0,1-.12.14l-.23.26c-.11.15-.24.27-.36.12l-.21-.22,0,0a1.23,1.23,0,0,0-.26-.25.63.63,0,0,1-.11-.12l-.2-.24-.07-.07s0,0,0,0l0,0,0,0h0a.41.41,0,0,1,.11.07l.22.17a.48.48,0,0,1,.11.09,1.89,1.89,0,0,0,.31.25.57.57,0,0,0,.12.11c.05,0,.09,0,.1,0v0l0,0,.11-.15.07-.1a1.39,1.39,0,0,0,.21-.27C20.17,44.26,20.24,44.24,20.28,44.2Z"/></g><g class="cls-4"><path class="cls-3" d="M21.67,42.39a.2.2,0,0,1,.21-.07l.1,0a.47.47,0,0,1,.1.1c0,.06.05.09,0,.11h0c0,.13,0,.19-.14.16l-.07,0a.69.69,0,0,0-.24.21,1.49,1.49,0,0,1-.12.14l-.23.26c-.11.15-.24.27-.35.12l-.21-.22,0,0a1,1,0,0,0-.26-.25,1.31,1.31,0,0,1-.11-.12l-.2-.25-.07-.07s0,0,0,0l0,0h.05l.12.07.21.16s.09,0,.11.1a1.89,1.89,0,0,0,.31.25l.12.11s.09,0,.1,0v0l0,0,.11-.14.07-.1a1.94,1.94,0,0,0,.21-.27C21.57,42.45,21.63,42.43,21.67,42.39Z"/></g><g class="cls-4"><path class="cls-3" d="M21.36,40.33a.21.21,0,0,1,.21-.07l.1,0s.06.05.1.1a.14.14,0,0,1,0,.1h0c0,.14,0,.19-.15.17s0,0-.06,0a.66.66,0,0,0-.24.2.55.55,0,0,1-.12.14l-.23.27c-.11.14-.24.27-.36.12l-.21-.22,0,0a1.23,1.23,0,0,0-.26-.25A.63.63,0,0,1,20,40.8l-.2-.24a.46.46,0,0,0-.07-.07s0,0,0,0,0,0,0,0h0l0,0,.12.07.21.17a.48.48,0,0,1,.11.09,1.89,1.89,0,0,0,.31.25l.12.12c.05,0,.09,0,.1-.05v0s0,0,0,0l.11-.15.07-.09a1.14,1.14,0,0,0,.21-.28C21.25,40.39,21.32,40.37,21.36,40.33Z"/></g><g class="cls-4"><path class="cls-3" d="M21.57,45.58a.25.25,0,0,1,.21-.07l.1,0a.24.24,0,0,1,.1.1c0,.05.05.08,0,.1h0c0,.14,0,.2-.14.17s-.05,0-.07,0a.6.6,0,0,0-.24.21.74.74,0,0,1-.12.13l-.23.27c-.11.14-.24.27-.35.12l-.21-.22,0,0a1.48,1.48,0,0,0-.25-.25.46.46,0,0,1-.12-.12l-.2-.24a.46.46,0,0,0-.07-.07s0,0,0,0l0,0h0s0,0,0,0l.12.06.21.17a.54.54,0,0,1,.12.09c.07.12.21.16.3.25l.12.12c.06,0,.09,0,.1,0v0s0,0,0,0l.11-.15.07-.09a2,2,0,0,0,.21-.28C21.47,45.64,21.54,45.63,21.57,45.58Z"/></g><g class="cls-4"><path class="cls-3" d="M23,44.22a.21.21,0,0,1,.21-.07l.11,0,.1.1a.18.18,0,0,1,0,.11h0c0,.13,0,.19-.15.16l-.06,0a.69.69,0,0,0-.24.21,1.49,1.49,0,0,1-.12.14l-.23.26c-.11.15-.24.27-.36.12L22,45.09l0,0a1,1,0,0,0-.25-.24.68.68,0,0,1-.12-.12l-.19-.25-.08-.07v0s0,0,0,0h.05a.47.47,0,0,1,.12.07l.21.16a.54.54,0,0,1,.12.09c.08.12.21.17.31.26s.09.1.12.11.08,0,.1,0v0s0,0,0,0l.11-.14.07-.1a1.39,1.39,0,0,0,.21-.27C22.85,44.28,22.92,44.26,23,44.22Z"/></g><g class="cls-4"><path class="cls-3" d="M21.79,49a.22.22,0,0,1,.21-.07l.1,0a.24.24,0,0,1,.1.1.17.17,0,0,1,.05.1h0c0,.14,0,.2-.14.17s-.05,0-.07,0a.52.52,0,0,0-.23.21l-.13.13-.23.27c-.11.14-.24.27-.35.12l-.21-.22,0,0a1.48,1.48,0,0,0-.25-.25.46.46,0,0,1-.12-.12l-.2-.24-.07-.07s0,0,0,0l0,0h0s0,0,0,0l.12.06.21.17a.54.54,0,0,1,.12.09c.07.12.21.16.3.25l.12.12c.06,0,.09,0,.1-.05v0s0,0,0,0l.11-.15.07-.09a2,2,0,0,0,.21-.28C21.69,49.07,21.76,49.06,21.79,49Z"/></g><g class="cls-4"><path class="cls-3" d="M19,49.14a.21.21,0,0,1,.21-.07l.1,0a.24.24,0,0,1,.1.1.14.14,0,0,1,0,.1h0c0,.14,0,.19-.15.17s0,0-.06,0a.6.6,0,0,0-.24.21.74.74,0,0,1-.12.13l-.23.27c-.11.14-.24.27-.36.12L18.08,50l0,0a1.23,1.23,0,0,0-.26-.25.63.63,0,0,1-.11-.12l-.2-.24-.07-.07s0,0,0,0a.1.1,0,0,0,0,0h0s0,0,0,0l.12.06.21.17a.48.48,0,0,1,.11.09c.08.12.21.16.31.25a1.35,1.35,0,0,0,.12.12c.05,0,.09,0,.1,0v0l0,0,.11-.15.07-.09a1.14,1.14,0,0,0,.21-.28C18.89,49.2,19,49.19,19,49.14Z"/></g><g class="cls-4"><path class="cls-3" d="M24.58,48.86a.21.21,0,0,1,.21-.07l.11,0,.1.1A.18.18,0,0,1,25,49h0c0,.13,0,.19-.15.16l-.06,0a.69.69,0,0,0-.24.21,1.49,1.49,0,0,1-.12.14l-.23.26c-.11.15-.24.27-.36.12l-.21-.22,0,0a1,1,0,0,0-.25-.24.68.68,0,0,1-.12-.12l-.19-.25L23,49a.1.1,0,0,1,0,0l0,0h.05a.47.47,0,0,1,.12.07l.21.16a.54.54,0,0,1,.12.09c.08.12.21.17.31.26s.09.1.12.11.09,0,.1,0v0l0,0,.11-.14.07-.1a1.39,1.39,0,0,0,.21-.27C24.48,48.92,24.55,48.9,24.58,48.86Z"/></g><polygon class="cls-3" points="72.68 25.68 78.14 11.85 65.28 19.32 68.12 21.76 66.57 23.56 68.29 25.04 69.84 23.24 72.68 25.68"/><g class="cls-4"><path class="cls-3" d="M70.68,19.1a.21.21,0,0,1,.2.08.31.31,0,0,1,.05.1.29.29,0,0,1,0,.14c0,.07,0,.09,0,.1h0c-.08.12-.15.13-.22,0l-.06,0a.7.7,0,0,0-.32,0,1.1,1.1,0,0,1-.18,0l-.34.05c-.18,0-.36.05-.35-.14l0-.3v-.06a1.38,1.38,0,0,0,0-.35.47.47,0,0,1,0-.17v-.31s0-.06,0-.1a0,0,0,0,1,0,0l0,0h0l0,0a.5.5,0,0,1,0,.13l0,.26a.66.66,0,0,1,0,.15,1.34,1.34,0,0,0,.07.39c0,.05,0,.13,0,.16s0,.08.1,0l0,0h0l.17,0,.12,0a1.37,1.37,0,0,0,.34-.07C70.56,19.08,70.62,19.11,70.68,19.1Z"/></g><g class="cls-4"><path class="cls-3" d="M73.07,21.29a.21.21,0,0,1,.2.09.35.35,0,0,1,.06.09.53.53,0,0,1,0,.14c0,.07,0,.09,0,.11h0c-.07.11-.15.12-.22,0s0,0-.06,0a.65.65,0,0,0-.31,0l-.18,0-.35,0c-.18,0-.36.05-.35-.15l0-.3v-.05a1,1,0,0,0,0-.35.5.5,0,0,1,0-.17v-.31s0-.07,0-.1,0,0,0,0h.1c0,.05,0,.09,0,.13l.06.27s0,.09,0,.14a2.44,2.44,0,0,0,.07.39c0,.06,0,.14,0,.17s0,.07.1,0h0l0,0,.18,0,.11,0a1.3,1.3,0,0,0,.34-.08C73,21.27,73,21.3,73.07,21.29Z"/></g><g class="cls-4"><path class="cls-3" d="M72.83,17a.25.25,0,0,1,.21.08l0,.1a.29.29,0,0,1,0,.14.18.18,0,0,1,0,.11h0c-.08.12-.15.13-.22,0a.07.07,0,0,0-.06,0,.58.58,0,0,0-.32,0,.55.55,0,0,1-.18,0l-.35.05c-.18,0-.35.05-.35-.14v-.3a.43.43,0,0,0,0,0,1.1,1.1,0,0,0,0-.36.86.86,0,0,1,0-.16c0-.11,0-.21,0-.31s0-.07,0-.11,0,0,0,0h0l0,0a.5.5,0,0,1,.05.13l0,.26a.8.8,0,0,1,0,.15,1.28,1.28,0,0,0,.07.39.86.86,0,0,0,0,.17c0,.05,0,.07.1,0l0,0h0l.18,0,.12,0a1.3,1.3,0,0,0,.33-.07C72.71,17,72.78,17,72.83,17Z"/></g><g class="cls-4"><path class="cls-3" d="M75.07,16.52a.21.21,0,0,1,.2.09.35.35,0,0,1,.06.09.62.62,0,0,1,0,.15c0,.06,0,.09,0,.1h0c-.08.11-.15.12-.22,0s0,0-.07,0a.65.65,0,0,0-.31,0,1.13,1.13,0,0,1-.18,0l-.35.05c-.18,0-.36.05-.35-.14v-.31a.43.43,0,0,1,0-.05,1,1,0,0,0,0-.35,1,1,0,0,1,0-.17v-.31s0-.07,0-.1a.08.08,0,0,1,0,0h.09a.93.93,0,0,1,0,.13L74,16a.34.34,0,0,1,0,.14,2.44,2.44,0,0,0,.07.39c0,.06,0,.14,0,.17s0,.08.1,0h0s0,0,0,0l.18,0,.12,0a1.3,1.3,0,0,0,.33-.07C75,16.5,75,16.54,75.07,16.52Z"/></g><g class="cls-4"><path class="cls-3" d="M76.17,14.76a.23.23,0,0,1,.21.09.36.36,0,0,1,.05.09.29.29,0,0,1,0,.14.18.18,0,0,1,0,.11h0c-.08.12-.15.13-.22,0a.06.06,0,0,0-.06,0,.69.69,0,0,0-.32,0l-.18,0-.34,0c-.18,0-.36,0-.35-.15l0-.3v-.05a1,1,0,0,0,0-.35.48.48,0,0,1,0-.17V14a.43.43,0,0,0,0-.11l0,0H75a.69.69,0,0,1,0,.13l0,.26a.8.8,0,0,1,0,.15,1.28,1.28,0,0,0,.07.39.86.86,0,0,0,0,.17c0,.05,0,.07.11,0l0,0h0l.18,0,.12,0a2.37,2.37,0,0,0,.34-.08C76.05,14.74,76.12,14.77,76.17,14.76Z"/></g><g class="cls-4"><path class="cls-3" d="M72.91,18.88a.21.21,0,0,1,.2.09.35.35,0,0,1,.06.09.53.53,0,0,1,0,.14c0,.07,0,.09,0,.11h0c-.08.12-.15.13-.22,0s0,0-.07,0a.65.65,0,0,0-.31,0l-.18,0-.35,0c-.18,0-.36,0-.35-.15V19s0,0,0-.05a1,1,0,0,0,0-.35,1,1,0,0,1,0-.17c0-.11,0-.21,0-.31s0-.07,0-.11,0,0,0,0h.09s0,.09.05.13l0,.26a.39.39,0,0,1,0,.15,2.44,2.44,0,0,0,.07.39c0,.06,0,.14,0,.17s0,.07.1,0h0s0,0,0,0l.18,0,.12,0a2,2,0,0,0,.33-.08C72.79,18.86,72.86,18.89,72.91,18.88Z"/></g><g class="cls-4"><path class="cls-3" d="M74.85,18.75a.2.2,0,0,1,.2.08l.06.1a.53.53,0,0,1,0,.14c0,.07,0,.09,0,.11h0c-.08.12-.15.13-.22,0s0,0-.07,0a.65.65,0,0,0-.31,0,1.1,1.1,0,0,1-.18,0l-.35.05c-.18,0-.36,0-.35-.14v-.3s0,0,0-.06a1,1,0,0,0,0-.35.91.91,0,0,1,0-.17c0-.1,0-.2,0-.31s0-.06,0-.1l0,0s0,0,0,0h0l0,0a.5.5,0,0,1,0,.13l.06.26a.36.36,0,0,1,0,.15,2.44,2.44,0,0,0,.07.39c0,.05,0,.13,0,.16s0,.08.1,0l0,0h0l.18,0,.12,0a1.3,1.3,0,0,0,.33-.07C74.73,18.73,74.8,18.76,74.85,18.75Z"/></g><g class="cls-4"><path class="cls-3" d="M70.84,21.63a.22.22,0,0,1,.21.08l0,.1a.49.49,0,0,1,0,.14c0,.06,0,.09,0,.1h0c-.08.11-.15.12-.22,0s0,0-.06,0a.69.69,0,0,0-.32,0l-.18,0-.35.05c-.18,0-.35.05-.35-.14v-.31a.43.43,0,0,1,0-.05,1,1,0,0,0,0-.35.91.91,0,0,1,0-.17v-.31s0-.07,0-.1,0,0,0,0h0l0,0a.61.61,0,0,1,0,.12l0,.27a.7.7,0,0,1,0,.14,1.84,1.84,0,0,0,.06.4c0,.05,0,.13,0,.16s.05.08.1,0H70l.18,0,.12,0a1.3,1.3,0,0,0,.33-.07C70.72,21.61,70.79,21.64,70.84,21.63Z"/></g><g class="cls-4"><path class="cls-3" d="M68.64,19.9a.21.21,0,0,1,.2.09l.06.09a.57.57,0,0,1,0,.14c0,.07,0,.1,0,.11h0c-.08.11-.15.12-.22,0s0,0-.07,0a.65.65,0,0,0-.31,0l-.18,0-.35.05c-.18,0-.36,0-.35-.15V20s0,0,0,0a1,1,0,0,0,0-.35.49.49,0,0,1,0-.17v-.31s0-.07,0-.1l0,0h.09a.93.93,0,0,1,0,.13l.06.27a.32.32,0,0,1,0,.14,2.44,2.44,0,0,0,.07.39c0,.06,0,.14,0,.17s0,.08.1,0h0s0,0,0,0L68,20l.12,0a1.3,1.3,0,0,0,.33-.07C68.52,19.88,68.58,19.91,68.64,19.9Z"/></g><g class="cls-4"><path class="cls-3" d="M73.06,23.33a.25.25,0,0,1,.21.08l0,.1a.29.29,0,0,1,0,.14.18.18,0,0,1,0,.11h0c-.08.12-.15.13-.22,0a.07.07,0,0,0-.06,0,.58.58,0,0,0-.32,0,1.1,1.1,0,0,1-.18,0l-.35.05c-.18,0-.35.05-.35-.14v-.3a.43.43,0,0,0,0,0,1.1,1.1,0,0,0,0-.36.91.91,0,0,1,0-.17c0-.1,0-.2,0-.31s0-.06,0-.1,0,0,0,0h0l0,0a.5.5,0,0,1,0,.13c0,.09,0,.17,0,.26a.8.8,0,0,1,0,.15,1.28,1.28,0,0,0,.07.39.71.71,0,0,0,0,.16c0,.06.05.08.1,0l0,0h0l.18,0,.12,0a1.3,1.3,0,0,0,.33-.07C72.94,23.31,73,23.34,73.06,23.33Z"/></g><g class="cls-4"><path class="cls-3" d="M46.56,18.64a.2.2,0,0,1,.22,0,.29.29,0,0,1,.07.08.27.27,0,0,1,0,.13c0,.07,0,.1,0,.11h0c0,.13-.11.16-.2.08a.09.09,0,0,0-.07,0,.64.64,0,0,0-.3.08l-.17.07-.33.13c-.16.08-.33.14-.37-.05L45.35,19s0,0,0-.05a1,1,0,0,0-.11-.34.38.38,0,0,1,0-.16c0-.1,0-.2-.07-.3a.54.54,0,0,0,0-.1s0,0,0,0l0,0h0s0,0,0,0a.44.44,0,0,1,.08.11l.11.24a.46.46,0,0,1,.07.14,1.46,1.46,0,0,0,.16.36,1.38,1.38,0,0,0,.06.16s.06.06.1,0l0,0,0,0L46,18.9l.1-.06a1,1,0,0,0,.31-.15C46.44,18.65,46.51,18.66,46.56,18.64Z"/></g><g class="cls-4"><path class="cls-3" d="M49.41,20.19a.2.2,0,0,1,.22,0l.08.08a.28.28,0,0,1,0,.13c0,.07,0,.1,0,.11h0c-.05.13-.12.16-.21.08s0,0-.06,0a.68.68,0,0,0-.31.08.51.51,0,0,1-.17.07l-.32.13c-.17.08-.34.14-.38,0l-.09-.29s0,0,0,0a1.38,1.38,0,0,0-.12-.34A.6.6,0,0,1,48,20l-.06-.3a1,1,0,0,1,0-.1,0,0,0,0,1,0,0l0,0H48l.07.11.12.24a.84.84,0,0,1,.06.14,1.46,1.46,0,0,0,.16.36,1.38,1.38,0,0,0,.06.16s.06.06.11,0l0,0,0,0,.17-.08.11-.06a.94.94,0,0,0,.3-.15C49.29,20.2,49.36,20.21,49.41,20.19Z"/></g><g class="cls-4"><path class="cls-3" d="M48.14,16.07a.22.22,0,0,1,.22,0l.08.08a.84.84,0,0,1,0,.14.17.17,0,0,1,0,.11h0q-.07.2-.21.09a.06.06,0,0,0-.07,0,.63.63,0,0,0-.3.07.61.61,0,0,1-.17.07l-.32.14c-.17.08-.34.13-.38-.06l-.09-.29s0,0,0-.05a1.18,1.18,0,0,0-.12-.33.49.49,0,0,1,0-.16l-.06-.31,0-.09a.06.06,0,0,1,0,0s0,0,0,0h.06l.07.11.12.25a.52.52,0,0,1,.06.13,1.46,1.46,0,0,0,.16.36,1.38,1.38,0,0,0,.06.16c0,.05.06.06.1,0l0,0,0,0,.17-.08.1,0a1.48,1.48,0,0,0,.31-.15C48,16.08,48.09,16.09,48.14,16.07Z"/></g><g class="cls-4"><path class="cls-3" d="M50.2,15.07a.23.23,0,0,1,.22,0,.19.19,0,0,1,.07.08.27.27,0,0,1,0,.13.15.15,0,0,1,0,.11h0c-.05.13-.12.16-.21.08s0,0-.07,0a.64.64,0,0,0-.3.08l-.17.07-.33.13c-.16.08-.33.13-.37,0L49,15.45a.43.43,0,0,0,0,0,1.38,1.38,0,0,0-.12-.34.43.43,0,0,1,0-.16l-.07-.3a.29.29,0,0,0,0-.1.08.08,0,0,1,0,0l0,0h0l.08.12.12.24a.59.59,0,0,1,.06.14,1.89,1.89,0,0,0,.16.36.77.77,0,0,0,.06.15c0,.05.06.07.1,0l0,0,0,0,.17-.08.1-.06a1.11,1.11,0,0,0,.31-.15C50.08,15.08,50.15,15.1,50.2,15.07Z"/></g><g class="cls-4"><path class="cls-3" d="M50.84,13.1a.2.2,0,0,1,.22,0,.6.6,0,0,1,.08.08.33.33,0,0,1,0,.13c0,.07,0,.1,0,.12h0q-.08.19-.21.09a.07.07,0,0,0-.06,0,.68.68,0,0,0-.31.08.51.51,0,0,1-.17.07l-.32.13c-.17.08-.34.14-.38-.05s0-.19-.08-.29,0,0,0-.05a.93.93,0,0,0-.12-.33.84.84,0,0,1,0-.17l-.06-.3a1,1,0,0,1,0-.1,0,0,0,0,1,0,0l0,0h.06a.41.41,0,0,1,.07.11l.12.24a.84.84,0,0,1,.06.14,2,2,0,0,0,.16.36,1.38,1.38,0,0,0,.06.16s.07.06.11,0l0,0,0,0,.16-.08.11,0a1.53,1.53,0,0,0,.31-.16S50.79,13.12,50.84,13.1Z"/></g><g class="cls-4"><path class="cls-3" d="M48.68,17.89a.2.2,0,0,1,.22,0L49,18a.27.27,0,0,1,.05.13.15.15,0,0,1,0,.11h0c0,.13-.11.16-.2.08a.09.09,0,0,0-.07,0,.68.68,0,0,0-.31.08l-.17.07-.32.13c-.16.08-.34.14-.37-.05l-.09-.29s0,0,0-.05a1.06,1.06,0,0,0-.12-.34.62.62,0,0,1,0-.16c0-.1,0-.2-.07-.3s0-.06,0-.1,0,0,0,0l0,0h0s0,0,0,0a.44.44,0,0,1,.08.11l.11.24c0,.05.06.09.06.14a1.69,1.69,0,0,0,.17.36.6.6,0,0,0,0,.16s.07.06.11,0l0,0,0,0,.16-.08.11-.06a1.1,1.1,0,0,0,.31-.15C48.56,17.9,48.63,17.91,48.68,17.89Z"/></g><g class="cls-4"><path class="cls-3" d="M50.53,17.29a.18.18,0,0,1,.21,0,.3.3,0,0,1,.08.08.28.28,0,0,1,0,.13c0,.07,0,.1,0,.11h0c-.05.13-.11.16-.2.08a.09.09,0,0,0-.07,0,.68.68,0,0,0-.31.08l-.17.07-.32.13c-.17.08-.34.14-.37-.05l-.09-.29s0,0,0-.05a1.06,1.06,0,0,0-.12-.34.62.62,0,0,1,0-.16l-.07-.3s0-.06,0-.1,0,0,0,0l0,0h0s0,0,0,0a.44.44,0,0,1,.08.11l.11.24s.06.09.06.14a2.32,2.32,0,0,0,.16.36,1.38,1.38,0,0,0,.06.16s.07.06.11,0l0,0,0,0,.16-.08.11-.06a1.1,1.1,0,0,0,.31-.15C50.41,17.3,50.48,17.31,50.53,17.29Z"/></g><g class="cls-4"><path class="cls-3" d="M47.33,21.05a.22.22,0,0,1,.22,0l.08.08a.39.39,0,0,1,0,.14c0,.06,0,.09,0,.11h0q-.07.19-.21.09a0,0,0,0,0-.06,0,.67.67,0,0,0-.31.07.51.51,0,0,1-.17.07l-.32.14c-.17.08-.34.13-.38-.06l-.09-.29s0,0,0-.05A1.18,1.18,0,0,0,46,21a1,1,0,0,1-.05-.16l-.06-.31,0-.09a.06.06,0,0,1,0,0s0,0,0,0,0,0,0,0h0l.07.11.12.25a.52.52,0,0,1,.06.13,1.46,1.46,0,0,0,.16.36,1.38,1.38,0,0,0,.06.16c0,.05.06.06.11,0l0,0s0,0,0,0l.16-.08.11,0a2.2,2.2,0,0,0,.31-.15C47.21,21.06,47.28,21.07,47.33,21.05Z"/></g><g class="cls-4"><path class="cls-3" d="M44.78,19.91a.22.22,0,0,1,.22,0l.07.08a.38.38,0,0,1,0,.14.17.17,0,0,1,0,.11h0c0,.14-.11.16-.2.09a.09.09,0,0,0-.07,0,.64.64,0,0,0-.3.08l-.17.06-.33.14c-.16.08-.33.13-.37-.06l-.09-.29a.17.17,0,0,0,0-.05.92.92,0,0,0-.11-.33.49.49,0,0,1,0-.16c0-.1,0-.21-.07-.31a.32.32,0,0,0,0-.09s0,0,0,0l0,0h0s0,0,0,0a.76.76,0,0,1,.08.11l.11.25a.33.33,0,0,1,.07.13c0,.14.11.24.16.36a1.38,1.38,0,0,0,.06.16c0,.05.06.06.1,0l0,0s0,0,0,0l.17-.08.1-.05A1.77,1.77,0,0,0,44.6,20C44.66,19.92,44.73,19.93,44.78,19.91Z"/></g><g class="cls-4"><path class="cls-3" d="M49.9,22.16a.23.23,0,0,1,.22,0,.19.19,0,0,1,.07.08.27.27,0,0,1,.05.13.15.15,0,0,1,0,.11h0c0,.13-.11.16-.2.08s-.05,0-.07,0a.64.64,0,0,0-.3.08l-.17.07-.33.13c-.16.08-.33.13-.37-.05l-.09-.29a.43.43,0,0,0,0-.05,1.25,1.25,0,0,0-.12-.34.43.43,0,0,1-.05-.16l-.07-.3a.29.29,0,0,0,0-.1s0,0,0,0l0,0h0a.83.83,0,0,1,.08.12l.12.24a.75.75,0,0,1,.06.13,1.73,1.73,0,0,0,.16.37.77.77,0,0,0,.06.15c0,.05.06.07.1,0l0,0s0,0,0,0l.17-.08.1-.06a1.27,1.27,0,0,0,.31-.15C49.78,22.17,49.85,22.19,49.9,22.16Z"/></g><path class="cls-5" d="M36.92,7.13a13.4,13.4,0,0,0-2.36-.51h0a6.36,6.36,0,0,0-.75-.08,12.94,12.94,0,0,0-1.39-.07,8.72,8.72,0,0,0-1,.06,11.16,11.16,0,0,0-9.2,8.09h0c0,.18-.07.35-.1.53a6.54,6.54,0,0,0-.09.89h0c0,.12,0,.22,0,.34V17c.18.42.49.3.67.06V16.4a5.06,5.06,0,0,1,.13-1.11c.6-3,3.46-7.37,8.36-8a10.39,10.39,0,0,1,1.26-.08,6.08,6.08,0,0,1,1.15.1c3.81.63,5.28,4.4,5.28,6.45,0,7.09-7.88,11.33-12.55,14.42-7.51,5.09-10.84,9.57-10,17.51.24.42.3.42.66.24a7.77,7.77,0,0,1,1.26-1.19l.49-.35.11-.07a7.4,7.4,0,0,1,2.06-.92l.54-.13h0a7.19,7.19,0,0,1,1.35-.13h.36c3.41.07,4.61,1.15,8.06,1.33,4.73.24,6.55-4.67,7-6.85.06-.24-.48-.49-.61-.3s-.39.62-.65,1-.32.47-.52.72h0C35.34,40.45,33.73,42,31.61,42h-.14a7.23,7.23,0,0,1-1.35-.16c-2.25-.48-4-1.84-6.26-1.84a6.35,6.35,0,0,0-1.74.23,3,3,0,0,0-.39.14h0a4.06,4.06,0,0,0-.58.25,4.66,4.66,0,0,0-.6.35h0l-.21.13a11.78,11.78,0,0,0-1.15.9c-.21.19-.42.39-.64.61.91-6,4.18-7.76,9.69-11.15,4.5-2.67,11-5.65,14.2-10.16a9.78,9.78,0,0,0,1-1.56,1.55,1.55,0,0,0,.12-.22A9.81,9.81,0,0,0,44.08,18h0a9.24,9.24,0,0,0,.38-2.66C44.46,11.16,41,8.32,36.92,7.13Z"/><path class="cls-5" d="M55.43,7.62c-.42-.73-1.94-1.09-2.85-1.09a4.69,4.69,0,0,0-.91.06,1.54,1.54,0,0,1-.3.12c-5.45,7.27-6.18,8.06-6.18,8.06a1,1,0,0,0,.43,1.09s.05,0,.12,0A25.12,25.12,0,0,0,49.48,13l.18-.16.38-.35c0,.24-.07.55-.13.94h0q0,.19-.06.42c-.06.42-.13.9-.22,1.44,0,.13,0,.27-.05.41-.07.43-.14.89-.21,1.37,0,.16,0,.31-.08.47h0c-.13.88-.28,1.83-.44,2.84l-.06.42c0,.3-.09.6-.15.92h0l-.06.42c-.06.36-.11.73-.17,1.1-1.36,8.71-3,19.45-3,20.61V44c.8,1.11,2.48,1.16,3.63,1h0a7.38,7.38,0,0,0,1.15-.19c.06-.55.18-1.48.35-2.7,1.24-9.15,5-34.38,5-34.38Z"/><path class="cls-5" d="M14.82,23.08a.22.22,0,0,0-.13-.08h-.07s0,0,0,0h0a.5.5,0,0,0,0-.12h0a.58.58,0,0,0,0,.1l0,0c.11,0,.13-.06.11-.09a.07.07,0,0,1,0-.06.16.16,0,0,0,0-.16s0,0,0,0a.43.43,0,0,0,0-.16s0,0-.05-.07a1.07,1.07,0,0,0-.15-.22.9.9,0,0,0-.16-.18L14.25,22,14,21.89c-.07,0-.15,0-.21-.06h-.09c-.1,0-.2,0-.3,0s-.12.07-.19.08a.44.44,0,0,0-.18.12s0,0,0,0,0,.07-.07.1-.08.11-.13.16-.07.1-.1.15,0,0,0,.08,0,.08,0,.11,0,.1-.06.15V23a.25.25,0,0,0,0,.07.38.38,0,0,1,0,.18.33.33,0,0,0,0,.14s0,0,0,.07,0,0,0,0,0,0,0,0,.08.21.18.26.08.09.13.13l0,0,.21.07.08,0c.07,0,.15,0,.21.06h0a.15.15,0,0,1,.13,0,.2.2,0,0,0,.15,0s.07,0,.11,0H14l.11,0h0l.12-.05.06,0s0-.07,0-.07a.44.44,0,0,0,.18-.12.86.86,0,0,0,.18-.2s0,0,0-.06.07,0,0-.09,0,0,0,0l.11-.11v0A1.34,1.34,0,0,0,14.82,23.08Zm-.24.12a.68.68,0,0,0,0-.14C14.65,23.11,14.61,23.16,14.58,23.2Z"/><path class="cls-5" d="M7.66,46.39a.25.25,0,0,0-.12-.07H7.45a.49.49,0,0,0,0-.12.64.64,0,0,1,0,.09l0,0c.1,0,.12-.06.11-.09a.14.14,0,0,1,0-.07.17.17,0,0,0,0-.15,0,0,0,0,1,0,0,.86.86,0,0,0,0-.16s0-.05-.06-.07a1,1,0,0,0-.14-.22.93.93,0,0,0-.16-.18l-.12-.06-.2-.07c-.07,0-.15,0-.22-.06H6.58a2.85,2.85,0,0,0-.29,0c-.07,0-.13.07-.2.08a.5.5,0,0,0-.17.11l0,0s0,.08-.06.1-.08.12-.14.16-.06.1-.09.16l0,.08a.43.43,0,0,1,0,.11s0,.09,0,.14a.27.27,0,0,0,0,.09.06.06,0,0,1,0,0s0,.05,0,.07a.57.57,0,0,1,0,.18.23.23,0,0,0,0,.14.08.08,0,0,1,0,.07h0l0,0c0,.09.07.21.18.26s.08.09.12.13,0,0,0,0a1,1,0,0,0,.2.08.18.18,0,0,1,.09,0c.06,0,.14,0,.21,0h0a.23.23,0,0,1,.14,0,.17.17,0,0,0,.14,0s.08,0,.11,0h.07l.1,0H7l.12,0h.05s0-.06,0-.06a.41.41,0,0,0,.17-.12,1.19,1.19,0,0,0,.19-.2s0,0,0-.06.06,0,0-.09,0,0,0,0l.1-.12h0A.73.73,0,0,0,7.66,46.39Zm-.23.12s0-.09,0-.13S7.46,46.48,7.43,46.51Z"/><path class="cls-5" d="M45.28,5.35a.3.3,0,0,0-.13-.07h-.08a.5.5,0,0,0,0-.12.46.46,0,0,1,0,.09l0,0c.11,0,.13-.06.11-.09a.08.08,0,0,1,0-.07.15.15,0,0,0,0-.15s0,0,0,0a.43.43,0,0,0,0-.16s0,0,0-.07A1.07,1.07,0,0,0,45,4.48a.69.69,0,0,0-.16-.18.6.6,0,0,0-.11-.06l-.21-.08c-.07,0-.15,0-.21,0a0,0,0,0,0,0,0H44.2l-.3,0c-.07,0-.12.08-.19.09a.54.54,0,0,0-.18.11l0,0s0,.08-.07.1-.08.12-.13.16a.44.44,0,0,0-.1.16.19.19,0,0,0,0,.08s0,.07,0,.11,0,.09-.06.14v.13s0,0,0,.07a.38.38,0,0,1,0,.18.33.33,0,0,0,0,.14s0,0,0,.07h0s0,0,0,0,.08.21.18.26.08.09.13.12a.08.08,0,0,0,0,0,.9.9,0,0,0,.21.08s0,0,.08,0,.15,0,.21,0,0,0,0,0a.3.3,0,0,1,.13,0,.14.14,0,0,0,.14,0s.08,0,.12,0h.06l.11,0h0l.12,0h.06s0-.06,0-.06A.57.57,0,0,0,45,6a1.12,1.12,0,0,0,.18-.2s0,0,0-.06.06,0,0-.09a0,0,0,0,1,0,0l.11-.12h0A1.07,1.07,0,0,0,45.28,5.35ZM45,5.47a.69.69,0,0,0,0-.13S45.07,5.43,45,5.47Z"/><path class="cls-5" d="M66.35,30s-.06-.05-.12-.07h-.09a.53.53,0,0,0,0-.13s0,.06,0,.1l0,0c.1,0,.12-.07.11-.09a.25.25,0,0,1,0-.07.19.19,0,0,0,0-.16s0,0,0,0a.44.44,0,0,0,0-.16s0,0-.06-.06a1.09,1.09,0,0,0-.14-.23,1.29,1.29,0,0,0-.16-.17l-.12-.06-.2-.08c-.08,0-.15,0-.22-.06h0l-.07,0a2.83,2.83,0,0,0-.29,0c-.08,0-.13.07-.2.09a.67.67,0,0,0-.18.11l0,0s0,.08-.06.1-.08.12-.14.16-.06.1-.09.15,0,.05,0,.08a.43.43,0,0,1,0,.12c0,.05,0,.09,0,.14a.21.21,0,0,0,0,.08.09.09,0,0,1,0,.05s0,0,0,.07a.52.52,0,0,1,0,.18.25.25,0,0,0,0,.14.08.08,0,0,1,0,.07h0l0,0c0,.09.07.21.17.27s.08.08.13.12l0,0,.2.07.09,0c.06,0,.14,0,.21.06h0a.23.23,0,0,1,.14,0,.17.17,0,0,0,.14,0s.08,0,.11,0h.07l.1,0h0l.12-.05s0,0,0,0,0-.06,0-.07a.39.39,0,0,0,.17-.11,1.29,1.29,0,0,0,.19-.21s0,0,0-.05.06-.05,0-.1,0,0,0,0a.52.52,0,0,0,.1-.11h0A.62.62,0,0,0,66.35,30Zm-.23.12s0-.09,0-.14S66.15,30,66.12,30.08Z"/><path class="cls-5" d="M72.59,8.51s-.06-.06-.12-.08h-.09a.49.49,0,0,0,0-.12.87.87,0,0,1,0,.1l0,0c.1,0,.12-.06.11-.09a.14.14,0,0,1,0-.06.16.16,0,0,0,0-.16,0,0,0,0,1,0,0,.86.86,0,0,0,0-.16s0,0-.06-.07a1.35,1.35,0,0,0-.14-.22,1.37,1.37,0,0,0-.16-.18L72,7.4l-.21-.08c-.07,0-.15,0-.22-.06h-.09a2.85,2.85,0,0,0-.29,0c-.07,0-.13.07-.2.09a.39.39,0,0,0-.17.11s0,0,0,0a.53.53,0,0,1-.06.1c-.06,0-.08.11-.14.16s-.06.1-.09.15,0,0,0,.08a.35.35,0,0,1,0,.11s0,.1,0,.15,0,.05,0,.08,0,0,0,0,0,0,0,.07a.57.57,0,0,1,0,.18.23.23,0,0,0,0,.14.08.08,0,0,1,0,.07s0,0,0,0l0,0c0,.09.07.21.18.27s.08.08.12.12l0,0,.2.07.09,0c.06,0,.14,0,.21.06h0a.18.18,0,0,1,.14,0,.17.17,0,0,0,.14,0s.08,0,.11,0h.07l.1,0h0l.12-.05s0,0,.05,0,0-.06,0-.07a.41.41,0,0,0,.17-.12.73.73,0,0,0,.19-.2s0,0,0-.06.06,0,0-.09,0,0,0,0a.52.52,0,0,0,.1-.11s0,0,0,0A.67.67,0,0,0,72.59,8.51Zm-.23.12c0-.05,0-.09,0-.14S72.39,8.59,72.36,8.63Z"/><path class="cls-5" d="M65.21,45.64a.23.23,0,0,0-.12-.08h0c.11,0,.13-.06.11-.09s0,0,0-.06a.16.16,0,0,0-.05-.16v0a.88.88,0,0,0,0-.16s-.05,0-.06-.07a1.64,1.64,0,0,0-.14-.22,1,1,0,0,0-.17-.18l-.11,0-.21-.08c-.07,0-.15,0-.21-.06h-.09l-.3,0c-.07,0-.12.07-.19.08a.54.54,0,0,0-.18.11s0,0,0,0,0,.07-.07.1-.08.11-.13.16a.29.29,0,0,0-.09.15s0,0,0,.08,0,.08,0,.11,0,.1-.06.15v.12s0,0,0,.07a.55.55,0,0,1,0,.18.33.33,0,0,0,0,.14.06.06,0,0,1,0,.07l0,0,0,0c.06.08.08.21.18.26s.08.09.13.13l0,0,.21.07.08,0c.07,0,.15,0,.21.06h0a.16.16,0,0,1,.13,0s.1,0,.15,0,.07,0,.11,0h.06l.11,0h0l.12,0,.06,0s0-.08,0-.08a.34.34,0,0,0,.18-.11,1.21,1.21,0,0,0,.19-.2s0,0,0-.06.07,0,0-.09l0,0,.1-.11v0A1.34,1.34,0,0,0,65.21,45.64Zm-.24.12a.68.68,0,0,0,0-.14C65,45.67,65,45.72,65,45.76Zm0-.21s0,0,0,0h0s0-.08,0-.12a.58.58,0,0,0,0,.1l0,0Z"/></g></g></g></svg>