<svg xmlns="http://www.w3.org/2000/svg" viewBox="0 0 78.38 51.52"><defs><style>.cls-1{isolation:isolate;}.cls-2{fill:#f9e3d4;}.cls-3{fill:#292d37;}.cls-4{fill:#137a83;}.cls-5{fill:#fff;}.cls-6{fill:#fa483c;}.cls-7{opacity:0.57;mix-blend-mode:multiply;}.cls-8{fill:#f9ba2b;}</style></defs><g class="cls-1"><g id="Слой_2" data-name="Слой 2"><g id="OBJECTS"><rect class="cls-2" x="13.43" y="-13.43" width="51.52" height="78.38" transform="translate(64.95 -13.43) rotate(90)"/><path class="cls-3" d="M38.29,45.74a5.07,5.07,0,0,1,3.84-1.87c2,0,3.41,1.44,5.59,1.44S51.38,43,52,41.94c.09-.13.48.05.44.22-.35,1.57-1.66,5.11-5.07,4.94-2.57-.14-3.4-1-6.06-1a5.67,5.67,0,0,0-4.19,2c-.27.13-.31.13-.49-.17-.61-5.72,1.79-8.95,7.21-12.62,3.36-2.22,9-5.28,9-10.39a4.72,4.72,0,0,0-4.62-4.71c-4.59,0-7,4.41-7,6.63v.44c-.13.18-.35.26-.48,0v-.4c0-3.79,3.84-7.15,7.51-7.15C52.43,19.73,57,22,57,26.1c0,5.85-7.2,8.95-11.7,11.61C41.3,40.16,38.94,41.42,38.29,45.74Z"/><path class="cls-3" d="M56.63,45.74a5.07,5.07,0,0,1,3.84-1.87c2,0,3.4,1.44,5.58,1.44s3.67-2.32,4.33-3.37c.08-.13.48.05.43.22-.35,1.57-1.66,5.11-5.06,4.94-2.58-.14-3.41-1-6.07-1a5.67,5.67,0,0,0-4.19,2c-.26.13-.31.13-.48-.17-.61-5.72,1.79-8.95,7.2-12.62,3.36-2.22,9-5.28,9-10.39a4.73,4.73,0,0,0-4.63-4.71c-4.58,0-7,4.41-7,6.63v.44c-.13.18-.34.26-.48,0v-.4c0-3.79,3.85-7.15,7.51-7.15,4.15,0,8.69,2.31,8.69,6.37,0,5.85-7.2,8.95-11.7,11.61C59.64,40.16,57.28,41.42,56.63,45.74Z"/><path class="cls-4" d="M35.37,39.77A40.8,40.8,0,0,0,12.43,22.65h0a43,43,0,0,1,2.85-6.75C21.75,17.43,34.17,22,41.71,35.16a14.39,14.39,0,0,1-1.42,1.28A35.7,35.7,0,0,1,35.37,39.77Z"/><path class="cls-4" d="M45.18,18.47a19.12,19.12,0,0,1-2.79,3.81q-.6.64-1.23,1.26A41.48,41.48,0,0,0,19.75,9.33,25.14,25.14,0,0,1,22.12,7a20.67,20.67,0,0,1,3.52-2.48C29.88,5.36,39.56,8.4,45.18,18.47Z"/><path class="cls-5" d="M16.5,34a.72.72,0,0,0-.12.23A2.53,2.53,0,0,0,16.5,34ZM21.64,37a1.61,1.61,0,0,1,2.16-.28A1.59,1.59,0,0,1,23.85,39a2.23,2.23,0,0,1,2.66-.16,1.47,1.47,0,0,1-.17,2.39,2,2,0,0,1,2.08.18,1.52,1.52,0,0,1,.34,1.23,2.32,2.32,0,0,1-.23.76c1.17-.56,2.1,1,1.8,1.8a1.56,1.56,0,0,1-1.55,1.06,1.51,1.51,0,0,1-1.72,2.23,1.9,1.9,0,0,1-3.25,1.82,1.54,1.54,0,0,1-2.7-1.13,2.49,2.49,0,0,1-3.25-2.12,3.48,3.48,0,0,1-4.23-2.53,2.74,2.74,0,0,1-3.74-1.87,2.55,2.55,0,0,1-2.47.09A2.57,2.57,0,0,1,6.1,40.66,1.79,1.79,0,0,1,3.93,39a2.32,2.32,0,0,1,1.65-2.2C4.37,35.16,5,33.43,6.64,33.41a2.25,2.25,0,0,1,1.83-3.36c1-.06,1.7,1.11,1.81,2.13a1.66,1.66,0,0,1,3.26.55A1.68,1.68,0,0,1,15.78,32a1.7,1.7,0,0,1,.73,2,1.51,1.51,0,0,1,1.93-.5,1.53,1.53,0,0,1,.62,1.78,1.23,1.23,0,0,0-.21.37,1.53,1.53,0,0,0,.21-.37A1.54,1.54,0,0,1,21.64,37Z"/><path class="cls-6" d="M12.16,30.94a1.72,1.72,0,0,0-1.88,1.24,49.62,49.62,0,0,1,2.15-9.53A40.8,40.8,0,0,1,35.37,39.77a35.16,35.16,0,0,1-6.61,2.87,1.52,1.52,0,0,0-.34-1.23,2,2,0,0,0-2.08-.18,1.47,1.47,0,0,0,.17-2.39,2.23,2.23,0,0,0-2.66.16,1.59,1.59,0,0,0-.05-2.33,1.61,1.61,0,0,0-2.16.28,1.54,1.54,0,0,0-2.58-1.66,1.53,1.53,0,0,0-.62-1.78,1.51,1.51,0,0,0-1.93.5,1.7,1.7,0,0,0-.73-2,1.68,1.68,0,0,0-2.24.76A1.71,1.71,0,0,0,12.16,30.94Z"/><path class="cls-6" d="M41.71,35.16C34.17,22,21.75,17.43,15.28,15.89a.47.47,0,0,1,.05-.1,33.72,33.72,0,0,1,4.42-6.46A41.48,41.48,0,0,1,41.16,23.54c-1.2,1.2-2.45,2.35-3.62,3.58a.3.3,0,0,0,.29.49,4.8,4.8,0,0,1,3.77.54,4.29,4.29,0,0,1,1.69,4.28A5.66,5.66,0,0,1,41.71,35.16Z"/><path class="cls-6" d="M46.35,15.25a11.51,11.51,0,0,1-1.17,3.22C39.56,8.4,29.88,5.36,25.64,4.49a17.64,17.64,0,0,1,6.47-2.17A13.8,13.8,0,0,1,42.58,5.25,10.9,10.9,0,0,1,46.35,15.25Z"/><path class="cls-6" d="M45.38,27.39a3.38,3.38,0,0,1,1.06,2.33c0,.4-.16.88-.55,1a.68.68,0,0,1-.6-.22,2.06,2.06,0,0,1-.36-.56l-.83-1.7a7,7,0,0,1-.8-1.63c-.1-.68.42-.27.88,0A5.07,5.07,0,0,1,45.38,27.39Z"/><path class="cls-6" d="M45.43,22.71a3.41,3.41,0,0,1,2.43-.82c.4,0,.85.25.89.65a.68.68,0,0,1-.29.57,2.05,2.05,0,0,1-.59.3l-1.77.65a7.39,7.39,0,0,1-1.71.64c-.68,0-.22-.45.07-.88A4.9,4.9,0,0,1,45.43,22.71Z"/><path class="cls-4" d="M45.69,25.33a2.14,2.14,0,0,1,1.53.6c.18.18.32.48.17.68a.44.44,0,0,1-.38.17,1.17,1.17,0,0,1-.41-.1l-1.14-.41a5.16,5.16,0,0,1-1.1-.4c-.35-.27.08-.31.4-.41A3.26,3.26,0,0,1,45.69,25.33Z"/><path class="cls-6" d="M14.27,7.31a3.36,3.36,0,0,1-.4-2.53c.11-.38.39-.8.79-.76a.68.68,0,0,1,.52.37,2,2,0,0,1,.19.64c.11.61.23,1.23.34,1.85a7.07,7.07,0,0,1,.34,1.79c-.08.68-.47.15-.85-.21A4.89,4.89,0,0,1,14.27,7.31Z"/><path class="cls-6" d="M13,11.81a3.35,3.35,0,0,1-2.56.13c-.37-.14-.76-.46-.69-.86a.74.74,0,0,1,.43-.47,2,2,0,0,1,.65-.13l1.88-.16a7.5,7.5,0,0,1,1.82-.15c.67.15.09.49-.3.83A5,5,0,0,1,13,11.81Z"/><path class="cls-4" d="M13.41,9.22a2.17,2.17,0,0,1-1.31-1c-.12-.22-.17-.54,0-.7a.46.46,0,0,1,.41-.06,1.48,1.48,0,0,1,.37.21l1,.7a5.1,5.1,0,0,1,.95.68c.26.35-.15.28-.49.28A3,3,0,0,1,13.41,9.22Z"/><g class="cls-7"><path class="cls-4" d="M17.13,17.16a.23.23,0,0,1,.21,0l.08.07a1,1,0,0,1,0,.13.19.19,0,0,1,0,.11h0c0,.12-.1.15-.19.08a.09.09,0,0,0-.07,0,.62.62,0,0,0-.29.09,1,1,0,0,1-.16.06l-.31.14c-.15.08-.31.14-.36,0L16,17.55a.08.08,0,0,0,0,0,.82.82,0,0,0-.12-.32c0-.05,0-.1-.05-.16l-.07-.28,0-.1s0,0,0,0,0,0,0,0h.06a.86.86,0,0,1,.07.1l.12.23a.75.75,0,0,1,.06.13,1.62,1.62,0,0,0,.17.35s0,.12.05.14.07.06.11,0l0,0,0,0,.16-.08.1-.05a1.18,1.18,0,0,0,.29-.16C17,17.18,17.08,17.19,17.13,17.16Z"/></g><g class="cls-7"><path class="cls-4" d="M17.84,20a.23.23,0,0,1,.21,0l.08.07a.4.4,0,0,1,0,.13.13.13,0,0,1,0,.11h0c0,.12-.1.15-.19.08s0,0-.07,0a.62.62,0,0,0-.29.09.76.76,0,0,1-.16.06l-.3.14c-.16.08-.32.14-.36,0l-.1-.28v0a1,1,0,0,0-.12-.32.76.76,0,0,1-.06-.16l-.07-.29a.32.32,0,0,0,0-.09s0,0,0,0l0,0h.06a.36.36,0,0,1,.07.1l.12.23c0,.05.06.08.06.13a1.35,1.35,0,0,0,.17.34.77.77,0,0,0,.06.15c0,.05.06.06.1,0l0,0s0,0,0,0l.16-.08.1,0a1.18,1.18,0,0,0,.29-.16C17.73,20,17.8,20,17.84,20Z"/></g><g class="cls-7"><path class="cls-4" d="M20.1,18.27a.2.2,0,0,1,.21,0l.07.08a.27.27,0,0,1,.05.13c0,.06,0,.09,0,.1h0c0,.13-.11.16-.19.09a.06.06,0,0,0-.07,0,.6.6,0,0,0-.29.08l-.16.07L19.4,19c-.15.08-.32.13-.36-.05L19,18.66l0-.05a1,1,0,0,0-.12-.32.66.66,0,0,1,0-.15l-.07-.29,0-.09a.06.06,0,0,1,0,0l0,0h0a.44.44,0,0,1,.08.11l.12.23a.67.67,0,0,1,.06.12c0,.14.12.23.16.35a1.16,1.16,0,0,0,.06.15s.07.06.11,0v0l0,0,.16-.08.1-.06a1.59,1.59,0,0,0,.29-.15C20,18.28,20.05,18.29,20.1,18.27Z"/></g><g class="cls-7"><path class="cls-4" d="M20.7,21.15a.19.19,0,0,1,.2,0,.27.27,0,0,1,.07.08.28.28,0,0,1,0,.13.17.17,0,0,1,0,.11h0c0,.13-.12.15-.2.07s0,0-.06,0a.6.6,0,0,0-.3.06.85.85,0,0,1-.17.06L20,21.8c-.16.07-.33.11-.36-.07l-.07-.28s0,0,0-.05a1.19,1.19,0,0,0-.1-.32.94.94,0,0,1,0-.16c0-.1,0-.2-.05-.3a.32.32,0,0,0,0-.09s0,0,0,0h.09l.07.11.09.24a.52.52,0,0,1,.06.13,1.42,1.42,0,0,0,.14.36,1.55,1.55,0,0,0,0,.15c0,.05.06.06.1,0l0,0,0,0,.16-.07.11,0a2.71,2.71,0,0,0,.3-.13C20.58,21.15,20.65,21.17,20.7,21.15Z"/></g><g class="cls-7"><path class="cls-4" d="M23,19.52a.2.2,0,0,1,.21,0,.3.3,0,0,1,.08.08.55.55,0,0,1,0,.12c0,.07,0,.09,0,.11h0c0,.12-.1.15-.19.08h-.07a.75.75,0,0,0-.29.09l-.16.07-.31.13c-.15.08-.31.14-.36,0l-.09-.28s0,0,0,0a1.13,1.13,0,0,0-.13-.32l-.05-.15-.07-.29,0-.09s0,0,0,0l0,0h.06l.07.1.12.24a.45.45,0,0,1,.06.12c0,.14.12.23.17.35s0,.12.06.15.06.05.1,0l0,0s0,0,0,0l.16-.09.1-.05a1.59,1.59,0,0,0,.29-.15C22.89,19.53,23,19.54,23,19.52Z"/></g><g class="cls-7"><path class="cls-4" d="M23.3,22.48a.2.2,0,0,1,.2.06.35.35,0,0,1,.06.09s0,.07,0,.13,0,.09,0,.1h0c-.06.12-.13.14-.21.05a.07.07,0,0,0-.06,0,.63.63,0,0,0-.3,0l-.17,0-.33.08c-.16.06-.33.09-.34-.1l0-.28a.43.43,0,0,0,0-.05,1,1,0,0,0-.07-.34.41.41,0,0,1,0-.16c0-.1,0-.2,0-.29l0-.1,0,0h.08a.45.45,0,0,1,.06.12l.08.24a.74.74,0,0,1,0,.14,2.12,2.12,0,0,0,.1.36c0,.05,0,.13,0,.16s.05.07.1,0l0,0h0l.17-.06.11,0a1.24,1.24,0,0,0,.31-.1C23.18,22.47,23.25,22.5,23.3,22.48Z"/></g><g class="cls-7"><path class="cls-4" d="M25.85,24.14a.2.2,0,0,1,.2.07l.05.09a.46.46,0,0,1,0,.14.23.23,0,0,1,0,.1h0c-.07.11-.14.12-.21,0a.06.06,0,0,0-.06,0,.61.61,0,0,0-.3,0l-.17,0-.33.06c-.17,0-.35.06-.34-.13l0-.29a.43.43,0,0,1,0-.05.91.91,0,0,0,0-.33.47.47,0,0,1,0-.17v-.29s0-.07,0-.1a0,0,0,0,1,0,0s0,0,0,0h0s0,0,0,0a.33.33,0,0,1,.05.12l.06.25a.58.58,0,0,1,0,.14,1.63,1.63,0,0,0,.08.37.65.65,0,0,0,0,.16c0,.05,0,.07.09,0h0l0,0,.17,0,.11,0a1.25,1.25,0,0,0,.32-.08C25.73,24.13,25.8,24.15,25.85,24.14Z"/></g><g class="cls-7"><path class="cls-4" d="M28.22,25.57a.2.2,0,0,1,.2.06.35.35,0,0,1,.06.09.44.44,0,0,1,0,.13c0,.07,0,.09,0,.11h0c-.07.12-.14.14-.21.05a.07.07,0,0,0-.06,0,.62.62,0,0,0-.3,0l-.17,0-.33.08c-.17.05-.34.07-.35-.11l0-.29v-.05a1.2,1.2,0,0,0-.06-.33.44.44,0,0,1,0-.16l0-.3a.44.44,0,0,0,0-.1v0l0,0h0s0,0,0,0l.06.11.07.25c0,.05,0,.09,0,.14a2.54,2.54,0,0,0,.1.37,1.3,1.3,0,0,0,0,.15s0,.07.1,0l0,0h.05l.16-.06.11,0a1.31,1.31,0,0,0,.32-.1C28.1,25.56,28.16,25.58,28.22,25.57Z"/></g><g class="cls-7"><path class="cls-4" d="M25.91,21.12a.2.2,0,0,1,.2.06l.06.08a.25.25,0,0,1,0,.13.2.2,0,0,1,0,.11h0c-.06.12-.13.14-.2.06a.07.07,0,0,0-.06,0,.59.59,0,0,0-.3,0l-.17,0-.33.09c-.17.06-.33.09-.35-.1l-.05-.28a.43.43,0,0,0,0,0,.8.8,0,0,0-.07-.34.41.41,0,0,1,0-.16l0-.29s0-.07,0-.1a0,0,0,0,1,0,0l0,0h.06l.06.12.08.24a.74.74,0,0,1,0,.14,1.5,1.5,0,0,0,.11.36c0,.05,0,.13,0,.16s.06.07.1,0l0,0,0,0,.16-.05.11,0a1.92,1.92,0,0,0,.31-.11C25.79,21.11,25.86,21.14,25.91,21.12Z"/></g><g class="cls-7"><path class="cls-4" d="M28.64,22.72a.2.2,0,0,1,.2.05.35.35,0,0,1,.06.09.21.21,0,0,1,0,.13.23.23,0,0,1,0,.11h0c-.06.12-.13.14-.2.06s-.05,0-.07,0a.62.62,0,0,0-.3,0,.84.84,0,0,1-.17,0l-.32.09c-.17.05-.34.08-.35-.1l0-.29a.43.43,0,0,1,0-.05,1.21,1.21,0,0,0-.07-.33.76.76,0,0,1,0-.16c0-.1,0-.2,0-.3s0-.06,0-.09,0,0,0,0h.05l0,0a.24.24,0,0,1,.06.11l.08.25a.29.29,0,0,1,.05.13,1.58,1.58,0,0,0,.11.37,1.3,1.3,0,0,0,0,.15c0,.05.06.07.1,0h0l0,0,.17-.06.11,0a1.24,1.24,0,0,0,.31-.1C28.52,22.71,28.59,22.73,28.64,22.72Z"/></g><g class="cls-7"><path class="cls-4" d="M31.13,24.56a.21.21,0,0,1,.2.08l.05.09a.53.53,0,0,1,0,.14.16.16,0,0,1,0,.1h0q-.11.16-.21,0s0,0-.06,0a.61.61,0,0,0-.3,0l-.17,0-.34,0c-.17,0-.34.05-.33-.14s0-.19,0-.29a.43.43,0,0,1,0-.05,1,1,0,0,0,0-.34.42.42,0,0,1,0-.16c0-.1,0-.2,0-.3s0-.06,0-.09a.08.08,0,0,1,0,0H30s0,0,0,0a.61.61,0,0,1,.05.12l0,.25s0,.09,0,.14a2.32,2.32,0,0,0,.06.38s0,.13,0,.16.05.07.1,0h0s0,0,0,0l.17,0,.12,0a2,2,0,0,0,.32-.06C31,24.54,31.08,24.57,31.13,24.56Z"/></g><g class="cls-7"><path class="cls-4" d="M30.61,27.3a.21.21,0,0,1,.19.08l.06.09a.32.32,0,0,1,0,.14c0,.06,0,.09,0,.1h0q-.11.16-.21,0a.06.06,0,0,0-.06,0,.61.61,0,0,0-.3,0,1.11,1.11,0,0,1-.17,0l-.34.05c-.17,0-.34,0-.33-.14v-.29a.43.43,0,0,0,0-.05,1,1,0,0,0,0-.34.43.43,0,0,1,0-.16c0-.1,0-.2,0-.3s0-.07,0-.1,0,0,0,0h0s0,0,0,0h0a.61.61,0,0,1,.05.12l0,.26s0,.09,0,.14a1.51,1.51,0,0,0,.06.37c0,.06,0,.13,0,.16s0,.08.1,0h.06l.17,0,.12,0a1.32,1.32,0,0,0,.32-.07C30.5,27.28,30.56,27.31,30.61,27.3Z"/></g><g class="cls-7"><path class="cls-4" d="M33.63,26.63a.21.21,0,0,1,.2.09.36.36,0,0,1,.05.09.32.32,0,0,1,0,.14.17.17,0,0,1,0,.1h0q-.12.16-.21,0a.06.06,0,0,0-.06,0,.61.61,0,0,0-.3,0,1.1,1.1,0,0,1-.18,0l-.33,0c-.18,0-.35,0-.33-.15v-.34a1,1,0,0,0,0-.34.43.43,0,0,1,0-.16l0-.3s0-.07,0-.1,0,0,0,0h.09a.65.65,0,0,1,0,.13l0,.25a.7.7,0,0,1,0,.14,1.58,1.58,0,0,0,.05.38c0,.05,0,.13,0,.16s0,.08.1,0h.06l.18,0,.11,0a1.91,1.91,0,0,0,.33-.06C33.52,26.61,33.58,26.64,33.63,26.63Z"/></g><g class="cls-7"><path class="cls-4" d="M33,29.33a.22.22,0,0,1,.19.1.39.39,0,0,1,0,.09.32.32,0,0,1,0,.14.25.25,0,0,1,0,.1h0c-.08.1-.15.11-.21,0l-.06,0a.76.76,0,0,0-.3,0h-.18l-.33,0c-.18,0-.35,0-.32-.16v-.34a1,1,0,0,0,0-.35.45.45,0,0,1,0-.16l0-.29v-.1s0,0,0,0,0,0,0,0h0l0,0a.56.56,0,0,1,0,.12l0,.26a.66.66,0,0,1,0,.14,1.23,1.23,0,0,0,0,.38.85.85,0,0,0,0,.16c0,.05,0,.08.09,0h0s0,0,0,0l.18,0h.11a1.24,1.24,0,0,0,.33,0C32.84,29.3,32.9,29.34,33,29.33Z"/></g><g class="cls-7"><path class="cls-4" d="M35.18,31.45a.21.21,0,0,1,.17.12.17.17,0,0,1,0,.1.26.26,0,0,1,0,.14c0,.06,0,.08,0,.09h0c-.09.09-.17.09-.21,0a.1.1,0,0,0-.05,0,.77.77,0,0,0-.3-.06,1,1,0,0,1-.17,0l-.34,0c-.17,0-.34,0-.29-.21l0-.28a.11.11,0,0,0,0-.05,1.4,1.4,0,0,0,0-.34.44.44,0,0,1,0-.16l.08-.29s0-.06,0-.1l0,0h0s0,0,0,0a.51.51,0,0,1,0,.13v.25s0,.1,0,.15a2.36,2.36,0,0,0,0,.38c0,.05,0,.13,0,.16s0,.08.09.05h0s0,0,0,0h.29a1.82,1.82,0,0,0,.33,0C35.07,31.41,35.13,31.45,35.18,31.45Z"/></g><g class="cls-7"><path class="cls-4" d="M37.12,33.83a.21.21,0,0,1,.17.12l0,.1a.42.42,0,0,1,0,.14c0,.06,0,.08-.06.09h0c-.1.1-.17.09-.22,0s0,0-.05,0a.58.58,0,0,0-.29-.06l-.18,0-.33,0c-.18,0-.35,0-.3-.2l.05-.29a.09.09,0,0,1,0-.05,1,1,0,0,0,0-.34.5.5,0,0,1,0-.16l.07-.28a.38.38,0,0,0,0-.1s0,0,0,0h0l0,0a.59.59,0,0,1,0,.13v.26a.33.33,0,0,1,0,.14,1.61,1.61,0,0,0,0,.38.5.5,0,0,0,0,.16c0,.05,0,.08.09.05h.36a1.22,1.22,0,0,0,.33,0C37,33.79,37.06,33.83,37.12,33.83Z"/></g><g class="cls-7"><path class="cls-4" d="M39.06,36.07a.23.23,0,0,1,.17.12.2.2,0,0,1,0,.11.23.23,0,0,1,0,.13c0,.06,0,.08-.05.09h0c-.09.09-.17.08-.21,0s0,0,0,0a.62.62,0,0,0-.3-.06l-.17,0-.34,0c-.17,0-.34,0-.3-.21l0-.29a.09.09,0,0,0,0,0,1.27,1.27,0,0,0,.05-.34.39.39,0,0,1,0-.15c0-.1.05-.2.08-.29s0-.07,0-.1l0,0h.05l0,0a.59.59,0,0,1,0,.13v.26s0,.09,0,.14a2.48,2.48,0,0,0,0,.38s0,.13,0,.16,0,.08.09,0h.36a1.22,1.22,0,0,0,.33,0C39,36,39,36.07,39.06,36.07Z"/></g><g class="cls-7"><path class="cls-4" d="M35.86,28.71a.22.22,0,0,1,.19.1.39.39,0,0,1,0,.09.32.32,0,0,1,0,.14.19.19,0,0,1,0,.1h0c-.08.11-.15.11-.21,0a.06.06,0,0,0-.06,0,.51.51,0,0,0-.3,0h-.18l-.33,0c-.17,0-.35,0-.32-.16v-.34a1,1,0,0,0,0-.34,1,1,0,0,1,0-.17l0-.29a.34.34,0,0,0,0-.1l0,0h.05l0,0a.56.56,0,0,1,0,.12l0,.26a.34.34,0,0,1,0,.14,1.63,1.63,0,0,0,0,.38c0,.05,0,.13,0,.16s0,.08.09,0h.07l.18,0h.11a2,2,0,0,0,.33-.05C35.74,28.69,35.8,28.72,35.86,28.71Z"/></g><g class="cls-7"><path class="cls-4" d="M37.94,31a.19.19,0,0,1,.17.12.15.15,0,0,1,0,.1.22.22,0,0,1,0,.13c0,.06,0,.09,0,.1h0c-.1.09-.17.08-.21,0s0,0-.05,0a.62.62,0,0,0-.3-.06l-.17,0-.34,0c-.17,0-.34,0-.29-.21l0-.28v0a.83.83,0,0,0,0-.34.9.9,0,0,1,0-.16l.08-.29a.38.38,0,0,1,0-.1,0,0,0,0,1,0,0s0,0,0,0h0s0,0,0,0A.51.51,0,0,1,37,30v.26a.65.65,0,0,1,0,.14,1.2,1.2,0,0,0,0,.38A.5.5,0,0,0,37,31c0,.05,0,.08.08.05h.36a1.82,1.82,0,0,0,.33,0C37.84,31,37.89,31,37.94,31Z"/></g><g class="cls-7"><path class="cls-4" d="M39.57,33.5a.21.21,0,0,1,.17.12l0,.1a.26.26,0,0,1,0,.14c0,.06,0,.08-.06.09h0c-.1.09-.17.09-.22,0s0,0,0,0a.58.58,0,0,0-.29-.06l-.18,0-.33,0c-.18,0-.35,0-.3-.21l0-.28a.11.11,0,0,0,0,0,1.33,1.33,0,0,0,0-.34.3.3,0,0,1,0-.16l.07-.29a.28.28,0,0,0,0-.09l0,0h0l0,0a.59.59,0,0,1,0,.13v.26a.34.34,0,0,1,0,.14,2.36,2.36,0,0,0,0,.38c0,.05,0,.13,0,.16s0,.08.09,0h.36a1.2,1.2,0,0,0,.33,0C39.46,33.45,39.51,33.5,39.57,33.5Z"/></g><g class="cls-7"><path class="cls-4" d="M15.14,21.48a.21.21,0,0,1,.21,0,.23.23,0,0,1,.07.07.27.27,0,0,1,.05.13.17.17,0,0,1,0,.11h0c0,.13-.11.16-.2.09s0,0-.06,0a.6.6,0,0,0-.29.08.56.56,0,0,1-.16.07l-.31.14c-.16.08-.32.14-.36,0L14,21.87s0,0,0-.05a1.05,1.05,0,0,0-.12-.31.49.49,0,0,1,0-.16l-.07-.29,0-.09a.08.08,0,0,1,0,0l0,0h0a.76.76,0,0,1,.08.11l.11.23a.54.54,0,0,1,.07.13,1.5,1.5,0,0,0,.16.34.77.77,0,0,0,.06.15s.06.06.1,0l0,0,0,0,.15-.08.1-.06a1.2,1.2,0,0,0,.3-.15C15,21.49,15.09,21.51,15.14,21.48Z"/></g><g class="cls-7"><path class="cls-4" d="M17.78,22.57a.2.2,0,0,1,.21,0s.05,0,.08.07a.68.68,0,0,1,0,.13.13.13,0,0,1,0,.11h0c0,.13-.1.16-.19.09a.09.09,0,0,0-.07,0,.6.6,0,0,0-.29.08.46.46,0,0,1-.16.07l-.31.14c-.15.08-.31.14-.36,0L16.63,23a.43.43,0,0,1,0-.05,1.07,1.07,0,0,0-.13-.31c0-.05,0-.1,0-.16l-.07-.29,0-.09s0,0,0,0,0,0,0,0h.06a.86.86,0,0,1,.07.1l.12.23a.52.52,0,0,1,.06.13,1.35,1.35,0,0,0,.17.34.77.77,0,0,0,.06.15s.06.06.1,0l0,0,0,0,.16-.08.1-.05a1.18,1.18,0,0,0,.29-.16C17.67,22.59,17.73,22.6,17.78,22.57Z"/></g><g class="cls-7"><path class="cls-4" d="M20.68,23.82a.2.2,0,0,1,.21,0s.05,0,.08.07a.44.44,0,0,1,.05.13.17.17,0,0,1,0,.11h0c-.05.13-.11.16-.2.09s0,0-.06,0a.61.61,0,0,0-.3.08.46.46,0,0,1-.16.07l-.3.14c-.16.08-.32.13-.36-.05l-.1-.27s0,0,0-.05a1.24,1.24,0,0,0-.12-.32.38.38,0,0,1,0-.15l-.07-.29,0-.09s0,0,0,0l0,0h.06l.07.11.12.23s.06.08.06.13a2.16,2.16,0,0,0,.17.34.77.77,0,0,0,.06.15s.06.06.1,0l0,0,0,0,.15-.08.1-.06a1.14,1.14,0,0,0,.29-.15C20.57,23.83,20.64,23.85,20.68,23.82Z"/></g><g class="cls-7"><path class="cls-4" d="M23.59,25.42a.22.22,0,0,1,.2.06.27.27,0,0,1,.07.08.46.46,0,0,1,0,.14.11.11,0,0,1,0,.1h0c-.06.12-.13.14-.21.05s0,0-.06,0a.62.62,0,0,0-.3,0,1.54,1.54,0,0,1-.17.05l-.33.08c-.16.06-.33.09-.35-.09l0-.29a.09.09,0,0,1,0-.05,1.21,1.21,0,0,0-.07-.33.3.3,0,0,1,0-.16l0-.3a.29.29,0,0,0,0-.09.06.06,0,0,1,0,0h.09l.06.12.08.25a.5.5,0,0,1,0,.13,1.58,1.58,0,0,0,.11.37,1.3,1.3,0,0,0,0,.15s.06.07.11,0h0l0,0L23,25.6l.11,0a.89.89,0,0,0,.31-.11C23.48,25.42,23.54,25.44,23.59,25.42Z"/></g><g class="cls-7"><path class="cls-4" d="M26.32,27a.2.2,0,0,1,.2.06l.06.08a.26.26,0,0,1,0,.14.19.19,0,0,1,0,.1h0c-.06.11-.13.13-.2.05a.07.07,0,0,0-.06,0,.59.59,0,0,0-.3,0l-.17,0-.33.09c-.17.06-.33.09-.35-.1l-.05-.28a.43.43,0,0,0,0-.05.8.8,0,0,0-.07-.34.39.39,0,0,1,0-.16l0-.29s0-.07,0-.1a0,0,0,0,1,0,0s0,0,0,0h.06l.06.12.08.24a.74.74,0,0,1,0,.14,1.5,1.5,0,0,0,.11.36c0,.05,0,.13,0,.16s.06.07.1,0l0,0,0,0,.16-.05.11,0a1.92,1.92,0,0,0,.31-.11C26.2,27,26.27,27,26.32,27Z"/></g><g class="cls-7"><path class="cls-4" d="M28.81,28.86a.23.23,0,0,1,.2.08l0,.09a.53.53,0,0,1,0,.14c0,.06,0,.09,0,.1h0q-.12.16-.21,0a.06.06,0,0,0-.06,0,.65.65,0,0,0-.31,0,.88.88,0,0,1-.17,0l-.33.05c-.18,0-.35,0-.34-.14v-.34a1.27,1.27,0,0,0,0-.34.43.43,0,0,1,0-.16c0-.1,0-.2,0-.3s0-.07,0-.1l0,0s0,0,0,0h.06s0,.08,0,.12l.05.26a.32.32,0,0,1,0,.14,1.51,1.51,0,0,0,.07.37.71.71,0,0,0,0,.16c0,.05.05.08.1,0H28l.17,0,.11,0a1.23,1.23,0,0,0,.32-.07C28.7,28.84,28.76,28.87,28.81,28.86Z"/></g><g class="cls-7"><path class="cls-4" d="M31.32,30.94a.2.2,0,0,1,.19.08.93.93,0,0,1,0,.1.28.28,0,0,1,0,.13c0,.07,0,.09,0,.1h0c-.08.11-.15.11-.21,0s0,0-.06,0a.61.61,0,0,0-.3,0h-.18l-.33,0c-.17,0-.35,0-.33-.15v-.34a1,1,0,0,0,0-.34.85.85,0,0,1,0-.16l0-.3s0-.06,0-.09a.05.05,0,0,1,0,0h.05l0,0a.28.28,0,0,1,0,.12l.05.26s0,.09,0,.14a1.65,1.65,0,0,0,.05.38c0,.05,0,.13,0,.15s.05.08.1,0h0l.05,0,.17,0,.11,0a1.28,1.28,0,0,0,.33-.06C31.2,30.91,31.26,30.94,31.32,30.94Z"/></g><g class="cls-7"><path class="cls-4" d="M33.54,33a.22.22,0,0,1,.19.09,1,1,0,0,1,0,.1.28.28,0,0,1,0,.13c0,.07,0,.09,0,.1h0c-.08.1-.15.11-.21,0s0,0-.06,0a.74.74,0,0,0-.3,0H33l-.34,0c-.17,0-.34,0-.32-.16V33s0,0,0-.05a1,1,0,0,0,0-.34.86.86,0,0,1,0-.16l0-.3s0-.06,0-.1l0,0h.05l0,0a.5.5,0,0,1,0,.13l0,.25a.36.36,0,0,1,0,.14,1.17,1.17,0,0,0,0,.38.83.83,0,0,0,0,.16c0,.06,0,.08.1,0h.06l.18,0,.11,0a1,1,0,0,0,.33-.05C33.43,33,33.48,33,33.54,33Z"/></g><g class="cls-7"><path class="cls-4" d="M35.52,35.27a.19.19,0,0,1,.17.12.62.62,0,0,1,0,.1.34.34,0,0,1,0,.13c0,.06,0,.08-.06.09h0c-.1.09-.17.08-.22,0s0,0-.05,0a.73.73,0,0,0-.29-.07,1.09,1.09,0,0,1-.18,0l-.33,0c-.18,0-.35,0-.3-.21a2.74,2.74,0,0,0,0-.28.11.11,0,0,0,0-.05,1.4,1.4,0,0,0,.05-.34.3.3,0,0,1,0-.16c0-.1.05-.19.07-.29a.31.31,0,0,0,0-.1l0,0h0l0,0a.51.51,0,0,1,0,.13v.26a.34.34,0,0,1,0,.14,2.36,2.36,0,0,0,0,.38s0,.13,0,.16,0,.08.09.05H35a1.79,1.79,0,0,0,.33,0C35.41,35.22,35.46,35.26,35.52,35.27Z"/></g><g class="cls-7"><path class="cls-4" d="M37,37.64a.21.21,0,0,1,.17.12l0,.1a.42.42,0,0,1,0,.14c0,.06,0,.08-.06.09h0c-.1.09-.17.09-.22,0a.1.1,0,0,0-.05,0,.72.72,0,0,0-.29-.06l-.18,0-.33,0c-.18,0-.35,0-.3-.21a2.74,2.74,0,0,0,0-.28.43.43,0,0,1,0,0,1.33,1.33,0,0,0,.05-.34.3.3,0,0,1,0-.16l.07-.29a.28.28,0,0,0,0-.09s0,0,0,0h0s0,0,0,0a.59.59,0,0,1,0,.13v.26a.34.34,0,0,1,0,.14,1.62,1.62,0,0,0,0,.38c0,.05,0,.13,0,.16s0,.08.09,0h.36a1.2,1.2,0,0,0,.33,0C36.91,37.59,37,37.64,37,37.64Z"/></g><g class="cls-7"><path class="cls-4" d="M25.55,7.33a.2.2,0,0,1,.21,0l.07.07a.39.39,0,0,1,.05.13.15.15,0,0,1,0,.11h0c0,.12-.11.15-.2.08s0,0-.06,0a.62.62,0,0,0-.29.09l-.16.07L24.85,8c-.16.08-.32.14-.36,0l-.09-.28,0,0a1.12,1.12,0,0,0-.12-.32.43.43,0,0,1-.05-.16l-.07-.28s0-.06,0-.1a0,0,0,0,1,0,0s0,0,0,0h.05l.08.1.11.23a.42.42,0,0,1,.07.13,1.58,1.58,0,0,0,.16.35,1,1,0,0,0,.06.14s.06.06.1,0l0,0,0,0L25,7.59l.1,0a1.24,1.24,0,0,0,.3-.16C25.43,7.34,25.5,7.35,25.55,7.33Z"/></g><g class="cls-7"><path class="cls-4" d="M27.69,5.81a.2.2,0,0,1,.21,0l.07.08A.27.27,0,0,1,28,6c0,.06,0,.08,0,.1h0c0,.13-.11.16-.19.09a.06.06,0,0,0-.07,0,.6.6,0,0,0-.29.08l-.16.07L27,6.51c-.15.09-.32.14-.36,0l-.09-.27,0,0a1,1,0,0,0-.12-.32.38.38,0,0,1,0-.15l-.07-.29,0-.09a.06.06,0,0,1,0,0l0,0h0a.44.44,0,0,1,.08.11l.12.23a.67.67,0,0,1,.06.12c0,.14.12.23.16.35a1.16,1.16,0,0,0,.06.15s.07.06.1,0l0,0,0,0,.16-.08.1-.06a2,2,0,0,0,.29-.15C27.57,5.82,27.64,5.83,27.69,5.81Z"/></g><g class="cls-7"><path class="cls-4" d="M28.4,8.5a.21.21,0,0,1,.21,0l.07.08a.42.42,0,0,1,0,.13.15.15,0,0,1,0,.11h0c-.05.13-.11.15-.2.08a.07.07,0,0,0-.06,0,.65.65,0,0,0-.3.06A1,1,0,0,1,28,9l-.32.11c-.16.07-.33.11-.35-.07l-.08-.28s0,0,0-.05a.92.92,0,0,0-.1-.32.9.9,0,0,1,0-.16L27,8l0-.1s0,0,0,0l0,0h.05l.07.11.1.24c0,.05,0,.08,0,.13a1.42,1.42,0,0,0,.14.36.86.86,0,0,0,.05.15s.06.06.1,0l0,0,0,0,.16-.07.1,0a1.37,1.37,0,0,0,.31-.13C28.29,8.5,28.35,8.52,28.4,8.5Z"/></g><g class="cls-7"><path class="cls-4" d="M30.59,7.06a.2.2,0,0,1,.21,0,.3.3,0,0,1,.08.08.55.55,0,0,1,0,.12c0,.07,0,.09,0,.11h0c0,.12-.1.15-.19.08a.09.09,0,0,0-.07,0,.75.75,0,0,0-.29.09l-.16.07-.31.13c-.15.08-.31.14-.36,0l-.09-.28a.08.08,0,0,0,0,0,.88.88,0,0,0-.12-.32l-.05-.15-.07-.29a.94.94,0,0,0,0-.09s0,0,0,0l0,0h.06l.07.1.12.24a.45.45,0,0,1,.06.12,1.62,1.62,0,0,0,.17.35s0,.12.05.14.07.06.11,0l0,0,0,0L30,7.32l.1-.05a1.59,1.59,0,0,0,.29-.15C30.48,7.07,30.54,7.08,30.59,7.06Z"/></g><g class="cls-7"><path class="cls-4" d="M31,9.83a.22.22,0,0,1,.2.06l.06.09a.21.21,0,0,1,0,.13.16.16,0,0,1,0,.1h0c-.06.12-.13.14-.21,0s0,0-.06,0a.63.63,0,0,0-.3,0l-.17,0-.32.08c-.17.06-.34.09-.35-.1L29.8,10a.43.43,0,0,0,0,0,1,1,0,0,0-.06-.34.76.76,0,0,1,0-.16l0-.29s0-.07,0-.1a0,0,0,0,1,0,0l0,0h.06a.61.61,0,0,1,0,.12l.08.24a.74.74,0,0,1,0,.14,1.73,1.73,0,0,0,.11.37c0,.05,0,.12,0,.15s.06.07.1,0h0l0,0L30.4,10l.11,0a1.92,1.92,0,0,0,.31-.11C30.89,9.83,31,9.85,31,9.83Z"/></g><g class="cls-7"><path class="cls-4" d="M33.55,11.49a.22.22,0,0,1,.2.07.41.41,0,0,1,0,.09.28.28,0,0,1,0,.14c0,.06,0,.09,0,.1h0c-.07.11-.13.12-.2,0s0,0-.07,0a.61.61,0,0,0-.3,0L33,12l-.33.06c-.17,0-.34.06-.34-.13l0-.29v0a.91.91,0,0,0-.05-.33.86.86,0,0,1,0-.16v-.3a.3.3,0,0,0,0-.1l0,0s0,0,0,0h0s0,0,0,0a.61.61,0,0,1,0,.12l.06.25a.32.32,0,0,1,0,.14c0,.13.07.24.09.37a.7.7,0,0,0,0,.16c0,.05,0,.07.1,0h.06l.17-.05.11,0a1.16,1.16,0,0,0,.32-.08A.62.62,0,0,1,33.55,11.49Z"/></g><g class="cls-7"><path class="cls-4" d="M35.92,12.92a.22.22,0,0,1,.2.06.35.35,0,0,1,.06.09.44.44,0,0,1,0,.13.2.2,0,0,1,0,.11h0c-.06.12-.13.14-.21,0a.07.07,0,0,0-.06,0,.62.62,0,0,0-.3,0l-.17,0-.33.07c-.17,0-.34.08-.34-.11l0-.29a.43.43,0,0,1,0-.05,1,1,0,0,0-.06-.33.44.44,0,0,1,0-.16l0-.3s0-.06,0-.1,0,0,0,0h0l0,0a.37.37,0,0,1,0,.11l.07.25a.74.74,0,0,1,0,.14A1.27,1.27,0,0,0,35,13a.65.65,0,0,0,0,.16s0,.07.1,0l0,0h0l.17-.05.11,0a1.24,1.24,0,0,0,.31-.1C35.8,12.91,35.87,12.93,35.92,12.92Z"/></g><g class="cls-7"><path class="cls-4" d="M33.5,8.66a.2.2,0,0,1,.2.06.28.28,0,0,1,.06.08.25.25,0,0,1,0,.13.2.2,0,0,1,0,.11h0c-.06.12-.13.14-.2.06a.08.08,0,0,0-.07,0,.63.63,0,0,0-.3,0l-.16,0-.33.09c-.17.06-.34.09-.35-.1l-.05-.28a.43.43,0,0,0,0,0,1,1,0,0,0-.07-.34.41.41,0,0,1,0-.16l0-.29s0-.07,0-.1a0,0,0,0,1,0,0s0,0,0,0h.06l.06.12c0,.08,0,.16.07.24a.39.39,0,0,1,0,.14,1.5,1.5,0,0,0,.11.36c0,.05,0,.13,0,.16s.06.07.1,0l0,0,0,0,.17-.05.11,0a1.92,1.92,0,0,0,.31-.11C33.38,8.65,33.45,8.67,33.5,8.66Z"/></g><g class="cls-7"><path class="cls-4" d="M36.23,10.25a.23.23,0,0,1,.2.06.35.35,0,0,1,.06.09.21.21,0,0,1,0,.13.23.23,0,0,1,0,.11h0c-.06.12-.13.14-.2.06a.07.07,0,0,0-.07,0,.62.62,0,0,0-.3,0,.84.84,0,0,1-.17,0l-.32.09c-.17.05-.34.08-.35-.1l0-.29a.43.43,0,0,1,0-.05,1.21,1.21,0,0,0-.07-.33.9.9,0,0,1,0-.16l0-.3s0-.06,0-.09,0,0,0,0h0l0,0A.24.24,0,0,1,35,9.6l.08.25a.28.28,0,0,1,0,.13,2.29,2.29,0,0,0,.12.37,1.3,1.3,0,0,0,0,.15c0,.05.06.07.1,0h0l0,0,.17-.06.11,0a1.24,1.24,0,0,0,.31-.1C36.11,10.25,36.18,10.27,36.23,10.25Z"/></g><g class="cls-7"><path class="cls-4" d="M38.72,12.1a.19.19,0,0,1,.19.08.35.35,0,0,1,.06.09.32.32,0,0,1,0,.14c0,.06,0,.08,0,.1h0q-.1.16-.21,0s0,0-.06,0a.76.76,0,0,0-.3,0l-.17,0-.34,0c-.17,0-.34.05-.33-.14v-.29a.43.43,0,0,1,0-.05,1,1,0,0,0,0-.34.42.42,0,0,1,0-.16c0-.1,0-.2,0-.3s0-.06,0-.09a.08.08,0,0,1,0,0h0l0,0a.61.61,0,0,1,0,.12l.05.25s0,.09,0,.14a1.59,1.59,0,0,0,.06.38s0,.13,0,.16,0,.07.1,0h0l0,0,.17,0,.12,0a2,2,0,0,0,.32-.06C38.61,12.08,38.67,12.11,38.72,12.1Z"/></g><g class="cls-7"><path class="cls-4" d="M38.31,14.65a.23.23,0,0,1,.2.08.93.93,0,0,1,.05.1.45.45,0,0,1,0,.13c0,.07,0,.09,0,.1h0q-.12.16-.21,0a.06.06,0,0,0-.06,0,.65.65,0,0,0-.31,0,.88.88,0,0,1-.17,0l-.33.05c-.17,0-.35,0-.34-.14v-.34a1.27,1.27,0,0,0,0-.34.43.43,0,0,1,0-.16c0-.1,0-.2,0-.3a.17.17,0,0,0,0-.1l0,0h.09s0,.08,0,.13l0,.25a.34.34,0,0,1,0,.14,1.51,1.51,0,0,0,.07.37.67.67,0,0,0,0,.16c0,.05,0,.08.1,0l0,0h.05l.17,0,.11,0a1.23,1.23,0,0,0,.32-.07C38.2,14.63,38.26,14.66,38.31,14.65Z"/></g><g class="cls-7"><path class="cls-4" d="M41.22,14.17a.21.21,0,0,1,.2.09l0,.09a.32.32,0,0,1,0,.14.16.16,0,0,1,0,.1h0q-.12.16-.21,0a.06.06,0,0,0-.06,0,.61.61,0,0,0-.3,0,1.1,1.1,0,0,1-.18,0l-.33,0c-.18,0-.35,0-.33-.15v-.34a1,1,0,0,0,0-.34.43.43,0,0,1,0-.16l0-.3s0-.07,0-.1v0h.09a.65.65,0,0,1,0,.13l0,.25a.7.7,0,0,1,0,.14,1.58,1.58,0,0,0,0,.38.76.76,0,0,0,0,.16c0,.05,0,.07.1,0h.06l.18,0,.11,0a1.65,1.65,0,0,0,.32-.06C41.11,14.15,41.17,14.18,41.22,14.17Z"/></g><g class="cls-7"><path class="cls-4" d="M40.66,16.68a.2.2,0,0,1,.19.1.19.19,0,0,1,0,.09.32.32,0,0,1,0,.14.16.16,0,0,1,0,.1h0c-.08.11-.15.11-.21,0l-.06,0a.75.75,0,0,0-.3,0H40.1l-.34,0c-.17,0-.35,0-.32-.16V16.6a1,1,0,0,0,0-.34.49.49,0,0,1,0-.17l0-.29a.33.33,0,0,0,0-.1l0,0h0l0,0,0,.12,0,.26a.66.66,0,0,1,0,.14,1.64,1.64,0,0,0,0,.38.85.85,0,0,0,0,.16c0,.05,0,.08.1,0h.07l.17,0,.11,0a1.24,1.24,0,0,0,.33,0C40.55,16.65,40.61,16.69,40.66,16.68Z"/></g><g class="cls-7"><path class="cls-4" d="M42.88,18.8a.21.21,0,0,1,.18.12l0,.1a1.15,1.15,0,0,1,0,.14c0,.06,0,.08-.06.09h0c-.1.09-.17.09-.22,0a.05.05,0,0,0,0,0,.59.59,0,0,0-.29-.07,1,1,0,0,1-.18,0l-.33,0c-.18,0-.35,0-.3-.21l0-.28v-.05a.8.8,0,0,0,.05-.34.45.45,0,0,1,0-.16l.07-.29a.31.31,0,0,0,0-.1,0,0,0,0,1,0,0h.06s0,0,0,0a.51.51,0,0,1,0,.13v.26a.34.34,0,0,1,0,.14,1.6,1.6,0,0,0,0,.38.5.5,0,0,0,0,.16c0,.05,0,.08.09.05h.36a1.82,1.82,0,0,0,.33,0C42.78,18.76,42.83,18.8,42.88,18.8Z"/></g><g class="cls-7"><path class="cls-4" d="M43.48,16.33a.21.21,0,0,1,.19.1.39.39,0,0,1,0,.09.32.32,0,0,1,0,.14.16.16,0,0,1,0,.1h0c-.08.11-.15.11-.21,0s0,0-.06,0a.74.74,0,0,0-.3,0,.49.49,0,0,1-.17,0l-.34,0c-.17,0-.34,0-.32-.17V16.3s0,0,0-.05a1.29,1.29,0,0,0,0-.34.85.85,0,0,1,0-.16c0-.1,0-.2,0-.29s0-.07,0-.1l0,0h.09a.79.79,0,0,1,0,.13l0,.26a.32.32,0,0,1,0,.14,1.23,1.23,0,0,0,0,.38.85.85,0,0,0,0,.16c0,.05,0,.07.1,0l0,0h0l.18,0,.11,0a1.24,1.24,0,0,0,.33,0C43.37,16.3,43.43,16.34,43.48,16.33Z"/></g><g class="cls-7"><path class="cls-4" d="M25.63,9.72a.2.2,0,0,1,.21,0,.3.3,0,0,1,.08.08.28.28,0,0,1,0,.12c0,.07,0,.09,0,.11h0c0,.12-.1.15-.19.08s-.05,0-.07,0a.75.75,0,0,0-.29.09l-.16.07-.3.13c-.16.08-.32.14-.36,0s-.07-.18-.1-.28v0a1.52,1.52,0,0,0-.12-.32.94.94,0,0,1-.06-.15l-.07-.29a.24.24,0,0,0,0-.09s0,0,0,0l0,0h.06a.61.61,0,0,1,.07.1l.12.24a.45.45,0,0,1,.06.12,1.62,1.62,0,0,0,.17.35s0,.12.06.15.06.05.1,0l0,0,0,0,.16-.09.1-.05a1.59,1.59,0,0,0,.29-.15C25.52,9.73,25.59,9.74,25.63,9.72Z"/></g><g class="cls-7"><path class="cls-4" d="M28.54,11a.23.23,0,0,1,.21,0l.07.07a.39.39,0,0,1,.05.13.17.17,0,0,1,0,.11h0c-.05.12-.11.15-.2.08s0,0-.06,0a.62.62,0,0,0-.29.09l-.16.06-.31.14c-.16.08-.32.14-.36,0l-.09-.28a.08.08,0,0,1,0,0,1,1,0,0,0-.12-.32.43.43,0,0,1-.05-.16,2.86,2.86,0,0,1-.07-.28,1,1,0,0,0,0-.1v0l0,0h.06a.39.39,0,0,1,.08.1l.11.23s.06.08.06.13a1.8,1.8,0,0,0,.17.34.77.77,0,0,0,.06.15c0,.05.06.06.1,0l0,0,0,0,.15-.08.1-.05a1.46,1.46,0,0,0,.3-.16C28.42,11,28.49,11,28.54,11Z"/></g><g class="cls-7"><path class="cls-4" d="M31.44,12.57a.21.21,0,0,1,.21,0,.35.35,0,0,1,.06.09.39.39,0,0,1,0,.13c0,.07,0,.09,0,.11h0q-.09.18-.21.06a.07.07,0,0,0-.06,0,.52.52,0,0,0-.3,0l-.17,0-.33.09c-.16.05-.33.08-.34-.1l-.05-.29a.07.07,0,0,1,0,0,1.3,1.3,0,0,0-.07-.33.41.41,0,0,1,0-.16l0-.29a.3.3,0,0,0,0-.1s0,0,0,0h0s0,0,0,0l.06.11.08.25a.65.65,0,0,1,0,.13,1.45,1.45,0,0,0,.11.37.62.62,0,0,0,0,.16s.05.06.1,0l0,0,0,0,.16-.06.11,0a2,2,0,0,0,.32-.11C31.33,12.56,31.39,12.58,31.44,12.57Z"/></g><g class="cls-7"><path class="cls-4" d="M34.17,14.16a.22.22,0,0,1,.2.06l.07.08a.46.46,0,0,1,0,.14.16.16,0,0,1,0,.1h0c-.06.12-.12.14-.2,0s0,0-.06,0a.61.61,0,0,0-.3,0,1.54,1.54,0,0,1-.17.05l-.33.08c-.16.06-.33.09-.35-.09L33,14.37a.09.09,0,0,0,0,0,.75.75,0,0,0-.07-.33.44.44,0,0,1,0-.16l0-.3a.29.29,0,0,0,0-.09.06.06,0,0,1,0,0h.09l.06.12.08.25a.5.5,0,0,1,0,.13,1.58,1.58,0,0,0,.11.37,1.3,1.3,0,0,0,0,.15c0,.05.06.07.1,0h0l0,0,.16-.06.11,0a1.24,1.24,0,0,0,.31-.1C34.05,14.16,34.12,14.18,34.17,14.16Z"/></g><g class="cls-7"><path class="cls-4" d="M36.66,16a.21.21,0,0,1,.2.09.36.36,0,0,1,0,.09.53.53,0,0,1,0,.14.16.16,0,0,1,0,.1h0q-.12.16-.21,0l-.06,0a.81.81,0,0,0-.31,0,.86.86,0,0,1-.17,0l-.33,0c-.17,0-.35,0-.34-.14V16a1.27,1.27,0,0,0,0-.34.86.86,0,0,1,0-.16c0-.1,0-.2,0-.3a.18.18,0,0,0,0-.1l0,0h.09c0,.05,0,.09,0,.13l0,.25a.34.34,0,0,1,0,.14,1.69,1.69,0,0,0,.07.38.76.76,0,0,0,0,.16c0,.05,0,.07.1,0l0,0h.05l.17,0,.11,0a1.14,1.14,0,0,0,.32-.07A1.21,1.21,0,0,1,36.66,16Z"/></g><g class="cls-7"><path class="cls-4" d="M39.17,18.08a.2.2,0,0,1,.19.09.19.19,0,0,1,0,.09.53.53,0,0,1,0,.14.25.25,0,0,1,0,.1h0c-.08.11-.15.12-.21,0a.07.07,0,0,0-.06,0,.61.61,0,0,0-.3,0,1.1,1.1,0,0,1-.18,0l-.33,0c-.17,0-.34,0-.33-.14v-.34a1,1,0,0,0,0-.34,1,1,0,0,1,0-.17l0-.29s0-.07,0-.1,0,0,0,0h0l0,0a.5.5,0,0,1,.05.13l0,.25a.34.34,0,0,1,0,.14,1.65,1.65,0,0,0,.05.38s0,.13,0,.16,0,.07.09,0h0s0,0,0,0l.17,0,.11,0a1.26,1.26,0,0,0,.33-.05C39.05,18.06,39.11,18.09,39.17,18.08Z"/></g><g class="cls-7"><path class="cls-4" d="M41.39,20.16a.21.21,0,0,1,.19.1.19.19,0,0,1,0,.09.32.32,0,0,1,0,.14.16.16,0,0,1,0,.1h0c-.08.11-.15.11-.21,0s0,0-.06,0a.74.74,0,0,0-.3,0,.49.49,0,0,1-.17,0l-.34,0c-.17,0-.34,0-.32-.16v-.3s0,0,0-.05a1.3,1.3,0,0,0,0-.34.45.45,0,0,1,0-.16l0-.29s0-.07,0-.1,0,0,0,0,0,0,0,0h0s0,0,0,0a.53.53,0,0,1,0,.12l0,.26a.32.32,0,0,1,0,.14,1.64,1.64,0,0,0,0,.38.85.85,0,0,0,0,.16c0,.05,0,.07.1,0l0,0h.05l.17,0,.11,0a1.24,1.24,0,0,0,.33,0C41.28,20.13,41.34,20.17,41.39,20.16Z"/></g><path class="cls-3" d="M8.7,23.48s-.06-.05-.12-.08H8.49s0-.08,0-.12h0l0,.1,0,0c.11,0,.13-.06.11-.09s0,0,0-.06a.16.16,0,0,0-.05-.16v0a.44.44,0,0,0,0-.16s0,0-.06-.07l-.14-.22a1.41,1.41,0,0,0-.17-.18l-.11-.05-.21-.08c-.07,0-.15,0-.21-.06h0l-.07,0a2.64,2.64,0,0,0-.29,0c-.08,0-.13.07-.2.09a.67.67,0,0,0-.18.11l0,0s0,.08-.07.1-.08.11-.13.16a.34.34,0,0,0-.09.15s0,.05,0,.08,0,.08,0,.12,0,.09,0,.14a.22.22,0,0,0,0,.08v0a.11.11,0,0,0,0,.08.5.5,0,0,1,0,.18,1,1,0,0,0,0,.14s0,0,0,.06,0,0,0,0l0,0c0,.09.07.21.17.27s.08.08.13.12l0,0,.2.07.08,0c.07,0,.15,0,.21.06h0a.16.16,0,0,1,.13,0,.2.2,0,0,0,.15,0s.07,0,.11,0h.06l.11,0h0l.12-.05s0,0,.06,0,0-.06,0-.07a.54.54,0,0,0,.18-.11A1.29,1.29,0,0,0,8.6,24s0,0,0-.05.07-.05,0-.1,0,0,0,0l.1-.11h0A1.07,1.07,0,0,0,8.7,23.48Zm-.24.12h0a.59.59,0,0,0,0-.14C8.53,23.51,8.49,23.56,8.46,23.6Z"/><path class="cls-8" d="M51.56,8s-.05-.06-.12-.08h-.09a.49.49,0,0,0,0-.12h0l0,.09,0,0c.1,0,.12-.06.11-.09a.14.14,0,0,1,0-.07.14.14,0,0,0,0-.15,0,0,0,0,1,0,0,.43.43,0,0,0,0-.16s0-.05,0-.07a1.7,1.7,0,0,0-.15-.22,1.37,1.37,0,0,0-.16-.18s-.08,0-.11,0l-.21-.08c-.07,0-.15,0-.22-.06h-.09l-.29,0c-.07,0-.13.07-.2.08a.41.41,0,0,0-.17.12l0,0a.53.53,0,0,1-.06.1c-.06,0-.08.11-.14.16s-.06.1-.09.15,0,0,0,.08,0,.07,0,.11,0,.09-.06.14a.27.27,0,0,0,0,.09v0s0,0,0,.07a.57.57,0,0,1,0,.18.23.23,0,0,0,0,.14.08.08,0,0,1,0,.07v0l0,0c.05.09.07.21.18.26s.08.09.12.13l0,0,.21.07.08,0c.07,0,.14,0,.21.06h0a.18.18,0,0,1,.14,0,.14.14,0,0,0,.14,0s.08,0,.11,0h.07l.1,0h0l.12,0,.05,0s0-.07,0-.07a.52.52,0,0,0,.18-.12,1.71,1.71,0,0,0,.18-.2s0,0,0-.06.06,0,0-.09,0,0,0,0l.11-.11v0A1,1,0,0,0,51.56,8Zm-.23.12h0c0-.05,0-.09,0-.14S51.36,8,51.33,8.07Z"/><path class="cls-6" d="M34.71,45s-.06,0-.12-.08H34.5a.49.49,0,0,0,0-.12h0l0,.1.05,0c.1,0,.12-.06.11-.09a.14.14,0,0,1,0-.06.18.18,0,0,0,0-.16,0,0,0,0,1,0,0,.44.44,0,0,0,0-.16s0,0-.06-.07a1.35,1.35,0,0,0-.14-.22L34.26,44l-.12,0-.2-.08c-.08,0-.15,0-.22-.06h0l-.07,0a2.83,2.83,0,0,0-.29,0c-.08,0-.13.07-.2.09A.67.67,0,0,0,33,44l0,0s0,.08-.06.1-.08.11-.14.16-.06.1-.09.15l0,.08a.5.5,0,0,1,0,.12s0,.09,0,.14a.22.22,0,0,0,0,.08s0,0,0,0,0,0,0,.08a.52.52,0,0,1,0,.18.27.27,0,0,0,0,.14.06.06,0,0,1,0,.06s0,0,0,0l0,0c.05.09.07.21.17.27s.08.08.13.12l0,0,.2.07.09,0c.06,0,.14,0,.21.06h0a.18.18,0,0,1,.14,0,.17.17,0,0,0,.14,0s.08,0,.11,0h.07l.1,0h0l.12-.05s0,0,.05,0,0-.06,0-.07a.5.5,0,0,0,.17-.11,1.29,1.29,0,0,0,.19-.21s0,0,0-.05.06,0,0-.1,0,0,0,0a.52.52,0,0,0,.1-.11s0,0,0,0A.62.62,0,0,0,34.71,45Zm-.23.12h0s0-.09,0-.14S34.51,45.12,34.48,45.16Z"/></g></g></g></svg>