<svg xmlns="http://www.w3.org/2000/svg" viewBox="0 0 51.64 68.86"><defs><style>.cls-1{fill:#292d37;}.cls-2{fill:#f9ba2b;}.cls-3{fill:#fa483c;}.cls-4{fill:#fff;}.cls-5{fill:#137a83;}</style></defs><g id="Слой_2" data-name="Слой 2"><g id="OBJECTS"><rect class="cls-1" x="-8.61" y="8.61" width="68.86" height="51.64" transform="translate(60.25 8.61) rotate(90)"/><path class="cls-2" d="M6.36,34.76a.22.22,0,0,0-.13-.08H6.15a.5.5,0,0,0,0-.12h0l0,.09,0,0c.11,0,.13-.06.11-.09a.08.08,0,0,1,0-.07.15.15,0,0,0,0-.15s0,0,0,0a.43.43,0,0,0,0-.16s0,0,0-.07a1.07,1.07,0,0,0-.15-.22.9.9,0,0,0-.16-.18l-.11-.05-.21-.08c-.07,0-.15,0-.21-.06H5.28l-.3,0c-.07,0-.13.07-.19.08a.44.44,0,0,0-.18.12s0,0,0,0,0,.07-.07.1-.08.11-.13.16-.07.1-.1.15,0,.05,0,.08,0,.07,0,.11,0,.09-.06.15v.12s0,.05,0,.07a.38.38,0,0,1,0,.18.33.33,0,0,0,0,.14s0,0,0,.07,0,0,0,0l0,0c.06.09.08.21.18.26s.08.09.12.13l.05,0,.21.07.08,0c.07,0,.15,0,.21.06h0a.15.15,0,0,1,.13,0,.17.17,0,0,0,.14,0s.08,0,.12,0h.06l.11,0h0l.12,0,.06,0s0-.07,0-.07a.44.44,0,0,0,.18-.12.86.86,0,0,0,.18-.2s0,0,0-.06.06,0,0-.09a0,0,0,0,1,0,0L6.43,35v0A1,1,0,0,0,6.36,34.76Zm-.24.12h0a.68.68,0,0,0,0-.14C6.19,34.79,6.15,34.84,6.12,34.88Z"/><path class="cls-3" d="M29.44,16.84s-.06-.05-.12-.07l-.08,0h0s0-.08,0-.12h0l0,.1,0,0c.11,0,.13-.06.11-.08s0-.05,0-.07a.16.16,0,0,0-.05-.16v0a.44.44,0,0,0,0-.16s-.05,0-.06-.07L29.15,16a1.41,1.41,0,0,0-.17-.18l-.11,0-.21-.08c-.07,0-.15,0-.21-.06h0l-.07,0a2.64,2.64,0,0,0-.29,0c-.08,0-.13.07-.2.09a.67.67,0,0,0-.18.11l0,0s0,.08-.07.1-.08.11-.13.16a.34.34,0,0,0-.09.15s0,.05,0,.08,0,.08,0,.12-.05.09-.05.14a.25.25,0,0,0,0,.08v0a.08.08,0,0,0,0,.07.52.52,0,0,1,0,.18.74.74,0,0,0,0,.14s0,0,0,.06l0,0,0,0c0,.09.07.21.17.27a1.42,1.42,0,0,1,.13.12l.05,0,.2.07.08,0c.07,0,.15,0,.21.06h0a.16.16,0,0,1,.13,0,.2.2,0,0,0,.15,0s.07,0,.11,0h.06l.11,0h0l.12-.05s0,0,.06,0,0-.06,0-.07a.62.62,0,0,0,.17-.11,1.29,1.29,0,0,0,.19-.21s0,0,0-.05.07-.05,0-.1,0,0,0,0l.1-.11h0A1.07,1.07,0,0,0,29.44,16.84Zm-.23.12h0a.59.59,0,0,0,0-.14C29.27,16.87,29.23,16.92,29.21,17Z"/><path class="cls-4" d="M35.6,55.7s-.06-.05-.12-.08h-.09a.49.49,0,0,0,0-.12h0l0,.1.05,0c.1,0,.12-.06.11-.09a.14.14,0,0,1,0-.06.18.18,0,0,0,0-.16,0,0,0,0,1,0,0,.44.44,0,0,0,0-.16s0,0-.06-.07a1.35,1.35,0,0,0-.14-.22l-.16-.18-.12,0-.2-.08c-.07,0-.15,0-.22-.06h0l-.07,0a2.83,2.83,0,0,0-.29,0c-.08,0-.13.07-.2.09a.5.5,0,0,0-.17.11s0,0,0,0,0,.08-.06.1-.08.11-.14.16-.06.1-.09.15l0,.08a.5.5,0,0,1,0,.12s0,.09-.05.14a.22.22,0,0,0,0,.08s0,0,0,0,0,0,0,.08a.52.52,0,0,1,0,.18.27.27,0,0,0,0,.14.06.06,0,0,1,0,.06s0,0,0,0l0,0c.05.09.07.21.17.27s.08.08.13.12l0,0,.2.07.09,0c.06,0,.14,0,.21.06h0a.18.18,0,0,1,.14,0,.17.17,0,0,0,.14,0s.08,0,.11,0h.07l.1,0h0l.12,0s0,0,.05,0,0-.06,0-.07a.5.5,0,0,0,.17-.11,1,1,0,0,0,.19-.21s0,0,0,0,.06-.05,0-.1,0,0,0,0a.52.52,0,0,0,.1-.11s0,0,0,0A.62.62,0,0,0,35.6,55.7Zm-.23.12h0s0-.09,0-.14S35.4,55.78,35.37,55.82Z"/><path class="cls-4" d="M6.13,48.11c1.67-1.67,2.94-2.18,4.46-2.18,2.29,0,4,1.67,6.5,1.67s4.27-2.69,5-3.9c.1-.16.56,0,.51.25-.41,1.83-1.93,5.94-5.89,5.74-3-.16-4-1.12-7.06-1.12A6.57,6.57,0,0,0,4.81,50.9c-.31.16-.36.16-.56-.2C3.54,44.05,6.33,40.29,12.62,36,16.53,33.44,23.13,29.89,23.13,24c0-1.88-1.47-5.48-5.38-5.48-5.33,0-8.17,5.12-8.17,7.71v.51c-.15.2-.41.3-.56-.05v-.46c0-4.41,4.47-8.32,8.73-8.32,4.82,0,10.1,2.69,10.1,7.41,0,6.8-8.37,10.41-13.6,13.5C9.63,41.61,6.89,43.09,6.13,48.11Z"/><path class="cls-4" d="M35.57,33.44c4.12.91,8.48,3.2,8.48,8.17,0,6.15-6.95,9.14-12.59,9.14-3.09,0-7.46-1.47-7.46-6.39,0-2.85,2.08-5.94,5.08-5.94.15.2.1.35,0,.56-2.19,0-4.47,2.33-4.47,5.38,0,4,3.81,5.78,6.85,5.78,6,0,7.92-4.41,7.92-8.53s-1.73-7.1-6.45-8V33c6,0,10.46-3.51,10.46-8.79,0-2.89-1.52-5.73-5.28-5.73a8.81,8.81,0,0,0-7.31,4,6.54,6.54,0,0,0-.86,4.06c-.15.25-.36.2-.56.05a7.3,7.3,0,0,1,.91-4.32,9.24,9.24,0,0,1,7.82-4.41c3.71,0,9.39,1.67,9.39,5.68C47.5,29.74,41.06,32.48,35.57,33.44Z"/><path class="cls-4" d="M45.31,32.69a3.1,3.1,0,0,1,2.81,1.66A1.72,1.72,0,0,1,48,36.16a1.19,1.19,0,0,1-.93.42,1.87,1.87,0,0,1-.8-.28l-2.11-1.14c-.59-.31-1.64-.55-2-1.09-.55-.72.38-.82,1.14-1A6,6,0,0,1,45.31,32.69Z"/><path class="cls-5" d="M7.22,31.23a3.62,3.62,0,0,1-2.91-2,1.67,1.67,0,0,1,.23-1.83,1.19,1.19,0,0,1,1-.33,2.09,2.09,0,0,1,.84.39c.74.46,1.47.93,2.2,1.4s1.71.75,2.12,1.35c.55.81-.44.8-1.24.95A6.77,6.77,0,0,1,7.22,31.23Z"/><path class="cls-3" d="M24.14,55.35a4.33,4.33,0,0,1-2.78,3.15A1.94,1.94,0,0,1,19.25,58,1.39,1.39,0,0,1,19,56.8a2.63,2.63,0,0,1,.57-.93l2-2.4c.54-.66,1.13-1.91,1.89-2.31,1-.55.86.61.92,1.57A7.82,7.82,0,0,1,24.14,55.35Z"/></g></g></svg>