<svg xmlns="http://www.w3.org/2000/svg" viewBox="0 0 103.78 68.86"><defs><style>.cls-1{isolation:isolate;}.cls-2{fill:#f9ba2b;}.cls-3{fill:#292d37;}.cls-4{fill:#fff;}.cls-5{fill:#137a83;}.cls-6{fill:#fa483c;}.cls-7{opacity:0.57;mix-blend-mode:multiply;}.cls-8{fill:#c75952;}</style></defs><g class="cls-1"><g id="Слой_2" data-name="Слой 2"><g id="OBJECTS"><rect class="cls-2" x="17.46" y="-17.46" width="68.86" height="103.78" transform="translate(86.32 -17.46) rotate(90)"/><path class="cls-3" d="M6.66,31.22a5,5,0,0,1,3.8-1.85c1.95,0,3.38,1.42,5.54,1.42s3.63-2.29,4.28-3.33c.08-.13.47.05.43.22-.35,1.56-1.64,5.06-5,4.88-2.56-.13-3.38-1-6-1a5.6,5.6,0,0,0-4.15,2c-.26.13-.31.13-.48-.17-.6-5.66,1.77-8.86,7.13-12.49,3.33-2.21,9-5.23,9-10.29A4.68,4.68,0,0,0,16.56,6c-4.54,0-7,4.37-7,6.57V13c-.13.18-.35.26-.48,0v-.39c0-3.76,3.81-7.09,7.44-7.09,4.11,0,8.6,2.29,8.6,6.31,0,5.79-7.13,8.86-11.58,11.5C9.64,25.69,7.31,26.94,6.66,31.22Z"/><path class="cls-3" d="M43.88,23.18a8.83,8.83,0,0,1-1,1.3A6.07,6.07,0,0,1,39.3,27c-.65,4.11-1.3,7.91-1.51,8.69-.13.3-.35.39-.82.39s-2.08-.22-2.12-.22l-.22-.08.09-.22c.13-.69.65-4.5,1.21-8.65a20.35,20.35,0,0,1-2-.43,16.09,16.09,0,0,0-3.37-.39,16.44,16.44,0,0,0-7.14,2.21c-.38-.22-.38-.52-.25-.91,4-3.93,16-21.22,16.12-21.4h0V6a1.47,1.47,0,0,1,.95-.43c1.17,0,2.12,1.68,2.16,1.73l.13.17-.13.13c-.08.17-10.59,11.76-16,18a7.88,7.88,0,0,1,3.81-1.29,12.38,12.38,0,0,1,3.84.78l2,.6c.91-5.88,1.77-12.28,1.77-12.36V13l.3,0c.22.09,3.07.3,3,1.43v0c-.09.39-.87,6.05-1.69,11.41a4.39,4.39,0,0,0,3.11-1.77A14.3,14.3,0,0,0,43.45,23Z"/><path class="cls-4" d="M88.92,33a3.07,3.07,0,0,1,3.23.34,1.67,1.67,0,0,1,.61,1.71,1.15,1.15,0,0,1-.66.77,1.9,1.9,0,0,1-.85.08l-2.39-.15c-.67-.05-1.72.17-2.31-.15-.8-.43,0-.9.6-1.43A6.11,6.11,0,0,1,88.92,33Z"/><path class="cls-5" d="M50.34,28.91a3.64,3.64,0,0,1-2.91-2,1.67,1.67,0,0,1,.23-1.83,1.15,1.15,0,0,1,1-.33,2.09,2.09,0,0,1,.84.39c.74.46,1.47.93,2.2,1.4s1.71.75,2.12,1.35c.55.81-.44.8-1.24.95A6.77,6.77,0,0,1,50.34,28.91Z"/><path class="cls-6" d="M70.54,55.24a4.36,4.36,0,0,1,.68,4.15,1.93,1.93,0,0,1-1.72,1.32,1.38,1.38,0,0,1-1.08-.58,2.58,2.58,0,0,1-.36-1c-.21-1-.41-2-.62-3-.17-.84-.76-2.08-.6-2.93.23-1.13,1-.28,1.81.29A7.81,7.81,0,0,1,70.54,55.24Z"/><path class="cls-5" d="M82.19,43.59a1.69,1.69,0,0,1-2.92.69L76.7,41.34,64,26.76l-2.57-3A1.7,1.7,0,0,1,62.47,21l23.8-2.74a1.71,1.71,0,0,1,1.84,2.11Z"/><path class="cls-6" d="M48.79,63.55a5.09,5.09,0,0,1-2.8-1.7l-7.15-8.18a5.32,5.32,0,0,1-.55-.75c-1-1.55-1-3.3-.07-4.24l.1-.1L42.44,45C42.65,51.3,45.65,57,48.79,63.55Z"/><path class="cls-4" d="M63.78,26.39,76.13,41.14l-6.22,5.43a66.21,66.21,0,0,1-6.59-19.78Z"/><path class="cls-4" d="M64.82,51,60,55.25c-3.2-7-6.22-13.15-6.45-19.9l5-4.35C59.28,37.64,61.64,44.3,64.82,51Z"/><path class="cls-4" d="M55.2,59.38,51,63.06a2.57,2.57,0,0,1-2.18.49C45.65,57,42.65,51.3,42.44,45l4.93-4.3C47.21,47.22,51.36,52.66,55.2,59.38Z"/><path class="cls-6" d="M69.91,46.57,64.82,51c-3.18-6.7-5.54-13.36-6.33-20l4.83-4.21A66.21,66.21,0,0,0,69.91,46.57Z"/><path class="cls-5" d="M60,55.25,55.2,59.38c-3.84-6.72-8-12.16-7.83-18.69l6.13-5.34C53.73,42.1,56.75,48.26,60,55.25Z"/><g class="cls-7"><path class="cls-5" d="M52.72,39.73a.25.25,0,0,1,.15.21.62.62,0,0,1,0,.13.44.44,0,0,1-.08.15c-.05.06-.08.08-.1.08s0,0,0,0-.23,0-.24-.11,0-.05,0-.07a.72.72,0,0,0-.31-.2,1.21,1.21,0,0,1-.2-.09l-.38-.17c-.2-.08-.39-.18-.25-.37l.17-.31,0-.06a1.11,1.11,0,0,0,.2-.37.59.59,0,0,1,.1-.17l.2-.31A.39.39,0,0,0,52,38l0,0h.06l0,0a.94.94,0,0,1,0,.16l-.12.3a.52.52,0,0,1-.06.16,1.46,1.46,0,0,0-.18.43,1.5,1.5,0,0,0-.09.18c0,.07,0,.11.08.1h.08l.21.08.13,0a1.74,1.74,0,0,0,.38.14C52.61,39.63,52.66,39.7,52.72,39.73Z"/></g><g class="cls-7"><path class="cls-5" d="M53.49,43.21a.28.28,0,0,1,.15.21.62.62,0,0,1,0,.13.44.44,0,0,1-.08.15.22.22,0,0,1-.1.09h0c-.15.06-.23,0-.23-.11a.13.13,0,0,0-.05-.07.76.76,0,0,0-.32-.2,1.11,1.11,0,0,1-.19-.09l-.38-.17c-.2-.08-.39-.18-.26-.37l.18-.31,0,0A1.35,1.35,0,0,0,52.4,42a1,1,0,0,1,.1-.17l.21-.3s0-.08.06-.11,0,0,0,0h.07s0,0,0,0a.76.76,0,0,1,0,.16l-.12.3a1,1,0,0,1-.06.16,1.72,1.72,0,0,0-.19.44c0,.05-.08.13-.08.17s0,.11.08.1h.08l.2.08.14.05a1.57,1.57,0,0,0,.38.14C53.38,43.11,53.42,43.19,53.49,43.21Z"/></g><g class="cls-7"><path class="cls-5" d="M54.67,47.13a.26.26,0,0,1,.15.21.62.62,0,0,1,0,.13.56.56,0,0,1-.08.15c0,.06-.08.08-.1.08h0c-.16.07-.24,0-.24-.11a.1.1,0,0,0-.05-.06.69.69,0,0,0-.31-.2.93.93,0,0,1-.2-.09l-.38-.18c-.2-.07-.39-.18-.26-.36l.18-.31,0-.06a1.44,1.44,0,0,0,.19-.37,1.62,1.62,0,0,1,.1-.18l.21-.3a.39.39,0,0,0,.06-.11l0,0h.07l0,0a.9.9,0,0,1,0,.16l-.12.29a.85.85,0,0,1-.06.17c-.11.12-.12.29-.19.43s-.08.14-.08.18,0,.11.08.1h0s0,0,0,0l.21.08.13,0a1.77,1.77,0,0,0,.38.15C54.56,47,54.6,47.1,54.67,47.13Z"/></g><g class="cls-7"><path class="cls-5" d="M56.68,50.82a.25.25,0,0,1,.15.21.3.3,0,0,1,0,.13.28.28,0,0,1-.08.15c0,.06-.07.08-.1.08h0c-.15.07-.23,0-.24-.11s0,0,0-.06A.72.72,0,0,0,56,51a1.11,1.11,0,0,1-.19-.09l-.38-.17c-.21-.08-.39-.19-.26-.37l.18-.31s0,0,0-.06a1.3,1.3,0,0,0,.19-.37.59.59,0,0,1,.1-.17l.21-.31a1.17,1.17,0,0,0,.05-.11l0,0h.06l0,0,0,.16-.12.3a.56.56,0,0,1-.07.16,2.3,2.3,0,0,0-.18.43,1.5,1.5,0,0,0-.09.18c0,.07,0,.11.08.1h.09l.2.08.14,0a1.42,1.42,0,0,0,.38.14C56.58,50.72,56.62,50.79,56.68,50.82Z"/></g><g class="cls-7"><path class="cls-5" d="M58.57,54.18a.29.29,0,0,1,.18.19.53.53,0,0,1,0,.13.41.41,0,0,1,0,.16.22.22,0,0,1-.09.1h0c-.14.09-.22.07-.25-.07s0,0-.06-.06a.79.79,0,0,0-.34-.14,1.29,1.29,0,0,1-.21-.06l-.4-.11c-.22,0-.42-.11-.32-.32l.13-.33s0,0,0-.06a1.44,1.44,0,0,0,.13-.4.62.62,0,0,1,.07-.19l.16-.33,0-.12,0,0h.06s0,0,0,0a.92.92,0,0,1,0,.16l-.06.31c0,.06,0,.12,0,.17a1.82,1.82,0,0,0-.11.46,1,1,0,0,0-.06.19c0,.07,0,.1.1.08h.08l.22,0L58,54a1.67,1.67,0,0,0,.4.08C58.45,54.11,58.5,54.17,58.57,54.18Z"/></g><g class="cls-7"><path class="cls-5" d="M50.43,42.14a.25.25,0,0,1,.15.21.62.62,0,0,1,0,.13.28.28,0,0,1-.08.15c0,.06-.07.08-.1.08h0c-.15.07-.23,0-.24-.11s0-.05,0-.06a.72.72,0,0,0-.32-.2,1.76,1.76,0,0,1-.2-.09l-.38-.18c-.2-.07-.38-.18-.25-.36l.18-.31s0,0,0-.06a1.22,1.22,0,0,0,.2-.37.81.81,0,0,1,.1-.18l.21-.3a1.17,1.17,0,0,0,.05-.11.05.05,0,0,1,0,0h.06s0,0,0,0a.94.94,0,0,1,0,.16c0,.1-.08.19-.11.29s0,.12-.07.17a2.05,2.05,0,0,0-.18.43,1.5,1.5,0,0,0-.09.18c0,.06,0,.11.08.09h0s0,0,.06,0l.2.08.13,0a1.66,1.66,0,0,0,.39.15C50.32,42,50.37,42.11,50.43,42.14Z"/></g><g class="cls-7"><path class="cls-5" d="M51.1,46a.28.28,0,0,1,.15.22.66.66,0,0,1,0,.13.53.53,0,0,1-.08.14.22.22,0,0,1-.1.09h0c-.15.06-.23,0-.24-.11a.13.13,0,0,0-.05-.07.92.92,0,0,0-.31-.2,1.21,1.21,0,0,1-.2-.09L49.87,46c-.2-.08-.39-.18-.26-.37l.18-.31,0-.05a1.38,1.38,0,0,0,.2-.38.5.5,0,0,1,.1-.17l.2-.3s0-.08.06-.11l0,0h.06s0,0,0,0a.41.41,0,0,1,0,.16l-.12.3a.52.52,0,0,1-.06.16,1.41,1.41,0,0,0-.18.44.71.71,0,0,0-.09.17c0,.07,0,.11.08.1h0l0,0,.21.07.13,0a1.74,1.74,0,0,0,.38.14C51,45.92,51,46,51.1,46Z"/></g><g class="cls-7"><path class="cls-5" d="M52.54,49.48a.28.28,0,0,1,.18.2.56.56,0,0,1,0,.13.33.33,0,0,1-.06.15.22.22,0,0,1-.09.1h0c-.14.08-.23.06-.25-.08a.08.08,0,0,0-.05-.06.89.89,0,0,0-.34-.16.74.74,0,0,1-.21-.07l-.39-.12c-.21,0-.41-.13-.3-.33l.14-.34,0,0a1.49,1.49,0,0,0,.15-.4.67.67,0,0,1,.07-.18c.06-.11.12-.22.17-.33a.36.36,0,0,0,0-.11l0,0h.06s0,0,0,0a.86.86,0,0,1,0,.16l-.08.31c0,.06,0,.12,0,.17a2.3,2.3,0,0,0-.12.45,1.14,1.14,0,0,0-.07.19c0,.07,0,.1.09.08h.09l.21.05.14,0a1.72,1.72,0,0,0,.39.1C52.42,49.4,52.48,49.47,52.54,49.48Z"/></g><g class="cls-7"><path class="cls-5" d="M54.29,52.94a.25.25,0,0,1,.19.18.44.44,0,0,1,0,.13.47.47,0,0,1,0,.16.22.22,0,0,1-.09.1h0c-.14.09-.22.07-.26-.06s0-.05-.05-.06a.89.89,0,0,0-.35-.14.8.8,0,0,1-.21,0l-.4-.1c-.22,0-.42-.1-.32-.31l.11-.34s0,0,0-.06A1.15,1.15,0,0,0,53,52a.62.62,0,0,1,.07-.19l.15-.34a.61.61,0,0,0,0-.11l0,0h.06l0,0a.43.43,0,0,1,0,.16l-.06.31a.47.47,0,0,1,0,.17,2.44,2.44,0,0,0-.09.47,1,1,0,0,0-.06.19c0,.06,0,.1.1.08h.09l.21,0,.14,0a2.57,2.57,0,0,0,.4.07C54.17,52.86,54.23,52.92,54.29,52.94Z"/></g><g class="cls-7"><path class="cls-5" d="M56.09,56.23a.26.26,0,0,1,.19.19.41.41,0,0,1,0,.12.32.32,0,0,1-.06.16.17.17,0,0,1-.08.1h0c-.14.09-.23.06-.26-.07a.08.08,0,0,0-.05-.06.85.85,0,0,0-.35-.15,1.66,1.66,0,0,1-.21-.06l-.4-.1c-.21,0-.41-.12-.31-.32l.13-.34a.14.14,0,0,1,0-.06,1.44,1.44,0,0,0,.13-.4.56.56,0,0,1,.07-.19l.15-.33s0-.08,0-.12l0,0h.07s0,0,0,0a.86.86,0,0,1,0,.16l-.07.31c0,.06,0,.12,0,.17a1.9,1.9,0,0,0-.1.46,1,1,0,0,0-.06.19C55,56,55,56,55,56h.09l.21,0,.14,0a1.42,1.42,0,0,0,.4.08C56,56.15,56,56.21,56.09,56.23Z"/></g><g class="cls-7"><path class="cls-8" d="M63.35,31a.27.27,0,0,1,.15.22.62.62,0,0,1,0,.13.42.42,0,0,1-.09.15.16.16,0,0,1-.1.08h0q-.23.09-.24-.12a.1.1,0,0,0,0-.07.72.72,0,0,0-.31-.2,1.86,1.86,0,0,1-.2-.1l-.37-.18c-.2-.08-.39-.19-.25-.37s.12-.21.19-.31,0,0,0-.05a1.48,1.48,0,0,0,.2-.37.59.59,0,0,1,.1-.17l.22-.3a1.17,1.17,0,0,0,.05-.11l0,0h.07l0,0a.94.94,0,0,1,0,.16l-.12.29a.39.39,0,0,1-.07.16,1.82,1.82,0,0,0-.19.43,1.8,1.8,0,0,0-.1.18c0,.07,0,.11.08.1h0l.05,0,.2.08.13.05a2.5,2.5,0,0,0,.38.15C63.25,30.85,63.29,30.93,63.35,31Z"/></g><g class="cls-7"><path class="cls-8" d="M64,34.45a.26.26,0,0,1,.15.22s0,.08,0,.13a.4.4,0,0,1-.09.14C64,35,64,35,64,35h0c-.16.06-.23,0-.24-.12s0,0,0-.07a.79.79,0,0,0-.31-.2l-.2-.1-.37-.18c-.2-.08-.39-.19-.25-.37l.18-.31,0,0a1.53,1.53,0,0,0,.21-.37.48.48,0,0,1,.1-.17l.22-.3,0-.11,0,0h.06l0,0a.94.94,0,0,1,0,.16l-.12.29s0,.11-.07.16a2.39,2.39,0,0,0-.2.43c0,.06-.08.14-.09.18s0,.1.08.1h0s0,0,.06,0l.2.08.13.06a1.88,1.88,0,0,0,.38.15C63.94,34.35,64,34.42,64,34.45Z"/></g><g class="cls-7"><path class="cls-8" d="M65.13,38.39a.27.27,0,0,1,.15.22.62.62,0,0,1,0,.13.42.42,0,0,1-.09.15.25.25,0,0,1-.1.08h0c-.16.06-.23,0-.24-.12a.1.1,0,0,0,0-.07.92.92,0,0,0-.31-.2,1.24,1.24,0,0,1-.2-.1l-.37-.18c-.2-.08-.39-.19-.25-.37l.18-.31,0,0a1.53,1.53,0,0,0,.21-.37.59.59,0,0,1,.1-.17l.22-.3a1.17,1.17,0,0,0,0-.11l0,0h.06l0,0a.94.94,0,0,1,0,.16l-.12.29c0,.06,0,.12-.07.16a2.39,2.39,0,0,0-.2.43c0,.06-.08.14-.09.18s0,.11.08.1h0l.06,0,.2.08.13.05a2.15,2.15,0,0,0,.38.15C65,38.29,65.07,38.37,65.13,38.39Z"/></g><g class="cls-7"><path class="cls-8" d="M67.06,42.13a.26.26,0,0,1,.15.22.66.66,0,0,1,0,.13.4.4,0,0,1-.09.14c0,.06-.08.08-.1.08h0c-.15.07-.23,0-.24-.11s0-.05,0-.07a1,1,0,0,0-.31-.21,1.21,1.21,0,0,1-.2-.09L65.84,42c-.2-.08-.39-.19-.25-.37l.18-.31s0,0,0,0a1.9,1.9,0,0,0,.2-.37.48.48,0,0,1,.1-.17l.22-.3a1.17,1.17,0,0,1,0-.11l0,0,0,0h0l0,0a.66.66,0,0,1,0,.15c0,.11-.08.2-.12.3s0,.11-.07.16a1.82,1.82,0,0,0-.19.43,1.8,1.8,0,0,0-.1.18c0,.06,0,.1.08.09h.09l.2.08.13,0a1.8,1.8,0,0,0,.38.16C67,42,67,42.1,67.06,42.13Z"/></g><g class="cls-7"><path class="cls-8" d="M68.87,45.54a.27.27,0,0,1,.18.19.49.49,0,0,1,0,.13A.46.46,0,0,1,69,46c0,.07-.07.09-.09.09h0c-.14.08-.23.06-.25-.08s0,0-.06-.06a.7.7,0,0,0-.34-.15.86.86,0,0,1-.21-.07l-.39-.11c-.22,0-.41-.13-.31-.33l.13-.33s0,0,0-.06a1.19,1.19,0,0,0,.14-.4.71.71,0,0,1,.08-.18l.16-.33a.56.56,0,0,0,0-.12l0,0H68s0,0,0,0a.86.86,0,0,1,0,.16l-.08.31a.47.47,0,0,1,0,.17,2.39,2.39,0,0,0-.12.46,1.24,1.24,0,0,0-.06.18c0,.07,0,.11.09.09h.09l.21.05.14,0a1.67,1.67,0,0,0,.4.09C68.75,45.46,68.8,45.52,68.87,45.54Z"/></g><g class="cls-7"><path class="cls-8" d="M61,33.31a.25.25,0,0,1,.15.21.62.62,0,0,1,0,.13.42.42,0,0,1-.09.15c-.05.06-.08.08-.1.08h0c-.16.06-.23,0-.24-.11s0-.05,0-.07a.81.81,0,0,0-.31-.21,1.21,1.21,0,0,1-.2-.09l-.37-.18c-.2-.09-.39-.19-.25-.38l.18-.3,0-.06a1.23,1.23,0,0,0,.21-.37.75.75,0,0,1,.1-.17l.22-.3,0-.1,0,0h0l0,0,0,0a.83.83,0,0,1,0,.15c0,.11-.08.2-.12.3s0,.11-.07.16-.12.29-.2.43-.08.14-.09.17,0,.11.08.1h0l.06,0,.2.08.13,0a1.58,1.58,0,0,0,.38.15C60.91,33.21,61,33.28,61,33.31Z"/></g><g class="cls-7"><path class="cls-8" d="M61.59,37.2a.24.24,0,0,1,.14.21.3.3,0,0,1,0,.13.37.37,0,0,1-.08.15c0,.06-.08.08-.1.08h0c-.16.06-.24,0-.24-.11s0,0,0-.07a.74.74,0,0,0-.31-.21,1.11,1.11,0,0,1-.19-.09l-.38-.18c-.2-.09-.38-.19-.24-.38l.18-.3,0-.06a1,1,0,0,0,.2-.37.82.82,0,0,1,.11-.17l.21-.3a.53.53,0,0,0,.06-.1s0,0,0,0H61l0,0a.75.75,0,0,1,0,.16l-.13.3a.56.56,0,0,1-.07.16,2.08,2.08,0,0,0-.19.43c0,.06-.08.14-.09.17s0,.11.08.1h0l0,0,.21.08.13,0a1.44,1.44,0,0,0,.38.15C61.48,37.1,61.53,37.17,61.59,37.2Z"/></g><g class="cls-7"><path class="cls-8" d="M63,40.7a.25.25,0,0,1,.17.2.49.49,0,0,1,0,.13.38.38,0,0,1-.07.15.22.22,0,0,1-.09.1h0c-.15.08-.23,0-.25-.09s0,0-.05-.06a.78.78,0,0,0-.34-.17,1.59,1.59,0,0,1-.2-.07l-.39-.13c-.21-.06-.41-.14-.3-.34l.15-.33s0,0,0-.06a1.32,1.32,0,0,0,.15-.39.71.71,0,0,1,.08-.18l.18-.32a.56.56,0,0,0,0-.12l0,0h.06a.05.05,0,0,1,0,0,.86.86,0,0,1,0,.16l-.09.31a1,1,0,0,1-.05.16,1.94,1.94,0,0,0-.14.45,1.14,1.14,0,0,0-.07.19c0,.07,0,.11.09.09H62l.21.06.13,0a1.68,1.68,0,0,0,.4.11C62.84,40.61,62.89,40.68,63,40.7Z"/></g><g class="cls-7"><path class="cls-8" d="M64.63,44.19a.27.27,0,0,1,.18.19.49.49,0,0,1,0,.13.41.41,0,0,1,0,.16.22.22,0,0,1-.09.1h0c-.14.09-.22.07-.26-.07s0,0,0-.06A.73.73,0,0,0,64,44.5a1.29,1.29,0,0,1-.21-.06l-.4-.11c-.22,0-.42-.12-.32-.32s.09-.22.13-.34a.14.14,0,0,1,0-.06,1.38,1.38,0,0,0,.13-.39.62.62,0,0,1,.07-.19l.16-.34,0-.11,0,0h.07s0,0,0,0a.81.81,0,0,1,0,.16c0,.12,0,.21-.06.32a1.36,1.36,0,0,1,0,.17,1.82,1.82,0,0,0-.11.46,1,1,0,0,0-.06.19c0,.06,0,.1.1.08h.08l.22,0L64,44a1.67,1.67,0,0,0,.4.08C64.51,44.12,64.56,44.18,64.63,44.19Z"/></g><g class="cls-7"><path class="cls-8" d="M66.35,47.52a.28.28,0,0,1,.18.2.49.49,0,0,1,0,.13.51.51,0,0,1-.06.15.22.22,0,0,1-.09.1h0c-.14.09-.23.06-.25-.07a.09.09,0,0,0-.06-.06.82.82,0,0,0-.34-.16.66.66,0,0,1-.2-.06l-.4-.12c-.22,0-.41-.12-.31-.32L65,47l0,0a1.44,1.44,0,0,0,.13-.4.64.64,0,0,1,.08-.19l.16-.33a.36.36,0,0,0,0-.11l0,0h.06l0,0a.86.86,0,0,1,0,.16c0,.11-.05.21-.07.31a.84.84,0,0,1,0,.17,2.22,2.22,0,0,0-.12.46c0,.06-.06.14-.06.18s0,.11.09.09h.09l.21,0,.14,0a1.67,1.67,0,0,0,.4.08C66.23,47.45,66.28,47.51,66.35,47.52Z"/></g><g class="cls-7"><path class="cls-8" d="M42.08,48.41a.26.26,0,0,1,.15.22.66.66,0,0,1,0,.13.4.4,0,0,1-.09.14c-.05.06-.08.08-.1.08s0,0,0,0q-.23.09-.24-.12s0,0,0-.07a.79.79,0,0,0-.31-.2l-.2-.1-.37-.18c-.2-.08-.39-.19-.25-.37l.18-.31,0,0a1.53,1.53,0,0,0,.21-.37.48.48,0,0,1,.1-.17l.22-.3a1.17,1.17,0,0,1,0-.11l0,0h.06l0,0a.94.94,0,0,1,0,.16l-.12.29s0,.11-.07.16a2.39,2.39,0,0,0-.2.43c0,.06-.08.14-.09.18s0,.1.08.1h0s0,0,.06,0l.2.08.13,0a1.8,1.8,0,0,0,.38.16C42,48.31,42,48.38,42.08,48.41Z"/></g><g class="cls-7"><path class="cls-8" d="M42.77,51.91a.25.25,0,0,1,.14.22.26.26,0,0,1,0,.12.32.32,0,0,1-.08.15c0,.06-.08.08-.1.08h0c-.16.07-.24,0-.24-.11s0,0,0-.07a.74.74,0,0,0-.31-.21,1.11,1.11,0,0,1-.19-.09l-.37-.18c-.21-.08-.39-.19-.25-.37l.18-.31,0-.06a1.07,1.07,0,0,0,.2-.36.67.67,0,0,1,.11-.18l.21-.29s0-.08.06-.11l0,0,0,0h0l0,0a.83.83,0,0,1,0,.15l-.13.3a.56.56,0,0,1-.07.16,2.35,2.35,0,0,0-.19.43c0,.06-.08.14-.09.17s0,.11.08.1h0s0,0,0,0l.21.08.13,0a1.45,1.45,0,0,0,.38.16C42.66,51.81,42.71,51.88,42.77,51.91Z"/></g><g class="cls-7"><path class="cls-8" d="M43.86,55.85a.25.25,0,0,1,.14.22.31.31,0,0,1,0,.13.34.34,0,0,1-.08.14c0,.07-.08.08-.1.08h0q-.24.09-.24-.12s0-.05-.05-.07a.72.72,0,0,0-.31-.2l-.19-.1-.37-.18c-.21-.08-.39-.19-.25-.37l.18-.31,0,0a1.22,1.22,0,0,0,.2-.37.71.71,0,0,1,.11-.17l.21-.3a.6.6,0,0,0,.06-.11l0,0s0,0,0,0h0l0,0a.94.94,0,0,1,0,.16l-.13.29a.56.56,0,0,1-.07.16,2.35,2.35,0,0,0-.19.43,1.5,1.5,0,0,0-.09.18c0,.06,0,.1.08.1H43l.21.08.13.06a1.88,1.88,0,0,0,.38.15C43.76,55.75,43.8,55.82,43.86,55.85Z"/></g><g class="cls-7"><path class="cls-8" d="M45.79,59.59a.25.25,0,0,1,.15.21.69.69,0,0,1,0,.13.25.25,0,0,1-.08.15c-.05.06-.08.08-.1.08h0c-.16.06-.23,0-.24-.11s0,0,0-.07a.81.81,0,0,0-.31-.21,1.21,1.21,0,0,1-.2-.09l-.37-.18c-.2-.08-.39-.19-.25-.38l.18-.3,0-.06a1.23,1.23,0,0,0,.21-.37.75.75,0,0,1,.1-.17l.22-.3,0-.1,0,0h0l0,0,0,0a.83.83,0,0,1,0,.15l-.12.3s0,.11-.07.16-.12.29-.2.43-.08.14-.09.17,0,.11.08.1h0l.06,0,.2.08.13,0a1.44,1.44,0,0,0,.38.15C45.69,59.49,45.73,59.56,45.79,59.59Z"/></g><g class="cls-7"><path class="cls-8" d="M39.74,50.76a.27.27,0,0,1,.14.22.3.3,0,0,1,0,.13.37.37,0,0,1-.08.15.25.25,0,0,1-.1.08h0q-.24.09-.24-.12s0,0,0-.06a.85.85,0,0,0-.32-.21.69.69,0,0,1-.19-.1l-.37-.18c-.21-.08-.39-.19-.25-.37l.18-.31,0-.05a1.22,1.22,0,0,0,.2-.37,1.63,1.63,0,0,1,.11-.17l.21-.3a.39.39,0,0,0,.06-.11l0,0h.06l0,0a.75.75,0,0,1,0,.16l-.13.29a.51.51,0,0,1-.07.17,2.08,2.08,0,0,0-.19.43,1,1,0,0,0-.09.17c0,.07,0,.11.08.1h0l0,0,.21.08.13,0a1.44,1.44,0,0,0,.38.15C39.64,50.67,39.68,50.74,39.74,50.76Z"/></g><g class="cls-7"><path class="cls-8" d="M41.27,53.9a.25.25,0,0,1,.14.22.31.31,0,0,1,0,.13.34.34,0,0,1-.08.14c0,.06-.08.08-.1.08h0c-.16.07-.24,0-.24-.11s0,0,0-.07a.85.85,0,0,0-.31-.21,1.11,1.11,0,0,1-.19-.09l-.37-.18c-.21-.08-.39-.19-.25-.37l.18-.31,0-.05a1.22,1.22,0,0,0,.2-.37.5.5,0,0,1,.11-.17l.21-.3s0-.08.06-.11l0,0,0,0h0s0,0,0,0a.94.94,0,0,1,0,.16l-.13.29a.56.56,0,0,1-.07.16,2.35,2.35,0,0,0-.19.43,1.5,1.5,0,0,0-.09.18c0,.06,0,.1.08.09h0s0,0,0,0l.21.08.13.05a1.45,1.45,0,0,0,.38.16C41.16,53.8,41.21,53.87,41.27,53.9Z"/></g><path class="cls-3" d="M31.24,37.56s-.06-.06-.12-.08H31s0-.08,0-.12h0l0,.09s0,0,.05,0,.12-.06.11-.09a.14.14,0,0,1,0-.06.18.18,0,0,0,0-.16,0,0,0,0,1,0,0,.44.44,0,0,0,0-.16s0,0-.06-.07a1.64,1.64,0,0,0-.14-.22,1,1,0,0,0-.17-.18l-.11,0-.2-.08c-.08,0-.15,0-.22-.06s0,0,0,0h-.07a2.85,2.85,0,0,0-.29,0c-.08,0-.13.07-.2.08a.52.52,0,0,0-.18.12s0,0,0,0l-.06.1c-.06,0-.08.11-.14.16s-.06.1-.09.15,0,0,0,.08a.36.36,0,0,1,0,.11s0,.09-.05.15,0,.05,0,.08a.06.06,0,0,1,0,0s0,0,0,.07a.57.57,0,0,1,0,.18.32.32,0,0,0,0,.14.06.06,0,0,1,0,.07s0,0,0,0l0,0c.05.09.07.21.17.26s.08.09.13.13l.05,0,.2.07.09,0c.06,0,.14,0,.21.06h0a.18.18,0,0,1,.14,0,.17.17,0,0,0,.14,0s.08,0,.11,0h.07l.1,0h0l.12-.05.05,0s0-.07,0-.07a.41.41,0,0,0,.17-.12,1.21,1.21,0,0,0,.19-.2s0,0,0-.06.06,0,0-.09,0,0,0,0l.1-.11s0,0,0,0A1,1,0,0,0,31.24,37.56Zm-.23.12h0s0-.09,0-.14S31,37.64,31,37.68Z"/><path class="cls-6" d="M79.52,13.33s-.06-.06-.12-.08h-.09s0-.08,0-.12h0l0,.09,0,0c.11,0,.13-.06.12-.09a.14.14,0,0,1,0-.07.15.15,0,0,0,0-.15v0a.44.44,0,0,0,0-.16s0-.05-.06-.07a1.64,1.64,0,0,0-.14-.22,1,1,0,0,0-.17-.18.22.22,0,0,0-.11,0l-.21-.08c-.07,0-.15,0-.21-.06h-.09a2.58,2.58,0,0,0-.29,0c-.08,0-.13.07-.2.08a.52.52,0,0,0-.18.12l0,0a1.05,1.05,0,0,1-.07.11s-.08.11-.13.15a.32.32,0,0,0-.09.16s0,.05,0,.08a.43.43,0,0,1,0,.11c0,.05,0,.09,0,.14a.28.28,0,0,0,0,.09v0a.09.09,0,0,0,0,.07.55.55,0,0,1,0,.18.57.57,0,0,0,0,.14s0,0,0,.07,0,0,0,0l0,0c0,.09.07.21.17.26s.08.09.13.13l0,0,.2.07a.2.2,0,0,1,.08,0c.07,0,.15,0,.21.06h0a.16.16,0,0,1,.13,0,.16.16,0,0,0,.15,0s.07,0,.11,0h.06l.11,0h0l.12-.05.06,0s0-.07,0-.07a.48.48,0,0,0,.17-.12,1.8,1.8,0,0,0,.19-.2s0,0,0-.06.07,0,0-.09,0,0,0,0a1.27,1.27,0,0,0,.1-.12h0A1,1,0,0,0,79.52,13.33Zm-.23.12h0a.68.68,0,0,0,0-.14S79.31,13.41,79.29,13.45Z"/><path class="cls-4" d="M63.57,63.5s-.06,0-.12-.07h-.09a.53.53,0,0,0,0-.13h0l0,.1.05,0c.1,0,.12-.07.11-.09a.25.25,0,0,1,0-.07.19.19,0,0,0,0-.16s0,0,0,0a.86.86,0,0,0,0-.16s0,0-.06-.06a1.09,1.09,0,0,0-.14-.23,1.29,1.29,0,0,0-.16-.17L63,62.39l-.2-.08c-.07,0-.15,0-.22-.05h-.09l-.29,0c-.07,0-.13.07-.2.09a.5.5,0,0,0-.17.11l0,0s0,.08-.06.1-.08.12-.14.16-.06.1-.09.15,0,0,0,.08a.43.43,0,0,1,0,.12s0,.09,0,.14a.27.27,0,0,0,0,.09.08.08,0,0,1,0,0s0,0,0,.07a.57.57,0,0,1,0,.18.23.23,0,0,0,0,.14.08.08,0,0,1,0,.07h0l0,0c.05.09.07.21.17.27a.5.5,0,0,1,.13.12l0,0,.2.07.09,0c.06,0,.14,0,.21.06s0,0,0,0a.23.23,0,0,1,.14,0,.17.17,0,0,0,.14,0s.08,0,.11,0h.07l.1,0h0l.12,0s0,0,.05,0,0-.06,0-.07a.39.39,0,0,0,.17-.11,1,1,0,0,0,.19-.21s0,0,0,0,.06,0,0-.1,0,0,0,0a.52.52,0,0,0,.1-.11s0,0,0,0A.62.62,0,0,0,63.57,63.5Zm-.23.12h0s0-.09,0-.14S63.37,63.58,63.34,63.62Z"/></g></g></g></svg>