<svg xmlns="http://www.w3.org/2000/svg" viewBox="0 0 69.59 69.59"><defs><style>.cls-1{isolation:isolate;}.cls-2{fill:#b3d5d5;}.cls-3{fill:#fa4b3f;}.cls-4{fill:#fff;}.cls-5{fill:#202637;}.cls-6{fill:#c7150a;}.cls-7{opacity:0.57;mix-blend-mode:multiply;}.cls-8{fill:#c73930;}</style></defs><g class="cls-1"><g id="Слой_2" data-name="Слой 2"><g id="OBJECTS"><rect class="cls-2" width="69.59" height="69.59" transform="translate(69.59 0) rotate(90)"/><rect class="cls-3" x="4.02" y="14.8" width="61.56" height="47.84"/><rect class="cls-4" x="9.55" y="19.09" width="50.5" height="39.25"/><path class="cls-5" d="M14.52,52c1.63-1.63,2.87-2.12,4.35-2.12,2.22,0,3.84,1.63,6.31,1.63s4.14-2.61,4.88-3.8c.1-.15.54.05.5.25-.4,1.77-1.88,5.77-5.73,5.57C21.92,53.39,21,52.46,18,52.46a6.41,6.41,0,0,0-4.74,2.27c-.29.14-.34.14-.54-.2-.69-6.46,2-10.11,8.14-14.26,3.8-2.51,10.21-6,10.21-11.74,0-1.82-1.43-5.32-5.23-5.32-5.18,0-7.94,5-7.94,7.49v.5c-.15.2-.4.29-.54-.05V30.7c0-4.29,4.34-8.08,8.48-8.08,4.69,0,9.82,2.61,9.82,7.2,0,6.61-8.14,10.11-13.22,13.12C17.93,45.7,15.27,47.13,14.52,52Z"/><path class="cls-5" d="M39.09,37.86c-.05.19.35-.45.54-.59a10,10,0,0,1,6.61-2.42c4.79,0,8.14,3.65,8.14,6.9,0,8-6.21,12.88-13.51,12.88-3.41,0-7.3-1.78-7.3-5.77,0-3.31,2.27-5,4.49-5,.44.2.09.45,0,.45-1.93,0-3.9,1.63-3.9,4.54,0,3.84,3.6,5.17,6.71,5.17,5.23,0,9-7.49,9-12.23,0-6.16-5.62-7.64-9.86-4.09A7.55,7.55,0,0,0,38.2,40c-.29.14-.44,0-.49-.25,1.33-3.65,5-16.92,5-17l.25-.14.39.24A21.28,21.28,0,0,0,50,24.39a13.11,13.11,0,0,0,6.56-1.53.48.48,0,0,1,.4.4c-1.29,2.32-4.15,3.25-7,3.25a12.57,12.57,0,0,1-6.95-2.17C42.54,26.46,39.44,36.43,39.09,37.86Z"/><polyline class="cls-6" points="12.98 15.08 12.98 6.95 18.53 6.95 18.53 15.08"/><polyline class="cls-6" points="50.14 15.08 50.14 6.95 55.69 6.95 55.69 15.08"/><g class="cls-7"><path class="cls-8" d="M7.1,16A.21.21,0,0,1,7.32,16l.1.05a.36.36,0,0,1,.1.11c0,.06,0,.09,0,.11h0c0,.14,0,.2-.16.16s0,0-.07,0a.56.56,0,0,0-.27.19,1.59,1.59,0,0,1-.13.13L6.66,17c-.13.14-.28.26-.39.09l-.19-.24s0,0,0,0a1.08,1.08,0,0,0-.24-.28,1.71,1.71,0,0,1-.11-.14l-.18-.26-.07-.08a.06.06,0,0,1,0,0l0,0v0h0l.12.07.2.2s.09.05.11.1.21.19.3.29l.11.13c.06,0,.09,0,.11,0v0l0,0,.13-.14.08-.1A1.51,1.51,0,0,0,7,16.16C7,16.09,7.06,16.08,7.1,16Z"/></g><g class="cls-7"><path class="cls-8" d="M11.09,16a.22.22,0,0,1,.22,0l.11,0a.46.46,0,0,1,.09.12.18.18,0,0,1,0,.11h0c0,.14,0,.19-.16.16a.08.08,0,0,0-.07,0,.7.7,0,0,0-.26.19.83.83,0,0,1-.14.13l-.26.26c-.13.14-.27.25-.38.09l-.2-.25,0,0a1.61,1.61,0,0,0-.24-.28.35.35,0,0,1-.11-.13l-.18-.27a.6.6,0,0,0-.08-.08v0l0,0h.06l.11.08.21.19s.08.06.11.11.2.18.29.28a1.67,1.67,0,0,0,.12.13c.05,0,.09,0,.1,0l0,0,0,0,.13-.14.08-.09a1.55,1.55,0,0,0,.24-.27C11,16.1,11.05,16.08,11.09,16Z"/></g><g class="cls-7"><path class="cls-8" d="M15.09,16.13a.24.24,0,0,1,.22-.06l.1.05a.36.36,0,0,1,.1.11c0,.06,0,.09,0,.11h0c0,.15,0,.2-.16.16s-.05,0-.07,0a.74.74,0,0,0-.27.19,1.59,1.59,0,0,1-.13.13l-.26.25c-.13.14-.28.26-.38.1l-.2-.25,0,0a.92.92,0,0,0-.24-.28,1.5,1.5,0,0,1-.11-.13l-.18-.27-.07-.08s0,0,0,0l0,0h.05l.12.08.2.19a.36.36,0,0,1,.11.1c.08.13.21.19.3.29a1.67,1.67,0,0,0,.12.13c.05,0,.08,0,.1,0v0l0,0,.13-.14.08-.09a1.55,1.55,0,0,0,.24-.27C15,16.18,15.05,16.17,15.09,16.13Z"/></g><g class="cls-7"><path class="cls-8" d="M19.08,16.09A.22.22,0,0,1,19.3,16a.3.3,0,0,1,.11,0,.46.46,0,0,1,.09.12.15.15,0,0,1,0,.11h0c0,.14-.05.19-.16.16a.08.08,0,0,0-.07,0,.63.63,0,0,0-.26.19.83.83,0,0,1-.14.13l-.26.26c-.13.14-.27.25-.38.09l-.2-.25,0,0a1.32,1.32,0,0,0-.25-.28.45.45,0,0,1-.1-.13c-.06-.09-.13-.18-.18-.27l-.08-.08v0l0,0h0a.5.5,0,0,1,.12.08l.21.19a.57.57,0,0,1,.11.11c.07.12.2.18.29.28a1.67,1.67,0,0,0,.12.13c.05,0,.08,0,.1,0v0s0,0,0,0l.13-.14.08-.09a1.55,1.55,0,0,0,.24-.27C19,16.15,19,16.13,19.08,16.09Z"/></g><g class="cls-7"><path class="cls-8" d="M23.05,16a.22.22,0,0,1,.21-.09l.11,0a.32.32,0,0,1,.11.1.13.13,0,0,1,.05.1h0c0,.14,0,.2-.13.18s0,0-.07,0a.63.63,0,0,0-.23.23c0,.06-.08.1-.11.15l-.22.3c-.1.15-.23.29-.36.15L22.18,17a.08.08,0,0,1,0,0,1.28,1.28,0,0,0-.29-.23.74.74,0,0,1-.13-.12l-.22-.23a.5.5,0,0,0-.08-.07l0,0,0,0a0,0,0,0,1,0,0h0a.52.52,0,0,1,.13.06l.23.15a.43.43,0,0,1,.13.09,1.56,1.56,0,0,0,.34.23.58.58,0,0,0,.13.11c.06,0,.09,0,.1-.05v0s0,0,0,0l.1-.16.07-.1a1.53,1.53,0,0,0,.19-.3C23,16.08,23,16.06,23.05,16Z"/></g><g class="cls-7"><path class="cls-8" d="M27.07,16.13a.22.22,0,0,1,.22-.05l.1,0a.32.32,0,0,1,.1.12c0,.06,0,.09,0,.11h0c0,.14-.05.19-.16.16a.08.08,0,0,0-.07,0,.74.74,0,0,0-.27.19.8.8,0,0,1-.13.13l-.26.26c-.13.14-.28.26-.38.09l-.2-.25s0,0,0,0a1,1,0,0,0-.24-.27,1.71,1.71,0,0,1-.11-.14l-.18-.27-.07-.08s0,0,0,0l0,0h.05l.12.08.2.19s.09.06.11.11.21.18.3.28a1.67,1.67,0,0,0,.12.13c.05,0,.08,0,.1,0v0l0,0,.13-.14.08-.09a2.1,2.1,0,0,0,.24-.27C27,16.19,27,16.17,27.07,16.13Z"/></g><g class="cls-7"><path class="cls-8" d="M31.06,16.14a.23.23,0,0,1,.22-.06l.11.05a.35.35,0,0,1,.09.11.18.18,0,0,1,0,.11h0c0,.15-.05.2-.17.16s-.05,0-.07,0a.7.7,0,0,0-.26.19.86.86,0,0,1-.14.13l-.26.25c-.13.14-.27.26-.38.09L30,17l0,0a1.31,1.31,0,0,0-.24-.28.49.49,0,0,1-.11-.14l-.18-.26-.07-.08a.06.06,0,0,1,0,0l0,0s0,0,0,0,0,0,0,0a.28.28,0,0,1,.11.08l.21.19a1,1,0,0,1,.11.1c.07.13.2.19.29.29a1.67,1.67,0,0,0,.12.13c.05,0,.09,0,.1,0l0,0s0,0,0,0l.13-.14.08-.1a1.2,1.2,0,0,0,.24-.26C31,16.19,31,16.18,31.06,16.14Z"/></g><g class="cls-7"><path class="cls-8" d="M35.06,16.22a.22.22,0,0,1,.22,0,.34.34,0,0,1,.11,0,.37.37,0,0,1,.09.11c0,.06,0,.09,0,.11h0c0,.14,0,.2-.16.16a.08.08,0,0,0-.07,0,.66.66,0,0,0-.27.2c0,.05-.09.08-.13.13l-.26.25c-.13.14-.28.26-.38.09l-.2-.24L34,17a.88.88,0,0,0-.24-.27,1.71,1.71,0,0,1-.11-.14l-.18-.27a.23.23,0,0,0-.07-.07s0,0,0,0,0,0,0,0h0a1.25,1.25,0,0,1,.12.08l.2.19s.09.06.12.11.2.18.29.29.09.11.12.12.08,0,.1,0v0s0,0,0,0l.13-.14.08-.09a1.48,1.48,0,0,0,.24-.26C35,16.28,35,16.27,35.06,16.22Z"/></g><g class="cls-7"><path class="cls-8" d="M39.05,16.19a.22.22,0,0,1,.22-.06l.11.05a.59.59,0,0,1,.09.11.18.18,0,0,1,0,.11h0c0,.15,0,.2-.16.16s-.05,0-.07,0a.55.55,0,0,0-.26.19,1.66,1.66,0,0,1-.14.13l-.26.25c-.13.14-.27.26-.38.09L38,17l0,0a1.12,1.12,0,0,0-.25-.28.71.71,0,0,1-.1-.14l-.18-.26a.6.6,0,0,0-.08-.08v0s0,0,0,0,0,0,0,0,0,0,0,0a.35.35,0,0,1,.12.07l.21.2s.08.05.11.1.2.19.29.29a1.67,1.67,0,0,0,.12.13s.08,0,.1,0v0s0,0,0,0l.13-.14.08-.1a1.2,1.2,0,0,0,.24-.26C38.94,16.24,39,16.23,39.05,16.19Z"/></g><g class="cls-7"><path class="cls-8" d="M43,16.1a.22.22,0,0,1,.21-.08l.11,0a.39.39,0,0,1,.11.09c0,.05.06.08,0,.11h0c0,.15,0,.21-.13.19s0,0-.07,0a.57.57,0,0,0-.23.23.83.83,0,0,1-.11.15l-.22.29c-.1.16-.23.3-.36.15l-.23-.21,0,0a1.32,1.32,0,0,0-.29-.24.45.45,0,0,1-.13-.11l-.22-.24-.08-.06s0,0,0,0l0,0h0l0,0,.13.06.23.16c.05,0,.1,0,.13.08s.23.15.34.24l.13.11c.06,0,.1,0,.1-.05v0l0,0,.1-.16.07-.11a1.53,1.53,0,0,0,.19-.3C42.92,16.18,43,16.15,43,16.1Z"/></g><g class="cls-7"><path class="cls-8" d="M47,16a.21.21,0,0,1,.22-.05l.1.05s.06.06.1.11,0,.09,0,.11h0c0,.14,0,.19-.17.16a.08.08,0,0,0-.07,0,.79.79,0,0,0-.26.19.93.93,0,0,1-.14.14L46.5,17c-.12.14-.27.26-.38.09l-.19-.25a.08.08,0,0,1,0,0,1,1,0,0,0-.24-.27.49.49,0,0,1-.11-.14l-.18-.27L45.29,16s0,0,0,0l0,0h.06l.12.08.2.19s.09.06.11.11.2.18.3.28a.88.88,0,0,0,.11.13s.09,0,.11,0v0s0,0,0,0l.12-.14.09-.09a1.59,1.59,0,0,0,.24-.27C46.83,16.07,46.91,16.05,47,16Z"/></g><g class="cls-7"><path class="cls-8" d="M50.94,16a.24.24,0,0,1,.22-.06l.11.05a.59.59,0,0,1,.09.11c0,.06,0,.09,0,.11h0c0,.15,0,.2-.16.16s0,0-.07,0a.74.74,0,0,0-.27.19,1.59,1.59,0,0,1-.13.13L50.5,17c-.13.14-.28.26-.38.09l-.2-.24,0,0a.92.92,0,0,0-.24-.28.85.85,0,0,1-.11-.14l-.18-.26L49.28,16s0,0,0,0l0,0h.05l.12.08.2.19a.58.58,0,0,1,.12.1c.07.13.2.19.29.29a1.67,1.67,0,0,0,.12.13s.08,0,.1,0v0l0,0,.13-.14.08-.1a1.2,1.2,0,0,0,.24-.26C50.83,16.07,50.9,16.06,50.94,16Z"/></g><g class="cls-7"><path class="cls-8" d="M54.94,16.1a.21.21,0,0,1,.22-.05l.1.05a.36.36,0,0,1,.1.11c0,.06,0,.09,0,.11h0c0,.14,0,.2-.17.16a.06.06,0,0,0-.06,0,.66.66,0,0,0-.27.2,1.79,1.79,0,0,1-.14.13l-.26.25c-.12.14-.27.26-.38.09l-.19-.24,0,0a.94.94,0,0,0-.24-.28,1.71,1.71,0,0,1-.11-.14l-.18-.27-.07-.07a.06.06,0,0,1,0,0s0,0,0,0l0,0h0l.12.08.2.19s.09.06.11.11.21.19.3.29l.11.13c.05,0,.09,0,.11,0v0l0,0,.13-.14.08-.1a1.51,1.51,0,0,0,.24-.26C54.83,16.16,54.9,16.15,54.94,16.1Z"/></g><g class="cls-7"><path class="cls-8" d="M58.93,16.07a.24.24,0,0,1,.22-.06l.1,0a.36.36,0,0,1,.1.11c0,.06,0,.09,0,.11h0c0,.15-.05.2-.16.16s0,0-.07,0a.74.74,0,0,0-.27.19,1.59,1.59,0,0,1-.13.13l-.26.25c-.13.14-.28.26-.39.09l-.19-.24,0,0a1.08,1.08,0,0,0-.24-.28.85.85,0,0,1-.11-.14l-.18-.26-.07-.08a.06.06,0,0,1,0,0l0,0h0s0,0,0,0l.12.08.2.19a.36.36,0,0,1,.11.1c.08.13.21.19.3.29l.11.13s.09,0,.11,0v0s0,0,0,0l.13-.14.08-.1a1.51,1.51,0,0,0,.24-.26C58.82,16.12,58.89,16.11,58.93,16.07Z"/></g><g class="cls-7"><path class="cls-8" d="M62.9,16a.22.22,0,0,1,.21-.09l.11,0a.39.39,0,0,1,.11.09c0,.06.05.08.05.11h0c0,.14,0,.2-.14.18a.07.07,0,0,0-.06,0,.63.63,0,0,0-.23.23.88.88,0,0,1-.12.15l-.21.29c-.1.16-.23.3-.36.15L62,17l0,0a1.08,1.08,0,0,0-.28-.24.45.45,0,0,1-.13-.11l-.22-.24-.08-.06a.08.08,0,0,1,0,0l0,0h0l0,0,.13.06.23.16a.91.91,0,0,1,.13.08,1.31,1.31,0,0,0,.34.24,1.09,1.09,0,0,0,.13.11c.06,0,.09,0,.1-.05v0s0,0,0,0l.1-.16.07-.11a2.2,2.2,0,0,0,.19-.3C62.8,16.06,62.87,16,62.9,16Z"/></g><g class="cls-7"><path class="cls-8" d="M7.14,59.6a.23.23,0,0,1,.23-.05.26.26,0,0,1,.1,0,.31.31,0,0,1,.09.12.16.16,0,0,1,0,.11h0c0,.14,0,.19-.17.16a.08.08,0,0,0-.07,0,.7.7,0,0,0-.26.19.57.57,0,0,1-.14.13l-.26.26c-.13.14-.27.25-.38.09l-.2-.25,0,0a1.61,1.61,0,0,0-.24-.28A.35.35,0,0,1,5.74,60l-.18-.27-.07-.08s0,0,0,0l0,0h.06l.11.08.21.19a.38.38,0,0,1,.11.11c.07.12.2.18.3.28a.75.75,0,0,0,.11.13s.09,0,.11,0v0l0,0,.12-.14L6.75,60A1.22,1.22,0,0,0,7,59.72C7,59.66,7.1,59.64,7.14,59.6Z"/></g><g class="cls-7"><path class="cls-8" d="M11.14,59.61a.21.21,0,0,1,.22-.06l.1.05a.36.36,0,0,1,.1.11c0,.06,0,.09,0,.11h0c0,.15-.05.2-.17.16s0,0-.06,0a.64.64,0,0,0-.27.19.86.86,0,0,1-.14.13l-.26.25c-.12.14-.27.26-.38.09l-.19-.24s0,0,0,0a1.08,1.08,0,0,0-.24-.28A1.71,1.71,0,0,1,9.73,60l-.18-.26-.07-.08a.06.06,0,0,1,0,0s0,0,0,0,0,0,0,0h0l.12.07.2.2s.09,0,.11.1.21.19.3.29l.11.13s.09,0,.11,0v0s0,0,0,0l.13-.14.08-.1a1.51,1.51,0,0,0,.24-.26C11,59.66,11.1,59.65,11.14,59.61Z"/></g><g class="cls-7"><path class="cls-8" d="M15.13,59.69a.23.23,0,0,1,.23,0,.31.31,0,0,1,.1,0s.06.06.1.11a.22.22,0,0,1,0,.11h0c0,.14-.05.2-.17.16a.08.08,0,0,0-.07,0,.63.63,0,0,0-.26.2,1.79,1.79,0,0,1-.14.13l-.26.25c-.13.14-.27.26-.38.09l-.2-.24,0-.05a1.25,1.25,0,0,0-.24-.27.49.49,0,0,1-.11-.14l-.18-.27-.07-.08s0,0,0,0l0,0h.06l.12.08.2.19A.57.57,0,0,1,14,60c.07.12.2.18.3.29s.08.11.11.12.09,0,.11,0v0l0,0,.12-.14.09-.09a1.43,1.43,0,0,0,.23-.26C15,59.75,15.1,59.74,15.13,59.69Z"/></g><g class="cls-7"><path class="cls-8" d="M19.13,59.65a.21.21,0,0,1,.22,0l.1,0a.57.57,0,0,1,.1.11c0,.06,0,.09,0,.11h0c0,.14,0,.2-.17.16s-.05,0-.07,0a.58.58,0,0,0-.26.19,1.79,1.79,0,0,1-.14.13l-.26.25c-.13.14-.27.26-.38.09l-.19-.24,0,0a1.08,1.08,0,0,0-.24-.28.49.49,0,0,1-.11-.14l-.18-.26-.07-.08a.06.06,0,0,1,0,0l0,0,0,0s0,0,0,0l.12.07.2.19s.09.06.11.11.2.19.3.29.08.11.11.13.09,0,.11,0v0l0,0,.12-.14.09-.1a1.51,1.51,0,0,0,.24-.26C19,59.71,19.09,59.7,19.13,59.65Z"/></g><g class="cls-7"><path class="cls-8" d="M23.09,59.57a.24.24,0,0,1,.22-.08l.11,0,.11.09a.17.17,0,0,1,0,.11h0c0,.15,0,.21-.14.19a.06.06,0,0,0-.06,0,.66.66,0,0,0-.23.24.88.88,0,0,1-.12.15l-.21.29c-.11.16-.23.3-.36.15l-.24-.21,0,0a1.05,1.05,0,0,0-.28-.24.69.69,0,0,1-.13-.11l-.22-.24-.09-.07a.1.1,0,0,1,0,0l0,0h0l0,0,.13.06.23.16a.91.91,0,0,1,.13.08c.09.12.23.15.33.24l.14.11c.05,0,.09,0,.1,0v0l0,0,.1-.16.06-.11a1.57,1.57,0,0,0,.2-.3C23,59.65,23.06,59.62,23.09,59.57Z"/></g><g class="cls-7"><path class="cls-8" d="M27.11,59.7a.24.24,0,0,1,.23-.06l.1,0a.57.57,0,0,1,.1.11.22.22,0,0,1,0,.11h0c0,.15-.05.2-.17.16s0,0-.07,0a.61.61,0,0,0-.26.19.86.86,0,0,1-.14.13l-.26.25c-.13.14-.27.26-.38.09l-.2-.24,0,0a1.31,1.31,0,0,0-.24-.28.49.49,0,0,1-.11-.14l-.18-.26-.07-.08a.06.06,0,0,1,0,0l0,0,0,0s0,0,0,0a.41.41,0,0,1,.11.07l.21.2A.35.35,0,0,1,26,60c.07.13.2.19.3.29a.75.75,0,0,0,.11.13c.05,0,.09,0,.11,0v0l0,0,.12-.14.08-.1a1,1,0,0,0,.24-.26C27,59.75,27.07,59.74,27.11,59.7Z"/></g><g class="cls-7"><path class="cls-8" d="M31.11,59.7a.21.21,0,0,1,.22-.05.24.24,0,0,1,.1.05.27.27,0,0,1,.1.11c0,.06,0,.09,0,.11h0c0,.14,0,.19-.17.16a.06.06,0,0,0-.06,0,.74.74,0,0,0-.27.19.8.8,0,0,1-.13.13l-.27.26c-.12.14-.27.26-.38.09l-.19-.25s0,0,0,0a1,1,0,0,0-.24-.27,1.71,1.71,0,0,1-.11-.14l-.18-.27-.07-.08s0,0,0,0l0,0h.05l.12.08.2.19s.09.06.11.11.21.18.3.28l.11.13c.05,0,.09,0,.11,0v0l0,0,.13-.14.08-.09a2.1,2.1,0,0,0,.24-.27C31,59.76,31.07,59.74,31.11,59.7Z"/></g><g class="cls-7"><path class="cls-8" d="M35.11,59.79a.24.24,0,0,1,.22-.06l.1.05a.44.44,0,0,1,.1.12.18.18,0,0,1,0,.11h0c0,.15-.05.2-.17.16s0,0-.07,0a.79.79,0,0,0-.26.19.86.86,0,0,1-.14.13l-.26.25c-.13.15-.27.26-.38.1l-.2-.25,0,0a1.61,1.61,0,0,0-.24-.28.45.45,0,0,1-.11-.13l-.18-.27-.07-.08s0,0,0,0l0,0h0s0,0,0,0l.12.08.2.19a.52.52,0,0,1,.11.1c.07.13.2.19.3.29a.75.75,0,0,0,.11.13s.09,0,.11,0v0s0,0,0,0l.12-.14.09-.09a2.1,2.1,0,0,0,.24-.27C35,59.84,35.07,59.83,35.11,59.79Z"/></g><g class="cls-7"><path class="cls-8" d="M39.1,59.75a.21.21,0,0,1,.22,0,.26.26,0,0,1,.1,0,.32.32,0,0,1,.1.12c0,.06,0,.09,0,.11h0c0,.14,0,.19-.17.16a.08.08,0,0,0-.07,0,.79.79,0,0,0-.26.19.57.57,0,0,1-.14.13l-.26.26c-.12.14-.27.25-.38.09l-.19-.25,0,0a1.27,1.27,0,0,0-.24-.28.35.35,0,0,1-.11-.13l-.18-.27-.07-.08s0,0,0,0l0,0h.06l.12.08.2.19s.09.06.11.11.2.18.3.28l.11.13s.09,0,.11,0v0l0,0,.12-.14.09-.09a2.1,2.1,0,0,0,.24-.27C39,59.81,39.06,59.79,39.1,59.75Z"/></g><g class="cls-7"><path class="cls-8" d="M43.07,59.67a.22.22,0,0,1,.21-.09l.11,0a.32.32,0,0,1,.11.1.17.17,0,0,1,0,.1h0c0,.14,0,.2-.14.18a.09.09,0,0,0-.06,0,.63.63,0,0,0-.23.23.88.88,0,0,1-.12.15l-.21.3c-.11.15-.23.29-.36.15l-.24-.21s0,0,0,0a1,1,0,0,0-.28-.23.74.74,0,0,1-.13-.12L41.52,60,41.43,60s0,0,0,0l0,0s0,0,0,0h0a.75.75,0,0,1,.13.06l.23.15a1,1,0,0,1,.13.09c.09.11.23.15.33.23a.92.92,0,0,0,.14.11s.09,0,.1,0v0l0,0,.1-.16.06-.1a1.57,1.57,0,0,0,.2-.3C43,59.74,43,59.72,43.07,59.67Z"/></g><g class="cls-7"><path class="cls-8" d="M47,59.58a.24.24,0,0,1,.22-.06l.11,0a.59.59,0,0,1,.09.11.18.18,0,0,1,0,.11h0c0,.15,0,.2-.16.16s-.05,0-.07,0a.7.7,0,0,0-.26.19,1.66,1.66,0,0,1-.14.13l-.26.25c-.13.14-.27.26-.38.09L46,60.4l0,0a1.31,1.31,0,0,0-.24-.28.38.38,0,0,1-.11-.14l-.18-.26a.6.6,0,0,0-.08-.08v0l0,0h0s0,0,0,0l.11.08.21.19a1,1,0,0,1,.11.1c.07.13.2.19.29.29a1.67,1.67,0,0,0,.12.13s.08,0,.1,0v0s0,0,0,0l.13-.14.08-.1a1.2,1.2,0,0,0,.24-.26C46.88,59.63,47,59.62,47,59.58Z"/></g><g class="cls-7"><path class="cls-8" d="M51,59.58a.23.23,0,0,1,.23,0,.31.31,0,0,1,.1,0s.06.06.1.11a.22.22,0,0,1,0,.11h0c0,.14,0,.19-.17.16a.08.08,0,0,0-.07,0,.79.79,0,0,0-.26.19.93.93,0,0,1-.14.14l-.26.25c-.13.14-.27.26-.38.09L50,60.4l0,0a1.25,1.25,0,0,0-.24-.27.49.49,0,0,1-.11-.14l-.18-.27-.07-.08s0,0,0,0l0,0h.06l.12.08.2.19a.57.57,0,0,1,.11.11c.07.12.2.18.3.28s.08.12.11.13.09,0,.11,0v0s0,0,0,0l.12-.14L50.6,60a1.22,1.22,0,0,0,.23-.27C50.87,59.64,51,59.62,51,59.58Z"/></g><g class="cls-7"><path class="cls-8" d="M55,59.67a.22.22,0,0,1,.22-.05.25.25,0,0,1,.11,0,.31.31,0,0,1,.09.12.15.15,0,0,1,0,.11h0c0,.15,0,.2-.17.16s-.05,0-.07,0a.7.7,0,0,0-.26.19.57.57,0,0,1-.14.13l-.26.26c-.13.14-.27.25-.38.09l-.2-.25,0,0a1.61,1.61,0,0,0-.24-.28.35.35,0,0,1-.11-.13l-.18-.27-.07-.08s0,0,0,0l0,0h.06l.11.08.21.19a1,1,0,0,1,.11.1c.07.13.2.19.29.29a1.67,1.67,0,0,0,.12.13s.09,0,.1,0l0,0,0,0,.13-.14.08-.09a1.55,1.55,0,0,0,.24-.27C54.87,59.72,54.94,59.71,55,59.67Z"/></g><g class="cls-7"><path class="cls-8" d="M59,59.63a.23.23,0,0,1,.23-.05l.1.05s.06.06.09.11a.18.18,0,0,1,0,.11h0c0,.14,0,.19-.17.16a.08.08,0,0,0-.07,0,.7.7,0,0,0-.26.19.57.57,0,0,1-.14.13l-.26.26c-.13.14-.27.26-.38.09l-.2-.25,0,0a1.25,1.25,0,0,0-.24-.27.49.49,0,0,1-.11-.14l-.18-.27-.07-.08s0,0,0,0l0,0h.06l.11.08.21.19a.57.57,0,0,1,.11.11c.07.12.2.18.3.28a.75.75,0,0,0,.11.13c.05,0,.09,0,.11,0v0l0,0,.12-.14.08-.09a1,1,0,0,0,.24-.27C58.86,59.69,58.93,59.67,59,59.63Z"/></g><g class="cls-7"><path class="cls-8" d="M62.94,59.55a.23.23,0,0,1,.21-.09l.11,0a.44.44,0,0,1,.12.1.17.17,0,0,1,0,.1h0c0,.14,0,.2-.14.19s0,0-.07,0a.72.72,0,0,0-.23.23.83.83,0,0,1-.11.15l-.22.3c-.1.16-.22.3-.36.15l-.23-.21,0,0a1.49,1.49,0,0,0-.28-.23.5.5,0,0,1-.13-.12l-.22-.23-.09-.07s0,0,0,0v0l0,0h0l.12.06.24.15a.54.54,0,0,1,.12.09c.09.11.23.15.34.24s.11.09.14.1.09,0,.09-.05v0l0,0,.11-.16.06-.1a1.17,1.17,0,0,0,.19-.3C62.84,59.62,62.91,59.6,62.94,59.55Z"/></g><g class="cls-7"><path class="cls-8" d="M7.1,19.6a.21.21,0,0,1,.22-.05l.1,0a.32.32,0,0,1,.1.12c0,.06,0,.09,0,.11h0c0,.14,0,.19-.16.16a.08.08,0,0,0-.07,0,.74.74,0,0,0-.27.19.8.8,0,0,1-.13.13l-.26.26c-.13.14-.28.25-.39.09l-.19-.25,0,0a1,1,0,0,0-.24-.27A1.71,1.71,0,0,1,5.69,20l-.18-.27-.07-.08s0,0,0,0l0,0h0l.12.08.2.19s.09.06.11.11.21.18.3.28l.11.13c.06,0,.09,0,.11,0v0s0,0,0,0l.13-.14L6.71,20A2.1,2.1,0,0,0,7,19.72C7,19.66,7.06,19.64,7.1,19.6Z"/></g><g class="cls-7"><path class="cls-8" d="M62.9,19.55a.22.22,0,0,1,.21-.09l.11,0a.47.47,0,0,1,.11.1.17.17,0,0,1,.05.1h0c0,.14,0,.2-.14.19s0,0-.06,0a.72.72,0,0,0-.23.23,1.67,1.67,0,0,1-.12.16l-.21.29c-.1.16-.23.3-.36.15L62,20.53l0,0a1,1,0,0,0-.28-.23.74.74,0,0,1-.13-.12l-.22-.23s-.06,0-.08-.07a.05.05,0,0,1,0,0l0,0h0l0,0a.75.75,0,0,1,.13.06l.23.15a1,1,0,0,1,.13.09c.09.11.23.15.34.24a.91.91,0,0,0,.13.1c.06,0,.09,0,.1-.05v0s0,0,0,0l.1-.16.07-.1a2.2,2.2,0,0,0,.19-.3C62.8,19.62,62.87,19.6,62.9,19.55Z"/></g><g class="cls-7"><path class="cls-8" d="M7.1,23.43a.24.24,0,0,1,.22-.06l.1.05a.36.36,0,0,1,.1.11c0,.06,0,.09,0,.11h0c0,.15,0,.2-.16.16s0,0-.07,0a.74.74,0,0,0-.27.19,1.59,1.59,0,0,1-.13.13l-.26.25c-.13.14-.28.26-.39.1l-.19-.25,0,0a1.08,1.08,0,0,0-.24-.28,1.5,1.5,0,0,1-.11-.13l-.18-.27-.07-.08s0,0,0,0l0,0h0s0,0,0,0l.12.08.2.19a.36.36,0,0,1,.11.1c.08.13.21.19.3.29l.11.13c.06,0,.09,0,.11,0v0s0,0,0,0l.13-.14.08-.09A2.1,2.1,0,0,0,7,23.55C7,23.48,7.06,23.47,7.1,23.43Z"/></g><g class="cls-7"><path class="cls-8" d="M62.9,23.38a.22.22,0,0,1,.21-.09l.11,0a.32.32,0,0,1,.11.1.17.17,0,0,1,.05.1h0c0,.14,0,.2-.14.18s0,0-.06,0A.63.63,0,0,0,63,24a.88.88,0,0,1-.12.15l-.21.29c-.1.16-.23.3-.36.16L62,24.36a.08.08,0,0,0,0,0,1,1,0,0,0-.28-.23.74.74,0,0,1-.13-.12l-.22-.23-.08-.07a.05.05,0,0,1,0,0l0,0a0,0,0,0,1,0,0s0,0,0,0a.38.38,0,0,1,.13.06l.23.15a1,1,0,0,1,.13.09,1.56,1.56,0,0,0,.34.23.58.58,0,0,0,.13.11c.06,0,.09,0,.1-.05v0s0,0,0,0l.1-.16.07-.11a1.72,1.72,0,0,0,.19-.3C62.8,23.45,62.87,23.43,62.9,23.38Z"/></g><g class="cls-7"><path class="cls-8" d="M7.48,26.38a.23.23,0,0,1,.23-.05l.1,0a.31.31,0,0,1,.09.12.18.18,0,0,1,0,.11h0c0,.14-.05.19-.17.16a.08.08,0,0,0-.07,0,.7.7,0,0,0-.26.19.57.57,0,0,1-.14.13L7,27.36c-.13.14-.27.25-.38.09l-.2-.25,0,0a1.25,1.25,0,0,0-.24-.27.49.49,0,0,1-.11-.14l-.18-.27-.07-.08s0,0,0,0l0,0H5.9l.11.08.21.19s.08.06.11.11.2.18.29.28a1.67,1.67,0,0,0,.12.13s.09,0,.1,0l0,0,0,0L7,26.86l.08-.09a1.55,1.55,0,0,0,.24-.27C7.37,26.44,7.44,26.42,7.48,26.38Z"/></g><g class="cls-7"><path class="cls-8" d="M63.28,26.33a.23.23,0,0,1,.21-.09l.11,0a.47.47,0,0,1,.11.1c0,.05.06.08.06.1h0c0,.14,0,.2-.13.19s-.05,0-.07,0a.84.84,0,0,0-.23.23,1.53,1.53,0,0,1-.11.16l-.22.29c-.1.16-.22.3-.36.15l-.23-.21,0,0a1.28,1.28,0,0,0-.29-.23,1.42,1.42,0,0,1-.13-.12l-.22-.23s0,0-.08-.07,0,0,0,0,0,0,0,0h0l0,0a.52.52,0,0,1,.13.06l.24.15a.54.54,0,0,1,.12.09c.09.11.23.15.34.24a.91.91,0,0,0,.13.1c.06,0,.1,0,.1-.05v0l0,0,.1-.16.07-.1a1.17,1.17,0,0,0,.19-.3C63.18,26.4,63.25,26.38,63.28,26.33Z"/></g><g class="cls-7"><path class="cls-8" d="M7.48,30.21a.26.26,0,0,1,.23-.06l.1.05a.35.35,0,0,1,.09.11.18.18,0,0,1,0,.11h0c0,.15-.05.2-.17.16s0,0-.07,0a.7.7,0,0,0-.26.19.86.86,0,0,1-.14.13L7,31.18c-.13.14-.27.26-.38.1L6.46,31l0,0a1.31,1.31,0,0,0-.24-.28.45.45,0,0,1-.11-.13l-.18-.27-.07-.08s0,0,0,0l0,0s0,0,0,0,0,0,0,0l.11.08.21.19a1,1,0,0,1,.11.1c.07.13.2.19.29.29a1.67,1.67,0,0,0,.12.13s.09,0,.1,0l0,0s0,0,0,0L7,30.69l.08-.09a1.55,1.55,0,0,0,.24-.27C7.37,30.26,7.44,30.25,7.48,30.21Z"/></g><g class="cls-7"><path class="cls-8" d="M63.28,30.16a.23.23,0,0,1,.21-.09l.11,0a.32.32,0,0,1,.11.1c0,.05.06.08.06.1h0c0,.14,0,.2-.13.18a.15.15,0,0,0-.07,0,.72.72,0,0,0-.23.23.83.83,0,0,1-.11.15l-.22.29c-.1.16-.22.3-.36.16l-.23-.21,0,0a1.28,1.28,0,0,0-.29-.23,1.42,1.42,0,0,1-.13-.12,2.39,2.39,0,0,0-.22-.23.27.27,0,0,0-.08-.07s0,0,0,0,0,0,0,0,0,0,0,0,0,0,0,0a.31.31,0,0,1,.13.06l.24.15a.54.54,0,0,1,.12.09,1.56,1.56,0,0,0,.34.23.58.58,0,0,0,.13.11c.06,0,.1,0,.1,0v0s0,0,0,0l.1-.16L63,30.6a1,1,0,0,0,.19-.3C63.18,30.23,63.25,30.21,63.28,30.16Z"/></g><g class="cls-7"><path class="cls-8" d="M7.1,33.8a.28.28,0,0,1,.32,0,.32.32,0,0,1,.1.12c0,.05,0,.08,0,.11h0c0,.15,0,.2-.16.16s0,0-.07,0a.74.74,0,0,0-.27.19.8.8,0,0,1-.13.13l-.26.26c-.13.14-.28.25-.39.09l-.19-.25s0,0,0,0a1.27,1.27,0,0,0-.24-.28.75.75,0,0,1-.11-.13l-.18-.27-.07-.08s0,0,0,0l0,0h0l.12.08.2.19a.36.36,0,0,1,.11.1c.08.13.21.19.3.29l.11.13c.06,0,.09,0,.11,0v0l0,0,.13-.14.08-.09A2.1,2.1,0,0,0,7,33.92C7,33.85,7.06,33.84,7.1,33.8Z"/></g><g class="cls-7"><path class="cls-8" d="M62.9,33.75a.22.22,0,0,1,.21-.09l.11,0a.32.32,0,0,1,.11.1.17.17,0,0,1,.05.1h0c0,.14,0,.2-.14.18s0,0-.06,0a.63.63,0,0,0-.23.23.88.88,0,0,1-.12.15l-.21.3c-.1.15-.23.29-.36.15L62,34.73l0,0a1,1,0,0,0-.28-.23.74.74,0,0,1-.13-.12l-.22-.23L61.27,34a.05.05,0,0,1,0,0l0,0v0h0a.75.75,0,0,1,.13.06l.23.15a1,1,0,0,1,.13.09,1.56,1.56,0,0,0,.34.23.58.58,0,0,0,.13.11c.06,0,.09,0,.1,0v0s0,0,0,0l.1-.16.07-.1a2.2,2.2,0,0,0,.19-.3C62.8,33.82,62.87,33.8,62.9,33.75Z"/></g><g class="cls-7"><path class="cls-8" d="M7.1,37.63a.24.24,0,0,1,.22-.06l.1,0a.36.36,0,0,1,.1.11c0,.06,0,.09,0,.11h0c0,.15,0,.2-.16.16s0,0-.07,0a.74.74,0,0,0-.27.19,1.59,1.59,0,0,1-.13.13l-.26.25c-.13.14-.28.26-.39.09l-.19-.24,0,0a1.08,1.08,0,0,0-.24-.28A.85.85,0,0,1,5.69,38l-.18-.26-.07-.08a.06.06,0,0,1,0,0l0,0h0s0,0,0,0l.12.08.2.19a.36.36,0,0,1,.11.1c.08.13.21.19.3.29l.11.13c.06,0,.09,0,.11,0v0l0,0,.13-.14.08-.1A1.51,1.51,0,0,0,7,37.75C7,37.68,7.06,37.67,7.1,37.63Z"/></g><g class="cls-7"><path class="cls-8" d="M62.9,37.58a.22.22,0,0,1,.21-.09l.11,0a.39.39,0,0,1,.11.09c0,.06.05.08.05.11h0c0,.14,0,.2-.14.18a.07.07,0,0,0-.06,0,.63.63,0,0,0-.23.23.88.88,0,0,1-.12.15l-.21.29c-.1.16-.23.3-.36.15l-.24-.2a.08.08,0,0,0,0,0,.89.89,0,0,0-.28-.23.74.74,0,0,1-.13-.12l-.22-.24-.08-.06a.05.05,0,0,1,0,0l0,0v0s0,0,0,0a.38.38,0,0,1,.13.06l.23.15s.09,0,.13.09a1.56,1.56,0,0,0,.34.23.58.58,0,0,0,.13.11c.06,0,.09,0,.1,0v0s0,0,0,0l.1-.16.07-.11a2.2,2.2,0,0,0,.19-.3C62.8,37.65,62.87,37.63,62.9,37.58Z"/></g><g class="cls-7"><path class="cls-8" d="M7.48,40.58a.23.23,0,0,1,.23,0,.26.26,0,0,1,.1,0,.31.31,0,0,1,.09.12.15.15,0,0,1,0,.11h0c0,.14-.05.19-.17.15s0,0-.07,0a.7.7,0,0,0-.26.19.57.57,0,0,1-.14.13L7,41.56c-.13.14-.27.25-.38.09l-.2-.25,0,0a1.61,1.61,0,0,0-.24-.28A.35.35,0,0,1,6.08,41l-.18-.27-.07-.08s0,0,0,0l0,0H5.9l.11.08.21.19a1,1,0,0,1,.11.1c.07.13.2.19.29.29a1.67,1.67,0,0,0,.12.13s.09,0,.1,0l0,0s0,0,0,0L7,41.06,7.09,41a1.55,1.55,0,0,0,.24-.27C7.37,40.63,7.44,40.62,7.48,40.58Z"/></g><g class="cls-7"><path class="cls-8" d="M63.28,40.53a.23.23,0,0,1,.21-.09l.11,0a.32.32,0,0,1,.11.1s.06.08.06.1h0c0,.14,0,.2-.13.18a.15.15,0,0,0-.07,0,.72.72,0,0,0-.23.23.83.83,0,0,1-.11.15l-.22.3c-.1.16-.22.29-.36.15l-.23-.21,0,0a1.28,1.28,0,0,0-.29-.23,1.42,1.42,0,0,1-.13-.12l-.22-.23a.27.27,0,0,0-.08-.07s0,0,0,0,0,0,0,0l0,0h0a.52.52,0,0,1,.13.06l.24.15a.54.54,0,0,1,.12.09,1.56,1.56,0,0,0,.34.23.58.58,0,0,0,.13.11c.06,0,.1,0,.1,0v0l0,0,.1-.16L63,41a1.17,1.17,0,0,0,.19-.3C63.18,40.6,63.25,40.58,63.28,40.53Z"/></g><g class="cls-7"><path class="cls-8" d="M7.48,44.41a.26.26,0,0,1,.23-.06l.1,0a.35.35,0,0,1,.09.11.18.18,0,0,1,0,.11h0c0,.15-.05.2-.17.16s0,0-.07,0a.7.7,0,0,0-.26.19.86.86,0,0,1-.14.13L7,45.38c-.13.14-.27.26-.38.09l-.2-.24,0,0a1.31,1.31,0,0,0-.24-.28.38.38,0,0,1-.11-.14l-.18-.26-.07-.08a.06.06,0,0,1,0,0l0,0h0s0,0,0,0l.11.08.21.19a1,1,0,0,1,.11.1c.07.13.2.19.29.29a1.67,1.67,0,0,0,.12.13s.09,0,.1,0l0,0,0,0L7,44.89l.08-.1a1.2,1.2,0,0,0,.24-.26C7.37,44.46,7.44,44.45,7.48,44.41Z"/></g><g class="cls-7"><path class="cls-8" d="M63.28,44.36a.23.23,0,0,1,.21-.09l.11,0a.39.39,0,0,1,.11.09c0,.06.06.09.06.11h0c0,.14,0,.2-.13.18a.09.09,0,0,0-.07,0,.72.72,0,0,0-.23.23.83.83,0,0,1-.11.15l-.22.29c-.1.16-.22.3-.36.15a2.19,2.19,0,0,1-.23-.21l0,0a1.05,1.05,0,0,0-.29-.23A1.42,1.42,0,0,1,62,45l-.22-.24-.08-.06s0,0,0,0,0,0,0,0,0,0,0,0h0l.13.05.24.16s.09,0,.12.09a1.56,1.56,0,0,0,.34.23.58.58,0,0,0,.13.11c.06,0,.1,0,.1,0v0l0,0,.1-.16L63,44.8a1.17,1.17,0,0,0,.19-.3C63.18,44.43,63.25,44.41,63.28,44.36Z"/></g><g class="cls-7"><path class="cls-8" d="M7.1,48.11a.21.21,0,0,1,.22,0,.24.24,0,0,1,.1,0,.27.27,0,0,1,.1.11c0,.06,0,.09,0,.11h0c0,.14,0,.19-.16.16a.08.08,0,0,0-.07,0,.74.74,0,0,0-.27.19.8.8,0,0,1-.13.13l-.26.26c-.13.14-.28.26-.39.09l-.19-.25,0,0a1,1,0,0,0-.24-.27,1.71,1.71,0,0,1-.11-.14l-.18-.27-.07-.08s0,0,0,0l0,0h0l.12.08.2.19s.09.06.11.11.21.18.3.28l.11.13c.06,0,.09,0,.11,0v0s0,0,0,0l.13-.14.08-.09A2.1,2.1,0,0,0,7,48.23C7,48.17,7.06,48.15,7.1,48.11Z"/></g><g class="cls-7"><path class="cls-8" d="M62.9,48.06a.22.22,0,0,1,.21-.09l.11,0a.47.47,0,0,1,.11.1.17.17,0,0,1,.05.1h0c0,.14,0,.2-.14.19s0,0-.06,0a.72.72,0,0,0-.23.23,1,1,0,0,1-.12.16l-.21.29c-.1.16-.23.3-.36.15L62,49l0,0a1,1,0,0,0-.28-.23.49.49,0,0,1-.13-.12l-.22-.23s-.06,0-.08-.07,0,0,0,0a.08.08,0,0,1,0,0h0l0,0a.75.75,0,0,1,.13.06l.23.15a1,1,0,0,1,.13.09c.09.11.23.15.34.24a.91.91,0,0,0,.13.1c.06,0,.09,0,.1,0v0s0,0,0,0l.1-.16.07-.1a2.2,2.2,0,0,0,.19-.3C62.8,48.13,62.87,48.11,62.9,48.06Z"/></g><g class="cls-7"><path class="cls-8" d="M7.1,51.94a.24.24,0,0,1,.22-.06l.1,0a.32.32,0,0,1,.1.12c0,.05,0,.08,0,.11h0c0,.15,0,.2-.16.16s0,0-.07,0a.74.74,0,0,0-.27.19l-.13.13-.26.25c-.13.14-.28.26-.39.1l-.19-.25s0,0,0,0a1.08,1.08,0,0,0-.24-.28,1.5,1.5,0,0,1-.11-.13L5.51,52,5.44,52s0,0,0,0l0,0h0s0,0,0,0l.12.08.2.19a.36.36,0,0,1,.11.1c.08.13.21.19.3.29l.11.13c.06,0,.09,0,.11,0v0l0,0,.13-.14.08-.09A2.1,2.1,0,0,0,7,52.06C7,52,7.06,52,7.1,51.94Z"/></g><g class="cls-7"><path class="cls-8" d="M62.9,51.89a.22.22,0,0,1,.21-.09l.11,0a.32.32,0,0,1,.11.1.17.17,0,0,1,.05.1h0c0,.14,0,.2-.14.18s0,0-.06,0a.63.63,0,0,0-.23.23.88.88,0,0,1-.12.15l-.21.29c-.1.16-.23.3-.36.16L62,52.87l0,0a1,1,0,0,0-.28-.23.74.74,0,0,1-.13-.12l-.22-.23-.08-.07a.05.05,0,0,1,0,0l0,0v0s0,0,0,0a.75.75,0,0,1,.13.06l.23.15a1,1,0,0,1,.13.09,1.56,1.56,0,0,0,.34.23.58.58,0,0,0,.13.11c.06,0,.09,0,.1,0v0s0,0,0,0l.1-.16.07-.11a1.72,1.72,0,0,0,.19-.3C62.8,52,62.87,51.94,62.9,51.89Z"/></g><g class="cls-7"><path class="cls-8" d="M7.19,55.77a.28.28,0,0,1,.32,0,.32.32,0,0,1,.1.12s0,.08,0,.11h0c0,.15,0,.2-.16.16s-.05,0-.07,0a.74.74,0,0,0-.27.19.8.8,0,0,1-.13.13l-.26.26c-.13.14-.28.25-.39.09l-.19-.25s0,0,0,0a1.27,1.27,0,0,0-.24-.28.75.75,0,0,1-.11-.13l-.18-.27-.07-.08s0,0,0,0l0,0h0l.12.08.2.19a.36.36,0,0,1,.11.1c.07.13.21.19.3.29l.11.13s.09,0,.11,0v0l0,0,.13-.14.08-.09A2.1,2.1,0,0,0,7,55.89C7.08,55.82,7.15,55.81,7.19,55.77Z"/></g><g class="cls-7"><path class="cls-8" d="M63,55.72a.22.22,0,0,1,.21-.09l.11,0a.32.32,0,0,1,.11.1.17.17,0,0,1,0,.1h0c0,.14,0,.2-.14.18s0,0-.06,0a.63.63,0,0,0-.23.23.88.88,0,0,1-.12.15l-.21.3c-.11.15-.23.29-.36.15l-.24-.21s0,0,0,0a1,1,0,0,0-.28-.23.74.74,0,0,1-.13-.12l-.22-.23L61.36,56a.05.05,0,0,1,0,0l0,0v0h0a.75.75,0,0,1,.13.06l.23.15a1,1,0,0,1,.13.09,1.56,1.56,0,0,0,.34.23.58.58,0,0,0,.13.11c.05,0,.09,0,.1,0v0s0,0,0,0l.1-.16.07-.1a2.2,2.2,0,0,0,.19-.3C62.89,55.79,63,55.77,63,55.72Z"/></g></g></g></g></svg>