<svg xmlns="http://www.w3.org/2000/svg" viewBox="0 0 60.31 62.62"><defs><style>.cls-1{isolation:isolate;}.cls-2{fill:#f9e3d4;}.cls-3{fill:#68e0cc;mix-blend-mode:multiply;}.cls-4{fill:#19af92;}.cls-5{fill:#292d37;}</style></defs><g class="cls-1"><g id="Слой_2" data-name="Слой 2"><g id="OBJECTS"><rect class="cls-2" x="-1.15" y="1.15" width="62.62" height="60.31" transform="translate(61.46 1.15) rotate(90)"/><polygon class="cls-3" points="10.73 12.74 3.52 36.3 17.93 36.3 10.73 12.74"/><polygon class="cls-4" points="10.6 23.82 9.55 50.03 11.9 50.03 10.6 23.82"/><polygon class="cls-4" points="8.47 30.68 10.63 30.9 10.61 30.23 8.47 30.68"/><polygon class="cls-4" points="12.77 34.47 10.62 34.25 10.64 34.92 12.77 34.47"/><polygon class="cls-3" points="30.91 32.61 25.46 50.43 36.37 50.43 30.91 32.61"/><polygon class="cls-4" points="30.82 40.99 30.03 60.82 31.8 60.82 30.82 40.99"/><polygon class="cls-4" points="29.21 46.18 30.84 46.35 30.82 45.84 29.21 46.18"/><polygon class="cls-4" points="32.46 49.05 30.83 48.88 30.85 49.39 32.46 49.05"/><polygon class="cls-3" points="46.38 10.77 39.17 34.32 53.58 34.32 46.38 10.77"/><polygon class="cls-4" points="46.25 21.84 45.2 48.05 47.55 48.05 46.25 21.84"/><polygon class="cls-4" points="44.12 28.71 46.28 28.93 46.26 28.26 44.12 28.71"/><polygon class="cls-4" points="48.42 32.49 46.27 32.27 46.29 32.94 48.42 32.49"/><path class="cls-5" d="M8.78,11.22a.46.46,0,1,1-.46-.45A.46.46,0,0,1,8.78,11.22Z"/><path class="cls-5" d="M55.36,35.64a.45.45,0,0,1-.45.45.46.46,0,0,1-.46-.45.47.47,0,0,1,.46-.46A.46.46,0,0,1,55.36,35.64Z"/><path class="cls-5" d="M24.67,25.43a.46.46,0,1,1-.45-.46A.46.46,0,0,1,24.67,25.43Z"/><path class="cls-5" d="M16.6,56.88a.46.46,0,0,1-.46.45.45.45,0,0,1-.45-.45.46.46,0,0,1,.45-.46A.47.47,0,0,1,16.6,56.88Z"/><path class="cls-5" d="M54.49,52.68a.46.46,0,0,1-.91,0,.46.46,0,1,1,.91,0Z"/><circle class="cls-5" cx="35.64" cy="11.68" r="0.46"/><path class="cls-5" d="M2.33,25.43A.46.46,0,1,1,1.88,25,.46.46,0,0,1,2.33,25.43Z"/><path class="cls-5" d="M22.87,4.36a.46.46,0,1,1-.91,0,.46.46,0,0,1,.91,0Z"/><path class="cls-5" d="M57,20.57a.46.46,0,0,1-.46.45.46.46,0,0,1,0-.91A.46.46,0,0,1,57,20.57Z"/><path class="cls-5" d="M41,56a.46.46,0,1,1-.45-.45A.45.45,0,0,1,41,56Z"/><path class="cls-5" d="M18.39,38.19a.46.46,0,1,1-.46-.46A.47.47,0,0,1,18.39,38.19Z"/><path class="cls-5" d="M29.36,30.06c5.89,1.31,12.14,4.58,12.14,11.7,0,8.8-10,13.09-18,13.09-4.43,0-10.68-2.11-10.68-9.16,0-4.07,3-8.51,7.27-8.51a.68.68,0,0,1,0,.8c-3.13,0-6.4,3.35-6.4,7.71,0,5.74,5.45,8.28,9.81,8.28,8.58,0,11.34-6.32,11.34-12.21s-2.47-10.18-9.23-11.41v-.87c8.65,0,15-5,15-12.58,0-4.14-2.18-8.21-7.56-8.21a12.6,12.6,0,0,0-10.47,5.74,9.32,9.32,0,0,0-1.24,5.81c-.22.37-.51.29-.8.08a10.38,10.38,0,0,1,1.31-6.18A13.23,13.23,0,0,1,33,7.81c5.3,0,13.44,2.4,13.44,8.15C46.44,24.75,37.21,28.68,29.36,30.06Z"/></g></g></g></svg>