<svg xmlns="http://www.w3.org/2000/svg" viewBox="0 0 70.19 70.19"><defs><style>.cls-1{isolation:isolate;}.cls-2{fill:#b3d5d5;}.cls-3{fill:#292d37;}.cls-4{fill:#007883;}.cls-5{fill:#fa3c2e;}.cls-6{fill:#c71d12;}.cls-7{fill:#db2014;}.cls-8{fill:#137a83;}.cls-9{fill:#fa483c;}.cls-10{opacity:0.57;mix-blend-mode:multiply;}.cls-11{fill:#6bb5a3;}</style></defs><g class="cls-1"><g id="Слой_2" data-name="Слой 2"><g id="OBJECTS"><rect class="cls-2" width="70.19" height="70.19" transform="translate(70.19 0) rotate(90)"/><path class="cls-3" d="M22.19,20.22a8.67,8.67,0,0,1-.79,1.08,5,5,0,0,1-3,2.12c-.54,3.42-1.07,6.59-1.25,7.23-.11.26-.29.33-.69.33s-1.72-.18-1.76-.18l-.18-.07.07-.18c.11-.58.54-3.74,1-7.2-.61-.11-1.12-.21-1.66-.36a13.07,13.07,0,0,0-2.8-.32A13.71,13.71,0,0,0,5.17,24.5c-.32-.18-.32-.43-.21-.75C8.27,20.47,18.27,6.08,18.37,5.94h0v0a1.27,1.27,0,0,1,.79-.36C20.17,5.54,21,7,21,7l.11.15-.11.1c-.07.15-8.81,9.79-13.31,15a6.47,6.47,0,0,1,3.17-1.08,10.52,10.52,0,0,1,3.2.64l1.65.51c.76-4.9,1.48-10.22,1.48-10.29v-.25l.25,0c.18.07,2.55.25,2.48,1.19v0c-.07.32-.72,5-1.4,9.49a3.67,3.67,0,0,0,2.59-1.47,11.56,11.56,0,0,0,.72-1Z"/><path class="cls-4" d="M54.14,54A11.65,11.65,0,0,1,62,44.78l-.28-.06A16.9,16.9,0,0,1,51,37.25,10.26,10.26,0,0,1,36.9,39.49c-.1.18-.22.35-.34.53a6.94,6.94,0,0,1-2.28,6.34,7.26,7.26,0,0,1,1.06,1h.06l0,0a.74.74,0,0,1,.12.13,6.64,6.64,0,0,1,1.08,6.59l.12,0h0a16.27,16.27,0,0,1,1.91,2A13,13,0,0,1,54.14,54Z"/><path class="cls-5" d="M20.84,39.67a5.65,5.65,0,0,1,1.7.26,6.5,6.5,0,0,1,4.57,5.45,5.84,5.84,0,0,1-.14,2,9.6,9.6,0,0,1-3.71,5.41A6.11,6.11,0,0,1,18.8,54a6.79,6.79,0,0,1-5.48-6.5,8,8,0,0,1,4.36-7,6.76,6.76,0,0,1,2.89-.77Z"/><path class="cls-6" d="M36.56,40a6.94,6.94,0,0,1-2.28,6.34,6.85,6.85,0,0,0-7.13-1h0a6.5,6.5,0,0,0-4.57-5.45l.23-.18a6.9,6.9,0,0,1,1.89-3.64,7.14,7.14,0,0,1,3.37-2L28.6,34a6.87,6.87,0,0,1,3.53.43,7,7,0,0,1,3.73,3.3,6,6,0,0,1,.28.63A7.22,7.22,0,0,1,36.56,40Z"/><path class="cls-4" d="M56.46,20.75A15.24,15.24,0,0,1,54.7,5l-.3.22A22.17,22.17,0,0,1,37.63,8.86a13.56,13.56,0,0,1-2.08,9.82,13.58,13.58,0,0,1-8.32,5.62,26.81,26.81,0,0,1,.8,9.84L28.6,34a6.87,6.87,0,0,1,3.53.43,7,7,0,0,1,3.73,3.3,6,6,0,0,1,.28.63,27.93,27.93,0,0,1,8.54-.82A17.09,17.09,0,0,1,56.46,20.75Z"/><path class="cls-7" d="M35.36,47.4a.74.74,0,0,1,.12.13,6.64,6.64,0,0,1,1.08,6.59,6.91,6.91,0,0,1-7.88,4.59,7.09,7.09,0,0,1-5.42-5.89A9.6,9.6,0,0,0,27,47.41a5.84,5.84,0,0,0,.14-2h0a6.85,6.85,0,0,1,7.13,1,7.26,7.26,0,0,1,1.06,1S35.36,47.38,35.36,47.4Z"/><path class="cls-8" d="M9.57,38a5.94,5.94,0,0,1-3.91-2.28c-.41-.57-.66-1.42-.18-1.93a1.23,1.23,0,0,1,1.09-.29,4,4,0,0,1,1.09.44l2.92,1.59A12.81,12.81,0,0,1,13.41,37c.84.88-.33.82-1.24.94A8.4,8.4,0,0,1,9.57,38Z"/><path class="cls-9" d="M41.2,61a6,6,0,0,1,3.39,3c.29.64.37,1.53-.2,1.93a1.25,1.25,0,0,1-1.13.07,3.68,3.68,0,0,1-1-.64l-2.56-2.13a12.71,12.71,0,0,1-2.47-2c-.66-1,.48-.74,1.4-.68A8.26,8.26,0,0,1,41.2,61Z"/><path class="cls-3" d="M58.87,27.29A5.94,5.94,0,0,1,63,25.45c.7,0,1.54.3,1.66,1a1.24,1.24,0,0,1-.4,1.06,3.75,3.75,0,0,1-1,.62l-3,1.44A13.07,13.07,0,0,1,57.38,31c-1.21.17-.47-.74,0-1.56A8.58,8.58,0,0,1,58.87,27.29Z"/><g class="cls-10"><path class="cls-11" d="M37.4,30.17a.31.31,0,0,1,.26.11.81.81,0,0,1,.06.13.46.46,0,0,1,0,.18.2.2,0,0,1,0,.13h0c-.1.15-.2.16-.28,0a.07.07,0,0,0-.08,0,.77.77,0,0,0-.4,0,1.64,1.64,0,0,1-.22,0l-.44.05c-.23,0-.46,0-.44-.2s0-.25,0-.38v-.06a1.66,1.66,0,0,0,0-.45.74.74,0,0,1,0-.21l0-.4s0-.08,0-.13l0,0h.07s0,0,0,0a.52.52,0,0,1,.06.16l.05.34a.57.57,0,0,1,0,.18,2.74,2.74,0,0,0,.07.5,1.15,1.15,0,0,0,0,.21c0,.07.05.1.12,0h0l.06,0,.23,0,.15,0a1.54,1.54,0,0,0,.42-.07C37.25,30.14,37.33,30.18,37.4,30.17Z"/></g><g class="cls-10"><path class="cls-11" d="M39.2,27.6a.28.28,0,0,1,.26.1.41.41,0,0,1,.07.11.33.33,0,0,1,0,.18.25.25,0,0,1,0,.14h0c-.09.15-.19.16-.28.05a.08.08,0,0,0-.08,0,.78.78,0,0,0-.4,0l-.22,0-.44.08c-.22.06-.45.08-.45-.16l0-.38s0-.05,0-.07a1.3,1.3,0,0,0-.06-.44.78.78,0,0,1,0-.22v-.39s0-.08,0-.13a.08.08,0,0,1,0,0l0,0h0l.05,0a.77.77,0,0,1,.07.16l.08.33a1,1,0,0,1,0,.18,2.16,2.16,0,0,0,.11.49,1.05,1.05,0,0,0,0,.21c0,.06.06.09.13,0l0,0,.05,0,.23,0,.14,0a2.17,2.17,0,0,0,.42-.11C39.05,27.58,39.13,27.62,39.2,27.6Z"/></g><g class="cls-10"><path class="cls-11" d="M35.38,33.3a.29.29,0,0,1,.27.09.63.63,0,0,1,.07.12.44.44,0,0,1,0,.18.16.16,0,0,1,0,.13h0c-.09.15-.18.17-.27.05s-.06,0-.08,0a.9.9,0,0,0-.4,0,.93.93,0,0,1-.23,0l-.43.08c-.23.06-.45.08-.45-.16s0-.25,0-.38v-.06a1.63,1.63,0,0,0-.06-.45.49.49,0,0,1,0-.21v-.39a.51.51,0,0,0,0-.13l0-.05h.12a1.66,1.66,0,0,1,.06.16l.08.33a.39.39,0,0,1,0,.18,2.78,2.78,0,0,0,.11.5c0,.06,0,.17,0,.2s.07.1.13,0l0,0,.06,0,.22-.06.15,0a1.63,1.63,0,0,0,.42-.11C35.23,33.28,35.32,33.31,35.38,33.3Z"/></g><g class="cls-10"><path class="cls-11" d="M43.27,22a.29.29,0,0,1,.26.12l.06.12a.33.33,0,0,1,0,.18.2.2,0,0,1-.05.13h0c-.1.14-.19.15-.28,0s0,0-.08,0a.74.74,0,0,0-.39,0,2,2,0,0,1-.23,0l-.44.05c-.23,0-.46.05-.44-.19V22s0,0,0-.06a1.35,1.35,0,0,0,0-.45.74.74,0,0,1,0-.21l0-.39s0-.09,0-.13,0,0,0-.05h.07l0,0a1,1,0,0,1,.05.16c0,.12,0,.23,0,.34a.57.57,0,0,1,0,.18,2.74,2.74,0,0,0,.07.5c0,.07,0,.17,0,.21s.06.1.13.05l0,0,0,0,.23,0,.15,0A1.68,1.68,0,0,0,43,22C43.12,22,43.2,22,43.27,22Z"/></g><g class="cls-10"><path class="cls-11" d="M45.07,19.41a.28.28,0,0,1,.26.1.62.62,0,0,1,.08.12.68.68,0,0,1,0,.18c0,.08,0,.11,0,.13h0c-.09.15-.18.17-.28.05A.08.08,0,0,0,45,20a.74.74,0,0,0-.39,0l-.23,0-.44.08c-.22.06-.45.08-.44-.16s0-.26,0-.38,0-.05,0-.07a1.3,1.3,0,0,0-.06-.44,1.49,1.49,0,0,1,0-.21v-.4s0-.08,0-.12,0,0,0,0l0,0h0s0,0,0,0a.77.77,0,0,1,.07.16l.08.33c0,.06.05.12,0,.18a1.94,1.94,0,0,0,.11.49,1.05,1.05,0,0,0,0,.21c0,.07.06.09.13,0h0s0,0,0,0l.23-.06.14,0a2.26,2.26,0,0,0,.43-.11C44.92,19.4,45,19.43,45.07,19.41Z"/></g><g class="cls-10"><path class="cls-11" d="M41.26,25.11a.28.28,0,0,1,.26.09.63.63,0,0,1,.07.12.47.47,0,0,1,0,.18.19.19,0,0,1,0,.14h0c-.1.15-.19.17-.28.06s0,0-.08,0a.9.9,0,0,0-.4,0,.85.85,0,0,1-.23,0l-.43.09c-.22.05-.45.08-.45-.17l0-.38a.13.13,0,0,1,0-.06,1.4,1.4,0,0,0-.06-.45.71.71,0,0,1,0-.21v-.39a.59.59,0,0,1,0-.13s0,0,0,0l0,0h0l0,0a.94.94,0,0,1,.06.15l.08.34a.53.53,0,0,1,.05.18c0,.17.08.32.1.49s0,.17,0,.21.06.09.13,0l0,0,0,0,.22-.06.15,0a1.63,1.63,0,0,0,.42-.11C41.11,25.09,41.19,25.13,41.26,25.11Z"/></g><g class="cls-10"><path class="cls-11" d="M49.15,13.34a.29.29,0,0,1,.25.11.81.81,0,0,1,.06.13.32.32,0,0,1,0,.18.2.2,0,0,1,0,.13h0c-.1.15-.19.16-.28,0a.07.07,0,0,0-.07,0,.77.77,0,0,0-.4,0,1.79,1.79,0,0,1-.23,0L48,14c-.23,0-.45.05-.43-.2v-.38s0,0,0-.06a1.33,1.33,0,0,0,0-.45.5.5,0,0,1,0-.21c0-.13,0-.27,0-.4s0-.08,0-.13l0,0h.07l.05,0a1,1,0,0,1,0,.16l.06.34a.55.55,0,0,1,0,.18,2.09,2.09,0,0,0,.08.5,1.28,1.28,0,0,0,0,.21c0,.07.06.1.13,0h0l.06,0,.22,0,.15,0a1.68,1.68,0,0,0,.43-.07C49,13.31,49.08,13.35,49.15,13.34Z"/></g><g class="cls-10"><path class="cls-11" d="M50.94,10.77a.28.28,0,0,1,.26.1,1,1,0,0,1,.08.11.82.82,0,0,1,0,.18c0,.09,0,.12,0,.14h0c-.09.15-.18.16-.27,0a.1.1,0,0,0-.08,0,.77.77,0,0,0-.4,0l-.23,0-.43.08c-.23.06-.45.08-.45-.16s0-.26,0-.38,0,0,0-.07a1.3,1.3,0,0,0-.06-.44.79.79,0,0,1,0-.22V9.81a.69.69,0,0,0,0-.13l0,0,0,0h0s0,0,0,0a.46.46,0,0,1,.07.16l.08.33a.37.37,0,0,1,0,.18,2,2,0,0,0,.11.49c0,.07,0,.17,0,.21s.07.09.13,0l0,0,.06,0,.22-.05.15,0a2.17,2.17,0,0,0,.42-.11C50.79,10.75,50.87,10.79,50.94,10.77Z"/></g><g class="cls-10"><path class="cls-11" d="M47.13,16.47a.27.27,0,0,1,.26.09.35.35,0,0,1,.07.12.32.32,0,0,1,0,.18.24.24,0,0,1,0,.13h0c-.09.15-.19.17-.28.05s0,0-.08,0a.91.91,0,0,0-.4,0,.85.85,0,0,1-.22,0l-.44.08c-.22.06-.45.08-.45-.16l0-.38s0,0,0-.06a1.33,1.33,0,0,0-.06-.45.71.71,0,0,1,0-.21v-.39s0-.09,0-.13a.17.17,0,0,1,0-.05h.11l.07.16.08.33a1.06,1.06,0,0,1,0,.19,2.16,2.16,0,0,0,.11.49.94.94,0,0,0,0,.2c0,.07.06.1.13,0l0,0,.05,0,.23-.06.14,0a1.63,1.63,0,0,0,.42-.11C47,16.45,47.06,16.49,47.13,16.47Z"/></g><g class="cls-10"><path class="cls-11" d="M39.54,46.73a.21.21,0,0,1,.06.21.63.63,0,0,1,0,.09.36.36,0,0,1-.11.1c-.05,0-.08,0-.1,0h0c-.14,0-.19,0-.16-.15a.08.08,0,0,0,0-.07A.63.63,0,0,0,39,46.7l-.13-.13-.25-.24c-.13-.11-.25-.25-.09-.36l.22-.19,0,0a1.2,1.2,0,0,0,.26-.24.75.75,0,0,1,.13-.11l.24-.17.08-.07h0l0,0h0s0,0,0,0a.75.75,0,0,1-.07.12l-.17.19a.36.36,0,0,1-.1.11c-.12.07-.17.2-.26.29s-.11.08-.12.11,0,.08,0,.1h0l0,0,.13.11.09.08a1.88,1.88,0,0,0,.26.22C39.49,46.62,39.5,46.69,39.54,46.73Z"/></g><g class="cls-10"><path class="cls-11" d="M42,46.54a.22.22,0,0,1,.07.21.54.54,0,0,1,0,.1.46.46,0,0,1-.1.1.14.14,0,0,1-.1,0h0c-.13,0-.19,0-.17-.14a0,0,0,0,0,0-.06.56.56,0,0,0-.2-.23.81.81,0,0,1-.14-.12L41,46.22c-.15-.11-.27-.23-.13-.35l.21-.21,0,0a1,1,0,0,0,.24-.25.46.46,0,0,1,.12-.12l.23-.19s0-.05.07-.08h0l0,0h0s0,0,0,0l-.06.12-.16.21a.48.48,0,0,1-.09.11,1.43,1.43,0,0,0-.24.31.57.57,0,0,0-.11.12c0,.05,0,.09,0,.1h0l0,0,.14.1.1.07a1.35,1.35,0,0,0,.27.2C41.91,46.44,41.93,46.51,42,46.54Z"/></g><g class="cls-10"><path class="cls-11" d="M36.67,47.06a.23.23,0,0,1,.07.2l0,.1a.27.27,0,0,1-.09.1.17.17,0,0,1-.1,0h0c-.14,0-.19,0-.17-.14s0,0,0-.06a.66.66,0,0,0-.21-.23A.74.74,0,0,1,36,47l-.27-.22c-.14-.1-.27-.23-.12-.35l.21-.21,0,0a1.13,1.13,0,0,0,.23-.26.63.63,0,0,1,.12-.11l.24-.2.06-.07h0s0,0,0,0,0,0,0,0l0,0a.47.47,0,0,1-.07.12l-.16.21s0,.09-.09.12-.15.21-.24.3l-.11.13s0,.08.05.09h0l0,0,.15.11.09.07a1.55,1.55,0,0,0,.28.2C36.6,47,36.62,47,36.67,47.06Z"/></g><g class="cls-10"><path class="cls-11" d="M47.36,46.22a.2.2,0,0,1,0,.21.26.26,0,0,1,0,.1.22.22,0,0,1-.1.09.18.18,0,0,1-.11,0h0c-.13,0-.18,0-.15-.16s0,0,0-.06a.76.76,0,0,0-.19-.25.68.68,0,0,1-.12-.12l-.25-.24c-.14-.12-.25-.25-.1-.36l.23-.19s0,0,0,0a.93.93,0,0,0,.25-.23A.63.63,0,0,1,47,44.9l.25-.18a.23.23,0,0,0,.07-.07h0l0,0h0a.06.06,0,0,1,0,0,.41.41,0,0,1-.07.11l-.18.2s-.05.08-.09.11-.17.19-.27.28l-.12.12s0,.08,0,.09l0,0,0,0,.14.12.09.07a1.12,1.12,0,0,0,.26.22C47.3,46.12,47.32,46.18,47.36,46.22Z"/></g><g class="cls-10"><path class="cls-11" d="M49.79,46a.23.23,0,0,1,.07.2.42.42,0,0,1,0,.1.27.27,0,0,1-.09.1l-.1.05h0c-.14,0-.19,0-.17-.15s0,0,0-.06a.66.66,0,0,0-.21-.23,1.5,1.5,0,0,1-.13-.11l-.27-.22c-.14-.11-.27-.24-.12-.35l.21-.21,0,0a1.13,1.13,0,0,0,.23-.26.63.63,0,0,1,.12-.11l.23-.2a.46.46,0,0,0,.07-.07h.07a0,0,0,0,0,0,0s0,0,0,0a.24.24,0,0,1-.06.11l-.16.21s0,.09-.09.12-.15.21-.24.31l-.11.12c0,.05,0,.08,0,.09h0l0,0,.15.11.09.07a1.35,1.35,0,0,0,.27.2C49.72,45.94,49.74,46,49.79,46Z"/></g><g class="cls-10"><path class="cls-11" d="M44.48,46.55a.19.19,0,0,1,.07.2.26.26,0,0,1,0,.11l-.1.1a.14.14,0,0,1-.1,0h0c-.13,0-.19,0-.16-.14a.08.08,0,0,0,0-.06.67.67,0,0,0-.21-.23,1.74,1.74,0,0,1-.14-.12l-.26-.22c-.15-.11-.27-.23-.13-.35l.22-.21,0,0a1,1,0,0,0,.24-.25.46.46,0,0,1,.12-.12l.23-.19L44.3,45h0l0,0h0s0,0,0,0l-.06.12-.16.21a.48.48,0,0,1-.09.11c-.11.08-.15.21-.24.31a.57.57,0,0,0-.11.12s0,.09,0,.1h0l0,0,.14.1.1.07a1.35,1.35,0,0,0,.27.2C44.42,46.45,44.44,46.52,44.48,46.55Z"/></g><g class="cls-10"><path class="cls-11" d="M55.44,45.49a.22.22,0,0,1,.06.21l0,.1a.35.35,0,0,1-.11.09.14.14,0,0,1-.1,0h0c-.13,0-.19,0-.15-.16s0,0,0-.06a.63.63,0,0,0-.19-.24c-.05,0-.08-.09-.13-.13l-.24-.24c-.14-.12-.25-.25-.1-.36l.23-.19,0,0a1.09,1.09,0,0,0,.25-.23.45.45,0,0,1,.13-.11l.25-.18.07-.07h0l0,0h0s0,0,0,0a.41.41,0,0,1-.07.11l-.18.2a.48.48,0,0,1-.09.11,1.24,1.24,0,0,0-.27.29.65.65,0,0,0-.12.11s0,.08,0,.1h0l0,0,.14.12.09.07a1,1,0,0,0,.25.22C55.39,45.39,55.4,45.46,55.44,45.49Z"/></g><g class="cls-10"><path class="cls-11" d="M57.87,45.31a.21.21,0,0,1,.08.2.42.42,0,0,1,0,.1.32.32,0,0,1-.1.11.19.19,0,0,1-.1,0h0c-.14,0-.2,0-.17-.14a.14.14,0,0,0,0-.07.91.91,0,0,0-.21-.23l-.14-.11L56.91,45c-.14-.11-.27-.23-.12-.35l.21-.21,0,0a.94.94,0,0,0,.24-.25.68.68,0,0,1,.12-.12l.23-.2.07-.07h0l0,0h0s0,0,0,0a.39.39,0,0,1-.06.11l-.16.22s-.05.08-.09.11-.15.21-.24.31l-.11.12s0,.08,0,.09h0l0,0,.14.1.1.07a1.35,1.35,0,0,0,.27.2C57.81,45.21,57.83,45.28,57.87,45.31Z"/></g><g class="cls-10"><path class="cls-11" d="M52.57,45.82a.22.22,0,0,1,.07.21.22.22,0,0,1,0,.1.46.46,0,0,1-.1.1.14.14,0,0,1-.1,0h0c-.13,0-.19,0-.17-.14a0,0,0,0,0,0-.06.56.56,0,0,0-.2-.23.81.81,0,0,1-.14-.12l-.26-.22c-.15-.11-.27-.23-.13-.35l.21-.21a.08.08,0,0,0,0,0,1,1,0,0,0,.24-.25.46.46,0,0,1,.12-.12l.23-.19s0-.05.07-.08h0l0,0h0s0,0,0,0l-.06.12-.16.21s0,.09-.09.11a1.43,1.43,0,0,0-.24.31.57.57,0,0,0-.11.12c0,.05,0,.09,0,.1h0l0,0,.14.11.1.06a1.35,1.35,0,0,0,.27.2C52.51,45.72,52.53,45.79,52.57,45.82Z"/></g></g></g></g></svg>