<svg xmlns="http://www.w3.org/2000/svg" viewBox="0 0 78.83 71.52"><defs><style>.cls-1{fill:#292d37;}.cls-2{fill:#fff;}.cls-3{fill:#f9ba2b;}</style></defs><g id="Слой_2" data-name="Слой 2"><g id="OBJECTS"><rect class="cls-1" x="3.65" y="-3.65" width="71.52" height="78.83" transform="translate(75.17 -3.65) rotate(90)"/><path class="cls-2" d="M19.86,21.63a2.11,2.11,0,1,1-2.11-2.11A2.11,2.11,0,0,1,19.86,21.63Z"/><path class="cls-2" d="M19.86,46.25a2.11,2.11,0,1,1-2.11-2.11A2.11,2.11,0,0,1,19.86,46.25Z"/><path class="cls-2" d="M38.19,37.45a2.12,2.12,0,1,1-2.11-2.11A2.11,2.11,0,0,1,38.19,37.45Z"/><path class="cls-2" d="M55.47,19.52a2.11,2.11,0,1,1-2.11-2.12A2.12,2.12,0,0,1,55.47,19.52Z"/><path class="cls-2" d="M61.77,41.67a2.11,2.11,0,1,1-2.11-2.11A2.1,2.1,0,0,1,61.77,41.67Z"/><path class="cls-2" d="M40.85,57.65a2.11,2.11,0,1,1-2.11-2.11A2.1,2.1,0,0,1,40.85,57.65Z"/><path class="cls-2" d="M34.16,9.11A2.11,2.11,0,1,1,32.05,7,2.1,2.1,0,0,1,34.16,9.11Z"/><path class="cls-2" d="M58.12,57.65A2.11,2.11,0,1,1,56,55.54,2.1,2.1,0,0,1,58.12,57.65Z"/><path class="cls-2" d="M69.81,28.21A2.11,2.11,0,1,1,67.7,26.1,2.1,2.1,0,0,1,69.81,28.21Z"/><path class="cls-2" d="M32.38,32.08c-.06.27.48-.61.75-.81a13.68,13.68,0,0,1,9-3.31c6.55,0,11.14,5,11.14,9.45C53.31,48.34,44.8,55,34.81,55c-4.65,0-10-2.43-10-7.89,0-4.52,3.1-6.82,6.14-6.82.6.27.13.61,0,.61-2.64,0-5.34,2.23-5.34,6.21,0,5.26,4.93,7.08,9.18,7.08C42,54.21,47.16,44,47.16,37.48c0-8.44-7.69-10.46-13.49-5.61a10.27,10.27,0,0,0-2.5,3.18c-.41.2-.61.06-.68-.34,1.83-5,6.89-23.15,6.89-23.28l.34-.21.54.34s5.06,2.09,9.11,2.09a17.91,17.91,0,0,0,9-2.09.63.63,0,0,1,.54.54c-1.75,3.17-5.67,4.45-9.51,4.45a17.31,17.31,0,0,1-9.52-3C37.11,16.49,32.86,30.12,32.38,32.08Z"/><path class="cls-3" d="M17.09,62.37s-.06,0-.11-.06H16.9a.5.5,0,0,0,0-.12h0l0,.09,0,0c.1,0,.12-.06.11-.09a.14.14,0,0,1,0-.06A.15.15,0,0,0,17,62s0,0,0,0a.33.33,0,0,0,0-.14s0,0-.05-.07l-.13-.2a.75.75,0,0,0-.15-.16s-.07,0-.1,0l-.19-.07c-.07,0-.14,0-.2-.06h0l-.06,0a1.23,1.23,0,0,0-.27,0c-.07,0-.12.06-.18.08a.39.39,0,0,0-.16.1s0,0,0,0,0,.07-.06.09-.07.1-.12.14-.06.1-.09.15a.15.15,0,0,0,0,.07.3.3,0,0,1,0,.1s0,.09-.05.13a.22.22,0,0,0,0,.08v0s0,0,0,.06a.51.51,0,0,1,0,.17.31.31,0,0,0,0,.13.06.06,0,0,1,0,.06s0,0,0,0,0,0,0,0,.07.2.16.24a.68.68,0,0,1,.12.12l0,0,.19.07.08,0c.06,0,.13,0,.19,0h0a.2.2,0,0,1,.13,0,.15.15,0,0,0,.13,0s.07,0,.1,0h.06l.09,0h0l.11,0s0,0,.05,0,0-.06,0-.06a.31.31,0,0,0,.16-.11.73.73,0,0,0,.17-.18s0,0,0-.06.06,0,0-.08,0,0,0,0l.09-.1h0A1,1,0,0,0,17.09,62.37Zm-.22.11h0a.69.69,0,0,0,0-.13C16.94,62.4,16.9,62.45,16.87,62.48Z"/><path class="cls-3" d="M44.84,4.61a.22.22,0,0,0-.12-.06l-.06,0h0a.45.45,0,0,0,0-.11h0l0,.09,0,0c.1,0,.12,0,.1-.08s0,0,0-.06a.15.15,0,0,0,0-.14,0,0,0,0,1,0,0,.66.66,0,0,0,0-.14s0,0,0-.07l-.13-.2-.15-.16s-.07,0-.1,0l-.2-.07c-.06,0-.13,0-.19-.06h0l-.06,0a1.23,1.23,0,0,0-.27,0c-.07,0-.12.06-.18.08a.39.39,0,0,0-.16.1s0,0,0,0,0,.07-.06.09-.08.1-.13.14a.5.5,0,0,0-.08.14s0,0,0,.08,0,.07,0,.1,0,.09-.05.13a.22.22,0,0,0,0,.08.06.06,0,0,1,0,0s0,0,0,.06a.51.51,0,0,1,0,.17.31.31,0,0,0,0,.13,0,0,0,0,1,0,.06h0l0,0c0,.08.07.19.16.24s.07.08.12.12l0,0,.19.07.07,0c.06,0,.14,0,.2,0h0a.13.13,0,0,1,.12,0c.05,0,.09,0,.13,0s.07,0,.11,0h.06l.09,0h0l.11,0s0,0,0,0,0-.06,0-.06a.42.42,0,0,0,.16-.11,1.45,1.45,0,0,0,.17-.18s0,0,0-.06,0,0,0-.08,0,0,0,0l.09-.1v0Zm-.22.11h0s0-.08,0-.12S44.65,4.69,44.62,4.72Z"/><path class="cls-3" d="M15.28,34.27a.22.22,0,0,0-.12-.07h-.08a.49.49,0,0,0,0-.12h0l0,.08,0,0c.1,0,.12-.06.11-.08a.14.14,0,0,1,0-.07.15.15,0,0,0,0-.14s0,0,0,0a.33.33,0,0,0,0-.14s0,0,0-.06a2.39,2.39,0,0,0-.13-.21c0-.05-.09-.11-.15-.16l-.1,0-.19-.07c-.07,0-.14,0-.2,0s0,0,0,0h-.06a1.23,1.23,0,0,0-.27,0c-.07,0-.12.06-.18.08a.54.54,0,0,0-.16.1l0,0-.06.09c-.05,0-.07.11-.12.15a.26.26,0,0,0-.09.14.15.15,0,0,0,0,.07s0,.07,0,.1,0,.09-.05.13a.21.21,0,0,0,0,.08.06.06,0,0,1,0,0s0,0,0,.06a.51.51,0,0,1,0,.17.31.31,0,0,0,0,.13s0,0,0,.06h0l0,0c.05.08.07.2.16.25s.07.07.12.11,0,0,0,0l.19.07.07,0c.07,0,.14,0,.2,0h0a.25.25,0,0,1,.12,0,.17.17,0,0,0,.14,0s.07,0,.1,0h.06l.09,0h0l.1-.05h.06s0-.06,0-.06a.36.36,0,0,0,.16-.11,1,1,0,0,0,.17-.18s0,0,0-.05.06,0,0-.09,0,0,0,0l.09-.1h0Zm-.22.11h0s0-.09,0-.13S15.09,34.34,15.06,34.38Z"/><path class="cls-3" d="M11.3,11.34s-.05-.05-.11-.07h-.08s0-.08,0-.12h0l0,.08,0,0c.09,0,.11-.06.1-.08a.08.08,0,0,1,0-.07A.13.13,0,0,0,11.2,11v0a.68.68,0,0,0,0-.14s0,0-.06-.06a1.2,1.2,0,0,0-.13-.21,1.1,1.1,0,0,0-.15-.16l-.1,0-.19-.07c-.06,0-.14,0-.2-.05h-.08a1.23,1.23,0,0,0-.27,0c-.06,0-.11.06-.18.08a.54.54,0,0,0-.16.1l0,0s0,.07-.06.09-.07.11-.12.15-.06.09-.08.14,0,0,0,.07a.3.3,0,0,1,0,.1s0,.09-.05.13v.12a.07.07,0,0,0,0,.06.5.5,0,0,1,0,.17.22.22,0,0,0,0,.13.06.06,0,0,1,0,.06s0,0,0,0l0,0c0,.08.06.2.16.25s.07.07.11.11,0,0,.05,0l.18.07.08,0c.06,0,.13,0,.19.05h0a.21.21,0,0,1,.13,0,.15.15,0,0,0,.13,0s.07,0,.1,0h.06l.1,0h0l.11,0h0s0-.06,0-.06A.42.42,0,0,0,11,12a1,1,0,0,0,.17-.18s0,0,0,0,.06-.05,0-.09,0,0,0,0l.1-.1h0A.87.87,0,0,0,11.3,11.34Zm-.21.11h0s0-.09,0-.13S11.11,11.41,11.09,11.45Z"/><path class="cls-3" d="M71.8,11.34s-.06-.05-.11-.07h-.08a.5.5,0,0,0,0-.12h0l0,.08,0,0c.09,0,.11-.06.1-.08a.14.14,0,0,1,0-.07.15.15,0,0,0,0-.14s0,0,0,0a.33.33,0,0,0,0-.14s0,0,0-.06a2.39,2.39,0,0,0-.13-.21,1.1,1.1,0,0,0-.15-.16l-.1,0-.19-.07c-.07,0-.14,0-.2-.05h-.08a1.23,1.23,0,0,0-.27,0c-.07,0-.12.06-.18.08a.54.54,0,0,0-.16.1l0,0s0,.07-.06.09-.07.11-.12.15-.06.09-.09.14a.15.15,0,0,0,0,.07.3.3,0,0,1,0,.1s0,.09,0,.13v.12a.14.14,0,0,0,0,.06.34.34,0,0,1,0,.17.31.31,0,0,0,0,.13s0,0,0,.06,0,0,0,0l0,0c.05.08.07.2.16.25s.08.07.12.11l0,0,.19.07.08,0c.06,0,.13,0,.19.05h0a.2.2,0,0,1,.13,0,.15.15,0,0,0,.13,0s.07,0,.1,0h.06l.09,0h0l.11,0h.05s0-.06,0-.06a.31.31,0,0,0,.16-.11.73.73,0,0,0,.17-.18s0,0,0,0,.06-.05,0-.09,0,0,0,0l.09-.1s0,0,0,0A.85.85,0,0,0,71.8,11.34Zm-.22.11h0a.59.59,0,0,0,0-.13C71.65,11.37,71.61,11.41,71.58,11.45Z"/><path class="cls-3" d="M71.8,46.37s-.06,0-.11-.07h-.08a.36.36,0,0,0,0-.11h0l0,.09,0,0c.09,0,.11-.06.1-.08a.14.14,0,0,1,0-.06.17.17,0,0,0,0-.15s0,0,0,0a.38.38,0,0,0,0-.15s0,0,0-.06a1.37,1.37,0,0,0-.13-.2.8.8,0,0,0-.15-.17l-.1,0-.19-.07c-.07,0-.14,0-.2-.05h-.08l-.27,0c-.07,0-.12.07-.18.08a.86.86,0,0,0-.16.1l0,0s0,.07-.06.09-.07.11-.12.15-.06.09-.09.14a.15.15,0,0,0,0,.07.43.43,0,0,1,0,.11s0,.08,0,.13v.11a.19.19,0,0,0,0,.07.29.29,0,0,1,0,.16.28.28,0,0,0,0,.13s0,0,0,.06,0,0,0,0,0,0,0,0,.07.19.16.24.08.08.12.11l0,0a1.39,1.39,0,0,0,.19.06l.08,0c.06,0,.13,0,.19.05h0a.2.2,0,0,1,.13,0,.2.2,0,0,0,.13,0h.16l.09,0h0l.11-.05h.05s0,0,0-.06a.37.37,0,0,0,.16-.1,1,1,0,0,0,.17-.19s0,0,0-.05.06,0,0-.09,0,0,0,0l.09-.1s0,0,0,0A.85.85,0,0,0,71.8,46.37Zm-.22.11h0a.59.59,0,0,0,0-.13C71.65,46.4,71.61,46.44,71.58,46.48Z"/><path class="cls-3" d="M47.81,63.4a.23.23,0,0,0-.11-.06h-.08a.5.5,0,0,0,0-.12h0l0,.09s0,0,0,0,.12-.06.11-.09a.14.14,0,0,1,0-.06.15.15,0,0,0,0-.14s0,0,0,0a.33.33,0,0,0,0-.14s0,0,0-.07l-.13-.2a1.14,1.14,0,0,0-.15-.16s-.07,0-.1,0l-.19-.07c-.07,0-.14,0-.2-.06h0l-.06,0a1.23,1.23,0,0,0-.27,0c-.07,0-.12.06-.18.08a.39.39,0,0,0-.16.1s0,0,0,0,0,.07-.06.09-.07.1-.12.14-.06.1-.09.14,0,0,0,.08,0,.07,0,.1,0,.09-.05.13a.22.22,0,0,0,0,.08v0s0,0,0,.06a.51.51,0,0,1,0,.17.31.31,0,0,0,0,.13,0,0,0,0,1,0,.06s0,0,0,0,0,0,0,0,.07.19.16.24a.68.68,0,0,1,.12.12l0,0,.19.07.08,0c.06,0,.13,0,.19,0h0a.14.14,0,0,1,.12,0,.17.17,0,0,0,.14,0s.07,0,.1,0,0,0,.06,0l.09,0h0l.11,0s0,0,.05,0,0-.06,0-.06a.31.31,0,0,0,.16-.11,1,1,0,0,0,.17-.18s0,0,0-.06.06,0,0-.08,0,0,0,0l.09-.1v0A1.15,1.15,0,0,0,47.81,63.4Zm-.22.11h0a.69.69,0,0,0,0-.13S47.62,63.48,47.59,63.51Z"/></g></g></svg>