<svg xmlns="http://www.w3.org/2000/svg" viewBox="0 0 77.89 122.09"><defs><style>.cls-1{fill:#f9ba2b;}.cls-2{fill:#292d37;}.cls-3{fill:#fff;}.cls-4{fill:#fa483c;}</style></defs><g id="Слой_2" data-name="Слой 2"><g id="OBJECTS"><rect class="cls-1" x="-22.1" y="22.1" width="122.09" height="77.89" transform="translate(99.99 22.1) rotate(90)"/><path class="cls-2" d="M70.13,13.48v0c-.2.24-.32.2-.44-.09.12-2-1-4.61-3.37-4.61-4.9,0-9.64,10.28-10.61,15.94,1.65-2.93,4.5-6.18,8-6.18a4.79,4.79,0,0,1,5,5.26c-.2,4.86-4.06,10.48-9.72,10.48-6.15,0-7.84-3.73-6.75-10.6S58.89,8.18,66.32,8.18C68.93,8.18,70.45,11,70.13,13.48ZM55.51,26.06c-.32,3.13-.12,7.79,3.46,7.79,5,0,9-4.86,9.19-10a4.23,4.23,0,0,0-4.53-4.78C60,19.07,56.68,23.85,55.51,26.06Z"/><path class="cls-3" d="M44.61,107.68a5.88,5.88,0,1,1-10.56,5.19l-.21-.43q4.78-4,9-8.25Z"/><path class="cls-3" d="M36.08,90.19c1.32,2.78,2.67,5.58,4.08,8.46-2.8,2.88-5.8,5.7-8.95,8.46-1.4-2.83-2.74-5.58-4.06-8.29C30.31,96,33.29,93.12,36.08,90.19Z"/><path class="cls-3" d="M29.78,75.89c1.18,2.92,2.4,5.75,3.65,8.55Q29.29,89,24.56,93.35c-1.3-2.81-2.58-5.62-3.81-8.5C24,81.93,27,78.93,29.78,75.89Z"/><path class="cls-3" d="M52.71,40.1A92.92,92.92,0,0,1,55.85,49a83.56,83.56,0,0,1-4,9.26,5.88,5.88,0,0,1-6.36-3.13A89,89,0,0,0,52.71,40.1Z"/><path class="cls-3" d="M24.31,60.56c.91,3.11,2,6.2,3.1,9.2q-4.2,4.76-9,9.35c-.32-.77-.62-1.54-.92-2.32-.84-2.17-1.66-4.37-2.43-6.61Q20,65.46,24.31,60.56Z"/><path class="cls-3" d="M49.09,33.26h0A82.29,82.29,0,0,1,43,47.62a40.14,40.14,0,0,0-3.11-6.87c-.22-.39-.47-.77-.71-1.14a85.82,85.82,0,0,0,5.41-11.8A31.35,31.35,0,0,1,49.09,33.26Z"/><path class="cls-3" d="M21.49,40.87c0,.26,0,.52,0,.78a54.6,54.6,0,0,0,1.12,11.86A141.16,141.16,0,0,1,13.06,64a85.45,85.45,0,0,1-2.47-10.6A135.71,135.71,0,0,0,21.49,40.87Z"/><path class="cls-3" d="M35.31,21.93a22.08,22.08,0,0,1,4.6,2.21A81.77,81.77,0,0,1,35,35a12.62,12.62,0,0,0-3.56-2,7.52,7.52,0,0,0-4.25-.31,98.74,98.74,0,0,0,6.31-11.34C34.12,21.54,34.71,21.72,35.31,21.93Z"/><path class="cls-3" d="M27.32,20.82A117,117,0,0,1,9.75,45.74c-.08-1.44-.1-2.89-.07-4.35A21.63,21.63,0,0,1,18.53,24,17.59,17.59,0,0,1,27.32,20.82Z"/><path class="cls-4" d="M42.58,103.56l.31.63q-4.28,4.22-9,8.25L32,108.76c-.27-.55-.55-1.1-.81-1.65,3.15-2.76,6.15-5.58,8.95-8.46C41,100.26,41.75,101.89,42.58,103.56Z"/><path class="cls-4" d="M33.43,84.44c.87,1.93,1.74,3.83,2.65,5.75-2.79,2.93-5.77,5.82-8.93,8.63-.88-1.84-1.74-3.65-2.59-5.47Q29.29,89,33.43,84.44Z"/><path class="cls-4" d="M28.47,72.57c.42,1.12.86,2.23,1.31,3.32-2.81,3-5.83,6-9,9C20,83,19.16,81.06,18.4,79.11q4.82-4.59,9-9.35C27.75,70.7,28.11,71.64,28.47,72.57Z"/><path class="cls-4" d="M56.38,50.72a5.89,5.89,0,0,1-3.89,7.35l-.62.15a83.56,83.56,0,0,0,4-9.26C56,49.55,56.2,50.14,56.38,50.72Z"/><path class="cls-4" d="M52.71,40.09h0a89,89,0,0,1-7.2,15,5.3,5.3,0,0,1-.37-.93C44.47,52,43.79,49.77,43,47.62a82.29,82.29,0,0,0,6.08-14.35c.34.49.66,1,1,1.51A47.85,47.85,0,0,1,52.71,40.09Z"/><path class="cls-4" d="M39.91,24.14a26.84,26.84,0,0,1,4.69,3.67,85.82,85.82,0,0,1-5.41,11.8A19.39,19.39,0,0,0,35,35,81.77,81.77,0,0,0,39.91,24.14Z"/><path class="cls-4" d="M27.32,20.82a19.41,19.41,0,0,1,6.2.57,98.74,98.74,0,0,1-6.31,11.34h0a5.89,5.89,0,0,0-2,.9,9.81,9.81,0,0,0-3.76,7.23,135.71,135.71,0,0,1-10.9,12.52,66.77,66.77,0,0,1-.84-7.65A117,117,0,0,0,27.32,20.82Z"/><path class="cls-4" d="M22.57,53.51c.47,2.37,1.06,4.72,1.74,7.05Q20,65.45,15.05,70.18c-.72-2-1.39-4.1-2-6.19A141.16,141.16,0,0,0,22.57,53.51Z"/><path class="cls-2" d="M12.46,96.13A7.55,7.55,0,0,1,7.83,92.7c-.44-.78-.64-1.89,0-2.46A1.55,1.55,0,0,1,9.29,90a4.76,4.76,0,0,1,1.31.71l3.49,2.42c1,.66,2.66,1.41,3.36,2.33.95,1.22-.52,1-1.69,1A10.79,10.79,0,0,1,12.46,96.13Z"/><path class="cls-2" d="M17.87,104.12A7.57,7.57,0,0,1,14,108.39c-.82.35-1.95.44-2.45-.3a1.59,1.59,0,0,1-.08-1.44,4.67,4.67,0,0,1,.85-1.23l2.75-3.22c.76-.89,1.68-2.5,2.66-3.11,1.32-.82.93.62.84,1.79A10.55,10.55,0,0,1,17.87,104.12Z"/><path class="cls-2" d="M15.43,99.79a4.84,4.84,0,0,1-3.66.48c-.55-.16-1.14-.58-1.08-1.15a1,1,0,0,1,.56-.74,2.92,2.92,0,0,1,.92-.25l2.69-.44a10.15,10.15,0,0,1,2.59-.42c1,.14.2.69-.33,1.22A7.12,7.12,0,0,1,15.43,99.79Z"/><path class="cls-2" d="M41.21,16a6,6,0,0,1,4.43-1.25c.71.1,1.51.52,1.54,1.23a1.28,1.28,0,0,1-.56,1,3.79,3.79,0,0,1-1.09.47l-3.23,1a12.85,12.85,0,0,1-3.12,1c-1.23,0-.36-.82.19-1.57A8.73,8.73,0,0,1,41.21,16Z"/><path class="cls-2" d="M33.52,15.48a6.07,6.07,0,0,1-.8-4.54c.18-.69.67-1.44,1.39-1.4a1.25,1.25,0,0,1,.94.66,3.66,3.66,0,0,1,.37,1.13c.22,1.11.45,2.21.68,3.32a13,13,0,0,1,.67,3.2c-.13,1.23-.85.28-1.55-.35A8.65,8.65,0,0,1,33.52,15.48Z"/><path class="cls-2" d="M37.45,16.05a3.9,3.9,0,0,1,1.48-2.55c.38-.26.93-.43,1.26-.11a.82.82,0,0,1,.19.71,2.42,2.42,0,0,1-.29.71l-1,1.91a8,8,0,0,1-1,1.84c-.57.55-.53-.21-.61-.81A5.7,5.7,0,0,1,37.45,16.05Z"/><path class="cls-2" d="M7.35,31.37s-.06-.05-.12-.07l-.07,0h0a.49.49,0,0,0,0-.12h0l0,.1,0,0c.1,0,.12-.06.11-.08a.25.25,0,0,1,0-.07.16.16,0,0,0,0-.16s0,0,0,0a.86.86,0,0,0,0-.16s0,0-.06-.06a1.09,1.09,0,0,0-.14-.23,1.29,1.29,0,0,0-.16-.17l-.11-.06-.21-.08c-.07,0-.15,0-.22-.06h0l-.07,0a2.83,2.83,0,0,0-.29,0c-.07,0-.13.07-.2.09a.5.5,0,0,0-.17.11l-.05,0s0,.08-.06.1-.08.12-.14.16-.06.1-.09.15,0,.05,0,.08a.53.53,0,0,1,0,.12c0,.05,0,.09,0,.14a.21.21,0,0,0,0,.08v.05s0,0,0,.07a.52.52,0,0,1,0,.18.25.25,0,0,0,0,.14.08.08,0,0,1,0,.07h0l0,0c0,.09.07.21.18.27a.68.68,0,0,1,.12.12l.05,0,.2.07.09,0c.06,0,.14,0,.21.06h0a.23.23,0,0,1,.14,0,.17.17,0,0,0,.14,0s.08,0,.11,0h.07l.1,0h0l.12-.05s0,0,0,0,0-.06,0-.07a.49.49,0,0,0,.18-.11,1.24,1.24,0,0,0,.18-.21s0,0,0-.05.06-.05,0-.1,0,0,0,0a.52.52,0,0,0,.1-.11,0,0,0,0,0,0,0A1.08,1.08,0,0,0,7.35,31.37Zm-.23.12h0s0-.09,0-.14S7.15,31.45,7.12,31.49Z"/><path class="cls-2" d="M30.68,56.88a.22.22,0,0,0-.12-.07h-.09s0-.09,0-.13h0l0,.1,0,0c.11,0,.13-.07.11-.09s0-.05,0-.07a.17.17,0,0,0-.05-.16v0a.88.88,0,0,0,0-.16s-.05,0-.06-.06a1.76,1.76,0,0,0-.14-.23,1.37,1.37,0,0,0-.17-.17.39.39,0,0,0-.11-.06l-.21-.08c-.07,0-.15,0-.21-.06h0l-.07,0c-.1,0-.2,0-.3,0s-.12.07-.19.09a.54.54,0,0,0-.18.11l0,0s0,.08-.07.1-.08.12-.13.16a.34.34,0,0,0-.09.15s0,0,0,.08,0,.08,0,.12-.05.09-.06.14v.13a.08.08,0,0,0,0,.07.52.52,0,0,1,0,.18.37.37,0,0,0,0,.14s0,0,0,.07h0l0,0c.06.09.08.21.18.27a1.42,1.42,0,0,1,.13.12l0,0,.21.07.08,0c.07,0,.15,0,.21.06h0a.21.21,0,0,1,.13,0,.2.2,0,0,0,.15,0s.07,0,.11,0h.06l.11,0h0l.12,0s0,0,.06,0,0-.06,0-.07a.42.42,0,0,0,.18-.11,1.29,1.29,0,0,0,.19-.21s0,0,0,0,.07-.05,0-.1l0,0,.1-.11h0A1.07,1.07,0,0,0,30.68,56.88Zm-.24.12h0a.59.59,0,0,0,0-.14C30.51,56.91,30.47,57,30.44,57Z"/><path class="cls-2" d="M24.27,109.74s-.06,0-.12-.08h-.09a.49.49,0,0,0,0-.12h0l0,.1.05,0c.1,0,.12-.06.11-.09a.14.14,0,0,1,0-.06.16.16,0,0,0,0-.16,0,0,0,0,1,0,0,.86.86,0,0,0,0-.16s0,0-.06-.07a1.35,1.35,0,0,0-.14-.22l-.16-.18-.11-.05-.21-.08c-.07,0-.15,0-.22-.06h0l-.07,0a1.42,1.42,0,0,0-.29,0c-.07,0-.13.07-.2.09a.5.5,0,0,0-.17.11l-.05,0s0,.08-.06.1-.08.11-.14.16-.06.1-.09.15,0,0,0,.08a.53.53,0,0,1,0,.12s0,.09-.05.14a.22.22,0,0,0,0,.08s0,0,0,0,0,.05,0,.08a.47.47,0,0,1,0,.17.28.28,0,0,0,0,.15.06.06,0,0,1,0,.06s0,0,0,0l0,0c.05.09.07.21.18.27s.08.08.12.12l.05,0,.2.07.09,0c.06,0,.14,0,.21.06h0a.18.18,0,0,1,.14,0,.17.17,0,0,0,.14,0s.08,0,.11,0h.07l.1,0h0l.12-.05s0,0,.05,0,0-.06,0-.07a.5.5,0,0,0,.17-.11,1,1,0,0,0,.19-.21s0,0,0,0,.06,0,0-.1,0,0,0,0a.52.52,0,0,0,.1-.11s0,0,0,0A.62.62,0,0,0,24.27,109.74Zm-.23.12h0s0-.09,0-.14S24.07,109.82,24,109.86Z"/><path class="cls-4" d="M44.23,83.16a.25.25,0,0,0-.12-.07H44S44,83,44,83h0l0,.09s0,0,0,0,.13-.06.12-.09a.19.19,0,0,1,0-.07.17.17,0,0,0-.05-.16v0a.47.47,0,0,0,0-.16s0,0-.06-.07a1.64,1.64,0,0,0-.14-.22.73.73,0,0,0-.17-.18.39.39,0,0,0-.11-.06L43.45,82c-.07,0-.15,0-.21,0s0,0,0,0h-.07l-.29,0c-.08,0-.13.07-.2.09a.67.67,0,0,0-.18.11l0,0s0,.08-.07.1-.08.12-.13.16a.32.32,0,0,0-.09.16s0,0,0,.08a.43.43,0,0,1,0,.11s0,.09-.05.14A.28.28,0,0,0,42,83v0a.09.09,0,0,0,0,.07.37.37,0,0,1,0,.18.57.57,0,0,0,0,.14s0,0,0,.07,0,0,0,0l0,0c0,.08.07.21.17.26s.08.09.13.12a.1.1,0,0,0,.05,0l.2.08a.12.12,0,0,1,.08,0c.07,0,.15,0,.21,0s0,0,0,0a.32.32,0,0,1,.13,0,.2.2,0,0,0,.15,0s.07,0,.11,0,0,0,.06,0l.11,0h0l.12,0h.06s0-.06,0-.06a.52.52,0,0,0,.17-.12,1.8,1.8,0,0,0,.19-.2s0,0,0-.06.07,0,0-.09,0,0,0,0l.1-.11h0A1.07,1.07,0,0,0,44.23,83.16Zm-.23.12h0a.59.59,0,0,0,0-.13C44.06,83.2,44,83.24,44,83.28Z"/><path class="cls-4" d="M8.21,69.89s-.06,0-.12-.08H8s0-.08,0-.12H8l0,.1.05,0c.1,0,.12-.06.11-.09a.14.14,0,0,1,0-.06.18.18,0,0,0,0-.16,0,0,0,0,1,0,0,.44.44,0,0,0,0-.16s0,0-.06-.07L7.92,69a1.41,1.41,0,0,0-.17-.18l-.11,0-.2-.08c-.08,0-.15,0-.22-.06h0l-.07,0a2.83,2.83,0,0,0-.29,0c-.08,0-.13.07-.2.09a.67.67,0,0,0-.18.11l0,0a.88.88,0,0,1-.06.1c-.06,0-.08.11-.14.16a.34.34,0,0,0-.09.15s0,.05,0,.08a.5.5,0,0,1,0,.12s0,.09-.05.14a.22.22,0,0,0,0,.08s0,0,0,0,0,0,0,.08A.47.47,0,0,1,6,70a.4.4,0,0,0,0,.15s0,0,0,.06,0,0,0,0l0,0c0,.09.07.21.17.27s.08.08.13.12l0,0,.2.07.09,0c.06,0,.14,0,.21.06H7a.18.18,0,0,1,.14,0,.17.17,0,0,0,.14,0s.08,0,.11,0h.07l.1,0h0l.12,0s0,0,0,0,0-.06,0-.07a.5.5,0,0,0,.17-.11,1.29,1.29,0,0,0,.19-.21s0,0,0-.05.06,0,0-.1,0,0,0,0a.52.52,0,0,0,.1-.11s0,0,0,0A1.07,1.07,0,0,0,8.21,69.89ZM8,70H8a.61.61,0,0,0,0-.14C8.05,69.92,8,70,8,70Z"/><path class="cls-4" d="M18.83,17.88a.31.31,0,0,0-.12-.07h-.09s0-.08,0-.13h0l0,.09s0,0,0,0,.13-.06.11-.09a.09.09,0,0,1,0-.07.17.17,0,0,0-.05-.16v0a1,1,0,0,0,0-.16s0-.05-.06-.07a1.64,1.64,0,0,0-.14-.22,1,1,0,0,0-.17-.18.39.39,0,0,0-.11-.06l-.21-.08c-.07,0-.15,0-.21-.05a0,0,0,0,0,0,0h-.07l-.3,0c-.07,0-.12.07-.19.09a.67.67,0,0,0-.18.11l0,0S17,17,17,17s-.08.12-.13.16a.32.32,0,0,0-.09.16.1.1,0,0,0,0,.08s0,.07,0,.11-.05.09-.05.14a.28.28,0,0,0,0,.09v0a.09.09,0,0,0,0,.07.55.55,0,0,1,0,.18.33.33,0,0,0,0,.14s0,0,0,.07,0,0,0,0a.05.05,0,0,1,0,0c.06.08.08.21.18.26s.08.09.13.12l0,0,.21.08a.12.12,0,0,1,.08,0c.07,0,.15,0,.21.05s0,0,0,0a.32.32,0,0,1,.13,0,.2.2,0,0,0,.15,0s.07,0,.11,0,0,0,.06,0l.11,0h0l.12-.05h.06s0-.06,0-.06a.57.57,0,0,0,.18-.12,1.8,1.8,0,0,0,.19-.2s0,0,0-.06.07,0,0-.09a0,0,0,0,1,0,0l.1-.12h0A1.07,1.07,0,0,0,18.83,17.88Zm-.24.12h0a.59.59,0,0,0,0-.13C18.66,17.92,18.62,18,18.59,18Z"/></g></g></svg>