<svg xmlns="http://www.w3.org/2000/svg" viewBox="0 0 77.53 77.53"><defs><style>.cls-1{isolation:isolate;}.cls-2{fill:#f9ba2b;}.cls-3{fill:#292d37;}.cls-4{fill:#fff;}.cls-5{fill:#fa483c;}.cls-6{fill:#137a83;}.cls-7{opacity:0.57;mix-blend-mode:multiply;}.cls-8{fill:#c75952;}</style></defs><g class="cls-1"><g id="Слой_2" data-name="Слой 2"><g id="OBJECTS"><rect class="cls-2" width="77.53" height="77.53" transform="translate(77.53 0) rotate(90)"/><path class="cls-3" d="M17.94,18.28l-.17.09c1.77,1.56,3.85,3.38,3.85,6.19,0,5.34-5.67,7.81-10.53,7.37-3.38-.34-6.46-2.47-6.46-6.28,0-2.47,1.61-4.55,3.64-6.29a18.4,18.4,0,0,1,3.3-2.21c-1.69-1.65-3.43-3.6-3.43-6.5,0-4.9,5.34-6.72,8.5-6.72s6.85,1.56,6.85,5.38a9.37,9.37,0,0,1-2.3,5.5A30.75,30.75,0,0,1,17.94,18.28ZM5.15,25.65c0,3.25,2.17,5.33,6,5.76s6.15-2.12,6.15-6.15c0-3.51-3.07-5.51-5.37-7.72a14.38,14.38,0,0,0-3.38,2.21C7,21.05,5.15,23.18,5.15,25.65ZM23,9.31c0-3-2.51-4.86-6.33-4.86-2.73,0-4.59,1.65-4.59,5.38,0,3.42,1.3,5.2,5.29,8.23l.21-.21a25,25,0,0,0,3.17-3.34A8.63,8.63,0,0,0,23,9.31Z"/><path class="cls-4" d="M54,8a.84.84,0,0,1,.82-.76.87.87,0,0,1,.91.65.89.89,0,0,0,1.62.24.85.85,0,0,1,.68-.42.89.89,0,0,1,.95,1A.74.74,0,0,0,59,9a.88.88,0,0,0,1.38.67.86.86,0,0,1,.45-.15.89.89,0,0,1,.8,1.37.93.93,0,0,0-.15.54.89.89,0,0,0,1,.82l.11,0a.9.9,0,0,1,.54,1.64.85.85,0,0,0-.41.79.89.89,0,0,0,.68.81.85.85,0,0,1,.67.8.87.87,0,0,1-.75.94.88.88,0,0,0-.74.94.86.86,0,0,0,.33.64.87.87,0,0,1,.35.64.89.89,0,0,1-1.12.91.89.89,0,0,0-1,1.28.74.74,0,0,1,.1.37.88.88,0,0,1-1.44.74.85.85,0,0,0-.61-.2.87.87,0,0,0-.83,1,.89.89,0,0,1-.84.95.86.86,0,0,1-.84-.5.88.88,0,0,0-.85-.47,1,1,0,0,0-.53.21,1.28,1.28,0,0,0-.2.26,1.28,1.28,0,0,1-.2.26c-.1.13-.22.24-.33.36a.74.74,0,0,1-.29.08.87.87,0,0,1-1-.85.9.9,0,0,0-1.53-.57.82.82,0,0,1-.57.28.88.88,0,0,1-.89-1.21.8.8,0,0,0,.06-.33v0a.9.9,0,0,0-1.22-.77.79.79,0,0,1-.29.06.88.88,0,0,1-.67-1.5.89.89,0,0,0,.25-.69.87.87,0,0,0-.85-.83.88.88,0,0,1-.86-.84.85.85,0,0,1,.57-.87.88.88,0,0,0,.56-.89.83.83,0,0,0-.49-.74.89.89,0,0,1,.43-1.69H48a.89.89,0,0,0,.61-1.46.9.9,0,0,1-.21-.52.89.89,0,0,1,1.3-.84.82.82,0,0,0,.45.1.91.91,0,0,0,.8-1.15,1.52,1.52,0,0,1,0-.21.88.88,0,0,1,1.57-.59.85.85,0,0,0,.74.33A.88.88,0,0,0,54,8Z"/><path class="cls-5" d="M56.58,56.26l.55,8.95a2.74,2.74,0,0,1-.33,1.5C46.14,63,37.06,54.17,31.64,42.36l5.62-6.11C41.88,45.17,48.65,52.21,56.58,56.26Z"/><path class="cls-5" d="M55.63,41.05l.77,12.44A46.8,46.8,0,0,1,39,34.32l6.23-6.78A49.17,49.17,0,0,0,55.63,41.05Z"/><path class="cls-5" d="M54.6,24.54l.8,12.79A49.55,49.55,0,0,1,47,25.62l3.4-3.69a.8.8,0,0,1-.06.33.88.88,0,0,0,.89,1.21.84.84,0,0,0,.57-.27.89.89,0,0,1,1.53.56h0a.87.87,0,0,0,1,.84A.73.73,0,0,0,54.6,24.54Z"/><path class="cls-4" d="M47,25.62A49.55,49.55,0,0,0,55.4,37.33l.23,3.72A49.17,49.17,0,0,1,45.27,27.54Z"/><path class="cls-5" d="M29.86,44.29C35.21,55.76,44,64.4,54.36,68.16c-19.52.81-29.15-7.43-32.6-11.37a2.8,2.8,0,0,1,0-3.72Z"/><path class="cls-4" d="M56.4,53.49l.18,2.77c-7.93-4-14.7-11.09-19.32-20h0L39,34.32A46.8,46.8,0,0,0,56.4,53.49Z"/><path class="cls-4" d="M56.8,66.71a2.75,2.75,0,0,1-2.3,1.44h-.14C44,64.4,35.21,55.76,29.86,44.29l1.78-1.93C37.06,54.17,46.14,63,56.8,66.71Z"/><path class="cls-6" d="M27.43,29.48a6.68,6.68,0,0,1-2.24-4.54c0-.79.27-1.74,1-1.91a1.37,1.37,0,0,1,1.19.4,4.28,4.28,0,0,1,.74,1.09l1.74,3.29A14.09,14.09,0,0,1,31.58,31c.25,1.34-.8.56-1.73.11A9.67,9.67,0,0,1,27.43,29.48Z"/><path class="cls-3" d="M34.07,26.81a5.08,5.08,0,0,1,1.45-3.62c.43-.42,1.12-.74,1.61-.39a1,1,0,0,1,.39.89,3.35,3.35,0,0,1-.24,1l-1,2.69a10.76,10.76,0,0,1-.95,2.6c-.64.83-.73-.18-1-.94A6.92,6.92,0,0,1,34.07,26.81Z"/><path class="cls-3" d="M27.11,36.14a5.17,5.17,0,0,1-3.9.08c-.55-.24-1.12-.75-1-1.34a1,1,0,0,1,.67-.7,2.78,2.78,0,0,1,1-.16l2.87-.15a10.73,10.73,0,0,1,2.76-.14c1,.26.12.74-.49,1.24A7.38,7.38,0,0,1,27.11,36.14Z"/><path class="cls-6" d="M67.76,62.93a6.67,6.67,0,0,1,4.3,2.68c.44.65.69,1.61.13,2.16a1.35,1.35,0,0,1-1.23.29,4.15,4.15,0,0,1-1.2-.53l-3.22-1.88a13.74,13.74,0,0,1-3.1-1.8c-.92-1,.39-.91,1.41-1A9.47,9.47,0,0,1,67.76,62.93Z"/><path class="cls-3" d="M63.54,68.71a5.09,5.09,0,0,1,.68,3.83c-.15.59-.57,1.23-1.17,1.19a1,1,0,0,1-.8-.55,3.27,3.27,0,0,1-.31-1c-.2-.94-.39-1.87-.58-2.81a10.42,10.42,0,0,1-.57-2.7c.1-1,.72-.24,1.3.29A7.23,7.23,0,0,1,63.54,68.71Z"/><path class="cls-3" d="M64.52,57.11A5.13,5.13,0,0,1,67.78,55c.6-.09,1.35,0,1.55.61a1.09,1.09,0,0,1-.2,1,3.23,3.23,0,0,1-.76.66L66,58.84a10.77,10.77,0,0,1-2.27,1.58c-1,.31-.5-.56-.24-1.31A7.24,7.24,0,0,1,64.52,57.11Z"/><g class="cls-7"><path class="cls-8" d="M36.23,41.09a.24.24,0,0,1,.21.1s0,.07,0,.11a.36.36,0,0,1,0,.15c0,.06,0,.09,0,.1h0c-.09.11-.16.11-.23,0s0,0-.06,0a.69.69,0,0,0-.32,0,.62.62,0,0,1-.19,0l-.36,0c-.19,0-.38,0-.35-.18V41a1.16,1.16,0,0,0,0-.37,1.08,1.08,0,0,1,0-.18c0-.1,0-.21,0-.31S35,40,35,40l0,0h.06l0,0a.61.61,0,0,1,0,.13l0,.28a.26.26,0,0,1,0,.15,1.46,1.46,0,0,0,0,.42,1,1,0,0,0,0,.17s0,.08.1,0h0s0,0,0,0l.19,0,.12,0a1.47,1.47,0,0,0,.36,0C36.11,41.05,36.18,41.09,36.23,41.09Z"/></g><g class="cls-7"><path class="cls-8" d="M39.25,40.25a.24.24,0,0,1,.21.1.29.29,0,0,1,.06.1.53.53,0,0,1,0,.14.2.2,0,0,1,0,.11h0c-.08.12-.16.13-.23,0a.06.06,0,0,0-.06,0,.74.74,0,0,0-.33,0,.58.58,0,0,1-.19,0l-.36.05c-.18,0-.37,0-.36-.16v-.37a.88.88,0,0,0,0-.36,1.08,1.08,0,0,1,0-.18l0-.32s0-.07,0-.1,0,0,0,0H38a.74.74,0,0,1,0,.14l0,.27a.8.8,0,0,1,0,.15,1.84,1.84,0,0,0,.06.41c0,.06,0,.14,0,.17s0,.08.1,0l0,0h0l.19,0,.12,0a1.45,1.45,0,0,0,.35-.07C39.13,40.23,39.2,40.26,39.25,40.25Z"/></g><g class="cls-7"><path class="cls-8" d="M37.32,43.53a.23.23,0,0,1,.2.13.62.62,0,0,1,0,.1.4.4,0,0,1,0,.15c0,.07,0,.09-.06.1h0c-.1.1-.17.1-.23,0a.05.05,0,0,0-.05,0,.63.63,0,0,0-.33-.06,1.28,1.28,0,0,1-.19,0l-.36,0c-.19,0-.37,0-.33-.21l0-.31a.09.09,0,0,0,0,0,.93.93,0,0,0,0-.37,1,1,0,0,1,0-.17c0-.11,0-.21.07-.32s0-.07,0-.1l0,0h.06s0,0,0,0a.59.59,0,0,1,0,.13v.28a.86.86,0,0,1,0,.16,1.41,1.41,0,0,0,0,.41,1.16,1.16,0,0,0,0,.17c0,.06,0,.09.1,0h.38a1.45,1.45,0,0,0,.36,0C37.21,43.49,37.27,43.53,37.32,43.53Z"/></g><g class="cls-7"><path class="cls-8" d="M39.93,46.06a.23.23,0,0,1,.18.14.2.2,0,0,1,0,.11.25.25,0,0,1,0,.14c0,.07,0,.09-.07.1h0c-.11.09-.19.08-.23,0s0,0-.06,0a.59.59,0,0,0-.32-.08l-.18,0-.36,0c-.19,0-.38-.05-.32-.24l.06-.31a.09.09,0,0,0,0,0,.91.91,0,0,0,.06-.36.47.47,0,0,1,0-.17l.09-.31a.41.41,0,0,0,0-.11l0,0h.06l0,0a.32.32,0,0,1,0,.14v.28a.38.38,0,0,1,0,.15,1.39,1.39,0,0,0,0,.41c0,.06,0,.14,0,.17s0,.09.09.06h.39a1.43,1.43,0,0,0,.36,0C39.82,46,39.87,46.06,39.93,46.06Z"/></g><g class="cls-7"><path class="cls-8" d="M41.51,49.12a.23.23,0,0,1,.19.13l0,.11a.47.47,0,0,1,0,.15.21.21,0,0,1-.06.1h0c-.1.1-.18.1-.23,0s0,0,0,0a.73.73,0,0,0-.32-.06l-.19,0-.37,0c-.19,0-.37,0-.32-.22l.05-.31a.07.07,0,0,1,0-.05,1.2,1.2,0,0,0,0-.37,1,1,0,0,1,0-.17,2.81,2.81,0,0,1,.08-.31.37.37,0,0,1,0-.11l0,0s0,0,0,0,0,0,0,0l0,0a.68.68,0,0,1,0,.14v.28a.38.38,0,0,1,0,.15,1.89,1.89,0,0,0,0,.41c0,.06,0,.14,0,.18s0,.08.1,0H41a1,1,0,0,0,.35,0C41.39,49.08,41.45,49.12,41.51,49.12Z"/></g><g class="cls-7"><path class="cls-8" d="M40.28,43.09a.23.23,0,0,1,.19.13.51.51,0,0,1,0,.1.44.44,0,0,1,0,.15c0,.07,0,.09-.05.1h0c-.1.1-.18.1-.23,0s0,0-.06,0a.59.59,0,0,0-.32-.05h-.55c-.19,0-.38,0-.33-.21l0-.31a.13.13,0,0,0,0-.06,1.1,1.1,0,0,0,0-.36.55.55,0,0,1,0-.18L39.1,42v-.11l0,0h0l0,0a.59.59,0,0,1,0,.14v.28a.38.38,0,0,1,0,.15,1.87,1.87,0,0,0,0,.41,1.16,1.16,0,0,0,0,.17c0,.06,0,.09.1.06h.39a2.11,2.11,0,0,0,.35,0C40.16,43.05,40.22,43.1,40.28,43.09Z"/></g><g class="cls-7"><path class="cls-8" d="M42.65,46.46a.23.23,0,0,1,.2.12l0,.11a.41.41,0,0,1,0,.15c0,.06,0,.09-.06.1h0c-.1.11-.18.1-.23,0a.09.09,0,0,0-.06,0,.75.75,0,0,0-.33-.06.55.55,0,0,1-.18,0h-.37c-.19,0-.37,0-.33-.21l0-.31a.09.09,0,0,1,0,0,1.54,1.54,0,0,0,0-.37.5.5,0,0,1,0-.17l.06-.32a.34.34,0,0,0,0-.1l0,0h.06l0,0a.78.78,0,0,1,0,.14v.28a.85.85,0,0,1,0,.16,1.87,1.87,0,0,0,0,.41,1.09,1.09,0,0,0,0,.17c0,.06,0,.09.09,0h.39a1.46,1.46,0,0,0,.36,0C42.53,46.42,42.59,46.46,42.65,46.46Z"/></g><g class="cls-7"><path class="cls-8" d="M44.66,49.14a.23.23,0,0,1,.18.15.31.31,0,0,1,0,.11.5.5,0,0,1,0,.14c0,.07,0,.09-.07.1h0c-.11.09-.19.08-.23,0s0,0-.05,0a.71.71,0,0,0-.31-.1,1.08,1.08,0,0,1-.19,0l-.36,0c-.19,0-.37-.07-.3-.25l.08-.31a.11.11,0,0,1,0,0,1.55,1.55,0,0,0,.08-.36.53.53,0,0,1,0-.17c0-.1.07-.2.1-.3a.22.22,0,0,0,0-.11l0,0h0s0,0,0,0l0,0c0,.05,0,.1,0,.14l0,.28a.68.68,0,0,1,0,.15,1.48,1.48,0,0,0,0,.41.67.67,0,0,0,0,.17c0,.06,0,.09.09.07h.07l.19,0h.13a1.29,1.29,0,0,0,.35,0C44.55,49.09,44.6,49.14,44.66,49.14Z"/></g><g class="cls-7"><path class="cls-8" d="M43.44,51.66a.23.23,0,0,1,.18.15.31.31,0,0,1,0,.11.29.29,0,0,1,0,.14.14.14,0,0,1-.07.09h0c-.12.09-.19.08-.23,0s0,0-.06,0a.63.63,0,0,0-.31-.1l-.18,0-.36-.05c-.19,0-.37-.07-.31-.25s.06-.21.08-.31a.09.09,0,0,0,0-.05.94.94,0,0,0,.08-.36.53.53,0,0,1,0-.17l.11-.3s0-.07,0-.11l0,0h.06l0,0a.71.71,0,0,1,0,.14l0,.28a.26.26,0,0,1,0,.15,3.05,3.05,0,0,0,0,.41c0,.06,0,.14,0,.17s0,.09.09.06h0s0,0,.05,0h.31a1.08,1.08,0,0,0,.36,0A.78.78,0,0,1,43.44,51.66Z"/></g><g class="cls-7"><path class="cls-8" d="M46.61,52.07a.22.22,0,0,1,.17.15.36.36,0,0,1,0,.11.3.3,0,0,1,0,.14c0,.07,0,.09-.06.1h0c-.12.09-.19.07-.23,0a.08.08,0,0,0-.05-.05.71.71,0,0,0-.31-.1,1.06,1.06,0,0,1-.19,0l-.36-.06c-.18,0-.36-.07-.29-.26l.08-.3s0,0,0,0a1.17,1.17,0,0,0,.08-.36.55.55,0,0,1,.05-.17l.11-.3s0-.07,0-.11l0,0h.06s0,0,0,0a.66.66,0,0,1,0,.14l0,.28a.77.77,0,0,1,0,.15,1.85,1.85,0,0,0-.07.41,1.43,1.43,0,0,0,0,.16c0,.06,0,.1.09.07h.07l.19,0h.12a2.09,2.09,0,0,0,.36,0C46.5,52,46.55,52.06,46.61,52.07Z"/></g><g class="cls-7"><path class="cls-8" d="M45.66,54.2a.25.25,0,0,1,.17.16.37.37,0,0,1,0,.11.43.43,0,0,1,0,.14.14.14,0,0,1-.08.09h0c-.12.08-.2.06-.23-.06a.08.08,0,0,0-.05,0,.64.64,0,0,0-.3-.11L45,54.44l-.35-.08c-.19,0-.37-.09-.28-.27l.1-.3a.07.07,0,0,1,0,0,1.14,1.14,0,0,0,.1-.36,1,1,0,0,1,.06-.16l.13-.3s0-.07,0-.1l0,0h.06l0,0V53l0,.28a.8.8,0,0,1,0,.15,1.35,1.35,0,0,0-.08.4.64.64,0,0,0-.05.17c0,.06,0,.09.09.07h.07l.19,0h.12a1.09,1.09,0,0,0,.36.06C45.55,54.14,45.6,54.19,45.66,54.2Z"/></g><g class="cls-7"><path class="cls-8" d="M47.91,56.4a.19.19,0,0,1,.14.18.2.2,0,0,1,0,.11.24.24,0,0,1-.06.13c0,.06-.06.08-.08.08h0c-.13.07-.2,0-.22-.08s0,0,0-.06a.69.69,0,0,0-.28-.15l-.18-.07-.34-.13c-.18-.06-.35-.14-.24-.31l.14-.28a.08.08,0,0,1,0,0,1.14,1.14,0,0,0,.15-.34.55.55,0,0,1,.08-.15l.17-.28a.42.42,0,0,1,0-.1l0,0h.06s0,0,0,0a.68.68,0,0,1,0,.14l-.09.26a.88.88,0,0,1-.05.15,2.58,2.58,0,0,0-.14.39A.77.77,0,0,0,47,56c0,.06,0,.1.07.09h0s0,0,.05,0l.18.05.12,0a1.69,1.69,0,0,0,.34.1C47.82,56.32,47.86,56.38,47.91,56.4Z"/></g><g class="cls-7"><path class="cls-8" d="M49.3,54a.22.22,0,0,1,.16.15.37.37,0,0,1,0,.12.63.63,0,0,1,0,.14.18.18,0,0,1-.08.09h0c-.11.08-.19.07-.22-.05a.08.08,0,0,0-.05,0,.65.65,0,0,0-.31-.12,1.16,1.16,0,0,1-.18,0l-.35-.08c-.19,0-.37-.09-.29-.27s.07-.2.1-.3,0,0,0,0a1.08,1.08,0,0,0,.1-.35,1.15,1.15,0,0,1,.06-.17l.12-.3a.29.29,0,0,0,0-.1l0,0h0s0,0,0,0l0,0a.66.66,0,0,1,0,.14c0,.1,0,.18,0,.28a.8.8,0,0,1,0,.15,1.42,1.42,0,0,0-.08.4c0,.06,0,.14,0,.17s0,.09.08.07h.08l.19,0h.12a1.28,1.28,0,0,0,.35.06C49.19,54,49.24,54,49.3,54Z"/></g><g class="cls-7"><path class="cls-8" d="M34.42,43.94a.23.23,0,0,1,.21.09.23.23,0,0,1,0,.1.24.24,0,0,1,0,.15.14.14,0,0,1,0,.11h0c-.09.12-.16.13-.23,0s0,0-.07,0a.69.69,0,0,0-.32,0l-.19,0-.36,0c-.19,0-.37,0-.36-.15v-.37a1.14,1.14,0,0,0,0-.37.48.48,0,0,1,0-.17v-.32s0-.08,0-.11l0,0h.06l0,0a.69.69,0,0,1,.05.13l0,.28a.39.39,0,0,1,0,.15,2,2,0,0,0,.07.41.86.86,0,0,0,0,.17s0,.08.11,0h.07l.18,0,.13,0a1.51,1.51,0,0,0,.35-.06C34.3,43.92,34.36,44,34.42,43.94Z"/></g><g class="cls-7"><path class="cls-8" d="M36.93,46.5a.25.25,0,0,1,.2.12l0,.11a.41.41,0,0,1,0,.15c0,.06,0,.09-.06.1h0c-.1.11-.18.1-.23,0a.07.07,0,0,0-.06,0,.75.75,0,0,0-.33-.06.55.55,0,0,1-.18,0h-.37c-.19,0-.37,0-.33-.21l0-.31v-.05a1.17,1.17,0,0,0,0-.37.52.52,0,0,1,0-.17l.06-.32a.34.34,0,0,0,0-.1l0,0h.06l0,0a.39.39,0,0,1,0,.14v.28a.85.85,0,0,1,0,.16,1.41,1.41,0,0,0,0,.41,1.09,1.09,0,0,0,0,.17c0,.06,0,.09.09.05h.39a1.46,1.46,0,0,0,.36,0C36.81,46.46,36.87,46.5,36.93,46.5Z"/></g><g class="cls-7"><path class="cls-8" d="M39.31,49.87a.22.22,0,0,1,.19.12.28.28,0,0,1,0,.11.26.26,0,0,1,0,.14c0,.07,0,.09-.05.1h0c-.1.1-.17.1-.23,0s0,0-.06,0a.68.68,0,0,0-.32,0,1.21,1.21,0,0,1-.19,0H38.3c-.19,0-.38,0-.33-.21l0-.31v-.06a1.1,1.1,0,0,0,0-.36,1.1,1.1,0,0,1,0-.18l.07-.31s0-.07,0-.11l0,0h.06l0,0,0,.14v.28a.38.38,0,0,1,0,.15,1.87,1.87,0,0,0,0,.41c0,.06,0,.14,0,.18s0,.08.1,0h0s0,0,0,0h.32a1.48,1.48,0,0,0,.36,0C39.19,49.82,39.25,49.87,39.31,49.87Z"/></g><g class="cls-7"><path class="cls-8" d="M41.32,52.55a.22.22,0,0,1,.17.14l0,.11a.34.34,0,0,1,0,.15c0,.06,0,.08-.06.09h0c-.11.09-.19.07-.23,0a.08.08,0,0,0,0,0,.7.7,0,0,0-.32-.09l-.18,0-.36-.06c-.19,0-.37-.06-.3-.25l.07-.3s0,0,0,0a1.15,1.15,0,0,0,.07-.36.48.48,0,0,1,0-.17l.1-.31s0-.07,0-.1,0,0,0,0h.05l0,0a.66.66,0,0,1,0,.14l0,.28a.38.38,0,0,1,0,.15,1.84,1.84,0,0,0-.06.41c0,.05,0,.14,0,.17s0,.09.09.06h.08l.19,0h.12a1.42,1.42,0,0,0,.36,0C41.2,52.49,41.26,52.54,41.32,52.55Z"/></g><g class="cls-7"><path class="cls-8" d="M43.68,55.19a.2.2,0,0,1,.17.15.31.31,0,0,1,0,.11.29.29,0,0,1,0,.14c0,.06-.05.08-.07.09h0c-.11.08-.19.07-.23,0s0,0-.05,0a.67.67,0,0,0-.31-.1l-.18,0-.36-.07c-.19,0-.37-.07-.3-.25l.09-.3a.13.13,0,0,1,0-.06.85.85,0,0,0,.08-.35.84.84,0,0,1,.05-.17l.12-.3s0-.07,0-.11l0,0h.06l0,0a.61.61,0,0,1,0,.14l0,.27a.88.88,0,0,1,0,.16,1.84,1.84,0,0,0-.06.4c0,.06,0,.14,0,.17s0,.09.09.07h.08l.18,0,.13,0a2.09,2.09,0,0,0,.35,0C43.57,55.13,43.62,55.18,43.68,55.19Z"/></g><g class="cls-7"><path class="cls-8" d="M45.94,57.34a.23.23,0,0,1,.17.16.37.37,0,0,1,0,.11.22.22,0,0,1,0,.14c0,.06,0,.08-.07.09h0c-.12.08-.19.06-.22-.06s0,0-.05,0a.82.82,0,0,0-.31-.11l-.18,0-.36-.08c-.19,0-.36-.09-.28-.27l.09-.3s0,0,0,0a1.21,1.21,0,0,0,.1-.36.44.44,0,0,1,.06-.16l.12-.3,0-.1,0,0h0a0,0,0,0,1,0,0l0,0a.65.65,0,0,1,0,.14l-.05.27a.4.4,0,0,1,0,.15A1.85,1.85,0,0,0,45,57a.71.71,0,0,0,0,.16c0,.06,0,.1.09.07h.07l.19,0,.12,0a1.42,1.42,0,0,0,.36.05C45.83,57.28,45.88,57.33,45.94,57.34Z"/></g><g class="cls-7"><path class="cls-8" d="M51.74,55.6a.21.21,0,0,1,.17.15.81.81,0,0,1,0,.11.3.3,0,0,1,0,.14c0,.07,0,.09-.06.1h0c-.11.09-.19.08-.23,0s0,0-.05,0a.71.71,0,0,0-.32-.1l-.18,0-.36,0c-.19,0-.37-.07-.3-.25l.07-.31s0,0,0-.05a1.15,1.15,0,0,0,.07-.36.55.55,0,0,1,.05-.17l.1-.3s0-.07,0-.11l0,0h0a0,0,0,0,1,0,0l0,0a.65.65,0,0,1,0,.14l0,.28a.37.37,0,0,1,0,.15,2,2,0,0,0-.06.41c0,.06,0,.14,0,.17s0,.09.09.07h.08l.19,0h.12a1.42,1.42,0,0,0,.36,0C51.62,55.55,51.68,55.6,51.74,55.6Z"/></g><g class="cls-7"><path class="cls-8" d="M50.52,58.12a.23.23,0,0,1,.18.15.31.31,0,0,1,0,.11.5.5,0,0,1,0,.14c0,.07,0,.09-.07.1h0c-.11.09-.19.08-.23,0s0,0-.05,0a.71.71,0,0,0-.31-.1,1.08,1.08,0,0,1-.19,0l-.36,0c-.19,0-.37-.07-.3-.25l.08-.31a.09.09,0,0,1,0,0,1.55,1.55,0,0,0,.08-.36.53.53,0,0,1,0-.17c0-.1.07-.2.1-.3a.22.22,0,0,0,0-.11l0,0h.06s0,0,0,0,0,.1,0,.14l0,.28a.77.77,0,0,1,0,.15,1.48,1.48,0,0,0,0,.41.67.67,0,0,0,0,.17c0,.06,0,.09.09.06h0a.07.07,0,0,1,0,0H50a1.29,1.29,0,0,0,.35,0C50.41,58.07,50.46,58.11,50.52,58.12Z"/></g><g class="cls-7"><path class="cls-8" d="M53.68,58.53a.25.25,0,0,1,.18.15s0,.07,0,.11a.3.3,0,0,1,0,.14c0,.07-.05.09-.07.1h0c-.11.09-.19.07-.22,0s0,0-.06-.05a.63.63,0,0,0-.31-.1,1.16,1.16,0,0,1-.18,0l-.36-.06c-.19,0-.37-.07-.3-.26l.09-.3a.43.43,0,0,1,0,0,1.19,1.19,0,0,0,.09-.36.55.55,0,0,1,0-.17c0-.1.07-.2.11-.3s0-.07,0-.11,0,0,0,0,0,0,0,0h0l0,0v.14l0,.28a.39.39,0,0,1,0,.15,1.84,1.84,0,0,0-.06.41s0,.13,0,.16,0,.1.09.07h.08l.19,0h.12a2.09,2.09,0,0,0,.36,0C53.57,58.47,53.63,58.52,53.68,58.53Z"/></g><g class="cls-7"><path class="cls-8" d="M52.74,60.66a.25.25,0,0,1,.16.16.36.36,0,0,1,0,.11.3.3,0,0,1-.05.14c0,.07,0,.08-.07.09h0c-.12.08-.19.06-.22-.06a.08.08,0,0,0,0,0,.68.68,0,0,0-.31-.11L52,60.9l-.35-.08c-.19,0-.37-.09-.29-.27l.1-.3s0,0,0,0a1.15,1.15,0,0,0,.1-.35.49.49,0,0,1,.06-.17l.12-.3a.38.38,0,0,0,0-.1l0,0h.06l0,0a.61.61,0,0,1,0,.14,2.74,2.74,0,0,1,0,.28.4.4,0,0,1,0,.15,2.57,2.57,0,0,0-.08.4c0,.06,0,.13,0,.17s0,.09.08.07h.08l.19,0h.12a1,1,0,0,0,.35.06C52.63,60.6,52.68,60.65,52.74,60.66Z"/></g><g class="cls-7"><path class="cls-8" d="M55,62.86a.22.22,0,0,1,.14.18.2.2,0,0,1,0,.11.36.36,0,0,1-.06.13c0,.06-.07.08-.09.08h0c-.12.07-.2,0-.21-.08s0,0,0-.06a.8.8,0,0,0-.29-.15L54.25,63l-.33-.13c-.18-.06-.35-.14-.25-.31l.14-.28,0-.05a1.47,1.47,0,0,0,.15-.34.51.51,0,0,1,.07-.15l.17-.28a.42.42,0,0,0,0-.1l0,0h0l0,0a.7.7,0,0,1,0,.14l-.08.26a.88.88,0,0,1-.05.15,1.4,1.4,0,0,0-.14.39c0,.05-.06.12-.07.16s0,.09.08.08h.07l.18.05.12,0a2.19,2.19,0,0,0,.34.1C54.89,62.78,54.93,62.84,55,62.86Z"/></g><g class="cls-7"><path class="cls-8" d="M56.37,60.49a.22.22,0,0,1,.17.15.41.41,0,0,1,0,.12.23.23,0,0,1,0,.14c0,.06,0,.08-.07.09h0c-.12.08-.19.07-.22-.05a.08.08,0,0,0-.05,0,.69.69,0,0,0-.31-.12,1,1,0,0,1-.18,0l-.36-.08c-.19,0-.36-.09-.28-.27l.09-.3s0,0,0,0a1.08,1.08,0,0,0,.1-.35.58.58,0,0,1,.06-.17l.12-.3,0-.1,0,0h.05l0,0a.65.65,0,0,1,0,.14c0,.1,0,.19-.05.28a.4.4,0,0,1,0,.15,1.87,1.87,0,0,0-.07.4,1,1,0,0,0,0,.17c0,.06,0,.09.09.07h.07l.19,0h.12a1.43,1.43,0,0,0,.36.06C56.26,60.42,56.32,60.48,56.37,60.49Z"/></g><g class="cls-7"><path class="cls-8" d="M48.39,59a.23.23,0,0,1,.18.14.36.36,0,0,1,0,.11.31.31,0,0,1,0,.15c0,.06-.05.08-.07.09h0c-.11.09-.18.07-.22,0s0,0-.06,0a.63.63,0,0,0-.31-.09,1.25,1.25,0,0,1-.19,0l-.36-.06c-.18,0-.37-.06-.3-.25l.08-.3a.43.43,0,0,1,0,0,1.17,1.17,0,0,0,.08-.36.47.47,0,0,1,0-.17l.11-.31s0-.07,0-.1,0,0,0,0h.06s0,0,0,0a.66.66,0,0,1,0,.14l0,.28a.77.77,0,0,1,0,.15c-.06.13,0,.27-.05.41a1.55,1.55,0,0,0,0,.17c0,.06,0,.09.09.06h.07l.19,0h.13a1.38,1.38,0,0,0,.35,0C48.28,59,48.33,59,48.39,59Z"/></g><g class="cls-7"><path class="cls-8" d="M50.76,61.65a.23.23,0,0,1,.17.15.31.31,0,0,1,0,.11.33.33,0,0,1,0,.14c0,.06,0,.08-.07.09h0c-.12.08-.19.07-.23,0s0,0,0,0a.71.71,0,0,0-.31-.1l-.19,0-.36-.06c-.18,0-.36-.08-.29-.26l.08-.3s0,0,0-.06a1.05,1.05,0,0,0,.08-.35.48.48,0,0,1,0-.17l.11-.3s0-.07,0-.11l0,0h.06l0,0a.65.65,0,0,1,0,.14l0,.27a.88.88,0,0,1,0,.16,1.4,1.4,0,0,0-.07.4c0,.06,0,.14,0,.17s0,.09.09.07h.07l.19,0,.12,0a2.09,2.09,0,0,0,.36,0C50.65,61.59,50.7,61.64,50.76,61.65Z"/></g><g class="cls-7"><path class="cls-8" d="M53,63.8a.22.22,0,0,1,.16.16.36.36,0,0,1,0,.11.3.3,0,0,1,0,.14c0,.07,0,.08-.08.09h0c-.12.08-.2.06-.23-.06s0,0-.05,0a.77.77,0,0,0-.3-.11,1.06,1.06,0,0,1-.19,0L52,64c-.19,0-.37-.09-.29-.27l.1-.3s0,0,0,0a1.21,1.21,0,0,0,.1-.36.49.49,0,0,1,0-.16l.13-.3s0-.07,0-.1l0,0h.06l0,0v.14l-.05.27s0,.11,0,.15,0,.27-.08.41,0,.13,0,.16,0,.1.08.07h.08l.19,0,.12,0a1.34,1.34,0,0,0,.35.05C52.91,63.74,53,63.79,53,63.8Z"/></g><g class="cls-7"><path class="cls-8" d="M43.56,32.49a.26.26,0,0,1,.21.11.66.66,0,0,1,0,.11.32.32,0,0,1,0,.14.16.16,0,0,1-.05.11h0c-.1.11-.17.12-.23,0s0,0-.07,0a.69.69,0,0,0-.32,0H43l-.36,0c-.19,0-.38,0-.35-.19v-.31a.07.07,0,0,1,0,0,1.53,1.53,0,0,0,0-.37.55.55,0,0,1,0-.18l0-.32s0-.07,0-.1,0,0,0,0h.06l0,0a.61.61,0,0,1,0,.13l0,.28a.26.26,0,0,1,0,.15,1.84,1.84,0,0,0,0,.41,1.07,1.07,0,0,0,0,.18c0,.05,0,.08.1,0h.07l.19,0,.13,0a1.45,1.45,0,0,0,.35,0C43.44,32.46,43.51,32.5,43.56,32.49Z"/></g><g class="cls-7"><path class="cls-8" d="M46.58,31.66a.22.22,0,0,1,.21.09l.06.1a.62.62,0,0,1,0,.15.25.25,0,0,1,0,.11h0c-.08.11-.16.12-.23,0s0,0-.06,0a.74.74,0,0,0-.33,0,1.11,1.11,0,0,1-.19,0l-.36,0c-.18,0-.37,0-.36-.16v-.37a.87.87,0,0,0,0-.36,1.08,1.08,0,0,1,0-.18l0-.32s0-.07,0-.11a0,0,0,0,1,0,0h0s0,0,0,0h0a.74.74,0,0,1,0,.14l.05.27a.4.4,0,0,1,0,.15,1.84,1.84,0,0,0,.06.41c0,.06,0,.14,0,.17s0,.08.1,0l0,0h0l.19,0,.12,0a1.45,1.45,0,0,0,.35-.07C46.46,31.64,46.53,31.67,46.58,31.66Z"/></g><g class="cls-7"><path class="cls-8" d="M44.66,34.94a.24.24,0,0,1,.19.12.35.35,0,0,1,0,.11.41.41,0,0,1,0,.15c0,.06,0,.09-.06.1h0c-.1.11-.17.1-.23,0a.1.1,0,0,0,0,0,.74.74,0,0,0-.33,0H44l-.37,0c-.19,0-.37,0-.33-.21l0-.31v-.05a1.2,1.2,0,0,0,0-.37.47.47,0,0,1,0-.17l.07-.32s0-.07,0-.1a.05.05,0,0,1,0,0h.06l0,0a.78.78,0,0,1,0,.14,2.72,2.72,0,0,1,0,.28.75.75,0,0,1,0,.15,2,2,0,0,0,0,.42,1.09,1.09,0,0,0,0,.17c0,.06,0,.09.1.05h.39a2.08,2.08,0,0,0,.35,0C44.54,34.9,44.6,34.94,44.66,34.94Z"/></g><g class="cls-7"><path class="cls-8" d="M47.26,37.47a.23.23,0,0,1,.18.14.18.18,0,0,1,0,.11.26.26,0,0,1,0,.14.14.14,0,0,1-.07.1h0c-.11.1-.19.09-.23,0s0,0-.06,0a.84.84,0,0,0-.31-.08.58.58,0,0,1-.19,0l-.36,0c-.19,0-.38,0-.32-.23l.07-.31a.09.09,0,0,1,0-.05,1.14,1.14,0,0,0,0-.37.59.59,0,0,1,0-.17l.09-.31s0-.07,0-.1l0,0h.06l0,0a.77.77,0,0,1,0,.15l0,.27a.42.42,0,0,1,0,.16,1.39,1.39,0,0,0,0,.41,1.55,1.55,0,0,0,0,.17c0,.06,0,.09.09.06h.39a1.08,1.08,0,0,0,.36,0C47.15,37.42,47.2,37.47,47.26,37.47Z"/></g><g class="cls-7"><path class="cls-8" d="M48.84,40.53a.23.23,0,0,1,.19.13.81.81,0,0,1,0,.11.26.26,0,0,1,0,.14C49,41,49,41,49,41h0c-.1.1-.18.09-.23,0s0,0-.05,0a.61.61,0,0,0-.32-.06l-.19,0-.36,0c-.19,0-.38,0-.33-.22l0-.31a.13.13,0,0,1,0-.06,1.11,1.11,0,0,0,0-.36.86.86,0,0,1,0-.17l.08-.32a.34.34,0,0,1,0-.1l0,0h.06s0,0,0,0a.59.59,0,0,1,0,.14v.28a.38.38,0,0,1,0,.15,1.89,1.89,0,0,0,0,.41c0,.06,0,.14,0,.17s0,.09.1.06h.39a1.37,1.37,0,0,0,.35,0C48.72,40.49,48.78,40.53,48.84,40.53Z"/></g><g class="cls-7"><path class="cls-8" d="M47.61,34.5a.24.24,0,0,1,.19.12.36.36,0,0,1,0,.11.47.47,0,0,1,0,.15c0,.07,0,.09,0,.1h0c-.1.11-.18.11-.23,0s0,0-.06,0a.7.7,0,0,0-.32-.06H46.6c-.19,0-.38,0-.33-.21l0-.32a.07.07,0,0,0,0-.05,1.1,1.1,0,0,0,0-.36.55.55,0,0,1,0-.18l.07-.31a.41.41,0,0,0,0-.11l0,0h.06l0,0a.59.59,0,0,1,0,.14v.27c0,.06,0,.11,0,.16a1.87,1.87,0,0,0,0,.41,1.16,1.16,0,0,0,0,.17c0,.06,0,.09.1.05h.39a1.37,1.37,0,0,0,.35,0C47.49,34.46,47.55,34.5,47.61,34.5Z"/></g><g class="cls-7"><path class="cls-8" d="M50,37.87a.23.23,0,0,1,.2.12.81.81,0,0,1,0,.11.23.23,0,0,1,0,.14.21.21,0,0,1-.06.11h0c-.1.1-.18.1-.23,0s0,0-.06,0a.72.72,0,0,0-.32,0,1.15,1.15,0,0,1-.19,0H49c-.19,0-.37,0-.33-.21l0-.31a.07.07,0,0,1,0-.05,1.58,1.58,0,0,0,0-.37.47.47,0,0,1,0-.17l.06-.32a.34.34,0,0,0,0-.1.05.05,0,0,1,0,0h.06l0,0a.68.68,0,0,1,0,.14v.28a.75.75,0,0,1,0,.15,2,2,0,0,0,0,.42,1.09,1.09,0,0,0,0,.17c0,.06,0,.09.09,0h.39a1.45,1.45,0,0,0,.36,0C49.87,37.83,49.92,37.87,50,37.87Z"/></g><g class="cls-7"><path class="cls-8" d="M52,40.55a.23.23,0,0,1,.18.15.27.27,0,0,1,0,.11.5.5,0,0,1,0,.14c0,.06,0,.08-.07.09h0c-.11.09-.18.08-.22,0s0,0-.06,0a.67.67,0,0,0-.31-.1,1.08,1.08,0,0,1-.19,0l-.36-.06c-.19,0-.37-.06-.3-.24l.08-.31a.09.09,0,0,1,0,0,1.55,1.55,0,0,0,.08-.36.47.47,0,0,1,0-.17l.11-.31a.34.34,0,0,0,0-.1l0,0h.06s0,0,0,0a.71.71,0,0,1,0,.14l0,.28a.77.77,0,0,1,0,.15,1.44,1.44,0,0,0,0,.41.67.67,0,0,0,0,.17c0,.06,0,.09.09.06h0s0,0,0,0h.32a1,1,0,0,0,.35,0C51.88,40.49,51.93,40.54,52,40.55Z"/></g><g class="cls-7"><path class="cls-8" d="M50.77,43.07a.23.23,0,0,1,.18.14l0,.12a.33.33,0,0,1,0,.14c0,.06,0,.08-.06.09h0c-.12.09-.19.08-.23,0a.08.08,0,0,0,0-.05.85.85,0,0,0-.32-.09l-.18,0-.36-.06c-.19,0-.37-.06-.3-.25l.07-.3a.11.11,0,0,0,0,0,.94.94,0,0,0,.08-.36.85.85,0,0,1,0-.17c0-.1.07-.21.11-.31s0-.07,0-.1l0,0h.05l0,0a.66.66,0,0,1,0,.14l0,.28a.26.26,0,0,1,0,.15,2.7,2.7,0,0,0,0,.41c0,.06,0,.14,0,.17s0,.09.09.06h.39a1.42,1.42,0,0,0,.36,0C50.66,43,50.72,43.06,50.77,43.07Z"/></g><g class="cls-7"><path class="cls-8" d="M53.94,43.48a.2.2,0,0,1,.17.15.31.31,0,0,1,0,.11.5.5,0,0,1,0,.14c0,.06-.05.08-.07.09h0c-.12.08-.19.07-.23,0s0,0,0,0a.67.67,0,0,0-.31-.1l-.19,0-.35-.06c-.19,0-.37-.08-.3-.26l.08-.3,0-.06a1.05,1.05,0,0,0,.08-.35.84.84,0,0,1,0-.17l.11-.3,0-.11,0,0H53l0,0a.65.65,0,0,1,0,.14c0,.1,0,.18,0,.27a.78.78,0,0,1,0,.16,1.39,1.39,0,0,0-.06.4.79.79,0,0,0,0,.17c0,.06,0,.09.09.07h.07l.19,0,.13,0a1.87,1.87,0,0,0,.35,0C53.83,43.42,53.88,43.47,53.94,43.48Z"/></g><g class="cls-7"><path class="cls-8" d="M53,45.61a.23.23,0,0,1,.17.16.37.37,0,0,1,0,.11.3.3,0,0,1,0,.14c0,.06-.05.08-.08.09h0c-.12.09-.2.07-.23,0a.08.08,0,0,0,0-.05.66.66,0,0,0-.3-.12,1.06,1.06,0,0,1-.19,0l-.35-.08c-.19,0-.36-.09-.28-.27l.1-.3a.07.07,0,0,1,0-.05,1.21,1.21,0,0,0,.1-.36,1,1,0,0,1,.06-.16l.13-.3a.38.38,0,0,1,0-.1l0,0h.06s0,0,0,0v.14l0,.27a.66.66,0,0,1,0,.15,1.49,1.49,0,0,0-.08.41.64.64,0,0,0-.05.17s0,.09.09.06h.07l.19,0,.12,0a1.43,1.43,0,0,0,.36.06C52.88,45.55,52.93,45.6,53,45.61Z"/></g><g class="cls-7"><path class="cls-8" d="M55.24,47.81a.22.22,0,0,1,.15.18v.11a.42.42,0,0,1-.07.13.15.15,0,0,1-.08.08h0c-.13.07-.2,0-.22-.08s0,0,0-.06a.71.71,0,0,0-.28-.16.56.56,0,0,1-.18-.07l-.34-.13c-.18-.05-.35-.14-.24-.3l.14-.29s0,0,0,0a1.14,1.14,0,0,0,.15-.34.48.48,0,0,1,.08-.16l.17-.27s0-.07,0-.1,0,0,0,0h.06a.08.08,0,0,1,0,0,.78.78,0,0,1,0,.14l-.09.26a.88.88,0,0,1-.05.15,2.24,2.24,0,0,0-.14.39.77.77,0,0,0-.06.15c0,.06,0,.1.07.08h.08l.18.06.12,0a1.23,1.23,0,0,0,.34.11C55.15,47.73,55.19,47.79,55.24,47.81Z"/></g><g class="cls-7"><path class="cls-8" d="M41.75,35.35a.21.21,0,0,1,.21.09.44.44,0,0,1,.06.1.32.32,0,0,1,0,.14c0,.07,0,.1,0,.11h0c-.08.12-.16.13-.23,0a.06.06,0,0,0-.06,0,.74.74,0,0,0-.33,0,.62.62,0,0,1-.19,0l-.36,0c-.19,0-.37,0-.36-.16v-.36a1.14,1.14,0,0,0,0-.37.54.54,0,0,1,0-.18v-.32a.17.17,0,0,0,0-.1l0,0h.06l0,0s0,.08,0,.13l0,.28a.66.66,0,0,1,0,.15,1.76,1.76,0,0,0,.06.4c0,.06,0,.14,0,.18s.05.08.11,0h0l0,0,.19,0,.12,0a1.55,1.55,0,0,0,.35-.07C41.63,35.32,41.69,35.36,41.75,35.35Z"/></g><g class="cls-7"><path class="cls-8" d="M44.26,37.91a.23.23,0,0,1,.2.12l0,.11a.35.35,0,0,1,0,.14.21.21,0,0,1-.06.11h0c-.1.1-.18.1-.23,0s0,0-.06,0a.72.72,0,0,0-.32-.05,1.15,1.15,0,0,1-.19,0h-.37c-.19,0-.37,0-.33-.21l0-.31a.09.09,0,0,1,0,0,1.58,1.58,0,0,0,0-.37.5.5,0,0,1,0-.17l.06-.32a.34.34,0,0,0,0-.1.05.05,0,0,1,0,0h.06l0,0a.68.68,0,0,1,0,.14v.28a.75.75,0,0,1,0,.15,2,2,0,0,0,0,.42,1.09,1.09,0,0,0,0,.17c0,.06,0,.09.09,0h.39a1.45,1.45,0,0,0,.36,0C44.14,37.87,44.2,37.91,44.26,37.91Z"/></g><g class="cls-7"><path class="cls-8" d="M46.64,41.27a.23.23,0,0,1,.19.13.23.23,0,0,1,0,.1.41.41,0,0,1,0,.15c0,.07,0,.09-.06.1h0c-.1.1-.17.1-.23,0s0,0-.06,0a.57.57,0,0,0-.32-.05h-.55c-.19,0-.38,0-.33-.21l0-.31v-.06a.88.88,0,0,0,0-.36,1.1,1.1,0,0,1,0-.18l.07-.31s0-.07,0-.11l0,0h.06s0,0,0,0l0,.14v.28a.38.38,0,0,1,0,.15,1.87,1.87,0,0,0,0,.41c0,.06,0,.14,0,.17s0,.09.1.06h.39a2.23,2.23,0,0,0,.36,0C46.52,41.23,46.58,41.28,46.64,41.27Z"/></g><g class="cls-7"><path class="cls-8" d="M48.65,44a.2.2,0,0,1,.17.14l0,.11a.37.37,0,0,1,0,.15c0,.06,0,.08-.06.09h0c-.11.09-.19.08-.23,0a.08.08,0,0,0,0-.05.69.69,0,0,0-.31-.09,1.08,1.08,0,0,1-.19,0l-.36-.06c-.19,0-.37-.06-.3-.25l.07-.3s0,0,0-.06a1,1,0,0,0,.07-.36.64.64,0,0,1,0-.17l.1-.3s0-.07,0-.1l0,0h.05l0,0a.65.65,0,0,1,0,.14l0,.28a.38.38,0,0,1,0,.15,1.4,1.4,0,0,0-.05.41,1.36,1.36,0,0,0,0,.17c0,.06,0,.09.09.06h.08l.19,0h.12a1.42,1.42,0,0,0,.36,0C48.53,43.9,48.59,44,48.65,44Z"/></g><g class="cls-7"><path class="cls-8" d="M51,46.59a.23.23,0,0,1,.17.15.35.35,0,0,1,0,.12.63.63,0,0,1,0,.14c0,.06-.05.08-.07.09h0c-.11.09-.19.08-.23,0s0,0,0,0a.55.55,0,0,0-.31-.11l-.18,0L50,46.8c-.19,0-.37-.07-.3-.25l.09-.31a.11.11,0,0,1,0-.05,1.12,1.12,0,0,0,.09-.36.47.47,0,0,1,0-.16l.12-.31s0-.07,0-.1l0,0h0s0,0,0,0l0,0a.71.71,0,0,1,0,.14l0,.28a.36.36,0,0,1,0,.15,2,2,0,0,0-.06.41c0,.06,0,.14,0,.17s0,.09.09.07h.08l.19,0h.12a1,1,0,0,0,.35,0C50.9,46.54,51,46.59,51,46.59Z"/></g><g class="cls-7"><path class="cls-8" d="M53.27,48.75a.23.23,0,0,1,.17.16s0,.07,0,.11a.34.34,0,0,1-.05.14c0,.06,0,.08-.07.09h0c-.12.09-.19.07-.22,0a.08.08,0,0,0,0-.05.68.68,0,0,0-.31-.11l-.18,0-.36-.08c-.18,0-.36-.08-.28-.27l.1-.29a.13.13,0,0,1,0-.06,1.08,1.08,0,0,0,.1-.35.58.58,0,0,1,.06-.17l.12-.29a.45.45,0,0,0,0-.11s0,0,0,0h0a.07.07,0,0,1,0,0,.33.33,0,0,1,0,.14l-.05.28a.77.77,0,0,1,0,.15,1.42,1.42,0,0,0-.08.41.71.71,0,0,0-.05.16c0,.06,0,.09.09.07h0s0,0,0,0l.19,0,.12,0a1.42,1.42,0,0,0,.36,0C53.17,48.69,53.22,48.74,53.27,48.75Z"/></g><g class="cls-7"><path class="cls-8" d="M55.72,50.42a.23.23,0,0,1,.18.14.36.36,0,0,1,0,.11.33.33,0,0,1,0,.15.14.14,0,0,1-.07.09h0c-.11.09-.18.08-.22,0s0,0-.06-.05a.63.63,0,0,0-.31-.09l-.19,0-.35-.06c-.19,0-.37-.06-.31-.25s.05-.2.08-.3,0,0,0-.06a1.05,1.05,0,0,0,.08-.36.47.47,0,0,1,0-.16l.11-.31s0-.07,0-.1l0,0h.06l0,0a.61.61,0,0,1,0,.14l0,.28a.39.39,0,0,1,0,.15,2.7,2.7,0,0,0-.05.41,1.22,1.22,0,0,0,0,.17c0,.06,0,.09.09.06h.08l.18,0h.13a1.38,1.38,0,0,0,.35,0C55.61,50.36,55.66,50.41,55.72,50.42Z"/></g><g class="cls-7"><path class="cls-8" d="M50.4,24.94a.23.23,0,0,1,.19.13.23.23,0,0,1,0,.1.44.44,0,0,1,0,.15c0,.07,0,.09-.06.1h0c-.1.1-.18.1-.23,0a.07.07,0,0,0-.06,0,.59.59,0,0,0-.32-.06,1.15,1.15,0,0,1-.19,0h-.36c-.19,0-.38,0-.33-.22l0-.31v-.05a1.17,1.17,0,0,0,0-.37.5.5,0,0,1,0-.17l.07-.32s0-.07,0-.1,0,0,0,0,0,0,0,0h0s0,0,0,0a.58.58,0,0,1,0,.14v.27c0,.06,0,.11,0,.16a1.87,1.87,0,0,0,0,.41,1.49,1.49,0,0,0,0,.17c0,.06,0,.09.1.05h.39a1.46,1.46,0,0,0,.36,0C50.28,24.9,50.34,24.94,50.4,24.94Z"/></g><g class="cls-7"><path class="cls-8" d="M52.74,26.94a.2.2,0,0,1,.18.13l0,.11a.33.33,0,0,1,0,.15.21.21,0,0,1-.06.1h0c-.1.09-.18.09-.23,0s0,0,0,0a.69.69,0,0,0-.32-.08l-.19,0-.36,0c-.19,0-.37,0-.31-.24l.06-.3a.13.13,0,0,0,0-.06,1.13,1.13,0,0,0,.06-.36.53.53,0,0,1,0-.17l.09-.31a.37.37,0,0,0,0-.11l0,0h.06s0,0,0,0a.66.66,0,0,1,0,.14v.28c0,.05,0,.1,0,.15a1.46,1.46,0,0,0,0,.41,1.49,1.49,0,0,0,0,.17c0,.06,0,.09.09.06h.39a1.43,1.43,0,0,0,.36,0A.58.58,0,0,1,52.74,26.94Z"/></g><g class="cls-7"><path class="cls-8" d="M54.31,30a.22.22,0,0,1,.19.12.36.36,0,0,1,0,.11,1.25,1.25,0,0,1,0,.15c0,.07,0,.09-.06.1h0c-.1.1-.18.1-.23,0a.06.06,0,0,0-.06,0,.68.68,0,0,0-.32-.07,1.28,1.28,0,0,1-.19,0l-.36,0c-.19,0-.37,0-.32-.22l.05-.31a.09.09,0,0,1,0-.05,1.14,1.14,0,0,0,0-.37.36.36,0,0,1,0-.17l.07-.31a.41.41,0,0,0,0-.11l0,0h.06l0,0a.78.78,0,0,1,0,.14v.28s0,.11,0,.16a1.86,1.86,0,0,0,0,.41.56.56,0,0,0,0,.17c0,.06,0,.09.1.05h.38a2.16,2.16,0,0,0,.36,0A.36.36,0,0,1,54.31,30Z"/></g><g class="cls-7"><path class="cls-8" d="M53.08,24a.23.23,0,0,1,.2.12.29.29,0,0,1,0,.11.23.23,0,0,1,0,.14.38.38,0,0,1,0,.11h0c-.1.1-.18.1-.23,0s0,0-.06,0a.7.7,0,0,0-.32,0,1.15,1.15,0,0,1-.19,0h-.37c-.19,0-.37,0-.33-.21l0-.31a.07.07,0,0,1,0,0,1.58,1.58,0,0,0,0-.37.47.47,0,0,1,0-.17c0-.11,0-.21.07-.32v-.1a.05.05,0,0,1,0,0H52l0,0a.68.68,0,0,1,0,.14v.28a.75.75,0,0,1,0,.15,2,2,0,0,0,0,.42,1.09,1.09,0,0,0,0,.17c0,.06,0,.09.1,0h.38a1.45,1.45,0,0,0,.36,0C53,23.93,53,24,53.08,24Z"/></g><g class="cls-7"><path class="cls-8" d="M49.74,27.37a.22.22,0,0,1,.19.13.23.23,0,0,1,0,.1.41.41,0,0,1,0,.15c0,.07,0,.09-.06.1h0c-.1.1-.17.1-.23,0s0,0-.06,0a.57.57,0,0,0-.32,0h-.55c-.19,0-.37,0-.33-.21l0-.31v-.06a.88.88,0,0,0,0-.36.57.57,0,0,1,0-.18l.06-.31s0-.07,0-.11l0,0h.06s0,0,0,0a.58.58,0,0,1,0,.14v.28a.76.76,0,0,1,0,.15,1.13,1.13,0,0,0,0,.41,1.49,1.49,0,0,0,0,.17c0,.06,0,.09.1.06h0s0,0,.05,0h.31a2.23,2.23,0,0,0,.36,0C49.62,27.33,49.68,27.38,49.74,27.37Z"/></g><g class="cls-7"><path class="cls-8" d="M52.12,30.74a.22.22,0,0,1,.19.12s0,.07,0,.11a.47.47,0,0,1,0,.15.15.15,0,0,1,0,.1h0c-.1.11-.18.1-.23,0a.07.07,0,0,0-.06,0,.7.7,0,0,0-.32-.06.59.59,0,0,1-.19,0h-.36c-.19,0-.38,0-.33-.21l0-.31a.09.09,0,0,0,0,0,1.16,1.16,0,0,0,0-.37.5.5,0,0,1,0-.17l.07-.32v-.1l0,0H51l0,0a.78.78,0,0,1,0,.14V30a.38.38,0,0,1,0,.15,2,2,0,0,0,0,.42,1.09,1.09,0,0,0,0,.17c0,.06,0,.09.1.05h.39a1.38,1.38,0,0,0,.35,0C52,30.7,52.06,30.74,52.12,30.74Z"/></g><g class="cls-7"><path class="cls-8" d="M54.12,33.42a.23.23,0,0,1,.18.15.31.31,0,0,1,0,.11.29.29,0,0,1,0,.14.14.14,0,0,1-.07.1h0c-.12.09-.19.08-.23,0s0,0-.05,0a.71.71,0,0,0-.32-.1l-.18,0-.36-.05c-.19,0-.37-.07-.31-.25l.08-.31a.09.09,0,0,0,0-.05.94.94,0,0,0,.08-.36.53.53,0,0,1,0-.17l.11-.3s0-.07,0-.11l0,0h0s0,0,0,0l0,0a.71.71,0,0,1,0,.14l0,.28a.26.26,0,0,1,0,.15,3.05,3.05,0,0,0,0,.41c0,.06,0,.14,0,.17s0,.09.09.06h.39a1.42,1.42,0,0,0,.36,0C54,33.37,54.07,33.42,54.12,33.42Z"/></g><g class="cls-7"><path class="cls-8" d="M27.37,50.81a.23.23,0,0,1,.21.09.93.93,0,0,1,.05.1.62.62,0,0,1,0,.15c0,.07,0,.09,0,.11h0c-.08.12-.16.13-.23,0l-.06,0a.62.62,0,0,0-.33,0,1.11,1.11,0,0,1-.19,0l-.36,0c-.18,0-.37,0-.35-.16v-.31s0,0,0-.05a1.14,1.14,0,0,0,0-.37.55.55,0,0,1,0-.18l0-.32s0-.07,0-.1a.08.08,0,0,1,0,0h.06l0,0a.69.69,0,0,1,.05.13l0,.28a.36.36,0,0,1,0,.15,1.93,1.93,0,0,0,.06.41s0,.14,0,.17.05.08.1,0h.07l.19,0,.12,0a2,2,0,0,0,.35-.07C27.24,50.79,27.31,50.82,27.37,50.81Z"/></g><g class="cls-7"><path class="cls-8" d="M30.32,49.76a.22.22,0,0,1,.22.08l.06.09a.54.54,0,0,1,0,.15c0,.07,0,.1,0,.11h0c-.08.12-.15.14-.23,0a.07.07,0,0,0-.06,0,.74.74,0,0,0-.33,0,1.08,1.08,0,0,1-.19,0l-.35.07c-.19,0-.37.07-.37-.13l0-.31a.09.09,0,0,1,0,0,1.14,1.14,0,0,0-.05-.37.47.47,0,0,1,0-.17V49a.43.43,0,0,0,0-.11s0,0,0,0l0,0H29a1.39,1.39,0,0,1,.06.13l.07.27a.4.4,0,0,1,0,.15,1.45,1.45,0,0,0,.1.41c0,.05,0,.14,0,.17s.06.07.11,0h0l.05,0,.18-.05.12,0a1.54,1.54,0,0,0,.35-.1C30.2,49.75,30.26,49.78,30.32,49.76Z"/></g><g class="cls-7"><path class="cls-8" d="M28.63,53.17a.24.24,0,0,1,.2.11.28.28,0,0,1,.05.11.36.36,0,0,1,0,.14.16.16,0,0,1-.05.11h0c-.1.11-.17.12-.23,0s0,0-.07,0a.69.69,0,0,0-.32,0,1.21,1.21,0,0,1-.19,0l-.36,0c-.19,0-.38,0-.35-.19l0-.32a.11.11,0,0,1,0-.05,1.15,1.15,0,0,0,0-.37,1,1,0,0,1,0-.17c0-.11,0-.22.05-.32a.41.41,0,0,0,0-.11l0,0h.06l0,0a.74.74,0,0,1,0,.14l0,.28a.38.38,0,0,1,0,.15,1.84,1.84,0,0,0,0,.41,1.07,1.07,0,0,0,0,.18s0,.08.1,0h.07l.19,0h.12a1.47,1.47,0,0,0,.36,0C28.51,53.14,28.57,53.18,28.63,53.17Z"/></g><g class="cls-7"><path class="cls-8" d="M31.41,55.51a.22.22,0,0,1,.2.12.81.81,0,0,1,0,.11.36.36,0,0,1,0,.14.21.21,0,0,1-.06.11h0c-.11.1-.18.1-.23,0s0,0-.06,0a.75.75,0,0,0-.33-.06h-.18l-.37,0c-.19,0-.37,0-.33-.21l0-.31a.11.11,0,0,0,0-.05,1.18,1.18,0,0,0,0-.37.47.47,0,0,1,0-.17l.06-.32a.34.34,0,0,0,0-.1l0,0h.06l0,0a.78.78,0,0,1,0,.14v.28a.43.43,0,0,1,0,.16,1.87,1.87,0,0,0,0,.41,1.09,1.09,0,0,0,0,.17c0,.06,0,.09.1.05h.38a1.45,1.45,0,0,0,.36,0C31.3,55.46,31.36,55.51,31.41,55.51Z"/></g><g class="cls-7"><path class="cls-8" d="M33.21,58.44a.24.24,0,0,1,.2.12,1,1,0,0,1,0,.1.4.4,0,0,1,0,.15.22.22,0,0,1,0,.11h0c-.1.11-.17.11-.23,0s0,0-.06,0a.73.73,0,0,0-.33,0h-.55c-.19,0-.37,0-.34-.2l0-.31v-.06a.92.92,0,0,0,0-.37.52.52,0,0,1,0-.17c0-.1,0-.21,0-.32a.34.34,0,0,0,0-.1l0,0h.06l0,0,0,.14v.28a.38.38,0,0,1,0,.15,1.88,1.88,0,0,0,0,.41,1.16,1.16,0,0,0,0,.17c0,.06,0,.09.1,0h0s0,0,0,0h.32a1.38,1.38,0,0,0,.35,0C33.09,58.41,33.15,58.45,33.21,58.44Z"/></g><g class="cls-7"><path class="cls-8" d="M31.54,52.52a.26.26,0,0,1,.21.11,1,1,0,0,1,0,.1.37.37,0,0,1,0,.15.16.16,0,0,1-.05.11h0c-.09.11-.17.12-.23,0s0,0-.06,0a.69.69,0,0,0-.32,0,.62.62,0,0,1-.19,0l-.37,0c-.19,0-.37,0-.34-.19s0-.21,0-.31a.13.13,0,0,1,0-.06,1.45,1.45,0,0,0,0-.36.55.55,0,0,1,0-.18c0-.1,0-.21,0-.32a.34.34,0,0,0,0-.1l0,0h.06l0,0a1,1,0,0,1,0,.14l0,.28a.76.76,0,0,1,0,.15,1.84,1.84,0,0,0,0,.41,1.07,1.07,0,0,0,0,.18s0,.08.1,0h.07l.19,0,.13,0a1.45,1.45,0,0,0,.35,0C31.42,52.49,31.49,52.53,31.54,52.52Z"/></g><g class="cls-7"><path class="cls-8" d="M34.16,55.71a.21.21,0,0,1,.2.1.36.36,0,0,1,0,.11.37.37,0,0,1,0,.15c0,.06,0,.09,0,.1h0c-.1.11-.17.11-.23,0s0,0-.07,0a.69.69,0,0,0-.32,0h-.55c-.19,0-.38,0-.35-.18s0-.21,0-.32v0a1.15,1.15,0,0,0,0-.37,1,1,0,0,1,0-.17l0-.32s0-.07,0-.11l0,0H33l0,0a.7.7,0,0,1,0,.14l0,.27a.92.92,0,0,1,0,.16,1.89,1.89,0,0,0,0,.41,1,1,0,0,0,0,.17c0,.06,0,.09.1,0l0,0h0l.19,0h.12a1.39,1.39,0,0,0,.35,0C34,55.67,34.1,55.71,34.16,55.71Z"/></g><g class="cls-7"><path class="cls-8" d="M36.35,58.24a.22.22,0,0,1,.19.13.29.29,0,0,1,0,.11.26.26,0,0,1,0,.14c0,.07,0,.09-.06.1h0c-.1.09-.18.09-.23,0a.08.08,0,0,0,0-.05.71.71,0,0,0-.32-.07.58.58,0,0,1-.19,0l-.36,0c-.19,0-.38,0-.32-.23l.05-.31a.11.11,0,0,0,0,0,1.18,1.18,0,0,0,0-.37,1,1,0,0,1,0-.17l.08-.31s0-.07,0-.11l0,0h.06l0,0a.59.59,0,0,1,0,.14c0,.09,0,.18,0,.27a.42.42,0,0,1,0,.16,2.75,2.75,0,0,0,0,.41c0,.06,0,.14,0,.17s0,.09.1.06h.39a1.37,1.37,0,0,0,.35,0A.49.49,0,0,1,36.35,58.24Z"/></g><g class="cls-7"><path class="cls-8" d="M35.32,60.84a.22.22,0,0,1,.19.13.81.81,0,0,1,0,.11.26.26,0,0,1,0,.14c0,.07,0,.09-.06.1h0c-.1.09-.18.09-.23,0a.08.08,0,0,0,0-.05.74.74,0,0,0-.32-.07,1.15,1.15,0,0,1-.19,0l-.36,0c-.19,0-.38,0-.32-.23l.05-.31a.07.07,0,0,1,0,0,1.18,1.18,0,0,0,.05-.37,1,1,0,0,1,0-.17l.08-.31s0-.07,0-.11l0,0h.06l0,0a.59.59,0,0,1,0,.14V60a.38.38,0,0,1,0,.15c0,.13,0,.27,0,.41s0,.14,0,.17,0,.09.1.06h.38a1.45,1.45,0,0,0,.36,0A.49.49,0,0,1,35.32,60.84Z"/></g><g class="cls-7"><path class="cls-8" d="M38.51,61a.23.23,0,0,1,.18.14l0,.11a.33.33,0,0,1,0,.15c0,.06,0,.08-.06.09h0c-.1.09-.18.09-.22,0s0,0-.06,0a.59.59,0,0,0-.32-.08l-.19,0-.36,0c-.19,0-.37,0-.31-.24l.06-.3a.13.13,0,0,0,0-.06,1.13,1.13,0,0,0,.06-.36.53.53,0,0,1,0-.17l.09-.31s0-.07,0-.11,0,0,0,0h0l0,0s0,.09,0,.14l0,.28a.38.38,0,0,1,0,.15,1.93,1.93,0,0,0,0,.41,1.49,1.49,0,0,0,0,.17c0,.06,0,.09.09.06H38a1.43,1.43,0,0,0,.36,0C38.39,61,38.45,61,38.51,61Z"/></g><g class="cls-7"><path class="cls-8" d="M37.72,63.21a.2.2,0,0,1,.17.15.29.29,0,0,1,0,.11.5.5,0,0,1,0,.14c0,.06,0,.08-.07.09h0c-.11.09-.19.08-.23,0s0,0,0,0a.71.71,0,0,0-.31-.1,1.08,1.08,0,0,1-.19,0l-.36-.06c-.19,0-.37-.06-.3-.25l.08-.3a.07.07,0,0,1,0,0,1.55,1.55,0,0,0,.08-.36.47.47,0,0,1,0-.17c0-.1.07-.21.11-.31s0-.07,0-.1l0,0h.06l0,0a.66.66,0,0,1,0,.14l0,.28a.77.77,0,0,1,0,.15,1.4,1.4,0,0,0-.05.41s0,.14,0,.17,0,.09.1.06h.38a1.42,1.42,0,0,0,.36,0C37.61,63.15,37.66,63.2,37.72,63.21Z"/></g><g class="cls-7"><path class="cls-8" d="M40.12,65.24a.23.23,0,0,1,.16.17.37.37,0,0,1,0,.11l-.06.14c0,.06,0,.07-.08.08h0c-.13.08-.2.05-.22-.06a.08.08,0,0,0,0-.06.76.76,0,0,0-.3-.14.61.61,0,0,1-.18,0l-.35-.11c-.18,0-.35-.11-.26-.29l.12-.29s0,0,0,0a1.06,1.06,0,0,0,.12-.34.61.61,0,0,1,.07-.17l.15-.28,0-.1,0,0h.06l0,0s0,.1,0,.15l-.06.27s0,.1,0,.14a1.49,1.49,0,0,0-.11.4.88.88,0,0,0-.06.17s0,.09.08.07h0a.07.07,0,0,1,0,0l.18,0,.13,0a1.89,1.89,0,0,0,.34.09A.42.42,0,0,1,40.12,65.24Z"/></g><g class="cls-7"><path class="cls-8" d="M41.33,62.77a.23.23,0,0,1,.18.15.31.31,0,0,1,0,.11.29.29,0,0,1,0,.14c0,.07,0,.09-.07.1h0c-.12.09-.19.08-.23,0s0,0-.05,0a.59.59,0,0,0-.32-.09l-.18,0L40.29,63c-.19,0-.37-.06-.31-.25l.08-.3a.07.07,0,0,1,0-.05,1.15,1.15,0,0,0,.07-.36.84.84,0,0,1,0-.17l.1-.31s0-.07,0-.1l0,0h0l0,0a.66.66,0,0,1,0,.14l0,.28a.77.77,0,0,1,0,.15,1.4,1.4,0,0,0,0,.41.61.61,0,0,0,0,.17c0,.06,0,.09.09.06h.07l.19,0h.13a2,2,0,0,0,.35,0C41.22,62.72,41.27,62.77,41.33,62.77Z"/></g><g class="cls-7"><path class="cls-8" d="M25.77,53.79a.21.21,0,0,1,.21.07L26,54a.28.28,0,0,1,0,.14c0,.07,0,.1,0,.12h0c-.07.13-.14.14-.22.05a.07.07,0,0,0-.07,0,.69.69,0,0,0-.32,0l-.19,0-.36.07c-.18.05-.36.07-.37-.13l0-.32a.11.11,0,0,0,0-.05,1.08,1.08,0,0,0-.05-.36,1.1,1.1,0,0,1,0-.18V53s0-.07,0-.1l0,0,0,0h0l0,0,.06.13.06.27a.37.37,0,0,1,0,.15,1.92,1.92,0,0,0,.09.4s0,.14,0,.17.05.08.11,0l0,0,.05,0,.18,0,.12,0a1.43,1.43,0,0,0,.34-.09C25.64,53.77,25.71,53.8,25.77,53.79Z"/></g><g class="cls-7"><path class="cls-8" d="M28.46,56.16a.21.21,0,0,1,.2.11.51.51,0,0,1,0,.1.37.37,0,0,1,0,.15c0,.07,0,.09-.05.1h0c-.09.11-.16.11-.23,0s0,0-.06,0a.85.85,0,0,0-.32,0,.62.62,0,0,1-.19,0l-.37,0c-.18,0-.37,0-.34-.19l0-.31s0,0,0-.06a1.45,1.45,0,0,0,0-.36.55.55,0,0,1,0-.18l0-.32a.34.34,0,0,0,0-.1.05.05,0,0,1,0,0h.06l0,0,0,.14,0,.28a.76.76,0,0,1,0,.15,1.89,1.89,0,0,0,0,.41,1,1,0,0,0,0,.17c0,.06,0,.09.1,0h0s0,0,0,0l.19,0,.13,0a1.45,1.45,0,0,0,.35,0C28.33,56.13,28.4,56.17,28.46,56.16Z"/></g><g class="cls-7"><path class="cls-8" d="M31.07,59.34a.24.24,0,0,1,.2.11,1.17,1.17,0,0,1,.05.11.36.36,0,0,1,0,.14c0,.07,0,.1,0,.11h0c-.09.12-.17.12-.23,0s0,0-.06,0a.62.62,0,0,0-.33,0,1.21,1.21,0,0,1-.19,0l-.36,0c-.19,0-.38,0-.35-.18l0-.32v-.05a.92.92,0,0,0,0-.37.91.91,0,0,1,0-.17c0-.11,0-.22.05-.32a.41.41,0,0,1,0-.11l0,0h.05s0,0,0,0a.58.58,0,0,1,0,.14l0,.27a.81.81,0,0,1,0,.16,1.89,1.89,0,0,0,0,.41,1,1,0,0,0,0,.17c0,.06,0,.08.1,0h.08l.19,0h.12a1.39,1.39,0,0,0,.35,0C31,59.31,31,59.35,31.07,59.34Z"/></g><g class="cls-7"><path class="cls-8" d="M33.27,61.87a.23.23,0,0,1,.18.14.18.18,0,0,1,0,.11.26.26,0,0,1,0,.14c0,.07,0,.09-.06.1h0c-.1.1-.18.1-.23,0s0,0,0,0a.71.71,0,0,0-.32-.07.58.58,0,0,1-.19,0l-.36,0c-.19,0-.38,0-.32-.22l0-.31a.13.13,0,0,0,0-.06.9.9,0,0,0,.05-.36,1,1,0,0,1,0-.17l.09-.31a.41.41,0,0,1,0-.11l0,0h.06l0,0a.78.78,0,0,1,0,.14c0,.1,0,.19,0,.28a.43.43,0,0,1,0,.16,2.75,2.75,0,0,0,0,.41c0,.05,0,.14,0,.17s0,.09.1.06h0s0,0,0,0h.32a1.37,1.37,0,0,0,.35,0C33.15,61.83,33.21,61.87,33.27,61.87Z"/></g><g class="cls-7"><path class="cls-8" d="M35.81,64.34a.22.22,0,0,1,.19.13l0,.11a.56.56,0,0,1,0,.15c0,.06,0,.08-.06.09h0c-.11.09-.18.09-.23,0s0,0-.05,0a.69.69,0,0,0-.32-.08l-.19,0-.36,0c-.19,0-.37-.05-.31-.23l.06-.31a.13.13,0,0,1,0-.06,1.51,1.51,0,0,0,.06-.36,1,1,0,0,1,0-.17l.09-.31s0-.07,0-.1a.05.05,0,0,1,0,0h.06l0,0a.68.68,0,0,1,0,.14l0,.28a.38.38,0,0,1,0,.15,1.93,1.93,0,0,0,0,.41c0,.06,0,.14,0,.17s0,.09.1.06h0s0,0,0,0h.32a1.37,1.37,0,0,0,.35,0A.49.49,0,0,1,35.81,64.34Z"/></g><g class="cls-7"><path class="cls-8" d="M43.88,64.17a.23.23,0,0,1,.19.13l0,.11a.93.93,0,0,1,0,.14.18.18,0,0,1-.06.1h0c-.11.1-.18.09-.23,0a.07.07,0,0,0-.06,0,.59.59,0,0,0-.32-.08,1.28,1.28,0,0,1-.19,0l-.36,0c-.19,0-.37,0-.32-.23l.06-.31a.09.09,0,0,1,0,0,1.5,1.5,0,0,0,0-.37.36.36,0,0,1,0-.17l.08-.31a.37.37,0,0,0,0-.11s0,0,0,0h.05l0,0a.61.61,0,0,1,0,.14v.28s0,.1,0,.15a1.41,1.41,0,0,0,0,.41.59.59,0,0,0,0,.17c0,.06,0,.09.09.06h.39a2.14,2.14,0,0,0,.36,0C43.76,64.12,43.82,64.17,43.88,64.17Z"/></g><g class="cls-7"><path class="cls-8" d="M42.85,66.77a.23.23,0,0,1,.19.13l0,.11a.44.44,0,0,1,0,.14c0,.07,0,.09-.06.1h0c-.11.1-.18.09-.23,0a.07.07,0,0,0-.06,0,.59.59,0,0,0-.32-.08,1.28,1.28,0,0,1-.19,0l-.36,0c-.19,0-.37,0-.32-.23l.06-.31v-.05a.92.92,0,0,0,0-.37.59.59,0,0,1,0-.17c0-.1.05-.21.08-.31s0-.07,0-.11,0,0,0,0h.06l0,0s0,.09,0,.14V66a.38.38,0,0,1,0,.15,1.41,1.41,0,0,0,0,.41.59.59,0,0,0,0,.17c0,.06,0,.09.09.06h.39a2.14,2.14,0,0,0,.36,0C42.73,66.72,42.79,66.77,42.85,66.77Z"/></g><g class="cls-7"><path class="cls-8" d="M46,67a.22.22,0,0,1,.19.13l0,.11a.56.56,0,0,1,0,.15c0,.06,0,.08-.06.09h0c-.11.09-.18.09-.23,0s0,0-.06,0a.68.68,0,0,0-.31-.08l-.19,0-.36,0c-.19,0-.37,0-.32-.23l.07-.31a.13.13,0,0,1,0-.06,1.51,1.51,0,0,0,.06-.36.51.51,0,0,1,0-.17l.09-.31s0-.07,0-.1a.05.05,0,0,1,0,0H45s0,0,0,0a.78.78,0,0,1,0,.14l0,.28a.38.38,0,0,1,0,.15,1.93,1.93,0,0,0,0,.41,1.68,1.68,0,0,0,0,.18s0,.09.1,0h.39a1.35,1.35,0,0,0,.35,0C45.92,66.9,46,66.94,46,67Z"/></g><path class="cls-5" d="M22.92,67.63a.23.23,0,0,0-.12-.08h-.09s0-.08,0-.12h0l0,.1,0,0c.11,0,.13-.06.11-.09a.07.07,0,0,1,0-.06.16.16,0,0,0-.05-.16s0,0,0,0a.88.88,0,0,0,0-.16s0,0-.06-.07l-.14-.22a1.45,1.45,0,0,0-.17-.18l-.11,0-.21-.08c-.07,0-.15,0-.21-.06h0l-.07,0a1.51,1.51,0,0,0-.3,0c-.07,0-.12.07-.19.09a.42.42,0,0,0-.18.11s0,0,0,0,0,.07-.07.1-.08.11-.13.16a.34.34,0,0,0-.09.15s0,0,0,.08,0,.08,0,.12-.05.09-.06.14v.12a.25.25,0,0,0,0,.07.38.38,0,0,1,0,.18.42.42,0,0,0,0,.15s0,0,0,.06l0,0s0,0,0,0,.08.21.18.27.08.08.13.12l0,0,.21.07a.2.2,0,0,1,.08,0c.07,0,.15,0,.21.06h0a.15.15,0,0,1,.13,0,.2.2,0,0,0,.15,0s.07,0,.11,0h.06l.11,0h0l.12-.05s0,0,.06,0,0-.06,0-.07a.54.54,0,0,0,.18-.11,1.29,1.29,0,0,0,.19-.21s0,0,0,0,.07,0,0-.1,0,0,0,0a.57.57,0,0,0,.11-.11h0A1.07,1.07,0,0,0,22.92,67.63Zm-.24.12h0a.68.68,0,0,0,0-.14C22.75,67.66,22.71,67.71,22.68,67.75Z"/><path class="cls-3" d="M40.27,11.38a.22.22,0,0,0-.13-.07l-.07,0h0a.5.5,0,0,0,0-.12h0l0,.1,0,0c.11,0,.13-.06.11-.08s0-.05,0-.07a.16.16,0,0,0-.05-.16s0,0,0,0a.43.43,0,0,0,0-.16s0,0-.05-.07A1.43,1.43,0,0,0,40,10.5a1.29,1.29,0,0,0-.16-.18l-.11-.05-.21-.08c-.07,0-.15,0-.21-.06h0l-.07,0c-.1,0-.2,0-.3,0s-.13.07-.19.09a.54.54,0,0,0-.18.11l0,0s0,.08-.07.1-.08.11-.13.16a.49.49,0,0,0-.1.15s0,0,0,.08,0,.08,0,.12-.05.09-.06.14v.13s0,0,0,.07a.36.36,0,0,1,0,.18.37.37,0,0,0,0,.14s0,0,0,.06v0l0,0c.06.09.08.21.18.27a.68.68,0,0,1,.12.12l.05,0,.21.07.08,0c.07,0,.15,0,.21.06h0a.15.15,0,0,1,.13,0,.17.17,0,0,0,.14,0s.08,0,.12,0h.06l.11,0h0l.12,0s0,0,.06,0,0-.06,0-.07a.54.54,0,0,0,.18-.11.91.91,0,0,0,.18-.21s0,0,0,0,.06-.05,0-.1,0,0,0,0a1.14,1.14,0,0,0,.11-.11h0A1.07,1.07,0,0,0,40.27,11.38ZM40,11.5h0a.59.59,0,0,0,0-.14C40.1,11.41,40.06,11.46,40,11.5Z"/><path class="cls-6" d="M65.88,37.78a.29.29,0,0,0-.13-.08h-.08a.5.5,0,0,0,0-.12h0l0,.1,0,0c.11,0,.13-.06.11-.09a.07.07,0,0,1,0-.06.16.16,0,0,0,0-.16s0,0,0,0a.43.43,0,0,0,0-.16s0,0,0-.07a1.43,1.43,0,0,0-.15-.22,1.29,1.29,0,0,0-.16-.18l-.11,0-.21-.08c-.07,0-.15,0-.21-.06h0l-.07,0a1.51,1.51,0,0,0-.3,0c-.07,0-.12.07-.19.09a.42.42,0,0,0-.18.11s0,0,0,0,0,.07-.07.1-.08.11-.13.16a.49.49,0,0,0-.1.15s0,0,0,.08,0,.08,0,.12-.05.09-.06.14v.12s0,0,0,.07a.38.38,0,0,1,0,.18.42.42,0,0,0,0,.15s0,0,0,.06v0l0,0c.06.09.08.21.18.27s.08.08.12.12l0,0,.21.07.08,0c.07,0,.15,0,.21.06h0a.15.15,0,0,1,.13,0,.17.17,0,0,0,.14,0s.08,0,.12,0h.06l.11,0h0l.12,0s0,0,.06,0,0-.06,0-.07a.54.54,0,0,0,.18-.11.91.91,0,0,0,.18-.21s0,0,0,0,.06-.05,0-.1v0L66,38h0A1.07,1.07,0,0,0,65.88,37.78Zm-.24.12h0a.59.59,0,0,0,0-.14C65.71,37.81,65.67,37.86,65.64,37.9Z"/></g></g></g></svg>