<svg xmlns="http://www.w3.org/2000/svg" viewBox="0 0 78.73 86.69"><defs><style>.cls-1{fill:#292d37;}.cls-2{fill:#f9ba2b;}.cls-3{fill:#fa483c;}.cls-4{fill:#31b595;}.cls-5{fill:#fff;}</style></defs><g id="Слой_2" data-name="Слой 2"><g id="OBJECTS"><rect class="cls-1" width="78.73" height="86.69"/><path class="cls-2" d="M21.28,17.47a.52.52,0,0,0-.55-.75l-3.44.61a.52.52,0,0,1-.46-.14L14.38,14.7a.52.52,0,0,0-.88.3L13,18.46a.55.55,0,0,1-.29.39L9.61,20.41a.52.52,0,0,0,0,.93l3.14,1.53a.53.53,0,0,1,.29.39l.52,3.45a.51.51,0,0,0,.88.28l2.43-2.52a.52.52,0,0,1,.46-.15l3.44.57a.51.51,0,0,0,.54-.75l-1.64-3.09a.54.54,0,0,1,0-.48Z"/><path class="cls-2" d="M78.73,57.24v7.37l-1.09-.18a.53.53,0,0,0-.46.16L74.76,67.1a.52.52,0,0,1-.89-.28l-.52-3.45a.51.51,0,0,0-.29-.39l-3.14-1.53a.52.52,0,0,1,0-.93L73,59a.56.56,0,0,0,.28-.39l.48-3.46a.52.52,0,0,1,.88-.3l2.45,2.49a.53.53,0,0,0,.46.15Z"/><path class="cls-2" d="M69.73,8.43l-3.45-.57a.52.52,0,0,0-.46.15L63.4,10.53a.51.51,0,0,1-.88-.28L62,6.79a.5.5,0,0,0-.28-.38L58.56,4.88a.52.52,0,0,1,0-.93l3.12-1.57A.5.5,0,0,0,62,2l.28-2h2.82l.72.73a.52.52,0,0,0,.46.14L69.68.26a.52.52,0,0,1,.55.75l-1.61,3.1a.51.51,0,0,0,0,.48l1.65,3.08A.52.52,0,0,1,69.73,8.43Z"/><path class="cls-2" d="M58.21,83.67l-1.57,3H46.42l.12-.08,3.12-1.56a.53.53,0,0,0,.28-.39l.48-3.46a.52.52,0,0,1,.88-.3l2.46,2.49a.52.52,0,0,0,.46.15l3.44-.62A.52.52,0,0,1,58.21,83.67Z"/><path class="cls-3" d="M78.73,20v6l-1,1.05a.53.53,0,0,1-.89-.29l-.52-3.45a.53.53,0,0,0-.29-.39l-3.14-1.52a.52.52,0,0,1,0-.93L76,18.87a.54.54,0,0,0,.28-.39l.19-1.37C77.26,18,78,19,78.73,20Z"/><path class="cls-3" d="M53.38,56.23a.52.52,0,0,0-.33-.87L49.58,55a.49.49,0,0,1-.4-.26l-1.69-3.06a.52.52,0,0,0-.93,0l-1.4,3.2a.53.53,0,0,1-.38.3l-3.43.65a.52.52,0,0,0-.25.9l2.61,2.32a.54.54,0,0,1,.17.46L43.44,63a.52.52,0,0,0,.78.51l3-1.76a.54.54,0,0,1,.48,0l3.16,1.49a.52.52,0,0,0,.73-.58l-.75-3.42a.52.52,0,0,1,.13-.46Z"/><path class="cls-4" d="M69,34.81a.51.51,0,0,0-.55-.74L65,34.68a.53.53,0,0,1-.46-.15l-2.45-2.48a.51.51,0,0,0-.88.29l-.48,3.46a.54.54,0,0,1-.28.39l-3.13,1.57a.51.51,0,0,0,0,.92l3.14,1.53a.55.55,0,0,1,.29.39l.52,3.45a.52.52,0,0,0,.89.28l2.42-2.51a.5.5,0,0,1,.46-.15l3.44.56a.51.51,0,0,0,.54-.75L67.35,38.4a.51.51,0,0,1,0-.48Z"/><path class="cls-4" d="M0,43.08l.55-.57A.52.52,0,0,1,1,42.36l3.44.57A.52.52,0,0,0,5,42.17L3.35,39.09a.51.51,0,0,1,0-.48L5,35.51a.52.52,0,0,0-.55-.75L1,35.37a.5.5,0,0,1-.46-.15L0,34.71Z"/><path class="cls-4" d="M23.88,0H28.5L30,2.79a.52.52,0,0,1-.55.75L26,3a.53.53,0,0,0-.46.16L23.12,5.64a.52.52,0,0,1-.89-.28l-.52-3.45a.51.51,0,0,0-.29-.39L19.68,0Z"/><path class="cls-4" d="M25,86.21l-3.44-.57a.52.52,0,0,0-.46.15l-.86.9H17.58l-.32-2.12a.53.53,0,0,0-.29-.39l-3.14-1.52a.52.52,0,0,1,0-.93L17,80.16a.52.52,0,0,0,.28-.39l.48-3.46a.52.52,0,0,1,.88-.29L21,78.51a.53.53,0,0,0,.46.14L24.94,78a.52.52,0,0,1,.55.75l-1.6,3.1a.51.51,0,0,0,0,.48l1.65,3.08A.52.52,0,0,1,25,86.21Z"/><path class="cls-3" d="M51.91,16.08a.52.52,0,0,0,.07-.93l-3-1.78a.53.53,0,0,1-.25-.41l-.24-3.49a.51.51,0,0,0-.85-.35L45,11.43a.53.53,0,0,1-.47.11l-3.38-.85a.52.52,0,0,0-.61.71l1.39,3.2a.51.51,0,0,1,0,.48L40,18a.52.52,0,0,0,.49.79L44,18.51a.51.51,0,0,1,.45.18l2.24,2.68a.52.52,0,0,0,.9-.22l.76-3.4a.52.52,0,0,1,.32-.37Z"/><path class="cls-3" d="M21.46,53.4a.52.52,0,0,0-.45-.82l-3.49.16a.54.54,0,0,1-.44-.2L15,49.75a.52.52,0,0,0-.91.18l-.92,3.37a.55.55,0,0,1-.33.35L9.51,54.8a.52.52,0,0,0-.12.92l2.92,1.92a.5.5,0,0,1,.23.42l.07,3.5a.52.52,0,0,0,.84.39l2.73-2.18a.52.52,0,0,1,.48-.09l3.34,1a.52.52,0,0,0,.63-.68L19.4,56.74a.54.54,0,0,1,.06-.48Z"/><path class="cls-5" d="M50.53,16.64h0A18,18,0,0,0,43,15.27c-.43,0-.85,0-1.27.05-10.53.8-17.62,11.47-18,20.74-.32,6.21,4,10.43,10,10.43,6.85,0,12.51-6.45,15.77-12.26-1.91,11.23-11.31,31.61-21,31.61-4.78,0-6.93-5.25-6.69-9.16-.24-.55-.48-.63-.88-.15v.07c-.64,4.86,2.39,10.52,7.57,10.52,5.78,0,11-2.66,15.33-6.72a37.44,37.44,0,0,0,5.19-6A45.4,45.4,0,0,0,56.39,36.3C58,26.08,56.52,19.35,50.53,16.64Zm-.67,15c-2.31,4.38-8.92,13.86-16.09,13.86-5.81,0-9.24-3.75-9-9.48.45-9.52,7.37-18.56,16.32-19.71A15.23,15.23,0,0,1,43,16.23a5.79,5.79,0,0,1,5.09,2.65C50.25,22.08,50.29,27.55,49.86,31.68Z"/><path class="cls-5" d="M10.31,10.8a.31.31,0,0,0-.12-.07h-.08a.41.41,0,0,0,0-.11h0l0,.09,0,0c.1,0,.12-.05.11-.08a.14.14,0,0,1,0-.06.15.15,0,0,0,0-.14s0,0,0,0a.38.38,0,0,0,0-.15s0,0-.05-.06A1.37,1.37,0,0,0,10,10a.77.77,0,0,0-.15-.16.24.24,0,0,0-.1-.05L9.6,9.71c-.07,0-.14,0-.2-.05H9.32l-.27,0c-.07,0-.12.06-.18.08a.39.39,0,0,0-.16.1s0,0,0,0L8.61,10s-.07.1-.12.14a.42.42,0,0,0-.09.14s0,.05,0,.08,0,.07,0,.1,0,.08,0,.13a.22.22,0,0,0,0,.08v0s0,0,0,.06a.51.51,0,0,1,0,.17.27.27,0,0,0,0,.12s0,0,0,.07h0l0,0c0,.08.07.19.16.24s.07.08.12.12l0,0,.19.07a.15.15,0,0,1,.07,0c.07,0,.14,0,.2.06h0a.13.13,0,0,1,.12,0,.17.17,0,0,0,.14,0s.07,0,.1,0H9.6l.09,0h0l.1,0a.07.07,0,0,1,.06,0s0-.06,0-.06a.46.46,0,0,0,.16-.11,1,1,0,0,0,.17-.19s0,0,0-.05.06,0,0-.08,0,0,0,0l.09-.11h0Zm-.22.11h0s0-.08,0-.12S10.12,10.88,10.09,10.91Z"/><path class="cls-5" d="M27.63,53.51a.26.26,0,0,0-.11-.07h-.08a.43.43,0,0,0,0-.11h0l0,.09,0,0c.1,0,.12,0,.11-.08a.14.14,0,0,1,0-.06.14.14,0,0,0,0-.14s0,0,0,0a.38.38,0,0,0,0-.15s0,0-.05-.06a1.37,1.37,0,0,0-.13-.2.57.57,0,0,0-.15-.16.53.53,0,0,0-.1-.06l-.19-.07c-.07,0-.14,0-.2-.05h-.08l-.27,0c-.07,0-.12.07-.18.08a.57.57,0,0,0-.16.11l0,0a.53.53,0,0,1-.06.1c-.05,0-.07.1-.12.14a.42.42,0,0,0-.09.14s0,0,0,.07a.43.43,0,0,1,0,.11s0,.08-.05.13,0,.05,0,.08v0a.25.25,0,0,0,0,.07.45.45,0,0,1,0,.16.28.28,0,0,0,0,.13s0,0,0,.06,0,0,0,0,0,0,0,0,.07.19.16.24a1.31,1.31,0,0,1,.12.11l0,0,.19.07s.05,0,.08,0,.13,0,.19.06h0a.2.2,0,0,1,.13,0,.2.2,0,0,0,.13,0s.07,0,.1,0h.06l.09,0h0l.11-.05.05,0s0-.06,0-.07a.37.37,0,0,0,.16-.1,1,1,0,0,0,.17-.19s0,0,0-.05.06,0,0-.09,0,0,0,0l.09-.11s0,0,0,0A.85.85,0,0,0,27.63,53.51Zm-.22.11h0a.51.51,0,0,0,0-.13C27.48,53.54,27.44,53.58,27.41,53.62Z"/><path class="cls-5" d="M66.77,74.75a.19.19,0,0,0-.11-.06l-.07,0h0a.52.52,0,0,0,0-.11h0l0,.09,0,0c.1,0,.12,0,.11-.08a.14.14,0,0,1,0-.06.15.15,0,0,0,0-.14s0,0,0,0a.33.33,0,0,0,0-.14s0,0-.05-.07L66.5,74a.75.75,0,0,0-.15-.16s-.07,0-.1-.05l-.19-.07c-.07,0-.14,0-.2-.06h0l-.06,0a1.23,1.23,0,0,0-.27,0c-.07,0-.12.06-.18.08a.39.39,0,0,0-.16.1s0,0,0,0,0,.07-.06.09-.07.1-.12.14-.06.1-.09.14,0,0,0,.08a.3.3,0,0,1,0,.1s0,.09,0,.13a.22.22,0,0,0,0,.08v0a.14.14,0,0,0,0,.06.51.51,0,0,1,0,.17.31.31,0,0,0,0,.13.06.06,0,0,1,0,.06s0,0,0,0,0,0,0,0,.07.19.16.24a.68.68,0,0,1,.12.12l0,0,.19.07.08,0c.06,0,.13,0,.19,0h0a.15.15,0,0,1,.13,0,.15.15,0,0,0,.13,0s.07,0,.1,0h.06a.32.32,0,0,0,.09,0h0l.11,0s0,0,0,0,0-.06,0-.06a.31.31,0,0,0,.16-.11,1,1,0,0,0,.17-.18s0,0,0-.06.06,0,0-.08,0,0,0,0l.09-.1s0,0,0,0A1.15,1.15,0,0,0,66.77,74.75Zm-.22.11h0a.5.5,0,0,0,0-.12C66.62,74.78,66.58,74.83,66.55,74.86Z"/><path class="cls-5" d="M11.11,71.63s0,0-.11-.07h-.08s0-.08,0-.11h0l0,.08s0,0,0,0,.11-.06.1-.08a.07.07,0,0,1,0-.06.14.14,0,0,0-.05-.15v0a.77.77,0,0,0,0-.15s0,0-.06-.06a1.2,1.2,0,0,0-.13-.21,1.1,1.1,0,0,0-.15-.16l-.1,0-.19-.07c-.07,0-.14,0-.2-.05h-.08l-.27,0c-.06,0-.11.07-.18.08a.54.54,0,0,0-.16.1l0,0s0,.07-.06.09-.07.11-.12.15-.06.09-.08.14,0,0,0,.07a.43.43,0,0,1,0,.11s0,.08-.05.12v.12a.08.08,0,0,0,0,.07.41.41,0,0,1,0,.16.2.2,0,0,0,0,.13.06.06,0,0,1,0,.06s0,0,0,0l0,0c0,.08.06.19.16.24s.07.08.11.11l0,0,.18.06.08,0c.06,0,.13,0,.19.05h0a.32.32,0,0,1,.13,0,.15.15,0,0,0,.13,0s.07,0,.1,0h.06l.1,0h0l.11,0h0s0,0,0-.06a.42.42,0,0,0,.16-.11,1,1,0,0,0,.17-.18s0,0,0,0,.06,0,0-.09,0,0,0,0l.1-.1h0A.87.87,0,0,0,11.11,71.63Zm-.21.11h0s0-.09,0-.13S10.92,71.7,10.9,71.74Z"/><path class="cls-5" d="M64,17.5s-.06-.05-.11-.07h-.08a.36.36,0,0,0,0-.11h0l0,.09,0,0c.1,0,.12-.06.11-.08a.14.14,0,0,1,0-.06.17.17,0,0,0,0-.15s0,0,0,0a.38.38,0,0,0,0-.15s0,0-.05-.06a1.37,1.37,0,0,0-.13-.2.8.8,0,0,0-.15-.17l-.1-.05-.19-.07c-.07,0-.14,0-.2-.05H63l-.27,0c-.07,0-.12.07-.18.08a.86.86,0,0,0-.16.1l0,0s0,.07-.06.09-.07.11-.12.15-.06.09-.09.14a.15.15,0,0,0,0,.07.43.43,0,0,1,0,.11s0,.08,0,.13,0,.05,0,.07v0a.19.19,0,0,0,0,.07.41.41,0,0,1,0,.16.28.28,0,0,0,0,.13s0,0,0,.06,0,0,0,0,0,0,0,0,.07.19.16.24.08.08.12.11l0,0a1.39,1.39,0,0,0,.19.06l.08,0c.06,0,.13,0,.19.05s0,0,0,0a.2.2,0,0,1,.13,0,.2.2,0,0,0,.13,0s.07,0,.1,0h.06l.09,0h0l.11,0h0s0-.05,0-.06a.37.37,0,0,0,.16-.1,1,1,0,0,0,.17-.19s0,0,0-.05.06,0,0-.09,0,0,0,0l.09-.1s0,0,0,0A.85.85,0,0,0,64,17.5Zm-.22.11h0a.51.51,0,0,0,0-.13C63.86,17.53,63.82,17.57,63.79,17.61Z"/></g></g></svg>